<svg width="66" height="66" viewBox="0 0 66 66" fill="none" xmlns="http://www.w3.org/2000/svg">
<path d="M32.999 14.3194C31.189 14.0694 29.119 13.9194 27.769 15.1694C27.4484 15.4674 27.1935 15.829 27.0204 16.231C26.8473 16.633 26.7599 17.0667 26.7638 17.5043C26.7677 17.942 26.8627 18.3741 27.0428 18.773C27.223 19.1719 27.4843 19.5289 27.81 19.8212C28.1358 20.1135 28.519 20.3347 28.935 20.4707C29.351 20.6067 29.7908 20.6545 30.2264 20.611C30.6619 20.5676 31.0836 20.4338 31.4646 20.2183C31.8455 20.0028 32.1774 19.7103 32.439 19.3594L33.339 29.9994C33.3247 30.8367 33.554 31.6601 33.999 32.3694C34.939 33.5594 36.749 33.4494 38.249 33.2194L42.999 32.4894C43.3467 32.4518 43.6851 32.3536 43.999 32.1994C44.909 31.6794 44.999 30.4194 45.269 29.4094C45.5507 28.5016 46.0972 27.6986 46.8384 27.1035C47.5796 26.5084 48.4818 26.1483 49.429 26.0694C49.8462 26.0185 50.2695 26.0583 50.6699 26.186C51.0702 26.3137 51.4384 26.5264 51.749 26.8094C52.1054 27.2078 52.3715 27.6786 52.529 28.1894C53.0212 29.502 53.3569 30.8681 53.529 32.2594L58.649 32.8194C60.549 33.0294 62.499 32.4194 64.379 32.0194C63.7288 23.4571 63.8292 14.8542 64.679 6.30941C64.829 4.78941 64.849 2.93941 63.559 2.12941C62.9162 1.80471 62.1975 1.6596 61.479 1.70941C52.1457 1.49608 42.8124 1.74608 33.479 2.45941C33.0101 6.39419 32.8496 10.3596 32.999 14.3194Z" fill="#00FF85"/>
<path d="M1.57961 65.8996H64.4196C64.8121 65.8996 65.1886 65.7437 65.4661 65.4661C65.7437 65.1886 65.8996 64.8121 65.8996 64.4196V1.57961C65.8996 1.18709 65.7437 0.810644 65.4661 0.533091C65.1886 0.255537 64.8121 0.0996094 64.4196 0.0996094H1.57961C1.18709 0.0996094 0.810644 0.255537 0.533091 0.533091C0.255537 0.810644 0.0996094 1.18709 0.0996094 1.57961V64.4196C0.0996094 64.8121 0.255537 65.1886 0.533091 65.4661C0.810644 65.7437 1.18709 65.8996 1.57961 65.8996ZM3.05961 34.4796H15.2996C15.2411 34.8097 15.2109 35.1443 15.2096 35.4796C15.2716 36.967 15.906 38.373 16.9804 39.4035C18.0548 40.434 19.4859 41.0095 20.9746 41.0095C22.4633 41.0095 23.8944 40.434 24.9688 39.4035C26.0432 38.373 26.6776 36.967 26.7396 35.4796C26.7383 35.1443 26.7082 34.8097 26.6496 34.4796H31.5196V42.9996C31.5186 43.2898 31.6036 43.5738 31.7637 43.8159C31.9239 44.0579 32.1521 44.2471 32.4196 44.3596C32.5517 44.4217 32.694 44.459 32.8396 44.4696C33.0505 44.4925 33.2638 44.4685 33.4643 44.3993C33.6649 44.3302 33.8477 44.2176 33.9996 44.0696C34.4568 43.6309 35.0488 43.3595 35.6796 43.2996H35.9996C36.4598 43.3039 36.9119 43.4212 37.3161 43.6411C37.7204 43.861 38.0645 44.1768 38.3181 44.5609C38.5717 44.9449 38.7271 45.3853 38.7707 45.8434C38.8143 46.3016 38.7447 46.7634 38.568 47.1883C38.3913 47.6133 38.1129 47.9883 37.7574 48.2805C37.4018 48.5727 36.9799 48.7731 36.5288 48.864C36.0777 48.955 35.6111 48.9338 35.1701 48.8022C34.7291 48.6707 34.3272 48.4329 33.9996 48.1096L33.8496 47.9996H33.7696L33.6696 47.9396H33.5996C33.4197 47.8533 33.2242 47.8042 33.0249 47.7954C32.8256 47.7866 32.6265 47.8181 32.4397 47.8882C32.2529 47.9582 32.0822 48.0654 31.9378 48.2031C31.7934 48.3408 31.6784 48.5063 31.5996 48.6896C31.5196 48.8795 31.4788 49.0836 31.4796 49.2896V62.9396H3.05961V34.4796ZM62.9396 62.9396H34.4796V51.6596C35.9435 52.0176 37.4894 51.7885 38.7867 51.0215C40.084 50.2545 41.0297 49.0103 41.4216 47.5551C41.8135 46.0999 41.6204 44.5491 40.8838 43.2344C40.1471 41.9196 38.9253 40.9452 37.4796 40.5196C36.4967 40.2579 35.4625 40.2579 34.4796 40.5196V34.5196H45.4796C45.6811 34.5266 45.8819 34.492 46.0694 34.4181C46.257 34.3442 46.4274 34.2325 46.5699 34.0899C46.7125 33.9474 46.8242 33.777 46.8981 33.5894C46.972 33.4019 47.0066 33.2011 46.9996 32.9996C47.0029 32.7039 46.9156 32.4143 46.7496 32.1696C46.4664 31.7466 46.3034 31.2546 46.2781 30.7461C46.2528 30.2377 46.366 29.7319 46.6058 29.2828C46.8456 28.8338 47.2028 28.4583 47.6394 28.1964C48.076 27.9346 48.5755 27.7963 49.0846 27.7963C49.5937 27.7963 50.0932 27.9346 50.5298 28.1964C50.9664 28.4583 51.3236 28.8338 51.5634 29.2828C51.8032 29.7319 51.9165 30.2377 51.8911 30.7461C51.8658 31.2546 51.7028 31.7466 51.4196 32.1696C51.2686 32.3925 51.1813 32.6523 51.167 32.9212C51.1528 33.19 51.2121 33.4576 51.3386 33.6952C51.4651 33.9328 51.6541 34.1314 51.8851 34.2696C52.1161 34.4079 52.3804 34.4805 52.6496 34.4796H62.9396V62.9396ZM33.5496 16.0596C33.8243 15.9482 34.0596 15.7574 34.2252 15.5115C34.3909 15.2657 34.4795 14.9761 34.4796 14.6796V3.05961H62.9396V31.5196H54.7596C54.9104 30.7579 54.9059 29.9735 54.7464 29.2136C54.5868 28.4536 54.2755 27.7337 53.8311 27.0969C53.3867 26.4601 52.8184 25.9195 52.1601 25.5076C51.5018 25.0957 50.7672 24.821 50.0001 24.6997C49.2331 24.5785 48.4496 24.6134 47.6963 24.8022C46.9431 24.9911 46.2358 25.33 45.6167 25.7987C44.9975 26.2674 44.4794 26.8563 44.0933 27.53C43.7072 28.2037 43.461 28.9485 43.3696 29.7196C43.2791 30.3162 43.2791 30.923 43.3696 31.5196H34.4796V20.6096C34.4845 20.533 34.4845 20.4562 34.4796 20.3796C34.4204 19.9928 34.2104 19.6452 33.8956 19.4128C33.5807 19.1805 33.1867 19.0822 32.7996 19.1396C32.4733 19.1885 32.1735 19.3473 31.9496 19.5896C31.6277 19.9269 31.2269 20.1788 30.7833 20.3225C30.3398 20.4663 29.8675 20.4974 29.4089 20.4131C28.9503 20.3288 28.5199 20.1317 28.1565 19.8396C27.7931 19.5475 27.5081 19.1696 27.3271 18.7399C27.1462 18.3101 27.075 17.8422 27.1201 17.3781C27.1651 16.914 27.3249 16.4684 27.585 16.0815C27.8452 15.6946 28.1976 15.3785 28.6103 15.1617C29.0231 14.9449 29.4834 14.8342 29.9496 14.8396C30.3237 14.841 30.6936 14.9179 31.0373 15.0657C31.381 15.2135 31.6913 15.4291 31.9496 15.6996C32.1518 15.9096 32.4112 16.0556 32.6956 16.1195C32.98 16.1835 33.2769 16.1627 33.5496 16.0596ZM3.05961 3.05961H31.5196V12.1096C30.9928 11.9585 30.4476 11.881 29.8996 11.8796C28.4122 11.9416 27.0063 12.576 25.9757 13.6504C24.9452 14.7248 24.3698 16.1559 24.3698 17.6446C24.3698 19.1333 24.9452 20.5644 25.9757 21.6388C27.0063 22.7132 28.4122 23.3476 29.8996 23.4096C30.448 23.4131 30.9939 23.3356 31.5196 23.1796V31.5196H24.4596C24.0706 31.5249 23.6992 31.6831 23.426 31.9601C23.1528 32.2371 22.9996 32.6105 22.9996 32.9996C23.0021 33.3114 23.0998 33.6149 23.2796 33.8696C23.582 34.2893 23.7626 34.7843 23.8016 35.3001C23.8406 35.8159 23.7365 36.3324 23.5008 36.7929C23.265 37.2533 22.9067 37.6397 22.4654 37.9095C22.0241 38.1793 21.5169 38.3221 20.9996 38.3221C20.4823 38.3221 19.9751 38.1793 19.5338 37.9095C19.0925 37.6397 18.7342 37.2533 18.4985 36.7929C18.2627 36.3324 18.1586 35.8159 18.1976 35.3001C18.2366 34.7843 18.4173 34.2893 18.7196 33.8696C18.8765 33.6477 18.9697 33.3872 18.9891 33.1161C19.0085 32.8451 18.9535 32.5739 18.8299 32.3319C18.7063 32.0899 18.5189 31.8863 18.288 31.7431C18.057 31.5999 17.7913 31.5227 17.5196 31.5196H3.05961V3.05961Z" fill="#00396D"/>
</svg>
