<svg width="82" height="70" viewBox="0 0 82 70" fill="none" xmlns="http://www.w3.org/2000/svg">
<path d="M13.3599 2.2998L17.7399 8.49981L23.7499 9.2198L17.6199 16.8098L19.5599 23.2598L12.7799 19.1598L7.08992 21.8298L7.20992 14.5498L2.41992 10.3198L8.97992 8.67981L13.3599 2.2998Z" fill="#00FF85"/>
<path d="M41.6707 2.84961L46.0507 9.04961L52.0507 9.77961L45.9207 17.3596L47.8607 23.8196C45.8607 22.5996 45.4707 20.2296 44.0807 18.4796C43.2764 17.4641 42.146 16.7575 40.8807 16.4796C40.6934 16.4346 40.498 16.4346 40.3107 16.4796C40.0844 16.5529 39.881 16.6839 39.7207 16.8596C38.8513 17.7068 38.1402 18.7025 37.6207 19.7996C37.3775 20.4854 37.0191 21.1245 36.5607 21.6896C36.4407 21.8096 35.3907 22.3496 35.3807 22.3696L35.5107 15.0896L30.7207 10.8596L37.2907 9.21961L41.6707 2.84961Z" fill="#00FF85"/>
<path d="M23.3605 8.13006L17.6405 7.30006L15.0805 2.12006C14.8689 1.69205 14.5419 1.33173 14.1364 1.07979C13.7308 0.827847 13.2629 0.694336 12.7855 0.694336C12.308 0.694336 11.8401 0.827847 11.4346 1.07979C11.029 1.33173 10.702 1.69205 10.4905 2.12006L7.93047 7.30006L2.20047 8.12006C1.65168 8.20914 1.1446 8.46792 0.750474 8.86006C0.269889 9.34185 0 9.99457 0 10.6751C0 11.3556 0.269889 12.0083 0.750474 12.4901L4.90047 16.4901L3.90047 22.2001C3.8345 22.568 3.85024 22.946 3.94657 23.3072C4.0429 23.6684 4.21746 24.004 4.4579 24.2902C4.69834 24.5765 4.99878 24.8063 5.33793 24.9636C5.67708 25.1208 6.04665 25.2015 6.42047 25.2001C6.83148 25.2003 7.2364 25.1008 7.60047 24.9101L12.7205 22.2201L17.8605 24.9101C18.2826 25.1326 18.7587 25.2321 19.2346 25.1975C19.7105 25.1628 20.1671 24.9954 20.5526 24.7141C20.9381 24.4328 21.2369 24.049 21.415 23.6064C21.5932 23.1637 21.6436 22.6799 21.5605 22.2101L20.5605 16.5101L24.7005 12.4601C25.0406 12.1263 25.2809 11.7042 25.3942 11.2413C25.5075 10.7784 25.4893 10.2931 25.3417 9.83998C25.1941 9.38685 24.923 8.98391 24.5588 8.67652C24.1947 8.36913 23.7519 8.16948 23.2805 8.10006L23.3605 8.13006ZM17.6205 16.8101L18.4805 21.8101L14.0005 19.4701C13.6318 19.2715 13.2192 19.1684 12.8005 19.1701C12.3848 19.1675 11.9753 19.2707 11.6105 19.4701L7.10047 21.8401L7.97047 16.8401C8.03578 16.4332 8.00268 16.0166 7.87393 15.6251C7.74518 15.2337 7.52454 14.8787 7.23047 14.5901L3.56047 11.0001L8.62047 10.2801C9.02874 10.2161 9.41586 10.0557 9.74977 9.81223C10.0837 9.56876 10.3547 9.24921 10.5405 8.88006L12.7905 4.31006L15.0505 8.87006C15.2376 9.24316 15.5131 9.56486 15.8529 9.80713C16.1928 10.0494 16.5868 10.2049 17.0005 10.2601L22.0005 11.0001L18.3505 14.5701C18.0583 14.8577 17.8395 15.2113 17.7125 15.6011C17.5854 15.9909 17.5539 16.4055 17.6205 16.8101Z" fill="#00396D"/>
<path d="M79.8002 8.13002L74.0802 7.30002L71.5202 2.12003C71.2122 1.51831 70.6787 1.06284 70.0361 0.853015C69.3935 0.64319 68.694 0.696037 68.0902 1.00002C67.5892 1.24891 67.1847 1.65684 66.9402 2.16002L64.3702 7.34002L58.6402 8.16002C58.1687 8.22944 57.726 8.42909 57.3618 8.73648C56.9977 9.04387 56.7265 9.44681 56.579 9.89994C56.4314 10.3531 56.4132 10.8384 56.5265 11.3013C56.6398 11.7642 56.88 12.1863 57.2202 12.52L61.3702 16.52L60.3702 22.23C60.2603 22.8982 60.4195 23.5827 60.8131 24.1337C61.2067 24.6847 61.8025 25.0573 62.4702 25.17C63.0197 25.2696 63.5868 25.1815 64.0802 24.92L69.2002 22.23L74.3202 24.92C74.6182 25.0767 74.9442 25.173 75.2795 25.2036C75.6148 25.2341 75.9529 25.1981 76.2743 25.0978C76.5957 24.9975 76.8941 24.8348 77.1525 24.6189C77.4109 24.4031 77.6242 24.1384 77.7802 23.84C78.036 23.3411 78.1237 22.7729 78.0302 22.22L77.0302 16.52L81.1802 12.47C81.5204 12.1363 81.7606 11.7142 81.8739 11.2513C81.9872 10.7884 81.969 10.3031 81.8214 9.84994C81.6739 9.39682 81.4027 8.99387 81.0386 8.68648C80.6744 8.37909 80.2317 8.17945 79.7602 8.11003L79.8002 8.13002ZM74.0602 16.81L74.9302 21.81L70.4202 19.45C70.0527 19.2531 69.6422 19.15 69.2252 19.15C68.8082 19.15 68.3977 19.2531 68.0302 19.45L63.5302 21.82L64.3902 16.82C64.4607 16.4131 64.4301 15.995 64.301 15.6027C64.172 15.2103 63.9485 14.8557 63.6502 14.57L60.0002 11L65.0002 10.27C65.4225 10.2218 65.8263 10.0696 66.1753 9.82699C66.5244 9.58441 66.8078 9.25904 67.0002 8.88002L69.2602 4.31002L71.5102 8.87003C71.6928 9.2435 71.9642 9.56646 72.3007 9.81056C72.6372 10.0547 73.0285 10.2124 73.4402 10.27L78.4402 11L74.8002 14.56C74.5055 14.8482 74.2843 15.2031 74.1556 15.5947C74.0268 15.9863 73.9941 16.4031 74.0602 16.81Z" fill="#00396D"/>
<path d="M63.8411 28.2605H63.5211C62.25 28.2605 61.0255 28.7389 60.0911 29.6005C59.62 29.0987 59.0516 28.698 58.4207 28.4229C57.7897 28.1478 57.1094 28.0041 56.4211 28.0005H56.1411C54.7952 27.9921 53.5008 28.517 52.5411 29.4605L52.4211 29.5905C51.4906 28.7265 50.2708 28.2414 49.0011 28.2305H48.7211C48.0124 28.2229 47.3102 28.3661 46.6611 28.6505V25.1505C47.3174 25.3176 48.0132 25.2178 48.5961 24.8729C49.179 24.528 49.6015 23.9662 49.7711 23.3105C49.8411 22.9573 49.8411 22.5937 49.7711 22.2405L48.7711 16.5405L53.0011 12.4905C53.3899 12.0993 53.6454 11.5954 53.7311 11.0505C53.8314 10.3796 53.6613 9.69625 53.2582 9.15063C52.8551 8.60501 52.2519 8.2417 51.5811 8.14051L45.8611 7.31051L43.2911 2.13051C43.0785 1.70514 42.7517 1.34738 42.3472 1.09733C41.9427 0.84729 41.4766 0.714844 41.0011 0.714844C40.5255 0.714844 40.0594 0.84729 39.6549 1.09733C39.2505 1.34738 38.9236 1.70514 38.7111 2.13051L36.1511 7.31051L30.4311 8.11051C29.8793 8.19953 29.369 8.45817 28.9711 8.85051C28.4911 9.33059 28.2214 9.98165 28.2214 10.6605C28.2214 11.3394 28.4911 11.9904 28.9711 12.4705L33.1111 16.4705L32.1111 22.1805C32.0052 22.7898 32.1243 23.4167 32.4462 23.9447C32.7681 24.4726 33.271 24.8656 33.8611 25.0505C34.1115 25.1219 34.3706 25.159 34.6311 25.1605C35.0453 25.1608 35.4534 25.0613 35.8211 24.8705L36.1911 24.6805L36.0811 39.5605L35.0111 38.3105C34.1022 37.2852 32.8267 36.6583 31.4597 36.5652C30.0927 36.472 28.7439 36.92 27.7044 37.8126C26.6648 38.7051 26.0179 39.9706 25.9031 41.3359C25.7884 42.7013 26.215 44.057 27.0911 45.1105L32.7711 51.7305L33.0111 51.9905L33.0611 52.0505L39.8411 60.6905V67.1305C39.8411 67.6609 40.0518 68.1696 40.4268 68.5447C40.8019 68.9198 41.3106 69.1305 41.8411 69.1305C42.2398 69.1305 42.6224 68.9728 42.9053 68.6918C43.1882 68.4108 43.3484 68.0293 43.3511 67.6305C43.3512 67.4249 43.3096 67.2214 43.2288 67.0323C43.148 66.8433 43.0297 66.6725 42.8811 66.5305V60.1905C42.883 59.8485 42.7664 59.5163 42.5511 59.2505L35.4611 50.2505L35.3711 50.1305C35.3235 50.0657 35.2699 50.0054 35.2111 49.9505L35.0611 49.8005L29.3911 43.1805C29.0362 42.7347 28.8681 42.1685 28.9222 41.6013C28.9764 41.034 29.2485 40.5099 29.6814 40.1392C30.1142 39.7686 30.674 39.5804 31.2428 39.6142C31.8116 39.648 32.3452 39.9012 32.7311 40.3205L36.4211 44.6405C36.6837 44.9419 37.0545 45.1278 37.4532 45.1577C37.8519 45.1877 38.2463 45.0593 38.5511 44.8005C38.7182 44.6615 38.8524 44.4872 38.9441 44.29C39.0357 44.0929 39.0825 43.8779 39.0811 43.6605L39.2511 20.6605C39.2667 20.1229 39.492 19.6127 39.8788 19.239C40.2656 18.8653 40.7832 18.6577 41.3211 18.6605H41.6111C42.1495 18.6736 42.6612 18.8981 43.0354 19.2855C43.4097 19.6728 43.6165 20.1919 43.6111 20.7305L43.5211 33.2105V35.9805C43.521 36.3802 43.6784 36.7638 43.9592 37.0483C44.2399 37.3328 44.6214 37.4953 45.0211 37.5005C45.2197 37.5032 45.4169 37.4663 45.6012 37.3921C45.7855 37.3179 45.9533 37.2079 46.0947 37.0683C46.2361 36.9288 46.3484 36.7625 46.425 36.5792C46.5016 36.3959 46.5411 36.1992 46.5411 36.0005V33.1905C46.5592 32.6537 46.7853 32.145 47.1716 31.7718C47.5578 31.3987 48.074 31.1902 48.6111 31.1905H49.0011C49.5267 31.2056 50.0267 31.4212 50.3985 31.793C50.7704 32.1649 50.986 32.6649 51.0011 33.1905C50.9997 33.3892 51.0379 33.5861 51.1133 33.7699C51.1887 33.9537 51.2999 34.1207 51.4404 34.2612C51.5809 34.4017 51.7478 34.5129 51.9316 34.5883C52.1154 34.6637 52.3124 34.7018 52.5111 34.7005C52.9115 34.7005 53.2956 34.5414 53.5788 34.2582C53.862 33.9751 54.0211 33.591 54.0211 33.1905V33.0005C54.0209 32.7327 54.0746 32.4677 54.1788 32.221C54.2831 31.9744 54.4358 31.7512 54.6279 31.5647C54.82 31.3781 55.0476 31.2321 55.2973 31.1352C55.5469 31.0383 55.8134 30.9925 56.0811 31.0005H56.3811C56.9178 31.0187 57.4265 31.2448 57.7997 31.631C58.1729 32.0173 58.3814 32.5334 58.3811 33.0705V33.2905C58.379 33.4989 58.4204 33.7053 58.5025 33.8968C58.5847 34.0883 58.7058 34.2605 58.8582 34.4026C59.0106 34.5446 59.191 34.6534 59.3877 34.7219C59.5845 34.7904 59.7934 34.8172 60.0011 34.8005C60.4007 34.7952 60.7822 34.6328 61.063 34.3483C61.3437 34.0638 61.5011 33.6802 61.5011 33.2805C61.5009 33.0127 61.5546 32.7477 61.6588 32.501C61.7631 32.2544 61.9158 32.0312 62.1079 31.8447C62.3 31.6581 62.5276 31.5121 62.7773 31.4152C63.0269 31.3183 63.2934 31.2725 63.5611 31.2805H63.8611C64.1288 31.2804 64.3939 31.334 64.6405 31.4383C64.8872 31.5425 65.1104 31.6952 65.2969 31.8873C65.4834 32.0795 65.6295 32.3071 65.7264 32.5567C65.8233 32.8063 65.8691 33.0729 65.8611 33.3405L65.7211 54.0005C65.7119 55.1909 65.4526 56.366 64.9599 57.4496C64.4672 58.5333 63.7521 59.5012 62.8611 60.2905C62.7022 60.4309 62.5747 60.6032 62.4868 60.7962C62.3989 60.9892 62.3527 61.1985 62.3511 61.4105V66.6805C62.2031 66.8216 62.0846 66.9905 62.0022 67.1776C61.9198 67.3646 61.8752 67.5661 61.8711 67.7705C61.871 68.1702 62.0284 68.5538 62.3092 68.8383C62.5899 69.1228 62.9714 69.2853 63.3711 69.2905C63.9015 69.2905 64.4102 69.0798 64.7853 68.7047C65.1603 68.3297 65.3711 67.8209 65.3711 67.2905V62.0505C67.5075 59.9136 68.718 57.0222 68.7411 54.0005L68.8911 33.3005C68.878 31.9661 68.3414 30.6903 67.3969 29.7476C66.4524 28.805 65.1754 28.2709 63.8411 28.2605ZM36.2811 20.7005V21.3205L35.2811 21.8305L36.1511 16.8305C36.2172 16.4221 36.1845 16.0038 36.0558 15.6106C35.927 15.2174 35.706 14.8607 35.4111 14.5705L31.7911 11.0005L36.8411 10.2805C37.2481 10.2166 37.6339 10.0562 37.9662 9.8126C38.2985 9.56903 38.5676 9.24942 38.7511 8.88051L41.0011 4.30051L43.2511 8.86051C43.4364 9.23191 43.7086 9.55311 44.0446 9.79683C44.3806 10.0406 44.7705 10.1996 45.1811 10.2605L50.1811 10.9805L46.5411 14.5505C46.2437 14.8387 46.0217 15.1955 45.8944 15.5895C45.7671 15.9836 45.7385 16.4028 45.8111 16.8105L46.0611 18.3005C45.6263 17.5066 44.9874 16.8433 44.2103 16.3791C43.4332 15.915 42.5462 15.6669 41.6411 15.6605H41.3211C39.9892 15.663 38.7116 16.1883 37.7634 17.1235C36.8151 18.0587 36.272 19.3289 36.2511 20.6605L36.2811 20.7005Z" fill="#00396D"/>
</svg>
