<svg width="72" height="72" viewBox="0 0 72 72" fill="none" xmlns="http://www.w3.org/2000/svg">
<path d="M39.7305 23.6292C39.7305 23.6292 64.4305 24.9992 65.1205 26.7192C65.8105 28.4392 64.7705 63.7692 64.7705 63.7692C64.7705 63.7692 57.6805 71.3192 47.7705 69.5992C37.8605 67.8792 49.0005 68.2292 49.0005 68.2292C49.0005 68.2292 67.9405 72.9992 69.6905 66.3992C71.4405 59.7992 68.8605 27.8792 68.8605 27.8792C68.8605 27.8792 68.8605 24.6692 64.6105 23.6292C60.3605 22.5892 39.7305 23.6292 39.7305 23.6292Z" fill="#00FF85"/>
<path d="M64.6108 20.7995H32.3408V7.85953C32.3381 5.98169 31.5917 4.18136 30.2648 2.85259C28.9379 1.52381 27.1386 0.774819 25.2608 0.769531H7.38078C5.50294 0.774819 3.70367 1.52381 2.37677 2.85259C1.04987 4.18136 0.303419 5.98169 0.300781 7.85953V25.7295C0.306059 27.6083 1.05473 29.4086 2.38322 30.7371C3.71171 32.0656 5.51202 32.8143 7.39078 32.8195H21.2708V64.1395C21.2734 66.0191 22.0213 67.8209 23.3503 69.15C24.6794 70.4791 26.4812 71.2269 28.3608 71.2295H64.6108C66.4895 71.2243 68.2898 70.4756 69.6183 69.1471C70.9468 67.8186 71.6955 66.0183 71.7008 64.1395V27.8795C71.6955 26.0017 70.9465 24.2024 69.6177 22.8755C68.2889 21.5486 66.4886 20.8022 64.6108 20.7995ZM68.8608 64.1395C68.8581 65.2659 68.4095 66.3454 67.6131 67.1418C66.8166 67.9383 65.7371 68.3869 64.6108 68.3895H28.3608C27.2344 68.3869 26.155 67.9383 25.3585 67.1418C24.562 66.3454 24.1134 65.2659 24.1108 64.1395V27.8795C24.1108 26.7524 24.5585 25.6714 25.3556 24.8743C26.1526 24.0773 27.2336 23.6295 28.3608 23.6295H64.6108C65.7379 23.6295 66.819 24.0773 67.616 24.8743C68.413 25.6714 68.8608 26.7524 68.8608 27.8795V64.1395ZM3.14078 25.7295V7.85953C3.14078 7.30188 3.25078 6.74971 3.46449 6.23464C3.67819 5.71957 3.9914 5.25171 4.38618 4.85786C4.78096 4.46401 5.24956 4.1519 5.76513 3.93941C6.28071 3.72692 6.83313 3.61822 7.39078 3.61953H25.2608C25.8176 3.61953 26.3689 3.7292 26.8834 3.94228C27.3978 4.15536 27.8652 4.46768 28.2589 4.8614C28.6526 5.25512 28.965 5.72253 29.178 6.23695C29.3911 6.75137 29.5008 7.30273 29.5008 7.85953V20.7995H28.3508C26.5761 20.7899 24.8639 21.4547 23.5608 22.6595C23.5111 22.3537 23.3678 22.0707 23.1508 21.8495L18.3308 16.9995L24.1908 11.1495C24.4522 10.8823 24.5986 10.5234 24.5986 10.1495C24.5986 9.77571 24.4522 9.41675 24.1908 9.14953C24.0597 9.0177 23.9039 8.91309 23.7323 8.8417C23.5607 8.77031 23.3767 8.73356 23.1908 8.73356C23.0049 8.73356 22.8209 8.77031 22.6493 8.8417C22.4776 8.91309 22.3218 9.0177 22.1908 9.14953L16.3208 14.9995L10.4708 9.14953C10.3444 8.99803 10.1879 8.87451 10.0112 8.78685C9.83445 8.6992 9.6414 8.64933 9.44432 8.64042C9.24725 8.63152 9.05049 8.66377 8.86657 8.73513C8.68266 8.80649 8.51563 8.91539 8.37614 9.05489C8.23664 9.19438 8.12775 9.36141 8.05639 9.54532C7.98503 9.72923 7.95277 9.926 7.96167 10.1231C7.97058 10.3201 8.02045 10.5132 8.1081 10.6899C8.19576 10.8667 8.31927 11.0232 8.47078 11.1495L14.3108 16.9995L9.48078 21.8295C9.21937 22.0968 9.07298 22.4557 9.07298 22.8295C9.07298 23.2034 9.21937 23.5623 9.48078 23.8295C9.61182 23.9614 9.76763 24.066 9.93925 24.1374C10.1109 24.2087 10.2949 24.2455 10.4808 24.2455C10.6667 24.2455 10.8507 24.2087 11.0223 24.1374C11.1939 24.066 11.3497 23.9614 11.4808 23.8295L16.3208 18.9995L21.1508 23.8295C21.4154 24.0963 21.775 24.2474 22.1508 24.2495H22.2508C21.5974 25.3368 21.2518 26.5811 21.2508 27.8495V29.9995H7.39078C6.83098 29.9995 6.27669 29.889 5.75974 29.6741C5.2428 29.4593 4.7734 29.1444 4.37848 28.7477C3.98357 28.3509 3.67094 27.88 3.45854 27.3621C3.24613 26.8441 3.13815 26.2893 3.14078 25.7295Z" fill="#00396D"/>
<path d="M60.9305 35.4199L41.2705 52.3199L34.8105 44.6699C34.564 44.3954 34.2203 44.2276 33.8522 44.202C33.4842 44.1765 33.1206 44.2953 32.8385 44.5331C32.5565 44.771 32.3781 45.1093 32.3411 45.4764C32.3042 45.8435 32.4115 46.2106 32.6405 46.4999L40.0005 55.2499C40.1239 55.3975 40.2764 55.518 40.4484 55.604C40.6205 55.6901 40.8084 55.7397 41.0005 55.7499H41.1105C41.451 55.75 41.7805 55.6296 42.0405 55.4099L62.7905 37.5699C62.9592 37.4616 63.1029 37.3188 63.2125 37.1509C63.322 36.9831 63.3947 36.794 63.4259 36.596C63.457 36.398 63.446 36.1957 63.3934 36.0023C63.3407 35.8089 63.2478 35.6289 63.1206 35.474C62.9934 35.3191 62.8349 35.1929 62.6554 35.1036C62.476 35.0144 62.2797 34.9641 62.0794 34.9562C61.8792 34.9483 61.6795 34.9828 61.4935 35.0575C61.3076 35.1323 61.1396 35.2455 61.0005 35.3899L60.9305 35.4199Z" fill="#00396D"/>
</svg>
