<svg width="719" height="517" viewBox="0 0 719 517" fill="none" xmlns="http://www.w3.org/2000/svg">
<rect y="517" width="516.465" height="719" transform="rotate(-90 0 517)" fill="url(#paint0_linear_9485_1782)"/>
<path opacity="0.24" d="M460.916 176.291C459.178 152.877 440.995 131.613 418.14 126.249C397.497 121.405 375.903 128.614 354.765 127.003C346.561 126.369 338.471 124.417 330.242 124.195C311.9 123.871 294.453 132.088 283.015 146.429C269.841 163.224 260.768 184.044 258.537 205.258C251.683 270.363 227.445 286.638 224.503 305.221C213.244 376.888 286.826 410.389 345.331 413.33C398.676 416.044 469.963 382.283 478.915 370.84C491.88 354.261 488.114 312.677 482.3 292.465C477.647 276.279 470.432 260.124 469.063 243.178C467.921 229.115 469.253 220.835 463.712 206.906C459.857 197.194 461.664 186.466 460.916 176.284V176.291Z" fill="#CBD9E7"/>
<path opacity="0.24" d="M264.991 348.276C261.568 349.905 257.84 350.989 254.86 353.354C251.246 356.239 249.148 360.626 249.173 365.248C249.116 366.687 249.528 368.107 250.352 369.286C251.798 371.1 254.391 371.36 256.692 371.493C324.321 375.309 392.102 375.468 459.744 371.962C462.825 371.81 465.963 371.626 468.797 370.466C471.631 369.305 474.23 366.991 474.826 363.967C475.841 358.87 471.206 354.495 466.806 351.744C462.406 348.992 457.246 346.038 456.231 340.953C455.432 336.99 457.246 332.083 454.304 329.313C453.499 328.634 452.579 328.102 451.59 327.74C420.48 314.414 386.504 305.303 352.908 309.545C339.328 311.256 326.128 315.124 313.347 319.911C306.848 322.345 300.445 325.027 294.092 327.817C289.229 329.947 282.959 331.582 279.409 335.596C274.952 340.687 271.351 345.258 265.004 348.282L264.991 348.276Z" fill="#CBD9E7"/>
<path d="M465.944 232.273C465.944 251.774 450.138 267.58 430.637 267.58H298.587C279.085 267.384 263.438 251.419 263.635 231.918C263.819 213.367 278.337 198.119 296.856 197.029C299.703 180.754 313.835 168.879 330.357 168.879H334.884C342.777 168.885 350.417 171.631 356.516 176.645C364.745 155.647 388.444 145.294 409.442 153.523C425.102 159.661 435.398 174.769 435.379 191.583C435.404 193.485 435.239 195.387 434.897 197.257C452.605 199.412 465.919 214.432 465.944 232.266V232.273Z" fill="#CBD9E7"/>
<path d="M465.944 232.273C465.944 251.774 450.138 267.58 430.637 267.58H298.587C279.085 267.384 263.438 251.419 263.635 231.918C263.819 213.367 278.337 198.119 296.856 197.029C299.703 180.754 313.835 168.879 330.357 168.879H334.884C342.777 168.885 350.417 171.631 356.516 176.645C364.745 155.647 388.444 145.294 409.442 153.523C425.102 159.661 435.398 174.769 435.379 191.583C435.404 193.485 435.239 195.387 434.897 197.257C452.605 199.412 465.919 214.432 465.944 232.266V232.273Z" fill="url(#paint1_linear_9485_1782)"/>
<path d="M465.437 222.078C465.437 231.125 461.721 239.779 455.172 246.017C448.502 252.408 439.614 255.965 430.376 255.92H299.272C279.877 255.92 264.154 240.812 264.154 222.078C264.18 213.043 267.889 204.414 274.419 198.176C280.67 192.178 288.893 188.672 297.553 188.323C298.758 181.673 302.042 175.574 306.93 170.914C313.34 164.751 321.886 161.328 330.775 161.353H335.302C343.094 161.347 350.657 163.965 356.775 168.796C362.621 154.246 377.279 143.943 394.486 143.943C416.91 143.943 435.062 161.461 435.062 183.112C435.081 184.931 434.922 186.751 434.593 188.545C451.977 190.555 465.437 204.814 465.437 222.078Z" fill="white"/>
<path d="M274.741 355.561C266.366 355.561 243.714 354.166 241.475 339.147C238.838 321.458 255.354 310.724 268.636 302.102C280.676 294.278 279.896 269.311 279.89 269.058L285.323 268.861C285.323 270.009 286.23 297.138 271.622 306.622C259.012 314.814 244.734 324.095 246.852 338.354C248.488 349.335 269.549 350.565 277.537 350.121L277.848 355.497C277.556 355.504 276.447 355.561 274.741 355.561Z" fill="#CBD9E7"/>
<path d="M284.384 230.224C295.745 225.323 318.29 223.3 330.666 223.307L405.015 223.408C415.146 223.408 425.512 223.471 435.067 226.857C444.621 230.243 467.09 237.724 462.665 246.847C456.426 259.66 443.55 266.343 438.516 268.638C431.656 271.782 423.819 271.706 416.281 271.573L322.208 269.88C317.365 269.912 312.521 269.582 307.721 268.904C303.987 268.2 300.297 267.275 296.677 266.133C290.99 264.618 285.405 262.735 279.965 260.491C273.942 257.841 266.847 253.618 268.515 247.107C271.013 237.464 275.438 234.116 284.396 230.224H284.384Z" fill="url(#paint2_linear_9485_1782)"/>
<path d="M356.756 168.796L365.962 178.331C365.962 178.331 371.693 143.93 407.774 146.302C407.78 146.302 373.829 134.313 356.756 168.802V168.796Z" fill="url(#paint3_linear_9485_1782)"/>
<path d="M297.547 188.324C297.547 188.324 304.102 187.601 310.341 195.183C310.341 195.183 311.691 164.498 337.736 163.991C337.736 163.991 327.06 157.175 312.199 166.768C298.878 175.371 297.547 188.317 297.547 188.317V188.324Z" fill="url(#paint4_linear_9485_1782)"/>
<path d="M438.237 237.318H291.669C285.219 237.318 279.99 242.547 279.99 248.997V347.013C279.99 353.463 285.219 358.691 291.669 358.691H438.237C444.686 358.691 449.915 353.463 449.915 347.013V248.997C449.915 242.547 444.686 237.318 438.237 237.318Z" fill="#CBD9E7"/>
<path d="M434.623 243.322H294.737C288.827 243.322 284.035 248.114 284.035 254.024V339.963C284.035 345.873 288.827 350.665 294.737 350.665H434.623C440.533 350.665 445.325 345.873 445.325 339.963V254.024C445.325 248.114 440.533 243.322 434.623 243.322Z" fill="white"/>
<path d="M277.625 352.801H450.251C455.088 352.801 459.013 356.725 459.013 361.563C459.013 366.4 455.088 370.325 450.251 370.325H277.625C272.788 370.325 268.863 366.4 268.863 361.563C268.863 356.725 272.788 352.801 277.625 352.801Z" fill="#CBD9E7"/>
<path d="M274.278 354.096H453.605C456.597 354.096 459.019 356.518 459.019 359.51C459.019 362.503 456.597 364.924 453.605 364.924H274.278C271.285 364.924 268.863 362.503 268.863 359.51C268.863 356.518 271.285 354.096 274.278 354.096Z" fill="url(#paint5_linear_9485_1782)"/>
<path d="M386.026 359.211H340.004V364.524H386.026V359.211Z" fill="#CBD9E7"/>
<path d="M301.161 314.199H293.4V347.579H301.161V314.199Z" fill="#CBD9E7"/>
<path d="M311.944 322.479H304.184V347.572H311.944V322.479Z" fill="#CBD9E7"/>
<path d="M322.817 299.129H315.057V347.573H322.817V299.129Z" fill="#CBD9E7"/>
<path d="M333.69 308.854H325.93V347.578H333.69V308.854Z" fill="#CBD9E7"/>
<path d="M344.563 316.621H336.803V347.573H344.563V316.621Z" fill="#CBD9E7"/>
<path d="M355.436 300.346H347.676V347.579H355.436V300.346Z" fill="#CBD9E7"/>
<path d="M366.309 322.479H358.549V347.572H366.309V322.479Z" fill="#CBD9E7"/>
<path d="M377.182 304.707H369.422V347.578H377.182V304.707Z" fill="#CBD9E7"/>
<path d="M388.055 313.488H380.295V347.572H388.055V313.488Z" fill="#CBD9E7"/>
<path d="M398.928 298.172H391.168V347.579H398.928V298.172Z" fill="#CBD9E7"/>
<path d="M409.801 310.039H402.041V347.566H409.801V310.039Z" fill="#CBD9E7"/>
<path d="M420.674 296.674H412.914V347.571H420.674V296.674Z" fill="#CBD9E7"/>
<path d="M431.547 285.027H423.787V347.578H431.547V285.027Z" fill="#CBD9E7"/>
<path d="M321.124 254.178H291.453V259.909H321.124V254.178Z" fill="#CBD9E7"/>
<path d="M332.694 254.178H325.34V259.909H332.694V254.178Z" fill="#CBD9E7"/>
<path d="M299.175 272.133H291.82V277.864H299.175V272.133Z" fill="#CBD9E7"/>
<path d="M321.124 263.117H291.453V268.849H321.124V263.117Z" fill="#CBD9E7"/>
<defs>
<linearGradient id="paint0_linear_9485_1782" x1="258.232" y1="1236" x2="258.232" y2="517" gradientUnits="userSpaceOnUse">
<stop stop-color="#F34DFF"/>
<stop offset="1" stop-color="#CF1BDC"/>
</linearGradient>
<linearGradient id="paint1_linear_9485_1782" x1="364.352" y1="214.939" x2="374.464" y2="615.488" gradientUnits="userSpaceOnUse">
<stop stop-color="#231F20" stop-opacity="0"/>
<stop offset="1" stop-color="#231F20"/>
</linearGradient>
<linearGradient id="paint2_linear_9485_1782" x1="365.574" y1="209.403" x2="366.246" y2="360.403" gradientUnits="userSpaceOnUse">
<stop stop-opacity="0"/>
<stop offset="0.99"/>
</linearGradient>
<linearGradient id="paint3_linear_9485_1782" x1="383.022" y1="157.003" x2="279.002" y2="211.8" gradientUnits="userSpaceOnUse">
<stop stop-color="#231F20" stop-opacity="0"/>
<stop offset="1" stop-color="#231F20"/>
</linearGradient>
<linearGradient id="paint4_linear_9485_1782" x1="323.845" y1="174.268" x2="236.169" y2="220.455" gradientUnits="userSpaceOnUse">
<stop stop-color="#231F20" stop-opacity="0"/>
<stop offset="1" stop-color="#231F20"/>
</linearGradient>
<linearGradient id="paint5_linear_9485_1782" x1="363.938" y1="379.05" x2="363.938" y2="334.885" gradientUnits="userSpaceOnUse">
<stop stop-color="#231F20" stop-opacity="0"/>
<stop offset="1" stop-color="#231F20"/>
</linearGradient>
</defs>
</svg>
