<svg width="728" height="528" viewBox="0 0 728 528" fill="none" xmlns="http://www.w3.org/2000/svg">
<rect x="4.5" y="523.5" width="519" height="719" transform="rotate(-90 4.5 523.5)" fill="url(#paint0_linear_9485_1782)" stroke="url(#paint1_linear_9485_1782)" stroke-width="9"/>
<path opacity="0.24" d="M469.916 178.291C468.178 154.877 449.995 133.613 427.14 128.249C406.497 123.405 384.903 130.614 363.765 129.003C355.561 128.369 347.471 126.417 339.242 126.195C320.9 125.871 303.453 134.088 292.015 148.429C278.841 165.224 269.768 186.044 267.537 207.258C260.683 272.363 236.445 288.638 233.503 307.221C222.244 378.888 295.826 412.389 354.331 415.33C407.676 418.044 478.963 384.283 487.915 372.84C500.88 356.261 497.114 314.677 491.3 294.465C486.647 278.279 479.432 262.124 478.063 245.178C476.921 231.115 478.253 222.835 472.712 208.906C468.857 199.194 470.664 188.466 469.916 178.284V178.291Z" fill="#00396D"/>
<path opacity="0.24" d="M273.991 350.276C270.568 351.905 266.84 352.989 263.86 355.354C260.246 358.239 258.148 362.626 258.173 367.248C258.116 368.687 258.528 370.107 259.352 371.286C260.798 373.1 263.391 373.36 265.692 373.493C333.321 377.309 401.102 377.468 468.744 373.962C471.825 373.81 474.963 373.626 477.797 372.466C480.631 371.305 483.231 368.991 483.826 365.967C484.841 360.87 480.206 356.495 475.806 353.744C471.406 350.992 466.246 348.038 465.231 342.953C464.432 338.99 466.246 334.083 463.304 331.313C462.499 330.634 461.579 330.102 460.59 329.74C429.48 316.414 395.504 307.303 361.908 311.545C348.328 313.256 335.128 317.124 322.347 321.911C315.848 324.345 309.445 327.027 303.092 329.817C298.229 331.947 291.959 333.582 288.409 337.596C283.952 342.687 280.351 347.258 274.004 350.282L273.991 350.276Z" fill="#00396D"/>
<path d="M474.944 234.273C474.944 253.774 459.138 269.58 439.637 269.58H307.587C288.085 269.384 272.438 253.419 272.635 233.918C272.819 215.367 287.337 200.119 305.856 199.029C308.703 182.754 322.835 170.879 339.357 170.879H343.884C351.777 170.885 359.417 173.631 365.516 178.645C373.745 157.647 397.444 147.294 418.442 155.523C434.102 161.661 444.398 176.769 444.379 193.583C444.404 195.485 444.239 197.387 443.897 199.257C461.605 201.412 474.919 216.432 474.944 234.266V234.273Z" fill="#00396D"/>
<path d="M474.944 234.273C474.944 253.774 459.138 269.58 439.637 269.58H307.587C288.085 269.384 272.438 253.419 272.635 233.918C272.819 215.367 287.337 200.119 305.856 199.029C308.703 182.754 322.835 170.879 339.357 170.879H343.884C351.777 170.885 359.417 173.631 365.516 178.645C373.745 157.647 397.444 147.294 418.442 155.523C434.102 161.661 444.398 176.769 444.379 193.583C444.404 195.485 444.239 197.387 443.897 199.257C461.605 201.412 474.919 216.432 474.944 234.266V234.273Z" fill="url(#paint2_linear_9485_1782)"/>
<path d="M474.437 224.078C474.437 233.125 470.721 241.779 464.172 248.017C457.502 254.408 448.614 257.965 439.376 257.92H308.272C288.877 257.92 273.154 242.812 273.154 224.078C273.18 215.043 276.889 206.414 283.419 200.176C289.67 194.178 297.893 190.672 306.553 190.323C307.758 183.673 311.042 177.574 315.93 172.914C322.34 166.751 330.886 163.328 339.775 163.353H344.302C352.094 163.347 359.657 165.965 365.775 170.796C371.621 156.246 386.279 145.943 403.486 145.943C425.91 145.943 444.062 163.461 444.062 185.112C444.081 186.931 443.922 188.751 443.593 190.545C460.977 192.555 474.437 206.814 474.437 224.078Z" fill="white"/>
<path d="M283.741 357.561C275.366 357.561 252.714 356.166 250.475 341.147C247.838 323.458 264.354 312.724 277.636 304.102C289.676 296.278 288.896 271.311 288.89 271.058L294.323 270.861C294.323 272.009 295.23 299.138 280.622 308.622C268.012 316.814 253.734 326.095 255.852 340.354C257.488 351.335 278.549 352.565 286.537 352.121L286.848 357.497C286.556 357.504 285.447 357.561 283.741 357.561Z" fill="#00396D"/>
<path d="M293.384 232.224C304.745 227.323 327.29 225.3 339.666 225.307L414.015 225.408C424.146 225.408 434.512 225.471 444.067 228.857C453.621 232.243 476.09 239.724 471.665 248.847C465.426 261.66 452.55 268.343 447.516 270.638C440.656 273.782 432.819 273.706 425.281 273.573L331.208 271.88C326.365 271.912 321.521 271.582 316.721 270.904C312.987 270.2 309.297 269.275 305.677 268.133C299.99 266.618 294.405 264.735 288.965 262.491C282.942 259.841 275.847 255.618 277.515 249.107C280.013 239.464 284.438 236.116 293.396 232.224H293.384Z" fill="url(#paint3_linear_9485_1782)"/>
<path d="M365.756 170.796L374.962 180.331C374.962 180.331 380.693 145.93 416.774 148.302C416.78 148.302 382.829 136.313 365.756 170.802V170.796Z" fill="url(#paint4_linear_9485_1782)"/>
<path d="M306.547 190.324C306.547 190.324 313.102 189.601 319.341 197.183C319.341 197.183 320.691 166.498 346.736 165.991C346.736 165.991 336.06 159.175 321.199 168.768C307.878 177.371 306.547 190.317 306.547 190.317V190.324Z" fill="url(#paint5_linear_9485_1782)"/>
<path d="M447.237 239.318H300.669C294.219 239.318 288.99 244.547 288.99 250.997V349.013C288.99 355.463 294.219 360.691 300.669 360.691H447.237C453.686 360.691 458.915 355.463 458.915 349.013V250.997C458.915 244.547 453.686 239.318 447.237 239.318Z" fill="#00396D"/>
<path d="M443.623 245.322H303.737C297.827 245.322 293.035 250.114 293.035 256.024V341.963C293.035 347.873 297.827 352.665 303.737 352.665H443.623C449.533 352.665 454.325 347.873 454.325 341.963V256.024C454.325 250.114 449.533 245.322 443.623 245.322Z" fill="white"/>
<path d="M286.625 354.801H459.251C464.088 354.801 468.013 358.725 468.013 363.563C468.013 368.4 464.088 372.325 459.251 372.325H286.625C281.788 372.325 277.863 368.4 277.863 363.563C277.863 358.725 281.788 354.801 286.625 354.801Z" fill="#00396D"/>
<path d="M283.278 356.096H462.605C465.597 356.096 468.019 358.518 468.019 361.51C468.019 364.503 465.597 366.924 462.605 366.924H283.278C280.285 366.924 277.863 364.503 277.863 361.51C277.863 358.518 280.285 356.096 283.278 356.096Z" fill="url(#paint6_linear_9485_1782)"/>
<path d="M395.026 361.211H349.004V366.524H395.026V361.211Z" fill="#00396D"/>
<path d="M310.161 316.199H302.4V349.579H310.161V316.199Z" fill="#00396D"/>
<path d="M320.944 324.479H313.184V349.572H320.944V324.479Z" fill="#00396D"/>
<path d="M331.817 301.129H324.057V349.573H331.817V301.129Z" fill="#00396D"/>
<path d="M342.69 310.854H334.93V349.578H342.69V310.854Z" fill="#00396D"/>
<path d="M353.563 318.621H345.803V349.573H353.563V318.621Z" fill="#00396D"/>
<path d="M364.436 302.346H356.676V349.579H364.436V302.346Z" fill="#00396D"/>
<path d="M375.309 324.479H367.549V349.572H375.309V324.479Z" fill="#00396D"/>
<path d="M386.182 306.707H378.422V349.578H386.182V306.707Z" fill="#00396D"/>
<path d="M397.055 315.488H389.295V349.572H397.055V315.488Z" fill="#00396D"/>
<path d="M407.928 300.172H400.168V349.579H407.928V300.172Z" fill="#00396D"/>
<path d="M418.801 312.039H411.041V349.566H418.801V312.039Z" fill="#00396D"/>
<path d="M429.674 298.674H421.914V349.571H429.674V298.674Z" fill="#00396D"/>
<path d="M440.547 287.027H432.787V349.578H440.547V287.027Z" fill="#00396D"/>
<path d="M330.124 256.178H300.453V261.909H330.124V256.178Z" fill="#00396D"/>
<path d="M341.694 256.178H334.34V261.909H341.694V256.178Z" fill="#00396D"/>
<path d="M308.175 274.133H300.82V279.864H308.175V274.133Z" fill="#00396D"/>
<path d="M330.124 265.117H300.453V270.849H330.124V265.117Z" fill="#00396D"/>
<defs>
<linearGradient id="paint0_linear_9485_1782" x1="264" y1="1229" x2="264" y2="519" gradientUnits="userSpaceOnUse">
<stop stop-color="#F34DFF"/>
<stop offset="1" stop-color="#00396D"/>
</linearGradient>
<linearGradient id="paint1_linear_9485_1782" x1="264" y1="519" x2="264" y2="1229" gradientUnits="userSpaceOnUse">
<stop stop-color="#00396D"/>
<stop offset="1" stop-color="#F34DFF"/>
</linearGradient>
<linearGradient id="paint2_linear_9485_1782" x1="373.352" y1="216.939" x2="383.464" y2="617.488" gradientUnits="userSpaceOnUse">
<stop stop-color="#231F20" stop-opacity="0"/>
<stop offset="1" stop-color="#231F20"/>
</linearGradient>
<linearGradient id="paint3_linear_9485_1782" x1="374.574" y1="211.403" x2="375.246" y2="362.403" gradientUnits="userSpaceOnUse">
<stop stop-opacity="0"/>
<stop offset="0.99"/>
</linearGradient>
<linearGradient id="paint4_linear_9485_1782" x1="392.022" y1="159.003" x2="288.002" y2="213.8" gradientUnits="userSpaceOnUse">
<stop stop-color="#231F20" stop-opacity="0"/>
<stop offset="1" stop-color="#231F20"/>
</linearGradient>
<linearGradient id="paint5_linear_9485_1782" x1="332.845" y1="176.268" x2="245.169" y2="222.455" gradientUnits="userSpaceOnUse">
<stop stop-color="#231F20" stop-opacity="0"/>
<stop offset="1" stop-color="#231F20"/>
</linearGradient>
<linearGradient id="paint6_linear_9485_1782" x1="372.938" y1="381.05" x2="372.938" y2="336.885" gradientUnits="userSpaceOnUse">
<stop stop-color="#231F20" stop-opacity="0"/>
<stop offset="1" stop-color="#231F20"/>
</linearGradient>
</defs>
</svg>
