<?xml version="1.0" encoding="utf-8" standalone="yes"?>
<!DOCTYPE svg PUBLIC "-//W3C//DTD SVG 1.1//EN" "http://www.w3.org/Graphics/SVG/1.1/DTD/svg11.dtd">
<svg width="672" height="481" viewBox="0 0 672 481" style="fill:none;stroke:none;fill-rule:evenodd;clip-rule:evenodd;stroke-linecap:round;stroke-linejoin:round;stroke-miterlimit:1.5;" version="1.1" xmlns="http://www.w3.org/2000/svg" xmlns:xlink="http://www.w3.org/1999/xlink"><style id="fontImports">@import url("https://fonts.googleapis.com/css2?family=Roboto:wght@400;700&amp;display=block");</style><g id="items" style="isolation: isolate"><g id="blend" style="mix-blend-mode:normal"><g id="g-root--1.cu_sy_vai07ascbzf1-fill" data-item-order="999852550" data-item-id="-1.cu_sy_vai07ascbzf1" data-item-class="Part Fill Stroke ColorFillBlack ColorStrokeGray" data-item-index="-1" data-renderer-id="0" transform="translate(278, 74)"><g id="-1.cu_sy_vai07ascbzf1-fill" stroke="none" fill="#434343"><g><path d="M 65.766602 394C 80.754802 394 106.000002 308.039 106.000002 202C 106.000002 95.9613 80.754802 10 65.766602 10C 80.775202 10.01 92.941702 96.2224 92.941702 202C 92.941702 307.778 80.775202 393.99 65.766602 394ZM 65.765897 394C 80.774597 393.99 92.941097 307.778 92.941097 202C 92.941097 96.2224 80.774597 10.01 65.765897 10L 51.957397 10C 66.060697 16.8878 77.199297 100.4719 77.199297 202C 77.199297 303.528 65.382597 387.112 51.279297 394L 65.765897 394ZM 77.2 202C 77.2 303.528 65.3833 387.112 51.28 394L 50.0615 394C 35.0734 394 10 308.039 10 202C 10 95.9613 35.0734 10 50.0615 10C 50.6991 10 51.9581 10 51.9581 10C 66.0614 16.8878 77.2 100.4719 77.2 202Z"></path></g></g></g><g id="g-root-0.cr-medium_cr_quoi2uscc07a-fill" data-item-order="999852554" data-item-id="0.cr-medium_cr_quoi2uscc07a" data-item-class="Shape Stroke Fill Part Indexed_0 ColorStrokeGray" data-item-index="0" data-renderer-id="0" transform="translate(446, 230)"><g id="0.cr-medium_cr_quoi2uscc07a-fill" stroke="none" fill="#CD6AFB"><g><path d="M 10 46C 10 65.882251 26.117749 82 46 82C 65.882251 82 82 65.882251 82 46C 82 26.117749 65.882251 10 46 10C 26.117749 10 10 26.117749 10 46"></path></g></g></g><g id="g-root-4.line_sy_hz1htyscc0zz-fill" data-item-order="999852561" data-item-id="4.line_sy_hz1htyscc0zz" data-item-class="Curve Stroke Part Indexed ColorStrokeGray" data-item-index="4" data-renderer-id="0" transform="translate(194, 301)"></g><g id="g-root-4.cr-small_cr_djugsmscbymg-fill" data-item-order="999852562" data-item-id="4.cr-small_cr_djugsmscbymg" data-item-class="Shape Stroke Fill Part Indexed ColorStrokeGray" data-item-index="4" data-renderer-id="0" transform="translate(134, 363)"><g id="4.cr-small_cr_djugsmscbymg-fill" stroke="none" fill="#de9ffb"><g><path d="M 10 40C 10.000002 56.568544 23.431459 70.000002 40.000002 70.000002C 56.568544 70.000002 70.000002 56.568544 70.000002 40.000002C 70.000002 23.431459 56.568544 10.000002 40.000002 10.000002C 23.431459 10.000002 10.000002 23.431459 10.000002 40.000002"></path></g></g></g><g id="g-root-3.line_sy_940yo6scbzep-fill" data-item-order="999852569" data-item-id="3.line_sy_940yo6scbzep" data-item-class="Curve Stroke Part Indexed ColorStrokeGray" data-item-index="3" data-renderer-id="0" transform="translate(194.10940551757812, 278)"></g><g id="g-root-3.cr-small_cr_8dyfascc07e-fill" data-item-order="999852570" data-item-id="3.cr-small_cr_8dyfascc07e" data-item-class="Shape Stroke Fill Part Indexed ColorStrokeGray" data-item-index="3" data-renderer-id="0" transform="translate(134, 279)"><g id="3.cr-small_cr_8dyfascc07e-fill" stroke="none" fill="#bc83d7"><g><path d="M 10 40C 10.000002 56.568544 23.431459 70.000002 40.000002 70.000002C 56.568544 70.000002 70.000002 56.568544 70.000002 40.000002C 70.000002 23.431459 56.568544 10.000002 40.000002 10.000002C 23.431459 10.000002 10.000002 23.431459 10.000002 40.000002"></path></g></g></g><g id="g-root-2.line_sy_1utoi9yscc0sj-fill" data-item-order="999852577" data-item-id="2.line_sy_1utoi9yscc0sj" data-item-class="Curve Stroke Part Indexed ColorStrokeGray" data-item-index="2" data-renderer-id="0" transform="translate(194, 224)"></g><g id="g-root-2.cr-small_cr_1ly1i12scc1l8-fill" data-item-order="999852578" data-item-id="2.cr-small_cr_1ly1i12scc1l8" data-item-class="Shape Stroke Fill Part Indexed ColorStrokeGray" data-item-index="2" data-renderer-id="0" transform="translate(134, 195)"><g id="2.cr-small_cr_1ly1i12scc1l8-fill" stroke="none" fill="#9a66b2"><g><path d="M 10 40C 10.000002 56.568544 23.431459 70.000002 40.000002 70.000002C 56.568544 70.000002 70.000002 56.568544 70.000002 40.000002C 70.000002 23.431459 56.568544 10.000002 40.000002 10.000002C 23.431459 10.000002 10.000002 23.431459 10.000002 40.000002"></path></g></g></g><g id="g-root-1.line_sy_18n7gquscc00d-fill" data-item-order="999852585" data-item-id="1.line_sy_18n7gquscc00d" data-item-class="Curve Stroke Part Indexed Indexed_1 ColorStrokeGray" data-item-index="1" data-renderer-id="0" transform="translate(194, 140)"></g><g id="g-root-1.cr-small_cr_147dymescc0sm-fill" data-item-order="999852586" data-item-id="1.cr-small_cr_147dymescc0sm" data-item-class="Shape Stroke Fill Part Indexed Indexed_1 ColorStrokeGray" data-item-index="1" data-renderer-id="0" transform="translate(134, 111)"><g id="1.cr-small_cr_147dymescc0sm-fill" stroke="none" fill="#784a8e"><g><path d="M 10 40C 10.000002 56.568544 23.431459 70.000002 40.000002 70.000002C 56.568544 70.000002 70.000002 56.568544 70.000002 40.000002C 70.000002 23.431459 56.568544 10.000002 40.000002 10.000002C 23.431459 10.000002 10.000002 23.431459 10.000002 40.000002"></path></g></g></g><g id="g-root-tx_achievin_qoem4msmbk7i-fill" data-item-order="1000000000" data-item-id="tx_achievin_qoem4msmbk7i" data-item-class="Label Stroke Title ColorStrokeGray" data-item-index="none" data-renderer-id="0" transform="translate(146, 2)"><g id="tx_achievin_qoem4msmbk7i-fill" stroke="none" fill="#8e8e8e"><g><text style="font: 20px Roboto, sans-serif; white-space: pre;" font-weight="20px" font-size="Roboto," font-family="sans-serif"><tspan x="17.35" y="33.5" dominant-baseline="ideographic">Achieving Effective Financial Reporting</tspan></text></g></g></g><g id="g-root-tx_efficien_1cuvnnqsmbkzp-fill" data-item-order="1000000000" data-item-id="tx_efficien_1cuvnnqsmbkzp" data-item-class="Label Stroke Indexed Indexed_1 ColorStrokeGray" data-item-index="1" data-renderer-id="0" transform="translate(26, 128)"><g id="tx_efficien_1cuvnnqsmbkzp-fill" stroke="none" fill="#8e8e8e"><g><text style="font: 20px Roboto, sans-serif; white-space: pre;" font-weight="20px" font-size="Roboto," font-family="sans-serif"><tspan x="18.67" y="33.5" dominant-baseline="ideographic">Efficiency</tspan></text></g></g></g><g id="g-root-cloc_1lymu12sma6m8-fill" data-item-order="1000000000" data-item-id="cloc_1lymu12sma6m8" data-item-class="Icon Stroke Indexed Indexed_1 InsideFill InsideColorFill" data-item-index="1" data-renderer-id="0" transform="translate(146, 122)"></g><g id="g-root-tx_accuracy_1ulj72esmblsc-fill" data-item-order="1000000000" data-item-id="tx_accuracy_1ulj72esmblsc" data-item-class="Label Stroke Indexed ColorStrokeGray" data-item-index="2" data-renderer-id="0" transform="translate(26, 212)"><g id="tx_accuracy_1ulj72esmblsc-fill" stroke="none" fill="#8e8e8e"><g><text style="font: 20px Roboto, sans-serif; white-space: pre;" font-weight="20px" font-size="Roboto," font-family="sans-serif"><tspan x="21.8" y="33.5" dominant-baseline="ideographic">Accuracy</tspan></text></g></g></g><g id="g-root-chec_1lqikqusma68b-fill" data-item-order="1000000000" data-item-id="chec_1lqikqusma68b" data-item-class="Icon Stroke Indexed InsideFill InsideColorFill" data-item-index="2" data-renderer-id="0" transform="translate(146, 206)"></g><g id="g-root-star_18ntxtyscj1u2-fill" data-item-order="1000000000" data-item-id="star_18ntxtyscj1u2" data-item-class="Icon Stroke InsideFill" data-item-index="none" data-renderer-id="0" transform="translate(458, 242)"></g><g id="g-root-tx_streamli_1d2zts6sma7ex-fill" data-item-order="1000000000" data-item-id="tx_streamli_1d2zts6sma7ex" data-item-class="Label Stroke ColorStrokeGray" data-item-index="none" data-renderer-id="0" transform="translate(530, 230)"><g id="tx_streamli_1d2zts6sma7ex-fill" stroke="none" fill="#8e8e8e"><g><text style="font: 20px Roboto, sans-serif; white-space: pre;" font-weight="20px" font-size="Roboto," font-family="sans-serif"><tspan x="12" y="33.5" dominant-baseline="ideographic">Streamlined </tspan><tspan x="12" y="57.5" dominant-baseline="ideographic">Financial </tspan><tspan x="12" y="81.5" dominant-baseline="ideographic">Reporting</tspan></text></g></g></g><g id="g-root-tx_complian_8vvngmsmbkej-fill" data-item-order="1000000000" data-item-id="tx_complian_8vvngmsmbkej" data-item-class="Label Stroke Indexed ColorStrokeGray" data-item-index="3" data-renderer-id="0" transform="translate(2, 296)"><g id="tx_complian_8vvngmsmbkej-fill" stroke="none" fill="#8e8e8e"><g><text style="font: 20px Roboto, sans-serif; white-space: pre;" font-weight="20px" font-size="Roboto," font-family="sans-serif"><tspan x="22.14" y="33.5" dominant-baseline="ideographic">Compliance</tspan></text></g></g></g><g id="g-root-chec_1uuw87asm34su-fill" data-item-order="1000000000" data-item-id="chec_1uuw87asm34su" data-item-class="Icon Stroke Indexed InsideFill InsideColorFill" data-item-index="3" data-renderer-id="0" transform="translate(146, 290)"></g><g id="g-root-tx_insights_mgpa4msma7ey-fill" data-item-order="1000000000" data-item-id="tx_insights_mgpa4msma7ey" data-item-class="Label Stroke Indexed ColorStrokeGray" data-item-index="4" data-renderer-id="0" transform="translate(38, 380)"><g id="tx_insights_mgpa4msma7ey-fill" stroke="none" fill="#8e8e8e"><g><text style="font: 20px Roboto, sans-serif; white-space: pre;" font-weight="20px" font-size="Roboto," font-family="sans-serif"><tspan x="21.27" y="33.5" dominant-baseline="ideographic">Insights</tspan></text></g></g></g><g id="g-root-line_zoernqsmjzew-fill" data-item-order="1000000000" data-item-id="line_zoernqsmjzew" data-item-class="Icon Stroke Indexed InsideFill InsideColorFill" data-item-index="4" data-renderer-id="0" transform="translate(146, 374)"></g><g id="g-root--1.cu_sy_vai07ascbzf1-stroke" data-item-order="999852550" data-item-id="-1.cu_sy_vai07ascbzf1" data-item-class="Part Fill Stroke ColorFillBlack ColorStrokeGray" data-item-index="-1" data-renderer-id="0" transform="translate(278, 74)"><g id="-1.cu_sy_vai07ascbzf1-stroke" fill="none" stroke-linecap="round" stroke-linejoin="round" stroke-miterlimit="4" stroke="#2C2C2C" stroke-width="2"><g><path d="M 65.766602 394C 80.754802 394 106.000002 308.0387 106.000002 202C 106.000002 95.9613 80.754802 10 65.766602 10C 80.775202 10.01 92.941702 96.2224 92.941702 202C 92.941702 307.7776 80.775202 393.99 65.766602 394ZM 65.765897 394C 80.774597 393.99 92.941097 307.7776 92.941097 202C 92.941097 96.2224 80.774597 10.01 65.765897 10L 51.957397 10C 66.060697 16.8878 77.199297 100.4719 77.199297 202C 77.199297 303.5282 65.382597 387.1122 51.279297 394L 65.765897 394ZM 77.2 202C 77.2 303.5282 65.3833 387.1122 51.28 394L 50.0615 394C 35.0734 394 10 308.0387 10 202C 10 95.9613 35.0734 10 50.0615 10C 50.6991 10 51.9581 10 51.9581 10C 66.0614 16.8878 77.2 100.4719 77.2 202Z"></path></g></g></g><g id="g-root-0.cr-medium_cr_quoi2uscc07a-stroke" data-item-order="999852554" data-item-id="0.cr-medium_cr_quoi2uscc07a" data-item-class="Shape Stroke Fill Part Indexed_0 ColorStrokeGray" data-item-index="0" data-renderer-id="0" transform="translate(446, 230)"><g id="0.cr-medium_cr_quoi2uscc07a-stroke" fill="none" stroke-linecap="round" stroke-linejoin="round" stroke-miterlimit="4" stroke="#2C2C2C" stroke-width="2"><g><path d="M 10 46C 10 65.882251 26.117749 82 46 82C 65.882251 82 82 65.882251 82 46C 82 26.117749 65.882251 10 46 10C 26.117749 10 10 26.117749 10 46"></path></g></g></g><g id="g-root-4.line_sy_hz1htyscc0zz-stroke" data-item-order="999852561" data-item-id="4.line_sy_hz1htyscc0zz" data-item-class="Curve Stroke Part Indexed ColorStrokeGray" data-item-index="4" data-renderer-id="0" transform="translate(194, 301)"><g id="4.line_sy_hz1htyscc0zz-stroke" fill="none" stroke-linecap="round" stroke-linejoin="round" stroke-miterlimit="4" stroke="#ffffff" stroke-width="2"><g><path d="M 260.35 11.14L 130 101L 10 101"></path><path d="M 259.1 19.9L 260.8 10.9L 251.7 9.2" stroke-dasharray="none"></path></g></g></g><g id="g-root-4.cr-small_cr_djugsmscbymg-stroke" data-item-order="999852562" data-item-id="4.cr-small_cr_djugsmscbymg" data-item-class="Shape Stroke Fill Part Indexed ColorStrokeGray" data-item-index="4" data-renderer-id="0" transform="translate(134, 363)"><g id="4.cr-small_cr_djugsmscbymg-stroke" fill="none" stroke-linecap="round" stroke-linejoin="round" stroke-miterlimit="4" stroke="#2C2C2C" stroke-width="2"><g><path d="M 10 40C 10.000002 56.568544 23.431459 70.000002 40.000002 70.000002C 56.568544 70.000002 70.000002 56.568544 70.000002 40.000002C 70.000002 23.431459 56.568544 10.000002 40.000002 10.000002C 23.431459 10.000002 10.000002 23.431459 10.000002 40.000002"></path></g></g></g><g id="g-root-3.line_sy_940yo6scbzep-stroke" data-item-order="999852569" data-item-id="3.line_sy_940yo6scbzep" data-item-class="Curve Stroke Part Indexed ColorStrokeGray" data-item-index="3" data-renderer-id="0" transform="translate(194.10940551757812, 278)"><g id="3.line_sy_940yo6scbzep-stroke" fill="none" stroke-linecap="round" stroke-linejoin="round" stroke-miterlimit="4" stroke="#ffffff" stroke-width="2"><g><path d="M 249.950594 10.48L 129.890594 40L 10.000594 40"></path><path d="M 245.690594 18.2L 250.390594 10.4L 242.590594 5.6" stroke-dasharray="none"></path></g></g></g><g id="g-root-3.cr-small_cr_8dyfascc07e-stroke" data-item-order="999852570" data-item-id="3.cr-small_cr_8dyfascc07e" data-item-class="Shape Stroke Fill Part Indexed ColorStrokeGray" data-item-index="3" data-renderer-id="0" transform="translate(134, 279)"><g id="3.cr-small_cr_8dyfascc07e-stroke" fill="none" stroke-linecap="round" stroke-linejoin="round" stroke-miterlimit="4" stroke="#2C2C2C" stroke-width="2"><g><path d="M 10 40C 10.000002 56.568544 23.431459 70.000002 40.000002 70.000002C 56.568544 70.000002 70.000002 56.568544 70.000002 40.000002C 70.000002 23.431459 56.568544 10.000002 40.000002 10.000002C 23.431459 10.000002 10.000002 23.431459 10.000002 40.000002"></path></g></g></g><g id="g-root-2.line_sy_1utoi9yscc0sj-stroke" data-item-order="999852577" data-item-id="2.line_sy_1utoi9yscc0sj" data-item-class="Curve Stroke Part Indexed ColorStrokeGray" data-item-index="2" data-renderer-id="0" transform="translate(194, 224)"><g id="2.line_sy_1utoi9yscc0sj-stroke" fill="none" stroke-linecap="round" stroke-linejoin="round" stroke-miterlimit="4" stroke="#ffffff" stroke-width="2"><g><path d="M 250.06 39.52L 130 10L 10 10"></path><path d="M 242.7 44.4L 250.5 39.6L 245.8 31.8" stroke-dasharray="none"></path></g></g></g><g id="g-root-2.cr-small_cr_1ly1i12scc1l8-stroke" data-item-order="999852578" data-item-id="2.cr-small_cr_1ly1i12scc1l8" data-item-class="Shape Stroke Fill Part Indexed ColorStrokeGray" data-item-index="2" data-renderer-id="0" transform="translate(134, 195)"><g id="2.cr-small_cr_1ly1i12scc1l8-stroke" fill="none" stroke-linecap="round" stroke-linejoin="round" stroke-miterlimit="4" stroke="#2C2C2C" stroke-width="2"><g><path d="M 10 40C 10.000002 56.568544 23.431459 70.000002 40.000002 70.000002C 56.568544 70.000002 70.000002 56.568544 70.000002 40.000002C 70.000002 23.431459 56.568544 10.000002 40.000002 10.000002C 23.431459 10.000002 10.000002 23.431459 10.000002 40.000002"></path></g></g></g><g id="g-root-1.line_sy_18n7gquscc00d-stroke" data-item-order="999852585" data-item-id="1.line_sy_18n7gquscc00d" data-item-class="Curve Stroke Part Indexed Indexed_1 ColorStrokeGray" data-item-index="1" data-renderer-id="0" transform="translate(194, 140)"><g id="1.line_sy_18n7gquscc00d-stroke" fill="none" stroke-linecap="round" stroke-linejoin="round" stroke-miterlimit="4" stroke="#ffffff" stroke-width="2"><g><path d="M 260.35 99.86L 130 10L 10 10"></path><path d="M 251.7 101.8L 260.8 100.1L 259.1 91.1" stroke-dasharray="none"></path></g></g></g><g id="g-root-1.cr-small_cr_147dymescc0sm-stroke" data-item-order="999852586" data-item-id="1.cr-small_cr_147dymescc0sm" data-item-class="Shape Stroke Fill Part Indexed Indexed_1 ColorStrokeGray" data-item-index="1" data-renderer-id="0" transform="translate(134, 111)"><g id="1.cr-small_cr_147dymescc0sm-stroke" fill="none" stroke-linecap="round" stroke-linejoin="round" stroke-miterlimit="4" stroke="#2C2C2C" stroke-width="2"><g><path d="M 10 40C 10.000002 56.568544 23.431459 70.000002 40.000002 70.000002C 56.568544 70.000002 70.000002 56.568544 70.000002 40.000002C 70.000002 23.431459 56.568544 10.000002 40.000002 10.000002C 23.431459 10.000002 10.000002 23.431459 10.000002 40.000002"></path></g></g></g><g id="g-root-tx_achievin_qoem4msmbk7i-stroke" data-item-order="1000000000" data-item-id="tx_achievin_qoem4msmbk7i" data-item-class="Label Stroke Title ColorStrokeGray" data-item-index="none" data-renderer-id="0" transform="translate(146, 2)"></g><g id="g-root-tx_efficien_1cuvnnqsmbkzp-stroke" data-item-order="1000000000" data-item-id="tx_efficien_1cuvnnqsmbkzp" data-item-class="Label Stroke Indexed Indexed_1 ColorStrokeGray" data-item-index="1" data-renderer-id="0" transform="translate(26, 128)"></g><g id="g-root-cloc_1lymu12sma6m8-stroke" data-item-order="1000000000" data-item-id="cloc_1lymu12sma6m8" data-item-class="Icon Stroke Indexed Indexed_1 InsideFill InsideColorFill" data-item-index="1" data-renderer-id="0" transform="translate(146, 122)"><g id="cloc_1lymu12sma6m8-stroke" fill="none" stroke-linecap="round" stroke-linejoin="round" stroke-miterlimit="4" stroke="#FFFFFF" stroke-width="2"><g><path d="M 10.75 16.75L 40.75 16.75M 14.875 13.375C 14.667893 13.375 14.5 13.542893 14.5 13.75C 14.5 13.957107 14.667893 14.125 14.875 14.125C 15.082107 14.125 15.25 13.957107 15.25 13.75C 15.25 13.542893 15.082107 13.375 14.875 13.375L 14.875 13.375M 18.625 13.375C 18.417892 13.375 18.25 13.542893 18.25 13.75C 18.25 13.957107 18.417892 14.125 18.625 14.125C 18.832108 14.125 19 13.957107 19 13.75C 19 13.542893 18.832108 13.375 18.625 13.375L 18.625 13.375M 22.375 13.375C 22.167892 13.375 22 13.542893 22 13.75C 22 13.957107 22.167892 14.125 22.375 14.125C 22.582108 14.125 22.75 13.957107 22.75 13.75C 22.75 13.542893 22.582108 13.375 22.375 13.375L 22.375 13.375M 21.25 33.25L 13.75 33.25C 12.093145 33.25 10.75 31.906855 10.75 30.25L 10.75 13.75C 10.75 12.093145 12.093145 10.75 13.75 10.75L 37.75 10.75C 39.406857 10.75 40.75 12.093145 40.75 13.75L 40.75 21.25M 25.75 36.25C 25.750002 41.220566 29.779438 45.25 34.75 45.25C 39.720566 45.25 43.75 41.220566 43.75 36.25C 43.75 31.279438 39.720566 27.250002 34.75 27.250002C 29.779438 27.250002 25.750002 31.279438 25.750002 36.25ZM 34.75 30.25L 34.75 36.25L 39.25 36.25M 28 25L 24.25 28.75M 45.25 28.75L 41.5 25"></path></g></g></g><g id="g-root-tx_accuracy_1ulj72esmblsc-stroke" data-item-order="1000000000" data-item-id="tx_accuracy_1ulj72esmblsc" data-item-class="Label Stroke Indexed ColorStrokeGray" data-item-index="2" data-renderer-id="0" transform="translate(26, 212)"></g><g id="g-root-chec_1lqikqusma68b-stroke" data-item-order="1000000000" data-item-id="chec_1lqikqusma68b" data-item-class="Icon Stroke Indexed InsideFill InsideColorFill" data-item-index="2" data-renderer-id="0" transform="translate(146, 206)"><g id="chec_1lqikqusma68b-stroke" fill="none" stroke-linecap="round" stroke-linejoin="round" stroke-miterlimit="4" stroke="#FFFFFF" stroke-width="2"><g><path d="M 34.42857 13.857142L 38.285713 13.857142C 39.705875 13.857142 40.857143 15.00841 40.857143 16.428572L 40.857143 42.142857C 40.857143 43.563019 39.705875 44.714287 38.285713 44.714287L 17.714285 44.714287C 16.294125 44.714287 15.142857 43.563019 15.142857 42.142857L 15.142857 16.428572C 15.142857 15.00841 16.294125 13.857142 17.714285 13.857142L 21.571428 13.857142M 24.142857 11.285714L 31.857143 11.285714C 31.857143 11.285714 34.42857 11.285714 34.42857 13.857142L 34.42857 15.142857C 34.42857 15.142857 34.42857 17.714285 31.857143 17.714285L 24.142857 17.714285C 24.142857 17.714285 21.571428 17.714285 21.571428 15.142857L 21.571428 13.857142C 21.571428 13.857142 21.571428 11.285714 24.142857 11.285714M 21.571428 31.857143L 26.714285 35.714287L 33.142857 25.428572"></path></g></g></g><g id="g-root-star_18ntxtyscj1u2-stroke" data-item-order="1000000000" data-item-id="star_18ntxtyscj1u2" data-item-class="Icon Stroke InsideFill" data-item-index="none" data-renderer-id="0" transform="translate(458, 242)"><g id="star_18ntxtyscj1u2-stroke" fill="none" stroke-linecap="round" stroke-linejoin="round" stroke-miterlimit="4" stroke="#FFFFFF" stroke-width="2"><g><path d="M 29.042 57.021999L 13.042 57.021999C 11.93743 57.021999 11.042 56.126568 11.042 55.021999L 11.042 13.022C 11.042 11.917431 11.93743 11.022 13.042 11.022L 39.627998 11.022C 40.157242 11.019989 40.66571 11.227833 41.042 11.6L 48.456001 19.014C 48.8311 19.388985 49.041885 19.89761 49.042 20.428001L 49.042 27.021999M 19.042 37.84L 24.950001 31.931999C 25.532717 31.350485 26.4445 31.260143 27.130001 31.716002L 29.916 33.573997C 30.618618 34.041878 31.556442 33.93364 32.134003 33.318001L 37.610001 27.476M 19.042 23.021999L 19.042 43.021999L 27.042 43.021999M 46.456001 33.882L 49.532001 41.021999L 55.532001 41.021999C 56.151592 40.998573 56.719261 41.366428 56.951004 41.941528C 57.182747 42.516624 57.028728 43.175293 56.566002 43.588001L 51.366001 48.217999L 54.245998 54.844002C 54.512676 55.468796 54.347267 56.194229 53.836105 56.641666C 53.324944 57.089104 52.584 57.157032 52.000004 56.810001L 45.040001 52.888L 38.077999 56.810001C 37.494522 57.147488 36.760735 57.074867 36.254723 56.629559C 35.748711 56.184254 35.583412 55.465645 35.844002 54.844002L 38.723999 48.217999L 33.524002 43.588001C 33.059486 43.17672 32.903679 42.517822 33.134796 41.942051C 33.365913 41.36628 33.934044 40.997971 34.554001 41.022003L 40.542 41.021999L 43.625999 33.882C 43.897068 33.349846 44.443787 33.014778 45.041 33.014778C 45.638214 33.014778 46.184929 33.349846 46.456001 33.882Z"></path></g></g></g><g id="g-root-tx_streamli_1d2zts6sma7ex-stroke" data-item-order="1000000000" data-item-id="tx_streamli_1d2zts6sma7ex" data-item-class="Label Stroke ColorStrokeGray" data-item-index="none" data-renderer-id="0" transform="translate(530, 230)"></g><g id="g-root-tx_complian_8vvngmsmbkej-stroke" data-item-order="1000000000" data-item-id="tx_complian_8vvngmsmbkej" data-item-class="Label Stroke Indexed ColorStrokeGray" data-item-index="3" data-renderer-id="0" transform="translate(2, 296)"></g><g id="g-root-chec_1uuw87asm34su-stroke" data-item-order="1000000000" data-item-id="chec_1uuw87asm34su" data-item-class="Icon Stroke Indexed InsideFill InsideColorFill" data-item-index="3" data-renderer-id="0" transform="translate(146, 290)"><g id="chec_1uuw87asm34su-stroke" fill="none" stroke-linecap="round" stroke-linejoin="round" stroke-miterlimit="4" stroke="#FFFFFF" stroke-width="2"><g><path d="M 25 45.25L 12.25 45.25C 11.421573 45.25 10.75 44.578426 10.75 43.75L 10.75 15.25C 10.75 14.421573 11.421573 13.75 12.25 13.75L 15.25 13.75M 33.25 13.75L 36.25 13.75C 37.078426 13.75 37.75 14.421573 37.75 15.25L 37.75 24.25M 27.25 13.75C 27.25 12.093145 25.906855 10.75 24.25 10.75C 22.593145 10.75 21.25 12.093145 21.25 13.75L 18.25 13.75L 18.25 18.25L 30.25 18.25L 30.25 13.75ZM 34.75 24.25L 34.75 17.5C 34.75 17.085787 34.414215 16.75 34 16.75L 30.25 16.75M 18.25 16.75L 14.5 16.75C 14.085787 16.75 13.75 17.085787 13.75 17.5L 13.75 41.5C 13.75 41.914215 14.085787 42.25 14.5 42.25L 25 42.25M 18.25 22.748499L 30.25 22.748499M 18.25 27.248499L 27.25 27.248499M 18.25 31.748499L 24.25 31.748499M 27.25 36.248501C 27.250002 41.219063 31.279438 45.248501 36.25 45.248501C 41.220566 45.248501 45.25 41.219063 45.25 36.248501C 45.25 31.277939 41.220566 27.248501 36.25 27.248501C 31.279438 27.248501 27.250002 31.277939 27.250002 36.248501ZM 40.261002 33.6325L 35.9035 39.443501C 35.707745 39.704166 35.408546 39.867104 35.083374 39.890125C 34.758202 39.913147 34.43903 39.793991 34.2085 39.563499L 31.9585 37.313499"></path></g></g></g><g id="g-root-tx_insights_mgpa4msma7ey-stroke" data-item-order="1000000000" data-item-id="tx_insights_mgpa4msma7ey" data-item-class="Label Stroke Indexed ColorStrokeGray" data-item-index="4" data-renderer-id="0" transform="translate(38, 380)"></g><g id="g-root-line_zoernqsmjzew-stroke" data-item-order="1000000000" data-item-id="line_zoernqsmjzew" data-item-class="Icon Stroke Indexed InsideFill InsideColorFill" data-item-index="4" data-renderer-id="0" transform="translate(146, 374)"><g id="line_zoernqsmjzew-stroke" fill="none" stroke-linecap="round" stroke-linejoin="round" stroke-miterlimit="4" stroke="#FFFFFF" stroke-width="2"><g><path d="M 12.256 15.25L 43.756001 15.25C 43.756001 15.25 45.256001 15.25 45.256001 16.75L 45.256001 39.25C 45.256001 39.25 45.256001 40.75 43.756001 40.75L 12.256 40.75C 12.256 40.75 10.756 40.75 10.756 39.25L 10.756 16.75C 10.756 16.75 10.756 15.25 12.256 15.25M 16.75 33.25L 20.606501 26.8225C 20.741955 26.596237 20.986288 26.457737 21.25 26.457737C 21.513712 26.457737 21.758045 26.596237 21.893499 26.8225L 25.213001 32.349998C 25.337925 32.558418 25.556082 32.693398 25.798347 32.712173C 26.040611 32.730946 26.276958 32.631184 26.432499 32.4445L 28.93 29.4445C 29.072496 29.273624 29.283506 29.174837 29.506001 29.174837C 29.728495 29.174837 29.939503 29.273624 30.081999 29.4445L 32.564499 32.4235C 32.721825 32.612133 32.961548 32.711777 33.20623 32.690239C 33.450916 32.668701 33.669548 32.528717 33.7915 32.315498L 39.25 22.75"></path></g></g></g></g></g></svg>