<svg width="798" height="756" viewBox="0 0 798 756" fill="none" xmlns="http://www.w3.org/2000/svg">
<g clip-path="url(#clip0_9439_29123)">
<rect width="798" height="756" fill="#979494"/>
<path d="M798 0H0V756H798V0Z" fill="white"/>
<path fill-rule="evenodd" clip-rule="evenodd" d="M180 348C180 387.425 190.562 424.383 209.012 456.198L281.696 414.064C270.442 394.634 264 372.069 264 348C264 330.376 267.454 313.559 273.722 298.188L305.313 316.427C309.334 304.876 315.501 294.328 323.335 285.263L291.747 267.025C315.898 235.976 353.616 216 396 216L395.999 132C276.706 132 180 228.707 180 348Z" fill="#224754"/>
<path fill-rule="evenodd" clip-rule="evenodd" d="M396.001 564.001C475.941 564.001 545.738 520.575 583.089 456.026L510.319 414.039C490.344 448.543 455.196 473.167 414.001 478.784V442.316C408.17 443.422 402.153 444.001 396.001 444.001C389.849 444.001 383.831 443.422 378.001 442.316V478.784C336.815 473.168 301.674 448.555 281.696 414.063L209.012 456.197C246.387 520.651 316.132 564.001 396.001 564.001Z" fill="#4F4A20"/>
<path fill-rule="evenodd" clip-rule="evenodd" d="M612.001 348.001C612.001 387.355 601.476 424.251 583.088 456.027L510.319 414.04C521.564 394.616 528.001 372.06 528.001 348.001C528.001 330.377 524.547 313.559 518.278 298.188L486.687 316.427C482.666 304.875 476.5 294.328 468.665 285.263L500.253 267.026C476.101 235.976 438.383 216.001 396 216.001L396.001 132.001C515.294 132.001 612.001 228.707 612.001 348.001Z" fill="#2B503E"/>
<path fill-rule="evenodd" clip-rule="evenodd" d="M492 348C492 401.019 449.019 444 396 444C342.981 444 300 401.019 300 348C300 294.981 342.981 252 396 252C449.019 252 492 294.981 492 348Z" fill="#505050"/>
<path d="M245.832 21.7129L241.965 33.5H238.85L244.133 19.2812H246.115L245.832 21.7129ZM249.045 33.5L245.168 21.7129L244.855 19.2812H246.857L252.17 33.5H249.045ZM248.869 28.207V30.502H241.359V28.207H248.869ZM256.604 19.2812V33.5H253.684V19.2812H256.604ZM270.109 21.7129L266.242 33.5H263.127L268.41 19.2812H270.393L270.109 21.7129ZM273.322 33.5L269.445 21.7129L269.133 19.2812H271.135L276.447 33.5H273.322ZM273.146 28.207V30.502H265.637V28.207H273.146ZM280.031 25.1895V33.5H277.219V22.9336H279.855L280.031 25.1895ZM279.621 27.8457H278.859C278.859 27.0645 278.96 26.3613 279.162 25.7363C279.364 25.1048 279.647 24.5677 280.012 24.125C280.376 23.6758 280.809 23.334 281.311 23.0996C281.818 22.8587 282.385 22.7383 283.01 22.7383C283.505 22.7383 283.957 22.8099 284.367 22.9531C284.777 23.0964 285.129 23.3242 285.422 23.6367C285.721 23.9492 285.949 24.3626 286.105 24.877C286.268 25.3913 286.35 26.0195 286.35 26.7617V33.5H283.518V26.752C283.518 26.2832 283.452 25.9186 283.322 25.6582C283.192 25.3978 283 25.2155 282.746 25.1113C282.499 25.0007 282.193 24.9453 281.828 24.9453C281.451 24.9453 281.122 25.0202 280.842 25.1699C280.568 25.3197 280.34 25.528 280.158 25.7949C279.982 26.0553 279.849 26.3613 279.758 26.7129C279.667 27.0645 279.621 27.4421 279.621 27.8457ZM294.191 31.1172V26.4102C294.191 26.0716 294.136 25.7819 294.025 25.541C293.915 25.2936 293.742 25.1016 293.508 24.9648C293.28 24.8281 292.984 24.7598 292.619 24.7598C292.307 24.7598 292.036 24.8151 291.809 24.9258C291.581 25.0299 291.405 25.1829 291.281 25.3848C291.158 25.5801 291.096 25.8112 291.096 26.0781H288.283C288.283 25.6289 288.387 25.2025 288.596 24.7988C288.804 24.3952 289.107 24.0404 289.504 23.7344C289.901 23.4219 290.373 23.1777 290.92 23.002C291.473 22.8262 292.092 22.7383 292.775 22.7383C293.596 22.7383 294.325 22.875 294.963 23.1484C295.601 23.4219 296.102 23.832 296.467 24.3789C296.838 24.9258 297.023 25.6094 297.023 26.4297V30.9512C297.023 31.5306 297.059 32.0059 297.131 32.377C297.202 32.7415 297.307 33.0605 297.443 33.334V33.5H294.602C294.465 33.2135 294.361 32.8555 294.289 32.4258C294.224 31.9896 294.191 31.5534 294.191 31.1172ZM294.562 27.0645L294.582 28.6562H293.01C292.639 28.6562 292.316 28.6986 292.043 28.7832C291.77 28.8678 291.545 28.9883 291.369 29.1445C291.193 29.2943 291.063 29.4701 290.979 29.6719C290.9 29.8737 290.861 30.0951 290.861 30.3359C290.861 30.5768 290.917 30.7949 291.027 30.9902C291.138 31.179 291.298 31.3288 291.506 31.4395C291.714 31.5436 291.958 31.5957 292.238 31.5957C292.661 31.5957 293.029 31.5111 293.342 31.3418C293.654 31.1725 293.895 30.9642 294.064 30.7168C294.24 30.4694 294.331 30.235 294.338 30.0137L295.08 31.2051C294.976 31.472 294.833 31.7487 294.65 32.0352C294.475 32.3216 294.25 32.5918 293.977 32.8457C293.703 33.0931 293.374 33.2982 292.99 33.4609C292.606 33.6172 292.15 33.6953 291.623 33.6953C290.952 33.6953 290.344 33.5618 289.797 33.2949C289.257 33.0215 288.827 32.6471 288.508 32.1719C288.195 31.6901 288.039 31.1432 288.039 30.5312C288.039 29.9779 288.143 29.4863 288.352 29.0566C288.56 28.627 288.866 28.2656 289.27 27.9727C289.68 27.6732 290.191 27.4486 290.803 27.2988C291.415 27.1426 292.124 27.0645 292.932 27.0645H294.562ZM302.16 18.5V33.5H299.338V18.5H302.16ZM307.619 32.3086L310.422 22.9336H313.439L309.191 35.0918C309.1 35.3587 308.977 35.6452 308.82 35.9512C308.671 36.2572 308.465 36.5469 308.205 36.8203C307.951 37.1003 307.629 37.3281 307.238 37.5039C306.854 37.6797 306.382 37.7676 305.822 37.7676C305.555 37.7676 305.337 37.7513 305.168 37.7188C304.999 37.6862 304.797 37.6406 304.562 37.582V35.5215C304.634 35.5215 304.709 35.5215 304.787 35.5215C304.865 35.528 304.94 35.5312 305.012 35.5312C305.383 35.5312 305.686 35.4889 305.92 35.4043C306.154 35.3197 306.343 35.1895 306.486 35.0137C306.63 34.8444 306.743 34.623 306.828 34.3496L307.619 32.3086ZM306.447 22.9336L308.742 30.5898L309.143 33.5684L307.229 33.7734L303.43 22.9336H306.447ZM319.738 22.9336V24.9258H313.586V22.9336H319.738ZM315.109 20.3262H317.922V30.3164C317.922 30.6224 317.961 30.8568 318.039 31.0195C318.124 31.1823 318.247 31.2962 318.41 31.3613C318.573 31.4199 318.778 31.4492 319.025 31.4492C319.201 31.4492 319.357 31.4427 319.494 31.4297C319.637 31.4102 319.758 31.3906 319.855 31.3711L319.865 33.4414C319.624 33.5195 319.364 33.5814 319.084 33.627C318.804 33.6725 318.495 33.6953 318.156 33.6953C317.538 33.6953 316.997 33.5944 316.535 33.3926C316.079 33.1842 315.728 32.8522 315.48 32.3965C315.233 31.9408 315.109 31.3418 315.109 30.5996V20.3262ZM324.309 22.9336V33.5H321.486V22.9336H324.309ZM321.311 20.1797C321.311 19.7695 321.454 19.431 321.74 19.1641C322.027 18.8971 322.411 18.7637 322.893 18.7637C323.368 18.7637 323.749 18.8971 324.035 19.1641C324.328 19.431 324.475 19.7695 324.475 20.1797C324.475 20.5898 324.328 20.9284 324.035 21.1953C323.749 21.4622 323.368 21.5957 322.893 21.5957C322.411 21.5957 322.027 21.4622 321.74 21.1953C321.454 20.9284 321.311 20.5898 321.311 20.1797ZM330.998 31.498C331.343 31.498 331.649 31.4329 331.916 31.3027C332.183 31.166 332.391 30.9772 332.541 30.7363C332.697 30.4889 332.779 30.1992 332.785 29.8672H335.432C335.425 30.6094 335.227 31.2702 334.836 31.8496C334.445 32.4225 333.921 32.875 333.264 33.207C332.606 33.5326 331.87 33.6953 331.057 33.6953C330.236 33.6953 329.52 33.5586 328.908 33.2852C328.303 33.0117 327.798 32.6341 327.395 32.1523C326.991 31.6641 326.688 31.0977 326.486 30.4531C326.285 29.8021 326.184 29.1055 326.184 28.3633V28.0801C326.184 27.3314 326.285 26.6348 326.486 25.9902C326.688 25.3392 326.991 24.7728 327.395 24.291C327.798 23.8027 328.303 23.4219 328.908 23.1484C329.514 22.875 330.223 22.7383 331.037 22.7383C331.903 22.7383 332.661 22.9043 333.312 23.2363C333.97 23.5684 334.484 24.0436 334.855 24.6621C335.233 25.2741 335.425 26 335.432 26.8398H332.785C332.779 26.4883 332.704 26.1693 332.561 25.8828C332.424 25.5964 332.222 25.3685 331.955 25.1992C331.695 25.0234 331.372 24.9355 330.988 24.9355C330.578 24.9355 330.243 25.0234 329.982 25.1992C329.722 25.3685 329.52 25.6029 329.377 25.9023C329.234 26.1953 329.133 26.5306 329.074 26.9082C329.022 27.2793 328.996 27.6699 328.996 28.0801V28.3633C328.996 28.7734 329.022 29.1673 329.074 29.5449C329.126 29.9225 329.224 30.2578 329.367 30.5508C329.517 30.8438 329.722 31.0749 329.982 31.2441C330.243 31.4134 330.581 31.498 330.998 31.498ZM342.775 30.5801C342.775 30.3783 342.717 30.196 342.6 30.0332C342.482 29.8704 342.264 29.7207 341.945 29.584C341.633 29.4408 341.18 29.3105 340.588 29.1934C340.054 29.0762 339.556 28.9297 339.094 28.7539C338.638 28.5716 338.241 28.3535 337.902 28.0996C337.57 27.8457 337.31 27.5462 337.121 27.2012C336.932 26.8496 336.838 26.4492 336.838 26C336.838 25.5573 336.932 25.1406 337.121 24.75C337.316 24.3594 337.593 24.0143 337.951 23.7148C338.316 23.4089 338.758 23.1712 339.279 23.002C339.807 22.8262 340.399 22.7383 341.057 22.7383C341.975 22.7383 342.762 22.8848 343.42 23.1777C344.084 23.4707 344.592 23.8743 344.943 24.3887C345.301 24.8965 345.48 25.4759 345.48 26.127H342.668C342.668 25.8535 342.609 25.6094 342.492 25.3945C342.382 25.1732 342.206 25.0007 341.965 24.877C341.73 24.7467 341.424 24.6816 341.047 24.6816C340.734 24.6816 340.464 24.737 340.236 24.8477C340.008 24.9518 339.833 25.0951 339.709 25.2773C339.592 25.4531 339.533 25.6484 339.533 25.8633C339.533 26.026 339.566 26.1725 339.631 26.3027C339.702 26.4264 339.816 26.5404 339.973 26.6445C340.129 26.7487 340.331 26.8464 340.578 26.9375C340.832 27.0221 341.145 27.1003 341.516 27.1719C342.277 27.3281 342.958 27.5332 343.557 27.7871C344.156 28.0345 344.631 28.373 344.982 28.8027C345.334 29.2259 345.51 29.7826 345.51 30.4727C345.51 30.9414 345.406 31.3711 345.197 31.7617C344.989 32.1523 344.689 32.4941 344.299 32.7871C343.908 33.0736 343.439 33.2982 342.893 33.4609C342.352 33.6172 341.743 33.6953 341.066 33.6953C340.083 33.6953 339.25 33.5195 338.566 33.168C337.889 32.8164 337.375 32.3704 337.023 31.8301C336.678 31.2832 336.506 30.7233 336.506 30.1504H339.172C339.185 30.5345 339.283 30.8438 339.465 31.0781C339.654 31.3125 339.891 31.4818 340.178 31.5859C340.471 31.6901 340.786 31.7422 341.125 31.7422C341.49 31.7422 341.792 31.6934 342.033 31.5957C342.274 31.4915 342.456 31.3548 342.58 31.1855C342.71 31.0098 342.775 30.8079 342.775 30.5801ZM358.273 21.7129L354.406 33.5H351.291L356.574 19.2812H358.557L358.273 21.7129ZM361.486 33.5L357.609 21.7129L357.297 19.2812H359.299L364.611 33.5H361.486ZM361.311 28.207V30.502H353.801V28.207H361.311ZM371.994 31.1953V18.5H374.826V33.5H372.277L371.994 31.1953ZM365.314 28.3438V28.1387C365.314 27.3314 365.406 26.599 365.588 25.9414C365.77 25.2773 366.037 24.7077 366.389 24.2324C366.74 23.7572 367.173 23.3893 367.688 23.1289C368.202 22.8685 368.788 22.7383 369.445 22.7383C370.064 22.7383 370.604 22.8685 371.066 23.1289C371.535 23.3893 371.932 23.7604 372.258 24.2422C372.59 24.7174 372.857 25.2806 373.059 25.9316C373.26 26.5762 373.407 27.2826 373.498 28.0508V28.5C373.407 29.2357 373.26 29.9193 373.059 30.5508C372.857 31.1823 372.59 31.7357 372.258 32.2109C371.932 32.6797 371.535 33.0443 371.066 33.3047C370.598 33.5651 370.051 33.6953 369.426 33.6953C368.768 33.6953 368.182 33.5618 367.668 33.2949C367.16 33.028 366.73 32.6536 366.379 32.1719C366.034 31.6901 365.77 31.1237 365.588 30.4727C365.406 29.8216 365.314 29.112 365.314 28.3438ZM368.127 28.1387V28.3438C368.127 28.7799 368.16 29.1868 368.225 29.5645C368.296 29.9421 368.41 30.2773 368.566 30.5703C368.729 30.8568 368.938 31.0814 369.191 31.2441C369.452 31.4004 369.768 31.4785 370.139 31.4785C370.62 31.4785 371.018 31.3711 371.33 31.1562C371.643 30.9349 371.88 30.6322 372.043 30.248C372.212 29.8639 372.31 29.4212 372.336 28.9199V27.6406C372.316 27.2305 372.258 26.8626 372.16 26.5371C372.069 26.2051 371.932 25.9219 371.75 25.6875C371.574 25.4531 371.353 25.2708 371.086 25.1406C370.826 25.0104 370.516 24.9453 370.158 24.9453C369.794 24.9453 369.481 25.0299 369.221 25.1992C368.96 25.362 368.749 25.5866 368.586 25.873C368.43 26.1595 368.312 26.498 368.234 26.8887C368.163 27.2728 368.127 27.6895 368.127 28.1387ZM376.574 28.3242V28.1191C376.574 27.3444 376.685 26.6315 376.906 25.9805C377.128 25.3229 377.45 24.7533 377.873 24.2715C378.296 23.7897 378.817 23.4154 379.436 23.1484C380.054 22.875 380.764 22.7383 381.564 22.7383C382.365 22.7383 383.078 22.875 383.703 23.1484C384.328 23.4154 384.852 23.7897 385.275 24.2715C385.705 24.7533 386.031 25.3229 386.252 25.9805C386.473 26.6315 386.584 27.3444 386.584 28.1191V28.3242C386.584 29.0924 386.473 29.8053 386.252 30.4629C386.031 31.1139 385.705 31.6836 385.275 32.1719C384.852 32.6536 384.331 33.028 383.713 33.2949C383.094 33.5618 382.385 33.6953 381.584 33.6953C380.783 33.6953 380.07 33.5618 379.445 33.2949C378.827 33.028 378.303 32.6536 377.873 32.1719C377.45 31.6836 377.128 31.1139 376.906 30.4629C376.685 29.8053 376.574 29.0924 376.574 28.3242ZM379.387 28.1191V28.3242C379.387 28.7669 379.426 29.1803 379.504 29.5645C379.582 29.9486 379.706 30.2871 379.875 30.5801C380.051 30.8665 380.279 31.0911 380.559 31.2539C380.839 31.4167 381.18 31.498 381.584 31.498C381.975 31.498 382.31 31.4167 382.59 31.2539C382.87 31.0911 383.094 30.8665 383.264 30.5801C383.433 30.2871 383.557 29.9486 383.635 29.5645C383.719 29.1803 383.762 28.7669 383.762 28.3242V28.1191C383.762 27.6895 383.719 27.2858 383.635 26.9082C383.557 26.5241 383.43 26.1855 383.254 25.8926C383.085 25.5931 382.86 25.3587 382.58 25.1895C382.3 25.0202 381.962 24.9355 381.564 24.9355C381.167 24.9355 380.829 25.0202 380.549 25.1895C380.275 25.3587 380.051 25.5931 379.875 25.8926C379.706 26.1855 379.582 26.5241 379.504 26.9082C379.426 27.2858 379.387 27.6895 379.387 28.1191ZM391.125 24.9648V37.5625H388.312V22.9336H390.92L391.125 24.9648ZM397.814 28.0996V28.3047C397.814 29.0729 397.723 29.7858 397.541 30.4434C397.365 31.1009 397.105 31.6738 396.76 32.1621C396.415 32.6439 395.985 33.0215 395.471 33.2949C394.963 33.5618 394.377 33.6953 393.713 33.6953C393.068 33.6953 392.508 33.5651 392.033 33.3047C391.558 33.0443 391.158 32.6797 390.832 32.2109C390.513 31.7357 390.256 31.1855 390.061 30.5605C389.865 29.9355 389.715 29.265 389.611 28.5488V28.0117C389.715 27.2435 389.865 26.5404 390.061 25.9023C390.256 25.2578 390.513 24.7012 390.832 24.2324C391.158 23.7572 391.555 23.3893 392.023 23.1289C392.499 22.8685 393.055 22.7383 393.693 22.7383C394.364 22.7383 394.953 22.8652 395.461 23.1191C395.975 23.373 396.405 23.7376 396.75 24.2129C397.102 24.6882 397.365 25.2546 397.541 25.9121C397.723 26.5697 397.814 27.2988 397.814 28.0996ZM394.992 28.3047V28.0996C394.992 27.6504 394.953 27.237 394.875 26.8594C394.803 26.4753 394.686 26.14 394.523 25.8535C394.367 25.5671 394.159 25.3457 393.898 25.1895C393.645 25.0267 393.335 24.9453 392.971 24.9453C392.587 24.9453 392.258 25.0072 391.984 25.1309C391.717 25.2546 391.499 25.4336 391.33 25.668C391.161 25.9023 391.034 26.1823 390.949 26.5078C390.865 26.8333 390.812 27.2012 390.793 27.6113V28.9688C390.826 29.4505 390.917 29.8835 391.066 30.2676C391.216 30.6452 391.447 30.9447 391.76 31.166C392.072 31.3874 392.482 31.498 392.99 31.498C393.361 31.498 393.674 31.4167 393.928 31.2539C394.182 31.0846 394.387 30.8535 394.543 30.5605C394.706 30.2676 394.82 29.929 394.885 29.5449C394.956 29.1608 394.992 28.7474 394.992 28.3047ZM404.738 22.9336V24.9258H398.586V22.9336H404.738ZM400.109 20.3262H402.922V30.3164C402.922 30.6224 402.961 30.8568 403.039 31.0195C403.124 31.1823 403.247 31.2962 403.41 31.3613C403.573 31.4199 403.778 31.4492 404.025 31.4492C404.201 31.4492 404.357 31.4427 404.494 31.4297C404.637 31.4102 404.758 31.3906 404.855 31.3711L404.865 33.4414C404.624 33.5195 404.364 33.5814 404.084 33.627C403.804 33.6725 403.495 33.6953 403.156 33.6953C402.538 33.6953 401.997 33.5944 401.535 33.3926C401.079 33.1842 400.728 32.8522 400.48 32.3965C400.233 31.9408 400.109 31.3418 400.109 30.5996V20.3262ZM409.309 22.9336V33.5H406.486V22.9336H409.309ZM406.311 20.1797C406.311 19.7695 406.454 19.431 406.74 19.1641C407.027 18.8971 407.411 18.7637 407.893 18.7637C408.368 18.7637 408.749 18.8971 409.035 19.1641C409.328 19.431 409.475 19.7695 409.475 20.1797C409.475 20.5898 409.328 20.9284 409.035 21.1953C408.749 21.4622 408.368 21.5957 407.893 21.5957C407.411 21.5957 407.027 21.4622 406.74 21.1953C406.454 20.9284 406.311 20.5898 406.311 20.1797ZM411.184 28.3242V28.1191C411.184 27.3444 411.294 26.6315 411.516 25.9805C411.737 25.3229 412.059 24.7533 412.482 24.2715C412.906 23.7897 413.426 23.4154 414.045 23.1484C414.663 22.875 415.373 22.7383 416.174 22.7383C416.975 22.7383 417.688 22.875 418.312 23.1484C418.938 23.4154 419.462 23.7897 419.885 24.2715C420.314 24.7533 420.64 25.3229 420.861 25.9805C421.083 26.6315 421.193 27.3444 421.193 28.1191V28.3242C421.193 29.0924 421.083 29.8053 420.861 30.4629C420.64 31.1139 420.314 31.6836 419.885 32.1719C419.462 32.6536 418.941 33.028 418.322 33.2949C417.704 33.5618 416.994 33.6953 416.193 33.6953C415.393 33.6953 414.68 33.5618 414.055 33.2949C413.436 33.028 412.912 32.6536 412.482 32.1719C412.059 31.6836 411.737 31.1139 411.516 30.4629C411.294 29.8053 411.184 29.0924 411.184 28.3242ZM413.996 28.1191V28.3242C413.996 28.7669 414.035 29.1803 414.113 29.5645C414.191 29.9486 414.315 30.2871 414.484 30.5801C414.66 30.8665 414.888 31.0911 415.168 31.2539C415.448 31.4167 415.79 31.498 416.193 31.498C416.584 31.498 416.919 31.4167 417.199 31.2539C417.479 31.0911 417.704 30.8665 417.873 30.5801C418.042 30.2871 418.166 29.9486 418.244 29.5645C418.329 29.1803 418.371 28.7669 418.371 28.3242V28.1191C418.371 27.6895 418.329 27.2858 418.244 26.9082C418.166 26.5241 418.039 26.1855 417.863 25.8926C417.694 25.5931 417.469 25.3587 417.189 25.1895C416.91 25.0202 416.571 24.9355 416.174 24.9355C415.777 24.9355 415.438 25.0202 415.158 25.1895C414.885 25.3587 414.66 25.5931 414.484 25.8926C414.315 26.1855 414.191 26.5241 414.113 26.9082C414.035 27.2858 413.996 27.6895 413.996 28.1191ZM425.676 25.1895V33.5H422.863V22.9336H425.5L425.676 25.1895ZM425.266 27.8457H424.504C424.504 27.0645 424.605 26.3613 424.807 25.7363C425.008 25.1048 425.292 24.5677 425.656 24.125C426.021 23.6758 426.454 23.334 426.955 23.0996C427.463 22.8587 428.029 22.7383 428.654 22.7383C429.149 22.7383 429.602 22.8099 430.012 22.9531C430.422 23.0964 430.773 23.3242 431.066 23.6367C431.366 23.9492 431.594 24.3626 431.75 24.877C431.913 25.3913 431.994 26.0195 431.994 26.7617V33.5H429.162V26.752C429.162 26.2832 429.097 25.9186 428.967 25.6582C428.837 25.3978 428.645 25.2155 428.391 25.1113C428.143 25.0007 427.837 24.9453 427.473 24.9453C427.095 24.9453 426.766 25.0202 426.486 25.1699C426.213 25.3197 425.985 25.528 425.803 25.7949C425.627 26.0553 425.493 26.3613 425.402 26.7129C425.311 27.0645 425.266 27.4421 425.266 27.8457ZM442.082 22.9336V33.5H439.26V22.9336H442.082ZM439.084 20.1797C439.084 19.7695 439.227 19.431 439.514 19.1641C439.8 18.8971 440.184 18.7637 440.666 18.7637C441.141 18.7637 441.522 18.8971 441.809 19.1641C442.102 19.431 442.248 19.7695 442.248 20.1797C442.248 20.5898 442.102 20.9284 441.809 21.1953C441.522 21.4622 441.141 21.5957 440.666 21.5957C440.184 21.5957 439.8 21.4622 439.514 21.1953C439.227 20.9284 439.084 20.5898 439.084 20.1797ZM447.16 25.1895V33.5H444.348V22.9336H446.984L447.16 25.1895ZM446.75 27.8457H445.988C445.988 27.0645 446.089 26.3613 446.291 25.7363C446.493 25.1048 446.776 24.5677 447.141 24.125C447.505 23.6758 447.938 23.334 448.439 23.0996C448.947 22.8587 449.514 22.7383 450.139 22.7383C450.633 22.7383 451.086 22.8099 451.496 22.9531C451.906 23.0964 452.258 23.3242 452.551 23.6367C452.85 23.9492 453.078 24.3626 453.234 24.877C453.397 25.3913 453.479 26.0195 453.479 26.7617V33.5H450.646V26.752C450.646 26.2832 450.581 25.9186 450.451 25.6582C450.321 25.3978 450.129 25.2155 449.875 25.1113C449.628 25.0007 449.322 24.9453 448.957 24.9453C448.579 24.9453 448.251 25.0202 447.971 25.1699C447.697 25.3197 447.469 25.528 447.287 25.7949C447.111 26.0553 446.978 26.3613 446.887 26.7129C446.796 27.0645 446.75 27.4421 446.75 27.8457ZM469.016 28.7832H471.936C471.877 29.7402 471.613 30.5898 471.145 31.332C470.682 32.0742 470.035 32.6536 469.201 33.0703C468.374 33.487 467.378 33.6953 466.213 33.6953C465.301 33.6953 464.484 33.5391 463.762 33.2266C463.039 32.9076 462.421 32.4518 461.906 31.8594C461.398 31.2669 461.011 30.5508 460.744 29.7109C460.477 28.8711 460.344 27.9303 460.344 26.8887V25.9023C460.344 24.8607 460.48 23.9199 460.754 23.0801C461.034 22.2337 461.431 21.5143 461.945 20.9219C462.466 20.3294 463.088 19.8737 463.811 19.5547C464.533 19.2357 465.34 19.0762 466.232 19.0762C467.417 19.0762 468.417 19.291 469.23 19.7207C470.051 20.1504 470.686 20.7428 471.135 21.498C471.59 22.2533 471.864 23.1126 471.955 24.0762H469.025C468.993 23.5033 468.879 23.0182 468.684 22.6211C468.488 22.2174 468.192 21.9147 467.795 21.7129C467.404 21.5046 466.883 21.4004 466.232 21.4004C465.744 21.4004 465.318 21.4915 464.953 21.6738C464.589 21.8561 464.283 22.1328 464.035 22.5039C463.788 22.875 463.602 23.3438 463.479 23.9102C463.361 24.4701 463.303 25.1276 463.303 25.8828V26.8887C463.303 27.6243 463.358 28.2721 463.469 28.832C463.579 29.3854 463.749 29.8542 463.977 30.2383C464.211 30.6159 464.51 30.9023 464.875 31.0977C465.246 31.2865 465.692 31.3809 466.213 31.3809C466.825 31.3809 467.329 31.2832 467.727 31.0879C468.124 30.8926 468.426 30.6029 468.635 30.2188C468.85 29.8346 468.977 29.3561 469.016 28.7832ZM479.396 28.4316H475.773V26.1465H479.396C479.956 26.1465 480.412 26.0553 480.764 25.873C481.115 25.6842 481.372 25.4238 481.535 25.0918C481.698 24.7598 481.779 24.3854 481.779 23.9688C481.779 23.5456 481.698 23.1517 481.535 22.7871C481.372 22.4225 481.115 22.1296 480.764 21.9082C480.412 21.6868 479.956 21.5762 479.396 21.5762H476.789V33.5H473.859V19.2812H479.396C480.51 19.2812 481.464 19.4831 482.258 19.8867C483.059 20.2839 483.671 20.834 484.094 21.5371C484.517 22.2402 484.729 23.0443 484.729 23.9492C484.729 24.8672 484.517 25.6615 484.094 26.332C483.671 27.0026 483.059 27.5202 482.258 27.8848C481.464 28.2493 480.51 28.4316 479.396 28.4316ZM490.91 21.7129L487.043 33.5H483.928L489.211 19.2812H491.193L490.91 21.7129ZM494.123 33.5L490.246 21.7129L489.934 19.2812H491.936L497.248 33.5H494.123ZM493.947 28.207V30.502H486.438V28.207H493.947ZM506.477 19.2812V33.5H503.547V19.2812H506.477ZM512.141 25.3555V27.6406H505.676V25.3555H512.141ZM512.824 19.2812V21.5762H505.676V19.2812H512.824ZM517.316 22.9336V33.5H514.494V22.9336H517.316ZM514.318 20.1797C514.318 19.7695 514.462 19.431 514.748 19.1641C515.035 18.8971 515.419 18.7637 515.9 18.7637C516.376 18.7637 516.757 18.8971 517.043 19.1641C517.336 19.431 517.482 19.7695 517.482 20.1797C517.482 20.5898 517.336 20.9284 517.043 21.1953C516.757 21.4622 516.376 21.5957 515.9 21.5957C515.419 21.5957 515.035 21.4622 514.748 21.1953C514.462 20.9284 514.318 20.5898 514.318 20.1797ZM522.453 25.2383V33.5H519.641V22.9336H522.287L522.453 25.2383ZM525.637 22.8652L525.588 25.4727C525.451 25.4531 525.285 25.4368 525.09 25.4238C524.901 25.4043 524.729 25.3945 524.572 25.3945C524.175 25.3945 523.83 25.4466 523.537 25.5508C523.251 25.6484 523.01 25.7949 522.814 25.9902C522.626 26.1855 522.482 26.4232 522.385 26.7031C522.294 26.9831 522.242 27.3021 522.229 27.6602L521.662 27.4844C521.662 26.8008 521.73 26.1725 521.867 25.5996C522.004 25.0202 522.202 24.5156 522.463 24.0859C522.73 23.6562 523.055 23.3242 523.439 23.0898C523.824 22.8555 524.263 22.7383 524.758 22.7383C524.914 22.7383 525.074 22.7513 525.236 22.7773C525.399 22.7969 525.533 22.8262 525.637 22.8652ZM529.777 25.1211V33.5H526.955V22.9336H529.602L529.777 25.1211ZM529.387 27.8457H528.605C528.605 27.11 528.693 26.4329 528.869 25.8145C529.051 25.1895 529.315 24.6491 529.66 24.1934C530.012 23.7311 530.445 23.373 530.959 23.1191C531.473 22.8652 532.069 22.7383 532.746 22.7383C533.215 22.7383 533.645 22.8099 534.035 22.9531C534.426 23.0898 534.761 23.3079 535.041 23.6074C535.327 23.9004 535.549 24.2845 535.705 24.7598C535.861 25.2285 535.939 25.7917 535.939 26.4492V33.5H533.127V26.7617C533.127 26.2799 533.062 25.9089 532.932 25.6484C532.801 25.388 532.616 25.2057 532.375 25.1016C532.141 24.9974 531.857 24.9453 531.525 24.9453C531.161 24.9453 530.842 25.0202 530.568 25.1699C530.301 25.3197 530.08 25.528 529.904 25.7949C529.729 26.0553 529.598 26.3613 529.514 26.7129C529.429 27.0645 529.387 27.4421 529.387 27.8457ZM535.676 27.5234L534.67 27.6504C534.67 26.9603 534.755 26.319 534.924 25.7266C535.1 25.1341 535.357 24.6133 535.695 24.1641C536.04 23.7148 536.467 23.3665 536.975 23.1191C537.482 22.8652 538.068 22.7383 538.732 22.7383C539.24 22.7383 539.702 22.8132 540.119 22.9629C540.536 23.1061 540.891 23.3372 541.184 23.6562C541.483 23.9688 541.711 24.3789 541.867 24.8867C542.03 25.3945 542.111 26.0163 542.111 26.752V33.5H539.289V26.752C539.289 26.2637 539.224 25.8926 539.094 25.6387C538.97 25.3783 538.788 25.1992 538.547 25.1016C538.312 24.9974 538.033 24.9453 537.707 24.9453C537.368 24.9453 537.072 25.0137 536.818 25.1504C536.564 25.2806 536.353 25.4629 536.184 25.6973C536.014 25.9316 535.887 26.2051 535.803 26.5176C535.718 26.8236 535.676 27.1589 535.676 27.5234ZM550.002 30.5801C550.002 30.3783 549.943 30.196 549.826 30.0332C549.709 29.8704 549.491 29.7207 549.172 29.584C548.859 29.4408 548.407 29.3105 547.814 29.1934C547.281 29.0762 546.783 28.9297 546.32 28.7539C545.865 28.5716 545.467 28.3535 545.129 28.0996C544.797 27.8457 544.536 27.5462 544.348 27.2012C544.159 26.8496 544.064 26.4492 544.064 26C544.064 25.5573 544.159 25.1406 544.348 24.75C544.543 24.3594 544.82 24.0143 545.178 23.7148C545.542 23.4089 545.985 23.1712 546.506 23.002C547.033 22.8262 547.626 22.7383 548.283 22.7383C549.201 22.7383 549.989 22.8848 550.646 23.1777C551.311 23.4707 551.818 23.8743 552.17 24.3887C552.528 24.8965 552.707 25.4759 552.707 26.127H549.895C549.895 25.8535 549.836 25.6094 549.719 25.3945C549.608 25.1732 549.432 25.0007 549.191 24.877C548.957 24.7467 548.651 24.6816 548.273 24.6816C547.961 24.6816 547.691 24.737 547.463 24.8477C547.235 24.9518 547.059 25.0951 546.936 25.2773C546.818 25.4531 546.76 25.6484 546.76 25.8633C546.76 26.026 546.792 26.1725 546.857 26.3027C546.929 26.4264 547.043 26.5404 547.199 26.6445C547.355 26.7487 547.557 26.8464 547.805 26.9375C548.059 27.0221 548.371 27.1003 548.742 27.1719C549.504 27.3281 550.184 27.5332 550.783 27.7871C551.382 28.0345 551.857 28.373 552.209 28.8027C552.561 29.2259 552.736 29.7826 552.736 30.4727C552.736 30.9414 552.632 31.3711 552.424 31.7617C552.215 32.1523 551.916 32.4941 551.525 32.7871C551.135 33.0736 550.666 33.2982 550.119 33.4609C549.579 33.6172 548.97 33.6953 548.293 33.6953C547.31 33.6953 546.477 33.5195 545.793 33.168C545.116 32.8164 544.602 32.3704 544.25 31.8301C543.905 31.2832 543.732 30.7233 543.732 30.1504H546.398C546.411 30.5345 546.509 30.8438 546.691 31.0781C546.88 31.3125 547.118 31.4818 547.404 31.5859C547.697 31.6901 548.013 31.7422 548.352 31.7422C548.716 31.7422 549.019 31.6934 549.26 31.5957C549.501 31.4915 549.683 31.3548 549.807 31.1855C549.937 31.0098 550.002 30.8079 550.002 30.5801Z" fill="#00396D"/>
<path d="M44.8125 125.779C44.8125 125.525 44.7734 125.298 44.6953 125.096C44.6237 124.887 44.487 124.699 44.2852 124.529C44.0833 124.354 43.8001 124.181 43.4355 124.012C43.071 123.842 42.599 123.667 42.0195 123.484C41.375 123.276 40.763 123.042 40.1836 122.781C39.6107 122.521 39.1029 122.218 38.6602 121.873C38.224 121.521 37.8789 121.115 37.625 120.652C37.3776 120.19 37.2539 119.653 37.2539 119.041C37.2539 118.449 37.3841 117.911 37.6445 117.43C37.9049 116.941 38.2695 116.525 38.7383 116.18C39.207 115.828 39.7604 115.558 40.3984 115.369C41.043 115.18 41.7493 115.086 42.5176 115.086C43.5658 115.086 44.4805 115.275 45.2617 115.652C46.043 116.03 46.6484 116.548 47.0781 117.205C47.5143 117.863 47.7324 118.615 47.7324 119.461H44.8223C44.8223 119.044 44.7344 118.68 44.5586 118.367C44.3893 118.048 44.1289 117.798 43.7773 117.615C43.4323 117.433 42.9961 117.342 42.4688 117.342C41.9609 117.342 41.5378 117.42 41.1992 117.576C40.8607 117.726 40.6068 117.931 40.4375 118.191C40.2682 118.445 40.1836 118.732 40.1836 119.051C40.1836 119.292 40.2422 119.51 40.3594 119.705C40.4831 119.9 40.6654 120.083 40.9062 120.252C41.1471 120.421 41.4434 120.581 41.7949 120.73C42.1465 120.88 42.5534 121.027 43.0156 121.17C43.7904 121.404 44.4707 121.668 45.0566 121.961C45.6491 122.254 46.1439 122.583 46.541 122.947C46.9382 123.312 47.2376 123.725 47.4395 124.188C47.6413 124.65 47.7422 125.174 47.7422 125.76C47.7422 126.378 47.6217 126.932 47.3809 127.42C47.14 127.908 46.7917 128.322 46.3359 128.66C45.8802 128.999 45.3366 129.256 44.7051 129.432C44.0736 129.607 43.3672 129.695 42.5859 129.695C41.8828 129.695 41.1895 129.604 40.5059 129.422C39.8223 129.233 39.2005 128.95 38.6406 128.572C38.0872 128.195 37.6445 127.713 37.3125 127.127C36.9805 126.541 36.8145 125.848 36.8145 125.047H39.7539C39.7539 125.49 39.8223 125.864 39.959 126.17C40.0957 126.476 40.2878 126.723 40.5352 126.912C40.7891 127.101 41.0885 127.238 41.4336 127.322C41.7852 127.407 42.1693 127.449 42.5859 127.449C43.0938 127.449 43.5104 127.378 43.8359 127.234C44.168 127.091 44.4121 126.893 44.5684 126.639C44.7311 126.385 44.8125 126.098 44.8125 125.779ZM54.7344 118.934V120.926H48.582V118.934H54.7344ZM50.1055 116.326H52.918V126.316C52.918 126.622 52.957 126.857 53.0352 127.02C53.1198 127.182 53.2435 127.296 53.4062 127.361C53.569 127.42 53.7741 127.449 54.0215 127.449C54.1973 127.449 54.3535 127.443 54.4902 127.43C54.6335 127.41 54.7539 127.391 54.8516 127.371L54.8613 129.441C54.6204 129.52 54.36 129.581 54.0801 129.627C53.8001 129.673 53.4909 129.695 53.1523 129.695C52.5339 129.695 51.9935 129.594 51.5312 129.393C51.0755 129.184 50.724 128.852 50.4766 128.396C50.2292 127.941 50.1055 127.342 50.1055 126.6V116.326ZM59.1484 121.238V129.5H56.3359V118.934H58.9824L59.1484 121.238ZM62.332 118.865L62.2832 121.473C62.1465 121.453 61.9805 121.437 61.7852 121.424C61.5964 121.404 61.4238 121.395 61.2676 121.395C60.8704 121.395 60.5254 121.447 60.2324 121.551C59.946 121.648 59.7051 121.795 59.5098 121.99C59.321 122.186 59.1777 122.423 59.0801 122.703C58.9889 122.983 58.9368 123.302 58.9238 123.66L58.3574 123.484C58.3574 122.801 58.4258 122.173 58.5625 121.6C58.6992 121.02 58.8978 120.516 59.1582 120.086C59.4251 119.656 59.7507 119.324 60.1348 119.09C60.5189 118.855 60.9583 118.738 61.4531 118.738C61.6094 118.738 61.7689 118.751 61.9316 118.777C62.0944 118.797 62.2279 118.826 62.332 118.865ZM68.3281 129.695C67.5078 129.695 66.7721 129.565 66.1211 129.305C65.4701 129.038 64.9167 128.67 64.4609 128.201C64.0117 127.732 63.6667 127.189 63.4258 126.57C63.1849 125.945 63.0645 125.281 63.0645 124.578V124.188C63.0645 123.387 63.1784 122.654 63.4062 121.99C63.6341 121.326 63.9596 120.75 64.3828 120.262C64.8125 119.773 65.3333 119.399 65.9453 119.139C66.5573 118.872 67.2474 118.738 68.0156 118.738C68.7643 118.738 69.4284 118.862 70.0078 119.109C70.5872 119.357 71.0723 119.708 71.4629 120.164C71.86 120.62 72.1595 121.167 72.3613 121.805C72.5632 122.436 72.6641 123.139 72.6641 123.914V125.086H64.2656V123.211H69.9004V122.996C69.9004 122.605 69.8288 122.257 69.6855 121.951C69.5488 121.639 69.3405 121.391 69.0605 121.209C68.7806 121.027 68.4225 120.936 67.9863 120.936C67.6152 120.936 67.2962 121.017 67.0293 121.18C66.7624 121.342 66.5443 121.57 66.375 121.863C66.2122 122.156 66.0885 122.501 66.0039 122.898C65.9258 123.289 65.8867 123.719 65.8867 124.188V124.578C65.8867 125.001 65.9453 125.392 66.0625 125.75C66.1862 126.108 66.3587 126.417 66.5801 126.678C66.8079 126.938 67.0814 127.14 67.4004 127.283C67.7259 127.426 68.0938 127.498 68.5039 127.498C69.0117 127.498 69.4837 127.4 69.9199 127.205C70.3626 127.003 70.7435 126.701 71.0625 126.297L72.4297 127.781C72.2083 128.1 71.9056 128.406 71.5215 128.699C71.1439 128.992 70.6882 129.233 70.1543 129.422C69.6204 129.604 69.0117 129.695 68.3281 129.695ZM79.9688 127.117V122.41C79.9688 122.072 79.9134 121.782 79.8027 121.541C79.6921 121.294 79.5195 121.102 79.2852 120.965C79.0573 120.828 78.7611 120.76 78.3965 120.76C78.084 120.76 77.8138 120.815 77.5859 120.926C77.3581 121.03 77.1823 121.183 77.0586 121.385C76.9349 121.58 76.873 121.811 76.873 122.078H74.0605C74.0605 121.629 74.1647 121.202 74.373 120.799C74.5814 120.395 74.8841 120.04 75.2812 119.734C75.6784 119.422 76.1504 119.178 76.6973 119.002C77.2507 118.826 77.8691 118.738 78.5527 118.738C79.373 118.738 80.1022 118.875 80.7402 119.148C81.3783 119.422 81.8796 119.832 82.2441 120.379C82.6152 120.926 82.8008 121.609 82.8008 122.43V126.951C82.8008 127.531 82.8366 128.006 82.9082 128.377C82.9798 128.742 83.084 129.061 83.2207 129.334V129.5H80.3789C80.2422 129.214 80.138 128.855 80.0664 128.426C80.0013 127.99 79.9688 127.553 79.9688 127.117ZM80.3398 123.064L80.3594 124.656H78.7871C78.416 124.656 78.0938 124.699 77.8203 124.783C77.5469 124.868 77.3223 124.988 77.1465 125.145C76.9707 125.294 76.8405 125.47 76.7559 125.672C76.6777 125.874 76.6387 126.095 76.6387 126.336C76.6387 126.577 76.694 126.795 76.8047 126.99C76.9154 127.179 77.0749 127.329 77.2832 127.439C77.4915 127.544 77.7357 127.596 78.0156 127.596C78.4388 127.596 78.8066 127.511 79.1191 127.342C79.4316 127.173 79.6725 126.964 79.8418 126.717C80.0176 126.469 80.1087 126.235 80.1152 126.014L80.8574 127.205C80.7533 127.472 80.61 127.749 80.4277 128.035C80.252 128.322 80.0273 128.592 79.7539 128.846C79.4805 129.093 79.1517 129.298 78.7676 129.461C78.3835 129.617 77.9277 129.695 77.4004 129.695C76.7298 129.695 76.1211 129.562 75.5742 129.295C75.0339 129.021 74.6042 128.647 74.2852 128.172C73.9727 127.69 73.8164 127.143 73.8164 126.531C73.8164 125.978 73.9206 125.486 74.1289 125.057C74.3372 124.627 74.6432 124.266 75.0469 123.973C75.457 123.673 75.9681 123.449 76.5801 123.299C77.1921 123.143 77.9017 123.064 78.709 123.064H80.3398ZM87.7812 121.121V129.5H84.959V118.934H87.6055L87.7812 121.121ZM87.3906 123.846H86.6094C86.6094 123.11 86.6973 122.433 86.873 121.814C87.0553 121.189 87.319 120.649 87.6641 120.193C88.0156 119.731 88.4486 119.373 88.9629 119.119C89.4772 118.865 90.0729 118.738 90.75 118.738C91.2188 118.738 91.6484 118.81 92.0391 118.953C92.4297 119.09 92.765 119.308 93.0449 119.607C93.3314 119.9 93.5527 120.285 93.709 120.76C93.8652 121.229 93.9434 121.792 93.9434 122.449V129.5H91.1309V122.762C91.1309 122.28 91.0658 121.909 90.9355 121.648C90.8053 121.388 90.6198 121.206 90.3789 121.102C90.1445 120.997 89.8613 120.945 89.5293 120.945C89.1647 120.945 88.8457 121.02 88.5723 121.17C88.3053 121.32 88.084 121.528 87.9082 121.795C87.7324 122.055 87.6022 122.361 87.5176 122.713C87.4329 123.064 87.3906 123.442 87.3906 123.846ZM93.6797 123.523L92.6738 123.65C92.6738 122.96 92.7585 122.319 92.9277 121.727C93.1035 121.134 93.3607 120.613 93.6992 120.164C94.0443 119.715 94.4707 119.367 94.9785 119.119C95.4863 118.865 96.0723 118.738 96.7363 118.738C97.2441 118.738 97.7064 118.813 98.123 118.963C98.5397 119.106 98.8945 119.337 99.1875 119.656C99.487 119.969 99.7148 120.379 99.8711 120.887C100.034 121.395 100.115 122.016 100.115 122.752V129.5H97.293V122.752C97.293 122.264 97.2279 121.893 97.0977 121.639C96.974 121.378 96.7917 121.199 96.5508 121.102C96.3164 120.997 96.0365 120.945 95.7109 120.945C95.3724 120.945 95.0762 121.014 94.8223 121.15C94.5684 121.281 94.3568 121.463 94.1875 121.697C94.0182 121.932 93.8913 122.205 93.8066 122.518C93.722 122.824 93.6797 123.159 93.6797 123.523ZM105.262 114.5V129.5H102.439V114.5H105.262ZM110.555 118.934V129.5H107.732V118.934H110.555ZM107.557 116.18C107.557 115.77 107.7 115.431 107.986 115.164C108.273 114.897 108.657 114.764 109.139 114.764C109.614 114.764 109.995 114.897 110.281 115.164C110.574 115.431 110.721 115.77 110.721 116.18C110.721 116.59 110.574 116.928 110.281 117.195C109.995 117.462 109.614 117.596 109.139 117.596C108.657 117.596 108.273 117.462 107.986 117.195C107.7 116.928 107.557 116.59 107.557 116.18ZM115.633 121.189V129.5H112.82V118.934H115.457L115.633 121.189ZM115.223 123.846H114.461C114.461 123.064 114.562 122.361 114.764 121.736C114.965 121.105 115.249 120.568 115.613 120.125C115.978 119.676 116.411 119.334 116.912 119.1C117.42 118.859 117.986 118.738 118.611 118.738C119.106 118.738 119.559 118.81 119.969 118.953C120.379 119.096 120.73 119.324 121.023 119.637C121.323 119.949 121.551 120.363 121.707 120.877C121.87 121.391 121.951 122.02 121.951 122.762V129.5H119.119V122.752C119.119 122.283 119.054 121.919 118.924 121.658C118.794 121.398 118.602 121.215 118.348 121.111C118.1 121.001 117.794 120.945 117.43 120.945C117.052 120.945 116.723 121.02 116.443 121.17C116.17 121.32 115.942 121.528 115.76 121.795C115.584 122.055 115.451 122.361 115.359 122.713C115.268 123.064 115.223 123.442 115.223 123.846ZM127.059 118.934V129.5H124.236V118.934H127.059ZM124.061 116.18C124.061 115.77 124.204 115.431 124.49 115.164C124.777 114.897 125.161 114.764 125.643 114.764C126.118 114.764 126.499 114.897 126.785 115.164C127.078 115.431 127.225 115.77 127.225 116.18C127.225 116.59 127.078 116.928 126.785 117.195C126.499 117.462 126.118 117.596 125.643 117.596C125.161 117.596 124.777 117.462 124.49 117.195C124.204 116.928 124.061 116.59 124.061 116.18ZM132.137 121.189V129.5H129.324V118.934H131.961L132.137 121.189ZM131.727 123.846H130.965C130.965 123.064 131.066 122.361 131.268 121.736C131.469 121.105 131.753 120.568 132.117 120.125C132.482 119.676 132.915 119.334 133.416 119.1C133.924 118.859 134.49 118.738 135.115 118.738C135.61 118.738 136.062 118.81 136.473 118.953C136.883 119.096 137.234 119.324 137.527 119.637C137.827 119.949 138.055 120.363 138.211 120.877C138.374 121.391 138.455 122.02 138.455 122.762V129.5H135.623V122.752C135.623 122.283 135.558 121.919 135.428 121.658C135.298 121.398 135.105 121.215 134.852 121.111C134.604 121.001 134.298 120.945 133.934 120.945C133.556 120.945 133.227 121.02 132.947 121.17C132.674 121.32 132.446 121.528 132.264 121.795C132.088 122.055 131.954 122.361 131.863 122.713C131.772 123.064 131.727 123.442 131.727 123.846ZM147.283 118.934H149.832V129.148C149.832 130.112 149.617 130.929 149.188 131.6C148.764 132.277 148.172 132.788 147.41 133.133C146.648 133.484 145.763 133.66 144.754 133.66C144.311 133.66 143.842 133.602 143.348 133.484C142.859 133.367 142.391 133.185 141.941 132.938C141.499 132.69 141.128 132.378 140.828 132L142.068 130.34C142.394 130.717 142.771 131.01 143.201 131.219C143.631 131.434 144.106 131.541 144.627 131.541C145.135 131.541 145.564 131.447 145.916 131.258C146.268 131.076 146.538 130.805 146.727 130.447C146.915 130.096 147.01 129.669 147.01 129.168V121.375L147.283 118.934ZM140.174 124.344V124.139C140.174 123.331 140.271 122.599 140.467 121.941C140.669 121.277 140.952 120.708 141.316 120.232C141.688 119.757 142.137 119.389 142.664 119.129C143.191 118.868 143.787 118.738 144.451 118.738C145.154 118.738 145.743 118.868 146.219 119.129C146.694 119.389 147.085 119.76 147.391 120.242C147.697 120.717 147.934 121.281 148.104 121.932C148.279 122.576 148.416 123.283 148.514 124.051V124.5C148.416 125.236 148.27 125.919 148.074 126.551C147.879 127.182 147.622 127.736 147.303 128.211C146.984 128.68 146.587 129.044 146.111 129.305C145.643 129.565 145.083 129.695 144.432 129.695C143.781 129.695 143.191 129.562 142.664 129.295C142.143 129.028 141.697 128.654 141.326 128.172C140.955 127.69 140.669 127.124 140.467 126.473C140.271 125.822 140.174 125.112 140.174 124.344ZM142.986 124.139V124.344C142.986 124.78 143.029 125.187 143.113 125.564C143.198 125.942 143.328 126.277 143.504 126.57C143.686 126.857 143.911 127.081 144.178 127.244C144.451 127.4 144.773 127.479 145.145 127.479C145.659 127.479 146.079 127.371 146.404 127.156C146.73 126.935 146.974 126.632 147.137 126.248C147.299 125.864 147.394 125.421 147.42 124.92V123.641C147.407 123.23 147.352 122.863 147.254 122.537C147.156 122.205 147.02 121.922 146.844 121.688C146.668 121.453 146.44 121.271 146.16 121.141C145.88 121.01 145.548 120.945 145.164 120.945C144.793 120.945 144.471 121.03 144.197 121.199C143.93 121.362 143.706 121.587 143.523 121.873C143.348 122.16 143.214 122.498 143.123 122.889C143.032 123.273 142.986 123.689 142.986 124.139Z" fill="#1AC6FF"/>
<path d="M59.3008 139.281H64.6035C65.6908 139.281 66.625 139.444 67.4062 139.77C68.194 140.095 68.7995 140.577 69.2227 141.215C69.6458 141.853 69.8574 142.637 69.8574 143.568C69.8574 144.33 69.7272 144.984 69.4668 145.531C69.2129 146.072 68.8516 146.524 68.3828 146.889C67.9206 147.247 67.377 147.533 66.752 147.748L65.8242 148.236H61.2148L61.1953 145.951H64.623C65.1374 145.951 65.5638 145.86 65.9023 145.678C66.2409 145.495 66.4948 145.242 66.6641 144.916C66.8398 144.59 66.9277 144.213 66.9277 143.783C66.9277 143.327 66.8431 142.934 66.6738 142.602C66.5046 142.27 66.2474 142.016 65.9023 141.84C65.5573 141.664 65.1243 141.576 64.6035 141.576H62.2305V153.5H59.3008V139.281ZM67.25 153.5L64.0078 147.162L67.1035 147.143L70.3848 153.363V153.5H67.25ZM76.8008 153.695C75.9805 153.695 75.2448 153.565 74.5938 153.305C73.9427 153.038 73.3893 152.67 72.9336 152.201C72.4844 151.732 72.1393 151.189 71.8984 150.57C71.6576 149.945 71.5371 149.281 71.5371 148.578V148.188C71.5371 147.387 71.651 146.654 71.8789 145.99C72.1068 145.326 72.4323 144.75 72.8555 144.262C73.2852 143.773 73.806 143.399 74.418 143.139C75.0299 142.872 75.7201 142.738 76.4883 142.738C77.237 142.738 77.901 142.862 78.4805 143.109C79.0599 143.357 79.5449 143.708 79.9355 144.164C80.3327 144.62 80.6322 145.167 80.834 145.805C81.0358 146.436 81.1367 147.139 81.1367 147.914V149.086H72.7383V147.211H78.373V146.996C78.373 146.605 78.3014 146.257 78.1582 145.951C78.0215 145.639 77.8132 145.391 77.5332 145.209C77.2533 145.027 76.8952 144.936 76.459 144.936C76.0879 144.936 75.7689 145.017 75.502 145.18C75.235 145.342 75.0169 145.57 74.8477 145.863C74.6849 146.156 74.5612 146.501 74.4766 146.898C74.3984 147.289 74.3594 147.719 74.3594 148.188V148.578C74.3594 149.001 74.418 149.392 74.5352 149.75C74.6589 150.108 74.8314 150.417 75.0527 150.678C75.2806 150.938 75.554 151.14 75.873 151.283C76.1986 151.426 76.5664 151.498 76.9766 151.498C77.4844 151.498 77.9564 151.4 78.3926 151.205C78.8353 151.003 79.2161 150.701 79.5352 150.297L80.9023 151.781C80.681 152.1 80.3783 152.406 79.9941 152.699C79.6165 152.992 79.1608 153.233 78.627 153.422C78.0931 153.604 77.4844 153.695 76.8008 153.695ZM85.5508 144.965V157.562H82.7383V142.934H85.3457L85.5508 144.965ZM92.2402 148.1V148.305C92.2402 149.073 92.1491 149.786 91.9668 150.443C91.791 151.101 91.5306 151.674 91.1855 152.162C90.8405 152.644 90.4108 153.021 89.8965 153.295C89.3887 153.562 88.8027 153.695 88.1387 153.695C87.4941 153.695 86.9342 153.565 86.459 153.305C85.9837 153.044 85.5833 152.68 85.2578 152.211C84.9388 151.736 84.6816 151.186 84.4863 150.561C84.291 149.936 84.1413 149.265 84.0371 148.549V148.012C84.1413 147.243 84.291 146.54 84.4863 145.902C84.6816 145.258 84.9388 144.701 85.2578 144.232C85.5833 143.757 85.9805 143.389 86.4492 143.129C86.9245 142.868 87.4811 142.738 88.1191 142.738C88.7897 142.738 89.3789 142.865 89.8867 143.119C90.401 143.373 90.8307 143.738 91.1758 144.213C91.5273 144.688 91.791 145.255 91.9668 145.912C92.1491 146.57 92.2402 147.299 92.2402 148.1ZM89.418 148.305V148.1C89.418 147.65 89.3789 147.237 89.3008 146.859C89.2292 146.475 89.112 146.14 88.9492 145.854C88.793 145.567 88.5846 145.346 88.3242 145.189C88.0703 145.027 87.7611 144.945 87.3965 144.945C87.0124 144.945 86.6836 145.007 86.4102 145.131C86.1432 145.255 85.9251 145.434 85.7559 145.668C85.5866 145.902 85.4596 146.182 85.375 146.508C85.2904 146.833 85.2383 147.201 85.2188 147.611V148.969C85.2513 149.451 85.3424 149.883 85.4922 150.268C85.6419 150.645 85.873 150.945 86.1855 151.166C86.498 151.387 86.9082 151.498 87.416 151.498C87.7871 151.498 88.0996 151.417 88.3535 151.254C88.6074 151.085 88.8125 150.854 88.9688 150.561C89.1315 150.268 89.2454 149.929 89.3105 149.545C89.3822 149.161 89.418 148.747 89.418 148.305ZM93.5391 148.324V148.119C93.5391 147.344 93.6497 146.632 93.8711 145.98C94.0924 145.323 94.4147 144.753 94.8379 144.271C95.2611 143.79 95.7819 143.415 96.4004 143.148C97.0189 142.875 97.7285 142.738 98.5293 142.738C99.3301 142.738 100.043 142.875 100.668 143.148C101.293 143.415 101.817 143.79 102.24 144.271C102.67 144.753 102.995 145.323 103.217 145.98C103.438 146.632 103.549 147.344 103.549 148.119V148.324C103.549 149.092 103.438 149.805 103.217 150.463C102.995 151.114 102.67 151.684 102.24 152.172C101.817 152.654 101.296 153.028 100.678 153.295C100.059 153.562 99.3496 153.695 98.5488 153.695C97.748 153.695 97.0352 153.562 96.4102 153.295C95.7917 153.028 95.2676 152.654 94.8379 152.172C94.4147 151.684 94.0924 151.114 93.8711 150.463C93.6497 149.805 93.5391 149.092 93.5391 148.324ZM96.3516 148.119V148.324C96.3516 148.767 96.3906 149.18 96.4688 149.564C96.5469 149.949 96.6706 150.287 96.8398 150.58C97.0156 150.867 97.2435 151.091 97.5234 151.254C97.8034 151.417 98.1452 151.498 98.5488 151.498C98.9395 151.498 99.2747 151.417 99.5547 151.254C99.8346 151.091 100.059 150.867 100.229 150.58C100.398 150.287 100.521 149.949 100.6 149.564C100.684 149.18 100.727 148.767 100.727 148.324V148.119C100.727 147.689 100.684 147.286 100.6 146.908C100.521 146.524 100.395 146.186 100.219 145.893C100.049 145.593 99.8249 145.359 99.5449 145.189C99.265 145.02 98.9264 144.936 98.5293 144.936C98.1322 144.936 97.7936 145.02 97.5137 145.189C97.2402 145.359 97.0156 145.593 96.8398 145.893C96.6706 146.186 96.5469 146.524 96.4688 146.908C96.3906 147.286 96.3516 147.689 96.3516 148.119ZM108.09 145.238V153.5H105.277V142.934H107.924L108.09 145.238ZM111.273 142.865L111.225 145.473C111.088 145.453 110.922 145.437 110.727 145.424C110.538 145.404 110.365 145.395 110.209 145.395C109.812 145.395 109.467 145.447 109.174 145.551C108.887 145.648 108.646 145.795 108.451 145.99C108.262 146.186 108.119 146.423 108.021 146.703C107.93 146.983 107.878 147.302 107.865 147.66L107.299 147.484C107.299 146.801 107.367 146.173 107.504 145.6C107.641 145.02 107.839 144.516 108.1 144.086C108.367 143.656 108.692 143.324 109.076 143.09C109.46 142.855 109.9 142.738 110.395 142.738C110.551 142.738 110.71 142.751 110.873 142.777C111.036 142.797 111.169 142.826 111.273 142.865ZM118.266 142.934V144.926H112.113V142.934H118.266ZM113.637 140.326H116.449V150.316C116.449 150.622 116.488 150.857 116.566 151.02C116.651 151.182 116.775 151.296 116.938 151.361C117.1 151.42 117.305 151.449 117.553 151.449C117.729 151.449 117.885 151.443 118.021 151.43C118.165 151.41 118.285 151.391 118.383 151.371L118.393 153.441C118.152 153.52 117.891 153.581 117.611 153.627C117.331 153.673 117.022 153.695 116.684 153.695C116.065 153.695 115.525 153.594 115.062 153.393C114.607 153.184 114.255 152.852 114.008 152.396C113.76 151.941 113.637 151.342 113.637 150.6V140.326ZM125.58 150.58C125.58 150.378 125.521 150.196 125.404 150.033C125.287 149.87 125.069 149.721 124.75 149.584C124.438 149.441 123.985 149.311 123.393 149.193C122.859 149.076 122.361 148.93 121.898 148.754C121.443 148.572 121.046 148.354 120.707 148.1C120.375 147.846 120.115 147.546 119.926 147.201C119.737 146.85 119.643 146.449 119.643 146C119.643 145.557 119.737 145.141 119.926 144.75C120.121 144.359 120.398 144.014 120.756 143.715C121.12 143.409 121.563 143.171 122.084 143.002C122.611 142.826 123.204 142.738 123.861 142.738C124.779 142.738 125.567 142.885 126.225 143.178C126.889 143.471 127.396 143.874 127.748 144.389C128.106 144.896 128.285 145.476 128.285 146.127H125.473C125.473 145.854 125.414 145.609 125.297 145.395C125.186 145.173 125.01 145.001 124.77 144.877C124.535 144.747 124.229 144.682 123.852 144.682C123.539 144.682 123.269 144.737 123.041 144.848C122.813 144.952 122.637 145.095 122.514 145.277C122.396 145.453 122.338 145.648 122.338 145.863C122.338 146.026 122.37 146.173 122.436 146.303C122.507 146.426 122.621 146.54 122.777 146.645C122.934 146.749 123.135 146.846 123.383 146.938C123.637 147.022 123.949 147.1 124.32 147.172C125.082 147.328 125.762 147.533 126.361 147.787C126.96 148.035 127.436 148.373 127.787 148.803C128.139 149.226 128.314 149.783 128.314 150.473C128.314 150.941 128.21 151.371 128.002 151.762C127.794 152.152 127.494 152.494 127.104 152.787C126.713 153.074 126.244 153.298 125.697 153.461C125.157 153.617 124.548 153.695 123.871 153.695C122.888 153.695 122.055 153.52 121.371 153.168C120.694 152.816 120.18 152.37 119.828 151.83C119.483 151.283 119.311 150.723 119.311 150.15H121.977C121.99 150.535 122.087 150.844 122.27 151.078C122.458 151.312 122.696 151.482 122.982 151.586C123.275 151.69 123.591 151.742 123.93 151.742C124.294 151.742 124.597 151.693 124.838 151.596C125.079 151.492 125.261 151.355 125.385 151.186C125.515 151.01 125.58 150.808 125.58 150.58Z" fill="#1AC6FF"/>
<path d="M621.98 129.713L618.113 141.5H614.998L620.281 127.281H622.264L621.98 129.713ZM625.193 141.5L621.316 129.713L621.004 127.281H623.006L628.318 141.5H625.193ZM625.018 136.207V138.502H617.508V136.207H625.018ZM635.594 138.971V130.934H638.406V141.5H635.76L635.594 138.971ZM635.906 136.803L636.736 136.783C636.736 137.486 636.655 138.141 636.492 138.746C636.329 139.345 636.085 139.866 635.76 140.309C635.434 140.745 635.024 141.087 634.529 141.334C634.035 141.575 633.452 141.695 632.781 141.695C632.267 141.695 631.792 141.624 631.355 141.48C630.926 141.331 630.555 141.1 630.242 140.787C629.936 140.468 629.695 140.061 629.52 139.566C629.35 139.065 629.266 138.463 629.266 137.76V130.934H632.078V137.779C632.078 138.092 632.114 138.355 632.186 138.57C632.264 138.785 632.371 138.961 632.508 139.098C632.645 139.234 632.804 139.332 632.986 139.391C633.175 139.449 633.383 139.479 633.611 139.479C634.191 139.479 634.646 139.361 634.979 139.127C635.317 138.893 635.555 138.574 635.691 138.17C635.835 137.76 635.906 137.304 635.906 136.803ZM645.73 130.934V132.926H639.578V130.934H645.73ZM641.102 128.326H643.914V138.316C643.914 138.622 643.953 138.857 644.031 139.02C644.116 139.182 644.24 139.296 644.402 139.361C644.565 139.42 644.77 139.449 645.018 139.449C645.193 139.449 645.35 139.443 645.486 139.43C645.63 139.41 645.75 139.391 645.848 139.371L645.857 141.441C645.617 141.52 645.356 141.581 645.076 141.627C644.796 141.673 644.487 141.695 644.148 141.695C643.53 141.695 642.99 141.594 642.527 141.393C642.072 141.184 641.72 140.852 641.473 140.396C641.225 139.941 641.102 139.342 641.102 138.6V128.326ZM646.629 136.324V136.119C646.629 135.344 646.74 134.632 646.961 133.98C647.182 133.323 647.505 132.753 647.928 132.271C648.351 131.79 648.872 131.415 649.49 131.148C650.109 130.875 650.818 130.738 651.619 130.738C652.42 130.738 653.133 130.875 653.758 131.148C654.383 131.415 654.907 131.79 655.33 132.271C655.76 132.753 656.085 133.323 656.307 133.98C656.528 134.632 656.639 135.344 656.639 136.119V136.324C656.639 137.092 656.528 137.805 656.307 138.463C656.085 139.114 655.76 139.684 655.33 140.172C654.907 140.654 654.386 141.028 653.768 141.295C653.149 141.562 652.439 141.695 651.639 141.695C650.838 141.695 650.125 141.562 649.5 141.295C648.882 141.028 648.357 140.654 647.928 140.172C647.505 139.684 647.182 139.114 646.961 138.463C646.74 137.805 646.629 137.092 646.629 136.324ZM649.441 136.119V136.324C649.441 136.767 649.48 137.18 649.559 137.564C649.637 137.949 649.76 138.287 649.93 138.58C650.105 138.867 650.333 139.091 650.613 139.254C650.893 139.417 651.235 139.498 651.639 139.498C652.029 139.498 652.365 139.417 652.645 139.254C652.924 139.091 653.149 138.867 653.318 138.58C653.488 138.287 653.611 137.949 653.689 137.564C653.774 137.18 653.816 136.767 653.816 136.324V136.119C653.816 135.689 653.774 135.286 653.689 134.908C653.611 134.524 653.484 134.186 653.309 133.893C653.139 133.593 652.915 133.359 652.635 133.189C652.355 133.02 652.016 132.936 651.619 132.936C651.222 132.936 650.883 133.02 650.604 133.189C650.33 133.359 650.105 133.593 649.93 133.893C649.76 134.186 649.637 134.524 649.559 134.908C649.48 135.286 649.441 135.689 649.441 136.119ZM661.18 133.121V141.5H658.357V130.934H661.004L661.18 133.121ZM660.789 135.846H660.008C660.008 135.11 660.096 134.433 660.271 133.814C660.454 133.189 660.717 132.649 661.062 132.193C661.414 131.731 661.847 131.373 662.361 131.119C662.876 130.865 663.471 130.738 664.148 130.738C664.617 130.738 665.047 130.81 665.438 130.953C665.828 131.09 666.163 131.308 666.443 131.607C666.73 131.9 666.951 132.285 667.107 132.76C667.264 133.229 667.342 133.792 667.342 134.449V141.5H664.529V134.762C664.529 134.28 664.464 133.909 664.334 133.648C664.204 133.388 664.018 133.206 663.777 133.102C663.543 132.997 663.26 132.945 662.928 132.945C662.563 132.945 662.244 133.02 661.971 133.17C661.704 133.32 661.482 133.528 661.307 133.795C661.131 134.055 661.001 134.361 660.916 134.713C660.831 135.064 660.789 135.442 660.789 135.846ZM667.078 135.523L666.072 135.65C666.072 134.96 666.157 134.319 666.326 133.727C666.502 133.134 666.759 132.613 667.098 132.164C667.443 131.715 667.869 131.367 668.377 131.119C668.885 130.865 669.471 130.738 670.135 130.738C670.643 130.738 671.105 130.813 671.521 130.963C671.938 131.106 672.293 131.337 672.586 131.656C672.885 131.969 673.113 132.379 673.27 132.887C673.432 133.395 673.514 134.016 673.514 134.752V141.5H670.691V134.752C670.691 134.264 670.626 133.893 670.496 133.639C670.372 133.378 670.19 133.199 669.949 133.102C669.715 132.997 669.435 132.945 669.109 132.945C668.771 132.945 668.475 133.014 668.221 133.15C667.967 133.281 667.755 133.463 667.586 133.697C667.417 133.932 667.29 134.205 667.205 134.518C667.12 134.824 667.078 135.159 667.078 135.523ZM681.395 139.117V134.41C681.395 134.072 681.339 133.782 681.229 133.541C681.118 133.294 680.945 133.102 680.711 132.965C680.483 132.828 680.187 132.76 679.822 132.76C679.51 132.76 679.24 132.815 679.012 132.926C678.784 133.03 678.608 133.183 678.484 133.385C678.361 133.58 678.299 133.811 678.299 134.078H675.486C675.486 133.629 675.59 133.202 675.799 132.799C676.007 132.395 676.31 132.04 676.707 131.734C677.104 131.422 677.576 131.178 678.123 131.002C678.676 130.826 679.295 130.738 679.979 130.738C680.799 130.738 681.528 130.875 682.166 131.148C682.804 131.422 683.305 131.832 683.67 132.379C684.041 132.926 684.227 133.609 684.227 134.43V138.951C684.227 139.531 684.262 140.006 684.334 140.377C684.406 140.742 684.51 141.061 684.646 141.334V141.5H681.805C681.668 141.214 681.564 140.855 681.492 140.426C681.427 139.99 681.395 139.553 681.395 139.117ZM681.766 135.064L681.785 136.656H680.213C679.842 136.656 679.52 136.699 679.246 136.783C678.973 136.868 678.748 136.988 678.572 137.145C678.396 137.294 678.266 137.47 678.182 137.672C678.104 137.874 678.064 138.095 678.064 138.336C678.064 138.577 678.12 138.795 678.23 138.99C678.341 139.179 678.501 139.329 678.709 139.439C678.917 139.544 679.161 139.596 679.441 139.596C679.865 139.596 680.232 139.511 680.545 139.342C680.857 139.173 681.098 138.964 681.268 138.717C681.443 138.469 681.535 138.235 681.541 138.014L682.283 139.205C682.179 139.472 682.036 139.749 681.854 140.035C681.678 140.322 681.453 140.592 681.18 140.846C680.906 141.093 680.577 141.298 680.193 141.461C679.809 141.617 679.354 141.695 678.826 141.695C678.156 141.695 677.547 141.562 677 141.295C676.46 141.021 676.03 140.647 675.711 140.172C675.398 139.69 675.242 139.143 675.242 138.531C675.242 137.978 675.346 137.486 675.555 137.057C675.763 136.627 676.069 136.266 676.473 135.973C676.883 135.673 677.394 135.449 678.006 135.299C678.618 135.143 679.327 135.064 680.135 135.064H681.766ZM691.57 130.934V132.926H685.418V130.934H691.57ZM686.941 128.326H689.754V138.316C689.754 138.622 689.793 138.857 689.871 139.02C689.956 139.182 690.079 139.296 690.242 139.361C690.405 139.42 690.61 139.449 690.857 139.449C691.033 139.449 691.189 139.443 691.326 139.43C691.469 139.41 691.59 139.391 691.688 139.371L691.697 141.441C691.456 141.52 691.196 141.581 690.916 141.627C690.636 141.673 690.327 141.695 689.988 141.695C689.37 141.695 688.829 141.594 688.367 141.393C687.911 141.184 687.56 140.852 687.312 140.396C687.065 139.941 686.941 139.342 686.941 138.6V128.326ZM696.141 130.934V141.5H693.318V130.934H696.141ZM693.143 128.18C693.143 127.77 693.286 127.431 693.572 127.164C693.859 126.897 694.243 126.764 694.725 126.764C695.2 126.764 695.581 126.897 695.867 127.164C696.16 127.431 696.307 127.77 696.307 128.18C696.307 128.59 696.16 128.928 695.867 129.195C695.581 129.462 695.2 129.596 694.725 129.596C694.243 129.596 693.859 129.462 693.572 129.195C693.286 128.928 693.143 128.59 693.143 128.18ZM701.219 133.189V141.5H698.406V130.934H701.043L701.219 133.189ZM700.809 135.846H700.047C700.047 135.064 700.148 134.361 700.35 133.736C700.551 133.105 700.835 132.568 701.199 132.125C701.564 131.676 701.997 131.334 702.498 131.1C703.006 130.859 703.572 130.738 704.197 130.738C704.692 130.738 705.145 130.81 705.555 130.953C705.965 131.096 706.316 131.324 706.609 131.637C706.909 131.949 707.137 132.363 707.293 132.877C707.456 133.391 707.537 134.02 707.537 134.762V141.5H704.705V134.752C704.705 134.283 704.64 133.919 704.51 133.658C704.38 133.398 704.188 133.215 703.934 133.111C703.686 133.001 703.38 132.945 703.016 132.945C702.638 132.945 702.309 133.02 702.029 133.17C701.756 133.32 701.528 133.528 701.346 133.795C701.17 134.055 701.036 134.361 700.945 134.713C700.854 135.064 700.809 135.442 700.809 135.846ZM716.365 130.934H718.914V141.148C718.914 142.112 718.699 142.929 718.27 143.6C717.846 144.277 717.254 144.788 716.492 145.133C715.73 145.484 714.845 145.66 713.836 145.66C713.393 145.66 712.924 145.602 712.43 145.484C711.941 145.367 711.473 145.185 711.023 144.938C710.581 144.69 710.21 144.378 709.91 144L711.15 142.34C711.476 142.717 711.854 143.01 712.283 143.219C712.713 143.434 713.188 143.541 713.709 143.541C714.217 143.541 714.646 143.447 714.998 143.258C715.35 143.076 715.62 142.805 715.809 142.447C715.997 142.096 716.092 141.669 716.092 141.168V133.375L716.365 130.934ZM709.256 136.344V136.139C709.256 135.331 709.354 134.599 709.549 133.941C709.751 133.277 710.034 132.708 710.398 132.232C710.77 131.757 711.219 131.389 711.746 131.129C712.273 130.868 712.869 130.738 713.533 130.738C714.236 130.738 714.826 130.868 715.301 131.129C715.776 131.389 716.167 131.76 716.473 132.242C716.779 132.717 717.016 133.281 717.186 133.932C717.361 134.576 717.498 135.283 717.596 136.051V136.5C717.498 137.236 717.352 137.919 717.156 138.551C716.961 139.182 716.704 139.736 716.385 140.211C716.066 140.68 715.669 141.044 715.193 141.305C714.725 141.565 714.165 141.695 713.514 141.695C712.863 141.695 712.273 141.562 711.746 141.295C711.225 141.028 710.779 140.654 710.408 140.172C710.037 139.69 709.751 139.124 709.549 138.473C709.354 137.822 709.256 137.112 709.256 136.344ZM712.068 136.139V136.344C712.068 136.78 712.111 137.187 712.195 137.564C712.28 137.942 712.41 138.277 712.586 138.57C712.768 138.857 712.993 139.081 713.26 139.244C713.533 139.4 713.855 139.479 714.227 139.479C714.741 139.479 715.161 139.371 715.486 139.156C715.812 138.935 716.056 138.632 716.219 138.248C716.382 137.864 716.476 137.421 716.502 136.92V135.641C716.489 135.23 716.434 134.863 716.336 134.537C716.238 134.205 716.102 133.922 715.926 133.688C715.75 133.453 715.522 133.271 715.242 133.141C714.962 133.01 714.63 132.945 714.246 132.945C713.875 132.945 713.553 133.03 713.279 133.199C713.012 133.362 712.788 133.587 712.605 133.873C712.43 134.16 712.296 134.498 712.205 134.889C712.114 135.273 712.068 135.689 712.068 136.139ZM732.088 127.281V141.5H729.168V127.281H732.088ZM736.463 127.281V129.576H724.861V127.281H736.463ZM742.176 139.117V134.41C742.176 134.072 742.12 133.782 742.01 133.541C741.899 133.294 741.727 133.102 741.492 132.965C741.264 132.828 740.968 132.76 740.604 132.76C740.291 132.76 740.021 132.815 739.793 132.926C739.565 133.03 739.389 133.183 739.266 133.385C739.142 133.58 739.08 133.811 739.08 134.078H736.268C736.268 133.629 736.372 133.202 736.58 132.799C736.788 132.395 737.091 132.04 737.488 131.734C737.885 131.422 738.357 131.178 738.904 131.002C739.458 130.826 740.076 130.738 740.76 130.738C741.58 130.738 742.309 130.875 742.947 131.148C743.585 131.422 744.087 131.832 744.451 132.379C744.822 132.926 745.008 133.609 745.008 134.43V138.951C745.008 139.531 745.044 140.006 745.115 140.377C745.187 140.742 745.291 141.061 745.428 141.334V141.5H742.586C742.449 141.214 742.345 140.855 742.273 140.426C742.208 139.99 742.176 139.553 742.176 139.117ZM742.547 135.064L742.566 136.656H740.994C740.623 136.656 740.301 136.699 740.027 136.783C739.754 136.868 739.529 136.988 739.354 137.145C739.178 137.294 739.048 137.47 738.963 137.672C738.885 137.874 738.846 138.095 738.846 138.336C738.846 138.577 738.901 138.795 739.012 138.99C739.122 139.179 739.282 139.329 739.49 139.439C739.699 139.544 739.943 139.596 740.223 139.596C740.646 139.596 741.014 139.511 741.326 139.342C741.639 139.173 741.88 138.964 742.049 138.717C742.225 138.469 742.316 138.235 742.322 138.014L743.064 139.205C742.96 139.472 742.817 139.749 742.635 140.035C742.459 140.322 742.234 140.592 741.961 140.846C741.688 141.093 741.359 141.298 740.975 141.461C740.59 141.617 740.135 141.695 739.607 141.695C738.937 141.695 738.328 141.562 737.781 141.295C737.241 141.021 736.811 140.647 736.492 140.172C736.18 139.69 736.023 139.143 736.023 138.531C736.023 137.978 736.128 137.486 736.336 137.057C736.544 136.627 736.85 136.266 737.254 135.973C737.664 135.673 738.175 135.449 738.787 135.299C739.399 135.143 740.109 135.064 740.916 135.064H742.547ZM752.889 138.58C752.889 138.378 752.83 138.196 752.713 138.033C752.596 137.87 752.378 137.721 752.059 137.584C751.746 137.441 751.294 137.311 750.701 137.193C750.167 137.076 749.669 136.93 749.207 136.754C748.751 136.572 748.354 136.354 748.016 136.1C747.684 135.846 747.423 135.546 747.234 135.201C747.046 134.85 746.951 134.449 746.951 134C746.951 133.557 747.046 133.141 747.234 132.75C747.43 132.359 747.706 132.014 748.064 131.715C748.429 131.409 748.872 131.171 749.393 131.002C749.92 130.826 750.512 130.738 751.17 130.738C752.088 130.738 752.876 130.885 753.533 131.178C754.197 131.471 754.705 131.874 755.057 132.389C755.415 132.896 755.594 133.476 755.594 134.127H752.781C752.781 133.854 752.723 133.609 752.605 133.395C752.495 133.173 752.319 133.001 752.078 132.877C751.844 132.747 751.538 132.682 751.16 132.682C750.848 132.682 750.577 132.737 750.35 132.848C750.122 132.952 749.946 133.095 749.822 133.277C749.705 133.453 749.646 133.648 749.646 133.863C749.646 134.026 749.679 134.173 749.744 134.303C749.816 134.426 749.93 134.54 750.086 134.645C750.242 134.749 750.444 134.846 750.691 134.938C750.945 135.022 751.258 135.1 751.629 135.172C752.391 135.328 753.071 135.533 753.67 135.787C754.269 136.035 754.744 136.373 755.096 136.803C755.447 137.226 755.623 137.783 755.623 138.473C755.623 138.941 755.519 139.371 755.311 139.762C755.102 140.152 754.803 140.494 754.412 140.787C754.021 141.074 753.553 141.298 753.006 141.461C752.465 141.617 751.857 141.695 751.18 141.695C750.197 141.695 749.363 141.52 748.68 141.168C748.003 140.816 747.488 140.37 747.137 139.83C746.792 139.283 746.619 138.723 746.619 138.15H749.285C749.298 138.535 749.396 138.844 749.578 139.078C749.767 139.312 750.005 139.482 750.291 139.586C750.584 139.69 750.9 139.742 751.238 139.742C751.603 139.742 751.906 139.693 752.146 139.596C752.387 139.492 752.57 139.355 752.693 139.186C752.824 139.01 752.889 138.808 752.889 138.58ZM760.262 126.49V141.5H757.449V126.49H760.262ZM766.922 130.934L762.332 136.168L759.871 138.658L758.846 136.627L760.799 134.146L763.543 130.934H766.922ZM764.002 141.5L760.877 136.617L762.82 134.918L767.244 141.5H764.002ZM773.846 138.58C773.846 138.378 773.787 138.196 773.67 138.033C773.553 137.87 773.335 137.721 773.016 137.584C772.703 137.441 772.251 137.311 771.658 137.193C771.124 137.076 770.626 136.93 770.164 136.754C769.708 136.572 769.311 136.354 768.973 136.1C768.641 135.846 768.38 135.546 768.191 135.201C768.003 134.85 767.908 134.449 767.908 134C767.908 133.557 768.003 133.141 768.191 132.75C768.387 132.359 768.663 132.014 769.021 131.715C769.386 131.409 769.829 131.171 770.35 131.002C770.877 130.826 771.469 130.738 772.127 130.738C773.045 130.738 773.833 130.885 774.49 131.178C775.154 131.471 775.662 131.874 776.014 132.389C776.372 132.896 776.551 133.476 776.551 134.127H773.738C773.738 133.854 773.68 133.609 773.562 133.395C773.452 133.173 773.276 133.001 773.035 132.877C772.801 132.747 772.495 132.682 772.117 132.682C771.805 132.682 771.535 132.737 771.307 132.848C771.079 132.952 770.903 133.095 770.779 133.277C770.662 133.453 770.604 133.648 770.604 133.863C770.604 134.026 770.636 134.173 770.701 134.303C770.773 134.426 770.887 134.54 771.043 134.645C771.199 134.749 771.401 134.846 771.648 134.938C771.902 135.022 772.215 135.1 772.586 135.172C773.348 135.328 774.028 135.533 774.627 135.787C775.226 136.035 775.701 136.373 776.053 136.803C776.404 137.226 776.58 137.783 776.58 138.473C776.58 138.941 776.476 139.371 776.268 139.762C776.059 140.152 775.76 140.494 775.369 140.787C774.979 141.074 774.51 141.298 773.963 141.461C773.423 141.617 772.814 141.695 772.137 141.695C771.154 141.695 770.32 141.52 769.637 141.168C768.96 140.816 768.445 140.37 768.094 139.83C767.749 139.283 767.576 138.723 767.576 138.15H770.242C770.255 138.535 770.353 138.844 770.535 139.078C770.724 139.312 770.962 139.482 771.248 139.586C771.541 139.69 771.857 139.742 772.195 139.742C772.56 139.742 772.863 139.693 773.104 139.596C773.344 139.492 773.527 139.355 773.65 139.186C773.781 139.01 773.846 138.808 773.846 138.58Z" fill="#00FF85"/>
<path d="M355.115 583.281V597.5H352.195V583.281H355.115ZM360.496 589.121V597.5H357.674V586.934H360.32L360.496 589.121ZM360.105 591.846H359.324C359.324 591.11 359.412 590.433 359.588 589.814C359.77 589.189 360.034 588.649 360.379 588.193C360.73 587.731 361.163 587.373 361.678 587.119C362.192 586.865 362.788 586.738 363.465 586.738C363.934 586.738 364.363 586.81 364.754 586.953C365.145 587.09 365.48 587.308 365.76 587.607C366.046 587.9 366.268 588.285 366.424 588.76C366.58 589.229 366.658 589.792 366.658 590.449V597.5H363.846V590.762C363.846 590.28 363.781 589.909 363.65 589.648C363.52 589.388 363.335 589.206 363.094 589.102C362.859 588.997 362.576 588.945 362.244 588.945C361.88 588.945 361.561 589.02 361.287 589.17C361.02 589.32 360.799 589.528 360.623 589.795C360.447 590.055 360.317 590.361 360.232 590.713C360.148 591.064 360.105 591.442 360.105 591.846ZM366.395 591.523L365.389 591.65C365.389 590.96 365.473 590.319 365.643 589.727C365.818 589.134 366.076 588.613 366.414 588.164C366.759 587.715 367.186 587.367 367.693 587.119C368.201 586.865 368.787 586.738 369.451 586.738C369.959 586.738 370.421 586.813 370.838 586.963C371.255 587.106 371.609 587.337 371.902 587.656C372.202 587.969 372.43 588.379 372.586 588.887C372.749 589.395 372.83 590.016 372.83 590.752V597.5H370.008V590.752C370.008 590.264 369.943 589.893 369.812 589.639C369.689 589.378 369.507 589.199 369.266 589.102C369.031 588.997 368.751 588.945 368.426 588.945C368.087 588.945 367.791 589.014 367.537 589.15C367.283 589.281 367.072 589.463 366.902 589.697C366.733 589.932 366.606 590.205 366.521 590.518C366.437 590.824 366.395 591.159 366.395 591.523ZM377.82 588.965V601.562H375.008V586.934H377.615L377.82 588.965ZM384.51 592.1V592.305C384.51 593.073 384.419 593.786 384.236 594.443C384.061 595.101 383.8 595.674 383.455 596.162C383.11 596.644 382.68 597.021 382.166 597.295C381.658 597.562 381.072 597.695 380.408 597.695C379.764 597.695 379.204 597.565 378.729 597.305C378.253 597.044 377.853 596.68 377.527 596.211C377.208 595.736 376.951 595.186 376.756 594.561C376.561 593.936 376.411 593.265 376.307 592.549V592.012C376.411 591.243 376.561 590.54 376.756 589.902C376.951 589.258 377.208 588.701 377.527 588.232C377.853 587.757 378.25 587.389 378.719 587.129C379.194 586.868 379.751 586.738 380.389 586.738C381.059 586.738 381.648 586.865 382.156 587.119C382.671 587.373 383.1 587.738 383.445 588.213C383.797 588.688 384.061 589.255 384.236 589.912C384.419 590.57 384.51 591.299 384.51 592.1ZM381.688 592.305V592.1C381.688 591.65 381.648 591.237 381.57 590.859C381.499 590.475 381.382 590.14 381.219 589.854C381.062 589.567 380.854 589.346 380.594 589.189C380.34 589.027 380.031 588.945 379.666 588.945C379.282 588.945 378.953 589.007 378.68 589.131C378.413 589.255 378.195 589.434 378.025 589.668C377.856 589.902 377.729 590.182 377.645 590.508C377.56 590.833 377.508 591.201 377.488 591.611V592.969C377.521 593.451 377.612 593.883 377.762 594.268C377.911 594.645 378.143 594.945 378.455 595.166C378.768 595.387 379.178 595.498 379.686 595.498C380.057 595.498 380.369 595.417 380.623 595.254C380.877 595.085 381.082 594.854 381.238 594.561C381.401 594.268 381.515 593.929 381.58 593.545C381.652 593.161 381.688 592.747 381.688 592.305ZM389.07 589.238V597.5H386.258V586.934H388.904L389.07 589.238ZM392.254 586.865L392.205 589.473C392.068 589.453 391.902 589.437 391.707 589.424C391.518 589.404 391.346 589.395 391.189 589.395C390.792 589.395 390.447 589.447 390.154 589.551C389.868 589.648 389.627 589.795 389.432 589.99C389.243 590.186 389.1 590.423 389.002 590.703C388.911 590.983 388.859 591.302 388.846 591.66L388.279 591.484C388.279 590.801 388.348 590.173 388.484 589.6C388.621 589.02 388.82 588.516 389.08 588.086C389.347 587.656 389.673 587.324 390.057 587.09C390.441 586.855 390.88 586.738 391.375 586.738C391.531 586.738 391.691 586.751 391.854 586.777C392.016 586.797 392.15 586.826 392.254 586.865ZM392.84 592.324V592.119C392.84 591.344 392.951 590.632 393.172 589.98C393.393 589.323 393.715 588.753 394.139 588.271C394.562 587.79 395.083 587.415 395.701 587.148C396.32 586.875 397.029 586.738 397.83 586.738C398.631 586.738 399.344 586.875 399.969 587.148C400.594 587.415 401.118 587.79 401.541 588.271C401.971 588.753 402.296 589.323 402.518 589.98C402.739 590.632 402.85 591.344 402.85 592.119V592.324C402.85 593.092 402.739 593.805 402.518 594.463C402.296 595.114 401.971 595.684 401.541 596.172C401.118 596.654 400.597 597.028 399.979 597.295C399.36 597.562 398.65 597.695 397.85 597.695C397.049 597.695 396.336 597.562 395.711 597.295C395.092 597.028 394.568 596.654 394.139 596.172C393.715 595.684 393.393 595.114 393.172 594.463C392.951 593.805 392.84 593.092 392.84 592.324ZM395.652 592.119V592.324C395.652 592.767 395.691 593.18 395.77 593.564C395.848 593.949 395.971 594.287 396.141 594.58C396.316 594.867 396.544 595.091 396.824 595.254C397.104 595.417 397.446 595.498 397.85 595.498C398.24 595.498 398.576 595.417 398.855 595.254C399.135 595.091 399.36 594.867 399.529 594.58C399.699 594.287 399.822 593.949 399.9 593.564C399.985 593.18 400.027 592.767 400.027 592.324V592.119C400.027 591.689 399.985 591.286 399.9 590.908C399.822 590.524 399.695 590.186 399.52 589.893C399.35 589.593 399.126 589.359 398.846 589.189C398.566 589.02 398.227 588.936 397.83 588.936C397.433 588.936 397.094 589.02 396.814 589.189C396.541 589.359 396.316 589.593 396.141 589.893C395.971 590.186 395.848 590.524 395.77 590.908C395.691 591.286 395.652 591.689 395.652 592.119ZM408.016 595.449L410.359 586.934H413.299L409.734 597.5H407.957L408.016 595.449ZM406.404 586.934L408.758 595.459L408.807 597.5H407.02L403.455 586.934H406.404ZM417.527 586.934V597.5H414.705V586.934H417.527ZM414.529 584.18C414.529 583.77 414.673 583.431 414.959 583.164C415.245 582.897 415.63 582.764 416.111 582.764C416.587 582.764 416.967 582.897 417.254 583.164C417.547 583.431 417.693 583.77 417.693 584.18C417.693 584.59 417.547 584.928 417.254 585.195C416.967 585.462 416.587 585.596 416.111 585.596C415.63 585.596 415.245 585.462 414.959 585.195C414.673 584.928 414.529 584.59 414.529 584.18ZM422.605 589.189V597.5H419.793V586.934H422.43L422.605 589.189ZM422.195 591.846H421.434C421.434 591.064 421.535 590.361 421.736 589.736C421.938 589.105 422.221 588.568 422.586 588.125C422.951 587.676 423.383 587.334 423.885 587.1C424.393 586.859 424.959 586.738 425.584 586.738C426.079 586.738 426.531 586.81 426.941 586.953C427.352 587.096 427.703 587.324 427.996 587.637C428.296 587.949 428.523 588.363 428.68 588.877C428.842 589.391 428.924 590.02 428.924 590.762V597.5H426.092V590.752C426.092 590.283 426.027 589.919 425.896 589.658C425.766 589.398 425.574 589.215 425.32 589.111C425.073 589.001 424.767 588.945 424.402 588.945C424.025 588.945 423.696 589.02 423.416 589.17C423.143 589.32 422.915 589.528 422.732 589.795C422.557 590.055 422.423 590.361 422.332 590.713C422.241 591.064 422.195 591.442 422.195 591.846ZM437.752 586.934H440.301V597.148C440.301 598.112 440.086 598.929 439.656 599.6C439.233 600.277 438.641 600.788 437.879 601.133C437.117 601.484 436.232 601.66 435.223 601.66C434.78 601.66 434.311 601.602 433.816 601.484C433.328 601.367 432.859 601.185 432.41 600.938C431.967 600.69 431.596 600.378 431.297 600L432.537 598.34C432.863 598.717 433.24 599.01 433.67 599.219C434.1 599.434 434.575 599.541 435.096 599.541C435.604 599.541 436.033 599.447 436.385 599.258C436.736 599.076 437.007 598.805 437.195 598.447C437.384 598.096 437.479 597.669 437.479 597.168V589.375L437.752 586.934ZM430.643 592.344V592.139C430.643 591.331 430.74 590.599 430.936 589.941C431.137 589.277 431.421 588.708 431.785 588.232C432.156 587.757 432.605 587.389 433.133 587.129C433.66 586.868 434.256 586.738 434.92 586.738C435.623 586.738 436.212 586.868 436.688 587.129C437.163 587.389 437.553 587.76 437.859 588.242C438.165 588.717 438.403 589.281 438.572 589.932C438.748 590.576 438.885 591.283 438.982 592.051V592.5C438.885 593.236 438.738 593.919 438.543 594.551C438.348 595.182 438.09 595.736 437.771 596.211C437.452 596.68 437.055 597.044 436.58 597.305C436.111 597.565 435.551 597.695 434.9 597.695C434.249 597.695 433.66 597.562 433.133 597.295C432.612 597.028 432.166 596.654 431.795 596.172C431.424 595.69 431.137 595.124 430.936 594.473C430.74 593.822 430.643 593.112 430.643 592.344ZM433.455 592.139V592.344C433.455 592.78 433.497 593.187 433.582 593.564C433.667 593.942 433.797 594.277 433.973 594.57C434.155 594.857 434.38 595.081 434.646 595.244C434.92 595.4 435.242 595.479 435.613 595.479C436.128 595.479 436.548 595.371 436.873 595.156C437.199 594.935 437.443 594.632 437.605 594.248C437.768 593.864 437.863 593.421 437.889 592.92V591.641C437.876 591.23 437.82 590.863 437.723 590.537C437.625 590.205 437.488 589.922 437.312 589.688C437.137 589.453 436.909 589.271 436.629 589.141C436.349 589.01 436.017 588.945 435.633 588.945C435.262 588.945 434.939 589.03 434.666 589.199C434.399 589.362 434.174 589.587 433.992 589.873C433.816 590.16 433.683 590.498 433.592 590.889C433.501 591.273 433.455 591.689 433.455 592.139Z" fill="#FFE60A"/>
<path d="M325.516 621.5H322.42L322.439 619.215H325.516C326.284 619.215 326.932 619.042 327.459 618.697C327.986 618.346 328.383 617.835 328.65 617.164C328.924 616.493 329.061 615.683 329.061 614.732V614.039C329.061 613.31 328.982 612.669 328.826 612.115C328.676 611.562 328.452 611.096 328.152 610.719C327.853 610.341 327.485 610.058 327.049 609.869C326.613 609.674 326.111 609.576 325.545 609.576H322.361V607.281H325.545C326.495 607.281 327.365 607.444 328.152 607.77C328.947 608.089 329.633 608.548 330.213 609.146C330.792 609.745 331.238 610.462 331.551 611.295C331.87 612.122 332.029 613.043 332.029 614.059V614.732C332.029 615.742 331.87 616.663 331.551 617.496C331.238 618.329 330.792 619.046 330.213 619.645C329.64 620.237 328.953 620.696 328.152 621.021C327.358 621.34 326.479 621.5 325.516 621.5ZM324.08 607.281V621.5H321.15V607.281H324.08ZM338.846 621.695C338.025 621.695 337.29 621.565 336.639 621.305C335.988 621.038 335.434 620.67 334.979 620.201C334.529 619.732 334.184 619.189 333.943 618.57C333.702 617.945 333.582 617.281 333.582 616.578V616.188C333.582 615.387 333.696 614.654 333.924 613.99C334.152 613.326 334.477 612.75 334.9 612.262C335.33 611.773 335.851 611.399 336.463 611.139C337.075 610.872 337.765 610.738 338.533 610.738C339.282 610.738 339.946 610.862 340.525 611.109C341.105 611.357 341.59 611.708 341.98 612.164C342.378 612.62 342.677 613.167 342.879 613.805C343.081 614.436 343.182 615.139 343.182 615.914V617.086H334.783V615.211H340.418V614.996C340.418 614.605 340.346 614.257 340.203 613.951C340.066 613.639 339.858 613.391 339.578 613.209C339.298 613.027 338.94 612.936 338.504 612.936C338.133 612.936 337.814 613.017 337.547 613.18C337.28 613.342 337.062 613.57 336.893 613.863C336.73 614.156 336.606 614.501 336.521 614.898C336.443 615.289 336.404 615.719 336.404 616.188V616.578C336.404 617.001 336.463 617.392 336.58 617.75C336.704 618.108 336.876 618.417 337.098 618.678C337.326 618.938 337.599 619.14 337.918 619.283C338.243 619.426 338.611 619.498 339.021 619.498C339.529 619.498 340.001 619.4 340.438 619.205C340.88 619.003 341.261 618.701 341.58 618.297L342.947 619.781C342.726 620.1 342.423 620.406 342.039 620.699C341.661 620.992 341.206 621.233 340.672 621.422C340.138 621.604 339.529 621.695 338.846 621.695ZM349.148 619.498C349.493 619.498 349.799 619.433 350.066 619.303C350.333 619.166 350.542 618.977 350.691 618.736C350.848 618.489 350.929 618.199 350.936 617.867H353.582C353.576 618.609 353.377 619.27 352.986 619.85C352.596 620.423 352.072 620.875 351.414 621.207C350.757 621.533 350.021 621.695 349.207 621.695C348.387 621.695 347.671 621.559 347.059 621.285C346.453 621.012 345.949 620.634 345.545 620.152C345.141 619.664 344.839 619.098 344.637 618.453C344.435 617.802 344.334 617.105 344.334 616.363V616.08C344.334 615.331 344.435 614.635 344.637 613.99C344.839 613.339 345.141 612.773 345.545 612.291C345.949 611.803 346.453 611.422 347.059 611.148C347.664 610.875 348.374 610.738 349.188 610.738C350.053 610.738 350.812 610.904 351.463 611.236C352.12 611.568 352.635 612.044 353.006 612.662C353.383 613.274 353.576 614 353.582 614.84H350.936C350.929 614.488 350.854 614.169 350.711 613.883C350.574 613.596 350.372 613.368 350.105 613.199C349.845 613.023 349.523 612.936 349.139 612.936C348.729 612.936 348.393 613.023 348.133 613.199C347.872 613.368 347.671 613.603 347.527 613.902C347.384 614.195 347.283 614.531 347.225 614.908C347.173 615.279 347.146 615.67 347.146 616.08V616.363C347.146 616.773 347.173 617.167 347.225 617.545C347.277 617.923 347.374 618.258 347.518 618.551C347.667 618.844 347.872 619.075 348.133 619.244C348.393 619.413 348.732 619.498 349.148 619.498ZM358.182 610.934V621.5H355.359V610.934H358.182ZM355.184 608.18C355.184 607.77 355.327 607.431 355.613 607.164C355.9 606.897 356.284 606.764 356.766 606.764C357.241 606.764 357.622 606.897 357.908 607.164C358.201 607.431 358.348 607.77 358.348 608.18C358.348 608.59 358.201 608.928 357.908 609.195C357.622 609.462 357.241 609.596 356.766 609.596C356.284 609.596 355.9 609.462 355.613 609.195C355.327 608.928 355.184 608.59 355.184 608.18ZM366.219 618.58C366.219 618.378 366.16 618.196 366.043 618.033C365.926 617.87 365.708 617.721 365.389 617.584C365.076 617.441 364.624 617.311 364.031 617.193C363.497 617.076 362.999 616.93 362.537 616.754C362.081 616.572 361.684 616.354 361.346 616.1C361.014 615.846 360.753 615.546 360.564 615.201C360.376 614.85 360.281 614.449 360.281 614C360.281 613.557 360.376 613.141 360.564 612.75C360.76 612.359 361.036 612.014 361.395 611.715C361.759 611.409 362.202 611.171 362.723 611.002C363.25 610.826 363.842 610.738 364.5 610.738C365.418 610.738 366.206 610.885 366.863 611.178C367.527 611.471 368.035 611.874 368.387 612.389C368.745 612.896 368.924 613.476 368.924 614.127H366.111C366.111 613.854 366.053 613.609 365.936 613.395C365.825 613.173 365.649 613.001 365.408 612.877C365.174 612.747 364.868 612.682 364.49 612.682C364.178 612.682 363.908 612.737 363.68 612.848C363.452 612.952 363.276 613.095 363.152 613.277C363.035 613.453 362.977 613.648 362.977 613.863C362.977 614.026 363.009 614.173 363.074 614.303C363.146 614.426 363.26 614.54 363.416 614.645C363.572 614.749 363.774 614.846 364.021 614.938C364.275 615.022 364.588 615.1 364.959 615.172C365.721 615.328 366.401 615.533 367 615.787C367.599 616.035 368.074 616.373 368.426 616.803C368.777 617.226 368.953 617.783 368.953 618.473C368.953 618.941 368.849 619.371 368.641 619.762C368.432 620.152 368.133 620.494 367.742 620.787C367.352 621.074 366.883 621.298 366.336 621.461C365.796 621.617 365.187 621.695 364.51 621.695C363.527 621.695 362.693 621.52 362.01 621.168C361.333 620.816 360.818 620.37 360.467 619.83C360.122 619.283 359.949 618.723 359.949 618.15H362.615C362.628 618.535 362.726 618.844 362.908 619.078C363.097 619.312 363.335 619.482 363.621 619.586C363.914 619.69 364.23 619.742 364.568 619.742C364.933 619.742 365.236 619.693 365.477 619.596C365.717 619.492 365.9 619.355 366.023 619.186C366.154 619.01 366.219 618.808 366.219 618.58ZM373.748 610.934V621.5H370.926V610.934H373.748ZM370.75 608.18C370.75 607.77 370.893 607.431 371.18 607.164C371.466 606.897 371.85 606.764 372.332 606.764C372.807 606.764 373.188 606.897 373.475 607.164C373.768 607.431 373.914 607.77 373.914 608.18C373.914 608.59 373.768 608.928 373.475 609.195C373.188 609.462 372.807 609.596 372.332 609.596C371.85 609.596 371.466 609.462 371.18 609.195C370.893 608.928 370.75 608.59 370.75 608.18ZM375.623 616.324V616.119C375.623 615.344 375.734 614.632 375.955 613.98C376.176 613.323 376.499 612.753 376.922 612.271C377.345 611.79 377.866 611.415 378.484 611.148C379.103 610.875 379.812 610.738 380.613 610.738C381.414 610.738 382.127 610.875 382.752 611.148C383.377 611.415 383.901 611.79 384.324 612.271C384.754 612.753 385.079 613.323 385.301 613.98C385.522 614.632 385.633 615.344 385.633 616.119V616.324C385.633 617.092 385.522 617.805 385.301 618.463C385.079 619.114 384.754 619.684 384.324 620.172C383.901 620.654 383.38 621.028 382.762 621.295C382.143 621.562 381.434 621.695 380.633 621.695C379.832 621.695 379.119 621.562 378.494 621.295C377.876 621.028 377.352 620.654 376.922 620.172C376.499 619.684 376.176 619.114 375.955 618.463C375.734 617.805 375.623 617.092 375.623 616.324ZM378.436 616.119V616.324C378.436 616.767 378.475 617.18 378.553 617.564C378.631 617.949 378.755 618.287 378.924 618.58C379.1 618.867 379.327 619.091 379.607 619.254C379.887 619.417 380.229 619.498 380.633 619.498C381.023 619.498 381.359 619.417 381.639 619.254C381.919 619.091 382.143 618.867 382.312 618.58C382.482 618.287 382.605 617.949 382.684 617.564C382.768 617.18 382.811 616.767 382.811 616.324V616.119C382.811 615.689 382.768 615.286 382.684 614.908C382.605 614.524 382.479 614.186 382.303 613.893C382.133 613.593 381.909 613.359 381.629 613.189C381.349 613.02 381.01 612.936 380.613 612.936C380.216 612.936 379.878 613.02 379.598 613.189C379.324 613.359 379.1 613.593 378.924 613.893C378.755 614.186 378.631 614.524 378.553 614.908C378.475 615.286 378.436 615.689 378.436 616.119ZM390.115 613.189V621.5H387.303V610.934H389.939L390.115 613.189ZM389.705 615.846H388.943C388.943 615.064 389.044 614.361 389.246 613.736C389.448 613.105 389.731 612.568 390.096 612.125C390.46 611.676 390.893 611.334 391.395 611.1C391.902 610.859 392.469 610.738 393.094 610.738C393.589 610.738 394.041 610.81 394.451 610.953C394.861 611.096 395.213 611.324 395.506 611.637C395.805 611.949 396.033 612.363 396.189 612.877C396.352 613.391 396.434 614.02 396.434 614.762V621.5H393.602V614.752C393.602 614.283 393.536 613.919 393.406 613.658C393.276 613.398 393.084 613.215 392.83 613.111C392.583 613.001 392.277 612.945 391.912 612.945C391.535 612.945 391.206 613.02 390.926 613.17C390.652 613.32 390.424 613.528 390.242 613.795C390.066 614.055 389.933 614.361 389.842 614.713C389.751 615.064 389.705 615.442 389.705 615.846ZM404.119 614.293V616.5H398.602V614.293H404.119ZM407.977 607.281H410.457L414.109 617.721L417.762 607.281H420.242L415.105 621.5H413.113L407.977 607.281ZM406.639 607.281H409.109L409.559 617.457V621.5H406.639V607.281ZM419.109 607.281H421.59V621.5H418.66V617.457L419.109 607.281ZM429.686 619.117V614.41C429.686 614.072 429.63 613.782 429.52 613.541C429.409 613.294 429.236 613.102 429.002 612.965C428.774 612.828 428.478 612.76 428.113 612.76C427.801 612.76 427.531 612.815 427.303 612.926C427.075 613.03 426.899 613.183 426.775 613.385C426.652 613.58 426.59 613.811 426.59 614.078H423.777C423.777 613.629 423.882 613.202 424.09 612.799C424.298 612.395 424.601 612.04 424.998 611.734C425.395 611.422 425.867 611.178 426.414 611.002C426.967 610.826 427.586 610.738 428.27 610.738C429.09 610.738 429.819 610.875 430.457 611.148C431.095 611.422 431.596 611.832 431.961 612.379C432.332 612.926 432.518 613.609 432.518 614.43V618.951C432.518 619.531 432.553 620.006 432.625 620.377C432.697 620.742 432.801 621.061 432.938 621.334V621.5H430.096C429.959 621.214 429.855 620.855 429.783 620.426C429.718 619.99 429.686 619.553 429.686 619.117ZM430.057 615.064L430.076 616.656H428.504C428.133 616.656 427.811 616.699 427.537 616.783C427.264 616.868 427.039 616.988 426.863 617.145C426.688 617.294 426.557 617.47 426.473 617.672C426.395 617.874 426.355 618.095 426.355 618.336C426.355 618.577 426.411 618.795 426.521 618.99C426.632 619.179 426.792 619.329 427 619.439C427.208 619.544 427.452 619.596 427.732 619.596C428.156 619.596 428.523 619.511 428.836 619.342C429.148 619.173 429.389 618.964 429.559 618.717C429.734 618.469 429.826 618.235 429.832 618.014L430.574 619.205C430.47 619.472 430.327 619.749 430.145 620.035C429.969 620.322 429.744 620.592 429.471 620.846C429.197 621.093 428.868 621.298 428.484 621.461C428.1 621.617 427.645 621.695 427.117 621.695C426.447 621.695 425.838 621.562 425.291 621.295C424.751 621.021 424.321 620.647 424.002 620.172C423.689 619.69 423.533 619.143 423.533 618.531C423.533 617.978 423.637 617.486 423.846 617.057C424.054 616.627 424.36 616.266 424.764 615.973C425.174 615.673 425.685 615.449 426.297 615.299C426.909 615.143 427.618 615.064 428.426 615.064H430.057ZM437.498 606.49V621.5H434.686V606.49H437.498ZM444.158 610.934L439.568 616.168L437.107 618.658L436.082 616.627L438.035 614.146L440.779 610.934H444.158ZM441.238 621.5L438.113 616.617L440.057 614.918L444.48 621.5H441.238ZM448.338 610.934V621.5H445.516V610.934H448.338ZM445.34 608.18C445.34 607.77 445.483 607.431 445.77 607.164C446.056 606.897 446.44 606.764 446.922 606.764C447.397 606.764 447.778 606.897 448.064 607.164C448.357 607.431 448.504 607.77 448.504 608.18C448.504 608.59 448.357 608.928 448.064 609.195C447.778 609.462 447.397 609.596 446.922 609.596C446.44 609.596 446.056 609.462 445.77 609.195C445.483 608.928 445.34 608.59 445.34 608.18ZM453.416 613.189V621.5H450.604V610.934H453.24L453.416 613.189ZM453.006 615.846H452.244C452.244 615.064 452.345 614.361 452.547 613.736C452.749 613.105 453.032 612.568 453.396 612.125C453.761 611.676 454.194 611.334 454.695 611.1C455.203 610.859 455.77 610.738 456.395 610.738C456.889 610.738 457.342 610.81 457.752 610.953C458.162 611.096 458.514 611.324 458.807 611.637C459.106 611.949 459.334 612.363 459.49 612.877C459.653 613.391 459.734 614.02 459.734 614.762V621.5H456.902V614.752C456.902 614.283 456.837 613.919 456.707 613.658C456.577 613.398 456.385 613.215 456.131 613.111C455.883 613.001 455.577 612.945 455.213 612.945C454.835 612.945 454.507 613.02 454.227 613.17C453.953 613.32 453.725 613.528 453.543 613.795C453.367 614.055 453.234 614.361 453.143 614.713C453.051 615.064 453.006 615.442 453.006 615.846ZM468.562 610.934H471.111V621.148C471.111 622.112 470.896 622.929 470.467 623.6C470.044 624.277 469.451 624.788 468.689 625.133C467.928 625.484 467.042 625.66 466.033 625.66C465.59 625.66 465.122 625.602 464.627 625.484C464.139 625.367 463.67 625.185 463.221 624.938C462.778 624.69 462.407 624.378 462.107 624L463.348 622.34C463.673 622.717 464.051 623.01 464.48 623.219C464.91 623.434 465.385 623.541 465.906 623.541C466.414 623.541 466.844 623.447 467.195 623.258C467.547 623.076 467.817 622.805 468.006 622.447C468.195 622.096 468.289 621.669 468.289 621.168V613.375L468.562 610.934ZM461.453 616.344V616.139C461.453 615.331 461.551 614.599 461.746 613.941C461.948 613.277 462.231 612.708 462.596 612.232C462.967 611.757 463.416 611.389 463.943 611.129C464.471 610.868 465.066 610.738 465.73 610.738C466.434 610.738 467.023 610.868 467.498 611.129C467.973 611.389 468.364 611.76 468.67 612.242C468.976 612.717 469.214 613.281 469.383 613.932C469.559 614.576 469.695 615.283 469.793 616.051V616.5C469.695 617.236 469.549 617.919 469.354 618.551C469.158 619.182 468.901 619.736 468.582 620.211C468.263 620.68 467.866 621.044 467.391 621.305C466.922 621.565 466.362 621.695 465.711 621.695C465.06 621.695 464.471 621.562 463.943 621.295C463.423 621.028 462.977 620.654 462.605 620.172C462.234 619.69 461.948 619.124 461.746 618.473C461.551 617.822 461.453 617.112 461.453 616.344ZM464.266 616.139V616.344C464.266 616.78 464.308 617.187 464.393 617.564C464.477 617.942 464.607 618.277 464.783 618.57C464.965 618.857 465.19 619.081 465.457 619.244C465.73 619.4 466.053 619.479 466.424 619.479C466.938 619.479 467.358 619.371 467.684 619.156C468.009 618.935 468.253 618.632 468.416 618.248C468.579 617.864 468.673 617.421 468.699 616.92V615.641C468.686 615.23 468.631 614.863 468.533 614.537C468.436 614.205 468.299 613.922 468.123 613.688C467.947 613.453 467.719 613.271 467.439 613.141C467.16 613.01 466.827 612.945 466.443 612.945C466.072 612.945 465.75 613.03 465.477 613.199C465.21 613.362 464.985 613.587 464.803 613.873C464.627 614.16 464.493 614.498 464.402 614.889C464.311 615.273 464.266 615.689 464.266 616.139Z" fill="#FFE60A"/>
<path fill-rule="evenodd" clip-rule="evenodd" d="M180 348C180 387.425 190.562 424.383 209.012 456.198L281.696 414.064C270.442 394.634 264 372.069 264 348C264 330.376 267.454 313.559 273.722 298.188L305.313 316.427C309.334 304.876 315.501 294.328 323.335 285.263L291.747 267.025C315.898 235.975 353.616 216 396 216L395.999 132C276.706 132 180 228.707 180 348Z" stroke="#1AC6FF" stroke-width="2" stroke-linecap="round" stroke-linejoin="round"/>
<path fill-rule="evenodd" clip-rule="evenodd" d="M396.001 564.001C475.941 564.001 545.738 520.575 583.089 456.026L510.319 414.039C490.344 448.543 455.196 473.167 414.001 478.784V442.316C408.17 443.422 402.153 444.001 396.001 444.001C389.848 444.001 383.831 443.422 378.001 442.316V478.784C336.815 473.168 301.674 448.555 281.696 414.063L209.012 456.197C246.387 520.651 316.132 564.001 396.001 564.001Z" stroke="#FFE60A" stroke-width="2" stroke-linecap="round" stroke-linejoin="round"/>
<path fill-rule="evenodd" clip-rule="evenodd" d="M612.001 348.001C612.001 387.355 601.476 424.251 583.089 456.027L510.319 414.04C521.564 394.616 528.001 372.06 528.001 348.001C528.001 330.376 524.547 313.559 518.278 298.188L486.687 316.427C482.666 304.875 476.5 294.328 468.665 285.263L500.253 267.026C476.101 235.976 438.383 216.001 396 216.001L396.001 132.001C515.294 132.001 612.001 228.707 612.001 348.001Z" stroke="#00FF85" stroke-width="2" stroke-linecap="round" stroke-linejoin="round"/>
<path fill-rule="evenodd" clip-rule="evenodd" d="M492 348C492 401.019 449.019 444 396 444C342.981 444 300 401.019 300 348C300 294.981 342.981 252 396 252C449.019 252 492 294.981 492 348Z" stroke="#00396D" stroke-width="2" stroke-linecap="round" stroke-linejoin="round"/>
<path d="M243 257C243 260.866 239.866 264 236 264C232.134 264 229 260.866 229 257C229 253.134 232.134 250 236 250M243 257C243 253.134 239.866 250 236 250M243 257H236V250M240 285C241.812 282.712 242.861 279.915 243 277M252 285C250.188 282.712 249.139 279.915 249 277M236.998 285H254.998M223 271H269M249 254L252 250L258 255L263 249M261 265V262M257 265V261M253 265V259M249 265V262M225 243H267C267 243 269 243 269 245V275C269 275 269 277 267 277H225C225 277 223 277 223 275V245C223 245 223 243 225 243Z" stroke="#1AC6FF" stroke-width="2" stroke-linecap="round" stroke-linejoin="round"/>
<path d="M541.523 277.594L531.063 270.074M536.093 264.346L544.691 270.72M535.595 261.266L544.931 252.174M542.065 245.618L529.505 257.542M552.401 249.338L557.349 254.4C558.379 255.453 558.402 257.13 557.401 258.21C556.886 258.764 556.167 259.083 555.411 259.093C554.655 259.102 553.929 258.801 553.401 258.26L547.961 252.702M524.165 286.19H568.165M541.523 281.338V275.894C541.581 272.722 544.17 270.18 547.344 270.18C550.517 270.18 553.106 272.722 553.165 275.894V281.254M556.801 253.818C557.18 253.344 557.718 253.023 558.317 252.916C560.799 252.462 563.356 253.133 565.295 254.748C567.234 256.364 568.357 258.757 568.359 261.28C568.359 262.661 567.239 263.78 565.859 263.78C564.478 263.78 563.359 262.661 563.359 261.28C563.357 260.237 562.891 259.249 562.087 258.584C561.284 257.919 560.226 257.646 559.201 257.84C558.819 257.908 558.427 257.887 558.055 257.778M556.245 258.852C556.329 259.324 556.276 259.81 556.093 260.252C555.682 261.212 555.721 262.304 556.197 263.232C556.674 264.16 557.54 264.828 558.559 265.052C559.907 265.35 560.76 266.684 560.463 268.032C560.165 269.381 558.831 270.234 557.483 269.936C555.02 269.39 552.928 267.78 551.769 265.54C550.61 263.3 550.505 260.661 551.483 258.336C551.622 257.999 551.833 257.697 552.103 257.45M523.643 263.768C523.643 267.214 526.435 270.006 529.881 270.006C533.326 270.006 536.119 267.214 536.119 263.768C536.119 260.323 533.326 257.53 529.881 257.53C526.435 257.53 523.643 260.323 523.643 263.768ZM541.881 247.274C541.88 250.291 544.326 252.737 547.343 252.737C550.36 252.737 552.805 250.291 552.805 247.274C552.805 244.258 550.36 241.812 547.343 241.812C544.326 241.812 541.88 244.258 541.881 247.274ZM528.881 263.436C528.881 263.989 529.328 264.436 529.881 264.436C530.433 264.436 530.881 263.989 530.881 263.436C530.881 262.884 530.433 262.436 529.881 262.436C529.328 262.436 528.881 262.884 528.881 263.436ZM546.343 275.85C546.343 276.403 546.79 276.85 547.343 276.85C547.895 276.85 548.343 276.403 548.343 275.85C548.343 275.298 547.895 274.85 547.343 274.85C546.79 274.85 546.343 275.298 546.343 275.85ZM540.359 281.338H554.233C555.337 281.338 556.233 282.234 556.233 283.338V286.19H538.359V283.338C538.359 282.234 539.254 281.338 540.359 281.338Z" stroke="#00FF85" stroke-width="2" stroke-linecap="round" stroke-linejoin="round"/>
<path d="M410.053 327.136H412.137C413.288 327.136 414.221 328.069 414.221 329.22V343.808M410.053 343.808H418.389M432.317 301.956H434.401C435.552 301.956 436.485 302.889 436.485 304.04V318.628M432.317 318.628H440.653M432.317 352.312H434.401C435.552 352.312 436.485 353.245 436.485 354.396V368.984M432.317 368.984H440.653M432.317 377.284H434.401C435.552 377.284 436.485 378.217 436.485 379.368V393.956M432.317 393.956H440.653M386.213 369.044C386.213 361.864 380.393 356.044 373.213 356.044C373.005 356.044 372.813 356.096 372.601 356.104M384.861 317.6C388.733 316.294 390.999 312.28 390.116 308.29C389.233 304.301 385.485 301.618 381.423 302.068C377.362 302.519 374.292 305.958 374.305 310.044C374.316 310.766 374.425 311.483 374.629 312.176C374.185 312.136 373.757 312.044 373.305 312.044C367.592 312.016 362.363 315.252 359.839 320.378C357.316 325.504 357.939 331.621 361.445 336.132C355.183 336.562 350.322 341.767 350.322 348.044C350.322 354.321 355.183 359.526 361.445 359.956C357.939 364.467 357.316 370.584 359.839 375.71C362.363 380.836 367.592 384.072 373.305 384.044C373.757 384.044 374.185 383.948 374.629 383.908C373.438 388.113 375.842 392.495 380.028 393.751C384.213 395.006 388.632 392.671 389.952 388.505C391.273 384.339 389.006 379.885 384.861 378.5M372.601 340C372.809 340 373.001 340.06 373.213 340.06C380.393 340.06 386.213 334.24 386.213 327.06M390.297 309.656C392.12 308.602 394.191 308.05 396.297 308.056M389.941 388.432C391.895 389.489 394.083 390.039 396.305 390.032M396.305 328.044V370.044M441.697 338.596C441.697 341.474 439.365 343.806 436.487 343.806C433.609 343.806 431.277 341.474 431.277 338.596V332.344C431.277 329.467 433.61 327.134 436.487 327.134C439.364 327.134 441.697 329.467 441.697 332.344V338.596ZM419.429 363.776C419.429 366.648 417.101 368.976 414.229 368.976C411.357 368.976 409.029 366.648 409.029 363.776V357.524C409.029 354.652 411.357 352.324 414.229 352.324C417.101 352.324 419.429 354.652 419.429 357.524V363.776ZM419.429 388.748C419.429 391.62 417.101 393.948 414.229 393.948C411.357 393.948 409.029 391.62 409.029 388.748V382.496C409.029 379.624 411.357 377.296 414.229 377.296C417.101 377.296 419.429 379.624 419.429 382.496V388.748ZM419.429 313.804C419.429 316.676 417.101 319.004 414.229 319.004C411.357 319.004 409.029 316.676 409.029 313.804V307.548C409.029 304.676 411.357 302.348 414.229 302.348C417.101 302.348 419.429 304.676 419.429 307.548V313.804Z" stroke="#00396D" stroke-width="2" stroke-linecap="round" stroke-linejoin="round"/>
<path d="M372.883 537H418.883M380.883 537V528C380.883 527.448 380.435 527 379.883 527H375.883C375.331 527 374.883 527.448 374.883 528V537M392.883 537V518C392.883 517.448 392.435 517 391.883 517H387.883C387.331 517 386.883 517.448 386.883 518V537M404.883 537V522C404.883 521.448 404.435 521 403.883 521H399.883C399.331 521 398.883 521.448 398.883 522V537M416.883 537V508C416.883 507.448 416.435 507 415.883 507H411.883C411.331 507 410.883 507.448 410.883 508V537" stroke="#FFE60A" stroke-width="2" stroke-linecap="round" stroke-linejoin="round"/>
</g>
<defs>
<clipPath id="clip0_9439_29123">
<rect width="798" height="756" fill="white"/>
</clipPath>
</defs>
</svg>
