<svg width="719" height="517" viewBox="0 0 719 517" fill="none" xmlns="http://www.w3.org/2000/svg">
<rect y="517" width="516.465" height="719" transform="rotate(-90 0 517)" fill="url(#paint0_linear_9488_1745)"/>
<path opacity="0.18" d="M480.676 337.777C486.94 328.66 491.651 318.478 494.415 307.763C509.32 249.93 463.729 200.154 417.048 173.045C392.43 158.748 361.579 152.598 335.148 163.173C318.753 169.735 305.426 181.997 290.983 192.166C276.218 202.557 260.032 210.894 245.767 221.964C221.554 240.75 211.245 264.252 214.2 294.671C216.634 319.733 227.241 343.654 243.326 362.934C258.015 380.54 286.882 385.213 308.716 381.358C326.5 378.22 343.073 369.147 361.091 367.936C384.562 366.358 407.982 378.308 431.053 373.718C438.845 372.165 446.18 368.767 452.907 364.544C463.875 357.659 473.341 348.453 480.676 337.783V337.777Z" fill="#F8FAFC"/>
<path d="M280.479 215.23C280.479 215.23 276.535 217.855 295.587 228.697C314.639 239.538 338.306 251.381 343.213 264.207C348.114 277.026 348.253 289.542 348.253 289.542C348.253 289.542 405.427 312.207 408.312 314.299C411.197 316.391 414.811 314.299 414.811 314.299L408.312 241.212C408.312 241.212 389.774 212.745 360.743 208.079C331.712 203.413 280.479 215.23 280.479 215.23Z" fill="#F8FAFC"/>
<path d="M280.479 215.23C280.479 215.23 276.535 217.855 295.587 228.697C314.639 239.538 338.306 251.381 343.213 264.207C348.114 277.026 348.253 289.542 348.253 289.542C348.253 289.542 405.427 312.207 408.312 314.299C411.197 316.391 414.811 314.299 414.811 314.299L408.312 241.212C408.312 241.212 389.774 212.745 360.743 208.079C331.712 203.413 280.479 215.23 280.479 215.23Z" fill="url(#paint1_linear_9488_1745)"/>
<path d="M375.807 261.107H366.938V374.53H375.807V261.107Z" fill="#F8FAFC"/>
<path d="M375.807 261.107H366.938V374.53H375.807V261.107Z" fill="url(#paint2_linear_9488_1745)"/>
<path d="M399.576 318.504H344.697C342.067 318.504 339.936 320.636 339.936 323.265C339.936 325.895 342.067 328.027 344.697 328.027H399.576C402.206 328.027 404.337 325.895 404.337 323.265C404.337 320.636 402.206 318.504 399.576 318.504Z" fill="#F8FAFC"/>
<path d="M399.576 329.211H344.697C342.067 329.211 339.936 331.343 339.936 333.972C339.936 336.602 342.067 338.734 344.697 338.734H399.576C402.206 338.734 404.337 336.602 404.337 333.972C404.337 331.343 402.206 329.211 399.576 329.211Z" fill="#F8FAFC"/>
<path d="M399.576 349.437L341.483 352.651C338.852 352.651 339.936 347.307 339.936 344.675C339.936 342.044 342.066 339.914 344.697 339.914H399.576C402.208 339.914 404.338 342.044 404.338 344.675C404.338 347.307 402.208 349.437 399.576 349.437Z" fill="#F8FAFC"/>
<path d="M399.576 361.312L341.483 367.208C338.852 367.208 339.936 361.863 339.936 359.232C339.936 356.601 342.066 354.471 344.697 354.471L399.576 351.789C402.208 351.789 404.338 353.919 404.338 356.55V359.232C404.338 361.863 402.208 361.312 399.576 361.312Z" fill="#F8FAFC"/>
<path d="M379.283 266.142C395.316 266.142 408.314 253.144 408.314 237.111C408.314 221.078 395.316 208.08 379.283 208.08C363.25 208.08 350.252 221.078 350.252 237.111C350.252 253.144 363.25 266.142 379.283 266.142Z" fill="#F8FAFC"/>
<path d="M379.283 266.142C395.316 266.142 408.314 253.144 408.314 237.111C408.314 221.078 395.316 208.08 379.283 208.08C363.25 208.08 350.252 221.078 350.252 237.111C350.252 253.144 363.25 266.142 379.283 266.142Z" fill="url(#paint3_linear_9488_1745)"/>
<path d="M379.281 255.041C389.183 255.041 397.211 247.013 397.211 237.111C397.211 227.209 389.183 219.182 379.281 219.182C369.379 219.182 361.352 227.209 361.352 237.111C361.352 247.013 369.379 255.041 379.281 255.041Z" fill="url(#paint4_linear_9488_1745)"/>
<path d="M281.462 223.771C281.462 223.771 316.605 208.992 333.025 229.356C349.446 249.72 351.418 259.902 349.776 265.811C348.134 271.72 347.804 282.232 347.804 282.232L288.683 309.823L276.092 302.38L278.501 293.403C278.501 293.403 267.552 289.244 267.337 286.397C267.115 283.55 280.911 268.664 282.007 263.186C283.104 257.715 280.258 230.783 280.258 230.783L281.462 223.777V223.771Z" fill="#F8FAFC"/>
<path d="M292.082 312.011L347.481 285.738L353.612 315.955C353.612 315.955 292.52 345.512 290.548 342.671C288.576 339.831 290.548 332.16 290.548 325.813C290.548 319.467 292.082 312.018 292.082 312.018V312.011Z" fill="#F8FAFC"/>
<path d="M281.918 250.241C281.918 250.241 311.348 239.533 315.292 247.42C319.235 255.301 320.218 258.914 320.218 258.914L282.007 263.181L281.918 250.241Z" fill="url(#paint5_linear_9488_1745)"/>
<path d="M428.277 274.016C424.004 282.562 414.811 314.288 414.811 314.288L384.918 285.732C403.31 259.016 397.135 233.738 383.656 221.66C370.19 209.576 334.661 221.457 334.661 221.457C324.244 214.42 312.819 212.277 303.132 212.112C290.23 211.903 280.473 215.219 280.473 215.219C290.173 195.508 304.552 180.679 324.916 172.354C335.523 168.018 349.699 171.898 360.686 174.237C373.436 176.951 385.907 180.97 397.839 186.213C406.189 189.884 414.278 194.157 422.013 199.001C428.417 203.008 435.708 208.061 438.801 215.282C441.851 222.402 441.382 231.563 440.304 239.038C438.529 251.344 433.806 262.959 428.277 274.01V274.016Z" fill="#F8FAFC"/>
<path d="M376.531 231.139H378.706L383.898 243.077H380.931L379.904 240.547H375.27L374.274 243.077H371.377L376.538 231.139H376.531ZM377.539 234.613L376.088 238.322H379.004L377.539 234.613Z" fill="white"/>
<path d="M385.064 231.139H387.696V243.077H385.064V231.139Z" fill="white"/>
<path d="M335.948 177.901C335.967 178.985 332.714 179.175 331.611 179.657C329.043 180.773 326.558 182.085 324.181 183.575C320.091 186.137 316.338 189.211 312.971 192.667C310.632 195.07 308.464 197.663 306.549 200.421C305.972 201.251 304.615 202.69 304.451 203.73C304.451 203.73 303.144 212.124 303.132 212.124C290.23 211.915 280.473 215.231 280.473 215.231C289.888 196.097 304.71 179.441 325.239 172.252C327.173 171.574 328.283 170.825 329.817 172.112C331.605 173.602 333.133 175.346 335.06 176.779C335.681 177.241 335.935 177.603 335.941 177.907L335.948 177.901Z" fill="url(#paint6_linear_9488_1745)"/>
<path d="M437.888 213.43C436.05 218.116 409.631 209.487 380.48 198.037C351.328 186.587 327.027 175.784 328.872 171.098C330.717 166.413 357.998 169.621 387.149 181.071C416.301 192.521 439.733 208.745 437.895 213.43H437.888Z" fill="url(#paint7_linear_9488_1745)"/>
<path d="M307.164 297.695L318.246 296.027L288.689 309.823L280.479 301.714L307.164 297.695Z" fill="url(#paint8_linear_9488_1745)"/>
<path d="M438.401 367.214C437.368 367.214 436.379 366.377 436.188 365.35L413.282 242.639C413.092 241.606 413.77 240.775 414.797 240.775C415.831 240.775 416.82 241.612 417.01 242.639L439.916 365.35C440.106 366.383 439.428 367.214 438.401 367.214Z" fill="#231F20"/>
<path d="M459.456 367.214C458.422 367.214 457.433 366.377 457.243 365.35L434.337 242.639C434.146 241.606 434.825 240.775 435.852 240.775C436.885 240.775 437.874 241.612 438.065 242.639L460.971 365.35C461.161 366.383 460.483 367.214 459.456 367.214Z" fill="#231F20"/>
<path d="M436.803 251.808H417.504L416.99 249.062H436.289L436.803 251.808Z" fill="#231F20"/>
<path d="M438.871 262.87H419.572L419.059 260.131H438.358L438.871 262.87Z" fill="#231F20"/>
<path d="M440.938 273.941H421.639L421.125 271.195H440.424L440.938 273.941Z" fill="#231F20"/>
<path d="M443.004 285.003H423.705L423.191 282.264H442.49L443.004 285.003Z" fill="#231F20"/>
<path d="M445.064 296.073H425.765L425.258 293.328H444.557L445.064 296.073Z" fill="#231F20"/>
<path d="M447.13 307.135H427.831L427.324 304.396H446.623L447.13 307.135Z" fill="#231F20"/>
<path d="M449.197 318.206H429.898L429.385 315.461H448.684L449.197 318.206Z" fill="#231F20"/>
<path d="M451.266 329.268H431.967L431.453 326.529H450.752L451.266 329.268Z" fill="#231F20"/>
<path d="M453.332 340.339H434.033L433.52 337.594H452.818L453.332 340.339Z" fill="#231F20"/>
<path d="M455.398 351.409H436.099L435.586 348.664H454.885L455.398 351.409Z" fill="#231F20"/>
<path d="M460.155 229.672V272.372L463.274 296.743C463.274 296.743 460.389 298.068 457.346 297.498C454.303 296.927 448.254 258.012 448.254 258.012L443.912 284.843V297.644C443.912 297.644 438.053 298.918 435.79 297.644C433.52 296.369 435.79 253.669 435.79 253.669L439.949 228.918L460.167 229.672H460.155Z" fill="#F8FAFC"/>
<path d="M460.567 204.3C460.567 204.3 460.269 206.773 455.045 207.476C449.821 208.186 437.775 189.908 437.775 189.908C437.775 189.908 433.311 189.09 430.763 186.808C430.534 186.599 430.3 186.085 430.344 185.781C430.389 185.477 430.509 185.166 430.446 184.862C430.408 184.69 430.319 184.532 430.312 184.354C430.312 184.05 430.585 183.796 430.883 183.727C431.181 183.657 431.492 183.72 431.79 183.777C433.685 184.145 435.613 184.342 437.54 184.361C437.978 184.361 438.466 184.335 438.757 184.012C439.271 183.435 438.77 182.395 439.284 181.818C440.095 181.901 440.628 182.744 440.754 183.549C440.881 184.354 440.742 185.185 440.85 185.99C441.014 187.214 441.737 188.298 442.612 189.173C443.487 190.048 444.52 190.739 445.484 191.506C448.578 193.978 451.019 197.256 454.392 199.329C455.279 198.886 456.116 198.353 456.902 197.744C458.843 199.488 459.774 201.821 460.573 204.3H460.567Z" fill="#F3B6A5"/>
<path d="M398.416 190.898L402.937 198.728C403.45 199.635 404.547 200.028 405.523 199.647L410.646 197.587C411.604 198.278 412.631 198.874 413.708 199.368L414.495 204.802C414.64 205.835 415.528 206.602 416.574 206.59H425.596C426.642 206.59 427.53 205.823 427.669 204.783L428.455 199.368C429.533 198.88 430.56 198.284 431.524 197.587L436.628 199.641C437.61 200.015 438.713 199.616 439.233 198.703L443.735 190.917C444.255 190.011 444.033 188.863 443.221 188.21L438.891 184.824C439.024 183.645 439.024 182.453 438.891 181.268L443.221 177.882C444.045 177.229 444.261 176.069 443.735 175.162L439.227 167.364C438.72 166.457 437.617 166.064 436.64 166.445L431.524 168.499C430.566 167.808 429.539 167.212 428.462 166.717L427.675 161.284C427.53 160.251 426.642 159.49 425.602 159.496H416.58C415.528 159.49 414.64 160.263 414.495 161.303L413.715 166.724C412.637 167.212 411.61 167.808 410.653 168.505L405.549 166.451C404.566 166.077 403.463 166.476 402.943 167.389L398.442 175.169C397.928 176.075 398.144 177.223 398.955 177.876L403.285 181.261C403.152 182.441 403.152 183.633 403.285 184.818L398.955 188.204C398.144 188.85 397.922 189.985 398.429 190.892L398.416 190.898ZM411.268 183.049C411.268 177.635 415.661 173.241 421.075 173.241C426.49 173.241 430.883 177.635 430.883 183.049C430.883 188.464 426.49 192.857 421.075 192.857C415.661 192.851 411.274 188.464 411.268 183.049Z" fill="#E4E4E4"/>
<path d="M398.416 190.898L402.937 198.728C403.45 199.635 404.547 200.028 405.523 199.647L410.646 197.587C411.604 198.278 412.631 198.874 413.708 199.368L414.495 204.802C414.64 205.835 415.528 206.602 416.574 206.59H425.596C426.642 206.59 427.53 205.823 427.669 204.783L428.455 199.368C429.533 198.88 430.56 198.284 431.524 197.587L436.628 199.641C437.61 200.015 438.713 199.616 439.233 198.703L443.735 190.917C444.255 190.011 444.033 188.863 443.221 188.21L438.891 184.824C439.024 183.645 439.024 182.453 438.891 181.268L443.221 177.882C444.045 177.229 444.261 176.069 443.735 175.162L439.227 167.364C438.72 166.457 437.617 166.064 436.64 166.445L431.524 168.499C430.566 167.808 429.539 167.212 428.462 166.717L427.675 161.284C427.53 160.251 426.642 159.49 425.602 159.496H416.58C415.528 159.49 414.64 160.263 414.495 161.303L413.715 166.724C412.637 167.212 411.61 167.808 410.653 168.505L405.549 166.451C404.566 166.077 403.463 166.476 402.943 167.389L398.442 175.169C397.928 176.075 398.144 177.223 398.955 177.876L403.285 181.261C403.152 182.441 403.152 183.633 403.285 184.818L398.955 188.204C398.144 188.85 397.922 189.985 398.429 190.892L398.416 190.898ZM411.268 183.049C411.268 177.635 415.661 173.241 421.075 173.241C426.49 173.241 430.883 177.635 430.883 183.049C430.883 188.464 426.49 192.857 421.075 192.857C415.661 192.851 411.274 188.464 411.268 183.049Z" fill="url(#paint9_linear_9488_1745)"/>
<path d="M395.43 190.365L399.95 198.195C400.464 199.101 401.561 199.495 402.537 199.114L407.66 197.054C408.617 197.745 409.644 198.341 410.722 198.835L411.508 204.269C411.654 205.302 412.542 206.069 413.588 206.056H422.61C423.656 206.056 424.543 205.289 424.683 204.25L425.469 198.835C426.547 198.347 427.574 197.751 428.537 197.054L433.641 199.108C434.624 199.482 435.727 199.082 436.247 198.169L440.748 190.384C441.268 189.477 441.046 188.33 440.235 187.677L435.905 184.291C436.038 183.112 436.038 181.92 435.905 180.734L440.235 177.349C441.059 176.696 441.275 175.536 440.748 174.629L436.241 166.831C435.733 165.924 434.63 165.531 433.654 165.912L428.537 167.966C427.58 167.275 426.553 166.679 425.475 166.184L424.689 160.751C424.543 159.717 423.656 158.957 422.616 158.963H413.594C412.542 158.957 411.654 159.73 411.508 160.77L410.728 166.191C409.651 166.679 408.624 167.275 407.666 167.972L402.563 165.918C401.58 165.544 400.477 165.943 399.957 166.856L395.455 174.635C394.942 175.542 395.157 176.69 395.969 177.343L400.299 180.728C400.166 181.907 400.166 183.099 400.299 184.285L395.969 187.67C395.157 188.317 394.935 189.452 395.443 190.359L395.43 190.365ZM408.281 182.516C408.281 177.102 412.675 172.708 418.089 172.708C423.504 172.708 427.897 177.102 427.897 182.516C427.897 187.93 423.504 192.324 418.089 192.324C412.675 192.318 408.288 187.93 408.281 182.516Z" fill="#E4E4E4"/>
<path d="M458.988 173.895C458.988 173.895 456.332 175.663 455.977 176.836C455.622 178.009 456.116 178.573 454.912 178.643C453.707 178.713 452.68 178.998 452.718 179.176C452.756 179.353 453.035 180.418 453.035 180.418C453.035 180.418 451.158 183.817 451.444 184.666C451.729 185.516 453.853 186.651 455.977 186.581C458.101 186.511 460.085 186.017 460.085 186.017C460.085 186.017 463.344 183.043 463.274 181.769C463.204 180.494 461.575 173.692 458.988 173.907V173.895Z" fill="#F3B6A5"/>
<path d="M455.102 185.559C455.102 185.559 456.186 190.143 455.102 190.942C454.018 191.741 457.936 193.066 459.87 192.451C461.804 191.836 461.994 191.411 461.994 191.411C461.994 191.411 460.529 185.458 460.859 184.139C461.189 182.82 455.096 185.553 455.096 185.553L455.102 185.559Z" fill="#F3B6A5"/>
<path d="M458.633 170.825C458.259 171.142 458.037 171.618 457.942 172.099C457.765 173.012 458.006 173.995 458.583 174.718C458.094 174.699 457.796 175.308 457.885 175.789C457.974 176.271 458.304 176.671 458.5 177.121C458.811 177.824 458.804 178.63 458.627 179.378C458.449 180.126 458.113 180.823 457.777 181.514C458.132 181.673 458.589 181.571 458.842 181.28C458.925 181.185 458.988 181.077 459.096 181.007C459.242 180.918 459.426 180.937 459.584 181.007C460.225 181.273 460.402 182.174 460.072 182.782C459.743 183.391 459.071 183.74 458.399 183.911C458.272 183.943 458.132 183.974 458.044 184.069C457.923 184.196 457.917 184.386 457.923 184.558C457.942 185.23 458.018 185.895 458.158 186.555C458.259 187.024 458.437 187.544 458.874 187.728C459.261 187.442 459.641 187.163 460.028 186.878C460.326 187.487 460.973 188.07 461.619 187.854C462.019 187.721 462.26 187.334 462.501 186.992C463.04 186.225 463.724 185.553 464.498 185.027C465.436 184.393 466.508 183.955 467.363 183.213C468.219 182.472 468.828 181.267 468.429 180.215C468.321 179.936 468.15 179.669 468.143 179.371C468.143 179.181 468.207 178.997 468.257 178.814C468.625 177.495 468.207 176.062 467.452 174.921C466.698 173.78 465.633 172.892 464.574 172.023C463.895 171.465 463.185 170.895 462.342 170.641C461.607 170.426 460.884 170.514 460.136 170.502C459.578 170.502 459.09 170.426 458.627 170.825H458.633Z" fill="#606060"/>
<path d="M461.759 190.409C461.759 190.409 468.283 193.211 468.561 196.99C468.84 200.769 463.172 213.994 463.172 213.994L460.719 232.133C460.719 232.133 447.494 234.402 440.501 232.133L438.611 229.109L441.065 210.78L439.556 209.455L435.777 202.905C435.777 202.905 445.414 191.652 448.793 191.024C452.173 190.396 461.752 190.396 461.752 190.396L461.759 190.409Z" fill="white"/>
<path d="M442.301 297.314C442.301 297.314 443.626 302.652 442.301 303.641C440.976 304.63 438.852 304.871 438.852 304.871C438.852 304.871 434.884 304.021 433.799 304.256C432.715 304.49 426.762 305.435 425.253 303.736C423.744 302.037 426.578 300.807 426.578 300.807C426.578 300.807 435.124 298.962 435.98 297.314C436.83 295.659 442.308 297.314 442.308 297.314H442.301Z" fill="#231F20"/>
<path d="M462.684 296.743C462.684 296.743 464.009 302.082 462.684 303.071C461.359 304.06 459.235 304.301 459.235 304.301C459.235 304.301 455.266 303.451 454.182 303.686C453.098 303.92 447.145 304.865 445.636 303.166C444.127 301.467 446.961 300.237 446.961 300.237C446.961 300.237 455.507 298.392 456.363 296.743C457.213 295.089 462.69 296.743 462.69 296.743H462.684Z" fill="#231F20"/>
<path d="M440.305 210.109C440.305 210.109 440.007 212.581 434.783 213.285C429.559 213.995 417.513 195.717 417.513 195.717C417.513 195.717 413.05 194.899 410.501 192.617C410.273 192.407 410.038 191.894 410.082 191.589C410.127 191.285 410.247 190.974 410.184 190.67C410.146 190.499 410.057 190.34 410.051 190.163C410.051 189.859 410.323 189.605 410.621 189.535C410.919 189.466 411.23 189.529 411.528 189.586C413.424 189.954 415.351 190.15 417.278 190.169C417.716 190.169 418.204 190.144 418.496 189.821C419.009 189.244 418.508 188.204 419.022 187.627C419.833 187.709 420.366 188.553 420.493 189.358C420.62 190.163 420.48 190.993 420.588 191.799C420.753 193.022 421.475 194.106 422.35 194.981C423.225 195.85 424.259 196.547 425.222 197.314C428.316 199.787 430.757 203.065 434.13 205.138C435.018 204.694 435.855 204.162 436.641 203.553C438.581 205.297 439.513 207.63 440.312 210.109H440.305Z" fill="#F3B6A5"/>
<path opacity="0.51" d="M439.126 206.057C439.126 206.057 448.668 197.168 450.405 195.843C452.149 194.518 456.625 193.84 456.625 193.84L468.056 195.361C468.056 195.361 469.698 198.075 466.978 204.054C464.258 210.032 463.047 214.939 463.047 214.939L460.727 232.133L460.162 271.334L463.282 296.751L459.7 298.215L453.062 251.762L448.256 258.026C448.256 258.026 442.892 289.954 443.913 297.651C444.934 305.348 442.892 298.215 442.892 298.215H438.131L441.016 258.394L442.892 245.783L448.25 230.327L452.18 206.063L441.073 210.787L440.299 206.59" fill="url(#paint10_linear_9488_1745)"/>
<defs>
<linearGradient id="paint0_linear_9488_1745" x1="255.846" y1="574.704" x2="260.619" y2="1178.3" gradientUnits="userSpaceOnUse">
<stop stop-color="#0173BF"/>
<stop offset="1" stop-color="#013A5F"/>
</linearGradient>
<linearGradient id="paint1_linear_9488_1745" x1="337.146" y1="281.959" x2="434.363" y2="122.33" gradientUnits="userSpaceOnUse">
<stop stop-color="#221F20"/>
<stop offset="0.2" stop-color="#221F20" stop-opacity="0.69"/>
<stop offset="0.23" stop-color="#221F20" stop-opacity="0.6"/>
<stop offset="0.35" stop-color="#221F20" stop-opacity="0.25"/>
<stop offset="0.52" stop-color="#221F20" stop-opacity="0.06"/>
<stop offset="1" stop-color="#221F20" stop-opacity="0"/>
</linearGradient>
<linearGradient id="paint2_linear_9488_1745" x1="343.258" y1="316.551" x2="430.623" y2="320.488" gradientUnits="userSpaceOnUse">
<stop stop-color="#221F20"/>
<stop offset="0.2" stop-color="#221F20" stop-opacity="0.69"/>
<stop offset="0.23" stop-color="#221F20" stop-opacity="0.6"/>
<stop offset="0.35" stop-color="#221F20" stop-opacity="0.25"/>
<stop offset="0.52" stop-color="#221F20" stop-opacity="0.06"/>
<stop offset="1" stop-color="#221F20" stop-opacity="0"/>
</linearGradient>
<linearGradient id="paint3_linear_9488_1745" x1="406.133" y1="215.365" x2="299.063" y2="302.077" gradientUnits="userSpaceOnUse">
<stop stop-color="#221F20"/>
<stop offset="0.2" stop-color="#221F20" stop-opacity="0.69"/>
<stop offset="0.23" stop-color="#221F20" stop-opacity="0.6"/>
<stop offset="0.35" stop-color="#221F20" stop-opacity="0.25"/>
<stop offset="0.52" stop-color="#221F20" stop-opacity="0.06"/>
<stop offset="1" stop-color="#221F20" stop-opacity="0"/>
</linearGradient>
<linearGradient id="paint4_linear_9488_1745" x1="384.759" y1="235.082" x2="437.964" y2="215.371" gradientUnits="userSpaceOnUse">
<stop stop-color="#221F20"/>
<stop offset="0.2" stop-color="#221F20" stop-opacity="0.69"/>
<stop offset="0.23" stop-color="#221F20" stop-opacity="0.6"/>
<stop offset="0.35" stop-color="#221F20" stop-opacity="0.25"/>
<stop offset="0.52" stop-color="#221F20" stop-opacity="0.06"/>
<stop offset="1" stop-color="#221F20" stop-opacity="0"/>
</linearGradient>
<linearGradient id="paint5_linear_9488_1745" x1="271.894" y1="179.645" x2="329.703" y2="340.58" gradientUnits="userSpaceOnUse">
<stop stop-color="#221F20"/>
<stop offset="0.2" stop-color="#221F20" stop-opacity="0.69"/>
<stop offset="0.23" stop-color="#221F20" stop-opacity="0.6"/>
<stop offset="0.35" stop-color="#221F20" stop-opacity="0.25"/>
<stop offset="0.52" stop-color="#221F20" stop-opacity="0.06"/>
<stop offset="1" stop-color="#221F20" stop-opacity="0"/>
</linearGradient>
<linearGradient id="paint6_linear_9488_1745" x1="351.392" y1="189.421" x2="252.932" y2="197.568" gradientUnits="userSpaceOnUse">
<stop stop-color="white"/>
<stop offset="1" stop-color="white" stop-opacity="0"/>
</linearGradient>
<linearGradient id="paint7_linear_9488_1745" x1="375.908" y1="206.349" x2="409.878" y2="142.302" gradientUnits="userSpaceOnUse">
<stop stop-color="#221F20"/>
<stop offset="0.2" stop-color="#221F20" stop-opacity="0.69"/>
<stop offset="0.23" stop-color="#221F20" stop-opacity="0.6"/>
<stop offset="0.35" stop-color="#221F20" stop-opacity="0.25"/>
<stop offset="0.52" stop-color="#221F20" stop-opacity="0.06"/>
<stop offset="1" stop-color="#221F20" stop-opacity="0"/>
</linearGradient>
<linearGradient id="paint8_linear_9488_1745" x1="262.15" y1="278.802" x2="358.93" y2="335.297" gradientUnits="userSpaceOnUse">
<stop offset="0.2" stop-opacity="0.69"/>
<stop offset="0.32" stop-opacity="0.32"/>
<stop offset="1" stop-opacity="0"/>
</linearGradient>
<linearGradient id="paint9_linear_9488_1745" x1="500.471" y1="135.715" x2="265.676" y2="275.689" gradientUnits="userSpaceOnUse">
<stop stop-color="#221F20"/>
<stop offset="0.08" stop-color="#221F20" stop-opacity="0.69"/>
<stop offset="0.11" stop-color="#221F20" stop-opacity="0.6"/>
<stop offset="0.25" stop-color="#221F20" stop-opacity="0.25"/>
<stop offset="0.45" stop-color="#221F20" stop-opacity="0.06"/>
<stop offset="1" stop-color="#221F20" stop-opacity="0"/>
</linearGradient>
<linearGradient id="paint10_linear_9488_1745" x1="585.688" y1="169.463" x2="195.835" y2="401.887" gradientUnits="userSpaceOnUse">
<stop stop-color="#221F20"/>
<stop offset="0.08" stop-color="#221F20" stop-opacity="0.69"/>
<stop offset="0.11" stop-color="#221F20" stop-opacity="0.6"/>
<stop offset="0.25" stop-color="#221F20" stop-opacity="0.25"/>
<stop offset="0.45" stop-color="#221F20" stop-opacity="0.06"/>
<stop offset="1" stop-color="#221F20" stop-opacity="0"/>
</linearGradient>
</defs>
</svg>
