<svg width="141" height="149" viewBox="0 0 141 149" fill="none" xmlns="http://www.w3.org/2000/svg">
<path d="M80 100C80 94.4772 84.4772 90 90 90H111C116.523 90 121 94.4772 121 100V118C121 123.523 116.523 128 111 128H90C84.4772 128 80 123.523 80 118V100Z" fill="#01E98F"/>
<path d="M20 100C20 94.4772 24.4772 90 30 90H51C56.5228 90 61 94.4772 61 100V118C61 123.523 56.5228 128 51 128H30C24.4772 128 20 123.523 20 118V100Z" fill="#01E98F"/>
<path d="M20 30C20 24.4772 24.4772 20 30 20H51C56.5228 20 61 24.4772 61 30V48C61 53.5228 56.5228 58 51 58H30C24.4772 58 20 53.5228 20 48V30Z" fill="#01E98F"/>
<path d="M80 30C80 24.4772 84.4772 20 90 20H111C116.523 20 121 24.4772 121 30V48C121 53.5228 116.523 58 111 58H90C84.4772 58 80 53.5228 80 48V30Z" fill="#01E98F"/>
</svg>
