<svg width="483" height="213" viewBox="0 0 483 213" fill="none" xmlns="http://www.w3.org/2000/svg">
<path d="M0 30C0 13.4315 13.4315 0 30 0H453C469.569 0 483 13.4315 483 30V213H0V30Z" fill="#ECEEF0"/>
<g filter="url(#filter0_d_9521_3075)">
<path d="M36 38.5C36 36.0147 38.0147 34 40.5 34H473.5C475.985 34 478 36.0147 478 38.5V38.5C478 40.9853 475.985 43 473.5 43H40.5C38.0147 43 36 40.9853 36 38.5V38.5Z" fill="#CFCFCF" fill-opacity="0.7" shape-rendering="crispEdges"/>
</g>
<g filter="url(#filter1_d_9521_3075)">
<path d="M31.5 213C29.567 213 28 211.433 28 209.5L28 43.5C28 41.567 29.567 40 31.5 40V40C33.433 40 35 41.567 35 43.5L35 209.5C35 211.433 33.433 213 31.5 213V213Z" fill="#CFCFCF" fill-opacity="0.7" shape-rendering="crispEdges"/>
</g>
<path d="M28 39C28 36.7909 29.7909 35 32 35H479C481.209 35 483 36.7909 483 39V209C483 211.209 481.209 213 479 213H32C29.7909 213 28 211.209 28 209V39Z" fill="url(#paint0_linear_9521_3075)"/>
<path d="M212.948 96.5413C213.074 95.5438 213.462 94.5942 214.074 93.7962C214.183 93.6472 214.332 93.5328 214.505 93.4663C214.936 93.3386 215.327 93.7456 215.574 94.1233C217 96.3232 217.606 98.9353 218.165 101.497C218.83 104.561 219.487 107.649 219.487 110.783C219.503 110.961 219.476 111.139 219.404 111.302C219.25 111.528 219.016 111.685 218.747 111.743C217.718 112.073 215.71 112.48 214.904 111.496C214.191 110.626 214.209 108.586 213.986 107.551C213.217 103.939 212.302 100.231 212.951 96.5386L212.948 96.5413Z" fill="#F8FAFC"/>
<path d="M249.222 87.9277C249.621 87.9942 269.489 96.3972 269.489 96.3972C269.489 96.3972 269.952 104.438 269.888 104.236C269.824 104.034 216.403 109.221 216.472 108.756C216.542 108.29 215.738 98.6449 215.738 98.6449L233.111 89.8749L249.222 87.9277Z" fill="#F8FAFC"/>
<path d="M248.029 89.8564C248.428 89.9256 268.644 98.5945 268.644 98.5945C268.644 98.5945 269.958 104.436 269.886 104.236C269.814 104.037 216.401 109.221 216.47 108.756C216.539 108.29 215.869 100.837 215.869 100.837L233.292 91.8701L248.029 89.8591V89.8564Z" fill="url(#paint1_linear_9521_3075)"/>
<path d="M265.986 92.2745C266.111 91.277 266.496 90.33 267.106 89.5294C267.215 89.3804 267.366 89.266 267.539 89.1995C267.97 89.0692 268.361 89.4788 268.608 89.8565C270.034 92.0537 270.641 94.6685 271.199 97.2301C271.856 100.292 272.513 103.383 272.535 106.516C272.551 106.692 272.521 106.87 272.452 107.032C272.301 107.261 272.064 107.418 271.795 107.474C270.766 107.804 268.755 108.211 267.951 107.232C267.239 106.357 267.257 104.322 267.031 103.287C266.249 99.6746 265.334 95.9666 265.986 92.2745Z" fill="#F8FAFC"/>
<path opacity="0.18" d="M242.385 181.861C242.848 179.251 240.851 178.528 239.207 176.456C237.563 174.383 235.592 172.466 234.645 169.978C234.102 168.542 233.879 166.872 232.73 165.853C231.953 165.167 230.873 164.901 230.117 164.19C228.529 162.698 229.056 160.115 229.607 158.006C230.157 155.896 230.402 153.186 228.577 151.997C227.367 151.212 225.747 151.491 224.414 150.938C222.656 150.201 221.784 148.148 221.728 146.243C221.672 144.339 222.241 142.477 222.51 140.588C223.906 130.89 217.453 121.354 218.778 111.661C217.943 111.61 216.868 111.53 216.035 111.482C216.123 118.385 216.208 125.346 214.894 132.124C213.58 138.902 210.742 145.57 205.762 150.353C203.853 152.183 201.44 154.237 201.818 156.854C202.041 158.466 203.339 160.009 202.805 161.541C202.555 162.249 201.956 162.765 201.408 163.278C199.714 164.847 198.33 166.725 197.338 168.811C195.458 172.814 194.149 179.331 190.436 181.741C207.119 182.701 225.691 180.892 242.385 181.858V181.861Z" fill="#F8FAFC"/>
<path opacity="0.18" d="M304.673 182.874C303.452 182.661 302.217 182.433 301.098 181.903C299.978 181.374 298.97 180.494 298.547 179.328C298.27 178.562 298.259 177.73 298.14 176.924C297.879 175.195 296.783 173.333 295.041 173.181C294.131 173.101 293.168 173.503 292.33 173.139C291.859 172.934 291.516 172.516 291.24 172.085C290.048 170.229 289.774 167.949 289.053 165.864C288.335 163.778 286.845 161.65 284.653 161.4C283.725 161.294 282.775 161.544 281.858 161.368C280.022 161.022 278.884 159.078 278.671 157.224C278.458 155.37 278.921 153.51 279.041 151.646C279.147 149.965 278.972 148.273 278.525 146.648C278.112 145.15 277.299 143.711 277.224 142.136C277.083 138.942 280.182 135.947 279.15 132.933C278.535 131.124 276.644 130.076 275.649 128.448C274.992 127.36 274.748 126.067 274.524 124.809L271.359 106.812C270.59 106.992 269.545 107.817 268.776 107.998C270.138 122.748 271.377 138.285 265.233 151.763C263.964 154.545 262.315 157.282 259.772 158.995C258.192 160.054 256.354 160.639 254.585 161.355C251.739 162.483 248.924 163.986 247.041 166.398C245.158 168.811 244.41 172.317 245.908 174.987C246.99 176.924 245.682 179.786 245.809 181.999C250.765 181.917 255.723 181.941 260.679 182.018C268.143 182.137 275.604 182.379 283.063 182.622C286.816 182.744 290.569 182.866 294.323 182.973C296.185 183.026 298.047 183.074 299.909 183.119C300.733 183.138 301.558 183.167 302.382 183.18C303.034 183.188 304.119 182.781 304.675 182.877L304.673 182.874Z" fill="#F8FAFC"/>
<path d="M230.623 108.282C231.232 108.756 231.783 109.428 232.557 109.476C232.926 109.471 233.291 109.389 233.626 109.234C234.049 109.128 234.416 108.873 234.669 108.519C234.749 108.343 234.799 108.154 234.818 107.96C235.036 106.263 234.786 104.539 234.094 102.973C233.852 102.419 233.985 100.826 233.437 100.563C232.889 100.299 231.793 101.411 231.184 101.499C231.123 101.507 231.062 101.523 231.006 101.55C230.809 101.659 230.825 101.941 230.865 102.161C231.115 103.515 231.232 104.888 231.219 106.263C231.181 105.808 230.66 105.548 230.205 105.55C229.495 105.55 228.388 106.242 228.684 107.101C228.785 107.391 229.093 107.465 229.341 107.574C229.796 107.755 230.227 107.995 230.623 108.285V108.282Z" fill="#FFAA71"/>
<path d="M230.623 108.282C231.232 108.756 231.783 109.428 232.557 109.476C232.926 109.471 233.291 109.389 233.626 109.234C234.049 109.128 234.416 108.873 234.669 108.519C234.749 108.343 234.799 108.154 234.818 107.96C235.036 106.263 234.786 104.539 234.094 102.973C233.852 102.419 233.985 100.826 233.437 100.563C232.889 100.299 231.793 101.411 231.184 101.499C231.123 101.507 231.062 101.523 231.006 101.55C230.809 101.659 230.825 101.941 230.865 102.161C231.115 103.515 231.232 104.888 231.219 106.263C231.181 105.808 230.66 105.548 230.205 105.55C229.495 105.55 228.388 106.242 228.684 107.101C228.785 107.391 229.093 107.465 229.341 107.574C229.796 107.755 230.227 107.995 230.623 108.285V108.282Z" fill="url(#paint2_linear_9521_3075)"/>
<path d="M237.712 75.1276C238.935 74.7233 240.26 74.7605 241.46 75.226C241.742 75.3271 242.01 75.4627 242.255 75.633C243.199 76.2687 244.067 77.1119 244.386 78.1999C244.521 78.6574 244.551 79.1442 244.697 79.5964C244.814 80.0672 245.157 80.4502 245.612 80.6231C245.359 80.9796 244.936 81.1738 244.5 81.1392C244.817 81.6393 245.181 82.1074 245.585 82.5357C245.096 82.6368 244.585 82.5915 244.122 82.4053C244.263 82.7432 244.333 83.1076 244.322 83.4747C243.92 83.4401 243.529 83.3177 243.178 83.1209C243.101 83.3762 242.851 83.5412 242.588 83.5119C242.33 83.4773 242.085 83.3816 241.872 83.2353L240.747 82.5782C239.888 82.134 239.103 81.5621 238.414 80.8865C238.002 80.4157 237.648 79.897 237.366 79.3384C237.1 78.8463 235.666 78.3355 235.624 77.7636C235.536 76.5906 236.722 75.3244 237.714 75.1302L237.712 75.1276Z" fill="#231F20"/>
<path d="M233.339 101.116L233.815 103.039C233.911 103.451 234.03 103.861 234.177 104.257C234.647 105.457 235.584 106.473 235.821 107.739C235.863 107.952 235.908 108.205 236.11 108.293C236.235 108.332 236.368 108.332 236.491 108.293C237.675 108.029 238.906 108.176 240.106 108.061C241.008 107.947 241.901 107.774 242.779 107.54C245.503 106.904 248.267 106.465 251.054 106.226C251.336 106.199 251.677 106.141 251.781 105.877C251.815 105.771 251.826 105.659 251.81 105.547C251.648 103.02 250.496 100.685 249.695 98.283C249.575 98.0622 249.655 97.7882 249.876 97.6685C249.911 97.6499 249.945 97.6366 249.985 97.626C251.786 96.7216 253.496 95.6416 255.087 94.4047L253.068 91.3271C251.9 89.5449 250.629 87.6722 248.687 86.7918C247.474 86.2465 246.109 86.1348 244.782 86.1348C243.351 86.1348 241.925 86.2704 240.507 86.3981C239.606 86.4353 238.709 86.5524 237.829 86.7466C235.427 87.4036 231.788 89.3214 230.926 91.2233C228.625 96.2747 229.74 101.065 229.532 101.358C229.442 101.454 229.373 101.565 229.325 101.688C229.256 101.956 229.546 102.209 229.822 102.222C230.102 102.206 230.373 102.119 230.607 101.97C231.458 101.552 232.384 101.307 233.333 101.254C233.32 101.315 233.32 101.044 233.339 101.119V101.116Z" fill="white"/>
<path d="M243.396 97.0007C243.404 97.6444 243.369 98.2908 243.295 98.9292C243.295 99.0462 243.258 99.1606 243.194 99.259C243.048 99.392 242.859 99.4665 242.662 99.4692C240.419 99.7565 238.145 99.682 235.879 99.6128C235.78 99.6128 235.685 99.5969 235.592 99.5596C235.493 99.4984 235.416 99.408 235.373 99.2989C235.166 98.8574 234.908 97.9849 235.419 97.6258C235.929 97.2667 237.134 97.421 237.72 97.3838L243.393 96.998L243.396 97.0007Z" fill="#F8FAFC"/>
<path d="M243.396 97.0007C243.404 97.6444 243.369 98.2908 243.295 98.9292C243.295 99.0462 243.258 99.1606 243.194 99.259C243.048 99.392 242.859 99.4665 242.662 99.4692C240.419 99.7565 238.145 99.682 235.879 99.6128C235.78 99.6128 235.685 99.5969 235.592 99.5596C235.493 99.4984 235.416 99.408 235.373 99.2989C235.166 98.8574 234.908 97.9849 235.419 97.6258C235.929 97.2667 237.134 97.421 237.72 97.3838L243.393 96.998L243.396 97.0007Z" fill="url(#paint3_linear_9521_3075)"/>
<path d="M236.906 107.632C236.906 107.478 236.667 107.507 236.539 107.59C232.595 110.101 228.82 112.849 225.035 115.565C224.149 116.16 223.327 116.844 222.58 117.605C221.856 118.398 221.266 119.39 221.266 120.462C221.279 121.05 221.401 121.632 221.627 122.175C223.088 126.08 226.623 128.75 229.153 132.075C230.416 133.719 231.477 135.61 233.18 136.805C233.51 137.039 233.887 137.27 234.015 137.656C233.975 137.696 234.401 137.555 234.361 137.595C235.709 136.775 236.944 135.781 238.032 134.637C236.84 133.621 235.741 132.503 234.744 131.296C234.204 130.684 233.667 130.072 233.185 129.415C232.374 128.25 231.653 127.024 231.028 125.747C230.552 124.832 229.831 124.103 230.123 123.116C230.541 121.707 234.281 119.773 236.436 118.515C238.521 117.291 242.024 115.405 241.936 115.445C241.936 115.445 239.995 124.031 244.615 130.894C249.238 137.757 255.492 148.142 255.848 148.025C256.205 147.908 259.405 143.399 259.405 143.399L250.632 128.458C250.632 128.458 253.151 109.979 251.06 106.175L236.912 107.627L236.906 107.632Z" fill="#231F20"/>
<path d="M236.906 107.632C236.906 107.478 236.667 107.507 236.539 107.59C232.595 110.101 228.82 112.849 225.035 115.565C224.149 116.16 223.327 116.844 222.58 117.605C221.856 118.398 221.266 119.39 221.266 120.462C221.279 121.05 221.401 121.632 221.627 122.175C223.088 126.08 226.623 128.75 229.153 132.075C230.416 133.719 231.477 135.61 233.18 136.805C233.51 137.039 233.887 137.27 234.015 137.656C233.975 137.696 234.401 137.555 234.361 137.595C235.709 136.775 236.944 135.781 238.032 134.637C236.84 133.621 235.741 132.503 234.744 131.296C234.204 130.684 233.667 130.072 233.185 129.415C232.374 128.25 231.653 127.024 231.028 125.747C230.552 124.832 229.831 124.103 230.123 123.116C230.541 121.707 234.281 119.773 236.436 118.515C238.521 117.291 242.024 115.405 241.936 115.445C241.936 115.445 239.995 124.031 244.615 130.894C249.238 137.757 255.492 148.142 255.848 148.025C256.205 147.908 259.405 143.399 259.405 143.399L250.632 128.458C250.632 128.458 253.151 109.979 251.06 106.175L236.912 107.627L236.906 107.632Z" fill="url(#paint4_linear_9521_3075)"/>
<path d="M236.358 139.095C236.478 140.699 236.648 142.3 236.863 143.894C236.908 144.224 236.988 144.607 237.281 144.764C237.576 144.878 237.911 144.827 238.161 144.633C238.752 144.224 239.193 143.628 239.414 142.944C239.63 142.263 239.768 141.561 239.829 140.851L240.183 138.002C240.233 137.587 240.265 137.113 239.975 136.815C239.685 136.518 239.199 136.534 238.792 136.424C238.167 136.257 237.693 135.767 237.254 135.294C236.9 135.704 235.775 136.512 235.799 137.06C235.799 137.353 236.108 137.696 236.19 137.981C236.283 138.348 236.339 138.72 236.358 139.098V139.095Z" fill="#231F20"/>
<path d="M257.577 148.044C257.702 148.342 257.779 148.655 257.814 148.977C258.003 150.012 258.245 151.036 258.54 152.044C258.609 152.369 258.734 152.68 258.904 152.965C259.083 153.252 259.391 153.436 259.729 153.449C260.282 153.449 260.625 152.858 260.841 152.35C261.272 151.414 261.559 150.416 261.689 149.392C261.814 148.368 261.61 147.333 261.104 146.434C261.022 146.277 260.899 146.144 260.75 146.049C260.546 145.974 260.33 145.924 260.112 145.905C259.527 145.761 259.173 145.166 258.649 144.87C258.598 144.836 258.54 144.814 258.479 144.814C258.383 144.83 258.295 144.884 258.239 144.963C257.771 145.469 257.351 146.019 256.989 146.607C256.75 146.998 256.681 147.052 257.018 147.36C257.247 147.552 257.436 147.786 257.577 148.046V148.044Z" fill="#231F20"/>
<path d="M242.168 86.592C241.937 87.9832 241.211 89.2414 240.123 90.1378C239.734 90.4783 239.274 90.723 238.774 90.8507C238.271 90.9757 237.739 90.8773 237.314 90.582C236.965 90.2788 236.71 89.8824 236.577 89.4382C236.548 89.3558 236.518 89.2707 236.492 89.1882C236.319 88.5897 236.513 87.946 236.992 87.5443C237.056 87.4858 237.112 87.4193 237.16 87.3475C237.189 87.2969 237.21 87.2437 237.226 87.1852C237.431 86.4617 237.077 85.9057 237.008 85.278C237.008 84.9375 237.154 84.6157 237.41 84.3896C237.992 83.6926 238.774 83.1925 239.652 82.9531C239.766 82.9212 239.886 82.9079 240.003 82.9132C240.719 82.9452 240.852 83.5703 240.931 84.089C240.99 84.4773 241.048 84.8604 241.104 85.2487C241.134 85.5679 241.221 85.8765 241.368 86.1638C241.527 86.451 241.838 86.616 242.166 86.5867L242.168 86.592Z" fill="#FFAA71"/>
<path d="M240.362 83.1074C240.303 83.8895 240.12 84.6555 239.817 85.3791C238.92 87.3262 237.167 87.3528 237.167 87.3528C237.197 87.3022 237.218 87.249 237.234 87.1905C237.439 86.467 237.085 85.9111 237.016 85.2833L240.362 83.1074Z" fill="url(#paint5_linear_9521_3075)"/>
<path d="M234.311 81.8338C234.103 82.2487 233.96 82.6903 233.882 83.1478C233.819 83.7969 234.026 84.4432 234.457 84.9327C234.893 85.4195 235.513 85.6988 236.167 85.7041C236.593 85.6961 237.016 85.6057 237.41 85.4434C238.516 85.0258 239.5 84.3315 240.266 83.4324C240.474 83.7091 240.82 83.8447 241.16 83.7809C241.493 83.7091 241.796 83.5415 242.035 83.2968C242.267 83.1212 242.405 82.8499 242.41 82.56C242.368 82.1237 241.857 81.9189 241.424 81.8072C241.788 81.5119 242.089 81.1475 242.312 80.7352C242.671 79.868 242.49 78.8732 241.846 78.1896C241.192 77.5299 240.298 77.1681 239.37 77.1841C238.867 77.1841 238.367 77.2666 237.864 77.3091C237.42 77.3198 236.979 77.3863 236.55 77.506C235.994 77.7028 235.92 78.1151 235.699 78.6232L234.311 81.8285V81.8338Z" fill="#FFAA71"/>
<path d="M245.96 106.66H244.444C244.285 106.521 244.149 106.354 244.045 106.167C242.029 102.683 242.327 86.8186 242.931 86.1137C243.465 85.4753 245.367 85.5392 245.955 85.5738H246.133L247.038 86.1297C245 90.4416 245.96 106.66 245.96 106.66Z" fill="#F8FAFC"/>
<path d="M245.001 106.165H244.049C242.033 102.68 242.331 86.8157 242.935 86.1108C243.469 85.4724 245.371 85.5363 245.959 85.5708L246.076 85.6427C244.038 89.9412 245.001 106.162 245.001 106.162V106.165Z" fill="url(#paint6_linear_9521_3075)"/>
<path d="M247.753 109.446C246.761 109.446 245.843 108.922 245.338 108.069L239.597 98.434C239.456 98.1707 239.555 97.8409 239.821 97.6999C240.068 97.5695 240.374 97.6467 240.528 97.8781L246.285 107.521C246.638 108.119 247.317 108.446 248.003 108.348C251.924 107.819 253.882 107.438 254.485 107.241V105.829C254.475 105.528 254.709 105.278 255.007 105.268C255.307 105.257 255.557 105.491 255.568 105.792C255.568 105.927 255.611 107.106 255.568 107.606C255.526 108.106 255.265 108.297 252.544 108.768C251.105 109.018 249.365 109.266 248.163 109.425C248.027 109.441 247.889 109.449 247.753 109.449V109.446Z" fill="#F8FAFC"/>
<path d="M231.445 111.208C231.262 111.208 231.081 111.158 230.919 111.067C230.45 110.748 230.126 110.256 230.022 109.7L227.36 100.068C227.28 99.7782 227.45 99.4803 227.74 99.4005C228.03 99.3207 228.328 99.491 228.408 99.7809L231.068 109.413C231.206 109.913 231.397 110.094 231.453 110.123C233.209 109.61 234.01 109.264 234.273 109.107C234.329 108.312 234.547 105.939 234.555 105.819C234.581 105.521 234.847 105.3 235.145 105.327C235.443 105.354 235.664 105.62 235.637 105.918C235.544 106.936 235.363 108.961 235.347 109.33C235.329 109.777 234.954 110.059 233.802 110.493C233.121 110.745 232.307 110.995 231.741 111.15C231.645 111.184 231.546 111.203 231.445 111.208Z" fill="#F8FAFC"/>
<path d="M247.755 109.493C246.763 109.493 245.845 108.971 245.34 108.117L239.597 98.4829C239.45 98.2222 239.543 97.8897 239.804 97.7434C240.051 97.6051 240.365 97.6822 240.522 97.9189L246.265 107.553C246.619 108.149 247.295 108.474 247.981 108.381C251.907 107.851 253.862 107.471 254.466 107.274V105.856C254.455 105.556 254.689 105.306 254.99 105.295C255.291 105.284 255.541 105.519 255.551 105.819C255.551 105.955 255.597 107.133 255.551 107.633C255.506 108.133 255.248 108.325 252.527 108.796C251.082 109.046 249.348 109.293 248.146 109.453C248.016 109.474 247.885 109.485 247.755 109.485V109.493Z" fill="url(#paint7_linear_9521_3075)"/>
<path d="M247.754 109.405C246.762 109.405 245.844 108.883 245.339 108.03L239.598 98.395C239.433 98.1449 239.5 97.8098 239.75 97.6422C240 97.4773 240.335 97.5438 240.503 97.7938C240.513 97.8071 240.521 97.8231 240.529 97.839L246.272 107.471C246.626 108.069 247.304 108.397 247.991 108.303C251.911 107.771 253.869 107.388 254.473 107.192V105.779C254.462 105.484 254.691 105.237 254.986 105.221C255.287 105.213 255.537 105.447 255.548 105.747C255.548 105.878 255.59 107.061 255.548 107.561C255.505 108.061 255.244 108.248 252.523 108.721C251.084 108.971 249.344 109.219 248.142 109.378C248.014 109.394 247.884 109.405 247.754 109.405Z" fill="url(#paint8_linear_9521_3075)"/>
<path d="M231.437 111.208C231.253 111.208 231.07 111.157 230.91 111.067C230.442 110.747 230.118 110.255 230.009 109.699L227.349 100.067C227.263 99.7802 227.428 99.4796 227.716 99.3945C228.003 99.3094 228.304 99.4743 228.389 99.7616C228.389 99.7669 228.391 99.7722 228.394 99.7802L231.057 109.412C231.099 109.686 231.235 109.936 231.437 110.122C233.195 109.609 233.999 109.263 234.262 109.106C234.318 108.311 234.536 105.938 234.544 105.818C234.57 105.52 234.836 105.3 235.134 105.326C235.432 105.353 235.653 105.619 235.626 105.917C235.533 106.936 235.35 108.96 235.337 109.33C235.318 109.776 234.943 110.058 233.788 110.492C233.11 110.745 232.296 110.995 231.73 111.149C231.634 111.184 231.535 111.202 231.434 111.208H231.437Z" fill="url(#paint9_linear_9521_3075)"/>
<g opacity="0.69">
<path d="M231.498 111.19C231.315 111.19 231.134 111.139 230.972 111.049C230.503 110.729 230.179 110.237 230.07 109.681L227.41 100.047C227.335 99.7568 227.508 99.4616 227.798 99.3871C228.08 99.3153 228.37 99.4775 228.455 99.7595L231.118 109.394C231.163 109.665 231.296 109.915 231.498 110.104C233.257 109.588 234.06 109.245 234.323 109.085C234.379 108.29 234.597 105.917 234.605 105.798C234.632 105.5 234.898 105.279 235.196 105.306C235.494 105.332 235.714 105.598 235.688 105.896C235.595 106.915 235.411 108.939 235.398 109.309C235.379 109.756 235.004 110.038 233.852 110.469C233.171 110.724 232.357 110.974 231.791 111.126C231.695 111.163 231.597 111.184 231.496 111.192L231.498 111.19Z" fill="url(#paint10_linear_9521_3075)"/>
</g>
<path d="M229.809 101.911C230.064 101.911 230.32 101.965 230.556 102.063C230.796 102.164 230.971 102.372 231.035 102.622C231.08 102.856 230.995 103.106 231.078 103.329C231.16 103.553 231.315 103.659 231.373 103.835C231.485 104.164 231.195 104.545 231.291 104.891C231.333 105.045 231.448 105.173 231.487 105.332C231.517 105.481 231.498 105.638 231.434 105.776C231.104 106.63 230.072 107.027 229.152 107C228.612 107.013 228.088 106.822 227.686 106.465C227.388 106.117 227.197 105.689 227.133 105.236C227.011 104.664 226.947 104.082 226.941 103.497C226.928 101.885 228.5 101.853 229.804 101.917L229.809 101.911Z" fill="#FFAA71"/>
<path d="M254.383 94.9766C254.383 94.9766 258.913 103.616 257.625 105.01C256.338 106.404 246.025 105.39 246.025 105.39C245.089 105.345 244.352 106.157 243.424 106.284C242.735 106.372 242.056 106.066 241.668 105.492C241.569 105.287 241.423 105.109 241.245 104.973C241.147 104.917 241.027 104.898 240.915 104.848C240.495 104.651 240.423 104.084 240.436 103.619C240.45 103.528 240.436 103.438 240.391 103.358C240.354 103.313 240.311 103.276 240.263 103.247C239.989 102.983 239.923 102.568 240.101 102.233C240.29 101.909 240.585 101.661 240.939 101.536C241.269 101.395 241.647 101.323 241.995 101.206C242.461 101.047 242.892 100.807 243.275 100.496C243.525 100.291 243.83 100.041 244.134 100.166C244.243 100.217 244.341 100.294 244.421 100.387L245.408 101.4C245.639 101.709 246.012 101.877 246.395 101.845L249.85 101.97C250.6 102.044 251.358 101.975 252.082 101.765L249.637 98.3601C249.549 98.2351 249.456 98.0808 249.52 97.9398C249.565 97.8653 249.632 97.8041 249.712 97.7669C251.292 96.804 252.832 95.9235 254.393 94.9766H254.383Z" fill="#FFAA71"/>
<path d="M241.394 82.2859C241.487 82.2593 241.586 82.2726 241.671 82.3231C241.793 82.3683 241.892 82.4588 241.948 82.5758C241.98 82.7593 241.918 82.9455 241.783 83.0732C241.634 83.286 241.402 83.427 241.144 83.4616C240.926 83.4669 240.732 83.3339 240.652 83.1317C240.583 82.9243 240.687 82.6982 240.889 82.6157C240.985 82.5891 241.067 82.6157 241.155 82.5439C241.243 82.4721 241.283 82.3337 241.394 82.2885V82.2859Z" fill="#FFAA71"/>
<path d="M236.907 107.633L236.173 107.768L235.718 107.851L233.782 101.374C230.228 95.3329 231.654 88.8824 232.218 88.2253C232.449 87.9514 233.085 87.7412 233.75 87.5896C234.38 87.446 235.019 87.3342 235.66 87.2598C233.88 91.1779 236.905 107.633 236.905 107.633H236.907Z" fill="#F8FAFC"/>
<path d="M236.181 107.766L235.726 107.848L233.789 101.371C230.236 95.3305 231.662 88.88 232.225 88.223C232.457 87.949 233.093 87.7389 233.758 87.5872C234.423 87.4356 234.939 87.417 234.939 87.417C233.18 91.266 236.096 107.303 236.181 107.766Z" fill="url(#paint11_linear_9521_3075)"/>
<path d="M251.043 96.876C251.043 96.876 254.128 100.951 253.607 101.478C253.085 102.004 251.742 101.941 251.742 101.941C251.862 101.683 251.827 101.379 251.654 101.156C251.362 100.72 249.324 97.8682 249.324 97.8682L251.043 96.876Z" fill="#FFAA71"/>
<defs>
<filter id="filter0_d_9521_3075" x="26" y="25" width="452" height="18" filterUnits="userSpaceOnUse" color-interpolation-filters="sRGB">
<feFlood flood-opacity="0" result="BackgroundImageFix"/>
<feColorMatrix in="SourceAlpha" type="matrix" values="0 0 0 0 0 0 0 0 0 0 0 0 0 0 0 0 0 0 127 0" result="hardAlpha"/>
<feOffset dx="-6" dy="-5"/>
<feGaussianBlur stdDeviation="2"/>
<feComposite in2="hardAlpha" operator="out"/>
<feColorMatrix type="matrix" values="0 0 0 0 0.592157 0 0 0 0 0.580392 0 0 0 0 0.580392 0 0 0 0.25 0"/>
<feBlend mode="normal" in2="BackgroundImageFix" result="effect1_dropShadow_9521_3075"/>
<feBlend mode="normal" in="SourceGraphic" in2="effect1_dropShadow_9521_3075" result="shape"/>
</filter>
<filter id="filter1_d_9521_3075" x="18" y="32" width="17" height="181" filterUnits="userSpaceOnUse" color-interpolation-filters="sRGB">
<feFlood flood-opacity="0" result="BackgroundImageFix"/>
<feColorMatrix in="SourceAlpha" type="matrix" values="0 0 0 0 0 0 0 0 0 0 0 0 0 0 0 0 0 0 127 0" result="hardAlpha"/>
<feOffset dx="-6" dy="-4"/>
<feGaussianBlur stdDeviation="2"/>
<feComposite in2="hardAlpha" operator="out"/>
<feColorMatrix type="matrix" values="0 0 0 0 0.593099 0 0 0 0 0.580629 0 0 0 0 0.580629 0 0 0 0.25 0"/>
<feBlend mode="normal" in2="BackgroundImageFix" result="effect1_dropShadow_9521_3075"/>
<feBlend mode="normal" in="SourceGraphic" in2="effect1_dropShadow_9521_3075" result="shape"/>
</filter>
<linearGradient id="paint0_linear_9521_3075" x1="483" y1="124" x2="28" y2="124" gradientUnits="userSpaceOnUse">
<stop stop-color="#00396D"/>
<stop offset="1" stop-color="#65ADF1"/>
</linearGradient>
<linearGradient id="paint1_linear_9521_3075" x1="240.732" y1="83.3315" x2="247.808" y2="150.292" gradientUnits="userSpaceOnUse">
<stop stop-color="#231F20" stop-opacity="0"/>
<stop offset="1" stop-color="#231F20"/>
</linearGradient>
<linearGradient id="paint2_linear_9521_3075" x1="231.386" y1="106.053" x2="240.313" y2="100.246" gradientUnits="userSpaceOnUse">
<stop stop-color="#231F20" stop-opacity="0"/>
<stop offset="1" stop-color="#231F20"/>
</linearGradient>
<linearGradient id="paint3_linear_9521_3075" x1="239.076" y1="96.2133" x2="239.89" y2="102.853" gradientUnits="userSpaceOnUse">
<stop stop-color="#231F20" stop-opacity="0"/>
<stop offset="1" stop-color="#231F20"/>
</linearGradient>
<linearGradient id="paint4_linear_9521_3075" x1="235.302" y1="134.831" x2="253.997" y2="122.773" gradientUnits="userSpaceOnUse">
<stop stop-color="#231F20" stop-opacity="0"/>
<stop offset="1" stop-color="#231F20"/>
</linearGradient>
<linearGradient id="paint5_linear_9521_3075" x1="236.351" y1="83.7272" x2="257.064" y2="96.6388" gradientUnits="userSpaceOnUse">
<stop stop-color="#231F20" stop-opacity="0"/>
<stop offset="1" stop-color="#231F20"/>
</linearGradient>
<linearGradient id="paint6_linear_9521_3075" x1="246.153" y1="90.1647" x2="238.583" y2="110.78" gradientUnits="userSpaceOnUse">
<stop stop-color="#231F20" stop-opacity="0"/>
<stop offset="1" stop-color="#231F20"/>
</linearGradient>
<linearGradient id="paint7_linear_9521_3075" x1="241.908" y1="106.803" x2="258.419" y2="95.4451" gradientUnits="userSpaceOnUse">
<stop stop-color="#231F20" stop-opacity="0"/>
<stop offset="1" stop-color="#231F20"/>
</linearGradient>
<linearGradient id="paint8_linear_9521_3075" x1="245.229" y1="104.061" x2="242.729" y2="105.401" gradientUnits="userSpaceOnUse">
<stop offset="0.02" stop-color="white" stop-opacity="0"/>
<stop offset="0.58" stop-color="white" stop-opacity="0.39"/>
<stop offset="0.68" stop-color="white" stop-opacity="0.68"/>
<stop offset="1" stop-color="white"/>
</linearGradient>
<linearGradient id="paint9_linear_9521_3075" x1="226.053" y1="107.053" x2="242.652" y2="99.6312" gradientUnits="userSpaceOnUse">
<stop stop-color="#231F20" stop-opacity="0"/>
<stop offset="1" stop-color="#231F20"/>
</linearGradient>
<linearGradient id="paint10_linear_9521_3075" x1="230.525" y1="105.064" x2="228.78" y2="105.526" gradientUnits="userSpaceOnUse">
<stop offset="0.02" stop-color="white" stop-opacity="0"/>
<stop offset="0.58" stop-color="white" stop-opacity="0.39"/>
<stop offset="0.68" stop-color="white" stop-opacity="0.68"/>
<stop offset="1" stop-color="white"/>
</linearGradient>
<linearGradient id="paint11_linear_9521_3075" x1="240.596" y1="93.7212" x2="219.343" y2="107.872" gradientUnits="userSpaceOnUse">
<stop stop-color="#231F20" stop-opacity="0"/>
<stop offset="1" stop-color="#231F20"/>
</linearGradient>
</defs>
</svg>
