<svg width="719" height="517" viewBox="0 0 719 517" fill="none" xmlns="http://www.w3.org/2000/svg">
<path d="M0 4C0 1.79086 1.79086 0 4 0H715C717.209 0 719 1.79086 719 4V512.46C719 514.669 717.209 516.46 715 516.46H3.99998C1.79084 516.46 0 514.669 0 512.46V4Z" fill="url(#paint0_linear_9527_4140)"/>
<path opacity="0.18" d="M500.799 340.617C483.053 374.447 449.635 382.689 413.858 376.717C399.15 374.257 384.53 370.447 369.751 368.976C364.476 368.418 359.17 368.247 353.869 368.469C343.282 368.957 332.859 371.296 322.303 372.139C293.107 374.257 264.253 364.734 242.057 345.645C235.102 339.641 229.016 332.711 223.956 325.046C186.829 268.43 220.203 194.03 275.761 164.187C286.621 158.355 298.122 154.037 308.95 148.128C323.469 140.203 336.732 129.457 351.923 123.282C403.455 102.328 442.509 138.498 458.093 184.678C464.566 203.87 469.454 224.056 479.972 240.99C490.763 258.362 507.494 272.557 511.209 293.238C514.05 309.082 508.521 325.896 500.812 340.617H500.799Z" fill="#F8FAFC"/>
<path opacity="0.18" d="M427.534 320.977L405.775 340.047L369.745 368.977C364.47 368.419 359.163 368.248 353.863 368.47C343.275 368.958 332.852 371.297 322.296 372.14C293.1 374.258 264.247 364.735 242.051 345.646L304.608 341.125H331.381L343.922 321.319L427.527 320.977H427.534Z" fill="#F8FAFC"/>
<path d="M290.805 343.375C290.634 343.933 290.697 344.535 290.983 345.042C291.433 345.473 292.042 345.695 292.663 345.644C297.05 345.568 301.273 343.971 304.614 341.124C305.432 340.471 306.281 339.583 306.104 338.556C305.964 337.922 305.52 337.402 304.918 337.162C304.328 336.921 303.694 336.8 303.06 336.806C299.903 336.749 297.145 338.062 294.153 338.626C291.598 339.064 291.255 340.813 290.805 343.368V343.375Z" fill="#473F47"/>
<path d="M317.625 343.375C317.454 343.933 317.517 344.541 317.815 345.042C318.259 345.48 318.868 345.695 319.483 345.644C323.876 345.568 328.105 343.971 331.446 341.124C332.264 340.471 333.126 339.583 332.949 338.556C332.809 337.922 332.365 337.402 331.763 337.162C331.18 336.921 330.552 336.8 329.918 336.806C326.761 336.749 324.003 338.062 320.998 338.626C318.31 339.064 318.018 340.813 317.625 343.368V343.375Z" fill="#473F47"/>
<path d="M325.067 339.489C324.712 340.022 323.622 340.117 322.442 340.047H322.36C321.162 339.952 319.976 339.768 318.81 339.489C318.81 339.489 318.169 316.272 316.895 311.327C315.614 306.382 311.715 289.606 311.715 289.606C311.715 289.606 311.417 291.698 310.935 294.767C310.32 298.634 309.388 304.068 308.33 308.753C306.459 317.128 297.501 339.515 297.501 339.515H292.131C292.131 339.515 298.414 311.352 298.414 307.701C298.414 304.049 296.049 276.52 296.049 276.52L300.785 276.14L322.214 274.422C322.214 274.422 325.384 287.913 326.817 293.505C328.25 299.103 325.08 339.483 325.08 339.483L325.067 339.489Z" fill="#F8FAFC"/>
<path d="M322.443 340.046H322.36C321.162 339.951 319.977 339.767 318.81 339.488C318.81 339.488 318.17 316.271 316.895 311.326C315.615 306.38 311.716 289.605 311.716 289.605L306.105 290.79L305.135 292.16C305.135 292.16 303.03 301.53 301.952 308.904C300.969 315.586 296.449 335.855 295.625 339.513H292.074C292.074 339.513 298.357 311.351 298.357 307.699C298.357 304.047 295.992 276.519 295.992 276.519L300.728 276.139L315.989 279.911C315.989 279.911 315.678 282.644 320.141 294.924C324.605 307.205 322.449 340.04 322.449 340.04L322.443 340.046Z" fill="url(#paint1_linear_9527_4140)"/>
<path d="M329.803 249.885C330.507 250.493 331.521 250.588 332.327 250.119C333.043 249.637 333.652 249.01 334.102 248.274L336.219 245.256C337.107 244.122 337.823 242.86 338.337 241.516C338.609 240.013 339.003 238.536 339.522 237.103C339.605 236.907 339.751 236.748 339.935 236.64C340.264 236.488 340.632 236.64 340.987 236.748C341.735 236.805 342.464 236.488 342.927 235.899C343.422 235.341 343.777 234.713 344.29 234.136C344.804 233.559 345.476 233.261 346.091 233.616C346.706 233.971 346.661 235.036 346.585 235.842C346.56 237.186 346.655 238.523 346.87 239.855C347.035 241.75 346.737 243.868 344.861 244.825C344.22 245.073 343.599 245.358 342.99 245.675C342.039 246.461 341.336 247.501 340.943 248.667C339.541 251.749 337.754 254.633 335.617 257.258C334.507 258.628 333.087 260.029 331.325 260.048C329.157 260.048 327.99 257.385 327.134 255.762C326.919 255.4 326.773 254.995 326.722 254.576C326.709 254.171 326.792 253.765 326.969 253.391C327.692 252.053 328.656 250.867 329.81 249.878L329.803 249.885Z" fill="#FFB4A3"/>
<path d="M291.161 249.885C290.153 253.283 289.754 256.833 289.976 260.371C290.388 266.286 296.354 266.984 296.354 266.984L297.539 251.907L291.161 249.885Z" fill="#FFB4A3"/>
<path d="M311.925 229.261C311.925 229.261 319.381 231.391 321.309 233.388C323.236 235.385 322.127 274.395 322.127 274.395C322.127 274.395 309.11 291.329 295.999 276.487C295.999 276.487 293.089 236.659 294.814 234.402C296.538 232.145 302.542 225.14 311.925 229.254V229.261Z" fill="#FDFFFF"/>
<path d="M294.863 234.41C294.863 234.41 289.867 243.273 289.55 247.154C289.309 248.865 289.309 250.603 289.55 252.314L294.863 256.67V234.416V234.41Z" fill="#FDFFFF"/>
<path d="M321.309 233.395C321.309 233.395 327.44 238.6 330.02 245.225C332.6 251.85 326.317 257.315 326.317 257.315C326.317 257.315 315.419 246.512 316.922 240.552C318.424 234.586 319.705 233.502 321.309 233.395Z" fill="#FDFFFF"/>
<path d="M314.79 251.578C314.625 250.056 314.968 248.522 315.76 247.21C318.848 248.877 322.043 250.64 324.123 253.455C325.163 254.862 326.488 256.745 328.149 256.187C329.112 255.762 329.696 254.767 329.594 253.715C329.474 252.688 329.125 251.705 328.58 250.83C325.264 244.477 321.479 237.693 315.006 234.701C313.161 233.928 311.246 233.319 309.294 232.888L303.828 231.506C302.858 231.182 301.831 231.087 300.823 231.22C299.631 231.575 298.573 232.285 297.793 233.255C294.553 236.755 291.947 240.787 290.09 245.181C289.234 246.829 288.777 248.649 288.752 250.507C288.752 252.39 289.874 254.089 291.605 254.837L294.87 248.567C294.591 255.35 294.591 262.128 294.87 268.905C295.022 272.31 295.269 275.848 296.988 278.808C299.016 282.219 302.687 284.324 306.656 284.343C309.592 284.343 312.4 283.151 314.442 281.04C316.077 279.062 315.399 276.875 315.285 274.446C315.012 266.877 314.847 259.186 314.797 251.565L314.79 251.578Z" fill="url(#paint2_linear_9527_4140)"/>
<path d="M316.243 220.747C315.615 222.287 315.863 224.297 314.601 225.349C313.986 225.857 313.111 226.034 312.553 226.617C311.108 228.145 312.775 231.1 311.285 232.533C310.88 232.894 310.379 233.129 309.84 233.205C308.451 233.49 307.006 233.274 305.757 232.602C305.288 232.38 304.882 232.038 304.571 231.62C304.318 231.163 304.159 230.662 304.108 230.142C303.715 227.968 303.316 225.787 303.005 223.6C302.587 221.545 302.587 219.428 303.005 217.374C303.658 214.952 305.408 212.98 307.741 212.048C309.859 211.218 313.409 211.3 314.842 213.43C315.337 214.349 315.736 215.313 316.028 216.315C316.414 217.012 316.719 217.76 316.941 218.528C316.915 219.314 316.674 220.081 316.243 220.74V220.747Z" fill="#FFB4A3"/>
<path d="M317.624 211.611C317.523 212.131 317.339 212.632 317.092 213.101C316.984 213.354 316.8 213.576 316.572 213.728C316.331 213.881 316.008 213.83 315.824 213.608C315.304 214.508 314.594 215.282 313.744 215.878C313.598 215.986 313.472 216.125 313.389 216.29C313.199 216.702 313.389 217.19 313.389 217.64C313.294 218.49 312.337 218.896 311.696 219.46C311.056 220.018 310.676 220.823 310.657 221.673C310.168 221.673 310.067 220.798 309.579 220.772C309.306 220.772 309.103 221.007 308.976 221.248C308.539 221.882 308.336 222.649 308.4 223.416C308.482 224.196 309.129 224.792 309.915 224.811C309.725 225.844 309.37 226.846 308.875 227.772C308.653 228.253 308.304 228.659 307.867 228.957C307.436 229.154 306.967 229.255 306.498 229.255C305.597 229.357 304.691 229.261 303.835 228.97C302.928 228.564 302.193 227.867 301.743 226.979C301.07 225.457 300.563 223.872 300.227 222.243C299.815 220.595 299.308 218.978 298.699 217.393C298.376 216.493 298.192 215.548 298.154 214.591C298.122 213.627 298.528 212.695 299.257 212.061C299.562 211.865 299.853 211.649 300.132 211.408C300.43 211.066 300.658 210.66 300.798 210.222C301.109 209.443 301.609 208.752 302.256 208.213C302.827 207.813 303.448 207.503 304.101 207.281L311.462 204.402C311.297 204.726 311.24 205.093 311.297 205.455C313.313 204.764 315.545 205.48 316.787 207.205C317.675 208.485 317.986 210.083 317.637 211.605L317.624 211.611Z" fill="#C14834"/>
<path d="M393.507 334.404C420.888 334.404 443.085 328.522 443.085 321.267C443.085 314.012 420.888 308.131 393.507 308.131C366.125 308.131 343.928 314.012 343.928 321.267C343.928 328.522 366.125 334.404 393.507 334.404Z" fill="#F8FAFC"/>
<path d="M393.508 330.283C412.308 330.283 427.548 326.247 427.548 321.267C427.548 316.288 412.308 312.252 393.508 312.252C374.709 312.252 359.469 316.288 359.469 321.267C359.469 326.247 374.709 330.283 393.508 330.283Z" fill="url(#paint3_linear_9527_4140)"/>
<path d="M393.507 334.113C420.888 334.113 443.085 328.231 443.085 320.976C443.085 313.721 420.888 307.84 393.507 307.84C366.125 307.84 343.928 313.721 343.928 320.976C343.928 328.231 366.125 334.113 393.507 334.113Z" fill="#F8FAFC"/>
<path d="M393.508 329.992C412.308 329.992 427.548 325.956 427.548 320.976C427.548 315.997 412.308 311.961 393.508 311.961C374.709 311.961 359.469 315.997 359.469 320.976C359.469 325.956 374.709 329.992 393.508 329.992Z" fill="url(#paint4_linear_9527_4140)"/>
<path d="M443.048 316.468C443.048 323.683 420.877 329.604 393.495 329.604C366.112 329.604 343.916 323.689 343.916 316.436V295.292C352.196 291.057 374.291 303.338 393.495 303.338C413.998 303.338 434.42 288.762 441.945 293.473C444.456 295.058 443.048 314.661 443.048 316.474V316.468Z" fill="#F8FAFC"/>
<path d="M443.048 316.467C443.01 317.482 442.63 318.452 441.958 319.212C437.222 325.128 417.32 329.61 393.444 329.61C384.904 329.648 376.377 329.02 367.932 327.727C357.509 326.085 349.59 323.435 345.995 320.284C344.924 319.479 344.182 318.312 343.922 316.993C343.884 316.829 343.865 316.664 343.865 316.499V295.285C352.145 291.037 374.24 303.318 393.444 303.318C413.948 303.318 434.381 288.742 441.958 293.453C444.456 295.051 443.048 314.654 443.048 316.467Z" fill="url(#paint5_linear_9527_4140)"/>
<path d="M393.507 308.435C420.888 308.435 443.085 302.554 443.085 295.299C443.085 288.044 420.888 282.162 393.507 282.162C366.125 282.162 343.928 288.044 343.928 295.299C343.928 302.554 366.125 308.435 393.507 308.435Z" fill="white"/>
<path d="M393.508 304.314C412.308 304.314 427.548 300.278 427.548 295.299C427.548 290.32 412.308 286.283 393.508 286.283C374.709 286.283 359.469 290.32 359.469 295.299C359.469 300.278 374.709 304.314 393.508 304.314Z" fill="url(#paint6_linear_9527_4140)"/>
<path opacity="0.15" d="M368.661 327.467L367.989 327.727C357.566 326.085 349.647 323.435 346.052 320.284C344.981 319.479 344.239 318.312 343.979 316.994C343.941 316.829 343.922 316.664 343.922 316.499V297.65L360.488 305.094C360.488 305.094 359.22 316.334 363.367 323.067C364.552 325.115 366.435 326.675 368.667 327.467H368.661Z" fill="white"/>
<path d="M379.723 287.64C377.828 287.64 376.287 286.112 376.287 284.216C376.287 283.17 376.763 282.175 377.58 281.522C385.968 274.839 407.67 254.31 407.302 239.811C407.017 228.177 399.27 221.26 390.983 213.925C381.296 205.321 370.328 195.564 373.117 177.413C374.499 168.454 381.245 158.792 393.171 148.686C398.541 144.14 404.266 140.032 410.282 136.38C411.956 135.486 414.036 136.12 414.923 137.794C415.766 139.373 415.253 141.332 413.75 142.295C408.057 145.776 402.643 149.675 397.539 153.974C387.116 162.837 380.972 171.294 379.907 178.452C377.682 192.901 385.968 200.262 395.548 208.776C404.101 216.384 413.807 225.02 414.175 239.621C414.397 248.592 408.944 259.319 397.964 271.568C392.987 277.09 387.604 282.232 381.86 286.949C381.245 287.418 380.491 287.659 379.717 287.633L379.723 287.64Z" fill="#F8FAFC"/>
<path d="M410.637 287.64C409.965 287.64 409.312 287.444 408.754 287.069C402.516 282.841 396.613 278.13 391.104 272.988C378.975 261.608 372.775 251.255 372.68 242.227C372.515 227.6 382.488 218.705 392.169 210.089C402.129 201.194 411.55 192.8 409.338 178.427C408.203 171.257 402.3 162.761 392.169 153.936C387.262 149.656 382.031 145.757 376.528 142.283C374.892 141.3 374.366 139.183 375.343 137.547C376.325 135.911 378.443 135.385 380.079 136.361C381.416 137.179 412.831 156.478 416.045 177.349C418.829 195.418 407.055 205.924 396.651 215.212C387.763 223.15 379.362 230.593 379.495 242.132C379.647 256.555 403.346 275.264 412.47 281.319C414.055 282.353 414.505 284.476 413.471 286.068C412.831 287.044 411.74 287.634 410.574 287.627L410.631 287.64H410.637Z" fill="#F8FAFC"/>
<path d="M407.974 177.304H378.392C376.496 177.19 375.045 175.561 375.159 173.665C375.26 171.922 376.649 170.533 378.392 170.432H407.974C409.87 170.546 411.322 172.175 411.208 174.071C411.106 175.814 409.718 177.203 407.974 177.304Z" fill="#F8FAFC"/>
<path d="M408.876 192.584H379.294C377.398 192.698 375.769 191.247 375.655 189.351C375.541 187.455 376.992 185.826 378.888 185.712C379.021 185.705 379.154 185.705 379.294 185.712H408.876C410.772 185.826 412.224 187.455 412.11 189.351C412.008 191.094 410.62 192.483 408.876 192.584Z" fill="#F8FAFC"/>
<path d="M407.974 235.513H378.392C376.496 235.399 375.045 233.77 375.159 231.874C375.26 230.131 376.649 228.742 378.392 228.641H407.974C409.87 228.755 411.322 230.384 411.208 232.28C411.106 234.023 409.718 235.412 407.974 235.513Z" fill="#F8FAFC"/>
<path d="M408.876 250.786H379.294C377.398 250.9 375.769 249.448 375.655 247.552C375.541 245.656 376.992 244.027 378.888 243.913C379.021 243.907 379.154 243.907 379.294 243.913H408.876C410.772 244.027 412.224 245.656 412.11 247.552C412.008 249.296 410.62 250.684 408.876 250.786Z" fill="#F8FAFC"/>
<path d="M394.592 156.591L400.12 151.855C400.12 151.855 406.511 158.411 408.4 161.004C410.29 163.597 406.175 170.007 406.175 170.007C406.175 170.007 400.032 160.034 394.592 156.591Z" fill="url(#paint7_linear_9527_4140)"/>
<path d="M389.424 212.542L394.572 207.927C391.237 204.953 388.08 201.796 385.106 198.461L381.049 204.173C381.049 204.173 386.964 210.589 389.424 212.536V212.542Z" fill="url(#paint8_linear_9527_4140)"/>
<path d="M394.592 217.265L400.12 212.529C400.12 212.529 406.511 219.085 408.4 221.678C410.29 224.271 406.175 230.681 406.175 230.681C406.175 230.681 400.032 220.74 394.592 217.265Z" fill="url(#paint9_linear_9527_4140)"/>
<path d="M398.834 270.688L394.098 275.683C394.098 275.683 402.745 282.721 405.3 284.642C407.855 286.557 409.821 279.462 409.821 279.462C409.821 279.462 401.192 272.811 398.827 270.694L398.834 270.688Z" fill="url(#paint10_linear_9527_4140)"/>
<path d="M389.043 271.017L393.684 265.939C390.559 262.864 387.693 259.529 385.119 255.979L380.586 261.482C380.586 261.482 386.584 269.064 389.043 271.017Z" fill="url(#paint11_linear_9527_4140)"/>
<path d="M413.967 320.772C415.378 320.772 416.522 319.628 416.522 318.217C416.522 316.806 415.378 315.662 413.967 315.662C412.556 315.662 411.412 316.806 411.412 318.217C411.412 319.628 412.556 320.772 413.967 320.772Z" fill="#F8FAFC"/>
<path d="M424.448 319.383C425.859 319.383 427.003 318.24 427.003 316.828C427.003 315.417 425.859 314.273 424.448 314.273C423.036 314.273 421.893 315.417 421.893 316.828C421.893 318.24 423.036 319.383 424.448 319.383Z" fill="#F8FAFC"/>
<defs>
<linearGradient id="paint0_linear_9527_4140" x1="719" y1="258.23" x2="0" y2="258.23" gradientUnits="userSpaceOnUse">
<stop stop-color="#F6D981"/>
<stop offset="1" stop-color="#976105"/>
</linearGradient>
<linearGradient id="paint1_linear_9527_4140" x1="285.874" y1="215.947" x2="331.934" y2="444.871" gradientUnits="userSpaceOnUse">
<stop stop-color="#231F20"/>
<stop offset="0.13" stop-color="#231F20" stop-opacity="0.69"/>
<stop offset="0.25" stop-color="#231F20" stop-opacity="0.32"/>
<stop offset="1" stop-color="#231F20" stop-opacity="0"/>
</linearGradient>
<linearGradient id="paint2_linear_9527_4140" x1="359.202" y1="336.135" x2="251.885" y2="170.318" gradientUnits="userSpaceOnUse">
<stop stop-color="#231F20"/>
<stop offset="0.13" stop-color="#231F20" stop-opacity="0.69"/>
<stop offset="0.25" stop-color="#231F20" stop-opacity="0.32"/>
<stop offset="1" stop-color="#231F20" stop-opacity="0"/>
</linearGradient>
<linearGradient id="paint3_linear_9527_4140" x1="405.161" y1="268.443" x2="389.007" y2="341.67" gradientUnits="userSpaceOnUse">
<stop/>
<stop offset="1" stop-opacity="0"/>
</linearGradient>
<linearGradient id="paint4_linear_9527_4140" x1="-113.191" y1="268.145" x2="389.007" y2="341.372" gradientUnits="userSpaceOnUse">
<stop/>
<stop offset="1" stop-opacity="0"/>
</linearGradient>
<linearGradient id="paint5_linear_9527_4140" x1="486.68" y1="393.758" x2="344.398" y2="260.422" gradientUnits="userSpaceOnUse">
<stop/>
<stop offset="1" stop-opacity="0"/>
</linearGradient>
<linearGradient id="paint6_linear_9527_4140" x1="405.161" y1="242.467" x2="389.007" y2="315.688" gradientUnits="userSpaceOnUse">
<stop/>
<stop offset="1" stop-opacity="0"/>
</linearGradient>
<linearGradient id="paint7_linear_9527_4140" x1="365.878" y1="138.719" x2="454.771" y2="191.69" gradientUnits="userSpaceOnUse">
<stop stop-color="#231F20"/>
<stop offset="0.13" stop-color="#231F20" stop-opacity="0.69"/>
<stop offset="0.25" stop-color="#231F20" stop-opacity="0.32"/>
<stop offset="1" stop-color="#231F20" stop-opacity="0"/>
</linearGradient>
<linearGradient id="paint8_linear_9527_4140" x1="398.49" y1="214.463" x2="369.631" y2="191.424" gradientUnits="userSpaceOnUse">
<stop stop-color="#231F20"/>
<stop offset="0.13" stop-color="#231F20" stop-opacity="0.69"/>
<stop offset="0.25" stop-color="#231F20" stop-opacity="0.32"/>
<stop offset="1" stop-color="#231F20" stop-opacity="0"/>
</linearGradient>
<linearGradient id="paint9_linear_9527_4140" x1="365.878" y1="199.393" x2="454.771" y2="252.37" gradientUnits="userSpaceOnUse">
<stop stop-color="#231F20"/>
<stop offset="0.13" stop-color="#231F20" stop-opacity="0.69"/>
<stop offset="0.25" stop-color="#231F20" stop-opacity="0.32"/>
<stop offset="1" stop-color="#231F20" stop-opacity="0"/>
</linearGradient>
<linearGradient id="paint10_linear_9527_4140" x1="376.586" y1="234.269" x2="425.899" y2="320.955" gradientUnits="userSpaceOnUse">
<stop stop-color="#231F20"/>
<stop offset="0.13" stop-color="#231F20" stop-opacity="0.69"/>
<stop offset="0.25" stop-color="#231F20" stop-opacity="0.32"/>
<stop offset="1" stop-color="#231F20" stop-opacity="0"/>
</linearGradient>
<linearGradient id="paint11_linear_9527_4140" x1="397.774" y1="272.038" x2="369.497" y2="249.461" gradientUnits="userSpaceOnUse">
<stop stop-color="#231F20"/>
<stop offset="0.13" stop-color="#231F20" stop-opacity="0.69"/>
<stop offset="0.25" stop-color="#231F20" stop-opacity="0.32"/>
<stop offset="1" stop-color="#231F20" stop-opacity="0"/>
</linearGradient>
</defs>
</svg>
