<svg width="483" height="213" viewBox="0 0 483 213" fill="none" xmlns="http://www.w3.org/2000/svg">
<path d="M0 30C0 13.4315 13.4315 0 30 0H453C469.569 0 483 13.4315 483 30V213H0V30Z" fill="#ECEEF0"/>
<g filter="url(#filter0_d_9526_4049)">
<path d="M36 38.5C36 36.0147 38.0147 34 40.5 34H473.5C475.985 34 478 36.0147 478 38.5V38.5C478 40.9853 475.985 43 473.5 43H40.5C38.0147 43 36 40.9853 36 38.5V38.5Z" fill="#CFCFCF" fill-opacity="0.7" shape-rendering="crispEdges"/>
</g>
<g filter="url(#filter1_d_9526_4049)">
<path d="M31.5 213C29.567 213 28 211.433 28 209.5L28 43.5C28 41.567 29.567 40 31.5 40V40C33.433 40 35 41.567 35 43.5L35 209.5C35 211.433 33.433 213 31.5 213V213Z" fill="#CFCFCF" fill-opacity="0.7" shape-rendering="crispEdges"/>
</g>
<path d="M28 39C28 36.7909 29.7909 35 32 35H479C481.209 35 483 36.7909 483 39V209C483 211.209 481.209 213 479 213H32C29.7909 213 28 211.209 28 209V39Z" fill="url(#paint0_linear_9526_4049)"/>
<path opacity="0.24" d="M245.12 179.97C237.488 178.132 230.149 175.44 222.925 172.585C212.221 168.359 201.06 163.233 195.375 154.162C191.281 147.629 190.606 139.859 190.725 132.388C190.811 127.576 191.21 122.684 193.151 118.186C196.756 109.831 205.909 103.572 215.956 102.582C221.754 102.01 227.697 103.064 233.418 102.056C249.61 99.1934 258.125 81.3874 274.292 78.4348C278.442 77.6713 282.745 77.9985 286.938 78.5438C296.008 79.7275 334.77 102.888 315.466 145.844C312.386 152.694 306.153 158.03 299.453 162.318C293.939 165.848 287.704 168.529 282.703 172.62C280.157 174.7 277.843 177.198 274.601 178.283C272.606 178.954 270.43 179.028 268.296 179.092L250.927 179.629" fill="#68E1FD"/>
<path d="M243.709 166.358L246.055 180.052L257.102 179.56L257.456 169.851L259.145 179.725L268.476 179.398L271.857 163.959L243.709 166.358Z" fill="#606161"/>
<path d="M243.709 166.358L246.055 180.052L257.102 179.56L257.456 169.851L259.145 179.725L268.476 179.398L271.857 163.959L243.709 166.358Z" fill="url(#paint1_linear_9526_4049)"/>
<path d="M248.792 96.3366C248.736 96.9564 248.951 97.5735 249.382 98.023C249.481 98.1347 249.609 98.2225 249.749 98.2731C250.481 98.5018 250.497 97.0149 250.279 96.5973C250.021 96.1238 248.88 95.379 248.792 96.3366Z" fill="#FFB4A3"/>
<path d="M261.817 95.2964C261.892 95.9162 261.697 96.5359 261.28 97.0014C261.184 97.1185 261.062 97.2116 260.923 97.2674C260.2 97.5201 260.133 96.0359 260.341 95.6103C260.575 95.1182 261.692 94.3441 261.817 95.2964Z" fill="#FFB4A3"/>
<path d="M252.139 105.07C248.91 106.689 246.489 109.525 244.164 112.289C243.696 112.845 243.486 113.523 243.241 114.207C240.669 121.455 241.129 126.094 240.379 131.978C239.759 136.798 238.344 141.708 239.538 146.425C239.538 146.425 240.11 165.763 241.174 168.811L273.105 167.534C273.105 167.534 270.16 136.306 269.897 132.483C268.578 113.933 264.766 109.903 261.914 107.394C259.063 104.883 252.142 105.07 252.142 105.07H252.139Z" fill="#68E1FD"/>
<path d="M252.139 105.069C248.91 106.689 246.489 109.525 244.164 112.289C243.696 112.845 243.486 113.523 243.241 114.206C240.669 121.455 241.129 126.094 240.379 131.978C239.759 136.798 238.344 141.708 239.538 146.424C239.538 146.424 240.11 165.763 241.174 168.811L273.105 167.534C273.105 167.534 270.094 137.849 270.011 134.015C269.666 117.835 265.495 110.02 261.917 107.394C258.85 105.146 252.139 105.069 252.139 105.069Z" fill="url(#paint2_linear_9526_4049)"/>
<path d="M256.008 145.857C256.122 145.873 256.242 145.852 256.343 145.796C256.46 145.692 256.521 145.541 256.513 145.386C256.591 144.104 255.737 142.982 255.245 141.798C254.83 140.803 254.662 139.718 254.26 138.713C253.859 137.707 253.146 136.736 252.106 136.449C251.667 136.353 251.217 136.319 250.771 136.35L247.145 136.436C246.807 136.364 246.472 136.579 246.4 136.92C246.384 136.997 246.382 137.074 246.395 137.151C246.304 138.087 245.631 140.29 246.235 141.12C246.507 141.5 247.23 141.625 247.634 141.817C248.22 142.101 248.789 142.421 249.337 142.772C251.329 144.011 253.516 145.86 256.005 145.86L256.008 145.857Z" fill="#FFB4A3"/>
<path d="M261.308 136.901C259.592 137.787 258.951 139.862 258.14 141.62C257.669 142.639 257.094 143.604 256.424 144.501C256.219 144.775 255.996 145.083 256.044 145.421C256.129 145.769 256.424 146.027 256.783 146.062C257.132 146.089 257.483 146.033 257.805 145.897C259.494 145.323 261.066 144.453 262.454 143.33C263.361 142.596 264.218 141.734 265.316 141.338C265.745 141.184 266.242 141.077 266.5 140.699C266.633 140.465 266.71 140.205 266.724 139.936C266.817 139.207 266.915 138.465 266.774 137.744C266.537 136.507 265.995 136.161 264.893 136.244C263.72 136.329 262.382 136.35 261.316 136.901H261.308Z" fill="#FFB4A3"/>
<path d="M251.301 107.179C251.301 107.179 255.062 110.634 257.07 108.238C259.076 105.841 258.834 106.737 258.834 106.737L257.789 129.249L251.301 107.179Z" fill="#606161"/>
<path d="M256.059 83.8557C255.36 83.0284 254.367 82.5071 253.29 82.4033C252.247 82.3102 251.101 82.6906 250.548 83.5817C250.146 84.2254 250.106 85.0288 250.104 85.7895C250.104 86.4997 250.127 87.2366 250.46 87.8643C250.811 88.4761 251.372 88.9416 252.037 89.173C253.564 89.7449 255.37 89.2316 256.533 88.125C257.695 87.0211 256.998 84.9649 256.062 83.8557H256.059Z" fill="#606161"/>
<path d="M256.059 83.8557C255.36 83.0284 254.367 82.5071 253.29 82.4033C252.247 82.3102 251.101 82.6906 250.548 83.5817C250.146 84.2254 250.106 85.0288 250.104 85.7895C250.104 86.4997 250.127 87.2366 250.46 87.8643C250.811 88.4761 251.372 88.9416 252.037 89.173C253.564 89.7449 255.37 89.2316 256.533 88.125C257.695 87.0211 256.998 84.9649 256.062 83.8557H256.059Z" fill="url(#paint3_linear_9526_4049)"/>
<path d="M252.64 100.427C252.64 100.427 252.675 105.282 251.584 106.322C250.494 107.362 256.106 112.046 258.362 106.683C258.362 106.683 256.963 104.407 257.367 100.52C257.772 96.634 252.638 100.427 252.638 100.427H252.64Z" fill="#FFB4A3"/>
<path d="M252.488 101.579L252.504 102.643C252.504 102.643 255.382 106.649 256.51 105.263C257.641 103.878 257.292 103.59 257.292 103.59L257.377 100.513L252.488 101.579Z" fill="url(#paint4_linear_9526_4049)"/>
<path d="M249.845 93.5279C249.845 93.5279 249.153 100.952 253.14 102.356C257.128 103.761 259.455 101.617 260.482 98.0206C261.511 94.4243 259.735 87.2343 255.521 88.0057C251.308 88.7771 249.845 93.5279 249.845 93.5279Z" fill="#FFB4A3"/>
<path d="M249.25 96.0283C249.064 95.7756 248.941 95.4803 248.896 95.1691C248.327 92.3468 249.301 89.4368 251.452 87.5242C251.881 87.1332 252.381 86.8273 252.926 86.6225C253.471 86.4602 254.043 86.3964 254.613 86.431C256.389 86.4842 258.172 87.0348 259.573 88.1281C260.975 89.2213 261.957 90.8758 262.074 92.6501C262.13 93.1767 262.053 93.7087 261.848 94.1982C261.638 94.6903 261.207 95.052 260.685 95.1771C259.77 95.35 259.507 94.5121 258.759 93.9588C257.632 93.1289 257.257 91.876 254.727 92.1287C250.599 92.5437 250.386 97.3662 249.253 96.0283H249.25Z" fill="#606161"/>
<path d="M248.433 107.674C248.433 107.674 234.79 117.476 234.508 135.564C234.343 146.044 246.145 144.068 246.525 143.807C246.906 143.547 247.911 134.582 247.911 134.582C247.911 134.582 243.695 134.649 243.171 133.891C242.647 133.133 248.433 107.674 248.433 107.674Z" fill="#68E1FD"/>
<path d="M248.433 107.674C248.433 107.674 234.79 117.476 234.508 135.564C234.343 146.044 246.145 144.068 246.525 143.807C246.906 143.547 247.911 134.582 247.911 134.582C247.911 134.582 243.695 134.649 243.171 133.891C242.647 133.133 248.433 107.674 248.433 107.674Z" fill="url(#paint5_linear_9526_4049)"/>
<path d="M262.975 107.674C262.975 107.674 276.621 117.476 276.9 135.564C277.065 146.044 265.263 144.068 264.883 143.807C264.502 143.547 263.497 134.582 263.497 134.582C263.497 134.582 267.713 134.649 268.234 133.891C268.755 133.133 262.973 107.674 262.973 107.674H262.975Z" fill="#68E1FD"/>
<path d="M262.975 107.674C262.975 107.674 276.621 117.476 276.9 135.564C277.065 146.044 265.263 144.068 264.883 143.807C264.502 143.547 263.497 134.582 263.497 134.582C263.497 134.582 267.713 134.649 268.234 133.891C268.755 133.133 262.973 107.674 262.973 107.674H262.975Z" fill="url(#paint6_linear_9526_4049)"/>
<path d="M264.759 110.727C264.666 110.727 264.581 110.666 264.552 110.578C263.671 107.94 260.237 106.426 260.205 106.405C260.096 106.357 260.046 106.232 260.091 106.123C260.091 106.123 260.091 106.123 260.091 106.12C260.139 106.011 260.266 105.958 260.378 106.006C260.527 106.07 264.025 107.618 264.969 110.443C265.006 110.557 264.943 110.68 264.831 110.719C264.81 110.727 264.786 110.73 264.762 110.73L264.759 110.727Z" fill="#68E1FD"/>
<path d="M264.759 110.727C264.666 110.727 264.581 110.666 264.552 110.578C263.671 107.94 260.237 106.426 260.205 106.405C260.096 106.357 260.046 106.232 260.091 106.123C260.091 106.123 260.091 106.123 260.091 106.12C260.139 106.011 260.266 105.958 260.378 106.006C260.527 106.07 264.025 107.618 264.969 110.443C265.006 110.557 264.943 110.68 264.831 110.719C264.81 110.727 264.786 110.73 264.762 110.73L264.759 110.727Z" fill="url(#paint7_linear_9526_4049)"/>
<path d="M251.261 125.621C245.486 117.348 249.774 107.522 249.793 107.498C249.856 107.405 249.846 107.277 249.763 107.197C249.699 107.123 249.588 107.115 249.513 107.179C249.505 107.184 249.5 107.192 249.495 107.197C249.407 107.309 244.917 117.356 250.881 125.642C250.95 125.732 251.311 125.695 251.258 125.621H251.261Z" fill="#68E1FD"/>
<path d="M252.251 105.245C252.251 105.245 250.822 106.503 252.32 109.546C253.817 112.589 257.927 129.818 257.927 129.818L250.059 117.3L250.835 112.514L249.197 111.264C249.197 111.264 249.125 106.75 249.96 105.798C250.796 104.846 251.711 104.899 252.253 105.245H252.251Z" fill="#68E1FD"/>
<path d="M257.586 104.585C257.586 104.585 259.895 105.122 260.294 106.202C260.693 107.282 262.337 110.45 262.337 110.45L261.337 111.87L262.964 113.698L257.918 129.815C257.918 129.815 258.935 108.067 258.357 106.678C257.78 105.29 257.586 104.582 257.586 104.582V104.585Z" fill="#68E1FD"/>
<path d="M252.251 105.245C252.251 105.245 250.822 106.503 252.32 109.546C253.817 112.589 257.927 129.818 257.927 129.818L250.059 117.3L250.835 112.514L249.197 111.264C249.197 111.264 249.125 106.75 249.96 105.798C250.796 104.846 251.711 104.899 252.253 105.245H252.251Z" fill="url(#paint8_linear_9526_4049)"/>
<path d="M257.966 128.825C258.157 124.548 258.873 107.891 258.359 106.681C257.788 105.287 257.58 104.582 257.58 104.582C257.585 104.59 257.593 104.593 257.604 104.595C257.859 104.654 259.916 105.186 260.288 106.197C260.695 107.279 262.347 110.439 262.347 110.439L261.347 111.87L262.961 113.695L257.915 129.817C257.915 129.817 257.926 129.464 257.963 128.823L257.966 128.825Z" fill="url(#paint9_linear_9526_4049)"/>
<path d="M261.088 95.8392C261.136 95.7939 261.176 95.7381 261.203 95.6769C261.219 95.6077 261.227 95.5359 261.227 95.4641C261.235 95.3896 261.266 95.3231 261.322 95.2726C261.373 95.2247 261.447 95.2087 261.514 95.2327C261.572 95.2593 261.618 95.3098 261.636 95.371C261.658 95.4322 261.665 95.496 261.665 95.5625C261.695 95.8046 261.663 96.052 261.57 96.2807C261.482 96.4377 261.368 96.5786 261.235 96.6957C261.187 96.7542 261.12 96.7941 261.043 96.8021C260.995 96.7994 260.947 96.7808 260.907 96.7542C260.889 96.7462 260.873 96.7329 260.862 96.717C260.854 96.701 260.849 96.6824 260.846 96.6638C260.814 96.4962 260.814 96.3233 260.846 96.1557C260.891 96.028 260.977 95.9163 261.086 95.8365L261.088 95.8392Z" fill="url(#paint10_linear_9526_4049)"/>
<path d="M249.624 96.8175C249.574 96.775 249.534 96.7218 249.507 96.6606C249.489 96.5914 249.478 96.5196 249.475 96.4478C249.467 96.3733 249.43 96.3068 249.374 96.2563C249.318 96.211 249.241 96.1977 249.175 96.2217C249.116 96.2509 249.074 96.3015 249.058 96.3627C249.042 96.4238 249.034 96.4903 249.034 96.5542C249.01 96.7989 249.052 97.0436 249.151 97.2697C249.244 97.424 249.364 97.5597 249.502 97.674C249.55 97.7299 249.619 97.7671 249.694 97.7751C249.741 97.7698 249.787 97.7512 249.827 97.7246C249.845 97.7166 249.861 97.7033 249.872 97.6873C249.88 97.6687 249.885 97.6501 249.885 97.6315C249.909 97.4639 249.901 97.291 249.861 97.1261C249.813 97.0037 249.733 96.8947 249.627 96.8175H249.624Z" fill="url(#paint11_linear_9526_4049)"/>
<path d="M257.966 128.825C258.157 124.548 258.873 107.891 258.359 106.681C257.788 105.287 257.58 104.582 257.58 104.582C257.585 104.59 257.593 104.593 257.604 104.595C257.766 104.747 258.836 105.723 259.104 106.407C259.373 107.09 259.756 123.894 257.966 128.825Z" fill="url(#paint12_linear_9526_4049)"/>
<path d="M245.834 129.145C245.834 129.145 247.536 124.251 252.042 124.892C256.548 125.533 257.33 128.485 257.33 128.485C257.33 128.485 258.535 123.003 264.712 125.285C270.888 127.568 266.108 134.939 265.39 135.428C264.672 135.917 256.684 143.613 256.684 143.613C256.684 143.613 246.664 134.936 246.097 134.037C245.53 133.138 244.948 131.457 245.836 129.142L245.834 129.145Z" fill="#68E1FD"/>
<path d="M247.484 129.373C247.484 129.373 248.968 124.519 252.815 125.12C256.661 125.724 257.31 128.647 257.31 128.647C257.31 128.647 259.364 123.285 264.713 125.285C270.985 127.628 266.008 134.938 265.391 135.427C264.774 135.917 256.666 143.631 256.666 143.631C256.666 143.631 248.16 135.1 247.678 134.214C247.197 133.329 246.713 131.669 247.487 129.371L247.484 129.373Z" fill="url(#paint13_linear_9526_4049)"/>
<path d="M246.85 129.049C247.36 127.583 248.6 126.242 250.148 126.152C250.249 126.139 250.353 126.155 250.446 126.197C250.566 126.285 250.64 126.418 250.659 126.564C250.874 127.58 250.345 128.586 250.164 129.607C249.813 131.586 250.768 133.531 251.563 135.374C251.694 135.675 251.811 136.055 251.6 136.308C251.443 136.457 251.231 136.537 251.015 136.531C247.384 136.784 245.857 131.898 246.852 129.046L246.85 129.049Z" fill="url(#paint14_linear_9526_4049)"/>
<path d="M256.439 138.716L254.446 132.228L253.255 134.728L246.956 134.925L245.932 133.861L252.494 133.622L254.68 129.033L256.508 134.981L258.085 130.451L259.266 132.981L260.737 129.281L262.134 133.691L266.552 133.696L265.898 134.843L261.288 134.877L260.612 132.744L259.354 135.915L258.242 133.537L256.439 138.716Z" fill="white"/>
<path d="M265.534 123.431C265.361 123.431 265.188 123.394 265.031 123.319C264.597 123.112 264.318 122.644 264.193 121.928C263.962 120.593 263.18 111.32 264.342 110.331C264.515 110.171 264.76 110.118 264.986 110.19C265.959 110.493 266.808 113.459 267.045 114.358L268.827 121.404C268.856 121.915 268.68 122.782 267.893 122.872L267.816 122.223C268.196 122.178 268.183 121.505 268.183 121.497L266.411 114.52C265.911 112.613 265.135 110.852 264.784 110.812C264.063 111.429 264.456 119.587 264.839 121.816C264.925 122.303 265.087 122.62 265.316 122.729C265.504 122.793 265.709 122.779 265.887 122.692L266.201 123.264C265.994 123.37 265.768 123.426 265.536 123.428L265.534 123.431Z" fill="#68E1FD"/>
<path d="M265.534 123.431C265.361 123.431 265.188 123.394 265.031 123.319C264.597 123.112 264.318 122.644 264.193 121.928C263.962 120.593 263.18 111.32 264.342 110.331C264.515 110.171 264.76 110.118 264.986 110.19C265.959 110.493 266.808 113.459 267.045 114.358L268.827 121.404C268.856 121.915 268.68 122.782 267.893 122.872L267.816 122.223C268.196 122.178 268.183 121.505 268.183 121.497L266.411 114.52C265.911 112.613 265.135 110.852 264.784 110.812C264.063 111.429 264.456 119.587 264.839 121.816C264.925 122.303 265.087 122.62 265.316 122.729C265.504 122.793 265.709 122.779 265.887 122.692L266.201 123.264C265.994 123.37 265.768 123.426 265.536 123.428L265.534 123.431Z" fill="url(#paint15_linear_9526_4049)"/>
<path d="M232.223 125.673V139.635H222.093V150.062H208.136V139.635H198.018V125.673H208.136V115.857H222.093V125.673H232.223Z" fill="#68E1FD"/>
<defs>
<filter id="filter0_d_9526_4049" x="26" y="25" width="452" height="18" filterUnits="userSpaceOnUse" color-interpolation-filters="sRGB">
<feFlood flood-opacity="0" result="BackgroundImageFix"/>
<feColorMatrix in="SourceAlpha" type="matrix" values="0 0 0 0 0 0 0 0 0 0 0 0 0 0 0 0 0 0 127 0" result="hardAlpha"/>
<feOffset dx="-6" dy="-5"/>
<feGaussianBlur stdDeviation="2"/>
<feComposite in2="hardAlpha" operator="out"/>
<feColorMatrix type="matrix" values="0 0 0 0 0.592157 0 0 0 0 0.580392 0 0 0 0 0.580392 0 0 0 0.25 0"/>
<feBlend mode="normal" in2="BackgroundImageFix" result="effect1_dropShadow_9526_4049"/>
<feBlend mode="normal" in="SourceGraphic" in2="effect1_dropShadow_9526_4049" result="shape"/>
</filter>
<filter id="filter1_d_9526_4049" x="18" y="32" width="17" height="181" filterUnits="userSpaceOnUse" color-interpolation-filters="sRGB">
<feFlood flood-opacity="0" result="BackgroundImageFix"/>
<feColorMatrix in="SourceAlpha" type="matrix" values="0 0 0 0 0 0 0 0 0 0 0 0 0 0 0 0 0 0 127 0" result="hardAlpha"/>
<feOffset dx="-6" dy="-4"/>
<feGaussianBlur stdDeviation="2"/>
<feComposite in2="hardAlpha" operator="out"/>
<feColorMatrix type="matrix" values="0 0 0 0 0.593099 0 0 0 0 0.580629 0 0 0 0 0.580629 0 0 0 0.25 0"/>
<feBlend mode="normal" in2="BackgroundImageFix" result="effect1_dropShadow_9526_4049"/>
<feBlend mode="normal" in="SourceGraphic" in2="effect1_dropShadow_9526_4049" result="shape"/>
</filter>
<linearGradient id="paint0_linear_9526_4049" x1="483" y1="124" x2="28" y2="124" gradientUnits="userSpaceOnUse">
<stop stop-color="#81E4F6"/>
<stop offset="1" stop-color="#059794"/>
</linearGradient>
<linearGradient id="paint1_linear_9526_4049" x1="243.709" y1="172.005" x2="271.857" y2="172.005" gradientUnits="userSpaceOnUse">
<stop offset="0.12" stop-color="#010101" stop-opacity="0"/>
<stop offset="0.95" stop-color="#010101"/>
</linearGradient>
<linearGradient id="paint2_linear_9526_4049" x1="257.475" y1="182.39" x2="253.549" y2="105.476" gradientUnits="userSpaceOnUse">
<stop stop-color="white" stop-opacity="0"/>
<stop offset="0.95" stop-color="white"/>
</linearGradient>
<linearGradient id="paint3_linear_9526_4049" x1="252.668" y1="84.0555" x2="254.301" y2="88.1821" gradientUnits="userSpaceOnUse">
<stop stop-color="#010101" stop-opacity="0"/>
<stop offset="0.95" stop-color="#010101"/>
</linearGradient>
<linearGradient id="paint4_linear_9526_4049" x1="254.213" y1="106.468" x2="257.154" y2="90.637" gradientUnits="userSpaceOnUse">
<stop offset="0.12" stop-color="#010101" stop-opacity="0"/>
<stop offset="0.95" stop-color="#010101"/>
</linearGradient>
<linearGradient id="paint5_linear_9526_4049" x1="226.969" y1="124.012" x2="246.683" y2="125.997" gradientUnits="userSpaceOnUse">
<stop offset="0.52" stop-color="white" stop-opacity="0.52"/>
<stop offset="0.95" stop-color="white"/>
</linearGradient>
<linearGradient id="paint6_linear_9526_4049" x1="284.41" y1="124.977" x2="266.518" y2="125.85" gradientUnits="userSpaceOnUse">
<stop offset="0.52" stop-color="white" stop-opacity="0.52"/>
<stop offset="0.95" stop-color="white"/>
</linearGradient>
<linearGradient id="paint7_linear_9526_4049" x1="263.051" y1="108.006" x2="259.96" y2="110.076" gradientUnits="userSpaceOnUse">
<stop offset="0.12" stop-color="#010101" stop-opacity="0"/>
<stop offset="0.95" stop-color="#010101"/>
</linearGradient>
<linearGradient id="paint8_linear_9526_4049" x1="248.059" y1="119.701" x2="253.651" y2="117.735" gradientUnits="userSpaceOnUse">
<stop stop-color="white" stop-opacity="0"/>
<stop offset="0.95" stop-color="white"/>
</linearGradient>
<linearGradient id="paint9_linear_9526_4049" x1="265.464" y1="116.834" x2="256.875" y2="117.244" gradientUnits="userSpaceOnUse">
<stop stop-color="white" stop-opacity="0"/>
<stop offset="0.11" stop-color="white" stop-opacity="0.18"/>
<stop offset="0.29" stop-color="white" stop-opacity="0.42"/>
<stop offset="0.45" stop-color="white" stop-opacity="0.63"/>
<stop offset="0.6" stop-color="white" stop-opacity="0.79"/>
<stop offset="0.74" stop-color="white" stop-opacity="0.9"/>
<stop offset="0.86" stop-color="white" stop-opacity="0.98"/>
<stop offset="0.95" stop-color="white"/>
</linearGradient>
<linearGradient id="paint10_linear_9526_4049" x1="261.776" y1="96.1124" x2="258.52" y2="95.4916" gradientUnits="userSpaceOnUse">
<stop offset="0.12" stop-color="#010101" stop-opacity="0"/>
<stop offset="0.95" stop-color="#010101"/>
</linearGradient>
<linearGradient id="paint11_linear_9526_4049" x1="249.086" y1="97.2421" x2="252.32" y2="96.5014" gradientUnits="userSpaceOnUse">
<stop offset="0.12" stop-color="#010101" stop-opacity="0"/>
<stop offset="0.95" stop-color="#010101"/>
</linearGradient>
<linearGradient id="paint12_linear_9526_4049" x1="250.874" y1="119.005" x2="258.453" y2="116.478" gradientUnits="userSpaceOnUse">
<stop stop-color="white" stop-opacity="0"/>
<stop offset="0.95" stop-color="white"/>
</linearGradient>
<linearGradient id="paint13_linear_9526_4049" x1="252.301" y1="123.332" x2="279.795" y2="162.605" gradientUnits="userSpaceOnUse">
<stop offset="0.12" stop-color="#010101" stop-opacity="0"/>
<stop offset="0.95" stop-color="#010101"/>
</linearGradient>
<linearGradient id="paint14_linear_9526_4049" x1="244.767" y1="130.647" x2="259.902" y2="132.531" gradientUnits="userSpaceOnUse">
<stop stop-color="white" stop-opacity="0"/>
<stop offset="0.95" stop-color="white"/>
</linearGradient>
<linearGradient id="paint15_linear_9526_4049" x1="258.713" y1="115.869" x2="284.271" y2="119.555" gradientUnits="userSpaceOnUse">
<stop offset="0.12" stop-color="#010101" stop-opacity="0"/>
<stop offset="0.95" stop-color="#010101"/>
</linearGradient>
</defs>
</svg>
