<svg width="719" height="517" viewBox="0 0 719 517" fill="none" xmlns="http://www.w3.org/2000/svg">
<path d="M0 4C0 1.79086 1.79086 0 4 0H715C717.209 0 719 1.79086 719 4V512.46C719 514.669 717.209 516.46 715 516.46H3.99998C1.79084 516.46 0 514.669 0 512.46V4Z" fill="url(#paint0_linear_9521_2951)"/>
<path d="M291.447 193.244C291.745 190.866 292.671 188.603 294.129 186.701C294.389 186.346 294.744 186.073 295.156 185.914C296.183 185.61 297.115 186.58 297.705 187.48C301.103 192.724 302.549 198.95 303.88 205.055C305.465 212.359 307.031 219.719 307.031 227.188C307.069 227.613 307.006 228.037 306.835 228.424C306.467 228.963 305.909 229.337 305.269 229.477C302.815 230.263 298.028 231.233 296.107 228.887C294.408 226.814 294.453 221.951 293.92 219.485C292.088 210.875 289.907 202.037 291.454 193.237L291.447 193.244Z" fill="#F8FAFC"/>
<path d="M377.906 172.715C378.857 172.873 426.21 192.901 426.21 192.901C426.21 192.901 427.313 212.067 427.161 211.585C427.009 211.104 299.683 223.467 299.848 222.357C300.012 221.248 298.098 198.259 298.098 198.259L339.504 177.356L377.906 172.715Z" fill="#F8FAFC"/>
<path d="M375.059 177.311C376.01 177.475 424.194 198.137 424.194 198.137C424.194 198.137 427.326 212.06 427.155 211.585C426.983 211.109 299.676 223.466 299.841 222.356C300.006 221.247 298.408 203.482 298.408 203.482L339.935 182.11L375.059 177.317V177.311Z" fill="url(#paint1_linear_9521_2951)"/>
<path d="M417.861 183.073C418.159 180.696 419.078 178.439 420.53 176.531C420.79 176.176 421.152 175.903 421.564 175.744C422.591 175.434 423.523 176.41 424.112 177.31C427.511 182.547 428.956 188.779 430.288 194.885C431.854 202.182 433.42 209.549 433.47 217.018C433.508 217.436 433.439 217.861 433.274 218.248C432.912 218.793 432.348 219.167 431.708 219.3C429.254 220.086 424.461 221.056 422.546 218.723C420.847 216.637 420.892 211.787 420.353 209.321C418.489 200.711 416.308 191.873 417.861 183.073Z" fill="#F8FAFC"/>
<path opacity="0.18" d="M361.611 396.599C362.714 390.38 357.953 388.655 354.035 383.716C350.117 378.777 345.419 374.206 343.162 368.278C341.868 364.855 341.336 360.873 338.597 358.445C336.746 356.809 334.172 356.175 332.371 354.483C328.586 350.926 329.841 344.77 331.154 339.742C332.466 334.714 333.05 328.254 328.7 325.42C325.816 323.55 321.955 324.215 318.778 322.897C314.587 321.141 312.508 316.246 312.375 311.707C312.242 307.167 313.598 302.729 314.239 298.228C317.567 275.112 302.186 252.383 305.344 229.28C303.353 229.16 300.792 228.97 298.807 228.855C299.016 245.308 299.219 261.9 296.087 278.054C292.955 294.208 286.191 310.103 274.322 321.502C269.77 325.864 264.02 330.758 264.92 336.997C265.452 340.839 268.546 344.516 267.272 348.168C266.676 349.854 265.25 351.084 263.944 352.308C259.905 356.049 256.608 360.525 254.243 365.495C249.761 375.037 246.642 390.57 237.791 396.314C277.555 398.603 321.821 394.291 361.611 396.593V396.599Z" fill="#F8FAFC"/>
<path opacity="0.18" d="M510.069 399.015C507.159 398.508 504.217 397.963 501.548 396.701C498.879 395.439 496.476 393.341 495.468 390.564C494.809 388.738 494.783 386.753 494.498 384.832C493.877 380.711 491.265 376.273 487.112 375.912C484.944 375.722 482.649 376.679 480.652 375.811C479.529 375.322 478.712 374.327 478.052 373.3C475.212 368.875 474.559 363.441 472.841 358.471C471.129 353.5 467.579 348.428 462.354 347.832C460.142 347.579 457.878 348.174 455.691 347.756C451.316 346.932 448.603 342.297 448.096 337.878C447.588 333.459 448.692 329.028 448.977 324.583C449.231 320.576 448.812 316.544 447.747 312.67C446.764 309.101 444.824 305.671 444.647 301.918C444.311 294.304 451.697 287.165 449.237 279.981C447.772 275.67 443.265 273.172 440.893 269.292C439.327 266.699 438.744 263.618 438.212 260.619L430.667 217.723C428.835 218.154 426.343 220.119 424.511 220.55C427.757 255.706 430.711 292.738 416.066 324.862C413.042 331.494 409.111 338.018 403.05 342.101C399.284 344.624 394.903 346.019 390.687 347.724C383.903 350.413 377.195 353.995 372.707 359.745C368.218 365.495 366.436 373.851 370.006 380.217C372.586 384.832 369.467 391.654 369.771 396.929C381.583 396.733 393.4 396.79 405.212 396.973C423.002 397.259 440.786 397.836 458.563 398.413C467.509 398.704 476.454 398.996 485.4 399.25C489.838 399.376 494.276 399.49 498.714 399.598C500.68 399.643 502.645 399.712 504.61 399.744C506.164 399.763 508.75 398.793 510.076 399.021L510.069 399.015Z" fill="#F8FAFC"/>
<path d="M333.577 221.229C335.028 222.357 336.341 223.962 338.186 224.076C339.067 224.063 339.936 223.866 340.734 223.499C341.742 223.245 342.617 222.636 343.22 221.793C343.41 221.375 343.53 220.925 343.575 220.462C344.095 216.417 343.499 212.309 341.85 208.574C341.273 207.256 341.59 203.458 340.284 202.83C338.978 202.203 336.366 204.853 334.914 205.062C334.768 205.081 334.623 205.119 334.489 205.182C334.02 205.442 334.058 206.114 334.153 206.641C334.749 209.868 335.028 213.139 334.997 216.417C334.908 215.333 333.665 214.711 332.581 214.718C330.888 214.718 328.251 216.366 328.955 218.414C329.196 219.105 329.931 219.283 330.521 219.543C331.605 219.974 332.632 220.544 333.577 221.235V221.229Z" fill="#FFAA71"/>
<path d="M333.577 221.229C335.028 222.357 336.341 223.962 338.186 224.076C339.067 224.063 339.936 223.866 340.734 223.499C341.742 223.245 342.617 222.636 343.22 221.793C343.41 221.375 343.53 220.925 343.575 220.462C344.095 216.417 343.499 212.309 341.85 208.574C341.273 207.256 341.59 203.458 340.284 202.83C338.978 202.203 336.366 204.853 334.914 205.062C334.768 205.081 334.623 205.119 334.489 205.182C334.02 205.442 334.058 206.114 334.153 206.641C334.749 209.868 335.028 213.139 334.997 216.417C334.908 215.333 333.665 214.711 332.581 214.718C330.888 214.718 328.251 216.366 328.955 218.414C329.196 219.105 329.931 219.283 330.521 219.543C331.605 219.974 332.632 220.544 333.577 221.235V221.229Z" fill="url(#paint2_linear_9521_2951)"/>
<path d="M350.472 142.208C353.389 141.244 356.546 141.333 359.405 142.442C360.077 142.683 360.718 143.007 361.301 143.412C363.552 144.928 365.618 146.937 366.379 149.531C366.703 150.621 366.772 151.781 367.121 152.859C367.4 153.981 368.218 154.894 369.302 155.306C368.7 156.156 367.692 156.619 366.652 156.536C367.406 157.728 368.275 158.844 369.239 159.865C368.072 160.106 366.855 159.998 365.752 159.554C366.088 160.359 366.252 161.228 366.227 162.103C365.27 162.02 364.338 161.729 363.501 161.26C363.317 161.868 362.721 162.261 362.093 162.192C361.478 162.109 360.895 161.881 360.388 161.532L357.706 159.966C355.658 158.907 353.788 157.544 352.146 155.934C351.163 154.812 350.32 153.575 349.648 152.244C349.014 151.071 345.597 149.854 345.495 148.491C345.286 145.695 348.114 142.677 350.479 142.214L350.472 142.208Z" fill="#231F20"/>
<path d="M340.049 204.15L341.184 208.734C341.412 209.717 341.697 210.693 342.046 211.638C343.168 214.497 345.4 216.919 345.964 219.937C346.065 220.444 346.173 221.046 346.655 221.256C346.953 221.351 347.27 221.351 347.562 221.256C350.383 220.628 353.318 220.977 356.178 220.704C358.327 220.431 360.457 220.019 362.549 219.461C369.042 217.946 375.629 216.9 382.273 216.329C382.945 216.266 383.757 216.127 384.004 215.499C384.086 215.245 384.112 214.979 384.074 214.713C383.687 208.69 380.942 203.123 379.033 197.398C378.748 196.872 378.938 196.219 379.465 195.934C379.547 195.889 379.629 195.858 379.724 195.832C384.017 193.677 388.093 191.103 391.885 188.154L387.073 180.819C384.289 176.571 381.259 172.108 376.631 170.009C373.74 168.71 370.487 168.443 367.323 168.443C363.913 168.443 360.514 168.767 357.135 169.071C354.986 169.16 352.849 169.439 350.751 169.902C345.026 171.468 336.353 176.039 334.298 180.572C328.814 192.611 331.471 204.03 330.976 204.727C330.761 204.955 330.596 205.222 330.482 205.513C330.317 206.154 331.008 206.756 331.667 206.788C332.333 206.75 332.98 206.54 333.538 206.185C335.566 205.19 337.773 204.607 340.036 204.48C340.004 204.626 340.004 203.979 340.049 204.157V204.15Z" fill="white"/>
<path d="M364.02 194.342C364.039 195.877 363.956 197.417 363.779 198.939C363.779 199.218 363.69 199.49 363.538 199.725C363.189 200.042 362.739 200.219 362.27 200.226C356.925 200.911 351.505 200.733 346.103 200.568C345.868 200.568 345.64 200.53 345.418 200.441C345.184 200.296 345 200.08 344.898 199.82C344.404 198.768 343.789 196.688 345.006 195.832C346.223 194.976 349.095 195.344 350.49 195.255L364.013 194.336L364.02 194.342Z" fill="#F8FAFC"/>
<path d="M364.02 194.342C364.039 195.877 363.956 197.417 363.779 198.939C363.779 199.218 363.69 199.49 363.538 199.725C363.189 200.042 362.739 200.219 362.27 200.226C356.925 200.911 351.505 200.733 346.103 200.568C345.868 200.568 345.64 200.53 345.418 200.441C345.184 200.296 345 200.08 344.898 199.82C344.404 198.768 343.789 196.688 345.006 195.832C346.223 194.976 349.095 195.344 350.49 195.255L364.013 194.336L364.02 194.342Z" fill="url(#paint3_linear_9521_2951)"/>
<path d="M348.551 219.683C348.551 219.316 347.98 219.385 347.676 219.582C338.274 225.567 329.277 232.116 320.255 238.589C318.144 240.009 316.185 241.639 314.403 243.452C312.679 245.341 311.271 247.706 311.271 250.261C311.303 251.662 311.595 253.051 312.134 254.344C315.614 263.651 324.04 270.017 330.07 277.942C333.081 281.86 335.611 286.367 339.668 289.214C340.455 289.772 341.355 290.324 341.659 291.243C341.564 291.338 342.578 291.002 342.483 291.097C345.698 289.144 348.639 286.773 351.233 284.047C348.392 281.625 345.774 278.962 343.396 276.084C342.109 274.626 340.829 273.168 339.681 271.602C337.747 268.825 336.029 265.902 334.539 262.859C333.404 260.678 331.686 258.941 332.384 256.588C333.379 253.228 342.293 248.619 347.429 245.62C352.399 242.704 360.749 238.209 360.54 238.304C360.54 238.304 355.911 258.769 366.924 275.127C377.943 291.484 392.848 316.235 393.698 315.956C394.547 315.677 402.174 304.931 402.174 304.931L381.265 269.319C381.265 269.319 387.269 225.275 382.286 216.209L348.563 219.671L348.551 219.683Z" fill="#231F20"/>
<path d="M348.551 219.683C348.551 219.316 347.98 219.385 347.676 219.582C338.274 225.567 329.277 232.116 320.255 238.589C318.144 240.009 316.185 241.639 314.403 243.452C312.679 245.341 311.271 247.706 311.271 250.261C311.303 251.662 311.595 253.051 312.134 254.344C315.614 263.651 324.04 270.017 330.07 277.942C333.081 281.86 335.611 286.367 339.668 289.214C340.455 289.772 341.355 290.324 341.659 291.243C341.564 291.338 342.578 291.002 342.483 291.097C345.698 289.144 348.639 286.773 351.233 284.047C348.392 281.625 345.774 278.962 343.396 276.084C342.109 274.626 340.829 273.168 339.681 271.602C337.747 268.825 336.029 265.902 334.539 262.859C333.404 260.678 331.686 258.941 332.384 256.588C333.379 253.228 342.293 248.619 347.429 245.62C352.399 242.704 360.749 238.209 360.54 238.304C360.54 238.304 355.911 258.769 366.924 275.127C377.943 291.484 392.848 316.235 393.698 315.956C394.547 315.677 402.174 304.931 402.174 304.931L381.265 269.319C381.265 269.319 387.269 225.275 382.286 216.209L348.563 219.671L348.551 219.683Z" fill="url(#paint4_linear_9521_2951)"/>
<path d="M347.244 294.673C347.53 298.496 347.935 302.313 348.449 306.111C348.557 306.897 348.747 307.81 349.444 308.184C350.148 308.456 350.947 308.336 351.543 307.873C352.95 306.897 354.003 305.477 354.529 303.847C355.043 302.224 355.372 300.55 355.518 298.858L356.361 292.067C356.482 291.078 356.558 289.95 355.867 289.24C355.176 288.53 354.016 288.568 353.046 288.308C351.556 287.908 350.427 286.742 349.381 285.613C348.538 286.59 345.856 288.517 345.913 289.823C345.913 290.52 346.648 291.338 346.845 292.017C347.067 292.892 347.2 293.779 347.244 294.679V294.673Z" fill="#231F20"/>
<path d="M397.818 315.999C398.116 316.71 398.3 317.458 398.383 318.225C398.833 320.691 399.41 323.132 400.113 325.535C400.278 326.308 400.576 327.05 400.982 327.728C401.407 328.413 402.142 328.851 402.947 328.882C404.266 328.882 405.084 327.475 405.598 326.264C406.625 324.032 407.309 321.655 407.62 319.214C407.918 316.773 407.43 314.307 406.225 312.164C406.029 311.79 405.737 311.473 405.382 311.244C404.894 311.067 404.38 310.947 403.86 310.902C402.466 310.56 401.622 309.14 400.373 308.436C400.253 308.353 400.113 308.303 399.968 308.303C399.739 308.341 399.53 308.468 399.397 308.658C398.281 309.862 397.279 311.175 396.417 312.576C395.847 313.508 395.682 313.635 396.487 314.37C397.032 314.827 397.482 315.385 397.818 316.006V315.999Z" fill="#231F20"/>
<path d="M361.092 169.533C360.54 172.848 358.809 175.847 356.216 177.984C355.291 178.795 354.194 179.379 353.002 179.683C351.804 179.981 350.536 179.746 349.521 179.043C348.691 178.32 348.082 177.375 347.765 176.316C347.695 176.12 347.626 175.917 347.562 175.72C347.15 174.294 347.613 172.76 348.754 171.802C348.906 171.663 349.04 171.504 349.154 171.333C349.223 171.213 349.274 171.086 349.312 170.946C349.8 169.222 348.957 167.897 348.792 166.401C348.792 165.589 349.141 164.822 349.75 164.283C351.138 162.622 353.002 161.43 355.094 160.86C355.367 160.783 355.652 160.752 355.931 160.764C357.637 160.841 357.954 162.33 358.144 163.567C358.283 164.492 358.423 165.405 358.556 166.331C358.626 167.092 358.835 167.827 359.184 168.512C359.564 169.197 360.306 169.59 361.086 169.52L361.092 169.533Z" fill="#FFAA71"/>
<path d="M356.786 161.229C356.647 163.092 356.209 164.918 355.487 166.643C353.35 171.284 349.172 171.347 349.172 171.347C349.242 171.227 349.292 171.1 349.33 170.96C349.819 169.236 348.975 167.911 348.811 166.415L356.786 161.229Z" fill="url(#paint5_linear_9521_2951)"/>
<path d="M342.362 158.191C341.868 159.18 341.525 160.232 341.341 161.323C341.189 162.87 341.684 164.41 342.711 165.577C343.751 166.737 345.228 167.403 346.788 167.416C347.802 167.397 348.81 167.181 349.748 166.794C352.386 165.799 354.732 164.144 356.557 162.001C357.052 162.661 357.876 162.984 358.688 162.832C359.48 162.661 360.203 162.261 360.774 161.678C361.325 161.26 361.655 160.613 361.668 159.922C361.566 158.882 360.349 158.394 359.315 158.128C360.184 157.424 360.9 156.555 361.433 155.573C362.289 153.506 361.858 151.135 360.323 149.505C358.764 147.933 356.634 147.071 354.421 147.109C353.223 147.109 352.031 147.305 350.832 147.407C349.774 147.432 348.721 147.59 347.701 147.876C346.375 148.345 346.198 149.328 345.672 150.539L342.362 158.178V158.191Z" fill="#FFAA71"/>
<path d="M370.132 217.362H366.518C366.138 217.032 365.815 216.633 365.567 216.189C360.762 207.883 361.472 170.072 362.911 168.391C364.185 166.87 368.718 167.022 370.119 167.104H370.544L372.7 168.429C367.843 178.707 370.132 217.362 370.132 217.362Z" fill="#F8FAFC"/>
<path d="M367.843 216.183H365.573C360.767 207.877 361.478 170.066 362.917 168.386C364.191 166.864 368.724 167.016 370.125 167.099L370.404 167.27C365.548 177.515 367.843 216.177 367.843 216.177V216.183Z" fill="url(#paint6_linear_9521_2951)"/>
<path d="M374.406 224.007C372.041 224.007 369.854 222.758 368.649 220.723L354.968 197.76C354.632 197.132 354.866 196.346 355.5 196.01C356.09 195.699 356.819 195.883 357.187 196.435L370.906 219.417C371.75 220.844 373.366 221.624 375.002 221.389C384.347 220.127 389.013 219.221 390.453 218.752V215.385C390.427 214.669 390.985 214.073 391.695 214.047C392.412 214.022 393.008 214.58 393.033 215.296C393.033 215.62 393.134 218.428 393.033 219.62C392.931 220.812 392.31 221.268 385.824 222.391C382.394 222.987 378.248 223.576 375.382 223.957C375.059 223.995 374.729 224.014 374.406 224.014V224.007Z" fill="#F8FAFC"/>
<path d="M335.535 228.204C335.098 228.204 334.667 228.083 334.28 227.868C333.164 227.107 332.39 225.934 332.143 224.609L325.797 201.652C325.607 200.961 326.012 200.251 326.703 200.061C327.395 199.87 328.105 200.276 328.295 200.967L334.635 223.924C334.965 225.116 335.421 225.547 335.554 225.617C339.739 224.393 341.647 223.569 342.275 223.195C342.408 221.3 342.928 215.644 342.947 215.359C343.01 214.649 343.644 214.123 344.354 214.186C345.064 214.249 345.59 214.883 345.527 215.594C345.305 218.022 344.874 222.847 344.836 223.728C344.792 224.793 343.898 225.465 341.152 226.498C339.529 227.101 337.589 227.697 336.239 228.064C336.011 228.147 335.776 228.191 335.535 228.204Z" fill="#F8FAFC"/>
<path d="M374.405 224.114C372.04 224.114 369.853 222.872 368.648 220.837L354.96 197.873C354.611 197.252 354.833 196.459 355.455 196.111C356.044 195.781 356.792 195.965 357.166 196.529L370.854 219.493C371.698 220.913 373.308 221.686 374.944 221.464C384.302 220.203 388.961 219.296 390.401 218.827V215.448C390.375 214.731 390.933 214.135 391.65 214.11C392.366 214.085 392.962 214.643 392.987 215.359C392.987 215.682 393.095 218.491 392.987 219.683C392.88 220.875 392.265 221.331 385.779 222.453C382.336 223.049 378.202 223.639 375.337 224.019C375.026 224.07 374.715 224.095 374.405 224.095V224.114Z" fill="url(#paint7_linear_9521_2951)"/>
<path d="M374.406 223.905C372.041 223.905 369.854 222.663 368.649 220.628L354.968 197.664C354.574 197.068 354.733 196.269 355.329 195.87C355.925 195.477 356.724 195.635 357.123 196.231C357.148 196.263 357.168 196.301 357.187 196.339L370.875 219.296C371.718 220.723 373.334 221.502 374.97 221.281C384.315 220.013 388.982 219.1 390.421 218.63V215.264C390.395 214.56 390.941 213.971 391.644 213.933C392.361 213.914 392.957 214.471 392.982 215.188C392.982 215.499 393.084 218.32 392.982 219.512C392.881 220.704 392.259 221.147 385.774 222.276C382.344 222.872 378.197 223.462 375.332 223.842C375.027 223.88 374.717 223.905 374.406 223.905Z" fill="url(#paint8_linear_9521_2951)"/>
<path d="M335.515 228.203C335.077 228.203 334.64 228.083 334.259 227.867C333.144 227.107 332.37 225.934 332.11 224.609L325.77 201.652C325.567 200.967 325.96 200.25 326.645 200.048C327.33 199.845 328.046 200.238 328.249 200.922C328.249 200.935 328.255 200.948 328.262 200.967L334.608 223.924C334.71 224.577 335.033 225.173 335.515 225.617C339.706 224.393 341.62 223.569 342.248 223.195C342.381 221.299 342.901 215.644 342.92 215.359C342.983 214.649 343.617 214.122 344.327 214.186C345.037 214.249 345.564 214.883 345.5 215.593C345.278 218.021 344.841 222.846 344.809 223.727C344.765 224.793 343.871 225.465 341.119 226.498C339.503 227.1 337.563 227.696 336.212 228.064C335.984 228.146 335.749 228.191 335.508 228.203H335.515Z" fill="url(#paint9_linear_9521_2951)"/>
<g opacity="0.69">
<path d="M335.661 228.159C335.223 228.159 334.792 228.039 334.405 227.823C333.29 227.062 332.516 225.89 332.256 224.565L325.916 201.601C325.739 200.91 326.151 200.206 326.842 200.029C327.514 199.858 328.205 200.244 328.408 200.916L334.754 223.88C334.862 224.526 335.179 225.122 335.661 225.573C339.852 224.343 341.766 223.525 342.394 223.144C342.527 221.249 343.047 215.593 343.066 215.308C343.129 214.598 343.763 214.072 344.473 214.135C345.183 214.199 345.71 214.833 345.646 215.543C345.424 217.971 344.987 222.796 344.955 223.677C344.911 224.742 344.017 225.414 341.272 226.441C339.649 227.05 337.709 227.646 336.358 228.007C336.13 228.096 335.895 228.147 335.654 228.166L335.661 228.159Z" fill="url(#paint10_linear_9521_2951)"/>
</g>
<path d="M331.636 206.046C332.244 206.046 332.853 206.173 333.417 206.407C333.988 206.648 334.406 207.143 334.558 207.739C334.666 208.297 334.463 208.893 334.66 209.425C334.856 209.958 335.224 210.211 335.363 210.63C335.63 211.416 334.939 212.323 335.167 213.147C335.268 213.515 335.541 213.819 335.636 214.199C335.706 214.554 335.661 214.928 335.509 215.258C334.723 217.293 332.263 218.238 330.07 218.174C328.782 218.206 327.534 217.75 326.576 216.9C325.866 216.07 325.41 215.049 325.257 213.971C324.966 212.608 324.814 211.219 324.801 209.825C324.769 205.983 328.516 205.907 331.623 206.059L331.636 206.046Z" fill="#FFAA71"/>
<path d="M390.204 189.518C390.204 189.518 401.001 210.11 397.932 213.432C394.864 216.754 370.283 214.339 370.283 214.339C368.052 214.231 366.296 216.165 364.083 216.469C362.441 216.678 360.824 215.949 359.898 214.58C359.664 214.091 359.315 213.667 358.89 213.343C358.656 213.21 358.371 213.166 358.104 213.045C357.103 212.576 356.931 211.226 356.963 210.116C356.995 209.901 356.963 209.685 356.855 209.495C356.767 209.387 356.665 209.298 356.551 209.229C355.898 208.601 355.739 207.612 356.164 206.813C356.614 206.04 357.318 205.45 358.161 205.152C358.947 204.816 359.848 204.645 360.678 204.366C361.788 203.985 362.815 203.415 363.728 202.673C364.324 202.185 365.053 201.589 365.776 201.887C366.036 202.007 366.27 202.191 366.46 202.413L368.813 204.829C369.364 205.564 370.252 205.964 371.165 205.887L379.4 206.185C381.188 206.363 382.995 206.198 384.72 205.697L378.893 197.582C378.684 197.284 378.462 196.916 378.614 196.58C378.722 196.403 378.88 196.257 379.071 196.168C382.837 193.873 386.507 191.775 390.229 189.518H390.204Z" fill="#FFAA71"/>
<path d="M359.246 159.268C359.468 159.205 359.702 159.237 359.905 159.357C360.197 159.465 360.431 159.68 360.564 159.959C360.64 160.397 360.495 160.841 360.171 161.145C359.816 161.652 359.265 161.988 358.65 162.071C358.13 162.083 357.667 161.766 357.477 161.284C357.312 160.79 357.559 160.251 358.041 160.054C358.269 159.991 358.466 160.054 358.675 159.883C358.884 159.712 358.979 159.382 359.246 159.275V159.268Z" fill="#FFAA71"/>
<path d="M348.552 219.683L346.802 220.006L345.718 220.203L341.102 204.765C332.632 190.367 336.03 174.992 337.374 173.426C337.926 172.773 339.441 172.273 341.026 171.911C342.529 171.569 344.05 171.303 345.578 171.125C341.337 180.464 348.545 219.683 348.545 219.683H348.552Z" fill="#F8FAFC"/>
<path d="M346.819 219.999L345.735 220.196L341.12 204.758C332.649 190.36 336.048 174.985 337.392 173.419C337.943 172.766 339.459 172.265 341.044 171.904C342.629 171.542 343.858 171.498 343.858 171.498C339.668 180.672 346.616 218.896 346.819 219.999Z" fill="url(#paint11_linear_9521_2951)"/>
<path d="M382.242 194.043C382.242 194.043 389.597 203.756 388.354 205.011C387.111 206.266 383.91 206.114 383.91 206.114C384.195 205.499 384.112 204.777 383.7 204.244C383.003 203.204 378.146 196.408 378.146 196.408L382.242 194.043Z" fill="#FFAA71"/>
<defs>
<linearGradient id="paint0_linear_9521_2951" x1="719" y1="258.23" x2="0" y2="258.23" gradientUnits="userSpaceOnUse">
<stop stop-color="#00396D"/>
<stop offset="1" stop-color="#65ADF1"/>
</linearGradient>
<linearGradient id="paint1_linear_9521_2951" x1="357.668" y1="161.759" x2="374.533" y2="321.355" gradientUnits="userSpaceOnUse">
<stop stop-color="#231F20" stop-opacity="0"/>
<stop offset="1" stop-color="#231F20"/>
</linearGradient>
<linearGradient id="paint2_linear_9521_2951" x1="335.396" y1="215.916" x2="356.673" y2="202.076" gradientUnits="userSpaceOnUse">
<stop stop-color="#231F20" stop-opacity="0"/>
<stop offset="1" stop-color="#231F20"/>
</linearGradient>
<linearGradient id="paint3_linear_9521_2951" x1="353.724" y1="192.466" x2="355.664" y2="208.29" gradientUnits="userSpaceOnUse">
<stop stop-color="#231F20" stop-opacity="0"/>
<stop offset="1" stop-color="#231F20"/>
</linearGradient>
<linearGradient id="paint4_linear_9521_2951" x1="344.728" y1="284.51" x2="389.285" y2="255.771" gradientUnits="userSpaceOnUse">
<stop stop-color="#231F20" stop-opacity="0"/>
<stop offset="1" stop-color="#231F20"/>
</linearGradient>
<linearGradient id="paint5_linear_9521_2951" x1="347.226" y1="162.706" x2="396.595" y2="193.48" gradientUnits="userSpaceOnUse">
<stop stop-color="#231F20" stop-opacity="0"/>
<stop offset="1" stop-color="#231F20"/>
</linearGradient>
<linearGradient id="paint6_linear_9521_2951" x1="370.588" y1="178.048" x2="352.545" y2="227.183" gradientUnits="userSpaceOnUse">
<stop stop-color="#231F20" stop-opacity="0"/>
<stop offset="1" stop-color="#231F20"/>
</linearGradient>
<linearGradient id="paint7_linear_9521_2951" x1="360.469" y1="217.705" x2="399.822" y2="190.633" gradientUnits="userSpaceOnUse">
<stop stop-color="#231F20" stop-opacity="0"/>
<stop offset="1" stop-color="#231F20"/>
</linearGradient>
<linearGradient id="paint8_linear_9521_2951" x1="368.389" y1="211.168" x2="362.43" y2="214.364" gradientUnits="userSpaceOnUse">
<stop offset="0.02" stop-color="white" stop-opacity="0"/>
<stop offset="0.58" stop-color="white" stop-opacity="0.39"/>
<stop offset="0.68" stop-color="white" stop-opacity="0.68"/>
<stop offset="1" stop-color="white"/>
</linearGradient>
<linearGradient id="paint9_linear_9521_2951" x1="322.683" y1="218.3" x2="362.244" y2="200.612" gradientUnits="userSpaceOnUse">
<stop stop-color="#231F20" stop-opacity="0"/>
<stop offset="1" stop-color="#231F20"/>
</linearGradient>
<linearGradient id="paint10_linear_9521_2951" x1="333.34" y1="213.558" x2="329.181" y2="214.661" gradientUnits="userSpaceOnUse">
<stop offset="0.02" stop-color="white" stop-opacity="0"/>
<stop offset="0.58" stop-color="white" stop-opacity="0.39"/>
<stop offset="0.68" stop-color="white" stop-opacity="0.68"/>
<stop offset="1" stop-color="white"/>
</linearGradient>
<linearGradient id="paint11_linear_9521_2951" x1="357.344" y1="186.524" x2="306.687" y2="220.253" gradientUnits="userSpaceOnUse">
<stop stop-color="#231F20" stop-opacity="0"/>
<stop offset="1" stop-color="#231F20"/>
</linearGradient>
</defs>
</svg>
