<svg width="483" height="213" viewBox="0 0 483 213" fill="none" xmlns="http://www.w3.org/2000/svg">
<path d="M0 30C0 13.4315 13.4315 0 30 0H453C469.569 0 483 13.4315 483 30V213H0V30Z" fill="#ECEEF0"/>
<g filter="url(#filter0_d_9513_2251)">
<path d="M36 38.5C36 36.0147 38.0147 34 40.5 34H473.5C475.985 34 478 36.0147 478 38.5V38.5C478 40.9853 475.985 43 473.5 43H40.5C38.0147 43 36 40.9853 36 38.5V38.5Z" fill="#CFCFCF" fill-opacity="0.7" shape-rendering="crispEdges"/>
</g>
<g filter="url(#filter1_d_9513_2251)">
<path d="M31.5 213C29.567 213 28 211.433 28 209.5L28 43.5C28 41.567 29.567 40 31.5 40V40C33.433 40 35 41.567 35 43.5L35 209.5C35 211.433 33.433 213 31.5 213V213Z" fill="#CFCFCF" fill-opacity="0.7" shape-rendering="crispEdges"/>
</g>
<path d="M28 39C28 36.7909 29.7909 35 32 35H479C481.209 35 483 36.7909 483 39V209C483 211.209 481.209 213 479 213H32C29.7909 213 28 211.209 28 209V39Z" fill="url(#paint0_linear_9513_2251)"/>
<path opacity="0.24" d="M318.209 146.083C316.494 150.871 313.1 154.648 308.772 157.521C301.904 162.064 292.689 164.301 284.106 164.567C270.098 164.998 256.008 161.849 242.155 163.815C233.781 165.004 225.676 168.044 217.209 168.087C209.474 168.121 200.885 164.562 198.265 158.034C198.012 157.409 197.818 156.763 197.682 156.103C197.118 153.326 197.656 150.446 197.589 147.602C197.416 139.579 192.548 132.288 191.282 124.343C189.09 110.599 198.512 96.796 211.477 89.8986C225.048 82.7006 241.596 83.0385 256.479 79.5352C271.521 75.9788 291.306 71.7308 305.838 78.6096C308.766 79.9981 311.525 81.9505 313.017 84.6744C314.219 86.8609 314.509 89.3719 314.789 91.8191C316.164 104.05 317.539 116.278 318.912 128.503C319.585 134.382 320.223 140.476 318.209 146.086V146.083Z" fill="#F8FAFC"/>
<path opacity="0.24" d="M308.773 157.521C301.905 162.065 292.69 164.302 284.106 164.568C270.099 164.999 256.009 161.849 242.156 163.815C233.782 165.004 225.677 168.044 217.21 168.087C209.475 168.122 200.886 164.562 198.266 158.035C205.142 151.701 222.546 150.691 230.295 152.313C233.83 153.053 237.267 154.202 240.818 154.872C245.297 155.715 249.894 155.784 254.447 155.548C261.108 155.205 267.726 154.228 274.262 152.89C284.075 150.885 294.712 148.158 303.7 152.584C305.416 153.428 307.046 154.556 308.097 156.154C308.376 156.582 308.605 157.04 308.778 157.519L308.773 157.521Z" fill="#F8FAFC"/>
<path d="M211.557 157.46C210.11 158.154 208.522 159.542 209.046 161.072C209.426 162.184 210.727 162.628 211.863 162.91C215.18 163.734 218.64 164.431 221.989 163.748C224.202 163.298 226.245 162.269 228.365 161.487C230.714 160.62 233.164 160.056 235.656 159.811C236.369 159.742 237.244 159.58 237.452 158.885C237.705 158.069 236.779 157.404 235.986 157.095C232.076 155.571 227.799 155.685 223.694 155.284C219.526 154.887 215.331 155.64 211.557 157.46Z" fill="url(#paint1_linear_9513_2251)"/>
<path d="M290.113 106.719C290.111 108.07 289.015 109.166 287.669 109.166H226.353C225.007 109.166 223.917 108.07 223.914 106.719C223.914 105.367 225.007 104.274 226.353 104.271H287.669C289.015 104.269 290.111 105.359 290.113 106.711C290.113 106.711 290.113 106.716 290.113 106.719Z" fill="#F8FAFC"/>
<path d="M246.583 109.748C248.265 109.748 249.629 108.378 249.629 106.689C249.629 104.999 248.265 103.63 246.583 103.63C244.901 103.63 243.537 104.999 243.537 106.689C243.537 108.378 244.901 109.748 246.583 109.748Z" fill="#F8FAFC"/>
<path d="M287.067 109.748C288.749 109.748 290.113 108.378 290.113 106.689C290.113 104.999 288.749 103.63 287.067 103.63C285.385 103.63 284.021 104.999 284.021 106.689C284.021 108.378 285.385 109.748 287.067 109.748Z" fill="#F8FAFC"/>
<path d="M287.067 109.748C288.749 109.748 290.113 108.378 290.113 106.689C290.113 104.999 288.749 103.63 287.067 103.63C285.385 103.63 284.021 104.999 284.021 106.689C284.021 108.378 285.385 109.748 287.067 109.748Z" fill="url(#paint2_linear_9513_2251)"/>
<path d="M275.252 80.1504H297.463C298.564 80.1504 299.455 81.0468 299.455 82.1507V96.7674C299.455 97.8713 298.564 98.7677 297.463 98.7677H275.252C274.151 98.7677 273.26 97.8713 273.26 96.7674V82.1507C273.26 81.0468 274.151 80.1504 275.252 80.1504Z" fill="#F8FAFC"/>
<path d="M283.414 97.8501L286.561 102.13L288.492 97.749L283.414 97.8501Z" fill="#F8FAFC"/>
<path d="M286.515 91.5908C284.042 91.5908 282.033 89.5772 282.033 87.0928C282.033 84.6083 284.039 82.5947 286.515 82.5947C288.989 82.5947 290.997 84.6083 290.997 87.0928C290.997 89.5746 288.989 91.5882 286.515 91.5908ZM286.515 83.0921C284.315 83.0921 282.531 84.8876 282.533 87.0981C282.533 89.3086 284.323 91.0961 286.523 91.0934C288.723 91.0934 290.505 89.3006 290.505 87.0928C290.505 84.8823 288.718 83.0921 286.515 83.0921Z" fill="white"/>
<path d="M285.916 88.8595L284.336 87.5109L284.788 86.9789L285.847 87.8859L288.552 84.8057L289.073 85.2658L285.916 88.8595Z" fill="white"/>
<path d="M280.057 96.1287C279.865 96.2059 279.663 96.2431 279.458 96.2351C278.873 96.2697 278.37 95.8228 278.336 95.2376C278.333 95.1844 278.336 95.1312 278.336 95.078C278.301 94.4529 278.777 93.9156 279.4 93.881C279.44 93.881 279.48 93.881 279.519 93.881C279.706 93.873 279.889 93.9076 280.059 93.9821L279.988 94.2135C279.844 94.147 279.684 94.1151 279.527 94.1177C278.998 94.1177 278.642 94.4609 278.642 95.0594C278.642 95.618 278.964 95.9851 279.517 95.9851C279.682 95.9851 279.844 95.9531 279.993 95.8893L280.054 96.126L280.057 96.1287Z" fill="white"/>
<path d="M282.29 95.0385C282.29 95.8232 281.814 96.2408 281.236 96.2408C280.659 96.2408 280.215 95.778 280.215 95.0837C280.215 94.3895 280.664 93.8867 281.271 93.8867C281.877 93.8867 282.29 94.3629 282.29 95.0385ZM280.529 95.0757C280.529 95.5652 280.792 96.0014 281.252 96.0014C281.712 96.0014 281.981 95.5705 281.981 95.0545C281.981 94.5916 281.75 94.1288 281.258 94.1288C280.765 94.1288 280.529 94.5757 280.529 95.0757Z" fill="white"/>
<path d="M284.584 95.2006C284.568 94.8841 284.547 94.5064 284.552 94.2164H284.541C284.464 94.4824 284.371 94.767 284.254 95.0809L283.852 96.1875H283.621L283.251 95.1022C283.145 94.7804 283.052 94.4877 282.99 94.2164C282.99 94.501 282.964 94.8841 282.948 95.2246L282.887 96.2034H282.607L282.767 93.9238H283.139L283.528 95.0251C283.624 95.3044 283.698 95.5571 283.759 95.7938H283.77C283.828 95.5624 283.905 95.3123 284.001 95.0251L284.408 93.9238H284.781L284.922 96.2034H284.634L284.584 95.2006Z" fill="white"/>
<path d="M285.379 93.9509C285.565 93.9189 285.754 93.9056 285.943 93.9056C286.172 93.8897 286.398 93.9562 286.579 94.0918C286.712 94.2142 286.783 94.3871 286.778 94.568C286.789 94.7489 286.725 94.9244 286.603 95.0574C286.414 95.2303 286.166 95.3208 285.911 95.3075C285.834 95.3075 285.757 95.3021 285.679 95.2862V96.2119H285.387L285.379 93.9482V93.9509ZM285.672 95.0494C285.751 95.0681 285.831 95.0734 285.914 95.0734C286.267 95.0734 286.483 94.9005 286.483 94.5839C286.483 94.2674 286.27 94.1371 285.948 94.1371C285.855 94.1371 285.762 94.1424 285.672 94.1637V95.0494Z" fill="white"/>
<path d="M287.166 93.9209H287.459V95.9531H288.43V96.2005H287.166V93.9209Z" fill="white"/>
<path d="M289.933 95.1312H289.052V95.9531H290.037V96.2005H288.76V93.9209H289.975V94.1683H289.052V94.8891H289.935V95.1312H289.933Z" fill="white"/>
<path d="M290.895 94.1709H290.203V93.9209H291.884V94.1709H291.193V96.2005H290.895V94.1709Z" fill="white"/>
<path d="M293.314 95.1312H292.431V95.9531H293.415V96.2005H292.139V93.9209H293.365V94.1683H292.431V94.8891H293.314V95.1312Z" fill="white"/>
<path d="M293.793 93.9527C294 93.9208 294.208 93.9048 294.418 93.9075C294.751 93.8809 295.08 93.982 295.341 94.1895C295.559 94.4023 295.676 94.7028 295.66 95.0087C295.676 95.3359 295.559 95.6578 295.336 95.8945C295.056 96.1313 294.695 96.2483 294.33 96.2217C294.152 96.2217 293.974 96.2137 293.798 96.1951V93.9527H293.793ZM294.088 95.969C294.187 95.9823 294.285 95.9876 294.386 95.985C295.014 95.985 295.352 95.6338 295.352 95.0167C295.352 94.4794 295.051 94.1363 294.429 94.1363C294.314 94.1363 294.197 94.1442 294.086 94.1682V95.9663L294.088 95.969Z" fill="white"/>
<path d="M282.673 113.161C282.817 113.182 282.961 113.19 283.107 113.188H283.567C283.716 113.193 283.865 113.188 284.014 113.174C283.995 113.369 283.987 113.563 283.987 113.757V115.656C283.985 115.84 283.995 116.021 284.017 116.202H283.227C283.248 116.021 283.258 115.837 283.256 115.656V113.805H283.11C282.963 113.805 282.814 113.813 282.668 113.831V113.161H282.673Z" fill="#F8FAFC"/>
<path d="M285.474 115.93C285.357 115.816 285.269 115.68 285.21 115.528C285.115 115.262 285.067 114.98 285.067 114.698C285.061 114.35 285.141 114.004 285.298 113.693C285.519 113.326 285.923 113.105 286.349 113.121C286.673 113.113 286.99 113.233 287.227 113.456C287.341 113.57 287.431 113.709 287.49 113.858C287.586 114.126 287.634 114.408 287.631 114.693C287.636 115.041 287.556 115.387 287.399 115.701C287.176 116.068 286.772 116.286 286.343 116.268C286.019 116.278 285.705 116.156 285.471 115.93H285.474ZM285.811 114.669C285.811 115.318 285.995 115.651 286.354 115.651C286.713 115.651 286.889 115.323 286.889 114.68C286.889 114.036 286.7 113.735 286.349 113.735C285.998 113.735 285.822 114.079 285.822 114.672H285.811V114.669Z" fill="#F8FAFC"/>
<path d="M288.27 115.93C288.156 115.816 288.065 115.677 288.007 115.528C287.911 115.262 287.866 114.98 287.866 114.698C287.858 114.35 287.938 114.004 288.097 113.693C288.318 113.323 288.72 113.105 289.148 113.121C289.472 113.11 289.789 113.233 290.023 113.456C290.137 113.57 290.228 113.709 290.289 113.858C290.385 114.126 290.433 114.408 290.43 114.693C290.438 115.041 290.358 115.387 290.199 115.701C289.975 116.068 289.573 116.284 289.145 116.268C288.821 116.278 288.504 116.156 288.27 115.93ZM288.605 114.669C288.605 115.318 288.789 115.651 289.148 115.651C289.507 115.651 289.683 115.323 289.683 114.68C289.683 114.036 289.496 113.735 289.145 113.735C288.794 113.735 288.605 114.079 288.605 114.672V114.669Z" fill="#F8FAFC"/>
<path d="M290.882 114.621C290.727 114.445 290.65 114.217 290.664 113.985C290.65 113.748 290.735 113.517 290.895 113.341C291.047 113.2 291.249 113.129 291.456 113.137C291.664 113.129 291.866 113.2 292.018 113.341C292.172 113.517 292.249 113.746 292.236 113.98C292.249 114.217 292.166 114.451 292.004 114.626C291.853 114.767 291.653 114.839 291.448 114.831C291.241 114.839 291.036 114.764 290.884 114.621H290.882ZM293.419 113.097L293.611 113.243L291.257 116.31L291.068 116.164L293.419 113.097ZM291.169 113.98C291.169 114.283 291.265 114.443 291.448 114.443C291.632 114.443 291.722 114.288 291.722 113.98C291.722 113.671 291.626 113.517 291.448 113.517C291.27 113.517 291.169 113.674 291.169 113.972V113.98ZM292.672 116.063C292.379 115.688 292.379 115.158 292.672 114.783C292.826 114.642 293.028 114.568 293.236 114.578C293.728 114.578 294.013 114.89 294.013 115.424C294.026 115.661 293.943 115.895 293.781 116.071C293.459 116.35 292.98 116.35 292.659 116.071L292.672 116.065V116.063ZM292.959 115.414C292.959 115.725 293.052 115.876 293.236 115.876C293.419 115.876 293.515 115.722 293.515 115.414C293.515 115.105 293.419 114.967 293.241 114.967C293.063 114.967 292.959 115.11 292.959 115.403V115.411V115.414Z" fill="#F8FAFC"/>
<path d="M242.704 115.281C242.712 115.366 242.746 115.449 242.805 115.512C242.917 115.619 243.066 115.675 243.22 115.667C243.505 115.667 243.68 115.526 243.68 115.302C243.688 115.167 243.611 115.042 243.486 114.991C243.377 114.956 243.263 114.94 243.148 114.943C242.999 114.943 242.85 114.951 242.704 114.967V114.342C242.832 114.358 242.959 114.366 243.087 114.366C243.43 114.366 243.6 114.249 243.6 114.017C243.6 113.823 243.462 113.709 243.225 113.709C243.012 113.677 242.816 113.823 242.786 114.036C242.786 114.036 242.786 114.039 242.786 114.041L241.999 113.924C242.039 113.751 242.121 113.592 242.241 113.462C242.504 113.203 242.866 113.07 243.236 113.097C243.571 113.078 243.901 113.188 244.159 113.406C244.295 113.541 244.369 113.73 244.361 113.922C244.361 114.305 244.156 114.544 243.741 114.643C243.912 114.659 244.071 114.725 244.201 114.834C244.35 114.972 244.433 115.167 244.433 115.371C244.438 115.544 244.385 115.715 244.287 115.856C244.199 115.973 244.082 116.066 243.949 116.127C243.709 116.223 243.454 116.273 243.196 116.268C242.903 116.276 242.611 116.207 242.355 116.066C242.188 115.954 242.058 115.792 241.983 115.603C241.956 115.542 241.935 115.478 241.922 115.411L242.704 115.278V115.281Z" fill="#F8FAFC"/>
<path d="M245.13 115.93C245.016 115.816 244.925 115.68 244.864 115.528C244.768 115.262 244.723 114.98 244.723 114.698C244.715 114.35 244.795 114.004 244.955 113.693C245.175 113.323 245.577 113.105 246.005 113.121C246.33 113.11 246.646 113.233 246.88 113.456C246.995 113.57 247.085 113.709 247.146 113.858C247.242 114.126 247.29 114.408 247.287 114.693C247.295 115.041 247.216 115.387 247.056 115.701C246.66 116.292 245.864 116.446 245.276 116.05C245.223 116.015 245.175 115.975 245.128 115.933L245.13 115.93ZM245.465 114.669C245.465 115.318 245.649 115.651 246.008 115.651C246.367 115.651 246.543 115.323 246.543 114.68C246.543 114.036 246.356 113.735 246.005 113.735C245.654 113.735 245.46 114.079 245.46 114.672H245.465V114.669Z" fill="#F8FAFC"/>
<path d="M247.739 114.621C247.585 114.445 247.508 114.217 247.521 113.985C247.508 113.748 247.593 113.517 247.752 113.341C248.077 113.067 248.55 113.067 248.872 113.341C249.027 113.517 249.104 113.746 249.09 113.98C249.104 114.217 249.021 114.451 248.859 114.626C248.537 114.903 248.061 114.903 247.739 114.626V114.621ZM250.277 113.097L250.468 113.243L248.114 116.31L247.925 116.164L250.277 113.097ZM248.026 113.98C248.026 114.283 248.122 114.443 248.306 114.443C248.489 114.443 248.58 114.288 248.58 113.98C248.58 113.671 248.484 113.517 248.306 113.517C248.127 113.517 248.026 113.674 248.026 113.972V113.98ZM249.529 116.063C249.239 115.685 249.239 115.158 249.529 114.783C249.684 114.642 249.886 114.568 250.093 114.578C250.585 114.578 250.87 114.89 250.87 115.424C250.883 115.661 250.801 115.895 250.639 116.071C250.317 116.35 249.838 116.35 249.516 116.071L249.527 116.065L249.529 116.063ZM249.817 115.414C249.817 115.725 249.91 115.876 250.093 115.876C250.277 115.876 250.373 115.722 250.373 115.414C250.373 115.105 250.277 114.967 250.099 114.967C249.92 114.967 249.817 115.11 249.817 115.403V115.411V115.414Z" fill="#F8FAFC"/>
<path d="M282.673 113.161C282.817 113.182 282.961 113.19 283.107 113.188H283.567C283.716 113.193 283.865 113.188 284.014 113.174C283.995 113.369 283.987 113.563 283.987 113.757V115.656C283.985 115.84 283.995 116.021 284.017 116.202H283.227C283.248 116.021 283.258 115.837 283.256 115.656V113.805H283.11C282.963 113.805 282.814 113.813 282.668 113.831V113.161H282.673Z" fill="url(#paint3_linear_9513_2251)"/>
<path d="M285.474 115.93C285.357 115.816 285.269 115.68 285.21 115.528C285.115 115.262 285.067 114.98 285.067 114.698C285.061 114.35 285.141 114.004 285.298 113.693C285.519 113.326 285.923 113.105 286.349 113.121C286.673 113.113 286.99 113.233 287.227 113.456C287.341 113.57 287.431 113.709 287.49 113.858C287.586 114.126 287.634 114.408 287.631 114.693C287.636 115.041 287.556 115.387 287.399 115.701C287.176 116.068 286.772 116.286 286.343 116.268C286.019 116.278 285.705 116.156 285.471 115.93H285.474ZM285.811 114.669C285.811 115.318 285.995 115.651 286.354 115.651C286.713 115.651 286.889 115.323 286.889 114.68C286.889 114.036 286.7 113.735 286.349 113.735C285.998 113.735 285.822 114.079 285.822 114.672H285.811V114.669Z" fill="url(#paint4_linear_9513_2251)"/>
<path d="M288.27 115.93C288.156 115.816 288.065 115.677 288.007 115.528C287.911 115.262 287.866 114.98 287.866 114.698C287.858 114.35 287.938 114.004 288.097 113.693C288.318 113.323 288.72 113.105 289.148 113.121C289.472 113.11 289.789 113.233 290.023 113.456C290.137 113.57 290.228 113.709 290.289 113.858C290.385 114.126 290.433 114.408 290.43 114.693C290.438 115.041 290.358 115.387 290.199 115.701C289.975 116.068 289.573 116.284 289.145 116.268C288.821 116.278 288.504 116.156 288.27 115.93ZM288.605 114.669C288.605 115.318 288.789 115.651 289.148 115.651C289.507 115.651 289.683 115.323 289.683 114.68C289.683 114.036 289.496 113.735 289.145 113.735C288.794 113.735 288.605 114.079 288.605 114.672V114.669Z" fill="url(#paint5_linear_9513_2251)"/>
<path d="M290.882 114.621C290.727 114.445 290.65 114.217 290.664 113.985C290.65 113.748 290.735 113.517 290.895 113.341C291.047 113.2 291.249 113.129 291.456 113.137C291.664 113.129 291.866 113.2 292.018 113.341C292.172 113.517 292.249 113.746 292.236 113.98C292.249 114.217 292.166 114.451 292.004 114.626C291.853 114.767 291.653 114.839 291.448 114.831C291.241 114.839 291.036 114.764 290.884 114.621H290.882ZM293.419 113.097L293.611 113.243L291.257 116.31L291.068 116.164L293.419 113.097ZM291.169 113.98C291.169 114.283 291.265 114.443 291.448 114.443C291.632 114.443 291.722 114.288 291.722 113.98C291.722 113.671 291.626 113.517 291.448 113.517C291.27 113.517 291.169 113.674 291.169 113.972V113.98ZM292.672 116.063C292.379 115.688 292.379 115.158 292.672 114.783C292.826 114.642 293.028 114.568 293.236 114.578C293.728 114.578 294.013 114.89 294.013 115.424C294.026 115.661 293.943 115.895 293.781 116.071C293.459 116.35 292.98 116.35 292.659 116.071L292.672 116.065V116.063ZM292.959 115.414C292.959 115.725 293.052 115.876 293.236 115.876C293.419 115.876 293.515 115.722 293.515 115.414C293.515 115.105 293.419 114.967 293.241 114.967C293.063 114.967 292.959 115.11 292.959 115.403V115.411V115.414Z" fill="url(#paint6_linear_9513_2251)"/>
<path d="M242.704 115.281C242.712 115.366 242.746 115.449 242.805 115.512C242.917 115.619 243.066 115.675 243.22 115.667C243.505 115.667 243.68 115.526 243.68 115.302C243.688 115.167 243.611 115.042 243.486 114.991C243.377 114.956 243.263 114.94 243.148 114.943C242.999 114.943 242.85 114.951 242.704 114.967V114.342C242.832 114.358 242.959 114.366 243.087 114.366C243.43 114.366 243.6 114.249 243.6 114.017C243.6 113.823 243.462 113.709 243.225 113.709C243.012 113.677 242.816 113.823 242.786 114.036C242.786 114.036 242.786 114.039 242.786 114.041L241.999 113.924C242.039 113.751 242.121 113.592 242.241 113.462C242.504 113.203 242.866 113.07 243.236 113.097C243.571 113.078 243.901 113.188 244.159 113.406C244.295 113.541 244.369 113.73 244.361 113.922C244.361 114.305 244.156 114.544 243.741 114.643C243.912 114.659 244.071 114.725 244.201 114.834C244.35 114.972 244.433 115.167 244.433 115.371C244.438 115.544 244.385 115.715 244.287 115.856C244.199 115.973 244.082 116.066 243.949 116.127C243.709 116.223 243.454 116.273 243.196 116.268C242.903 116.276 242.611 116.207 242.355 116.066C242.188 115.954 242.058 115.792 241.983 115.603C241.956 115.542 241.935 115.478 241.922 115.411L242.704 115.278V115.281Z" fill="url(#paint7_linear_9513_2251)"/>
<path d="M245.13 115.93C245.016 115.816 244.925 115.68 244.864 115.528C244.768 115.262 244.723 114.98 244.723 114.698C244.715 114.35 244.795 114.004 244.955 113.693C245.175 113.323 245.577 113.105 246.005 113.121C246.33 113.11 246.646 113.233 246.88 113.456C246.995 113.57 247.085 113.709 247.146 113.858C247.242 114.126 247.29 114.408 247.287 114.693C247.295 115.041 247.216 115.387 247.056 115.701C246.66 116.292 245.864 116.446 245.276 116.05C245.223 116.015 245.175 115.975 245.128 115.933L245.13 115.93ZM245.465 114.669C245.465 115.318 245.649 115.651 246.008 115.651C246.367 115.651 246.543 115.323 246.543 114.68C246.543 114.036 246.356 113.735 246.005 113.735C245.654 113.735 245.46 114.079 245.46 114.672H245.465V114.669Z" fill="url(#paint8_linear_9513_2251)"/>
<path d="M247.739 114.621C247.585 114.445 247.508 114.217 247.521 113.985C247.508 113.748 247.593 113.517 247.752 113.341C248.077 113.067 248.55 113.067 248.872 113.341C249.027 113.517 249.104 113.746 249.09 113.98C249.104 114.217 249.021 114.451 248.859 114.626C248.537 114.903 248.061 114.903 247.739 114.626V114.621ZM250.277 113.097L250.468 113.243L248.114 116.31L247.925 116.164L250.277 113.097ZM248.026 113.98C248.026 114.283 248.122 114.443 248.306 114.443C248.489 114.443 248.58 114.288 248.58 113.98C248.58 113.671 248.484 113.517 248.306 113.517C248.127 113.517 248.026 113.674 248.026 113.972V113.98ZM249.529 116.063C249.239 115.685 249.239 115.158 249.529 114.783C249.684 114.642 249.886 114.568 250.093 114.578C250.585 114.578 250.87 114.89 250.87 115.424C250.883 115.661 250.801 115.895 250.639 116.071C250.317 116.35 249.838 116.35 249.516 116.071L249.527 116.065L249.529 116.063ZM249.817 115.414C249.817 115.725 249.91 115.876 250.093 115.876C250.277 115.876 250.373 115.722 250.373 115.414C250.373 115.105 250.277 114.967 250.099 114.967C249.92 114.967 249.817 115.11 249.817 115.403V115.411V115.414Z" fill="url(#paint9_linear_9513_2251)"/>
<path d="M244.798 109.166H226.345C225 109.166 223.909 108.07 223.906 106.719C223.906 105.367 225 104.274 226.345 104.271H244.721C243.391 105.296 243.138 107.211 244.159 108.546C244.34 108.783 244.556 108.99 244.795 109.166H244.798Z" fill="url(#paint10_linear_9513_2251)"/>
<path d="M249.626 106.689C249.631 108.378 248.274 109.753 246.591 109.759C246.591 109.759 246.585 109.759 246.583 109.759C245.942 109.759 245.316 109.556 244.798 109.176C243.436 108.192 243.125 106.287 244.106 104.92C244.279 104.678 244.487 104.463 244.723 104.282C245.255 103.864 245.91 103.638 246.585 103.641C248.264 103.641 249.623 105.005 249.628 106.689H249.626Z" fill="url(#paint11_linear_9513_2251)"/>
<path d="M224.214 154.771L224.291 156.46C224.041 157.138 223.483 157.654 222.791 157.848C222.134 158.021 221.437 157.875 220.902 157.457L221.022 154.63" fill="#C14834"/>
<path d="M217.665 156.314L217.742 158.003C217.492 158.681 216.934 159.197 216.242 159.391C215.588 159.564 214.888 159.421 214.354 159.003L214.471 156.173" fill="#C14834"/>
<path d="M225.658 126.911L224.429 155.152C223.998 155.468 223.485 155.649 222.95 155.665C221.918 155.726 221.732 155.798 220.99 155.12L217.736 125.679L225.722 124.777L225.658 126.908V126.911Z" fill="#231F20"/>
<path d="M225.658 126.911L224.429 155.152C223.998 155.468 223.485 155.649 222.95 155.665C221.918 155.726 221.732 155.798 220.99 155.12L217.736 125.679L225.722 124.777L225.658 126.908V126.911Z" fill="url(#paint12_linear_9513_2251)"/>
<path d="M221.124 129.599L217.894 156.915C217.894 156.915 217.434 157.393 216.168 157.409C214.729 157.428 214.599 157.231 214.277 156.502L213.654 125.173L221.046 126.436L221.124 129.599Z" fill="#231F20"/>
<path d="M221.124 129.599L217.894 156.915C217.894 156.915 217.434 157.393 216.168 157.409C214.729 157.428 214.599 157.231 214.277 156.502L213.654 125.173L221.046 126.436L221.124 129.599Z" fill="url(#paint13_linear_9513_2251)"/>
<path d="M222.14 126.871C221.129 127.211 220.091 127.456 219.035 127.599C217.652 127.743 216.173 127.065 215.069 127.009C213.604 126.932 213.566 126.886 213.566 125.929C213.566 125.447 225.731 124.293 225.731 124.293C225.731 124.293 225.675 125.176 225.677 125.99C225.677 126.605 225.417 126.57 224.31 126.631C223.204 126.692 222.999 126.357 222.14 126.873V126.871Z" fill="url(#paint14_linear_9513_2251)"/>
<path d="M217.341 105.311C217.341 105.311 215.301 105.84 213.846 106.907C212.947 107.564 213.569 125.931 213.569 125.931C213.657 125.918 217.567 127.509 221.347 126.857C224.576 126.301 225.728 124.785 225.728 124.785C225.728 124.785 226.018 107.162 225.393 106.436C225.111 106.112 222.052 104.979 222.052 104.979C222.052 104.979 220.711 106.984 217.341 105.311Z" fill="#F8FAFC"/>
<path d="M217.594 114.132H222.533C223.257 114.132 223.842 114.72 223.842 115.443V122.979C223.842 123.705 223.257 124.29 222.533 124.29H217.594C216.87 124.29 216.285 123.703 216.285 122.979V115.443C216.285 114.717 216.87 114.132 217.594 114.132Z" fill="#F2FBFF"/>
<path d="M216.727 123.615V114.818C216.727 114.443 217.03 114.14 217.402 114.14H216.961C216.588 114.14 216.285 114.443 216.285 114.818V123.615C216.285 123.99 216.588 124.293 216.961 124.293H217.402C217.03 124.293 216.727 123.99 216.727 123.615Z" fill="#D2E8EC"/>
<path d="M223.78 97.2594C223.751 96.7247 223.631 96.1954 223.429 95.6979C223.429 95.6979 224.584 95.1048 224.352 97.2354C224.121 99.3661 224.379 99.5496 223.514 100.707L223.328 100.244C223.549 99.1506 223.871 98.6186 223.78 97.2567V97.2594Z" fill="#231F20"/>
<path d="M218.015 101.23L217.348 105.311C217.348 105.311 218.843 107.508 220.731 107.181C222.62 106.853 222.152 105.965 222.152 105.965L221.907 102.518C221.907 102.518 220.191 102.813 218.013 101.228L218.015 101.23Z" fill="#C14834"/>
<path d="M217.771 102.661L218.003 101.228C220.189 102.821 221.32 102.143 221.32 102.143L221.849 103.994C221.551 104.305 221.152 104.497 220.727 104.534C219.684 104.614 218.625 103.792 217.774 102.661H217.771Z" fill="#B58B81"/>
<path d="M217.418 104.819L215.441 105.745C215.441 105.745 218.562 109.054 219.511 108.985C219.511 108.985 220.408 107.312 221.254 107.048L217.418 104.819Z" fill="#F2FBFF"/>
<path d="M225.166 106.317C225.166 106.317 226.847 106.503 227.797 112.82C228.677 118.67 229.613 120.936 227.818 121.849C225.333 123.101 224.299 122.753 224.299 122.753C224.299 122.753 223.447 121.011 223.937 119.822C223.937 119.822 224.557 119.59 225.759 119.037L225.722 114.568C225.722 114.568 222.86 105.415 225.166 106.314V106.317Z" fill="#F8FAFC"/>
<path d="M222.009 105.389C221.844 105.982 221.589 106.546 221.254 107.059C221.437 107.131 222.65 107.985 222.669 108.551C222.669 108.551 223.871 105.819 223.374 105.389C222.959 105.176 222.531 104.984 222.094 104.819L222.009 105.386V105.389Z" fill="#F2FBFF"/>
<path d="M214.649 106.423C214.649 106.423 211.587 107.415 211.238 112.323C210.925 116.784 210.127 120.042 210.778 121.367C211.621 123.093 217.527 123.38 217.527 123.38C217.67 122.521 217.633 121.641 217.42 120.795L214.191 119.502C214.191 119.502 214.702 107.189 214.651 106.423H214.649Z" fill="#F8FAFC"/>
<path d="M225.715 109.703L226.34 118.529C226.396 119.303 225.023 119.771 225.023 119.771C225.023 119.771 225.292 115.462 225.255 115.257C225.215 115.052 225.606 110.333 225.715 109.7V109.703Z" fill="url(#paint15_linear_9513_2251)"/>
<path d="M216.295 98.2563C216.457 100.523 218.769 104.523 221.025 104.361C223.28 104.199 223.932 99.5172 223.78 97.2588C223.629 95.0031 222.352 93.713 220.091 93.8726C217.838 94.0322 216.138 95.9953 216.295 98.2563Z" fill="#C14834"/>
<path d="M218.187 94.0033C218.187 94.0033 218.879 92.801 220.991 93.0351C223.1 93.2692 223.6 94.7694 224.159 94.538C224.718 94.3066 225.736 95.1924 225.042 96.2032C224.348 97.2113 223.22 97.4853 221.834 96.8176C220.448 96.15 218.719 96.0781 218.374 96.4878C218.028 96.8974 218.834 101.066 218.834 101.066C218.834 101.066 218.834 101.257 218.451 101.092C218.068 100.927 218.31 98.4083 217.528 98.2727C216.746 98.137 216.676 99.8766 217.296 100.403C217.775 100.81 217.873 102.204 217.873 102.204C217.873 102.204 215.394 100.539 215.567 97.6475C215.74 94.7535 216.825 93.7161 218.187 94.0033Z" fill="#231F20"/>
<path d="M223.695 120.435C223.405 120.143 223.011 119.978 222.599 119.973C221.939 119.983 221.383 120.215 220.431 120.284C219.479 120.35 220.115 121.236 220.16 121.84C220.202 122.444 220.064 123.191 220.269 123.369C220.474 123.548 223.886 123.111 224.24 122.702C224.405 122.513 224.293 120.781 223.695 120.438V120.435Z" fill="#C14834"/>
<path d="M224.622 119.986C224.622 119.986 224.752 122.473 225.002 122.649L223.778 122.926C223.286 122.122 223.175 121.141 223.473 120.247L224.624 119.986H224.622Z" fill="#F2FBFF"/>
<path d="M224.072 120.902C224.201 120.902 224.306 120.797 224.306 120.668C224.306 120.538 224.201 120.434 224.072 120.434C223.943 120.434 223.838 120.538 223.838 120.668C223.838 120.797 223.943 120.902 224.072 120.902Z" fill="#D2E8EC"/>
<path d="M221.607 123.024C221.551 122.593 221.754 122.178 221.815 121.442C221.876 120.702 221.4 120.516 220.703 120.439C220.514 120.418 220.365 120.394 220.243 120.375C219.594 120.532 220.112 121.322 220.147 121.875C220.184 122.429 220.059 123.2 220.248 123.373C220.325 123.445 220.921 123.413 221.613 123.322C221.623 123.224 221.621 123.123 221.605 123.027L221.607 123.024Z" fill="#B58B81"/>
<path d="M224.622 119.986C224.622 119.986 224.752 122.473 225.002 122.649L223.778 122.926C223.286 122.122 223.175 121.141 223.473 120.247L224.624 119.986H224.622Z" fill="#F2FBFF"/>
<path d="M224.072 120.902C224.201 120.902 224.306 120.797 224.306 120.668C224.306 120.538 224.201 120.434 224.072 120.434C223.943 120.434 223.838 120.538 223.838 120.668C223.838 120.797 223.943 120.902 224.072 120.902Z" fill="#D2E8EC"/>
<path d="M214.648 110.572L213.709 119.196L214.81 119.709L214.648 110.572Z" fill="url(#paint16_linear_9513_2251)"/>
<path d="M216.273 123.266L213.488 122.803L213.565 125.918C213.565 125.918 213.871 123.157 214.927 123.603C215.981 124.05 216.273 123.266 216.273 123.266Z" fill="url(#paint17_linear_9513_2251)"/>
<path d="M226.363 118.861L224.562 119.931L225.789 119.5L226.363 118.861Z" fill="url(#paint18_linear_9513_2251)"/>
<path d="M222.035 102.023C222.035 102.023 221.973 101.967 221.497 101.999C220.936 102.028 220.375 101.988 219.824 101.882C219.46 101.789 219.284 101.845 219.319 102.345C219.353 102.845 219.744 103.271 220.702 103.321C221.774 103.38 222.223 102.973 222.317 102.491C222.364 102.121 222.165 102.015 222.032 102.023H222.035Z" fill="#C14834"/>
<path d="M217.907 120.872C218.309 120.787 218.705 120.675 219.093 120.539C219.604 120.348 219.761 120.46 220.511 120.539C221.261 120.619 221.769 120.811 221.706 121.563C221.642 122.316 221.424 122.739 221.474 123.183C221.525 123.628 221.394 124 220.74 124.016C220.086 124.032 217.896 123.362 217.896 123.362" fill="#C14834"/>
<path d="M217.195 120.667H218.33C218.33 120.667 218.82 122.314 218.184 123.444L216.918 123.399C216.918 123.399 217.354 121.808 217.195 120.667Z" fill="#F2FBFF"/>
<path d="M217.77 121.473C217.908 121.473 218.02 121.355 218.02 121.21C218.02 121.064 217.908 120.946 217.77 120.946C217.631 120.946 217.52 121.064 217.52 121.21C217.52 121.355 217.631 121.473 217.77 121.473Z" fill="#D2E8EC"/>
<path d="M225.132 111.495L223.236 111.862L223.143 111.277L225.044 110.907L225.132 111.495Z" fill="#F2FBFF"/>
<path d="M218.828 158.849C219.503 159.179 220.105 159.647 220.589 160.224C220.871 160.559 221.121 160.985 221.025 161.41C220.942 161.727 220.714 161.985 220.408 162.105C220.11 162.219 219.785 162.254 219.469 162.206C218.913 162.118 218.368 161.956 217.854 161.724C216.854 161.325 215.846 160.908 214.979 160.269C214.569 159.966 214.167 159.564 214.133 159.051C214.133 158.854 214.205 158.615 214.399 158.588C214.481 158.58 214.566 158.588 214.644 158.62C215.215 158.788 215.811 158.857 216.404 158.822C216.628 158.82 216.843 158.756 217.035 158.641C217.216 158.527 217.338 158.288 217.564 158.266C217.902 158.216 218.522 158.7 218.825 158.846L218.828 158.849Z" fill="#F8FAFC"/>
<path d="M220.707 157.17C220.707 157.053 220.721 156.904 220.835 156.878C220.888 156.87 220.944 156.88 220.992 156.91C221.423 157.128 221.763 157.516 222.226 157.663C222.934 157.894 223.726 157.431 224.072 156.766C224.096 156.705 224.139 156.657 224.195 156.625C224.258 156.607 224.325 156.614 224.381 156.646C225.152 156.918 225.905 157.245 226.628 157.628C227.03 157.859 227.453 158.192 227.456 158.655C227.432 159.001 227.224 159.304 226.91 159.45C226.602 159.588 226.267 159.658 225.929 159.655C224.729 159.703 223.532 159.525 222.396 159.128C221.91 158.958 221.17 158.748 220.782 158.383C220.502 158.104 220.721 157.551 220.707 157.17Z" fill="#F8FAFC"/>
<path d="M218.828 158.849C219.503 159.179 220.105 159.647 220.589 160.224C220.871 160.559 221.121 160.985 221.025 161.41C220.942 161.727 220.714 161.985 220.408 162.105C220.11 162.219 219.785 162.254 219.469 162.206C218.913 162.118 218.368 161.956 217.854 161.724C216.854 161.325 215.846 160.908 214.979 160.269C214.569 159.966 214.167 159.564 214.133 159.051C214.133 158.854 214.205 158.615 214.399 158.588C214.481 158.58 214.566 158.588 214.644 158.62C215.215 158.788 215.811 158.857 216.404 158.822C216.628 158.82 216.843 158.756 217.035 158.641C217.216 158.527 217.338 158.288 217.564 158.266C217.902 158.216 218.522 158.7 218.825 158.846L218.828 158.849Z" fill="url(#paint19_linear_9513_2251)"/>
<path d="M220.707 157.17C220.707 157.053 220.721 156.904 220.835 156.878C220.888 156.87 220.944 156.88 220.992 156.91C221.423 157.128 221.763 157.516 222.226 157.663C222.934 157.894 223.726 157.431 224.072 156.766C224.096 156.705 224.139 156.657 224.195 156.625C224.258 156.607 224.325 156.614 224.381 156.646C225.152 156.918 225.905 157.245 226.628 157.628C227.03 157.859 227.453 158.192 227.456 158.655C227.432 159.001 227.224 159.304 226.91 159.45C226.602 159.588 226.267 159.658 225.929 159.655C224.729 159.703 223.532 159.525 222.396 159.128C221.91 158.958 221.17 158.748 220.782 158.383C220.502 158.104 220.721 157.551 220.707 157.17Z" fill="url(#paint20_linear_9513_2251)"/>
<defs>
<filter id="filter0_d_9513_2251" x="26" y="25" width="452" height="18" filterUnits="userSpaceOnUse" color-interpolation-filters="sRGB">
<feFlood flood-opacity="0" result="BackgroundImageFix"/>
<feColorMatrix in="SourceAlpha" type="matrix" values="0 0 0 0 0 0 0 0 0 0 0 0 0 0 0 0 0 0 127 0" result="hardAlpha"/>
<feOffset dx="-6" dy="-5"/>
<feGaussianBlur stdDeviation="2"/>
<feComposite in2="hardAlpha" operator="out"/>
<feColorMatrix type="matrix" values="0 0 0 0 0.592157 0 0 0 0 0.580392 0 0 0 0 0.580392 0 0 0 0.25 0"/>
<feBlend mode="normal" in2="BackgroundImageFix" result="effect1_dropShadow_9513_2251"/>
<feBlend mode="normal" in="SourceGraphic" in2="effect1_dropShadow_9513_2251" result="shape"/>
</filter>
<filter id="filter1_d_9513_2251" x="18" y="32" width="17" height="181" filterUnits="userSpaceOnUse" color-interpolation-filters="sRGB">
<feFlood flood-opacity="0" result="BackgroundImageFix"/>
<feColorMatrix in="SourceAlpha" type="matrix" values="0 0 0 0 0 0 0 0 0 0 0 0 0 0 0 0 0 0 127 0" result="hardAlpha"/>
<feOffset dx="-6" dy="-4"/>
<feGaussianBlur stdDeviation="2"/>
<feComposite in2="hardAlpha" operator="out"/>
<feColorMatrix type="matrix" values="0 0 0 0 0.593099 0 0 0 0 0.580629 0 0 0 0 0.580629 0 0 0 0.25 0"/>
<feBlend mode="normal" in2="BackgroundImageFix" result="effect1_dropShadow_9513_2251"/>
<feBlend mode="normal" in="SourceGraphic" in2="effect1_dropShadow_9513_2251" result="shape"/>
</filter>
<linearGradient id="paint0_linear_9513_2251" x1="483" y1="124" x2="28" y2="124" gradientUnits="userSpaceOnUse">
<stop stop-color="#68D3FD"/>
<stop offset="1" stop-color="#0DBBCE"/>
</linearGradient>
<linearGradient id="paint1_linear_9513_2251" x1="221.46" y1="146.679" x2="230.094" y2="209.987" gradientUnits="userSpaceOnUse">
<stop stop-color="#010101" stop-opacity="0"/>
<stop offset="0.95" stop-color="#010101"/>
</linearGradient>
<linearGradient id="paint2_linear_9513_2251" x1="287.046" y1="100.805" x2="287.147" y2="127.708" gradientUnits="userSpaceOnUse">
<stop stop-color="#010101" stop-opacity="0"/>
<stop offset="0.95" stop-color="#010101"/>
</linearGradient>
<linearGradient id="paint3_linear_9513_2251" x1="283.187" y1="107.277" x2="283.971" y2="137.63" gradientUnits="userSpaceOnUse">
<stop stop-color="#010101" stop-opacity="0"/>
<stop offset="0.95" stop-color="#010101"/>
</linearGradient>
<linearGradient id="paint4_linear_9513_2251" x1="286.157" y1="107.2" x2="286.942" y2="137.55" gradientUnits="userSpaceOnUse">
<stop stop-color="#010101" stop-opacity="0"/>
<stop offset="0.95" stop-color="#010101"/>
</linearGradient>
<linearGradient id="paint5_linear_9513_2251" x1="288.954" y1="107.128" x2="289.738" y2="137.479" gradientUnits="userSpaceOnUse">
<stop stop-color="#010101" stop-opacity="0"/>
<stop offset="0.95" stop-color="#010101"/>
</linearGradient>
<linearGradient id="paint6_linear_9513_2251" x1="292.14" y1="107.045" x2="292.925" y2="137.396" gradientUnits="userSpaceOnUse">
<stop stop-color="#010101" stop-opacity="0"/>
<stop offset="0.95" stop-color="#010101"/>
</linearGradient>
<linearGradient id="paint7_linear_9513_2251" x1="242.994" y1="108.32" x2="243.779" y2="138.673" gradientUnits="userSpaceOnUse">
<stop stop-color="#010101" stop-opacity="0"/>
<stop offset="0.95" stop-color="#010101"/>
</linearGradient>
<linearGradient id="paint8_linear_9513_2251" x1="245.84" y1="108.245" x2="246.625" y2="138.598" gradientUnits="userSpaceOnUse">
<stop stop-color="#010101" stop-opacity="0"/>
<stop offset="0.95" stop-color="#010101"/>
</linearGradient>
<linearGradient id="paint9_linear_9513_2251" x1="249.027" y1="108.165" x2="249.811" y2="138.516" gradientUnits="userSpaceOnUse">
<stop stop-color="#010101" stop-opacity="0"/>
<stop offset="0.95" stop-color="#010101"/>
</linearGradient>
<linearGradient id="paint10_linear_9513_2251" x1="234.182" y1="99.2627" x2="235.092" y2="141.815" gradientUnits="userSpaceOnUse">
<stop stop-color="#010101" stop-opacity="0"/>
<stop offset="0.95" stop-color="#010101"/>
</linearGradient>
<linearGradient id="paint11_linear_9513_2251" x1="246.755" y1="98.2116" x2="246.168" y2="126.666" gradientUnits="userSpaceOnUse">
<stop stop-color="#010101" stop-opacity="0"/>
<stop offset="0.95" stop-color="#010101"/>
</linearGradient>
<linearGradient id="paint12_linear_9513_2251" x1="226.113" y1="150.39" x2="216.303" y2="113.241" gradientUnits="userSpaceOnUse">
<stop stop-color="#010101" stop-opacity="0"/>
<stop offset="0.95" stop-color="#010101"/>
</linearGradient>
<linearGradient id="paint13_linear_9513_2251" x1="214.591" y1="141.322" x2="240.161" y2="139.364" gradientUnits="userSpaceOnUse">
<stop stop-color="#010101" stop-opacity="0"/>
<stop offset="0.95" stop-color="#010101"/>
</linearGradient>
<linearGradient id="paint14_linear_9513_2251" x1="219.602" y1="127.825" x2="219.703" y2="121.891" gradientUnits="userSpaceOnUse">
<stop stop-color="#010101" stop-opacity="0"/>
<stop offset="0.95" stop-color="#010101"/>
</linearGradient>
<linearGradient id="paint15_linear_9513_2251" x1="224.342" y1="114.741" x2="233.53" y2="114.706" gradientUnits="userSpaceOnUse">
<stop stop-color="#010101" stop-opacity="0"/>
<stop offset="0.95" stop-color="#010101"/>
</linearGradient>
<linearGradient id="paint16_linear_9513_2251" x1="215.417" y1="115.179" x2="208.62" y2="114.788" gradientUnits="userSpaceOnUse">
<stop stop-color="#010101" stop-opacity="0"/>
<stop offset="0.95" stop-color="#010101"/>
</linearGradient>
<linearGradient id="paint17_linear_9513_2251" x1="214.879" y1="125.005" x2="214.879" y2="115.73" gradientUnits="userSpaceOnUse">
<stop stop-color="#010101" stop-opacity="0"/>
<stop offset="0.95" stop-color="#010101"/>
</linearGradient>
<linearGradient id="paint18_linear_9513_2251" x1="225.283" y1="118.367" x2="227.792" y2="132.763" gradientUnits="userSpaceOnUse">
<stop stop-color="#010101" stop-opacity="0"/>
<stop offset="0.95" stop-color="#010101"/>
</linearGradient>
<linearGradient id="paint19_linear_9513_2251" x1="217.718" y1="151.473" x2="217.423" y2="171.295" gradientUnits="userSpaceOnUse">
<stop stop-color="#010101" stop-opacity="0"/>
<stop offset="0.95" stop-color="#010101"/>
</linearGradient>
<linearGradient id="paint20_linear_9513_2251" x1="224.189" y1="148.642" x2="223.897" y2="168.462" gradientUnits="userSpaceOnUse">
<stop stop-color="#010101" stop-opacity="0"/>
<stop offset="0.95" stop-color="#010101"/>
</linearGradient>
</defs>
</svg>
