<svg width="719" height="517" viewBox="0 0 719 517" fill="none" xmlns="http://www.w3.org/2000/svg">
<path d="M0 4C0 1.79086 1.79086 0 4 0H715C717.209 0 719 1.79086 719 4V512.46C719 514.669 717.209 516.46 715 516.46H3.99998C1.79084 516.46 0 514.669 0 512.46V4Z" fill="url(#paint0_linear_9516_2395)"/>
<path opacity="0.18" d="M494.478 300.44C494.402 302.779 494.263 305.112 494.028 307.496C492.38 324.747 486.312 341.973 473.233 353.068C457.706 366.236 435.681 368.176 415.33 367.428C394.978 366.68 374.107 363.922 354.63 369.863C343.967 373.115 334.209 378.866 323.571 382.181C303.321 388.49 280.541 385.364 262.364 374.485C244.188 363.605 230.779 345.302 225.149 324.887C224.096 321.045 223.278 317.146 222.701 313.202C219.493 291.627 222.638 269.203 222.181 247.203C221.776 227.65 218.574 207.4 225.586 189.122C230.259 176.949 239.154 166.9 249.329 158.95C284.941 131.187 329.79 116.231 374.716 115.952C401.477 115.781 428.827 120.048 452.304 132.88C459.938 137.045 467.184 142.225 472.554 149.015C476.549 154.094 479.402 159.983 481.741 165.994C485.799 176.429 488.417 187.372 489.527 198.518C490.959 212.999 489.831 227.606 490.408 242.131C491.213 261.614 495.042 280.951 494.472 300.427L494.478 300.44Z" fill="#F8FAFC"/>
<path d="M494.028 307.489L493.933 308.409C492.557 321.539 488.601 334.599 480.898 344.876C478.666 347.875 476.098 350.614 473.245 353.029C457.719 366.198 435.693 368.138 415.342 367.39C394.991 366.641 374.119 363.884 354.643 369.824C343.979 373.077 334.222 378.827 323.583 382.143C303.333 388.451 280.554 385.325 262.377 374.446C250.42 367.18 240.504 356.998 233.562 344.851C229.929 338.568 227.108 331.854 225.174 324.861C224.121 321.019 223.304 317.12 222.727 313.176L325.733 311.002L494.021 307.477L494.028 307.489Z" fill="#F8FAFC"/>
<path d="M493.939 308.409C492.563 321.539 488.607 334.599 480.904 344.876H233.542C229.909 338.593 227.088 331.879 225.154 324.886C224.102 321.044 223.284 317.145 222.707 313.202L325.713 311.027L493.926 308.402L493.939 308.409Z" fill="url(#paint1_linear_9516_2395)"/>
<path d="M285.271 362.863C306.315 362.863 323.375 357.836 323.375 351.634C323.375 345.433 306.315 340.406 285.271 340.406C264.227 340.406 247.168 345.433 247.168 351.634C247.168 357.836 264.227 362.863 285.271 362.863Z" fill="url(#paint2_linear_9516_2395)"/>
<path d="M292.821 342.266L293.278 347.04C293.278 347.04 291.445 349.81 289.055 349.982C286.665 350.153 285.854 349.018 285.854 349.018L286.253 342.006" fill="#FFAA71"/>
<path d="M285.861 349.019L286.026 346.197L293.038 344.314L293.577 348.144C292.265 349.139 290.718 349.773 289.082 349.982C286.686 350.16 285.868 349.019 285.868 349.019H285.861Z" fill="white"/>
<path d="M270.467 342.773L269.998 347.68C269.998 347.68 271.875 350.52 274.328 350.704C276.782 350.881 277.612 349.709 277.612 349.709L277.207 342.5" fill="#FFAA71"/>
<path d="M277.613 349.703L277.448 346.805L270.258 344.865L269.992 347.668C269.992 347.668 271.869 350.508 274.322 350.692C276.776 350.869 277.607 349.703 277.607 349.703H277.613Z" fill="white"/>
<path d="M276.339 235.508C276.339 235.508 266.867 240.117 266.645 241.601C266.423 243.084 267.71 280.046 267.71 280.046C267.71 280.046 270.823 284.041 280.225 284.041C289.627 284.041 292.379 281.276 292.81 279.983C293.241 278.69 294.782 241.886 294.56 240.307C294.338 238.729 285.595 235.533 285.595 235.533L276.332 235.508H276.339Z" fill="#F8FAFC"/>
<path d="M290.526 252.904L288.586 281.561L292.808 279.982L293.398 270.84L290.526 252.904Z" fill="url(#paint3_linear_9516_2395)"/>
<path d="M281.987 260.904C281.987 260.904 270.822 261 270.112 260.289C269.402 259.579 266.727 241.022 266.644 241.599C266.486 242.683 267.113 260.416 267.469 270.307C271.532 269.001 275.514 267.466 279.407 265.71C280.478 265.254 281.397 264.506 282.057 263.548C282.665 262.648 283.014 261.576 281.987 260.911V260.904Z" fill="url(#paint4_linear_9516_2395)"/>
<path d="M277.911 230.271C277.505 232.046 276.985 233.796 276.351 235.501C275.73 237.2 277.004 240.782 280.852 240.782C284.701 240.782 285.145 236.357 285.075 235.501C285.031 234.886 284.029 232.851 283.782 230.892C283.509 228.781 278.12 228.8 277.911 230.271Z" fill="#FFAA71"/>
<path d="M278.723 241.599L280.358 243.888L279.192 274.801L282.298 278.219L284.467 274.022L281.905 243.507L282.489 241.257L280.77 240.191L278.723 241.599Z" fill="#231F20"/>
<path d="M283.102 257.969L283.489 252.491L292.289 250.316L289.493 267.403L282.551 268.227L283.102 257.969Z" fill="white"/>
<path d="M277.385 232.717C277.385 232.717 277.385 238.619 280.637 238.099C283.89 237.58 284.422 233.078 284.422 233.078L277.385 232.717Z" fill="url(#paint5_linear_9516_2395)"/>
<path d="M269.205 280.547C269.205 280.547 267.316 287.026 268.425 307.758C269.541 328.49 269.985 342.99 269.985 342.99C269.985 342.99 270.124 344.682 273.694 344.727C277.263 344.771 278.208 342.387 278.208 342.387L281.663 289.283L285.309 343.509C285.309 343.509 289.595 345.976 292.936 344.124C294.781 343.104 294.616 305.286 293.785 288.624C293.678 285.904 293.012 283.235 291.839 280.781C291.839 280.781 282.811 286.779 269.205 280.547Z" fill="#231F20"/>
<path d="M294.56 240.301C294.56 240.301 298.877 258.408 299.232 261.483C299.587 264.558 294.902 273.117 294.122 271.487C293.032 269.363 291.941 261.286 291.941 261.286L294.56 240.301Z" fill="#F8FAFC"/>
<path d="M302.358 260.803C302.351 261.101 302.516 261.374 302.776 261.513C303.087 261.589 303.416 261.538 303.689 261.367C305.838 260.347 307.094 258.857 308.698 257.253C309.934 256.162 311.043 254.926 311.994 253.575C312.724 252.352 312.109 247.007 311.405 246.925C310.701 246.842 310.802 248.554 310.929 249.619C311.056 250.684 309.896 251.959 309.604 252.472C309.313 252.986 308.336 252.041 307.455 253.506C306.808 254.59 306.783 255.389 305.838 256.276C304.71 257.316 303.702 258.47 302.814 259.719C302.592 259.985 302.44 260.302 302.37 260.638C302.364 260.695 302.364 260.746 302.364 260.803H302.358Z" fill="#FFAA71"/>
<path d="M295.244 261.92C295.39 261.672 305.743 255.688 305.743 255.688C305.743 255.688 307.081 256.505 308.082 259.022C308.082 259.022 295.624 271.056 294.591 271.595C293.557 272.133 295.022 269.648 293.272 266.269C291.529 262.89 295.244 261.926 295.244 261.926V261.92Z" fill="#F8FAFC"/>
<path d="M265.04 351.199C264.146 351.801 263.405 352.6 262.866 353.538C262.34 354.521 262.568 355.732 263.405 356.461C263.766 356.689 264.172 356.828 264.597 356.879C268.16 357.482 271.786 356.245 274.227 353.582C274.424 353.329 274.658 353.113 274.937 352.955C275.546 352.65 276.307 352.955 276.96 352.72C277.873 352.403 278.152 351.262 278.285 350.298C278.418 349.335 278.526 348.155 277.847 347.42C277.143 348.58 275.628 348.923 274.271 348.98C273.447 349.068 272.617 348.98 271.824 348.739C271.095 348.472 270.499 347.693 269.662 347.807C268.825 347.921 268.103 348.764 267.513 349.233L265.034 351.211L265.04 351.199Z" fill="#231F20"/>
<path d="M298.629 351.2C299.523 351.802 300.265 352.601 300.804 353.539C301.33 354.522 301.102 355.733 300.265 356.462C299.904 356.69 299.498 356.829 299.073 356.88C295.517 357.482 291.903 356.246 289.456 353.596C289.259 353.342 289.024 353.127 288.745 352.968C288.137 352.664 287.376 352.968 286.723 352.734C285.81 352.417 285.531 351.276 285.398 350.312C285.265 349.348 285.157 348.169 285.835 347.434C286.539 348.594 288.054 348.936 289.411 348.993C290.235 349.082 291.066 348.993 291.858 348.752C292.587 348.486 293.183 347.706 294.02 347.82C294.857 347.934 295.58 348.778 296.17 349.247L298.629 351.219V351.2Z" fill="#231F20"/>
<path d="M277.816 259.08C278.146 258.852 278.596 258.763 278.97 258.497C279.344 258.23 283.883 255.2 284.232 256.005C284.391 256.373 284.055 256.785 283.731 257.02C283.408 257.254 283.04 257.577 283.11 257.983L287.719 255.707C287.795 255.656 287.884 255.637 287.979 255.644C288.138 255.644 288.195 255.853 288.226 256.018C288.378 257.165 288.08 258.332 287.396 259.264C286.248 260.805 284.663 261.958 282.837 262.573C280.498 263.353 278.361 264.425 277.765 262.643C277.499 261.863 277.043 260.576 277.334 259.72C277.417 259.454 277.581 259.226 277.81 259.074L277.816 259.08Z" fill="#FFAA71"/>
<path d="M268.426 239.875C267.075 240.801 265.915 241.967 264.989 243.318C263.487 245.537 261.001 264.151 262.149 269.198C262.631 271.334 280.193 263.365 280.193 263.365C280.193 263.365 279.787 259.795 277.929 258.584C277.929 258.584 269.313 260.429 268.667 259.783C268.02 259.136 268.426 239.875 268.426 239.875Z" fill="#F8FAFC"/>
<path d="M274.474 222.568C274.474 222.568 274.271 230.645 277.377 232.693C280.484 234.741 281.72 234.455 283.952 233.416C285.302 232.788 286.291 227.849 286.856 224.071C287.433 220.508 285.385 217.04 281.987 215.822C280.833 215.385 279.558 215.385 278.404 215.822C275.634 216.824 273.979 219.664 274.474 222.568Z" fill="#FFAA71"/>
<path d="M286.913 223.759C287.096 223.353 287.223 222.929 287.293 222.491C287.439 221.027 287.274 219.549 286.817 218.155C286.659 217.337 286.374 216.55 285.968 215.815C285.568 215.187 285.004 214.687 284.332 214.37C283.971 214.37 283.647 214.002 283.381 213.761C282.817 213.342 282.107 213.178 281.416 213.311C280.731 213.387 280.065 213.609 279.374 213.672C278.201 213.78 276.845 213.469 275.938 214.23C275.469 214.763 275.095 215.365 274.816 216.012C274.499 216.55 274.036 216.994 273.681 217.501C273.275 217.99 273.066 218.605 273.079 219.239C273.212 219.797 273.396 220.335 273.63 220.855C273.763 221.718 273.839 222.593 273.871 223.467C274.055 224.469 274.651 225.382 274.651 226.397L274.86 221.052C274.848 220.906 274.879 220.754 274.949 220.621C275.114 220.354 275.482 220.342 275.78 220.259C276.502 220.076 277.016 219.403 277.72 219.137C278.208 218.991 278.721 218.947 279.228 219.01L283.071 219.194C283.299 219.194 283.527 219.245 283.73 219.353C283.876 219.467 284.015 219.6 284.142 219.733C284.573 220.082 285.207 220.012 285.702 220.291C286.374 220.678 286.481 221.584 286.519 222.364L286.659 225.255C286.627 224.742 286.71 224.228 286.9 223.753L286.913 223.759Z" fill="#231F20"/>
<path d="M276.586 234.873C276.586 234.873 278.519 239.501 280.77 240.199L276.877 242.887L275.559 235.875L276.586 234.873Z" fill="#F8FAFC"/>
<path d="M284.783 234.664L285.563 235.495L284.942 242.697L280.738 240.167C280.738 240.167 284.244 237.72 284.79 234.664H284.783Z" fill="#F8FAFC"/>
<path d="M276.586 234.873C276.586 234.873 278.519 239.501 280.77 240.199L276.877 242.887L275.559 235.875L276.586 234.873Z" fill="url(#paint6_linear_9516_2395)"/>
<path d="M284.783 234.664L285.563 235.495L284.942 242.697L280.738 240.167C280.738 240.167 284.244 237.72 284.79 234.664H284.783Z" fill="url(#paint7_linear_9516_2395)"/>
<path d="M371.907 287.284C372.921 296.731 369.567 316.163 359.087 319.993C356.507 320.937 353.711 321.051 350.965 321.14C340.219 321.495 329.467 321.584 318.708 321.406C314.403 321.425 310.111 321.127 305.85 320.519C303.777 320.176 301.634 319.657 300.024 318.306C297.304 316.017 296.86 311.649 298.692 308.593C300.524 305.537 304.214 303.921 307.765 304.035C303.409 304.333 299.637 301.049 299.333 296.693C299.218 295.089 299.605 293.485 300.429 292.103C302.927 287.912 308.481 286.961 313.331 286.441C310.275 282.783 308.006 278.269 307.879 273.508C307.752 268.74 310.136 263.75 314.403 261.627C318.67 259.503 324.667 261.037 326.683 265.354C325.124 257.265 327.241 248.37 332.858 242.334C337.905 236.881 348.125 232.621 355.442 235.886C362.454 238.999 365.059 249.638 366.606 256.288C368.996 266.502 370.765 276.855 371.894 287.284H371.907Z" fill="#F8FAFC"/>
<path d="M371.907 287.284C372.921 296.731 369.567 316.163 359.087 319.993C356.507 320.937 353.711 321.051 350.965 321.14C340.219 321.495 329.467 321.584 318.708 321.406C314.403 321.425 310.111 321.127 305.85 320.519C303.777 320.176 301.634 319.657 300.024 318.306C297.304 316.017 296.86 311.649 298.692 308.593C300.524 305.537 304.214 303.921 307.765 304.035C303.409 304.333 299.637 301.049 299.333 296.693C299.218 295.089 299.605 293.485 300.429 292.103C302.927 287.912 308.481 286.961 313.331 286.441C310.275 282.783 308.006 278.269 307.879 273.508C307.752 268.74 310.136 263.75 314.403 261.627C318.67 259.503 324.667 261.037 326.683 265.354C325.124 257.265 327.241 248.37 332.858 242.334C337.905 236.881 348.125 232.621 355.442 235.886C362.454 238.999 365.059 249.638 366.606 256.288C368.996 266.502 370.765 276.855 371.894 287.284H371.907Z" fill="url(#paint8_linear_9516_2395)"/>
<path d="M449.097 182.314H433.52V221.248H449.097V182.314Z" fill="#F8FAFC"/>
<path d="M449.097 182.314H433.52V221.248H449.097V182.314Z" fill="url(#paint9_linear_9516_2395)"/>
<path d="M450.465 176.791H432.143C431.145 176.791 430.336 177.6 430.336 178.598V182.446C430.336 183.444 431.145 184.253 432.143 184.253H450.465C451.463 184.253 452.272 183.444 452.272 182.446V178.598C452.272 177.6 451.463 176.791 450.465 176.791Z" fill="#F8FAFC"/>
<path d="M394.261 172.576L338.133 228.451V244.275V317.921H456.875V244.275V233.725L394.261 172.576Z" fill="#F8FAFC"/>
<path d="M394.261 172.576L338.133 228.451V244.275V317.921H456.875V244.275V233.725L394.261 172.576Z" fill="url(#paint10_linear_9516_2395)"/>
<g opacity="0.2">
<path d="M395.891 168.771L338.146 226.351V235.519L395.891 180.773L456.895 238.607V232.844C457.827 232.844 458.587 232.095 458.594 231.163C458.594 230.688 458.404 230.238 458.055 229.914L395.891 168.771Z" fill="#F8FAFC"/>
</g>
<path d="M461.503 317.92H333.518V327.328H461.503V317.92Z" fill="#F8FAFC"/>
<path d="M398.884 258.471H353.141V296.428H398.884V258.471Z" fill="#F8FAFC"/>
<path d="M398.884 258.471H353.141V296.428H398.884V258.471Z" fill="url(#paint11_linear_9516_2395)"/>
<path d="M444.627 256.766H414.455V317.921H444.627V256.766Z" fill="#F8FAFC"/>
<path d="M442.186 260.658H416.902V314.751H442.186V260.658Z" fill="#F8FAFC"/>
<path d="M442.186 260.658H416.902V314.751H442.186V260.658Z" fill="url(#paint12_linear_9516_2395)"/>
<path d="M445.501 253.359H413.75C413.022 253.359 412.432 253.95 412.432 254.678V257.151C412.432 257.879 413.022 258.469 413.75 258.469H445.501C446.229 258.469 446.82 257.879 446.82 257.151V254.678C446.82 253.95 446.229 253.359 445.501 253.359Z" fill="#F8FAFC"/>
<path d="M393.202 168.708L331.311 228.9C329.802 230.435 329.828 232.901 331.362 234.41C332.066 235.101 333.01 235.5 333.993 235.526C334.982 235.526 335.94 235.145 336.656 234.461L393.228 180.634C394.711 179.214 397.051 179.214 398.541 180.634L455.113 234.461C455.829 235.145 456.78 235.526 457.769 235.526C459.918 235.475 461.617 233.687 461.567 231.538C461.541 230.549 461.148 229.61 460.451 228.907L398.566 168.715C397.07 167.257 394.686 167.257 393.19 168.715L393.202 168.708Z" fill="#F8FAFC"/>
<path d="M400.203 256.766H351.822V258.471H400.203V256.766Z" fill="#F8FAFC"/>
<path d="M365.834 258.471H364.293V293.265H365.834V258.471Z" fill="#F8FAFC"/>
<path d="M376.783 258.471H375.242V293.265H376.783V258.471Z" fill="#F8FAFC"/>
<path d="M387.732 258.471H386.191V293.265H387.732V258.471Z" fill="#F8FAFC"/>
<path d="M398.884 276.799H353.141V278.099H398.884V276.799Z" fill="#F8FAFC"/>
<path d="M397.496 293.848C398.998 293.062 399.981 291.54 400.076 289.848C400.076 289.068 399.803 288.18 399.062 288.072C398.745 288.06 398.434 288.129 398.161 288.282C397.318 288.681 396.57 289.245 395.955 289.949C396.183 289.195 396.272 288.402 396.228 287.61C396.234 286.468 395.315 285.543 394.18 285.53C393.514 285.53 392.893 285.841 392.5 286.38C391.904 287.09 391.485 287.933 391.27 288.833C390.781 287.527 389.932 286.386 388.822 285.549C388.639 285.397 388.417 285.283 388.182 285.232C387.909 285.219 387.637 285.283 387.402 285.416C386.001 286.132 385.088 287.54 385.006 289.106C384.854 288.535 384.359 288.123 383.776 288.06C383.256 288.047 382.825 288.465 382.812 288.985C382.812 289.055 382.812 289.125 382.831 289.188C381.728 288.041 380.086 287.578 378.545 287.99C377.005 288.478 376.041 290 376.257 291.597C375.553 291.312 374.754 291.648 374.469 292.352C374.437 292.422 374.418 292.498 374.399 292.567C374.272 293.379 374.507 294.203 375.046 294.824" fill="#F8FAFC"/>
<path d="M353.514 293.772L351.751 292.294C351.365 292.034 351.086 291.648 350.972 291.197C350.895 290.418 351.751 289.91 352.531 290.037C353.254 290.24 353.901 290.659 354.376 291.242C354.161 289.625 354.04 287.729 355.232 286.569C356.208 285.764 357.559 285.612 358.687 286.17C359.784 286.747 360.646 287.691 361.122 288.833C361.661 287.127 362.707 285.625 364.121 284.534C364.488 284.116 365.122 284.071 365.541 284.439C365.592 284.483 365.642 284.534 365.68 284.591C366.879 285.732 367.538 287.324 367.5 288.978C367.722 288.471 367.994 287.983 368.318 287.533C368.394 287.387 368.521 287.279 368.679 287.222C368.92 287.153 369.148 287.336 369.326 287.508C369.795 287.964 370.258 288.573 370.106 289.207C370.366 288.173 370.904 287.229 371.665 286.481C372.445 285.802 373.891 285.739 374.474 286.62C374.74 287.095 374.835 287.641 374.753 288.18C374.645 289.321 374.277 290.424 373.675 291.394C373.675 291.014 374.252 290.861 374.556 291.09C374.835 291.35 374.962 291.743 374.892 292.117C374.892 292.491 374.721 292.859 374.708 293.239" fill="#F8FAFC"/>
<path d="M397.496 293.848C398.998 293.062 399.981 291.54 400.076 289.848C400.076 289.068 399.803 288.18 399.062 288.072C398.745 288.06 398.434 288.129 398.161 288.282C397.318 288.681 396.57 289.245 395.955 289.949C396.183 289.195 396.272 288.402 396.228 287.61C396.234 286.468 395.315 285.543 394.18 285.53C393.514 285.53 392.893 285.841 392.5 286.38C391.904 287.09 391.485 287.933 391.27 288.833C390.781 287.527 389.932 286.386 388.822 285.549C388.639 285.397 388.417 285.283 388.182 285.232C387.909 285.219 387.637 285.283 387.402 285.416C386.001 286.132 385.088 287.54 385.006 289.106C384.854 288.535 384.359 288.123 383.776 288.06C383.256 288.047 382.825 288.465 382.812 288.985C382.812 289.055 382.812 289.125 382.831 289.188C381.728 288.041 380.086 287.578 378.545 287.99C377.005 288.478 376.041 290 376.257 291.597C375.553 291.312 374.754 291.648 374.469 292.352C374.437 292.422 374.418 292.498 374.399 292.567C374.272 293.379 374.507 294.203 375.046 294.824" fill="url(#paint13_linear_9516_2395)"/>
<path d="M398.751 293.264H353.287C351.697 293.264 350.408 294.552 350.408 296.142V301.094C350.408 302.683 351.697 303.972 353.287 303.972H398.751C400.34 303.972 401.629 302.683 401.629 301.094V296.142C401.629 294.552 400.34 293.264 398.751 293.264Z" fill="#F8FAFC"/>
<path d="M353.514 293.772L351.751 292.294C351.365 292.034 351.086 291.648 350.972 291.197C350.895 290.418 351.751 289.91 352.531 290.037C353.254 290.24 353.901 290.659 354.376 291.242C354.161 289.625 354.04 287.729 355.232 286.569C356.208 285.764 357.559 285.612 358.687 286.17C359.784 286.747 360.646 287.691 361.122 288.833C361.661 287.127 362.707 285.625 364.121 284.534C364.488 284.116 365.122 284.071 365.541 284.439C365.592 284.483 365.642 284.534 365.68 284.591C366.879 285.732 367.538 287.324 367.5 288.978C367.722 288.471 367.994 287.983 368.318 287.533C368.394 287.387 368.521 287.279 368.679 287.222C368.92 287.153 369.148 287.336 369.326 287.508C369.795 287.964 370.258 288.573 370.106 289.207C370.366 288.173 370.904 287.229 371.665 286.481C372.445 285.802 373.891 285.739 374.474 286.62C374.74 287.095 374.835 287.641 374.753 288.18C374.645 289.321 374.277 290.424 373.675 291.394C373.675 291.014 374.252 290.861 374.556 291.09C374.835 291.35 374.962 291.743 374.892 292.117C374.892 292.491 374.721 292.859 374.708 293.239" fill="url(#paint14_linear_9516_2395)"/>
<path d="M369.066 299.098H362.447V345.538H369.066V299.098Z" fill="#F8FAFC"/>
<path d="M369.066 299.098H362.447V345.538H369.066V299.098Z" fill="url(#paint15_linear_9516_2395)"/>
<path d="M384.904 301.506H344.074V323.968H384.904V301.506Z" fill="#F8FAFC"/>
<path d="M384.732 301.506H343.902V323.968H384.732V301.506Z" fill="url(#paint16_linear_9516_2395)"/>
<path d="M351.156 310.553C350.972 310.306 350.744 310.103 350.471 309.963C350.161 309.805 349.818 309.729 349.476 309.735C349.267 309.735 349.058 309.767 348.861 309.83C348.658 309.887 348.468 309.982 348.303 310.109C348.132 310.242 347.993 310.407 347.891 310.591C347.783 310.8 347.733 311.035 347.733 311.269C347.733 311.491 347.777 311.713 347.878 311.916C347.98 312.087 348.113 312.233 348.278 312.347C348.449 312.474 348.646 312.575 348.848 312.645L349.501 312.88C349.787 312.968 350.072 313.064 350.357 313.178C350.636 313.279 350.896 313.425 351.137 313.596C351.372 313.774 351.562 313.996 351.695 314.255C351.854 314.566 351.93 314.915 351.911 315.257C351.917 315.619 351.841 315.98 351.676 316.31C351.537 316.595 351.327 316.849 351.074 317.039C350.82 317.235 350.535 317.381 350.224 317.47C349.914 317.565 349.584 317.609 349.261 317.609C349.001 317.609 348.741 317.59 348.481 317.533C348.24 317.483 348.005 317.406 347.777 317.305C347.555 317.21 347.339 317.077 347.156 316.925C346.959 316.772 346.794 316.595 346.648 316.392L347.365 315.859C347.561 316.164 347.828 316.417 348.145 316.589C348.481 316.791 348.874 316.893 349.267 316.887C349.482 316.887 349.698 316.855 349.907 316.791C350.116 316.722 350.313 316.62 350.49 316.487C350.662 316.354 350.807 316.183 350.909 315.986C351.029 315.777 351.086 315.542 351.08 315.302C351.086 315.054 351.029 314.807 350.909 314.591C350.801 314.401 350.649 314.243 350.465 314.122C350.275 313.983 350.059 313.875 349.837 313.805L349.058 313.545C348.791 313.463 348.531 313.368 348.278 313.26C348.018 313.159 347.777 313.019 347.568 312.842C347.359 312.664 347.187 312.449 347.067 312.201C346.801 311.574 346.813 310.864 347.111 310.255C347.263 309.982 347.473 309.741 347.726 309.551C347.98 309.367 348.265 309.228 348.569 309.145C348.867 309.063 349.172 309.019 349.482 309.019C349.971 309.006 350.459 309.107 350.903 309.317C351.245 309.475 351.549 309.716 351.79 310.008L351.15 310.54L351.156 310.553Z" fill="white"/>
<path d="M356.317 317.401H355.404L358.929 309.248H359.709L363.215 317.401H362.296L361.396 315.258H357.205L356.317 317.401ZM357.516 314.498H361.098L359.303 310.205L357.509 314.498H357.516Z" fill="white"/>
<path d="M367.944 316.66H371.742V317.401H367.107V309.248H367.938V316.66H367.944Z" fill="white"/>
<path d="M376.427 316.66H380.795V317.401H375.59V309.248H380.649V309.977H376.42V312.779H380.37V313.521H376.42V316.66H376.427Z" fill="white"/>
<defs>
<linearGradient id="paint0_linear_9516_2395" x1="719" y1="258.23" x2="0" y2="258.23" gradientUnits="userSpaceOnUse">
<stop stop-color="#9C4546"/>
<stop offset="1" stop-color="#F23611"/>
</linearGradient>
<linearGradient id="paint1_linear_9516_2395" x1="358.928" y1="249.878" x2="357.4" y2="404.003" gradientUnits="userSpaceOnUse">
<stop stop-color="#231F20" stop-opacity="0"/>
<stop offset="1" stop-color="#231F20"/>
</linearGradient>
<linearGradient id="paint2_linear_9516_2395" x1="285.709" y1="307.489" x2="284.828" y2="396.16" gradientUnits="userSpaceOnUse">
<stop stop-color="#231F20" stop-opacity="0"/>
<stop offset="1" stop-color="#231F20"/>
</linearGradient>
<linearGradient id="paint3_linear_9516_2395" x1="288.383" y1="267.245" x2="310.072" y2="267.036" gradientUnits="userSpaceOnUse">
<stop stop-color="#231F20" stop-opacity="0"/>
<stop offset="1" stop-color="#231F20"/>
</linearGradient>
<linearGradient id="paint4_linear_9516_2395" x1="253.812" y1="259.129" x2="283.521" y2="251.99" gradientUnits="userSpaceOnUse">
<stop stop-color="#231F20" stop-opacity="0"/>
<stop offset="1" stop-color="#231F20"/>
</linearGradient>
<linearGradient id="paint5_linear_9516_2395" x1="281.804" y1="222.972" x2="279.528" y2="248.028" gradientUnits="userSpaceOnUse">
<stop stop-color="#231F20" stop-opacity="0"/>
<stop offset="1" stop-color="#231F20"/>
</linearGradient>
<linearGradient id="paint6_linear_9516_2395" x1="278.24" y1="225.959" x2="278.031" y2="259.707" gradientUnits="userSpaceOnUse">
<stop stop-color="#231F20" stop-opacity="0"/>
<stop offset="1" stop-color="#231F20"/>
</linearGradient>
<linearGradient id="paint7_linear_9516_2395" x1="283.217" y1="225.985" x2="283.014" y2="259.739" gradientUnits="userSpaceOnUse">
<stop stop-color="#231F20" stop-opacity="0"/>
<stop offset="1" stop-color="#231F20"/>
</linearGradient>
<linearGradient id="paint8_linear_9516_2395" x1="384.548" y1="321.235" x2="284.51" y2="243.152" gradientUnits="userSpaceOnUse">
<stop stop-color="#231F20" stop-opacity="0"/>
<stop offset="1" stop-color="#231F20"/>
</linearGradient>
<linearGradient id="paint9_linear_9516_2395" x1="441.204" y1="173.217" x2="441.432" y2="235.596" gradientUnits="userSpaceOnUse">
<stop stop-color="#231F20" stop-opacity="0"/>
<stop offset="1" stop-color="#231F20"/>
</linearGradient>
<linearGradient id="paint10_linear_9516_2395" x1="408.424" y1="364.475" x2="373.047" y2="77.3113" gradientUnits="userSpaceOnUse">
<stop stop-color="#231F20" stop-opacity="0"/>
<stop offset="1" stop-color="#231F20"/>
</linearGradient>
<linearGradient id="paint11_linear_9516_2395" x1="377.569" y1="246.615" x2="376.206" y2="273.611" gradientUnits="userSpaceOnUse">
<stop offset="0.02" stop-color="white" stop-opacity="0"/>
<stop offset="0.58" stop-color="white" stop-opacity="0.39"/>
<stop offset="1" stop-color="white"/>
</linearGradient>
<linearGradient id="paint12_linear_9516_2395" x1="432.283" y1="333.955" x2="429.785" y2="291.769" gradientUnits="userSpaceOnUse">
<stop offset="0.02" stop-color="white" stop-opacity="0"/>
<stop offset="0.58" stop-color="white" stop-opacity="0.39"/>
<stop offset="1" stop-color="white"/>
</linearGradient>
<linearGradient id="paint13_linear_9516_2395" x1="389.025" y1="282.119" x2="384.492" y2="305.482" gradientUnits="userSpaceOnUse">
<stop stop-color="#231F20" stop-opacity="0"/>
<stop offset="1" stop-color="#231F20"/>
</linearGradient>
<linearGradient id="paint14_linear_9516_2395" x1="365.668" y1="277.579" x2="361.128" y2="300.942" gradientUnits="userSpaceOnUse">
<stop stop-color="#231F20" stop-opacity="0"/>
<stop offset="1" stop-color="#231F20"/>
</linearGradient>
<linearGradient id="paint15_linear_9516_2395" x1="352.741" y1="321.782" x2="396.753" y2="323.595" gradientUnits="userSpaceOnUse">
<stop stop-color="#231F20" stop-opacity="0"/>
<stop offset="1" stop-color="#231F20"/>
</linearGradient>
<linearGradient id="paint16_linear_9516_2395" x1="360.608" y1="289.644" x2="369.795" y2="346.805" gradientUnits="userSpaceOnUse">
<stop stop-color="#231F20" stop-opacity="0"/>
<stop offset="1" stop-color="#231F20"/>
</linearGradient>
</defs>
</svg>
