<svg width="719" height="517" viewBox="0 0 719 517" fill="none" xmlns="http://www.w3.org/2000/svg">
<path d="M0 4C0 1.79086 1.79086 0 4 0H715C717.209 0 719 1.79086 719 4V512.46C719 514.669 717.209 516.46 715 516.46H3.99998C1.79084 516.46 0 514.669 0 512.46V4Z" fill="url(#paint0_linear_9528_4265)"/>
<path opacity="0.18" d="M388.796 147.792L444.576 153.409C456.926 154.658 469.542 155.939 480.802 161.246C497.261 168.955 509.446 185.674 510.664 203.781C511.716 219.865 504.977 234.872 504.172 250.728C503.328 267.77 512.876 281.053 512.857 298.19C512.75 316.614 505.465 334.277 492.557 347.42C474.393 365.736 447.524 372.628 421.796 373.984C396.068 375.341 370.214 371.962 344.461 373.35C320.09 374.663 295.845 380.236 271.513 378.403C247.186 376.577 221.357 365.07 211.758 342.633C203.332 322.985 208.943 299.02 216.418 279.905C222.447 264.436 235.349 257.17 243.477 242.537C258.699 215.022 259.543 178.009 285.784 157.283C306.845 140.647 336.567 142.517 363.284 145.212L388.803 147.792H388.796Z" fill="#F8FAFC"/>
<path d="M308.525 313.629L381.385 274.055L430.558 300.733L354.402 342.419L308.525 313.629Z" fill="#F8FAFC"/>
<path d="M308.525 337.727V313.628L381.385 298.152L430.558 300.733V324.831L354.402 366.504L308.525 337.727Z" fill="#F8FAFC"/>
<path d="M313.953 313.146L380.333 277.078L425.144 301.398L355.746 339.375L313.953 313.146Z" fill="url(#paint1_linear_9528_4265)"/>
<path d="M308.525 276.191L381.385 236.623L430.558 263.302L354.402 304.975L308.525 276.191Z" fill="#F8FAFC"/>
<path d="M430.572 263.302V287.394L354.403 329.073L317.111 305.679L314.246 303.872L308.533 300.29V276.191L381.399 260.709L430.572 263.302Z" fill="#F8FAFC"/>
<path d="M313.953 275.716L380.333 239.654L425.144 263.968L355.746 301.945L313.953 275.716Z" fill="url(#paint2_linear_9528_4265)"/>
<path d="M307.613 263.333V239.234L380.479 223.752L429.652 226.345V250.443L353.49 292.116L307.613 263.333Z" fill="#F8FAFC"/>
<path d="M307.613 239.235L380.479 199.654L429.652 226.346L353.49 268.019L307.613 239.235Z" fill="#F8FAFC"/>
<path d="M313.033 238.76L379.426 202.691L424.23 227.012L354.833 264.988L313.033 238.76Z" fill="url(#paint3_linear_9528_4265)"/>
<path d="M353.49 268.018V366.503L430.559 324.831L356.996 342.418V325.23L430.572 287.393L357.421 304.124V288.014L429.653 250.443L353.49 268.018Z" fill="url(#paint4_linear_9528_4265)"/>
<path d="M343.37 173.813L273.953 204.283V146.697L343.37 116.227V173.813Z" fill="#F8FAFC"/>
<path d="M514.659 222.288L445.242 252.758V195.165L514.659 164.695V222.288Z" fill="#F8FAFC"/>
<path d="M391.992 179.119L368.09 189.605V169.773L391.992 159.287V179.119Z" fill="#F8FAFC"/>
<path d="M221.465 321.89V263.181L221.769 263.048L291.896 232.268V290.976L291.592 291.109L221.465 321.89ZM222.479 263.911V320.343L290.875 290.317V233.834L222.479 263.904V263.911Z" fill="#F8FAFC"/>
<path d="M335.375 158.033C335.318 159.707 334.767 161.33 333.797 162.693C332.865 164.101 331.552 165.21 330.012 165.895L292.91 180.667C289.93 181.859 287.502 180.268 287.502 177.117C287.527 175.449 288.041 173.826 288.979 172.451C289.911 171.049 291.224 169.94 292.764 169.262L294.026 168.761C293.76 167.835 293.626 166.884 293.626 165.92C293.734 162.611 294.818 159.416 296.752 156.727C298.61 153.938 301.247 151.751 304.328 150.432L307.479 149.17C311.6 147.534 315.17 148.574 316.951 151.459C317.801 150.654 318.79 150.013 319.868 149.563L320.673 149.24C324.217 147.826 327.095 149.715 327.095 153.443V153.786C327.095 154.445 327 155.104 326.842 155.745L329.917 154.521C332.915 153.291 335.382 154.882 335.382 158.033H335.375Z" fill="white"/>
<path d="M336.967 291.002C336.967 293.075 333.569 295.028 331.908 295.509C331.217 295.649 330.538 295.864 329.892 296.143C329.245 296.46 328.839 297.12 328.839 297.836C328.915 298.445 329.416 298.927 329.549 299.523C329.619 300.036 329.549 300.562 329.359 301.044C328.731 303.054 326.215 304.303 325.574 306.3C322.1 305.958 320.528 306.243 317.053 305.672L314.213 303.865L318.549 295.883C319.107 294.755 319.792 293.69 320.597 292.713C321.542 291.743 322.62 290.907 323.786 290.222C326.804 288.301 329.949 286.57 333.189 285.055C332.783 285.251 336.967 290.425 336.967 291.002Z" fill="url(#paint5_linear_9528_4265)"/>
<path d="M334.945 281.605C335.307 282.74 335.63 284.084 334.945 285.042C334.622 285.454 334.185 285.764 333.684 285.929C332.505 286.5 331.103 286.354 330.064 285.561C329.525 284.985 329.151 284.274 328.967 283.507C328.079 280.73 327.445 277.877 327.071 274.986C326.875 274.39 327.198 273.756 327.794 273.554C329.335 272.742 331.744 272.076 332.612 273.896C333.652 276.216 334.166 279.114 334.939 281.605H334.945Z" fill="#FFAA71"/>
<path d="M330.291 282.93C329.974 282.886 329.651 282.917 329.347 283.012C329.138 283.133 328.947 283.291 328.795 283.488L325.46 287.273C324.814 288.002 324.123 288.997 324.579 289.86C324.909 290.341 325.435 290.652 326.018 290.709C327.641 290.849 329.264 290.519 330.704 289.764C331.737 289.321 332.751 288.82 333.74 288.306C334.488 287.977 335.142 287.469 335.636 286.823C336.39 285.656 336.631 282.873 335.268 282.004C334.584 281.567 333.981 281.884 333.373 282.182C332.422 282.676 331.363 282.936 330.285 282.93H330.291Z" fill="#F8FAFC"/>
<path d="M316.439 294.374C316.414 294.59 316.439 294.805 316.515 295.008C316.629 295.211 316.794 295.376 316.997 295.49C317.631 295.928 318.379 296.175 319.146 296.213C319.933 296.232 320.687 295.883 321.175 295.268C321.537 294.698 321.752 294.045 321.803 293.373C322.088 291.946 322.228 290.494 322.221 289.036C322.24 288.833 322.177 288.624 322.044 288.465C321.93 288.377 321.796 288.32 321.657 288.307C320.452 288.06 318.069 287.438 317.454 288.903C316.82 290.659 316.484 292.51 316.452 294.374H316.439Z" fill="#FFAA71"/>
<path d="M311.335 294.21C310.308 294.261 309.287 294.451 308.317 294.787C307.334 295.123 306.529 295.858 306.104 296.803C305.908 297.266 305.883 297.792 306.041 298.268C306.377 298.971 306.96 299.517 307.677 299.808C311.119 301.64 315.006 302.484 318.899 302.23C319.9 302.262 320.877 301.907 321.625 301.235C322.17 300.436 322.424 299.472 322.347 298.508L322.481 293.963C321.612 293.83 320.807 294.387 319.983 294.673C318.55 295.155 317.986 293.988 316.8 293.728C315.259 293.379 312.926 294.07 311.348 294.204L311.335 294.21Z" fill="#F8FAFC"/>
<path d="M330.291 282.93C329.974 282.886 329.651 282.917 329.347 283.012C329.138 283.133 328.947 283.291 328.795 283.488L325.46 287.273C324.814 288.002 324.123 288.997 324.579 289.86C324.909 290.341 325.435 290.652 326.018 290.709C327.641 290.849 329.264 290.519 330.704 289.764C331.737 289.321 332.751 288.82 333.74 288.306C334.488 287.977 335.142 287.469 335.636 286.823C336.39 285.656 336.631 282.873 335.268 282.004C334.584 281.567 333.981 281.884 333.373 282.182C332.422 282.676 331.363 282.936 330.285 282.93H330.291Z" fill="url(#paint6_linear_9528_4265)"/>
<path d="M311.335 294.21C310.308 294.261 309.287 294.451 308.317 294.787C307.334 295.123 306.529 295.858 306.104 296.803C305.908 297.266 305.883 297.792 306.041 298.268C306.377 298.971 306.96 299.517 307.677 299.808C311.119 301.64 315.006 302.484 318.899 302.23C319.9 302.262 320.877 301.907 321.625 301.235C322.17 300.436 322.424 299.472 322.347 298.508L322.481 293.963C321.612 293.83 320.807 294.387 319.983 294.673C318.55 295.155 317.986 293.988 316.8 293.728C315.259 293.379 312.926 294.07 311.348 294.204L311.335 294.21Z" fill="url(#paint7_linear_9528_4265)"/>
<path d="M366.531 244.898C368.611 244.72 370.709 244.752 372.783 244.999C373.055 245.005 373.322 245.088 373.55 245.234C373.81 245.481 373.962 245.823 373.975 246.178C374.266 249.019 372.079 251.422 369.638 252.911C363.139 256.937 354.942 256.804 347.759 259.416C347.08 259.6 346.472 259.993 346.028 260.545C345.743 261.134 345.597 261.781 345.609 262.44C345.286 266.225 343.187 269.636 342.484 273.371C341.78 277.105 342.541 281.004 341.964 284.732C339.605 282.221 335.599 281.822 333.215 279.343C331.008 277.06 330.571 273.662 330.241 270.492L329.354 261.838C329.252 261.299 329.284 260.735 329.436 260.209C329.753 259.556 330.279 259.023 330.92 258.693C341.545 251.954 353.965 245.988 366.531 244.898Z" fill="url(#paint8_linear_9528_4265)"/>
<path d="M323.673 244.028C322.69 244.225 321.784 244.688 321.042 245.366C320.294 246.418 319.952 247.712 320.097 249.005C320.116 258.198 321.847 267.302 325.207 275.861C325.347 276.895 326.298 277.624 327.338 277.484C327.541 277.459 327.731 277.396 327.915 277.307C329.924 276.749 331.909 276.096 333.862 275.335L331.218 257.881C331.097 257.393 331.129 256.879 331.3 256.404C331.497 256.074 331.769 255.802 332.093 255.599C335.085 253.405 338.255 251.452 341.565 249.766C344.196 248.422 347.245 246.926 347.955 244.028C348.247 243.052 348.05 241.993 347.423 241.188C347.004 240.789 346.51 240.465 345.971 240.243C344.221 239.381 342.002 238.272 339.986 238.481C338.376 238.639 337.754 239.578 336.404 240.269C332.682 242.133 327.718 242.843 323.66 244.028H323.673Z" fill="#231F20"/>
<path d="M341.665 216.341C340.366 219.911 339.77 223.696 338.591 227.316C338.337 228.273 337.887 229.167 337.272 229.941C336.467 230.721 335.497 231.304 334.432 231.646C332.916 232.236 331.376 232.743 329.803 233.18C328.764 233.472 327.502 233.948 327.388 235.019C327.369 235.374 327.439 235.735 327.603 236.052C328.421 237.517 329.949 238.449 331.629 238.512C333.284 238.557 334.926 238.29 336.479 237.72C337.887 237.428 339.168 236.718 340.163 235.685C340.753 234.829 341.158 233.865 341.355 232.844C342.953 227.208 345.159 221.756 347.936 216.595C348.766 215.232 349.419 213.761 349.876 212.227C350.522 209.564 350.529 203.23 347.765 205.601C345.495 207.459 342.642 213.647 341.665 216.348V216.341Z" fill="#FFAA71"/>
<path d="M352.241 243.685C350.612 243.058 349.033 242.316 347.505 241.473C341.679 238.265 346.446 236.68 348.393 232.819C349.768 230.073 349.217 226.796 348.488 223.816C347.22 218.592 345.533 213.184 346.757 207.947C346.903 207.097 347.226 206.292 347.702 205.582C348.057 205.144 348.462 204.751 348.913 204.409C350.143 203.357 351.556 202.532 353.078 201.974C356.02 201.03 359.278 201.721 362.036 203.103C372.89 208.549 375.205 222.294 374.773 233.288C374.653 236.337 374.184 239.564 372.218 241.897C370.323 244.085 367.482 245.124 364.642 245.479C360.426 245.911 356.166 245.302 352.241 243.698V243.685Z" fill="white"/>
<path d="M353.864 210.528C353.864 210.832 353.985 211.124 354.207 211.333C354.41 211.453 354.644 211.504 354.879 211.472C357.808 211.333 360.071 208.848 359.938 205.919C359.925 205.671 359.9 205.43 359.856 205.189C359.615 204.27 359.336 203.364 359.006 202.47C358.493 200.663 358.588 198.59 357.434 197.1C356.432 199.376 355.291 201.595 354.016 203.725C353.363 204.587 353.135 205.697 353.382 206.743C353.554 208.042 353.712 209.26 353.877 210.521L353.864 210.528Z" fill="#FFAA71"/>
<path d="M353.293 205.791L353.73 208.726C353.73 208.726 358.72 206.266 358.067 201.683C357.414 197.099 353.293 205.791 353.293 205.791Z" fill="url(#paint9_linear_9528_4265)"/>
<path d="M347.46 202.97C347.72 203.896 348.259 204.727 349.001 205.335C349.369 205.576 349.768 205.747 350.193 205.849C353.217 206.426 356.273 204.993 357.769 202.298C359.177 199.585 359.323 196.389 358.175 193.555C357.731 192.034 356.711 190.747 355.335 189.967C353.775 189.352 352.019 189.561 350.649 190.525C348.811 191.806 347.391 193.593 346.567 195.673C345.793 197.803 346.738 200.935 347.454 202.964L347.46 202.97Z" fill="#FFAA71"/>
<path d="M325.561 256.213C324.319 257.792 323.336 259.554 322.645 261.437C318.835 270.624 316.362 280.311 315.297 290.202C318.403 290.589 321.554 290.589 324.661 290.202C324.908 283.209 325.986 276.273 327.882 269.54C328.211 268.094 328.782 266.712 329.568 265.45C330.963 263.453 333.233 262.287 335.407 261.196C340.441 258.749 345.704 256.803 351.118 255.383C353.407 254.749 355.708 254.178 357.952 253.423C359.873 252.853 361.68 251.934 363.272 250.716C364.863 249.474 365.89 247.641 366.112 245.632C366.112 246.145 354.751 245.632 353.698 245.479C350.148 245.099 345.951 243.064 342.451 244.535C339.706 245.651 337.195 248.003 334.723 249.613C331.686 251.604 327.99 253.398 325.555 256.213H325.561Z" fill="#231F20"/>
<path d="M341.742 255.452L361.503 245.803L338.629 237.688L320.598 245.568L341.742 255.452Z" fill="#F8FAFC"/>
<path d="M369.174 214.122C369.231 214.452 369.269 214.788 369.307 215.067C369.846 220.019 369.307 224.894 369.174 229.82C369.06 232.87 368.654 238.684 365.389 240.237C359.347 243.21 347.694 242.133 347.694 242.133C346.337 241.917 344.949 241.974 343.611 242.291C342.888 242.507 342.216 242.9 341.506 243.172C338.951 244.117 336.092 243.654 333.404 243.172C332.935 243.115 332.485 242.97 332.079 242.735C331.039 242.031 331.083 240.37 331.863 239.381C332.738 238.468 333.873 237.84 335.109 237.593C338.514 236.477 342.159 236.338 345.64 237.187C346.084 237.333 346.534 237.46 346.997 237.555C347.536 237.638 348.081 237.676 348.626 237.669H352.753C357.489 237.714 361.966 237.733 362.688 232.179C362.955 230.125 363.012 228.051 362.847 225.985C362.561 222.2 361.585 218.554 361.788 214.82C361.801 213.634 362.099 212.474 362.65 211.428C363.221 210.376 364.299 209.691 365.491 209.621C366.746 209.716 367.862 210.464 368.426 211.593C368.825 212.385 369.085 213.241 369.18 214.122H369.174Z" fill="#FFAA71"/>
<path d="M313.174 227.797L338.363 240.616L341.742 255.452L320.598 245.568L313.174 227.797Z" fill="#F8FAFC"/>
<path d="M354.865 197.271C355.506 198.234 356.038 199.268 356.444 200.346C356.907 199.401 356.178 197.791 357.179 197.436C357.775 197.22 358.403 197.917 358.346 198.564C358.213 199.198 357.832 199.756 357.287 200.105C358.061 202.406 360.508 203.211 362.562 203.959C364.863 204.86 366.861 206.4 368.312 208.397C370.075 210.971 371.495 213.761 372.535 216.703C373.074 215.758 374.354 215.612 375.375 215.308C378.552 214.218 380.473 210.99 379.921 207.675C379.205 204.416 376.523 201.956 373.22 201.518C372.218 201.531 371.222 201.303 370.329 200.846C369.213 200.06 369.029 198.52 368.541 197.245C367.355 194.367 364.356 192.662 361.275 193.118C361.415 191.913 361.313 190.69 360.971 189.517C360.337 188.002 359.1 186.822 357.56 186.252C356.026 185.7 354.409 185.421 352.779 185.428C351.226 185.371 349.552 185.428 348.341 186.372C346.928 187.501 346.592 189.517 346.687 191.324C345.742 191.273 344.873 191.844 344.544 192.738C344.239 193.613 344.303 194.576 344.715 195.407C344.962 195.958 345.305 196.465 345.736 196.89C346.008 196.047 346.401 195.185 347.232 195.369C348.062 195.553 348.823 196.313 349.628 196.592C350.491 196.865 351.378 197.042 352.279 197.125C353.141 197.087 354.009 197.125 354.865 197.258V197.271Z" fill="#C14834"/>
<defs>
<linearGradient id="paint0_linear_9528_4265" x1="719" y1="258.23" x2="0" y2="258.23" gradientUnits="userSpaceOnUse">
<stop stop-color="#AC81F6"/>
<stop offset="1" stop-color="#DCC6FF"/>
</linearGradient>
<linearGradient id="paint1_linear_9528_4265" x1="319.482" y1="346.894" x2="458.689" y2="236.724" gradientUnits="userSpaceOnUse">
<stop stop-color="#231F20"/>
<stop offset="0.13" stop-color="#231F20" stop-opacity="0.69"/>
<stop offset="0.25" stop-color="#231F20" stop-opacity="0.32"/>
<stop offset="1" stop-color="#231F20" stop-opacity="0"/>
</linearGradient>
<linearGradient id="paint2_linear_9528_4265" x1="319.482" y1="309.464" x2="458.689" y2="199.294" gradientUnits="userSpaceOnUse">
<stop stop-color="#231F20"/>
<stop offset="0.13" stop-color="#231F20" stop-opacity="0.69"/>
<stop offset="0.25" stop-color="#231F20" stop-opacity="0.32"/>
<stop offset="1" stop-color="#231F20" stop-opacity="0"/>
</linearGradient>
<linearGradient id="paint3_linear_9528_4265" x1="318.562" y1="272.507" x2="457.782" y2="162.337" gradientUnits="userSpaceOnUse">
<stop stop-color="#231F20"/>
<stop offset="0.13" stop-color="#231F20" stop-opacity="0.69"/>
<stop offset="0.25" stop-color="#231F20" stop-opacity="0.32"/>
<stop offset="1" stop-color="#231F20" stop-opacity="0"/>
</linearGradient>
<linearGradient id="paint4_linear_9528_4265" x1="603.242" y1="172.791" x2="183.033" y2="418.764" gradientUnits="userSpaceOnUse">
<stop stop-color="#231F20"/>
<stop offset="0.13" stop-color="#231F20" stop-opacity="0.69"/>
<stop offset="0.25" stop-color="#231F20" stop-opacity="0.32"/>
<stop offset="1" stop-color="#231F20" stop-opacity="0"/>
</linearGradient>
<linearGradient id="paint5_linear_9528_4265" x1="305.293" y1="277.44" x2="357.946" y2="326.125" gradientUnits="userSpaceOnUse">
<stop stop-color="#231F20"/>
<stop offset="0.13" stop-color="#231F20" stop-opacity="0.69"/>
<stop offset="0.25" stop-color="#231F20" stop-opacity="0.32"/>
<stop offset="1" stop-color="#231F20" stop-opacity="0"/>
</linearGradient>
<linearGradient id="paint6_linear_9528_4265" x1="325.131" y1="283.691" x2="343.777" y2="292.941" gradientUnits="userSpaceOnUse">
<stop stop-color="#231F20"/>
<stop offset="0.13" stop-color="#231F20" stop-opacity="0.69"/>
<stop offset="0.25" stop-color="#231F20" stop-opacity="0.32"/>
<stop offset="1" stop-color="#231F20" stop-opacity="0"/>
</linearGradient>
<linearGradient id="paint7_linear_9528_4265" x1="309.946" y1="307.917" x2="320.769" y2="283.571" gradientUnits="userSpaceOnUse">
<stop stop-color="#231F20"/>
<stop offset="0.13" stop-color="#231F20" stop-opacity="0.69"/>
<stop offset="0.25" stop-color="#231F20" stop-opacity="0.32"/>
<stop offset="1" stop-color="#231F20" stop-opacity="0"/>
</linearGradient>
<linearGradient id="paint8_linear_9528_4265" x1="327.471" y1="226.436" x2="396.082" y2="321.523" gradientUnits="userSpaceOnUse">
<stop stop-color="#231F20"/>
<stop offset="0.13" stop-color="#231F20" stop-opacity="0.69"/>
<stop offset="0.25" stop-color="#231F20" stop-opacity="0.32"/>
<stop offset="1" stop-color="#231F20" stop-opacity="0"/>
</linearGradient>
<linearGradient id="paint9_linear_9528_4265" x1="352.399" y1="197.378" x2="361.3" y2="216.803" gradientUnits="userSpaceOnUse">
<stop stop-color="#231F20"/>
<stop offset="0.13" stop-color="#231F20" stop-opacity="0.69"/>
<stop offset="0.25" stop-color="#231F20" stop-opacity="0.32"/>
<stop offset="1" stop-color="#231F20" stop-opacity="0"/>
</linearGradient>
</defs>
</svg>
