<svg width="483" height="213" viewBox="0 0 483 213" fill="none" xmlns="http://www.w3.org/2000/svg">
<path d="M0 30C0 13.4315 13.4315 0 30 0H453C469.569 0 483 13.4315 483 30V213H0V30Z" fill="#ECEEF0"/>
<g filter="url(#filter0_d_9526_4049)">
<path d="M36 38.5C36 36.0147 38.0147 34 40.5 34H473.5C475.985 34 478 36.0147 478 38.5V38.5C478 40.9853 475.985 43 473.5 43H40.5C38.0147 43 36 40.9853 36 38.5V38.5Z" fill="#CFCFCF" fill-opacity="0.7" shape-rendering="crispEdges"/>
</g>
<g filter="url(#filter1_d_9526_4049)">
<path d="M31.5 213C29.567 213 28 211.433 28 209.5L28 43.5C28 41.567 29.567 40 31.5 40V40C33.433 40 35 41.567 35 43.5L35 209.5C35 211.433 33.433 213 31.5 213V213Z" fill="#CFCFCF" fill-opacity="0.7" shape-rendering="crispEdges"/>
</g>
<path d="M28 39C28 36.7909 29.7909 35 32 35H479C481.209 35 483 36.7909 483 39V209C483 211.209 481.209 213 479 213H32C29.7909 213 28 211.209 28 209V39Z" fill="url(#paint0_linear_9526_4049)"/>
<path opacity="0.18" d="M314.782 158.373C307.337 172.566 293.316 176.024 278.306 173.519C272.135 172.487 266.001 170.888 259.8 170.271C257.587 170.037 255.361 169.965 253.137 170.058C248.695 170.263 244.322 171.244 239.893 171.598C227.644 172.487 215.538 168.491 206.225 160.482C203.307 157.963 200.754 155.056 198.631 151.84C183.054 128.086 197.056 96.8707 220.366 84.3501C224.922 81.9029 229.748 80.0914 234.291 77.6123C240.382 74.2873 245.947 69.7786 252.32 67.1878C273.941 58.3965 290.326 73.5718 296.865 92.9472C299.581 100.999 301.631 109.468 306.044 116.573C310.572 123.862 317.591 129.817 319.15 138.494C320.342 145.142 318.022 152.196 314.788 158.373H314.782Z" fill="#F8FAFC"/>
<path opacity="0.18" d="M284.044 150.132L274.914 158.133L259.798 170.271C257.585 170.037 255.358 169.965 253.134 170.058C248.692 170.263 244.319 171.244 239.89 171.598C227.641 172.486 215.535 168.491 206.223 160.482L232.469 158.585H243.702L248.964 150.275L284.041 150.132H284.044Z" fill="#F8FAFC"/>
<path d="M226.678 159.53C226.606 159.764 226.633 160.017 226.753 160.23C226.942 160.41 227.197 160.504 227.458 160.482C229.298 160.45 231.07 159.78 232.472 158.586C232.815 158.312 233.171 157.939 233.097 157.508C233.038 157.242 232.852 157.024 232.599 156.923C232.352 156.822 232.086 156.772 231.82 156.774C230.495 156.75 229.338 157.301 228.083 157.538C227.011 157.721 226.867 158.455 226.678 159.527V159.53Z" fill="#473F47"/>
<path d="M237.93 159.53C237.858 159.764 237.885 160.019 238.01 160.23C238.196 160.413 238.451 160.504 238.709 160.482C240.553 160.45 242.327 159.78 243.729 158.586C244.072 158.312 244.434 157.939 244.359 157.508C244.301 157.242 244.114 157.024 243.862 156.923C243.617 156.822 243.354 156.772 243.088 156.774C241.763 156.75 240.606 157.301 239.345 157.538C238.217 157.721 238.095 158.455 237.93 159.527V159.53Z" fill="#473F47"/>
<path d="M241.053 157.899C240.904 158.123 240.447 158.163 239.952 158.133H239.917C239.415 158.093 238.917 158.016 238.428 157.899C238.428 157.899 238.159 148.158 237.624 146.083C237.087 144.009 235.451 136.97 235.451 136.97C235.451 136.97 235.326 137.848 235.124 139.136C234.866 140.758 234.475 143.038 234.031 145.004C233.246 148.517 229.487 157.91 229.487 157.91H227.234C227.234 157.91 229.87 146.094 229.87 144.562C229.87 143.03 228.878 131.48 228.878 131.48L230.865 131.32L239.856 130.6C239.856 130.6 241.186 136.26 241.787 138.606C242.388 140.955 241.058 157.897 241.058 157.897L241.053 157.899Z" fill="#F8FAFC"/>
<path d="M239.952 158.133H239.918C239.415 158.093 238.918 158.016 238.428 157.899C238.428 157.899 238.16 148.158 237.625 146.083C237.088 144.009 235.452 136.97 235.452 136.97L233.098 137.468L232.691 138.042C232.691 138.042 231.807 141.974 231.355 145.067C230.943 147.871 229.046 156.375 228.701 157.91H227.211C227.211 157.91 229.847 146.094 229.847 144.562C229.847 143.03 228.855 131.48 228.855 131.48L230.842 131.32L237.244 132.903C237.244 132.903 237.114 134.049 238.987 139.202C240.859 144.354 239.955 158.13 239.955 158.13L239.952 158.133Z" fill="url(#paint1_linear_9526_4049)"/>
<path d="M243.039 120.306C243.335 120.561 243.76 120.601 244.098 120.404C244.399 120.202 244.654 119.939 244.843 119.63L245.731 118.364C246.104 117.888 246.404 117.359 246.62 116.795C246.734 116.164 246.899 115.545 247.117 114.943C247.152 114.861 247.213 114.794 247.29 114.749C247.428 114.685 247.583 114.749 247.732 114.794C248.046 114.818 248.351 114.685 248.546 114.438C248.753 114.204 248.902 113.941 249.117 113.698C249.333 113.456 249.615 113.331 249.873 113.48C250.131 113.629 250.112 114.076 250.08 114.414C250.07 114.978 250.11 115.539 250.2 116.098C250.269 116.893 250.144 117.782 249.357 118.183C249.088 118.287 248.828 118.407 248.572 118.54C248.173 118.87 247.878 119.306 247.713 119.795C247.125 121.088 246.375 122.298 245.479 123.399C245.013 123.974 244.417 124.562 243.678 124.57C242.768 124.57 242.279 123.453 241.92 122.772C241.829 122.62 241.768 122.45 241.747 122.274C241.741 122.104 241.776 121.934 241.85 121.777C242.154 121.216 242.558 120.718 243.042 120.303L243.039 120.306Z" fill="#FFB4A3"/>
<path d="M226.827 120.306C226.404 121.731 226.237 123.221 226.33 124.705C226.503 127.187 229.006 127.48 229.006 127.48L229.503 121.154L226.827 120.306Z" fill="#FFB4A3"/>
<path d="M235.539 111.653C235.539 111.653 238.668 112.546 239.476 113.384C240.285 114.222 239.819 130.589 239.819 130.589C239.819 130.589 234.358 137.694 228.857 131.467C228.857 131.467 227.637 114.757 228.36 113.81C229.084 112.863 231.603 109.924 235.539 111.65V111.653Z" fill="#FDFFFF"/>
<path d="M228.381 113.812C228.381 113.812 226.285 117.531 226.152 119.159C226.051 119.877 226.051 120.606 226.152 121.324L228.381 123.152V113.815V113.812Z" fill="#FDFFFF"/>
<path d="M239.475 113.387C239.475 113.387 242.047 115.571 243.129 118.35C244.212 121.13 241.576 123.423 241.576 123.423C241.576 123.423 237.003 118.89 237.634 116.39C238.264 113.887 238.802 113.432 239.475 113.387Z" fill="#FDFFFF"/>
<path d="M236.741 121.016C236.672 120.377 236.816 119.734 237.148 119.183C238.443 119.883 239.784 120.622 240.657 121.803C241.093 122.394 241.649 123.184 242.346 122.95C242.75 122.771 242.995 122.354 242.952 121.912C242.902 121.481 242.755 121.069 242.527 120.702C241.135 118.037 239.547 115.19 236.831 113.935C236.057 113.61 235.254 113.355 234.435 113.174L232.142 112.594C231.735 112.459 231.304 112.419 230.881 112.475C230.381 112.624 229.937 112.922 229.61 113.328C228.25 114.797 227.157 116.489 226.378 118.332C226.019 119.024 225.827 119.787 225.816 120.566C225.816 121.356 226.287 122.069 227.013 122.383L228.383 119.752C228.266 122.599 228.266 125.442 228.383 128.286C228.447 129.714 228.551 131.198 229.272 132.441C230.123 133.872 231.663 134.755 233.328 134.763C234.56 134.763 235.738 134.263 236.595 133.377C237.281 132.547 236.996 131.629 236.949 130.611C236.834 127.434 236.765 124.208 236.744 121.011L236.741 121.016Z" fill="url(#paint2_linear_9526_4049)"/>
<path d="M237.35 108.08C237.086 108.727 237.19 109.57 236.661 110.012C236.403 110.224 236.036 110.299 235.802 110.544C235.195 111.185 235.895 112.424 235.27 113.025C235.099 113.177 234.889 113.275 234.663 113.307C234.081 113.427 233.474 113.337 232.95 113.055C232.753 112.962 232.583 112.818 232.453 112.642C232.346 112.451 232.28 112.241 232.259 112.023C232.094 111.11 231.926 110.195 231.796 109.277C231.62 108.416 231.62 107.527 231.796 106.665C232.07 105.649 232.804 104.822 233.783 104.431C234.671 104.082 236.161 104.117 236.762 105.011C236.969 105.397 237.137 105.801 237.259 106.221C237.422 106.514 237.549 106.828 237.642 107.149C237.632 107.479 237.531 107.801 237.35 108.078V108.08Z" fill="#FFB4A3"/>
<path d="M237.929 104.247C237.887 104.465 237.81 104.675 237.706 104.872C237.661 104.979 237.584 105.072 237.488 105.136C237.387 105.199 237.251 105.178 237.174 105.085C236.956 105.463 236.658 105.787 236.301 106.037C236.24 106.082 236.187 106.141 236.152 106.21C236.073 106.383 236.152 106.588 236.152 106.777C236.113 107.133 235.711 107.303 235.442 107.54C235.174 107.774 235.014 108.112 235.006 108.468C234.801 108.468 234.759 108.101 234.554 108.091C234.439 108.091 234.354 108.189 234.301 108.29C234.118 108.556 234.032 108.878 234.059 109.2C234.094 109.527 234.365 109.777 234.695 109.785C234.615 110.219 234.466 110.639 234.259 111.027C234.165 111.23 234.019 111.4 233.836 111.525C233.655 111.607 233.458 111.65 233.261 111.65C232.883 111.692 232.503 111.653 232.144 111.53C231.763 111.36 231.455 111.067 231.266 110.695C230.984 110.057 230.771 109.392 230.63 108.708C230.457 108.016 230.245 107.338 229.989 106.673C229.854 106.295 229.776 105.899 229.76 105.497C229.747 105.093 229.917 104.702 230.223 104.436C230.351 104.353 230.473 104.263 230.59 104.162C230.715 104.018 230.811 103.848 230.87 103.665C231 103.337 231.21 103.047 231.482 102.821C231.721 102.654 231.982 102.523 232.256 102.43L235.344 101.223C235.275 101.358 235.251 101.513 235.275 101.664C236.121 101.374 237.057 101.675 237.578 102.398C237.951 102.936 238.081 103.606 237.935 104.244L237.929 104.247Z" fill="#C14834"/>
<path d="M269.77 155.766C281.258 155.766 290.571 153.299 290.571 150.255C290.571 147.211 281.258 144.743 269.77 144.743C258.282 144.743 248.969 147.211 248.969 150.255C248.969 153.299 258.282 155.766 269.77 155.766Z" fill="#F8FAFC"/>
<path d="M269.77 154.037C277.657 154.037 284.051 152.343 284.051 150.254C284.051 148.165 277.657 146.472 269.77 146.472C261.882 146.472 255.488 148.165 255.488 150.254C255.488 152.343 261.882 154.037 269.77 154.037Z" fill="url(#paint3_linear_9526_4049)"/>
<path d="M269.77 155.643C281.258 155.643 290.571 153.176 290.571 150.132C290.571 147.088 281.258 144.62 269.77 144.62C258.282 144.62 248.969 147.088 248.969 150.132C248.969 153.176 258.282 155.643 269.77 155.643Z" fill="#F8FAFC"/>
<path d="M269.77 153.915C277.657 153.915 284.051 152.221 284.051 150.132C284.051 148.043 277.657 146.35 269.77 146.35C261.882 146.35 255.488 148.043 255.488 150.132C255.488 152.221 261.882 153.915 269.77 153.915Z" fill="url(#paint4_linear_9526_4049)"/>
<path d="M290.555 148.24C290.555 151.267 281.253 153.752 269.764 153.752C258.276 153.752 248.963 151.27 248.963 148.227V139.356C252.437 137.579 261.707 142.731 269.764 142.731C278.367 142.731 286.934 136.616 290.092 138.593C291.145 139.258 290.555 147.482 290.555 148.243V148.24Z" fill="#F8FAFC"/>
<path d="M290.554 148.24C290.538 148.666 290.379 149.073 290.097 149.392C288.11 151.874 279.76 153.755 269.743 153.755C266.16 153.771 262.582 153.507 259.039 152.965C254.666 152.276 251.343 151.164 249.835 149.842C249.386 149.504 249.074 149.015 248.965 148.461C248.949 148.392 248.941 148.323 248.941 148.254V139.353C252.415 137.571 261.685 142.724 269.743 142.724C278.345 142.724 286.918 136.608 290.097 138.585C291.145 139.255 290.554 147.48 290.554 148.24Z" fill="url(#paint5_linear_9526_4049)"/>
<path d="M269.77 144.871C281.258 144.871 290.571 142.403 290.571 139.359C290.571 136.315 281.258 133.848 269.77 133.848C258.282 133.848 248.969 136.315 248.969 139.359C248.969 142.403 258.282 144.871 269.77 144.871Z" fill="white"/>
<path d="M269.77 143.141C277.657 143.141 284.051 141.448 284.051 139.359C284.051 137.27 277.657 135.576 269.77 135.576C261.882 135.576 255.488 137.27 255.488 139.359C255.488 141.448 261.882 143.141 269.77 143.141Z" fill="url(#paint6_linear_9526_4049)"/>
<path opacity="0.15" d="M259.344 152.856L259.062 152.965C254.689 152.276 251.367 151.164 249.859 149.842C249.409 149.504 249.098 149.015 248.989 148.461C248.973 148.392 248.965 148.323 248.965 148.254V140.346L255.915 143.469C255.915 143.469 255.383 148.185 257.123 151.01C257.62 151.869 258.411 152.523 259.347 152.856H259.344Z" fill="white"/>
<path d="M263.986 136.146C263.191 136.146 262.544 135.505 262.544 134.71C262.544 134.271 262.744 133.853 263.087 133.579C266.606 130.776 275.711 122.162 275.557 116.079C275.437 111.198 272.187 108.296 268.71 105.218C264.646 101.609 260.044 97.5149 261.214 89.8993C261.794 86.1407 264.625 82.0869 269.628 77.8468C271.881 75.9396 274.283 74.2159 276.807 72.6838C277.51 72.3087 278.382 72.5747 278.755 73.277C279.108 73.9393 278.893 74.7612 278.262 75.1656C275.874 76.6259 273.602 78.2618 271.461 80.0653C267.088 83.784 264.51 87.3324 264.063 90.3355C263.13 96.3977 266.606 99.4859 270.626 103.058C274.214 106.25 278.286 109.873 278.441 115.999C278.534 119.763 276.246 124.264 271.639 129.403C269.551 131.72 267.293 133.877 264.883 135.856C264.625 136.053 264.308 136.154 263.984 136.143L263.986 136.146Z" fill="#F8FAFC"/>
<path d="M276.956 136.146C276.674 136.146 276.4 136.063 276.166 135.906C273.548 134.132 271.072 132.156 268.76 129.998C263.672 125.224 261.07 120.88 261.03 117.092C260.961 110.955 265.145 107.223 269.207 103.609C273.386 99.8766 277.339 96.3547 276.41 90.3245C275.934 87.3161 273.458 83.7517 269.207 80.0489C267.148 78.2534 264.954 76.6175 262.645 75.1599C261.958 74.7476 261.738 73.8591 262.147 73.1728C262.56 72.4866 263.448 72.2658 264.134 72.6754C264.696 73.0186 277.876 81.1156 279.225 89.8723C280.392 97.4533 275.453 101.861 271.088 105.758C267.358 109.088 263.834 112.211 263.89 117.052C263.953 123.104 273.897 130.953 277.724 133.494C278.389 133.927 278.578 134.818 278.145 135.486C277.876 135.896 277.418 136.143 276.929 136.14L276.953 136.146H276.956Z" fill="#F8FAFC"/>
<path d="M275.839 89.8541H263.428C262.632 89.8063 262.023 89.1226 262.071 88.3273C262.114 87.5958 262.696 87.0133 263.428 86.9707H275.839C276.634 87.0186 277.244 87.7022 277.196 88.4975C277.153 89.229 276.571 89.8116 275.839 89.8541Z" fill="#F8FAFC"/>
<path d="M276.216 96.2643H263.805C263.01 96.3122 262.326 95.7031 262.278 94.9077C262.23 94.1124 262.839 93.4288 263.635 93.3809C263.69 93.3782 263.746 93.3782 263.805 93.3809H276.216C277.012 93.4288 277.621 94.1124 277.573 94.9077C277.53 95.6392 276.948 96.2218 276.216 96.2643Z" fill="#F8FAFC"/>
<path d="M275.839 114.275H263.428C262.632 114.227 262.023 113.544 262.071 112.748C262.114 112.017 262.696 111.434 263.428 111.392H275.839C276.634 111.439 277.244 112.123 277.196 112.918C277.153 113.65 276.571 114.232 275.839 114.275Z" fill="#F8FAFC"/>
<path d="M276.216 120.683H263.805C263.01 120.731 262.326 120.122 262.278 119.327C262.23 118.531 262.839 117.848 263.635 117.8C263.69 117.797 263.746 117.797 263.805 117.8H276.216C277.012 117.848 277.621 118.531 277.573 119.327C277.53 120.058 276.948 120.641 276.216 120.683Z" fill="#F8FAFC"/>
<path d="M270.225 81.1638L272.544 79.1768C272.544 79.1768 275.225 81.9272 276.018 83.0151C276.811 84.1031 275.084 86.7923 275.084 86.7923C275.084 86.7923 272.507 82.6082 270.225 81.1638Z" fill="url(#paint7_linear_9526_4049)"/>
<path d="M268.057 104.638L270.217 102.702C268.818 101.454 267.493 100.13 266.245 98.7305L264.543 101.127C264.543 101.127 267.025 103.819 268.057 104.636V104.638Z" fill="url(#paint8_linear_9526_4049)"/>
<path d="M270.225 106.62L272.544 104.633C272.544 104.633 275.225 107.383 276.018 108.471C276.811 109.559 275.084 112.248 275.084 112.248C275.084 112.248 272.507 108.078 270.225 106.62Z" fill="url(#paint9_linear_9526_4049)"/>
<path d="M272.003 129.033L270.016 131.129C270.016 131.129 273.644 134.082 274.716 134.888C275.788 135.691 276.612 132.715 276.612 132.715C276.612 132.715 272.992 129.924 272 129.036L272.003 129.033Z" fill="url(#paint10_linear_9526_4049)"/>
<path d="M267.896 129.171L269.843 127.04C268.532 125.75 267.33 124.351 266.25 122.861L264.348 125.17C264.348 125.17 266.864 128.352 267.896 129.171Z" fill="url(#paint11_linear_9526_4049)"/>
<path d="M278.353 150.047C278.945 150.047 279.425 149.567 279.425 148.975C279.425 148.383 278.945 147.903 278.353 147.903C277.761 147.903 277.281 148.383 277.281 148.975C277.281 149.567 277.761 150.047 278.353 150.047Z" fill="#F8FAFC"/>
<path d="M282.75 149.464C283.342 149.464 283.822 148.984 283.822 148.392C283.822 147.8 283.342 147.32 282.75 147.32C282.158 147.32 281.678 147.8 281.678 148.392C281.678 148.984 282.158 149.464 282.75 149.464Z" fill="#F8FAFC"/>
<defs>
<filter id="filter0_d_9526_4049" x="26" y="25" width="452" height="18" filterUnits="userSpaceOnUse" color-interpolation-filters="sRGB">
<feFlood flood-opacity="0" result="BackgroundImageFix"/>
<feColorMatrix in="SourceAlpha" type="matrix" values="0 0 0 0 0 0 0 0 0 0 0 0 0 0 0 0 0 0 127 0" result="hardAlpha"/>
<feOffset dx="-6" dy="-5"/>
<feGaussianBlur stdDeviation="2"/>
<feComposite in2="hardAlpha" operator="out"/>
<feColorMatrix type="matrix" values="0 0 0 0 0.592157 0 0 0 0 0.580392 0 0 0 0 0.580392 0 0 0 0.25 0"/>
<feBlend mode="normal" in2="BackgroundImageFix" result="effect1_dropShadow_9526_4049"/>
<feBlend mode="normal" in="SourceGraphic" in2="effect1_dropShadow_9526_4049" result="shape"/>
</filter>
<filter id="filter1_d_9526_4049" x="18" y="32" width="17" height="181" filterUnits="userSpaceOnUse" color-interpolation-filters="sRGB">
<feFlood flood-opacity="0" result="BackgroundImageFix"/>
<feColorMatrix in="SourceAlpha" type="matrix" values="0 0 0 0 0 0 0 0 0 0 0 0 0 0 0 0 0 0 127 0" result="hardAlpha"/>
<feOffset dx="-6" dy="-4"/>
<feGaussianBlur stdDeviation="2"/>
<feComposite in2="hardAlpha" operator="out"/>
<feColorMatrix type="matrix" values="0 0 0 0 0.593099 0 0 0 0 0.580629 0 0 0 0 0.580629 0 0 0 0.25 0"/>
<feBlend mode="normal" in2="BackgroundImageFix" result="effect1_dropShadow_9526_4049"/>
<feBlend mode="normal" in="SourceGraphic" in2="effect1_dropShadow_9526_4049" result="shape"/>
</filter>
<linearGradient id="paint0_linear_9526_4049" x1="483" y1="124" x2="28" y2="124" gradientUnits="userSpaceOnUse">
<stop stop-color="#F6D981"/>
<stop offset="1" stop-color="#976105"/>
</linearGradient>
<linearGradient id="paint1_linear_9526_4049" x1="224.609" y1="106.066" x2="243.934" y2="202.114" gradientUnits="userSpaceOnUse">
<stop stop-color="#231F20"/>
<stop offset="0.13" stop-color="#231F20" stop-opacity="0.69"/>
<stop offset="0.25" stop-color="#231F20" stop-opacity="0.32"/>
<stop offset="1" stop-color="#231F20" stop-opacity="0"/>
</linearGradient>
<linearGradient id="paint2_linear_9526_4049" x1="255.374" y1="156.492" x2="210.349" y2="86.9227" gradientUnits="userSpaceOnUse">
<stop stop-color="#231F20"/>
<stop offset="0.13" stop-color="#231F20" stop-opacity="0.69"/>
<stop offset="0.25" stop-color="#231F20" stop-opacity="0.32"/>
<stop offset="1" stop-color="#231F20" stop-opacity="0"/>
</linearGradient>
<linearGradient id="paint3_linear_9526_4049" x1="274.659" y1="128.091" x2="267.881" y2="158.814" gradientUnits="userSpaceOnUse">
<stop/>
<stop offset="1" stop-opacity="0"/>
</linearGradient>
<linearGradient id="paint4_linear_9526_4049" x1="57.18" y1="127.966" x2="267.881" y2="158.689" gradientUnits="userSpaceOnUse">
<stop/>
<stop offset="1" stop-opacity="0"/>
</linearGradient>
<linearGradient id="paint5_linear_9526_4049" x1="308.861" y1="180.669" x2="249.165" y2="124.726" gradientUnits="userSpaceOnUse">
<stop/>
<stop offset="1" stop-opacity="0"/>
</linearGradient>
<linearGradient id="paint6_linear_9526_4049" x1="274.659" y1="117.193" x2="267.881" y2="147.913" gradientUnits="userSpaceOnUse">
<stop/>
<stop offset="1" stop-opacity="0"/>
</linearGradient>
<linearGradient id="paint7_linear_9526_4049" x1="258.177" y1="73.6652" x2="295.473" y2="95.8895" gradientUnits="userSpaceOnUse">
<stop stop-color="#231F20"/>
<stop offset="0.13" stop-color="#231F20" stop-opacity="0.69"/>
<stop offset="0.25" stop-color="#231F20" stop-opacity="0.32"/>
<stop offset="1" stop-color="#231F20" stop-opacity="0"/>
</linearGradient>
<linearGradient id="paint8_linear_9526_4049" x1="271.861" y1="105.444" x2="259.752" y2="95.7779" gradientUnits="userSpaceOnUse">
<stop stop-color="#231F20"/>
<stop offset="0.13" stop-color="#231F20" stop-opacity="0.69"/>
<stop offset="0.25" stop-color="#231F20" stop-opacity="0.32"/>
<stop offset="1" stop-color="#231F20" stop-opacity="0"/>
</linearGradient>
<linearGradient id="paint9_linear_9526_4049" x1="258.177" y1="99.1213" x2="295.473" y2="121.348" gradientUnits="userSpaceOnUse">
<stop stop-color="#231F20"/>
<stop offset="0.13" stop-color="#231F20" stop-opacity="0.69"/>
<stop offset="0.25" stop-color="#231F20" stop-opacity="0.32"/>
<stop offset="1" stop-color="#231F20" stop-opacity="0"/>
</linearGradient>
<linearGradient id="paint10_linear_9526_4049" x1="262.668" y1="113.753" x2="283.358" y2="150.123" gradientUnits="userSpaceOnUse">
<stop stop-color="#231F20"/>
<stop offset="0.13" stop-color="#231F20" stop-opacity="0.69"/>
<stop offset="0.25" stop-color="#231F20" stop-opacity="0.32"/>
<stop offset="1" stop-color="#231F20" stop-opacity="0"/>
</linearGradient>
<linearGradient id="paint11_linear_9526_4049" x1="271.559" y1="129.599" x2="259.695" y2="120.127" gradientUnits="userSpaceOnUse">
<stop stop-color="#231F20"/>
<stop offset="0.13" stop-color="#231F20" stop-opacity="0.69"/>
<stop offset="0.25" stop-color="#231F20" stop-opacity="0.32"/>
<stop offset="1" stop-color="#231F20" stop-opacity="0"/>
</linearGradient>
</defs>
</svg>
