<svg width="483" height="213" viewBox="0 0 483 213" fill="none" xmlns="http://www.w3.org/2000/svg">
<path d="M0 30C0 13.4315 13.4315 0 30 0H453C469.569 0 483 13.4315 483 30V213H0V30Z" fill="#ECEEF0"/>
<g filter="url(#filter0_d_9523_3572)">
<path d="M36 38.5C36 36.0147 38.0147 34 40.5 34H473.5C475.985 34 478 36.0147 478 38.5V38.5C478 40.9853 475.985 43 473.5 43H40.5C38.0147 43 36 40.9853 36 38.5V38.5Z" fill="#CFCFCF" fill-opacity="0.7" shape-rendering="crispEdges"/>
</g>
<g filter="url(#filter1_d_9523_3572)">
<path d="M31.5 213C29.567 213 28 211.433 28 209.5L28 43.5C28 41.567 29.567 40 31.5 40V40C33.433 40 35 41.567 35 43.5L35 209.5C35 211.433 33.433 213 31.5 213V213Z" fill="#CFCFCF" fill-opacity="0.7" shape-rendering="crispEdges"/>
</g>
<path d="M28 39C28 36.7909 29.7909 35 32 35H479C481.209 35 483 36.7909 483 39V209C483 211.209 481.209 213 479 213H32C29.7909 213 28 211.209 28 209V39Z" fill="url(#paint0_linear_9523_3572)"/>
<path opacity="0.18" d="M317.712 144.764C317.407 145.421 317.053 146.054 316.656 146.661C316.59 146.773 316.515 146.882 316.441 146.98C312.597 152.635 305.551 155.415 298.898 156.333C291.41 157.359 283.707 156.668 276.368 158.575C271.33 159.878 266.63 162.363 261.637 163.85C255.782 165.595 249.643 165.935 243.565 166.05C230.217 166.297 216.515 165.409 204.277 159.756C199.656 157.623 195.089 154.577 192.543 150.047C192.243 149.515 191.972 148.962 191.737 148.398C191.639 148.164 191.546 147.927 191.458 147.69C189.083 141.157 191.126 133.664 193.738 127.168C196.451 120.449 199.787 113.996 203.697 107.894C206.298 103.824 209.158 99.9274 212.259 96.2247C215.462 92.4209 218.345 88.4415 223.245 87.593C229.44 86.5157 235.54 88.766 241.626 89.6518C252.569 91.2531 263.587 88.2899 274.586 87.1541C285.585 86.0183 297.776 87.1541 305.782 95.2378C309.879 99.3661 312.446 104.907 314.43 110.517C315.161 112.581 315.821 114.672 316.409 116.786C317.438 120.465 318.258 124.203 318.862 127.977C319.758 133.603 320.122 139.66 317.715 144.764H317.712Z" fill="#F8FAFC"/>
<path opacity="0.25" d="M317.712 144.764C317.406 145.421 317.053 146.054 316.656 146.661C306.857 146.996 297.055 147.334 287.25 147.677C257.495 148.693 227.732 149.728 197.967 149.332C195.725 149.302 193.301 149.201 191.527 147.73C191.506 147.709 191.482 147.69 191.458 147.672C190.237 144.317 190.176 140.713 190.764 137.103C191.32 133.696 192.461 130.302 193.735 127.136C195.078 123.814 196.573 120.566 198.22 117.39C199.893 114.129 201.72 110.964 203.697 107.891C207.08 107.309 210.554 107.596 213.797 108.724C216.999 109.825 220.018 111.522 223.295 112.35C230.273 114.105 237.529 111.743 244.695 111.61C252.013 111.509 259.182 113.688 265.209 117.842C268.603 120.178 271.676 123.133 275.429 124.724C279.791 126.575 284.736 126.405 289.266 125.104C293.796 123.803 297.994 121.444 302.077 118.962C305.364 116.957 310.15 113.762 314.105 115.323C314.956 115.664 315.741 116.161 316.414 116.784C317.444 120.463 318.263 124.2 318.867 127.974C319.758 133.6 320.122 139.657 317.715 144.762L317.712 144.764Z" fill="#F8FAFC"/>
<path opacity="0.25" d="M316.441 146.991C312.597 152.646 305.551 155.426 298.898 156.344C291.41 157.371 283.707 156.679 276.368 158.586C271.33 159.89 266.629 162.374 261.637 163.861C255.782 165.606 249.643 165.946 243.565 166.061C230.217 166.308 216.515 165.42 204.276 159.767C199.656 157.634 195.089 154.588 192.543 150.058L191.359 147.124L316.446 146.994L316.441 146.991Z" fill="#F8FAFC"/>
<path d="M208.094 150.026C207.65 150.26 207.134 150.667 207.299 151.154C207.374 151.335 207.501 151.492 207.663 151.603C209.055 152.699 210.949 152.856 212.728 152.92C224.536 153.42 236.36 152.715 248.154 152.01C248.646 152.026 249.13 151.901 249.553 151.649C249.947 151.356 250.117 150.718 249.763 150.367C257.022 150.513 264.292 150.47 271.57 150.236C272.575 150.204 273.812 150.018 274.155 149.074C274.448 148.292 273.887 147.403 273.139 147.031C272.392 146.658 271.519 146.672 270.684 146.696C261.781 146.94 252.873 147.071 243.962 147.092C239.53 147.092 235.101 147.071 230.675 147.028C226.512 146.983 222.081 147.294 217.944 146.709C217.42 146.632 216.71 146.299 216.213 146.64C215.83 146.901 215.987 147.459 215.742 147.688C215.351 148.052 214.962 147.983 214.372 148.066C212.183 148.353 210.057 149.018 208.094 150.031V150.026Z" fill="url(#paint1_linear_9523_3572)"/>
<path d="M205.343 131.65C205.021 133.124 203.843 134.262 202.359 134.534C203.439 135.116 203.843 136.462 203.261 137.542C202.678 138.622 201.332 139.026 200.252 138.444C199.733 138.146 199.292 137.625 198.685 137.627C198.363 137.667 198.052 137.76 197.76 137.904C196.547 138.303 195.217 137.869 194.475 136.832C193.397 137.537 191.894 138.114 190.915 137.281C190.87 137.242 190.825 137.199 190.785 137.154C191.378 133.746 192.586 130.352 193.94 127.187C195.366 123.864 196.946 120.617 198.68 117.441C199.018 117.395 199.358 117.406 199.691 117.472C200.569 117.635 201.415 118.808 201.726 119.566C202.191 120.755 202.058 122.093 201.369 123.168C203.242 123.721 204.386 126.011 203.705 127.841C204.971 128.666 205.617 130.169 205.343 131.653V131.65Z" fill="#F8FAFC"/>
<path d="M205.343 131.65C205.021 133.124 203.843 134.262 202.359 134.534C203.439 135.116 203.843 136.462 203.261 137.542C202.678 138.622 201.332 139.026 200.252 138.444C199.733 138.146 199.292 137.625 198.685 137.627C198.363 137.667 198.052 137.76 197.76 137.904C196.547 138.303 195.217 137.869 194.475 136.832C193.397 137.537 191.894 138.114 190.915 137.281C190.87 137.242 190.825 137.199 190.785 137.154C191.378 133.746 192.586 130.352 193.94 127.187C195.366 123.864 196.946 120.617 198.68 117.441C199.018 117.395 199.358 117.406 199.691 117.472C200.569 117.635 201.415 118.808 201.726 119.566C202.191 120.755 202.058 122.093 201.369 123.168C203.242 123.721 204.386 126.011 203.705 127.841C204.971 128.666 205.617 130.169 205.343 131.653V131.65Z" fill="url(#paint2_linear_9523_3572)"/>
<path d="M198.449 131.651C196.363 133.109 195.204 135.561 195.4 138.099C195.635 142.554 197.159 147.361 197.159 147.361H191.52C191.52 147.361 193.64 139.272 192.701 136.471C191.762 133.672 191.706 134.228 191.706 134.228L193.288 135.151L193.773 129.611C193.773 129.611 194.169 132.172 194.169 133.172C194.169 134.173 198.079 128.294 198.079 128.294L195.196 134.008L198.446 131.651H198.449Z" fill="#F8FAFC"/>
<path d="M276.317 133.643H231.357V141.615H276.317V133.643Z" fill="#231F20"/>
<path d="M276.317 133.643H231.357V141.615H276.317V133.643Z" fill="url(#paint3_linear_9523_3572)"/>
<path d="M218.021 123.436C217.27 122.766 216.353 122.308 215.366 122.111C214.568 121.907 213.653 121.792 212.975 122.263C212.485 122.638 212.187 123.21 212.158 123.827C212.134 124.436 212.227 125.043 212.435 125.615C212.504 125.902 212.647 126.168 212.855 126.381C213.153 126.596 213.509 126.708 213.876 126.7C215.629 126.796 217.385 126.777 219.135 126.652C219.936 126.609 220.032 125.756 219.553 125.258C218.986 124.676 218.574 124 218.026 123.439L218.021 123.436Z" fill="#F8FAFC"/>
<path d="M218.048 123.474C217.301 122.809 216.391 122.354 215.41 122.154C214.609 121.949 213.694 121.835 213.018 122.306C212.529 122.681 212.231 123.25 212.199 123.865C212.175 124.474 212.271 125.083 212.478 125.655C212.547 125.942 212.691 126.208 212.898 126.421C213.196 126.634 213.553 126.745 213.92 126.74C215.673 126.833 217.428 126.817 219.179 126.69C219.977 126.647 220.073 125.796 219.596 125.298C219.043 124.719 218.617 124.03 218.054 123.474H218.048Z" fill="url(#paint4_linear_9523_3572)"/>
<path d="M240.965 141.793C240.965 144.206 241.72 146.488 240.005 147.238C239.555 147.43 237.089 147.305 236.592 147.305C234.174 147.305 232.211 144.839 232.211 141.798C232.211 138.758 234.174 136.292 236.592 136.292C237.044 136.292 239.542 136.202 239.952 136.361C241.723 137.05 240.968 139.317 240.968 141.79L240.965 141.793Z" fill="#231F20"/>
<path d="M240.965 141.793C240.965 144.206 241.72 146.488 240.005 147.238C239.555 147.43 237.089 147.305 236.592 147.305C234.174 147.305 232.211 144.839 232.211 141.799C232.211 138.758 234.174 136.292 236.592 136.292C237.044 136.292 239.648 136.218 240.058 136.38C241.843 137.072 240.968 139.32 240.968 141.793H240.965Z" fill="#231F20"/>
<path d="M240.964 141.793C240.964 144.205 241.653 146.458 239.932 147.206C239.488 147.397 237.086 147.299 236.586 147.299C234.168 147.299 232.205 144.833 232.205 141.793C232.205 138.752 234.168 136.286 236.586 136.286C237.038 136.286 239.47 136.177 239.869 136.337C241.653 137.031 240.964 139.319 240.964 141.79V141.793Z" fill="url(#paint5_linear_9523_3572)"/>
<path d="M239.314 147.3C241.732 147.3 243.692 144.834 243.692 141.793C243.692 138.752 241.732 136.287 239.314 136.287C236.896 136.287 234.936 138.752 234.936 141.793C234.936 144.834 236.896 147.3 239.314 147.3Z" fill="#231F20"/>
<path d="M239.411 145.596C241.116 145.596 242.499 143.86 242.499 141.718C242.499 139.576 241.116 137.84 239.411 137.84C237.705 137.84 236.322 139.576 236.322 141.718C236.322 143.86 237.705 145.596 239.411 145.596Z" fill="#F8FAFC"/>
<path d="M239.585 143.573C240.415 143.573 241.088 142.728 241.088 141.687C241.088 140.645 240.415 139.801 239.585 139.801C238.755 139.801 238.082 140.645 238.082 141.687C238.082 142.728 238.755 143.573 239.585 143.573Z" fill="url(#paint6_linear_9523_3572)"/>
<path d="M272.85 141.384C272.85 143.796 273.603 146.078 271.889 146.829C271.44 147.02 268.971 146.895 268.477 146.895C266.056 146.895 264.096 144.429 264.096 141.389C264.096 138.348 266.061 135.88 268.474 135.88C268.926 135.88 271.421 135.79 271.834 135.949C273.619 136.641 272.852 138.907 272.852 141.381L272.85 141.384Z" fill="#231F20"/>
<path d="M272.85 141.383C272.85 143.796 273.603 146.078 271.889 146.828C271.44 147.019 268.971 146.894 268.477 146.894C266.056 146.894 264.096 144.429 264.096 141.388C264.096 138.348 266.061 135.879 268.474 135.879C268.926 135.879 271.53 135.805 271.94 135.967C273.728 136.659 272.852 138.909 272.852 141.383H272.85Z" fill="#231F20"/>
<path d="M272.851 141.383C272.851 143.796 273.54 146.049 271.819 146.793C271.375 146.988 268.968 146.889 268.473 146.889C266.052 146.889 264.092 144.423 264.092 141.383C264.092 138.343 266.06 135.882 268.473 135.882C268.925 135.882 271.356 135.773 271.755 135.933C273.54 136.624 272.851 138.912 272.851 141.383Z" fill="url(#paint7_linear_9523_3572)"/>
<path d="M271.197 146.886C273.615 146.886 275.575 144.421 275.575 141.38C275.575 138.339 273.615 135.874 271.197 135.874C268.779 135.874 266.818 138.339 266.818 141.38C266.818 144.421 268.779 146.886 271.197 146.886Z" fill="#231F20"/>
<path d="M271.297 145.187C273.003 145.187 274.386 143.451 274.386 141.309C274.386 139.167 273.003 137.431 271.297 137.431C269.592 137.431 268.209 139.167 268.209 141.309C268.209 143.451 269.592 145.187 271.297 145.187Z" fill="#F8FAFC"/>
<path d="M271.47 143.163C272.3 143.163 272.973 142.318 272.973 141.277C272.973 140.235 272.3 139.391 271.47 139.391C270.64 139.391 269.967 140.235 269.967 141.277C269.967 142.318 270.64 143.163 271.47 143.163Z" fill="url(#paint8_linear_9523_3572)"/>
<path d="M221.738 141.793C221.738 144.206 222.493 146.488 220.777 147.238C220.333 147.43 217.862 147.305 217.365 147.305C214.947 147.305 212.986 144.839 212.986 141.798C212.986 138.758 214.947 136.292 217.365 136.292C217.817 136.292 220.315 136.202 220.724 136.361C222.504 137.05 221.74 139.317 221.74 141.79L221.738 141.793Z" fill="#231F20"/>
<path d="M221.738 141.793C221.738 144.206 222.493 146.488 220.777 147.238C220.333 147.43 217.862 147.305 217.365 147.305C214.947 147.305 212.986 144.839 212.986 141.799C212.986 138.758 214.947 136.292 217.365 136.292C217.817 136.292 220.424 136.218 220.833 136.38C222.613 137.072 221.74 139.32 221.74 141.793H221.738Z" fill="#231F20"/>
<path d="M221.739 141.793C221.739 144.205 222.428 146.458 220.707 147.206C220.263 147.397 217.861 147.299 217.361 147.299C214.943 147.299 212.982 144.833 212.982 141.793C212.982 138.752 214.943 136.286 217.361 136.286C217.813 136.286 220.244 136.177 220.643 136.337C222.431 137.031 221.739 139.319 221.739 141.79V141.793Z" fill="url(#paint9_linear_9523_3572)"/>
<path d="M220.087 147.3C222.505 147.3 224.466 144.834 224.466 141.793C224.466 138.752 222.505 136.287 220.087 136.287C217.669 136.287 215.709 138.752 215.709 141.793C215.709 144.834 217.669 147.3 220.087 147.3Z" fill="#231F20"/>
<path d="M220.186 145.596C221.892 145.596 223.274 143.86 223.274 141.718C223.274 139.576 221.892 137.84 220.186 137.84C218.48 137.84 217.098 139.576 217.098 141.718C217.098 143.86 218.48 145.596 220.186 145.596Z" fill="#F8FAFC"/>
<path d="M220.358 143.573C221.188 143.573 221.861 142.728 221.861 141.687C221.861 140.645 221.188 139.801 220.358 139.801C219.528 139.801 218.855 140.645 218.855 141.687C218.855 142.728 219.528 143.573 220.358 143.573Z" fill="url(#paint10_linear_9523_3572)"/>
<path d="M253.623 141.384C253.623 143.796 254.379 146.078 252.663 146.829C252.213 147.02 249.748 146.895 249.25 146.895C246.832 146.895 244.869 144.429 244.869 141.389C244.869 138.348 246.846 135.88 249.248 135.88C249.7 135.88 252.197 135.79 252.607 135.949C254.392 136.641 253.626 138.907 253.626 141.381L253.623 141.384Z" fill="#231F20"/>
<path d="M253.623 141.383C253.623 143.796 254.379 146.078 252.663 146.828C252.213 147.019 249.748 146.894 249.25 146.894C246.832 146.894 244.869 144.429 244.869 141.388C244.869 138.348 246.846 135.879 249.248 135.879C249.7 135.879 252.304 135.805 252.716 135.967C254.501 136.659 253.626 138.909 253.626 141.383H253.623Z" fill="#231F20"/>
<path d="M253.625 141.383C253.625 143.796 254.314 146.049 252.593 146.793C252.148 146.988 249.746 146.889 249.246 146.889C246.828 146.889 244.865 144.423 244.865 141.383C244.865 138.343 246.844 135.882 249.246 135.882C249.698 135.882 252.13 135.773 252.529 135.933C254.316 136.624 253.625 138.912 253.625 141.383Z" fill="url(#paint11_linear_9523_3572)"/>
<path d="M251.972 146.886C254.39 146.886 256.35 144.421 256.35 141.38C256.35 138.339 254.39 135.874 251.972 135.874C249.554 135.874 247.594 138.339 247.594 141.38C247.594 144.421 249.554 146.886 251.972 146.886Z" fill="#231F20"/>
<path d="M252.071 145.187C253.776 145.187 255.159 143.451 255.159 141.309C255.159 139.167 253.776 137.431 252.071 137.431C250.365 137.431 248.982 139.167 248.982 141.309C248.982 143.451 250.365 145.187 252.071 145.187Z" fill="#F8FAFC"/>
<path d="M252.243 143.163C253.073 143.163 253.746 142.318 253.746 141.277C253.746 140.235 253.073 139.391 252.243 139.391C251.413 139.391 250.74 140.235 250.74 141.277C250.74 142.318 251.413 143.163 252.243 143.163Z" fill="url(#paint12_linear_9523_3572)"/>
<path d="M277.69 128.015V141.612H276.309C276.346 141.36 276.365 141.104 276.362 140.849C276.362 137.62 273.745 135.005 270.518 135.005C267.292 135.005 264.674 137.622 264.674 140.849C264.674 141.104 264.69 141.36 264.725 141.612H245.243C245.28 141.36 245.299 141.104 245.296 140.849C245.371 137.62 242.814 134.941 239.588 134.867C236.361 134.792 233.68 137.349 233.605 140.575C233.605 140.666 233.605 140.759 233.605 140.849C233.605 141.104 233.621 141.36 233.659 141.612H208.524C208.524 141.612 208.524 141.57 208.498 141.49C208.309 140.562 207.237 134.556 209.931 130.238C209.931 130.238 218.486 118.284 235.718 113.358C247.193 110.086 258.298 110.703 265.063 112.105C268.459 112.81 270.766 113.706 271.468 114.414C273.583 116.523 277.684 128.012 277.684 128.012L277.69 128.015Z" fill="#F8FAFC"/>
<path d="M271.368 127.897H270.235C269.593 127.897 269.072 128.418 269.072 129.06V130.427C269.072 131.069 269.593 131.59 270.235 131.59H271.368C272.01 131.59 272.53 131.069 272.53 130.427V129.06C272.53 128.418 272.01 127.897 271.368 127.897Z" fill="url(#paint13_linear_9523_3572)"/>
<path d="M261.28 126.2V139.798L245.586 139.622C245.586 139.622 245.873 134.177 238.574 133.642L238.037 126.08L261.278 126.2H261.28Z" fill="url(#paint14_linear_9523_3572)"/>
<path d="M214.564 126.2H233.437C233.437 126.2 243.928 111.019 264.559 113.011L268.134 112.836C268.134 112.836 243 104.749 219.368 122.332L214.564 126.2Z" fill="url(#paint15_linear_9523_3572)"/>
<path d="M236.307 126.2H261.287V114.065C261.287 114.065 246.388 113.012 236.307 126.2Z" fill="url(#paint16_linear_9523_3572)"/>
<path d="M263.094 113.948V126.022H275.402C275.402 126.022 271.122 116.645 269.776 115.882C268.427 115.119 263.094 113.948 263.094 113.948Z" fill="url(#paint17_linear_9523_3572)"/>
<path d="M265.067 112.283L265.03 112.366C265.03 112.366 248.376 110.722 235.371 126.136C235.371 126.136 227.636 131.002 227.87 141.668H208.5C208.311 140.74 207.239 134.734 209.933 130.416C209.933 130.416 218.488 118.462 235.719 113.536C247.195 110.256 258.3 110.879 265.065 112.281L265.067 112.283Z" fill="url(#paint18_linear_9523_3572)"/>
<path d="M209.399 131.271C209.399 131.271 211.09 132.039 211.441 133.489C211.601 134.045 211.718 134.611 211.793 135.183L208.34 134.082C208.34 134.082 209.021 131.576 209.396 131.271H209.399Z" fill="#F8FAFC"/>
<path d="M230.305 131.621C230.305 131.621 226.613 131.137 225.687 132.937C224.761 134.738 224.727 135.401 224.727 135.401C224.727 135.401 228.948 134.39 229.653 133.906C230.358 133.422 232.635 131.663 230.307 131.623L230.305 131.621Z" fill="#F8FAFC"/>
<path d="M211.545 131.56L212.806 135.401L216.471 137.744L219.4 137.624L223.619 135.252L225.789 131.445L211.545 131.56Z" fill="#F8FAFC"/>
<path d="M238.235 123.646C239.017 122.872 240.087 122.462 241.153 122.186C242.037 121.96 243.053 121.835 243.803 122.356C244.343 122.771 244.673 123.401 244.707 124.082C244.731 124.755 244.622 125.428 244.388 126.059C244.311 126.378 244.154 126.67 243.928 126.907C243.598 127.141 243.199 127.264 242.795 127.253C240.855 127.359 238.914 127.341 236.98 127.2C236.097 127.155 235.99 126.21 236.522 125.66C237.147 125.027 237.618 124.266 238.243 123.649L238.235 123.646Z" fill="#F8FAFC"/>
<path d="M238.198 123.691C238.98 122.917 240.049 122.502 241.116 122.231C242.004 122.005 243.015 121.88 243.765 122.398C244.305 122.813 244.637 123.447 244.672 124.127C244.696 124.8 244.587 125.471 244.353 126.104C244.276 126.423 244.116 126.713 243.887 126.95C243.558 127.186 243.161 127.309 242.757 127.298C240.818 127.402 238.876 127.383 236.942 127.245C236.054 127.2 235.95 126.255 236.482 125.705C237.099 125.072 237.562 124.311 238.203 123.694L238.198 123.691Z" fill="url(#paint19_linear_9523_3572)"/>
<path d="M232.405 139.356H209.034C208.253 139.356 207.619 139.99 207.619 140.772V140.929C207.619 141.71 208.253 142.344 209.034 142.344H232.405C233.187 142.344 233.82 141.71 233.82 140.929V140.772C233.82 139.99 233.187 139.356 232.405 139.356Z" fill="#F8FAFC"/>
<path d="M232.405 139.356H209.034C208.253 139.356 207.619 139.99 207.619 140.772V140.929C207.619 141.71 208.253 142.344 209.034 142.344H232.405C233.187 142.344 233.82 141.71 233.82 140.929V140.772C233.82 139.99 233.187 139.356 232.405 139.356Z" fill="url(#paint20_linear_9523_3572)"/>
<path d="M227.157 139.356H208.88C208.184 139.356 207.619 139.921 207.619 140.617V141.083C207.619 141.779 208.184 142.344 208.88 142.344H227.157C227.853 142.344 228.418 141.779 228.418 141.083V140.617C228.418 139.921 227.853 139.356 227.157 139.356Z" fill="url(#paint21_linear_9523_3572)"/>
<path d="M263.912 139.622H245.577C244.91 139.622 244.369 140.163 244.369 140.83V141.053C244.369 141.72 244.91 142.261 245.577 142.261H263.912C264.579 142.261 265.12 141.72 265.12 141.053V140.83C265.12 140.163 264.579 139.622 263.912 139.622Z" fill="#F8FAFC"/>
<path d="M263.912 139.622H245.577C244.91 139.622 244.369 140.163 244.369 140.83V141.053C244.369 141.72 244.91 142.261 245.577 142.261H263.912C264.579 142.261 265.12 141.72 265.12 141.053V140.83C265.12 140.163 264.579 139.622 263.912 139.622Z" fill="url(#paint22_linear_9523_3572)"/>
<path d="M259.755 128.277H255.533V129.506H259.755V128.277Z" fill="url(#paint23_linear_9523_3572)"/>
<path d="M302.276 103.486H302.635C306.322 103.486 309.311 106.474 309.311 110.16V145.421H295.594V110.16C295.594 106.474 298.586 103.484 302.276 103.486Z" fill="#F8FAFC"/>
<path d="M302.276 103.486H302.635C306.322 103.486 309.311 106.474 309.311 110.16V145.421H295.594V110.16C295.594 106.474 298.586 103.484 302.276 103.486Z" fill="url(#paint24_linear_9523_3572)"/>
<path d="M303.475 122.389H301.312C300.469 122.389 299.785 123.072 299.785 123.916V125.022C299.785 125.865 300.469 126.549 301.312 126.549H303.475C304.318 126.549 305.001 125.865 305.001 125.022V123.916C305.001 123.072 304.318 122.389 303.475 122.389Z" fill="url(#paint25_linear_9523_3572)"/>
<path d="M311.979 143.663H292.986V146.828H311.979V143.663Z" fill="#F8FAFC"/>
<path d="M302.526 116.847C305.974 116.847 308.769 114.052 308.769 110.604C308.769 107.156 305.974 104.361 302.526 104.361C299.078 104.361 296.283 107.156 296.283 110.604C296.283 114.052 299.078 116.847 302.526 116.847Z" fill="url(#paint26_linear_9523_3572)"/>
<path d="M291.141 139.876H282.35C280.706 139.876 279.374 138.54 279.371 136.896V131.797C279.371 131.015 278.738 130.382 277.956 130.379H272.064C271.633 130.406 271.261 130.081 271.234 129.651C271.207 129.22 271.532 128.847 271.963 128.821C271.997 128.821 272.029 128.821 272.064 128.821H277.956C279.6 128.823 280.93 130.156 280.932 131.8V136.899C280.932 137.681 281.568 138.314 282.35 138.314H291.141C291.923 138.314 292.559 137.681 292.559 136.899C292.559 135.255 293.894 133.922 295.538 133.92H300.255C301.037 133.92 301.672 133.284 301.672 132.502V124.458C301.699 124.027 302.071 123.7 302.502 123.729C302.893 123.753 303.207 124.067 303.231 124.458V132.502C303.231 134.146 301.896 135.479 300.252 135.481H295.522C294.74 135.481 294.105 136.117 294.105 136.899C294.105 138.538 292.777 139.868 291.139 139.878L291.141 139.876Z" fill="#F8FAFC"/>
<path d="M291.141 139.876H282.35C280.706 139.876 279.374 138.54 279.371 136.896V131.797C279.371 131.015 278.738 130.382 277.956 130.379H272.064C271.633 130.406 271.261 130.081 271.234 129.651C271.207 129.22 271.532 128.847 271.963 128.821C271.997 128.821 272.029 128.821 272.064 128.821H277.956C279.6 128.823 280.93 130.156 280.932 131.8V136.899C280.932 137.681 281.568 138.314 282.35 138.314H291.141C291.923 138.314 292.559 137.681 292.559 136.899C292.559 135.255 293.894 133.922 295.538 133.92H300.255C301.037 133.92 301.672 133.284 301.672 132.502V124.458C301.699 124.027 302.071 123.7 302.502 123.729C302.893 123.753 303.207 124.067 303.231 124.458V132.502C303.231 134.146 301.896 135.479 300.252 135.481H295.522C294.74 135.481 294.105 136.117 294.105 136.899C294.105 138.538 292.777 139.868 291.139 139.878L291.141 139.876Z" fill="url(#paint27_linear_9523_3572)"/>
<path d="M272.616 128.265H271.352C270.766 128.265 270.291 128.74 270.291 129.326V129.752C270.291 130.338 270.766 130.813 271.352 130.813H272.616C273.202 130.813 273.677 130.338 273.677 129.752V129.326C273.677 128.74 273.202 128.265 272.616 128.265Z" fill="#F8FAFC"/>
<path d="M272.616 128.265H271.352C270.766 128.265 270.291 128.74 270.291 129.326V129.752C270.291 130.338 270.766 130.813 271.352 130.813H272.616C273.202 130.813 273.677 130.338 273.677 129.752V129.326C273.677 128.74 273.202 128.265 272.616 128.265Z" fill="url(#paint28_linear_9523_3572)"/>
<path d="M302.528 107.104L300.812 110.578H302.132L301.339 113.831L304.196 110.184L302.967 110.094L304.771 107.062L302.528 107.104Z" fill="white"/>
<path d="M250.104 136.063C251.009 136.298 251.966 136.22 252.823 135.845C253.679 135.46 254.326 134.72 254.597 133.821C254.844 132.93 254.65 131.986 254.597 131.068C253.435 130.93 252.256 131.095 251.179 131.552C250.094 132.026 249.28 132.97 248.971 134.114C248.931 134.545 249.038 134.978 249.274 135.34C250.062 133.991 251.73 133.446 252.828 132.337C252.147 133.438 251.15 134.305 250.165 135.151C249.985 135.276 249.844 135.457 249.769 135.664C249.724 135.835 249.828 136.01 249.998 136.055C250.03 136.063 250.064 136.066 250.099 136.066L250.104 136.063Z" fill="#F8FAFC"/>
<defs>
<filter id="filter0_d_9523_3572" x="26" y="25" width="452" height="18" filterUnits="userSpaceOnUse" color-interpolation-filters="sRGB">
<feFlood flood-opacity="0" result="BackgroundImageFix"/>
<feColorMatrix in="SourceAlpha" type="matrix" values="0 0 0 0 0 0 0 0 0 0 0 0 0 0 0 0 0 0 127 0" result="hardAlpha"/>
<feOffset dx="-6" dy="-5"/>
<feGaussianBlur stdDeviation="2"/>
<feComposite in2="hardAlpha" operator="out"/>
<feColorMatrix type="matrix" values="0 0 0 0 0.592157 0 0 0 0 0.580392 0 0 0 0 0.580392 0 0 0 0.25 0"/>
<feBlend mode="normal" in2="BackgroundImageFix" result="effect1_dropShadow_9523_3572"/>
<feBlend mode="normal" in="SourceGraphic" in2="effect1_dropShadow_9523_3572" result="shape"/>
</filter>
<filter id="filter1_d_9523_3572" x="18" y="32" width="17" height="181" filterUnits="userSpaceOnUse" color-interpolation-filters="sRGB">
<feFlood flood-opacity="0" result="BackgroundImageFix"/>
<feColorMatrix in="SourceAlpha" type="matrix" values="0 0 0 0 0 0 0 0 0 0 0 0 0 0 0 0 0 0 127 0" result="hardAlpha"/>
<feOffset dx="-6" dy="-4"/>
<feGaussianBlur stdDeviation="2"/>
<feComposite in2="hardAlpha" operator="out"/>
<feColorMatrix type="matrix" values="0 0 0 0 0.593099 0 0 0 0 0.580629 0 0 0 0 0.580629 0 0 0 0.25 0"/>
<feBlend mode="normal" in2="BackgroundImageFix" result="effect1_dropShadow_9523_3572"/>
<feBlend mode="normal" in="SourceGraphic" in2="effect1_dropShadow_9523_3572" result="shape"/>
</filter>
<linearGradient id="paint0_linear_9523_3572" x1="483" y1="124" x2="28" y2="124" gradientUnits="userSpaceOnUse">
<stop stop-color="#03C96B"/>
<stop offset="1" stop-color="#8FEE00"/>
</linearGradient>
<linearGradient id="paint1_linear_9523_3572" x1="207.267" y1="149.787" x2="274.235" y2="149.787" gradientUnits="userSpaceOnUse">
<stop stop-color="#231F20" stop-opacity="0"/>
<stop offset="1" stop-color="#231F20"/>
</linearGradient>
<linearGradient id="paint2_linear_9523_3572" x1="188.29" y1="124.857" x2="218.766" y2="135.991" gradientUnits="userSpaceOnUse">
<stop stop-color="#231F20" stop-opacity="0"/>
<stop offset="1" stop-color="#231F20"/>
</linearGradient>
<linearGradient id="paint3_linear_9523_3572" x1="253.563" y1="143.405" x2="254.444" y2="124.825" gradientUnits="userSpaceOnUse">
<stop stop-color="#231F20" stop-opacity="0"/>
<stop offset="1" stop-color="#231F20"/>
</linearGradient>
<linearGradient id="paint4_linear_9523_3572" x1="216.04" y1="127.74" x2="216.04" y2="122.851" gradientUnits="userSpaceOnUse">
<stop stop-color="#231F20" stop-opacity="0"/>
<stop offset="1" stop-color="#231F20"/>
</linearGradient>
<linearGradient id="paint5_linear_9523_3572" x1="233.998" y1="141.992" x2="244.396" y2="141.46" gradientUnits="userSpaceOnUse">
<stop stop-color="#231F20" stop-opacity="0"/>
<stop offset="1" stop-color="#231F20"/>
</linearGradient>
<linearGradient id="paint6_linear_9523_3572" x1="241.293" y1="137.965" x2="235.052" y2="151.563" gradientUnits="userSpaceOnUse">
<stop stop-color="#231F20" stop-opacity="0"/>
<stop offset="1" stop-color="#231F20"/>
</linearGradient>
<linearGradient id="paint7_linear_9523_3572" x1="265.885" y1="141.582" x2="276.283" y2="141.05" gradientUnits="userSpaceOnUse">
<stop stop-color="#231F20" stop-opacity="0"/>
<stop offset="1" stop-color="#231F20"/>
</linearGradient>
<linearGradient id="paint8_linear_9523_3572" x1="273.177" y1="137.553" x2="266.934" y2="151.153" gradientUnits="userSpaceOnUse">
<stop stop-color="#231F20" stop-opacity="0"/>
<stop offset="1" stop-color="#231F20"/>
</linearGradient>
<linearGradient id="paint9_linear_9523_3572" x1="214.778" y1="141.992" x2="225.176" y2="141.46" gradientUnits="userSpaceOnUse">
<stop stop-color="#231F20" stop-opacity="0"/>
<stop offset="1" stop-color="#231F20"/>
</linearGradient>
<linearGradient id="paint10_linear_9523_3572" x1="222.069" y1="137.965" x2="215.826" y2="151.563" gradientUnits="userSpaceOnUse">
<stop stop-color="#231F20" stop-opacity="0"/>
<stop offset="1" stop-color="#231F20"/>
</linearGradient>
<linearGradient id="paint11_linear_9523_3572" x1="246.661" y1="141.582" x2="257.059" y2="141.05" gradientUnits="userSpaceOnUse">
<stop stop-color="#231F20" stop-opacity="0"/>
<stop offset="1" stop-color="#231F20"/>
</linearGradient>
<linearGradient id="paint12_linear_9523_3572" x1="253.954" y1="137.553" x2="247.71" y2="151.153" gradientUnits="userSpaceOnUse">
<stop stop-color="#231F20" stop-opacity="0"/>
<stop offset="1" stop-color="#231F20"/>
</linearGradient>
<linearGradient id="paint13_linear_9523_3572" x1="268.149" y1="127.956" x2="281.338" y2="136.832" gradientUnits="userSpaceOnUse">
<stop stop-color="#231F20" stop-opacity="0"/>
<stop offset="1" stop-color="#231F20"/>
</linearGradient>
<linearGradient id="paint14_linear_9523_3572" x1="246.605" y1="149.626" x2="251.529" y2="122.723" gradientUnits="userSpaceOnUse">
<stop stop-color="#231F20" stop-opacity="0"/>
<stop offset="1" stop-color="#231F20"/>
</linearGradient>
<linearGradient id="paint15_linear_9523_3572" x1="237.999" y1="106.976" x2="250.31" y2="153.044" gradientUnits="userSpaceOnUse">
<stop stop-color="#231F20" stop-opacity="0"/>
<stop offset="1" stop-color="#231F20"/>
</linearGradient>
<linearGradient id="paint16_linear_9523_3572" x1="248.205" y1="105.441" x2="250.139" y2="153.446" gradientUnits="userSpaceOnUse">
<stop stop-color="#231F20" stop-opacity="0"/>
<stop offset="1" stop-color="#231F20"/>
</linearGradient>
<linearGradient id="paint17_linear_9523_3572" x1="274.388" y1="112.296" x2="257.859" y2="137.029" gradientUnits="userSpaceOnUse">
<stop stop-color="#231F20" stop-opacity="0"/>
<stop offset="1" stop-color="#231F20"/>
</linearGradient>
<linearGradient id="paint18_linear_9523_3572" x1="240.063" y1="152.149" x2="233.911" y2="105.2" gradientUnits="userSpaceOnUse">
<stop stop-color="#231F20" stop-opacity="0"/>
<stop offset="1" stop-color="#231F20"/>
</linearGradient>
<linearGradient id="paint19_linear_9523_3572" x1="240.413" y1="128.41" x2="240.413" y2="123.002" gradientUnits="userSpaceOnUse">
<stop stop-color="#231F20" stop-opacity="0"/>
<stop offset="1" stop-color="#231F20"/>
</linearGradient>
<linearGradient id="paint20_linear_9523_3572" x1="226.213" y1="134.108" x2="220.528" y2="141.083" gradientUnits="userSpaceOnUse">
<stop stop-color="#231F20" stop-opacity="0"/>
<stop offset="1" stop-color="#231F20"/>
</linearGradient>
<linearGradient id="paint21_linear_9523_3572" x1="218.065" y1="138.128" x2="217.892" y2="147.978" gradientUnits="userSpaceOnUse">
<stop stop-color="#231F20" stop-opacity="0"/>
<stop offset="1" stop-color="#231F20"/>
</linearGradient>
<linearGradient id="paint22_linear_9523_3572" x1="254.642" y1="138.97" x2="254.935" y2="144.655" gradientUnits="userSpaceOnUse">
<stop stop-color="#231F20" stop-opacity="0"/>
<stop offset="1" stop-color="#231F20"/>
</linearGradient>
<linearGradient id="paint23_linear_9523_3572" x1="257.579" y1="123.705" x2="257.754" y2="137.768" gradientUnits="userSpaceOnUse">
<stop stop-color="#231F20" stop-opacity="0"/>
<stop offset="1" stop-color="#231F20"/>
</linearGradient>
<linearGradient id="paint24_linear_9523_3572" x1="301.02" y1="153.845" x2="303.364" y2="111.062" gradientUnits="userSpaceOnUse">
<stop stop-color="#231F20" stop-opacity="0"/>
<stop offset="1" stop-color="#231F20"/>
</linearGradient>
<linearGradient id="paint25_linear_9523_3572" x1="302.323" y1="122.482" x2="302.701" y2="133.053" gradientUnits="userSpaceOnUse">
<stop stop-color="#231F20" stop-opacity="0"/>
<stop offset="1" stop-color="#231F20"/>
</linearGradient>
<linearGradient id="paint26_linear_9523_3572" x1="302.186" y1="117.76" x2="303.276" y2="94.764" gradientUnits="userSpaceOnUse">
<stop stop-color="#231F20" stop-opacity="0"/>
<stop offset="1" stop-color="#231F20"/>
</linearGradient>
<linearGradient id="paint27_linear_9523_3572" x1="287.149" y1="124.7" x2="288.556" y2="164.087" gradientUnits="userSpaceOnUse">
<stop stop-color="#231F20" stop-opacity="0"/>
<stop offset="1" stop-color="#231F20"/>
</linearGradient>
<linearGradient id="paint28_linear_9523_3572" x1="271.983" y1="131.207" x2="271.983" y2="128.307" gradientUnits="userSpaceOnUse">
<stop stop-color="#231F20" stop-opacity="0"/>
<stop offset="1" stop-color="#231F20"/>
</linearGradient>
</defs>
</svg>
