<svg width="483" height="213" viewBox="0 0 483 213" fill="none" xmlns="http://www.w3.org/2000/svg">
<path d="M0 30C0 13.4315 13.4315 0 30 0H453C469.569 0 483 13.4315 483 30V213H0V30Z" fill="#ECEEF0"/>
<g filter="url(#filter0_d_9525_3844)">
<path d="M36 38.5C36 36.0147 38.0147 34 40.5 34H473.5C475.985 34 478 36.0147 478 38.5V38.5C478 40.9853 475.985 43 473.5 43H40.5C38.0147 43 36 40.9853 36 38.5V38.5Z" fill="#CFCFCF" fill-opacity="0.7" shape-rendering="crispEdges"/>
</g>
<g filter="url(#filter1_d_9525_3844)">
<path d="M31.5 213C29.567 213 28 211.433 28 209.5L28 43.5C28 41.567 29.567 40 31.5 40V40C33.433 40 35 41.567 35 43.5L35 209.5C35 211.433 33.433 213 31.5 213V213Z" fill="#CFCFCF" fill-opacity="0.7" shape-rendering="crispEdges"/>
</g>
<path d="M28 39C28 36.7909 29.7909 35 32 35H479C481.209 35 483 36.7909 483 39V209C483 211.209 481.209 213 479 213H32C29.7909 213 28 211.209 28 209V39Z" fill="url(#paint0_linear_9525_3844)"/>
<path opacity="0.18" d="M219.462 173.266C231.937 179.693 245.762 183.063 259.796 183.095C265.025 183.095 270.332 182.624 275.24 180.818C287.899 176.145 296.251 161.921 294.174 148.587C293.439 143.857 291.548 139.272 291.668 134.486C291.795 129.451 294.123 124.78 295.605 119.971C297.262 114.566 297.863 108.894 297.376 103.261C296.645 94.8363 293.147 86.2871 286.337 81.2623C283.603 79.2381 280.453 77.8628 277.333 76.5036L262.993 70.2313C254.537 66.5419 244.424 62.9323 236.558 67.7522C229.432 72.1199 227.272 81.7385 220.736 86.9414C212.623 93.4132 199.001 92.2082 193.703 101.127C189.284 108.57 193.748 118.444 190.902 126.615C189.952 129.336 188.242 131.709 186.696 134.143C181.706 142.038 176.437 159.227 188.944 163.472C192.655 164.73 197.076 163.778 200.927 164.643C207.622 166.146 213.448 170.16 219.459 173.261L219.462 173.266Z" fill="#CBD5E0"/>
<path d="M245.96 79.0491C244.63 79.3737 243.765 80.7276 243.51 82.0736C243.257 83.4195 243.481 84.8027 243.598 86.17C243.72 87.6356 243.715 89.0986 243.726 90.5829C243.726 91.2346 243.742 91.9315 244.071 92.5061C244.489 93.2269 245.316 93.6047 246.128 93.8068C247.466 94.1313 248.857 94.0728 250.229 94.0143C250.767 93.9904 251.344 93.9531 251.748 93.602C252.038 93.3121 252.235 92.945 252.312 92.5407C252.546 91.5112 252.668 90.4579 252.674 89.4019L252.908 84.2521C252.993 82.4167 252.926 79.9801 250.955 79.0811C250.392 78.823 249.774 78.9082 249.176 78.9321C248.144 78.972 246.989 78.7858 245.963 79.0491H245.96Z" fill="#CBD5E0"/>
<path d="M245.798 91.2744C245.391 91.599 245.798 92.7188 246.449 92.8997C246.846 93.0061 244.497 93.0513 244.25 92.7215C243.973 92.3278 243.8 91.8729 243.749 91.3941C243.691 89.9391 243.851 88.4655 243.792 86.9971C243.731 86.3561 243.779 85.707 243.933 85.0819C244.223 84.1297 244.978 83.3928 245.383 82.4805C245.83 83.0098 245.771 83.7812 245.728 84.4781C245.667 85.5182 245.705 86.5609 245.843 87.593C245.869 87.9095 245.947 88.2181 246.074 88.5107C246.481 89.3459 247.7 89.5561 247.947 90.4631C248.258 91.6282 246.471 91.4819 245.8 91.2771L245.798 91.2744Z" fill="url(#paint1_linear_9525_3844)"/>
<path d="M247.934 79.5224L248.181 80.1448C248.285 80.4055 248.432 80.6981 248.705 80.7566C248.846 80.7726 248.99 80.7487 249.123 80.6928C249.44 80.597 249.706 80.3842 249.871 80.097C249.95 79.8895 249.982 79.6687 249.961 79.4452C249.934 78.6579 249.855 75.7399 248.7 75.8862C247.774 76.0139 247.673 78.8654 247.937 79.5224H247.934Z" fill="#FFB4A3"/>
<path d="M248.95 79.5359C249.141 79.7434 249.437 79.9296 249.692 79.8046C249.947 79.6796 249.99 79.4003 250.017 79.1529C250.043 78.9055 250.059 78.6581 250.062 78.4108C250.094 78.1607 249.945 77.924 249.708 77.8415C249.426 77.6633 248.258 76.9079 248.234 77.6926C248.242 78.3735 248.495 79.0279 248.95 79.5333V79.5359Z" fill="url(#paint2_linear_9525_3844)"/>
<path d="M252.313 74.061C252.158 74.9654 251.94 75.8566 251.661 76.7317C251.554 77.1147 251.395 77.4818 251.19 77.8223C250.98 78.1628 250.658 78.4208 250.28 78.5485C249.77 78.6655 249.232 78.5458 248.82 78.224C248.437 77.9526 248.136 77.5802 247.947 77.1493C247.809 76.8088 247.724 76.4497 247.697 76.0826C247.586 75.1197 247.756 74.1462 248.184 73.279C248.325 72.9917 248.522 72.7364 248.767 72.5289C249.254 72.1698 249.868 72.0341 250.459 72.1538C251.044 72.2735 251.602 72.4943 252.11 72.8055C252.565 73.0662 252.387 73.6381 252.313 74.0637V74.061Z" fill="#FFB4A3"/>
<path d="M252.229 71.6436C252.394 71.7792 252.543 71.9362 252.671 72.1091L253.354 72.9549C253.461 73.0613 253.532 73.197 253.562 73.346C253.567 73.4763 253.532 73.604 253.461 73.713C253.229 74.0908 252.83 74.3328 252.391 74.3647C251.894 74.3514 251.412 74.2025 250.992 73.9365C250.862 74.12 250.633 74.2078 250.412 74.1546C250.194 74.12 249.992 74.0189 249.76 73.9897C249.369 73.9498 248.989 74.1253 248.766 74.4472C248.704 74.5376 248.595 74.6547 248.513 74.5829C248.481 74.5536 248.462 74.5137 248.46 74.4685C248.425 74.2876 248.329 74.0615 248.135 74.0721C248.013 74.0908 247.917 74.1892 247.904 74.3115C247.896 74.4312 247.914 74.5509 247.957 74.6627L248.117 75.1787C248.122 75.2 248.122 75.2213 248.117 75.2399C248.117 75.2957 248.024 75.2931 247.965 75.2984C247.835 75.2984 247.755 75.4447 247.715 75.5671C247.691 75.6974 247.638 75.8198 247.558 75.9262C247.545 75.9421 247.526 75.9501 247.505 75.9554C247.484 75.9554 247.462 75.9448 247.446 75.9288C247.255 75.7293 247.154 75.4607 247.167 75.184C247.135 74.7877 247.111 74.386 247.095 73.987C247.061 73.6731 247.095 73.3539 247.188 73.0534C247.292 72.8193 247.43 72.6012 247.595 72.4017C247.742 72.1809 247.917 71.9814 248.117 71.8085C248.428 71.5957 248.787 71.4653 249.165 71.4281C249.713 71.3297 250.269 71.2845 250.827 71.2951C251.319 71.2632 251.809 71.3829 252.229 71.6409V71.6436Z" fill="#3E3E54"/>
<path d="M254.522 82.6056C254.942 83.9063 254.929 85.3161 254.905 86.6913C254.907 87.1994 254.873 87.7048 254.793 88.2075C254.729 88.6305 254.564 89.0321 254.314 89.3806C254.061 89.7317 253.67 89.9578 253.239 90.003C253.064 90.0163 252.888 89.9791 252.734 89.8966C252.34 89.6652 252.282 89.1332 252.266 88.6757L252.077 83.3211C252.048 82.5045 250.556 80.2249 250.699 79.4189C250.856 78.5437 252.817 80.0892 253.285 80.552C253.854 81.1293 254.277 81.8342 254.516 82.6082L254.522 82.6056Z" fill="#CBD5E0"/>
<path d="M254.347 84.326C254.347 84.2063 254.347 84.0574 254.24 84.0015C254.171 83.9749 254.094 83.9829 254.035 84.0281C253.9 84.1531 253.828 84.3314 253.836 84.5149C253.801 84.9033 253.761 85.289 253.724 85.6773C253.706 85.9061 253.573 86.3077 253.918 86.2492C254.424 86.1641 254.317 84.7038 254.344 84.326H254.347Z" fill="#3E3E54"/>
<path d="M253.445 85.64C253.102 85.6799 252.793 85.8741 252.613 86.1694C252.602 86.1907 252.591 86.2119 252.586 86.2332C252.586 86.2625 252.594 86.2944 252.613 86.3183C252.722 86.4513 252.884 86.5311 253.054 86.5365C253.424 86.5976 253.802 86.6216 254.177 86.6136C254.254 86.6189 254.331 86.6003 254.397 86.5604C254.456 86.5072 254.496 86.438 254.512 86.3609C254.584 86.1268 254.722 85.672 254.419 85.6055C254.262 85.6055 254.102 85.6214 253.948 85.6454C253.78 85.6321 253.613 85.6294 253.448 85.6347L253.445 85.64Z" fill="#FFB4A3"/>
<path d="M241.417 83.818C240.863 84.5336 240.281 85.3635 240.422 86.2546C240.539 86.7786 240.815 87.2547 241.212 87.6165C242.451 88.888 244.172 89.5344 245.838 90.1462C245.907 90.1834 245.986 90.194 246.066 90.1807C246.133 90.1595 246.189 90.1196 246.231 90.0637C246.771 89.4306 246.38 88.4384 245.792 87.8346C245.204 87.2335 244.425 86.8132 244.045 86.071C244.002 86.0045 243.981 85.9247 243.986 85.8476C244.013 85.7572 244.069 85.68 244.143 85.6242C245.069 84.7809 245.92 83.7568 246.157 82.5279C246.308 81.7273 245.853 79.1098 244.577 79.8387C243.962 80.1871 243.47 81.158 243.045 81.7113L241.419 83.8154L241.417 83.818Z" fill="#CBD5E0"/>
<path d="M243.976 93.9692L245.681 112.948L243.457 114.169L247.686 113.954L248.187 98.0151L249.91 97.9406L251.277 114.103L255.658 114.39L253.358 112.741L253.477 92.8999L244.502 92.876C243.976 92.8813 243.928 93.4346 243.976 93.9692Z" fill="#3E3E54"/>
<path d="M249.55 86.5737C249.681 86.1854 250.085 85.9566 250.487 86.047C252.122 86.047 253.756 86.1135 255.392 86.2465C255.604 86.2386 255.812 86.3104 255.971 86.4514C256.11 86.6934 256.118 86.9887 255.987 87.2361C255.285 89.1805 254.45 91.0744 253.487 92.9019C253.455 92.9763 253.413 93.0428 253.357 93.1014C253.216 93.2104 253.037 93.2636 252.859 93.2477C250.936 93.3195 249.013 93.2716 247.095 93.104C246.983 93.104 246.85 93.0721 246.805 92.9684C246.699 92.7236 247.228 91.9921 247.332 91.7182C247.547 91.1516 247.749 90.5797 247.983 90.0158C248.441 88.848 248.973 87.6962 249.55 86.5737Z" fill="white"/>
<path d="M247.393 88.4522C247.653 88.3963 247.994 88.3963 248.098 88.641C248.159 88.7873 248.114 88.9921 248.247 89.0799C248.297 89.1092 248.358 89.1198 248.417 89.1145C248.624 89.1145 248.829 89.0666 249.034 89.0746C249.244 89.0666 249.444 89.165 249.563 89.3379C249.654 89.5507 249.63 89.7955 249.505 89.9896C249.409 90.1812 249.284 90.3594 249.138 90.5163C249.023 90.644 248.885 90.7451 248.731 90.8196C248.587 90.8781 248.435 90.9127 248.281 90.918C247.632 90.9712 246.983 90.8329 246.414 90.519C246.081 90.3647 245.818 90.0934 245.674 89.7582C245.315 88.7341 246.741 88.5852 247.387 88.4548L247.393 88.4522Z" fill="#FFB4A3"/>
<path d="M191.391 154.861C191.391 154.861 200.11 152.331 199.171 144.083C198.232 135.834 200.328 120.664 205.233 120.989C210.138 121.313 234.698 120.989 234.698 120.989V139.765H218.576C218.576 139.765 219.701 146.043 216.794 150.451C213.886 154.858 212.389 154.201 212.389 154.201L191.391 154.861Z" fill="#CBD5E0"/>
<path d="M191.391 154.861C191.391 154.861 200.11 152.331 199.171 144.083C198.232 135.834 200.328 120.664 205.233 120.989C210.138 121.313 234.698 120.989 234.698 120.989V139.765H218.576C218.576 139.765 219.701 146.043 216.794 150.451C213.886 154.858 212.389 154.201 212.389 154.201L191.391 154.861Z" fill="url(#paint3_linear_9525_3844)"/>
<path d="M228.325 114.272H267.307C267.307 114.272 271.616 115.304 272.085 121.021V172.106L243.12 172.574C242.843 172.595 242.564 172.601 242.287 172.59C237.505 172.396 233.733 168.454 233.749 163.668V119.52C233.749 119.52 233.198 114.927 228.322 114.27L228.325 114.272Z" fill="#CBD5E0"/>
<path d="M228.325 114.272H267.307C267.307 114.272 271.616 115.304 272.085 121.021V172.106L243.12 172.574C242.782 172.601 242.442 172.601 242.104 172.574C237.398 172.295 233.73 168.387 233.749 163.671V119.52C233.749 119.52 233.198 114.927 228.322 114.27L228.325 114.272Z" fill="url(#paint4_linear_9525_3844)"/>
<path d="M234.036 165.682C234.241 166.863 235.802 171.007 239.715 172.031C241.516 172.502 243.617 172.962 245.341 172.255C245.857 172.061 246.328 171.76 246.719 171.374C247.652 170.326 247.674 168.749 246.767 167.677C246.384 167.294 245.945 166.975 245.466 166.725C244.08 165.916 242.388 164.589 240.72 164.549C239.053 164.509 235.613 165.137 234.033 165.685L234.036 165.682Z" fill="url(#paint5_linear_9525_3844)"/>
<path d="M244.917 160.048C244.917 160.048 240.454 159.607 240.409 165.658C240.363 171.712 244.415 170.537 244.415 170.537L245.274 170.489C245.274 170.489 250.666 166.767 247.755 162.663C247.755 162.652 246.561 160.256 244.915 160.048H244.917Z" fill="url(#paint6_linear_9525_3844)"/>
<path d="M245.395 160.907C245.395 160.907 241.381 160.5 241.338 165.956C241.296 171.412 244.945 170.34 244.945 170.34L245.717 170.297C245.717 170.297 250.568 166.948 247.951 163.251C247.951 163.235 246.874 161.08 245.395 160.905V160.907Z" fill="url(#paint7_linear_9525_3844)"/>
<path d="M244.917 160.049H282.92C282.92 160.049 285.7 161.046 285.421 165.643C285.141 170.239 280.266 172.577 280.266 172.577H243.135C243.135 172.577 246.885 170.375 246.933 166.071C246.981 161.767 244.917 160.046 244.917 160.046V160.049Z" fill="#CBD5E0"/>
<path d="M244.917 160.049H282.92C282.92 160.049 285.7 161.046 285.421 165.643C285.141 170.239 280.266 172.577 280.266 172.577H243.135C243.135 172.577 246.885 170.375 246.933 166.071C246.981 161.767 244.917 160.046 244.917 160.046V160.049Z" fill="url(#paint8_linear_9525_3844)"/>
<path d="M205.236 120.991C205.236 120.991 207.923 121.241 207.673 125.428C207.423 129.615 207.048 139.989 212.049 139.989C217.049 139.989 220.425 139.175 220.608 136.299C220.795 133.424 220.933 120.805 220.933 120.805L205.236 120.991Z" fill="#CBD5E0"/>
<path d="M228.324 114.272C228.324 114.272 221.493 114.054 220.919 120.802C220.344 127.551 220.594 136.297 220.594 136.297C220.594 136.297 219.597 139.875 214.346 140.048H233.806L233.777 119.52C233.777 119.52 233.075 114.802 228.327 114.27L228.324 114.272Z" fill="#CBD5E0"/>
<path d="M228.324 114.272C228.324 114.272 221.493 114.054 220.919 120.802C220.344 127.551 220.594 136.297 220.594 136.297C220.594 136.297 219.597 139.875 214.346 140.048H233.806L233.777 119.52C233.777 119.52 233.075 114.802 228.327 114.27L228.324 114.272Z" fill="url(#paint9_linear_9525_3844)"/>
<path d="M242.667 120.366H267.038C267.554 120.366 267.974 120.786 267.974 121.303C267.974 121.819 267.554 122.239 267.038 122.239H242.667C242.151 122.239 241.73 121.819 241.73 121.303C241.73 120.786 242.151 120.366 242.667 120.366Z" fill="url(#paint10_linear_9525_3844)"/>
<path d="M242.667 124.489H267.038C267.554 124.489 267.974 124.91 267.974 125.426C267.974 125.942 267.554 126.362 267.038 126.362H242.667C242.151 126.362 241.73 125.942 241.73 125.426C241.73 124.91 242.151 124.489 242.667 124.489Z" fill="url(#paint11_linear_9525_3844)"/>
<path d="M242.667 128.615H267.038C267.554 128.615 267.974 129.036 267.974 129.552C267.974 130.068 267.554 130.488 267.038 130.488H242.667C242.151 130.488 241.73 130.068 241.73 129.552C241.73 129.036 242.151 128.615 242.667 128.615Z" fill="url(#paint12_linear_9525_3844)"/>
<path d="M242.667 132.738H267.038C267.554 132.738 267.974 133.159 267.974 133.675C267.974 134.191 267.554 134.611 267.038 134.611H242.667C242.151 134.611 241.73 134.191 241.73 133.675C241.73 133.159 242.151 132.738 242.667 132.738Z" fill="url(#paint13_linear_9525_3844)"/>
<path d="M242.667 136.863H267.038C267.554 136.863 267.974 137.284 267.974 137.8C267.974 138.316 267.554 138.736 267.038 138.736H242.667C242.151 138.736 241.73 138.316 241.73 137.8C241.73 137.284 242.151 136.863 242.667 136.863Z" fill="url(#paint14_linear_9525_3844)"/>
<path d="M242.667 140.986H267.038C267.554 140.986 267.974 141.407 267.974 141.923C267.974 142.439 267.554 142.859 267.038 142.859H242.667C242.151 142.859 241.73 142.439 241.73 141.923C241.73 141.407 242.151 140.986 242.667 140.986Z" fill="url(#paint15_linear_9525_3844)"/>
<path d="M242.667 145.112H267.038C267.554 145.112 267.974 145.533 267.974 146.049C267.974 146.565 267.554 146.985 267.038 146.985H242.667C242.151 146.985 241.73 146.565 241.73 146.049C241.73 145.533 242.151 145.112 242.667 145.112Z" fill="url(#paint16_linear_9525_3844)"/>
<path d="M247.168 149.299H244.293V157.798H247.168V149.299Z" fill="url(#paint17_linear_9525_3844)"/>
<path d="M251.168 151.893H248.293V157.795H251.168V151.893Z" fill="url(#paint18_linear_9525_3844)"/>
<path d="M258.979 149.669H256.104V157.798H258.979V149.669Z" fill="url(#paint19_linear_9525_3844)"/>
<path d="M255.106 154.047H252.23V157.797H255.106V154.047Z" fill="url(#paint20_linear_9525_3844)"/>
<path d="M265.349 151.339H261.977V157.856H265.349V151.339Z" fill="url(#paint21_linear_9525_3844)"/>
<path d="M268.728 151.358H265.355V157.865H268.728V151.358Z" fill="url(#paint22_linear_9525_3844)"/>
<path d="M268.725 149.549H261.977V151.299H268.725V149.549Z" fill="url(#paint23_linear_9525_3844)"/>
<defs>
<filter id="filter0_d_9525_3844" x="26" y="25" width="452" height="18" filterUnits="userSpaceOnUse" color-interpolation-filters="sRGB">
<feFlood flood-opacity="0" result="BackgroundImageFix"/>
<feColorMatrix in="SourceAlpha" type="matrix" values="0 0 0 0 0 0 0 0 0 0 0 0 0 0 0 0 0 0 127 0" result="hardAlpha"/>
<feOffset dx="-6" dy="-5"/>
<feGaussianBlur stdDeviation="2"/>
<feComposite in2="hardAlpha" operator="out"/>
<feColorMatrix type="matrix" values="0 0 0 0 0.592157 0 0 0 0 0.580392 0 0 0 0 0.580392 0 0 0 0.25 0"/>
<feBlend mode="normal" in2="BackgroundImageFix" result="effect1_dropShadow_9525_3844"/>
<feBlend mode="normal" in="SourceGraphic" in2="effect1_dropShadow_9525_3844" result="shape"/>
</filter>
<filter id="filter1_d_9525_3844" x="18" y="32" width="17" height="181" filterUnits="userSpaceOnUse" color-interpolation-filters="sRGB">
<feFlood flood-opacity="0" result="BackgroundImageFix"/>
<feColorMatrix in="SourceAlpha" type="matrix" values="0 0 0 0 0 0 0 0 0 0 0 0 0 0 0 0 0 0 127 0" result="hardAlpha"/>
<feOffset dx="-6" dy="-4"/>
<feGaussianBlur stdDeviation="2"/>
<feComposite in2="hardAlpha" operator="out"/>
<feColorMatrix type="matrix" values="0 0 0 0 0.593099 0 0 0 0 0.580629 0 0 0 0 0.580629 0 0 0 0.25 0"/>
<feBlend mode="normal" in2="BackgroundImageFix" result="effect1_dropShadow_9525_3844"/>
<feBlend mode="normal" in="SourceGraphic" in2="effect1_dropShadow_9525_3844" result="shape"/>
</filter>
<linearGradient id="paint0_linear_9525_3844" x1="483" y1="124" x2="28" y2="124" gradientUnits="userSpaceOnUse">
<stop stop-color="#F6B881"/>
<stop offset="1" stop-color="#FFA250"/>
</linearGradient>
<linearGradient id="paint1_linear_9525_3844" x1="247.024" y1="87.4041" x2="239.379" y2="89.5268" gradientUnits="userSpaceOnUse">
<stop stop-opacity="0"/>
<stop offset="0.99"/>
</linearGradient>
<linearGradient id="paint2_linear_9525_3844" x1="249.266" y1="80.4829" x2="249.016" y2="75.256" gradientUnits="userSpaceOnUse">
<stop stop-opacity="0"/>
<stop offset="0.99"/>
</linearGradient>
<linearGradient id="paint3_linear_9525_3844" x1="191.391" y1="137.919" x2="234.701" y2="137.919" gradientUnits="userSpaceOnUse">
<stop stop-opacity="0"/>
<stop offset="0.99"/>
</linearGradient>
<linearGradient id="paint4_linear_9525_3844" x1="228.333" y1="143.099" x2="296.197" y2="143.958" gradientUnits="userSpaceOnUse">
<stop offset="0.02" stop-color="white" stop-opacity="0"/>
<stop offset="0.32" stop-color="white" stop-opacity="0.39"/>
<stop offset="0.68" stop-color="white" stop-opacity="0.68"/>
<stop offset="1" stop-color="white"/>
</linearGradient>
<linearGradient id="paint5_linear_9525_3844" x1="243.915" y1="161.003" x2="229.979" y2="191.239" gradientUnits="userSpaceOnUse">
<stop stop-opacity="0"/>
<stop offset="0.99"/>
</linearGradient>
<linearGradient id="paint6_linear_9525_3844" x1="266.703" y1="183.259" x2="223.752" y2="149.328" gradientUnits="userSpaceOnUse">
<stop stop-opacity="0"/>
<stop offset="0.99"/>
</linearGradient>
<linearGradient id="paint7_linear_9525_3844" x1="264.996" y1="181.783" x2="226.347" y2="151.254" gradientUnits="userSpaceOnUse">
<stop stop-opacity="0"/>
<stop offset="0.99"/>
</linearGradient>
<linearGradient id="paint8_linear_9525_3844" x1="268.772" y1="152.321" x2="257.605" y2="186.039" gradientUnits="userSpaceOnUse">
<stop stop-opacity="0"/>
<stop offset="0.99"/>
</linearGradient>
<linearGradient id="paint9_linear_9525_3844" x1="214.346" y1="127.163" x2="233.78" y2="127.163" gradientUnits="userSpaceOnUse">
<stop stop-opacity="0"/>
<stop offset="0.99"/>
</linearGradient>
<linearGradient id="paint10_linear_9525_3844" x1="255.443" y1="115.118" x2="251.431" y2="157.072" gradientUnits="userSpaceOnUse">
<stop offset="0.02" stop-color="white" stop-opacity="0"/>
<stop offset="0.32" stop-color="white" stop-opacity="0.39"/>
<stop offset="0.68" stop-color="white" stop-opacity="0.68"/>
<stop offset="1" stop-color="white"/>
</linearGradient>
<linearGradient id="paint11_linear_9525_3844" x1="255.834" y1="115.158" x2="251.822" y2="157.106" gradientUnits="userSpaceOnUse">
<stop offset="0.02" stop-color="white" stop-opacity="0"/>
<stop offset="0.32" stop-color="white" stop-opacity="0.39"/>
<stop offset="0.68" stop-color="white" stop-opacity="0.68"/>
<stop offset="1" stop-color="white"/>
</linearGradient>
<linearGradient id="paint12_linear_9525_3844" x1="256.225" y1="115.193" x2="252.214" y2="157.146" gradientUnits="userSpaceOnUse">
<stop offset="0.02" stop-color="white" stop-opacity="0"/>
<stop offset="0.32" stop-color="white" stop-opacity="0.39"/>
<stop offset="0.68" stop-color="white" stop-opacity="0.68"/>
<stop offset="1" stop-color="white"/>
</linearGradient>
<linearGradient id="paint13_linear_9525_3844" x1="256.616" y1="115.233" x2="252.605" y2="157.181" gradientUnits="userSpaceOnUse">
<stop offset="0.02" stop-color="white" stop-opacity="0"/>
<stop offset="0.32" stop-color="white" stop-opacity="0.39"/>
<stop offset="0.68" stop-color="white" stop-opacity="0.68"/>
<stop offset="1" stop-color="white"/>
</linearGradient>
<linearGradient id="paint14_linear_9525_3844" x1="257.004" y1="115.269" x2="252.996" y2="157.22" gradientUnits="userSpaceOnUse">
<stop offset="0.02" stop-color="white" stop-opacity="0"/>
<stop offset="0.32" stop-color="white" stop-opacity="0.39"/>
<stop offset="0.68" stop-color="white" stop-opacity="0.68"/>
<stop offset="1" stop-color="white"/>
</linearGradient>
<linearGradient id="paint15_linear_9525_3844" x1="257.395" y1="115.307" x2="253.387" y2="157.258" gradientUnits="userSpaceOnUse">
<stop offset="0.02" stop-color="white" stop-opacity="0"/>
<stop offset="0.32" stop-color="white" stop-opacity="0.39"/>
<stop offset="0.68" stop-color="white" stop-opacity="0.68"/>
<stop offset="1" stop-color="white"/>
</linearGradient>
<linearGradient id="paint16_linear_9525_3844" x1="257.784" y1="115.344" x2="253.778" y2="157.295" gradientUnits="userSpaceOnUse">
<stop offset="0.02" stop-color="white" stop-opacity="0"/>
<stop offset="0.32" stop-color="white" stop-opacity="0.39"/>
<stop offset="0.68" stop-color="white" stop-opacity="0.68"/>
<stop offset="1" stop-color="white"/>
</linearGradient>
<linearGradient id="paint17_linear_9525_3844" x1="246.158" y1="146.53" x2="245.684" y2="154.31" gradientUnits="userSpaceOnUse">
<stop offset="0.02" stop-color="white" stop-opacity="0"/>
<stop offset="0.32" stop-color="white" stop-opacity="0.39"/>
<stop offset="0.68" stop-color="white" stop-opacity="0.68"/>
<stop offset="1" stop-color="white"/>
</linearGradient>
<linearGradient id="paint18_linear_9525_3844" x1="250.227" y1="146.78" x2="249.748" y2="154.561" gradientUnits="userSpaceOnUse">
<stop offset="0.02" stop-color="white" stop-opacity="0"/>
<stop offset="0.32" stop-color="white" stop-opacity="0.39"/>
<stop offset="0.68" stop-color="white" stop-opacity="0.68"/>
<stop offset="1" stop-color="white"/>
</linearGradient>
<linearGradient id="paint19_linear_9525_3844" x1="257.936" y1="147.256" x2="257.463" y2="155.032" gradientUnits="userSpaceOnUse">
<stop offset="0.02" stop-color="white" stop-opacity="0"/>
<stop offset="0.32" stop-color="white" stop-opacity="0.39"/>
<stop offset="0.68" stop-color="white" stop-opacity="0.68"/>
<stop offset="1" stop-color="white"/>
</linearGradient>
<linearGradient id="paint20_linear_9525_3844" x1="254.215" y1="147.024" x2="253.736" y2="154.805" gradientUnits="userSpaceOnUse">
<stop offset="0.02" stop-color="white" stop-opacity="0"/>
<stop offset="0.32" stop-color="white" stop-opacity="0.39"/>
<stop offset="0.68" stop-color="white" stop-opacity="0.68"/>
<stop offset="1" stop-color="white"/>
</linearGradient>
<linearGradient id="paint21_linear_9525_3844" x1="263.618" y1="149.344" x2="263.711" y2="160.034" gradientUnits="userSpaceOnUse">
<stop offset="0.02" stop-color="white" stop-opacity="0"/>
<stop offset="0.32" stop-color="white" stop-opacity="0.39"/>
<stop offset="0.68" stop-color="white" stop-opacity="0.68"/>
<stop offset="1" stop-color="white"/>
</linearGradient>
<linearGradient id="paint22_linear_9525_3844" x1="267.031" y1="150.576" x2="267.079" y2="168.952" gradientUnits="userSpaceOnUse">
<stop offset="0.02" stop-color="white" stop-opacity="0"/>
<stop offset="0.32" stop-color="white" stop-opacity="0.39"/>
<stop offset="0.68" stop-color="white" stop-opacity="0.68"/>
<stop offset="1" stop-color="white"/>
</linearGradient>
<linearGradient id="paint23_linear_9525_3844" x1="265.174" y1="148.025" x2="265.602" y2="153.8" gradientUnits="userSpaceOnUse">
<stop offset="0.02" stop-color="white" stop-opacity="0"/>
<stop offset="0.32" stop-color="white" stop-opacity="0.39"/>
<stop offset="0.68" stop-color="white" stop-opacity="0.68"/>
<stop offset="1" stop-color="white"/>
</linearGradient>
</defs>
</svg>
