<svg width="483" height="213" viewBox="0 0 483 213" fill="none" xmlns="http://www.w3.org/2000/svg">
<path d="M0 30C0 13.4315 13.4315 0 30 0H453C469.569 0 483 13.4315 483 30V213H0V30Z" fill="#ECEEF0"/>
<g filter="url(#filter0_d_9528_4348)">
<path d="M36 38.5C36 36.0147 38.0147 34 40.5 34H473.5C475.985 34 478 36.0147 478 38.5V38.5C478 40.9853 475.985 43 473.5 43H40.5C38.0147 43 36 40.9853 36 38.5V38.5Z" fill="#CFCFCF" fill-opacity="0.7" shape-rendering="crispEdges"/>
</g>
<g filter="url(#filter1_d_9528_4348)">
<path d="M31.5 213C29.567 213 28 211.433 28 209.5L28 43.5C28 41.567 29.567 40 31.5 40V40C33.433 40 35 41.567 35 43.5L35 209.5C35 211.433 33.433 213 31.5 213V213Z" fill="#CFCFCF" fill-opacity="0.7" shape-rendering="crispEdges"/>
</g>
<path d="M28 39C28 36.7909 29.7909 35 32 35H479C481.209 35 483 36.7909 483 39V209C483 211.209 481.209 213 479 213H32C29.7909 213 28 211.209 28 209V39Z" fill="url(#paint0_linear_9528_4348)"/>
<path opacity="0.18" d="M253.793 77.4711L277.195 79.8278C282.377 80.3519 287.67 80.8892 292.395 83.1156C299.3 86.3502 304.413 93.3646 304.923 100.962C305.365 107.71 302.537 114.006 302.199 120.659C301.846 127.809 305.852 133.382 305.844 140.572C305.798 148.302 302.742 155.712 297.326 161.226C289.705 168.911 278.432 171.803 267.638 172.372C256.844 172.941 245.996 171.523 235.191 172.106C224.966 172.657 214.794 174.995 204.585 174.226C194.379 173.46 183.542 168.632 179.515 159.218C175.98 150.975 178.334 140.92 181.47 132.9C184 126.41 189.413 123.361 192.823 117.222C199.21 105.678 199.563 90.1486 210.573 81.4531C219.41 74.4733 231.88 75.258 243.089 76.3885L253.795 77.4711H253.793Z" fill="#F8FAFC"/>
<path d="M220.113 147.049L250.682 130.445L271.313 141.639L239.361 159.128L220.113 147.049Z" fill="#F8FAFC"/>
<path d="M220.113 157.16V147.05L250.682 140.557L271.313 141.639V151.75L239.361 169.234L220.113 157.16Z" fill="#F8FAFC"/>
<path d="M222.391 146.848L250.241 131.715L269.042 141.919L239.925 157.852L222.391 146.848Z" fill="url(#paint1_linear_9528_4348)"/>
<path d="M220.113 131.342L250.682 114.741L271.313 125.934L239.361 143.419L220.113 131.342Z" fill="#F8FAFC"/>
<path d="M271.318 125.935V136.043L239.36 153.529L223.714 143.714L222.512 142.956L220.115 141.453V131.342L250.687 124.847L271.318 125.935Z" fill="#F8FAFC"/>
<path d="M222.391 131.143L250.241 116.013L269.042 126.214L239.925 142.147L222.391 131.143Z" fill="url(#paint2_linear_9528_4348)"/>
<path d="M219.73 125.947V115.837L250.302 109.341L270.933 110.429V120.539L238.978 138.024L219.73 125.947Z" fill="#F8FAFC"/>
<path d="M219.73 115.837L250.302 99.2305L270.933 110.429L238.978 127.913L219.73 115.837Z" fill="#F8FAFC"/>
<path d="M222.004 115.638L249.859 100.505L268.658 110.709L239.541 126.642L222.004 115.638Z" fill="url(#paint3_linear_9528_4348)"/>
<path d="M238.979 127.914V169.234L271.313 151.75L240.449 159.129V151.917L271.319 136.043L240.628 143.062V136.303L270.933 120.54L238.979 127.914Z" fill="url(#paint4_linear_9528_4348)"/>
<path d="M234.732 88.3883L205.607 101.172V77.0115L234.732 64.2275V88.3883Z" fill="#F8FAFC"/>
<path d="M306.597 108.727L277.473 121.511V97.3474L306.597 84.5635V108.727Z" fill="#F8FAFC"/>
<path d="M255.132 90.6144L245.104 95.0141V86.6936L255.132 82.2939V90.6144Z" fill="#F8FAFC"/>
<path d="M183.586 150.515V125.883L183.714 125.827L213.136 112.913V137.545L213.008 137.601L183.586 150.515ZM184.012 126.189V149.866L212.708 137.268V113.57L184.012 126.186V126.189Z" fill="#F8FAFC"/>
<path d="M231.379 81.7677C231.355 82.47 231.123 83.1509 230.716 83.7228C230.325 84.3134 229.775 84.7789 229.128 85.0661L213.562 91.2639C212.312 91.764 211.293 91.0964 211.293 89.7743C211.304 89.0748 211.519 88.3938 211.913 87.8166C212.304 87.2287 212.854 86.7632 213.501 86.4786L214.03 86.2685C213.918 85.8801 213.863 85.4811 213.863 85.0768C213.908 83.6883 214.363 82.3476 215.174 81.2198C215.953 80.0494 217.06 79.1317 218.353 78.5784L219.675 78.0491C221.404 77.3628 222.901 77.799 223.649 79.0093C224.005 78.6715 224.42 78.4028 224.872 78.214L225.21 78.0783C226.697 77.4851 227.905 78.2778 227.905 79.8419V79.9855C227.905 80.2622 227.865 80.5388 227.798 80.8075L229.088 80.2941C230.347 79.7781 231.381 80.4457 231.381 81.7677H231.379Z" fill="white"/>
<path d="M232.047 137.556C232.047 138.425 230.621 139.245 229.924 139.447C229.634 139.505 229.349 139.596 229.078 139.713C228.807 139.846 228.637 140.123 228.637 140.423C228.669 140.678 228.879 140.881 228.935 141.131C228.964 141.346 228.935 141.567 228.855 141.769C228.591 142.612 227.535 143.136 227.267 143.974C225.809 143.831 225.149 143.95 223.692 143.711L222.5 142.953L224.319 139.604C224.554 139.13 224.841 138.683 225.179 138.274C225.575 137.867 226.027 137.516 226.517 137.228C227.783 136.422 229.102 135.696 230.461 135.061C230.291 135.143 232.047 137.314 232.047 137.556Z" fill="url(#paint5_linear_9528_4348)"/>
<path d="M231.197 133.613C231.349 134.09 231.484 134.654 231.197 135.055C231.061 135.228 230.878 135.358 230.668 135.428C230.173 135.667 229.585 135.606 229.149 135.273C228.923 135.031 228.766 134.733 228.689 134.411C228.316 133.246 228.05 132.049 227.893 130.836C227.811 130.586 227.946 130.32 228.197 130.235C228.843 129.895 229.854 129.615 230.218 130.379C230.654 131.352 230.87 132.568 231.194 133.613H231.197Z" fill="#FFAA71"/>
<path d="M229.246 134.169C229.113 134.15 228.977 134.164 228.849 134.204C228.762 134.254 228.682 134.321 228.618 134.403L227.219 135.991C226.947 136.297 226.657 136.715 226.849 137.076C226.987 137.279 227.208 137.409 227.453 137.433C228.134 137.491 228.815 137.353 229.419 137.037C229.852 136.85 230.278 136.64 230.693 136.425C231.007 136.286 231.281 136.074 231.488 135.802C231.805 135.313 231.906 134.145 231.334 133.781C231.046 133.597 230.794 133.73 230.538 133.855C230.139 134.063 229.695 134.172 229.243 134.169H229.246Z" fill="#F8FAFC"/>
<path d="M223.434 138.971C223.423 139.062 223.434 139.152 223.466 139.237C223.513 139.322 223.583 139.391 223.668 139.439C223.934 139.623 224.248 139.727 224.569 139.743C224.899 139.751 225.216 139.604 225.421 139.346C225.572 139.107 225.663 138.833 225.684 138.551C225.804 137.952 225.862 137.343 225.86 136.731C225.868 136.646 225.841 136.559 225.785 136.492C225.737 136.455 225.681 136.431 225.623 136.426C225.117 136.322 224.117 136.061 223.859 136.676C223.593 137.412 223.452 138.189 223.439 138.971H223.434Z" fill="#FFAA71"/>
<path d="M221.292 138.901C220.861 138.922 220.433 139.002 220.026 139.143C219.613 139.284 219.276 139.593 219.097 139.989C219.015 140.183 219.004 140.404 219.071 140.604C219.212 140.899 219.456 141.128 219.757 141.25C221.201 142.019 222.832 142.372 224.465 142.266C224.886 142.279 225.295 142.13 225.609 141.848C225.838 141.513 225.944 141.109 225.912 140.705L225.968 138.797C225.604 138.742 225.266 138.976 224.92 139.095C224.319 139.297 224.082 138.808 223.585 138.699C222.938 138.553 221.96 138.843 221.297 138.899L221.292 138.901Z" fill="#F8FAFC"/>
<path d="M229.246 134.169C229.113 134.15 228.977 134.164 228.849 134.204C228.762 134.254 228.682 134.321 228.618 134.403L227.219 135.991C226.947 136.297 226.657 136.715 226.849 137.076C226.987 137.279 227.208 137.409 227.453 137.433C228.134 137.491 228.815 137.353 229.419 137.037C229.852 136.85 230.278 136.64 230.693 136.425C231.007 136.286 231.281 136.074 231.488 135.802C231.805 135.313 231.906 134.145 231.334 133.781C231.046 133.597 230.794 133.73 230.538 133.855C230.139 134.063 229.695 134.172 229.243 134.169H229.246Z" fill="url(#paint6_linear_9528_4348)"/>
<path d="M221.292 138.901C220.861 138.922 220.433 139.002 220.026 139.143C219.613 139.284 219.276 139.593 219.097 139.989C219.015 140.183 219.004 140.404 219.071 140.604C219.212 140.899 219.456 141.128 219.757 141.25C221.201 142.019 222.832 142.372 224.465 142.266C224.886 142.279 225.295 142.13 225.609 141.848C225.838 141.513 225.944 141.109 225.912 140.705L225.968 138.797C225.604 138.742 225.266 138.976 224.92 139.095C224.319 139.297 224.082 138.808 223.585 138.699C222.938 138.553 221.96 138.843 221.297 138.899L221.292 138.901Z" fill="url(#paint7_linear_9528_4348)"/>
<path d="M244.449 118.212C245.322 118.138 246.202 118.151 247.072 118.255C247.186 118.257 247.298 118.292 247.394 118.353C247.503 118.457 247.567 118.601 247.572 118.75C247.694 119.941 246.777 120.949 245.752 121.574C243.026 123.264 239.587 123.208 236.573 124.304C236.288 124.381 236.033 124.546 235.847 124.777C235.727 125.024 235.666 125.296 235.671 125.572C235.535 127.16 234.655 128.592 234.36 130.158C234.064 131.725 234.384 133.361 234.142 134.925C233.152 133.872 231.471 133.704 230.471 132.664C229.545 131.706 229.362 130.281 229.223 128.951L228.851 125.32C228.808 125.094 228.822 124.857 228.885 124.636C229.018 124.362 229.239 124.139 229.508 124C233.966 121.173 239.177 118.67 244.449 118.212Z" fill="url(#paint8_linear_9528_4348)"/>
<path d="M226.469 117.848C226.057 117.931 225.676 118.125 225.365 118.409C225.051 118.851 224.908 119.394 224.969 119.936C224.977 123.793 225.703 127.613 227.113 131.204C227.171 131.638 227.57 131.943 228.007 131.885C228.092 131.874 228.172 131.848 228.249 131.81C229.092 131.576 229.924 131.302 230.744 130.983L229.635 123.66C229.584 123.455 229.597 123.24 229.669 123.04C229.752 122.902 229.866 122.788 230.002 122.703C231.257 121.782 232.587 120.963 233.976 120.255C235.08 119.691 236.359 119.064 236.657 117.848C236.779 117.438 236.697 116.994 236.433 116.656C236.258 116.489 236.05 116.353 235.824 116.26C235.09 115.898 234.159 115.433 233.313 115.521C232.638 115.587 232.377 115.981 231.81 116.271C230.249 117.053 228.166 117.351 226.464 117.848H226.469Z" fill="#231F20"/>
<path d="M234.017 106.232C233.472 107.729 233.222 109.317 232.727 110.836C232.62 111.238 232.432 111.613 232.174 111.937C231.836 112.265 231.429 112.509 230.982 112.653C230.346 112.9 229.7 113.113 229.04 113.297C228.604 113.419 228.075 113.618 228.027 114.068C228.019 114.217 228.048 114.369 228.117 114.502C228.46 115.116 229.101 115.507 229.806 115.534C230.5 115.552 231.189 115.441 231.841 115.201C232.432 115.079 232.969 114.781 233.387 114.347C233.634 113.988 233.804 113.584 233.887 113.156C234.557 110.791 235.483 108.503 236.648 106.338C236.996 105.766 237.27 105.149 237.462 104.505C237.733 103.388 237.736 100.731 236.576 101.726C235.624 102.505 234.427 105.101 234.017 106.234V106.232Z" fill="#FFAA71"/>
<path d="M238.455 117.704C237.771 117.441 237.109 117.13 236.468 116.776C234.023 115.43 236.024 114.765 236.84 113.145C237.417 111.993 237.186 110.618 236.88 109.368C236.348 107.176 235.64 104.907 236.154 102.71C236.215 102.353 236.351 102.016 236.55 101.718C236.699 101.534 236.869 101.369 237.058 101.226C237.574 100.784 238.167 100.438 238.806 100.204C240.04 99.8078 241.407 100.098 242.564 100.678C247.118 102.963 248.089 108.729 247.908 113.342C247.858 114.621 247.661 115.975 246.836 116.954C246.041 117.872 244.849 118.308 243.658 118.457C241.889 118.638 240.101 118.383 238.455 117.71V117.704Z" fill="white"/>
<path d="M239.136 103.792C239.136 103.92 239.186 104.042 239.279 104.13C239.364 104.18 239.463 104.202 239.561 104.188C240.79 104.13 241.74 103.087 241.684 101.858C241.679 101.755 241.668 101.653 241.649 101.552C241.548 101.167 241.431 100.786 241.293 100.411C241.077 99.6531 241.117 98.7833 240.633 98.1582C240.213 99.1131 239.734 100.044 239.199 100.938C238.925 101.3 238.83 101.765 238.933 102.204C239.005 102.749 239.072 103.26 239.141 103.789L239.136 103.792Z" fill="#FFAA71"/>
<path d="M238.896 101.805L239.08 103.037C239.08 103.037 241.173 102.005 240.899 100.082C240.625 98.1584 238.896 101.805 238.896 101.805Z" fill="url(#paint9_linear_9528_4348)"/>
<path d="M236.45 100.621C236.559 101.01 236.785 101.358 237.096 101.613C237.25 101.714 237.418 101.786 237.596 101.829C238.865 102.071 240.147 101.47 240.775 100.339C241.365 99.2007 241.426 97.8601 240.945 96.671C240.759 96.0326 240.33 95.4927 239.753 95.1655C239.099 94.9075 238.362 94.9952 237.787 95.3996C237.016 95.9369 236.42 96.687 236.074 97.5595C235.75 98.4532 236.146 99.7673 236.447 100.618L236.45 100.621Z" fill="#FFAA71"/>
<path d="M227.262 122.961C226.74 123.623 226.328 124.362 226.038 125.152C224.439 129.007 223.402 133.071 222.955 137.221C224.258 137.383 225.58 137.383 226.884 137.221C226.988 134.287 227.44 131.377 228.235 128.552C228.373 127.945 228.613 127.366 228.943 126.836C229.528 125.998 230.48 125.509 231.393 125.051C233.505 124.025 235.712 123.208 237.984 122.612C238.944 122.346 239.91 122.107 240.852 121.79C241.658 121.551 242.416 121.165 243.083 120.654C243.751 120.133 244.182 119.364 244.275 118.521C244.275 118.737 239.508 118.521 239.067 118.457C237.577 118.298 235.816 117.444 234.348 118.061C233.196 118.529 232.143 119.516 231.105 120.192C229.831 121.027 228.28 121.78 227.259 122.961H227.262Z" fill="#231F20"/>
<path d="M234.049 122.641L242.34 118.592L232.743 115.188L225.178 118.494L234.049 122.641Z" fill="#F8FAFC"/>
<path d="M245.56 105.301C245.584 105.439 245.6 105.58 245.616 105.697C245.842 107.775 245.616 109.82 245.56 111.887C245.512 113.166 245.342 115.606 243.972 116.257C241.437 117.505 236.548 117.053 236.548 117.053C235.979 116.962 235.396 116.986 234.835 117.119C234.532 117.21 234.25 117.374 233.952 117.489C232.88 117.885 231.68 117.691 230.552 117.489C230.355 117.465 230.166 117.404 229.996 117.305C229.56 117.01 229.579 116.313 229.906 115.898C230.273 115.515 230.749 115.252 231.268 115.148C232.696 114.68 234.226 114.621 235.686 114.978C235.872 115.039 236.061 115.092 236.255 115.132C236.481 115.167 236.71 115.183 236.939 115.18H238.67C240.657 115.199 242.535 115.207 242.839 112.876C242.95 112.015 242.974 111.145 242.905 110.278C242.785 108.69 242.376 107.16 242.461 105.593C242.466 105.096 242.591 104.609 242.823 104.17C243.062 103.729 243.514 103.441 244.014 103.412C244.541 103.452 245.009 103.766 245.246 104.239C245.414 104.572 245.523 104.931 245.563 105.301H245.56Z" fill="#FFAA71"/>
<path d="M222.062 111.038L232.631 116.417L234.048 122.641L225.177 118.494L222.062 111.038Z" fill="#F8FAFC"/>
<path d="M239.555 98.2302C239.823 98.6346 240.047 99.0681 240.217 99.5203C240.411 99.124 240.105 98.4484 240.526 98.2994C240.776 98.209 241.039 98.5016 241.015 98.7729C240.959 99.0389 240.8 99.273 240.571 99.4193C240.895 100.385 241.922 100.723 242.784 101.037C243.75 101.414 244.588 102.061 245.197 102.899C245.936 103.979 246.532 105.149 246.968 106.383C247.194 105.987 247.732 105.926 248.16 105.798C249.493 105.34 250.299 103.986 250.067 102.595C249.767 101.228 248.641 100.196 247.256 100.012C246.835 100.018 246.418 99.922 246.043 99.7305C245.574 99.4006 245.497 98.7543 245.292 98.2196C244.795 97.012 243.537 96.2964 242.244 96.4879C242.303 95.9825 242.26 95.4692 242.116 94.9771C241.85 94.3413 241.332 93.8466 240.685 93.6072C240.042 93.3757 239.363 93.2587 238.68 93.2614C238.028 93.2374 237.326 93.2614 236.818 93.6577C236.225 94.1312 236.084 94.9771 236.123 95.7352C235.727 95.7139 235.363 95.9533 235.224 96.3283C235.097 96.6954 235.123 97.0997 235.296 97.4482C235.4 97.6796 235.544 97.8924 235.724 98.0706C235.839 97.7169 236.004 97.3551 236.352 97.4322C236.701 97.5094 237.02 97.8286 237.358 97.9456C237.719 98.06 238.092 98.1345 238.47 98.1691C238.831 98.1531 239.196 98.1691 239.555 98.2249V98.2302Z" fill="#C14834"/>
<defs>
<filter id="filter0_d_9528_4348" x="26" y="25" width="452" height="18" filterUnits="userSpaceOnUse" color-interpolation-filters="sRGB">
<feFlood flood-opacity="0" result="BackgroundImageFix"/>
<feColorMatrix in="SourceAlpha" type="matrix" values="0 0 0 0 0 0 0 0 0 0 0 0 0 0 0 0 0 0 127 0" result="hardAlpha"/>
<feOffset dx="-6" dy="-5"/>
<feGaussianBlur stdDeviation="2"/>
<feComposite in2="hardAlpha" operator="out"/>
<feColorMatrix type="matrix" values="0 0 0 0 0.592157 0 0 0 0 0.580392 0 0 0 0 0.580392 0 0 0 0.25 0"/>
<feBlend mode="normal" in2="BackgroundImageFix" result="effect1_dropShadow_9528_4348"/>
<feBlend mode="normal" in="SourceGraphic" in2="effect1_dropShadow_9528_4348" result="shape"/>
</filter>
<filter id="filter1_d_9528_4348" x="18" y="32" width="17" height="181" filterUnits="userSpaceOnUse" color-interpolation-filters="sRGB">
<feFlood flood-opacity="0" result="BackgroundImageFix"/>
<feColorMatrix in="SourceAlpha" type="matrix" values="0 0 0 0 0 0 0 0 0 0 0 0 0 0 0 0 0 0 127 0" result="hardAlpha"/>
<feOffset dx="-6" dy="-4"/>
<feGaussianBlur stdDeviation="2"/>
<feComposite in2="hardAlpha" operator="out"/>
<feColorMatrix type="matrix" values="0 0 0 0 0.593099 0 0 0 0 0.580629 0 0 0 0 0.580629 0 0 0 0.25 0"/>
<feBlend mode="normal" in2="BackgroundImageFix" result="effect1_dropShadow_9528_4348"/>
<feBlend mode="normal" in="SourceGraphic" in2="effect1_dropShadow_9528_4348" result="shape"/>
</filter>
<linearGradient id="paint0_linear_9528_4348" x1="483" y1="124" x2="28" y2="124" gradientUnits="userSpaceOnUse">
<stop stop-color="#AC81F6"/>
<stop offset="1" stop-color="#DCC6FF"/>
</linearGradient>
<linearGradient id="paint1_linear_9528_4348" x1="224.71" y1="161.007" x2="283.116" y2="114.784" gradientUnits="userSpaceOnUse">
<stop stop-color="#231F20"/>
<stop offset="0.13" stop-color="#231F20" stop-opacity="0.69"/>
<stop offset="0.25" stop-color="#231F20" stop-opacity="0.32"/>
<stop offset="1" stop-color="#231F20" stop-opacity="0"/>
</linearGradient>
<linearGradient id="paint2_linear_9528_4348" x1="224.71" y1="145.302" x2="283.116" y2="99.0791" gradientUnits="userSpaceOnUse">
<stop stop-color="#231F20"/>
<stop offset="0.13" stop-color="#231F20" stop-opacity="0.69"/>
<stop offset="0.25" stop-color="#231F20" stop-opacity="0.32"/>
<stop offset="1" stop-color="#231F20" stop-opacity="0"/>
</linearGradient>
<linearGradient id="paint3_linear_9528_4348" x1="224.323" y1="129.797" x2="282.734" y2="83.574" gradientUnits="userSpaceOnUse">
<stop stop-color="#231F20"/>
<stop offset="0.13" stop-color="#231F20" stop-opacity="0.69"/>
<stop offset="0.25" stop-color="#231F20" stop-opacity="0.32"/>
<stop offset="1" stop-color="#231F20" stop-opacity="0"/>
</linearGradient>
<linearGradient id="paint4_linear_9528_4348" x1="343.764" y1="87.9604" x2="167.462" y2="191.16" gradientUnits="userSpaceOnUse">
<stop stop-color="#231F20"/>
<stop offset="0.13" stop-color="#231F20" stop-opacity="0.69"/>
<stop offset="0.25" stop-color="#231F20" stop-opacity="0.32"/>
<stop offset="1" stop-color="#231F20" stop-opacity="0"/>
</linearGradient>
<linearGradient id="paint5_linear_9528_4348" x1="218.757" y1="131.866" x2="240.849" y2="152.292" gradientUnits="userSpaceOnUse">
<stop stop-color="#231F20"/>
<stop offset="0.13" stop-color="#231F20" stop-opacity="0.69"/>
<stop offset="0.25" stop-color="#231F20" stop-opacity="0.32"/>
<stop offset="1" stop-color="#231F20" stop-opacity="0"/>
</linearGradient>
<linearGradient id="paint6_linear_9528_4348" x1="227.08" y1="134.488" x2="234.903" y2="138.369" gradientUnits="userSpaceOnUse">
<stop stop-color="#231F20"/>
<stop offset="0.13" stop-color="#231F20" stop-opacity="0.69"/>
<stop offset="0.25" stop-color="#231F20" stop-opacity="0.32"/>
<stop offset="1" stop-color="#231F20" stop-opacity="0"/>
</linearGradient>
<linearGradient id="paint7_linear_9528_4348" x1="220.709" y1="144.652" x2="225.25" y2="134.438" gradientUnits="userSpaceOnUse">
<stop stop-color="#231F20"/>
<stop offset="0.13" stop-color="#231F20" stop-opacity="0.69"/>
<stop offset="0.25" stop-color="#231F20" stop-opacity="0.32"/>
<stop offset="1" stop-color="#231F20" stop-opacity="0"/>
</linearGradient>
<linearGradient id="paint8_linear_9528_4348" x1="228.061" y1="110.466" x2="256.847" y2="150.361" gradientUnits="userSpaceOnUse">
<stop stop-color="#231F20"/>
<stop offset="0.13" stop-color="#231F20" stop-opacity="0.69"/>
<stop offset="0.25" stop-color="#231F20" stop-opacity="0.32"/>
<stop offset="1" stop-color="#231F20" stop-opacity="0"/>
</linearGradient>
<linearGradient id="paint9_linear_9528_4348" x1="238.521" y1="98.2754" x2="242.256" y2="106.426" gradientUnits="userSpaceOnUse">
<stop stop-color="#231F20"/>
<stop offset="0.13" stop-color="#231F20" stop-opacity="0.69"/>
<stop offset="0.25" stop-color="#231F20" stop-opacity="0.32"/>
<stop offset="1" stop-color="#231F20" stop-opacity="0"/>
</linearGradient>
</defs>
</svg>
