<svg width="719" height="517" viewBox="0 0 719 517" fill="none" xmlns="http://www.w3.org/2000/svg">
<path d="M0 4C0 1.79086 1.79086 0 4 0H715C717.209 0 719 1.79086 719 4V512.46C719 514.669 717.209 516.46 715 516.46H3.99998C1.79084 516.46 0 514.669 0 512.46V4Z" fill="url(#paint0_linear_9524_3730)"/>
<path opacity="0.18" d="M274.973 361.116C304.707 376.433 337.656 384.466 371.106 384.542C383.571 384.542 396.219 383.42 407.916 379.115C438.088 367.976 457.996 334.076 453.044 302.293C451.294 291.021 446.787 280.091 447.072 268.685C447.376 256.683 452.924 245.55 456.455 234.087C460.405 221.205 461.838 207.688 460.678 194.26C458.934 174.181 450.597 153.804 434.367 141.828C427.849 137.003 420.343 133.725 412.906 130.486L378.727 115.536C358.572 106.742 334.467 98.1389 315.72 109.627C298.735 120.037 293.587 142.963 278.01 155.364C258.673 170.789 226.205 167.917 213.576 189.175C203.045 206.914 213.684 230.448 206.9 249.925C204.637 256.411 200.56 262.066 196.877 267.867C184.983 286.684 172.423 327.653 202.234 337.772C211.078 340.771 221.615 338.501 230.796 340.561C246.753 344.144 260.638 353.711 274.966 361.103L274.973 361.116Z" fill="#CBD5E0"/>
<path d="M338.132 136.552C334.962 137.326 332.902 140.553 332.293 143.761C331.691 146.969 332.223 150.266 332.502 153.524C332.794 157.018 332.781 160.505 332.807 164.042C332.807 165.596 332.845 167.257 333.631 168.626C334.626 170.344 336.598 171.245 338.532 171.727C341.721 172.5 345.036 172.361 348.308 172.221C349.589 172.164 350.964 172.075 351.928 171.238C352.619 170.547 353.088 169.672 353.272 168.709C353.83 166.255 354.122 163.744 354.134 161.227L354.692 148.953C354.895 144.579 354.737 138.771 350.039 136.628C348.695 136.013 347.224 136.216 345.797 136.273C343.337 136.368 340.586 135.925 338.138 136.552H338.132Z" fill="#CBD5E0"/>
<path d="M337.745 165.691C336.775 166.464 337.745 169.133 339.298 169.564C340.243 169.818 334.645 169.926 334.055 169.139C333.396 168.201 332.984 167.117 332.863 165.976C332.724 162.508 333.104 158.995 332.965 155.496C332.819 153.968 332.933 152.421 333.301 150.931C333.992 148.661 335.792 146.905 336.756 144.73C337.821 145.992 337.682 147.831 337.58 149.492C337.434 151.971 337.523 154.456 337.853 156.916C337.916 157.67 338.1 158.406 338.404 159.103C339.375 161.094 342.278 161.595 342.868 163.757C343.61 166.534 339.349 166.185 337.751 165.697L337.745 165.691Z" fill="url(#paint1_linear_9524_3730)"/>
<path d="M342.835 137.679L343.425 139.163C343.672 139.784 344.021 140.482 344.674 140.621C345.01 140.659 345.352 140.602 345.669 140.469C346.424 140.241 347.058 139.734 347.451 139.049C347.641 138.554 347.717 138.028 347.667 137.496C347.603 135.619 347.413 128.664 344.661 129.013C342.455 129.317 342.214 136.113 342.842 137.679H342.835Z" fill="#FFB4A3"/>
<path d="M345.258 137.712C345.715 138.206 346.418 138.65 347.027 138.352C347.636 138.054 347.737 137.388 347.801 136.799C347.864 136.209 347.902 135.619 347.908 135.03C347.984 134.434 347.629 133.87 347.065 133.673C346.393 133.248 343.61 131.448 343.553 133.318C343.572 134.941 344.174 136.501 345.258 137.705V137.712Z" fill="url(#paint2_linear_9524_3730)"/>
<path d="M353.271 124.665C352.903 126.82 352.383 128.944 351.718 131.03C351.464 131.943 351.084 132.818 350.595 133.629C350.095 134.441 349.327 135.056 348.427 135.36C347.21 135.639 345.929 135.354 344.946 134.587C344.034 133.94 343.317 133.052 342.867 132.025C342.537 131.214 342.334 130.358 342.271 129.483C342.005 127.188 342.41 124.868 343.431 122.801C343.767 122.116 344.236 121.507 344.82 121.013C345.98 120.157 347.444 119.834 348.852 120.119C350.247 120.404 351.578 120.93 352.789 121.672C353.873 122.293 353.448 123.657 353.271 124.671V124.665Z" fill="#FFB4A3"/>
<path d="M353.074 118.901C353.467 119.225 353.822 119.599 354.127 120.011L355.756 122.027C356.01 122.28 356.181 122.604 356.25 122.959C356.263 123.269 356.181 123.574 356.01 123.834C355.458 124.734 354.507 125.311 353.461 125.387C352.275 125.355 351.128 125 350.126 124.366C349.815 124.804 349.27 125.013 348.744 124.886C348.224 124.804 347.742 124.563 347.191 124.493C346.259 124.398 345.352 124.816 344.819 125.584C344.674 125.799 344.414 126.078 344.217 125.907C344.141 125.837 344.097 125.742 344.09 125.634C344.008 125.203 343.78 124.664 343.317 124.69C343.025 124.734 342.797 124.969 342.765 125.26C342.746 125.546 342.791 125.831 342.892 126.097L343.273 127.327C343.285 127.378 343.285 127.428 343.273 127.473C343.273 127.606 343.051 127.6 342.911 127.612C342.6 127.612 342.41 127.961 342.315 128.253C342.258 128.563 342.131 128.855 341.941 129.109C341.909 129.147 341.865 129.166 341.814 129.178C341.764 129.178 341.713 129.153 341.675 129.115C341.218 128.639 340.977 127.999 341.009 127.34C340.933 126.395 340.876 125.438 340.838 124.487C340.756 123.739 340.838 122.978 341.06 122.261C341.307 121.703 341.637 121.184 342.03 120.708C342.379 120.182 342.797 119.706 343.273 119.294C344.014 118.787 344.87 118.476 345.77 118.388C347.077 118.153 348.402 118.045 349.733 118.071C350.906 117.995 352.072 118.28 353.074 118.895V118.901Z" fill="#3E3E54"/>
<path d="M358.54 145.028C359.542 148.129 359.51 151.489 359.453 154.767C359.459 155.977 359.377 157.182 359.187 158.38C359.035 159.388 358.641 160.346 358.046 161.176C357.443 162.013 356.511 162.552 355.484 162.66C355.066 162.692 354.647 162.603 354.28 162.406C353.341 161.855 353.202 160.587 353.164 159.496L352.714 146.734C352.644 144.787 349.087 139.354 349.429 137.433C349.804 135.347 354.476 139.031 355.592 140.134C356.949 141.51 357.957 143.19 358.527 145.035L358.54 145.028Z" fill="#CBD5E0"/>
<path d="M358.121 149.13C358.121 148.845 358.121 148.49 357.868 148.357C357.703 148.293 357.519 148.312 357.38 148.42C357.056 148.718 356.885 149.143 356.904 149.58C356.822 150.506 356.726 151.425 356.638 152.351C356.593 152.896 356.276 153.853 357.101 153.714C358.305 153.511 358.052 150.03 358.115 149.13H358.121Z" fill="#3E3E54"/>
<path d="M355.972 152.262C355.154 152.357 354.418 152.82 353.987 153.524C353.962 153.574 353.937 153.625 353.924 153.676C353.924 153.746 353.943 153.822 353.987 153.879C354.247 154.196 354.634 154.386 355.04 154.399C355.921 154.545 356.821 154.602 357.715 154.583C357.899 154.595 358.083 154.551 358.241 154.456C358.381 154.329 358.476 154.164 358.514 153.98C358.685 153.422 359.015 152.338 358.292 152.18C357.918 152.18 357.538 152.218 357.17 152.275C356.77 152.243 356.371 152.237 355.978 152.249L355.972 152.262Z" fill="#FFB4A3"/>
<path d="M327.303 147.92C325.984 149.625 324.596 151.603 324.932 153.727C325.211 154.976 325.87 156.111 326.815 156.973C329.769 160.004 333.871 161.544 337.84 163.002C338.005 163.091 338.195 163.117 338.385 163.085C338.544 163.034 338.677 162.939 338.778 162.806C340.065 161.297 339.133 158.932 337.732 157.493C336.331 156.06 334.473 155.058 333.567 153.29C333.465 153.131 333.415 152.941 333.427 152.757C333.491 152.541 333.624 152.358 333.801 152.224C336.008 150.215 338.037 147.774 338.601 144.845C338.962 142.936 337.878 136.698 334.835 138.435C333.37 139.265 332.197 141.58 331.183 142.898L327.309 147.913L327.303 147.92Z" fill="#CBD5E0"/>
<path d="M333.402 172.114L337.466 217.349L332.166 220.26L342.247 219.746L343.439 181.757L347.547 181.579L350.806 220.101L361.248 220.786L355.763 216.855L356.049 169.565L334.658 169.508C333.402 169.52 333.288 170.839 333.402 172.114Z" fill="#3E3E54"/>
<path d="M346.692 154.488C347.002 153.562 347.966 153.017 348.923 153.232C352.822 153.232 356.715 153.391 360.614 153.708C361.121 153.689 361.616 153.86 361.996 154.196C362.326 154.773 362.345 155.477 362.034 156.066C360.361 160.701 358.37 165.215 356.075 169.571C355.999 169.748 355.897 169.907 355.764 170.046C355.428 170.306 355.003 170.433 354.579 170.395C349.995 170.566 345.411 170.452 340.84 170.053C340.574 170.053 340.257 169.976 340.149 169.729C339.895 169.146 341.157 167.402 341.404 166.749C341.918 165.399 342.399 164.036 342.957 162.692C344.048 159.909 345.316 157.163 346.692 154.488Z" fill="white"/>
<path d="M341.548 158.963C342.17 158.83 342.981 158.83 343.228 159.413C343.374 159.762 343.266 160.25 343.583 160.459C343.704 160.529 343.85 160.554 343.989 160.541C344.484 160.541 344.972 160.427 345.46 160.446C345.961 160.427 346.436 160.662 346.722 161.074C346.937 161.581 346.88 162.164 346.582 162.627C346.354 163.084 346.056 163.509 345.707 163.883C345.435 164.187 345.105 164.428 344.737 164.605C344.395 164.745 344.033 164.827 343.666 164.84C342.119 164.967 340.572 164.637 339.215 163.889C338.423 163.521 337.795 162.875 337.453 162.076C336.597 159.635 339.995 159.28 341.536 158.969L341.548 158.963Z" fill="#FFB4A3"/>
<path d="M208.066 317.248C208.066 317.248 228.849 311.218 226.611 291.558C224.373 271.898 229.369 235.741 241.06 236.514C252.751 237.288 311.288 236.514 311.288 236.514V281.268H272.861C272.861 281.268 275.543 296.231 268.613 306.736C261.684 317.241 258.114 315.675 258.114 315.675L208.066 317.248Z" fill="#CBD5E0"/>
<path d="M208.066 317.248C208.066 317.248 228.849 311.218 226.611 291.558C224.373 271.898 229.369 235.741 241.06 236.514C252.751 237.288 311.288 236.514 311.288 236.514V281.268H272.861C272.861 281.268 275.543 296.231 268.613 306.736C261.684 317.241 258.114 315.675 258.114 315.675L208.066 317.248Z" fill="url(#paint3_linear_9524_3730)"/>
<path d="M296.098 220.506H389.011C389.011 220.506 399.282 222.966 400.397 236.591V358.351L331.361 359.466C330.702 359.517 330.036 359.53 329.377 359.504C317.977 359.042 308.987 349.646 309.025 338.24V233.015C309.025 233.015 307.713 222.066 296.092 220.5L296.098 220.506Z" fill="#CBD5E0"/>
<path d="M296.098 220.506H389.011C389.011 220.506 399.282 222.966 400.397 236.591V358.351L331.361 359.466C330.556 359.53 329.745 359.53 328.939 359.466C317.724 358.801 308.981 349.487 309.025 338.246V233.015C309.025 233.015 307.713 222.066 296.092 220.5L296.098 220.506Z" fill="url(#paint4_linear_9524_3730)"/>
<path d="M309.709 343.039C310.198 345.854 313.919 355.732 323.245 358.173C327.538 359.295 332.546 360.392 336.654 358.705C337.884 358.242 339.007 357.526 339.939 356.607C342.164 354.109 342.215 350.349 340.053 347.794C339.14 346.881 338.094 346.12 336.952 345.524C333.649 343.597 329.617 340.433 325.642 340.338C321.667 340.243 313.469 341.739 309.703 343.045L309.709 343.039Z" fill="url(#paint5_linear_9524_3730)"/>
<path d="M335.646 329.611C335.646 329.611 325.007 328.558 324.899 342.982C324.792 357.412 334.447 354.609 334.447 354.609L336.495 354.495C336.495 354.495 349.346 345.626 342.41 335.843C342.41 335.818 339.564 330.105 335.639 329.611H335.646Z" fill="url(#paint6_linear_9524_3730)"/>
<path d="M336.781 331.659C336.781 331.659 327.214 330.689 327.112 343.692C327.011 356.696 335.709 354.141 335.709 354.141L337.548 354.039C337.548 354.039 349.112 346.057 342.873 337.244C342.873 337.206 340.306 332.071 336.781 331.653V331.659Z" fill="url(#paint7_linear_9524_3730)"/>
<path d="M335.646 329.612H426.226C426.226 329.612 432.851 331.989 432.185 342.945C431.52 353.9 419.898 359.473 419.898 359.473H331.398C331.398 359.473 340.338 354.224 340.452 343.966C340.566 333.707 335.646 329.605 335.646 329.605V329.612Z" fill="#CBD5E0"/>
<path d="M335.646 329.612H426.226C426.226 329.612 432.851 331.989 432.185 342.945C431.52 353.9 419.898 359.473 419.898 359.473H331.398C331.398 359.473 340.338 354.224 340.452 343.966C340.566 333.707 335.646 329.605 335.646 329.605V329.612Z" fill="url(#paint8_linear_9524_3730)"/>
<path d="M241.066 236.522C241.066 236.522 247.47 237.118 246.874 247.097C246.278 257.076 245.384 281.802 257.303 281.802C269.222 281.802 277.268 279.862 277.705 273.009C278.149 266.155 278.479 236.078 278.479 236.078L241.066 236.522Z" fill="#CBD5E0"/>
<path d="M296.098 220.506C296.098 220.506 279.817 219.986 278.447 236.071C277.078 252.156 277.674 273.002 277.674 273.002C277.674 273.002 275.296 281.529 262.781 281.941H309.165L309.095 233.015C309.095 233.015 307.421 221.768 296.104 220.5L296.098 220.506Z" fill="#CBD5E0"/>
<path d="M296.098 220.506C296.098 220.506 279.817 219.986 278.447 236.071C277.078 252.156 277.674 273.002 277.674 273.002C277.674 273.002 275.296 281.529 262.781 281.941H309.165L309.095 233.015C309.095 233.015 307.421 221.768 296.104 220.5L296.098 220.506Z" fill="url(#paint9_linear_9524_3730)"/>
<path d="M330.282 235.031H388.37C389.6 235.031 390.601 236.033 390.601 237.263C390.601 238.493 389.6 239.495 388.37 239.495H330.282C329.053 239.495 328.051 238.493 328.051 237.263C328.051 236.033 329.053 235.031 330.282 235.031Z" fill="url(#paint10_linear_9524_3730)"/>
<path d="M330.282 244.857H388.37C389.6 244.857 390.601 245.859 390.601 247.089C390.601 248.319 389.6 249.321 388.37 249.321H330.282C329.053 249.321 328.051 248.319 328.051 247.089C328.051 245.859 329.053 244.857 330.282 244.857Z" fill="url(#paint11_linear_9524_3730)"/>
<path d="M330.282 254.691H388.37C389.6 254.691 390.601 255.693 390.601 256.923C390.601 258.153 389.6 259.155 388.37 259.155H330.282C329.053 259.155 328.051 258.153 328.051 256.923C328.051 255.693 329.053 254.691 330.282 254.691Z" fill="url(#paint12_linear_9524_3730)"/>
<path d="M330.282 264.52H388.37C389.6 264.52 390.601 265.521 390.601 266.751C390.601 267.981 389.6 268.983 388.37 268.983H330.282C329.053 268.983 328.051 267.981 328.051 266.751C328.051 265.521 329.053 264.52 330.282 264.52Z" fill="url(#paint13_linear_9524_3730)"/>
<path d="M330.282 274.352H388.37C389.6 274.352 390.601 275.353 390.601 276.583C390.601 277.813 389.6 278.815 388.37 278.815H330.282C329.053 278.815 328.051 277.813 328.051 276.583C328.051 275.353 329.053 274.352 330.282 274.352Z" fill="url(#paint14_linear_9524_3730)"/>
<path d="M330.282 284.18H388.37C389.6 284.18 390.601 285.181 390.601 286.411C390.601 287.641 389.6 288.643 388.37 288.643H330.282C329.053 288.643 328.051 287.641 328.051 286.411C328.051 285.181 329.053 284.18 330.282 284.18Z" fill="url(#paint15_linear_9524_3730)"/>
<path d="M330.282 294.012H388.37C389.6 294.012 390.601 295.013 390.601 296.243C390.601 297.473 389.6 298.475 388.37 298.475H330.282C329.053 298.475 328.051 297.473 328.051 296.243C328.051 295.013 329.053 294.012 330.282 294.012Z" fill="url(#paint16_linear_9524_3730)"/>
<path d="M341.01 303.992H334.156V324.248H341.01V303.992Z" fill="url(#paint17_linear_9524_3730)"/>
<path d="M350.545 310.174H343.691V324.242H350.545V310.174Z" fill="url(#paint18_linear_9524_3730)"/>
<path d="M369.16 304.873H362.307V324.248H369.16V304.873Z" fill="url(#paint19_linear_9524_3730)"/>
<path d="M359.928 315.309H353.074V324.248H359.928V315.309Z" fill="url(#paint20_linear_9524_3730)"/>
<path d="M384.344 308.854H376.305V324.387H384.344V308.854Z" fill="url(#paint21_linear_9524_3730)"/>
<path d="M392.395 308.898H384.355V324.406H392.395V308.898Z" fill="url(#paint22_linear_9524_3730)"/>
<path d="M392.389 304.588H376.305V308.76H392.389V304.588Z" fill="url(#paint23_linear_9524_3730)"/>
<defs>
<linearGradient id="paint0_linear_9524_3730" x1="719" y1="258.23" x2="0" y2="258.23" gradientUnits="userSpaceOnUse">
<stop stop-color="#F6B881"/>
<stop offset="1" stop-color="#FFA250"/>
</linearGradient>
<linearGradient id="paint1_linear_9524_3730" x1="340.668" y1="156.466" x2="322.447" y2="161.525" gradientUnits="userSpaceOnUse">
<stop stop-opacity="0"/>
<stop offset="0.99"/>
</linearGradient>
<linearGradient id="paint2_linear_9524_3730" x1="346.013" y1="139.969" x2="345.417" y2="127.511" gradientUnits="userSpaceOnUse">
<stop stop-opacity="0"/>
<stop offset="0.99"/>
</linearGradient>
<linearGradient id="paint3_linear_9524_3730" x1="208.066" y1="276.868" x2="311.294" y2="276.868" gradientUnits="userSpaceOnUse">
<stop stop-opacity="0"/>
<stop offset="0.99"/>
</linearGradient>
<linearGradient id="paint4_linear_9524_3730" x1="296.117" y1="289.213" x2="457.87" y2="291.261" gradientUnits="userSpaceOnUse">
<stop offset="0.02" stop-color="white" stop-opacity="0"/>
<stop offset="0.32" stop-color="white" stop-opacity="0.39"/>
<stop offset="0.68" stop-color="white" stop-opacity="0.68"/>
<stop offset="1" stop-color="white"/>
</linearGradient>
<linearGradient id="paint5_linear_9524_3730" x1="333.256" y1="331.887" x2="300.041" y2="403.954" gradientUnits="userSpaceOnUse">
<stop stop-opacity="0"/>
<stop offset="0.99"/>
</linearGradient>
<linearGradient id="paint6_linear_9524_3730" x1="387.57" y1="384.934" x2="285.198" y2="304.061" gradientUnits="userSpaceOnUse">
<stop stop-opacity="0"/>
<stop offset="0.99"/>
</linearGradient>
<linearGradient id="paint7_linear_9524_3730" x1="383.5" y1="381.415" x2="291.38" y2="308.651" gradientUnits="userSpaceOnUse">
<stop stop-opacity="0"/>
<stop offset="0.99"/>
</linearGradient>
<linearGradient id="paint8_linear_9524_3730" x1="392.503" y1="311.194" x2="365.888" y2="391.56" gradientUnits="userSpaceOnUse">
<stop stop-opacity="0"/>
<stop offset="0.99"/>
</linearGradient>
<linearGradient id="paint9_linear_9524_3730" x1="262.781" y1="251.23" x2="309.101" y2="251.23" gradientUnits="userSpaceOnUse">
<stop stop-opacity="0"/>
<stop offset="0.99"/>
</linearGradient>
<linearGradient id="paint10_linear_9524_3730" x1="360.733" y1="222.522" x2="351.173" y2="322.517" gradientUnits="userSpaceOnUse">
<stop offset="0.02" stop-color="white" stop-opacity="0"/>
<stop offset="0.32" stop-color="white" stop-opacity="0.39"/>
<stop offset="0.68" stop-color="white" stop-opacity="0.68"/>
<stop offset="1" stop-color="white"/>
</linearGradient>
<linearGradient id="paint11_linear_9524_3730" x1="361.665" y1="222.617" x2="352.105" y2="322.599" gradientUnits="userSpaceOnUse">
<stop offset="0.02" stop-color="white" stop-opacity="0"/>
<stop offset="0.32" stop-color="white" stop-opacity="0.39"/>
<stop offset="0.68" stop-color="white" stop-opacity="0.68"/>
<stop offset="1" stop-color="white"/>
</linearGradient>
<linearGradient id="paint12_linear_9524_3730" x1="362.597" y1="222.7" x2="353.037" y2="322.694" gradientUnits="userSpaceOnUse">
<stop offset="0.02" stop-color="white" stop-opacity="0"/>
<stop offset="0.32" stop-color="white" stop-opacity="0.39"/>
<stop offset="0.68" stop-color="white" stop-opacity="0.68"/>
<stop offset="1" stop-color="white"/>
</linearGradient>
<linearGradient id="paint13_linear_9524_3730" x1="363.529" y1="222.796" x2="353.969" y2="322.778" gradientUnits="userSpaceOnUse">
<stop offset="0.02" stop-color="white" stop-opacity="0"/>
<stop offset="0.32" stop-color="white" stop-opacity="0.39"/>
<stop offset="0.68" stop-color="white" stop-opacity="0.68"/>
<stop offset="1" stop-color="white"/>
</linearGradient>
<linearGradient id="paint14_linear_9524_3730" x1="364.455" y1="222.883" x2="354.901" y2="322.872" gradientUnits="userSpaceOnUse">
<stop offset="0.02" stop-color="white" stop-opacity="0"/>
<stop offset="0.32" stop-color="white" stop-opacity="0.39"/>
<stop offset="0.68" stop-color="white" stop-opacity="0.68"/>
<stop offset="1" stop-color="white"/>
</linearGradient>
<linearGradient id="paint15_linear_9524_3730" x1="365.387" y1="222.973" x2="355.833" y2="322.962" gradientUnits="userSpaceOnUse">
<stop offset="0.02" stop-color="white" stop-opacity="0"/>
<stop offset="0.32" stop-color="white" stop-opacity="0.39"/>
<stop offset="0.68" stop-color="white" stop-opacity="0.68"/>
<stop offset="1" stop-color="white"/>
</linearGradient>
<linearGradient id="paint16_linear_9524_3730" x1="366.313" y1="223.061" x2="356.765" y2="323.049" gradientUnits="userSpaceOnUse">
<stop offset="0.02" stop-color="white" stop-opacity="0"/>
<stop offset="0.32" stop-color="white" stop-opacity="0.39"/>
<stop offset="0.68" stop-color="white" stop-opacity="0.68"/>
<stop offset="1" stop-color="white"/>
</linearGradient>
<linearGradient id="paint17_linear_9524_3730" x1="338.601" y1="297.392" x2="337.472" y2="315.937" gradientUnits="userSpaceOnUse">
<stop offset="0.02" stop-color="white" stop-opacity="0"/>
<stop offset="0.32" stop-color="white" stop-opacity="0.39"/>
<stop offset="0.68" stop-color="white" stop-opacity="0.68"/>
<stop offset="1" stop-color="white"/>
</linearGradient>
<linearGradient id="paint18_linear_9524_3730" x1="348.301" y1="297.988" x2="347.159" y2="316.533" gradientUnits="userSpaceOnUse">
<stop offset="0.02" stop-color="white" stop-opacity="0"/>
<stop offset="0.32" stop-color="white" stop-opacity="0.39"/>
<stop offset="0.68" stop-color="white" stop-opacity="0.68"/>
<stop offset="1" stop-color="white"/>
</linearGradient>
<linearGradient id="paint19_linear_9524_3730" x1="366.675" y1="299.123" x2="365.546" y2="317.654" gradientUnits="userSpaceOnUse">
<stop offset="0.02" stop-color="white" stop-opacity="0"/>
<stop offset="0.32" stop-color="white" stop-opacity="0.39"/>
<stop offset="0.68" stop-color="white" stop-opacity="0.68"/>
<stop offset="1" stop-color="white"/>
</linearGradient>
<linearGradient id="paint20_linear_9524_3730" x1="357.804" y1="298.571" x2="356.663" y2="317.115" gradientUnits="userSpaceOnUse">
<stop offset="0.02" stop-color="white" stop-opacity="0"/>
<stop offset="0.32" stop-color="white" stop-opacity="0.39"/>
<stop offset="0.68" stop-color="white" stop-opacity="0.68"/>
<stop offset="1" stop-color="white"/>
</linearGradient>
<linearGradient id="paint21_linear_9524_3730" x1="380.216" y1="304.099" x2="380.438" y2="329.579" gradientUnits="userSpaceOnUse">
<stop offset="0.02" stop-color="white" stop-opacity="0"/>
<stop offset="0.32" stop-color="white" stop-opacity="0.39"/>
<stop offset="0.68" stop-color="white" stop-opacity="0.68"/>
<stop offset="1" stop-color="white"/>
</linearGradient>
<linearGradient id="paint22_linear_9524_3730" x1="388.35" y1="307.034" x2="388.464" y2="350.831" gradientUnits="userSpaceOnUse">
<stop offset="0.02" stop-color="white" stop-opacity="0"/>
<stop offset="0.32" stop-color="white" stop-opacity="0.39"/>
<stop offset="0.68" stop-color="white" stop-opacity="0.68"/>
<stop offset="1" stop-color="white"/>
</linearGradient>
<linearGradient id="paint23_linear_9524_3730" x1="383.925" y1="300.955" x2="384.946" y2="314.719" gradientUnits="userSpaceOnUse">
<stop offset="0.02" stop-color="white" stop-opacity="0"/>
<stop offset="0.32" stop-color="white" stop-opacity="0.39"/>
<stop offset="0.68" stop-color="white" stop-opacity="0.68"/>
<stop offset="1" stop-color="white"/>
</linearGradient>
</defs>
</svg>
