<svg width="483" height="213" viewBox="0 0 483 213" fill="none" xmlns="http://www.w3.org/2000/svg">
<path d="M0 30C0 13.4315 13.4315 0 30 0H453C469.569 0 483 13.4315 483 30V213H0V30Z" fill="#ECEEF0"/>
<g filter="url(#filter0_d_9513_2251)">
<path d="M36 38.5C36 36.0147 38.0147 34 40.5 34H473.5C475.985 34 478 36.0147 478 38.5V38.5C478 40.9853 475.985 43 473.5 43H40.5C38.0147 43 36 40.9853 36 38.5V38.5Z" fill="#CFCFCF" fill-opacity="0.7" shape-rendering="crispEdges"/>
</g>
<g filter="url(#filter1_d_9513_2251)">
<path d="M31.5 213C29.567 213 28 211.433 28 209.5L28 43.5C28 41.567 29.567 40 31.5 40V40C33.433 40 35 41.567 35 43.5L35 209.5C35 211.433 33.433 213 31.5 213V213Z" fill="#CFCFCF" fill-opacity="0.7" shape-rendering="crispEdges"/>
</g>
<path d="M28 39C28 36.7909 29.7909 35 32 35H479C481.209 35 483 36.7909 483 39V209C483 211.209 481.209 213 479 213H32C29.7909 213 28 211.209 28 209V39Z" fill="url(#paint0_linear_9513_2251)"/>
<path opacity="0.18" d="M299.547 117.499C299.351 121.029 298.348 123.995 296.669 126.984C294.919 130.11 292.432 133.257 289.362 137.092C279.536 149.384 262.129 171.159 234.811 170.829C233.119 170.808 204.945 170.031 190.942 148.006C173.477 120.55 190.315 79.3226 205.421 76.5588C212.198 75.3166 214.478 82.5917 227.299 84.4776C242.328 86.6881 247.031 77.8463 260.185 78.3197C276.783 78.9129 294.547 93.8994 298.696 109.577C299.393 112.158 299.68 114.831 299.547 117.499Z" fill="#F8FAFC"/>
<path d="M212.695 113.312L198.182 119.387L217.419 166.634L260.614 153.135L237.566 107.912L212.695 113.312Z" fill="#F8FAFC"/>
<path d="M212.919 111.964L211.121 114.214L207.969 115.563C207.969 115.563 214.382 150.55 223.381 158.873L236.093 153.473L212.919 111.964Z" fill="url(#paint1_linear_9513_2251)"/>
<path d="M197.398 113.488L212.714 109.836C212.714 109.836 210.493 98.3128 201.787 100.659C193.081 103.005 197.395 113.488 197.395 113.488H197.398Z" fill="url(#paint2_linear_9513_2251)"/>
<path d="M197.398 113.488L212.714 109.836C212.714 109.836 210.493 98.3128 201.787 100.659C193.081 103.005 197.395 113.488 197.395 113.488H197.398Z" fill="url(#paint3_linear_9513_2251)"/>
<path d="M201.787 100.658C211.047 99.355 211.137 109.405 211.137 109.405C213.363 141.25 227.148 158.247 227.148 158.247L267.327 146.309C267.327 146.309 259.203 127.495 256.924 110.075C255.905 102.297 253.654 97.1472 251.473 93.8302C249.202 90.3669 244.959 88.7656 240.966 89.8642L201.787 100.658Z" fill="url(#paint4_linear_9513_2251)"/>
<path opacity="0.51" d="M244.57 96.2192L217.108 103.529C216.762 103.601 216.424 103.377 216.355 103.031C216.355 103.023 216.352 103.015 216.35 103.01L216.291 102.76C216.193 102.409 216.387 102.042 216.733 101.925L244.197 94.6152C244.54 94.546 244.876 94.7668 244.947 95.1126C244.947 95.1233 244.953 95.1366 244.953 95.1472L245.011 95.3972C245.102 95.7457 244.91 96.1048 244.57 96.2192Z" fill="#F8FAFC"/>
<path opacity="0.51" d="M245.78 101.419L218.315 108.726C217.972 108.798 217.634 108.577 217.565 108.231C217.565 108.223 217.562 108.215 217.56 108.21L217.501 107.96C217.4 107.609 217.594 107.239 217.943 107.122L245.405 99.8152C245.751 99.7434 246.088 99.9668 246.157 100.313C246.157 100.321 246.16 100.329 246.163 100.334L246.221 100.584C246.317 100.935 246.126 101.302 245.78 101.419Z" fill="#F8FAFC"/>
<path opacity="0.51" d="M246.988 106.616L219.518 113.926C219.175 113.998 218.837 113.774 218.768 113.431C218.768 113.423 218.765 113.415 218.763 113.407L218.704 113.157C218.603 112.806 218.8 112.436 219.146 112.322L246.616 105.02C246.961 104.951 247.299 105.175 247.368 105.52C247.368 105.531 247.374 105.542 247.374 105.552L247.43 105.8C247.517 106.146 247.326 106.499 246.988 106.616Z" fill="#F8FAFC"/>
<path opacity="0.51" d="M248.2 111.82L220.738 119.119C220.392 119.191 220.054 118.967 219.985 118.621C219.985 118.613 219.982 118.606 219.98 118.6L219.921 118.35C219.825 117.999 220.017 117.632 220.363 117.515L247.827 110.208C248.17 110.136 248.508 110.357 248.577 110.703C248.577 110.711 248.58 110.719 248.583 110.724L248.641 110.974C248.745 111.328 248.551 111.703 248.2 111.82Z" fill="#F8FAFC"/>
<path opacity="0.51" d="M249.409 117.018L221.945 124.325C221.602 124.397 221.267 124.179 221.195 123.835C221.195 123.828 221.192 123.817 221.19 123.809L221.131 123.559C221.033 123.208 221.227 122.838 221.573 122.721L249.045 115.414C249.391 115.345 249.729 115.568 249.798 115.914C249.798 115.925 249.803 115.935 249.803 115.946L249.862 116.196C249.952 116.547 249.753 116.906 249.409 117.018Z" fill="#F8FAFC"/>
<path opacity="0.51" d="M245.501 123.58L223.003 129.565C222.748 129.618 222.495 129.453 222.442 129.197C222.442 129.192 222.442 129.184 222.439 129.179L222.418 129.094C222.343 128.83 222.49 128.556 222.748 128.469L245.246 122.484C245.501 122.43 245.754 122.595 245.807 122.851C245.807 122.856 245.807 122.864 245.81 122.869L245.831 122.954C245.906 123.218 245.759 123.492 245.501 123.58Z" fill="#F8FAFC"/>
<path opacity="0.51" d="M235.425 132.868C231.076 134.014 228.475 138.951 229.626 143.872C230.778 148.793 235.212 151.836 239.569 150.679C243.926 149.522 246.525 144.593 245.382 139.678C244.238 134.762 239.78 131.708 235.425 132.868ZM239.285 149.456C235.532 150.456 231.685 147.828 230.69 143.59C229.695 139.353 231.949 135.094 235.702 134.097C239.455 133.099 243.304 135.725 244.291 139.97C245.278 144.216 243.043 148.456 239.285 149.456Z" fill="#F8FAFC"/>
<path d="M232.834 142.756L237.101 145.573L241.75 137.462L240.561 136.648L236.465 143.086L233.773 141.242L232.834 142.756Z" fill="#F8FAFC"/>
<path d="M247.259 116.102C244.399 118.172 245.875 125.091 250.554 131.554C255.233 138.018 261.341 141.58 264.2 139.51C264.719 139.135 268.19 136.744 268.456 136.082C269.539 133.089 264.748 129.352 260.918 124.061C256.912 118.526 254.446 112.94 251.281 113.373C250.738 113.448 247.671 115.805 247.259 116.102Z" fill="#F8FAFC"/>
<path d="M247.259 116.102C244.399 118.172 245.875 125.091 250.554 131.554C255.233 138.018 261.341 141.58 264.2 139.51C264.719 139.135 268.19 136.744 268.456 136.082C269.539 133.089 264.748 129.352 260.918 124.061C256.912 118.526 254.446 112.94 251.281 113.373C250.738 113.448 247.671 115.805 247.259 116.102Z" fill="url(#paint5_linear_9513_2251)"/>
<path d="M251.132 123.734C251.976 125.575 253.002 127.325 254.194 128.961C258.873 135.425 264.983 138.989 267.843 136.92C270.702 134.85 269.226 127.931 264.549 121.468C263.587 120.135 262.52 118.879 261.357 117.717C257.367 113.727 253.133 111.889 250.89 113.512C248.816 115.02 249.044 119.119 251.132 123.734Z" fill="#F8FAFC"/>
<path opacity="0.3" d="M251.132 123.734C251.07 123.098 251.028 122.468 251.001 121.835C250.967 120.991 251.14 120.316 251.267 119.499C251.403 118.518 251.35 117.653 252.065 116.863C252.653 116.225 253.454 115.82 254.318 115.725C255.529 115.584 256.755 115.991 257.795 116.632C258.811 117.31 259.753 118.097 260.596 118.983C260.548 118.547 260.862 118.156 261.205 117.869C261.264 117.815 261.325 117.765 261.389 117.717C257.399 113.727 253.164 111.889 250.922 113.512C248.815 115.02 249.044 119.119 251.132 123.734Z" fill="white"/>
<path d="M279.498 119.917C278.413 122.154 275.976 123.697 273.465 123.551C270.954 123.405 269.382 124.439 267.568 126.171C266.076 127.597 264.543 129.132 263.972 131.111C261.62 129.85 259.694 127.921 258.439 125.567C257.231 123.208 256.875 120.383 257.667 117.853C258.827 118.279 260.067 118.446 261.298 118.351C264.03 118.151 266.693 116.733 267.884 114.281C269.438 111.075 273.298 109.737 276.503 111.291C276.503 111.291 276.505 111.291 276.508 111.291C276.673 111.371 276.838 111.461 276.995 111.557C279.873 113.27 280.961 116.901 279.498 119.915V119.917Z" fill="#F8FAFC"/>
<path opacity="0.3" d="M276.995 111.554C275.636 111.82 273.934 112.272 273.62 112.386C271.795 113.057 270.154 114.153 268.832 115.578C268.004 116.475 267.433 117.595 266.236 118.05C265.571 118.289 264.863 118.374 264.161 118.3C263.895 118.276 263.608 118.236 263.331 118.238C262.738 118.238 262.166 118.47 261.573 118.526C261.429 118.539 261.357 118.457 261.277 118.353C261.852 118.228 262.445 118.207 263.02 118.05C263.6 117.895 264.163 117.68 264.701 117.409C265.767 116.879 266.685 116.097 267.377 115.129C267.568 114.855 267.738 114.568 267.885 114.267C269.438 111.062 273.298 109.724 276.503 111.277C276.503 111.277 276.506 111.277 276.508 111.277C276.673 111.368 276.838 111.458 276.995 111.551V111.554Z" fill="white"/>
<path d="M280.138 116.815C280.186 117.887 279.965 118.951 279.497 119.916C278.412 122.148 275.975 123.694 273.464 123.55C270.953 123.406 269.381 124.436 267.57 126.167C266.078 127.593 264.545 129.128 263.971 131.11C261.619 129.846 259.696 127.918 258.438 125.564C257.233 123.204 256.874 120.379 257.667 117.85C257.616 118.015 259.984 118.352 260.196 118.36C260.771 118.39 261.377 118.536 261.944 118.472C262.636 118.35 263.317 118.171 263.982 117.94C265.301 117.589 266.57 117.073 267.761 116.405C269.248 115.527 270.507 114.32 271.751 113.12C271.988 114.211 272.025 115.336 271.855 116.44C271.645 117.533 271.057 118.594 270.126 119.188C269.839 119.368 269.501 119.525 269.355 119.831C268.796 120.996 271.533 120.201 271.919 120.097C273.361 119.69 274.778 118.956 275.63 117.722C276.481 116.488 276.603 114.676 275.63 113.54C275.51 113.421 275.409 113.285 275.332 113.136C275.225 112.75 275.422 112.346 275.789 112.189C276.156 112.053 276.563 112.061 276.925 112.21C277.856 112.57 278.628 113.25 279.098 114.131C279.577 114.987 280.096 115.828 280.138 116.815Z" fill="url(#paint6_linear_9513_2251)"/>
<path d="M299.547 117.499C299.35 121.029 298.347 123.995 296.669 126.985L293.434 127.232C291.405 127.386 289.335 127.554 287.316 127.264C285.531 127.011 284.199 126.253 282.371 126.237C278.291 126.2 274.216 127.152 270.135 126.455C269.923 126.437 269.718 126.357 269.55 126.224C269.226 125.91 269.406 125.359 269.649 124.976C270.627 123.428 272.285 122.412 274.011 121.803C275.737 121.194 277.57 120.936 279.366 120.571C279.778 120.516 280.174 120.372 280.528 120.151C280.844 119.885 281.105 119.555 281.289 119.183C282.26 117.526 283.257 115.52 282.454 113.775C281.786 112.325 280.283 111.847 279.078 110.982C277.676 109.977 277.349 109.503 275.62 110.543L271.739 112.871C271.495 113.001 271.274 113.171 271.088 113.379C270.904 113.65 270.774 113.956 270.71 114.278C270.25 115.898 269.481 117.499 268.154 118.534C266.826 119.569 264.847 119.896 263.445 118.962C263.219 118.834 263.049 118.632 262.964 118.388C262.929 118.066 263.025 117.741 263.23 117.489C263.914 116.406 264.733 115.406 265.326 114.27C266.164 112.658 266.507 110.844 267.012 109.099C267.624 106.982 268.486 104.944 269.577 103.029C269.843 102.553 270.154 102.063 270.641 101.797C271.002 101.622 271.396 101.518 271.798 101.489C273.761 101.223 275.522 100.81 277.519 100.789C281.257 100.789 284.632 100.417 287.792 101.917C288.364 102.191 288.91 102.515 289.423 102.888L298.698 109.572C299.395 112.153 299.683 114.829 299.547 117.499Z" fill="#F4A28C"/>
<path d="M266.1 112.443C266.1 112.443 269.137 105.439 270.324 105.021C271.51 104.604 275.133 102.321 275.133 102.321L269.901 103.587C269.901 103.587 267.456 107.383 267.371 107.891C267.286 108.399 266.1 112.443 266.1 112.443Z" fill="url(#paint7_linear_9513_2251)"/>
<path d="M220.252 136.409L220.917 135.699C220.981 135.616 221.066 135.555 221.162 135.518C221.244 135.497 221.332 135.497 221.414 135.518C222.207 135.72 222.965 136.042 223.662 136.473C224.234 136.797 225.075 137.106 225.524 137.537C224.899 137.79 223.893 137.417 223.274 137.271C222.952 137.207 220.358 136.3 220.252 136.409Z" fill="#F8FAFC"/>
<path d="M222.112 144.195L221.822 143.264C221.784 143.168 221.771 143.064 221.784 142.963C221.811 142.881 221.859 142.806 221.92 142.748C222.487 142.157 223.141 141.657 223.862 141.266C224.426 140.931 225.109 140.351 225.724 140.162C225.631 140.832 224.811 141.521 224.38 141.987C224.138 142.242 222.066 144.046 222.112 144.195Z" fill="#F8FAFC"/>
<path d="M223.199 131.446L224.159 131.281C224.258 131.251 224.364 131.251 224.463 131.281C224.54 131.318 224.609 131.371 224.66 131.44C225.17 132.084 225.577 132.802 225.87 133.568C226.136 134.172 226.615 134.925 226.721 135.55C226.069 135.372 225.495 134.467 225.09 133.978C224.87 133.712 223.353 131.419 223.199 131.446Z" fill="#F8FAFC"/>
<defs>
<filter id="filter0_d_9513_2251" x="26" y="25" width="452" height="18" filterUnits="userSpaceOnUse" color-interpolation-filters="sRGB">
<feFlood flood-opacity="0" result="BackgroundImageFix"/>
<feColorMatrix in="SourceAlpha" type="matrix" values="0 0 0 0 0 0 0 0 0 0 0 0 0 0 0 0 0 0 127 0" result="hardAlpha"/>
<feOffset dx="-6" dy="-5"/>
<feGaussianBlur stdDeviation="2"/>
<feComposite in2="hardAlpha" operator="out"/>
<feColorMatrix type="matrix" values="0 0 0 0 0.592157 0 0 0 0 0.580392 0 0 0 0 0.580392 0 0 0 0.25 0"/>
<feBlend mode="normal" in2="BackgroundImageFix" result="effect1_dropShadow_9513_2251"/>
<feBlend mode="normal" in="SourceGraphic" in2="effect1_dropShadow_9513_2251" result="shape"/>
</filter>
<filter id="filter1_d_9513_2251" x="18" y="32" width="17" height="181" filterUnits="userSpaceOnUse" color-interpolation-filters="sRGB">
<feFlood flood-opacity="0" result="BackgroundImageFix"/>
<feColorMatrix in="SourceAlpha" type="matrix" values="0 0 0 0 0 0 0 0 0 0 0 0 0 0 0 0 0 0 127 0" result="hardAlpha"/>
<feOffset dx="-6" dy="-4"/>
<feGaussianBlur stdDeviation="2"/>
<feComposite in2="hardAlpha" operator="out"/>
<feColorMatrix type="matrix" values="0 0 0 0 0.593099 0 0 0 0 0.580629 0 0 0 0 0.580629 0 0 0 0.25 0"/>
<feBlend mode="normal" in2="BackgroundImageFix" result="effect1_dropShadow_9513_2251"/>
<feBlend mode="normal" in="SourceGraphic" in2="effect1_dropShadow_9513_2251" result="shape"/>
</filter>
<linearGradient id="paint0_linear_9513_2251" x1="483" y1="124" x2="28" y2="124" gradientUnits="userSpaceOnUse">
<stop stop-color="#FD686A"/>
<stop offset="1" stop-color="#F2D011"/>
</linearGradient>
<linearGradient id="paint1_linear_9513_2251" x1="254.282" y1="91.8835" x2="202.396" y2="160.477" gradientUnits="userSpaceOnUse">
<stop/>
<stop offset="0.08" stop-opacity="0.69"/>
<stop offset="0.21" stop-opacity="0.32"/>
<stop offset="1" stop-opacity="0"/>
</linearGradient>
<linearGradient id="paint2_linear_9513_2251" x1="196.329" y1="106.918" x2="212.714" y2="106.918" gradientUnits="userSpaceOnUse">
<stop stop-color="white"/>
<stop offset="1" stop-color="#F4F2F4"/>
</linearGradient>
<linearGradient id="paint3_linear_9513_2251" x1="225.567" y1="97.0626" x2="196.459" y2="109.972" gradientUnits="userSpaceOnUse">
<stop/>
<stop offset="0.08" stop-opacity="0.69"/>
<stop offset="0.21" stop-opacity="0.32"/>
<stop offset="1" stop-opacity="0"/>
</linearGradient>
<linearGradient id="paint4_linear_9513_2251" x1="201.787" y1="123.886" x2="267.327" y2="123.886" gradientUnits="userSpaceOnUse">
<stop stop-color="white"/>
<stop offset="1" stop-color="#F4F2F4"/>
</linearGradient>
<linearGradient id="paint5_linear_9513_2251" x1="268.613" y1="126.724" x2="245.801" y2="126.724" gradientUnits="userSpaceOnUse">
<stop/>
<stop offset="0.08" stop-opacity="0.69"/>
<stop offset="0.21" stop-opacity="0.32"/>
<stop offset="1" stop-opacity="0"/>
</linearGradient>
<linearGradient id="paint6_linear_9513_2251" x1="274.416" y1="140.27" x2="266.964" y2="112.96" gradientUnits="userSpaceOnUse">
<stop/>
<stop offset="0.08" stop-opacity="0.69"/>
<stop offset="0.21" stop-opacity="0.32"/>
<stop offset="1" stop-opacity="0"/>
</linearGradient>
<linearGradient id="paint7_linear_9513_2251" x1="259.83" y1="79.7592" x2="275.184" y2="119.074" gradientUnits="userSpaceOnUse">
<stop/>
<stop offset="0.08" stop-opacity="0.69"/>
<stop offset="0.21" stop-opacity="0.32"/>
<stop offset="1" stop-opacity="0"/>
</linearGradient>
</defs>
</svg>
