<svg width="719" height="517" viewBox="0 0 719 517" fill="none" xmlns="http://www.w3.org/2000/svg">
<path d="M0 4C0 1.79086 1.79086 0 4 0H715C717.209 0 719 1.79086 719 4V512.46C719 514.669 717.209 516.46 715 516.46H3.99998C1.79084 516.46 0 514.669 0 512.46V4Z" fill="url(#paint0_linear_9512_2130)"/>
<path opacity="0.18" d="M509.851 243.196C509.382 251.609 506.992 258.679 502.992 265.805C498.82 273.254 492.892 280.754 485.576 289.897C462.156 319.194 420.667 371.093 355.555 370.307C351.523 370.256 284.369 368.405 250.996 315.91C209.367 250.468 249.499 152.205 285.504 145.617C301.659 142.657 307.092 159.996 337.651 164.492C373.472 169.76 384.681 148.686 416.032 149.814C455.594 151.228 497.932 186.948 507.823 224.316C509.484 230.466 510.168 236.837 509.851 243.196Z" fill="#68E1FD"/>
<path d="M302.843 233.218L268.252 247.698L314.103 360.31L417.058 328.134L362.122 220.348L302.843 233.218Z" fill="#68E1FD"/>
<path d="M303.377 230.004L299.091 235.368L291.578 238.582C291.578 238.582 306.864 321.972 328.312 341.81L358.611 328.94L303.377 230.004Z" fill="url(#paint1_linear_9512_2130)"/>
<path d="M266.383 233.636L302.888 224.931C302.888 224.931 297.594 197.466 276.844 203.058C256.093 208.65 266.376 233.636 266.376 233.636H266.383Z" fill="url(#paint2_linear_9512_2130)"/>
<path d="M266.383 233.636L302.888 224.931C302.888 224.931 297.594 197.466 276.844 203.058C256.093 208.65 266.376 233.636 266.376 233.636H266.383Z" fill="url(#paint3_linear_9512_2130)"/>
<path d="M276.844 203.058C298.913 199.952 299.129 223.904 299.129 223.904C304.435 299.807 337.289 340.319 337.289 340.319L433.055 311.865C433.055 311.865 413.693 267.022 408.259 225.502C405.831 206.964 400.467 194.689 395.269 186.783C389.854 178.529 379.742 174.712 370.226 177.33L276.844 203.058Z" fill="url(#paint4_linear_9512_2130)"/>
<path opacity="0.51" d="M378.817 192.476L313.363 209.899C312.539 210.07 311.733 209.537 311.569 208.713C311.569 208.694 311.562 208.675 311.556 208.662L311.416 208.066C311.182 207.229 311.645 206.355 312.469 206.076L377.929 188.653C378.747 188.488 379.546 189.015 379.717 189.839C379.717 189.864 379.73 189.896 379.73 189.921L379.869 190.517C380.085 191.348 379.628 192.204 378.817 192.476Z" fill="#68E1FD"/>
<path opacity="0.51" d="M381.701 204.871L316.24 222.287C315.422 222.458 314.617 221.932 314.452 221.107C314.452 221.088 314.446 221.069 314.439 221.057L314.3 220.461C314.059 219.624 314.522 218.743 315.352 218.464L380.807 201.048C381.631 200.876 382.436 201.409 382.601 202.233C382.601 202.252 382.607 202.271 382.613 202.284L382.753 202.88C382.981 203.717 382.525 204.592 381.701 204.871Z" fill="#68E1FD"/>
<path opacity="0.51" d="M384.58 217.26L319.107 234.682C318.289 234.853 317.484 234.321 317.319 233.503C317.319 233.484 317.312 233.465 317.306 233.446L317.167 232.85C316.926 232.013 317.395 231.132 318.219 230.859L383.692 213.456C384.516 213.291 385.322 213.823 385.487 214.648C385.487 214.673 385.499 214.698 385.499 214.724L385.632 215.313C385.842 216.138 385.385 216.981 384.58 217.26Z" fill="#68E1FD"/>
<path opacity="0.51" d="M387.463 229.661L322.009 247.058C321.185 247.23 320.38 246.697 320.215 245.873C320.215 245.854 320.208 245.835 320.202 245.822L320.063 245.226C319.834 244.389 320.291 243.514 321.115 243.235L386.575 225.819C387.393 225.648 388.199 226.174 388.363 226.999C388.363 227.018 388.37 227.037 388.376 227.049L388.516 227.645C388.763 228.489 388.3 229.382 387.463 229.661Z" fill="#68E1FD"/>
<path opacity="0.51" d="M390.348 242.048L324.888 259.464C324.07 259.635 323.271 259.116 323.1 258.298C323.1 258.279 323.093 258.253 323.087 258.234L322.948 257.638C322.713 256.801 323.176 255.92 324 255.641L389.48 238.225C390.304 238.06 391.109 238.593 391.274 239.417C391.274 239.443 391.286 239.468 391.286 239.493L391.426 240.089C391.641 240.926 391.166 241.782 390.348 242.048Z" fill="#68E1FD"/>
<path opacity="0.51" d="M381.035 257.691L327.412 271.956C326.803 272.082 326.201 271.689 326.074 271.081C326.074 271.068 326.074 271.049 326.068 271.036L326.017 270.833C325.839 270.206 326.188 269.553 326.803 269.343L380.427 255.078C381.035 254.952 381.638 255.345 381.765 255.953C381.765 255.966 381.765 255.985 381.771 255.998L381.822 256.201C381.999 256.828 381.65 257.481 381.035 257.691Z" fill="#68E1FD"/>
<path opacity="0.51" d="M357.018 279.828C346.652 282.561 340.452 294.328 343.197 306.057C345.942 317.786 356.511 325.039 366.896 322.281C377.281 319.523 383.475 307.775 380.749 296.059C378.023 284.342 367.397 277.064 357.018 279.828ZM366.218 319.365C357.272 321.748 348.104 315.485 345.733 305.385C343.362 295.285 348.732 285.135 357.678 282.757C366.623 280.38 375.797 286.638 378.15 296.756C380.502 306.875 375.176 316.981 366.218 319.365Z" fill="#68E1FD"/>
<path d="M350.844 303.395L361.013 310.109L372.095 290.778L369.261 288.838L359.498 304.181L353.082 299.787L350.844 303.395Z" fill="#68E1FD"/>
<path d="M385.227 239.868C378.411 244.801 381.93 261.291 393.082 276.697C404.234 292.103 418.791 300.593 425.606 295.66C426.843 294.766 435.116 289.066 435.75 287.488C438.331 280.355 426.912 271.448 417.783 258.837C408.235 245.644 402.357 232.33 394.813 233.363C393.52 233.541 386.21 239.158 385.227 239.868Z" fill="#68E1FD"/>
<path d="M385.227 239.868C378.411 244.801 381.93 261.291 393.082 276.697C404.234 292.103 418.791 300.593 425.606 295.66C426.843 294.766 435.116 289.066 435.75 287.488C438.331 280.355 426.912 271.448 417.783 258.837C408.235 245.644 402.357 232.33 394.813 233.363C393.52 233.541 386.21 239.158 385.227 239.868Z" fill="url(#paint5_linear_9512_2130)"/>
<path d="M394.459 258.057C396.468 262.444 398.916 266.616 401.756 270.515C412.908 285.921 427.471 294.417 434.287 289.484C441.102 284.552 437.583 268.061 426.438 252.655C424.143 249.479 421.6 246.486 418.83 243.716C409.32 234.206 399.226 229.825 393.882 233.692C388.936 237.287 389.482 247.057 394.459 258.057Z" fill="#68E1FD"/>
<path opacity="0.3" d="M394.457 258.057C394.311 256.542 394.21 255.039 394.147 253.53C394.064 251.52 394.476 249.91 394.781 247.964C395.104 245.624 394.977 243.564 396.683 241.681C398.084 240.159 399.992 239.195 402.053 238.967C404.937 238.631 407.86 239.601 410.339 241.129C412.761 242.746 415.005 244.622 417.015 246.734C416.901 245.694 417.649 244.762 418.467 244.077C418.606 243.95 418.752 243.83 418.904 243.716C409.394 234.206 399.301 229.825 393.956 233.692C388.935 237.287 389.48 247.057 394.457 258.057Z" fill="white"/>
<path d="M462.068 248.959C459.482 254.291 453.674 257.968 447.689 257.62C441.704 257.271 437.957 259.737 433.634 263.864C430.077 267.263 426.425 270.921 425.062 275.638C419.457 272.633 414.867 268.036 411.875 262.425C408.996 256.802 408.147 250.069 410.036 244.039C412.8 245.054 415.755 245.453 418.69 245.225C425.201 244.749 431.548 241.37 434.388 235.525C438.091 227.885 447.29 224.696 454.93 228.398C454.93 228.398 454.936 228.398 454.942 228.398C455.335 228.589 455.728 228.804 456.103 229.032C462.962 233.115 465.555 241.77 462.068 248.953V248.959Z" fill="#68E1FD"/>
<path opacity="0.3" d="M456.102 229.027C452.862 229.661 448.804 230.738 448.056 231.011C443.707 232.609 439.795 235.221 436.644 238.619C434.673 240.756 433.309 243.425 430.456 244.509C428.871 245.079 427.185 245.282 425.511 245.105C424.877 245.048 424.193 244.953 423.533 244.959C422.119 244.959 420.756 245.511 419.342 245.644C419 245.675 418.829 245.479 418.639 245.232C420.008 244.934 421.422 244.883 422.791 244.509C424.173 244.141 425.518 243.628 426.798 242.981C429.341 241.719 431.528 239.855 433.176 237.548C433.633 236.894 434.039 236.21 434.387 235.493C438.09 227.854 447.289 224.665 454.929 228.367C454.929 228.367 454.935 228.367 454.941 228.367C455.335 228.583 455.728 228.798 456.102 229.02V229.027Z" fill="white"/>
<path d="M463.595 241.567C463.709 244.122 463.183 246.658 462.067 248.96C459.48 254.279 453.673 257.963 447.688 257.62C441.703 257.278 437.956 259.732 433.638 263.859C430.082 267.257 426.43 270.915 425.06 275.639C419.456 272.627 414.872 268.031 411.873 262.42C409.001 256.796 408.145 250.063 410.035 244.034C409.914 244.427 415.557 245.232 416.064 245.251C417.433 245.321 418.879 245.669 420.229 245.517C421.878 245.226 423.501 244.801 425.086 244.249C428.23 243.412 431.254 242.182 434.095 240.591C437.639 238.499 440.638 235.621 443.605 232.761C444.169 235.361 444.258 238.042 443.852 240.674C443.351 243.279 441.95 245.809 439.731 247.223C439.046 247.654 438.241 248.028 437.892 248.757C436.561 251.534 443.085 249.638 444.004 249.391C447.44 248.421 450.82 246.671 452.849 243.729C454.877 240.788 455.169 236.47 452.849 233.763C452.563 233.478 452.322 233.154 452.138 232.799C451.885 231.88 452.354 230.916 453.229 230.542C454.104 230.219 455.074 230.238 455.936 230.593C458.155 231.449 459.994 233.072 461.116 235.17C462.257 237.212 463.493 239.215 463.595 241.567Z" fill="url(#paint6_linear_9512_2130)"/>
<path d="M509.851 243.197C509.382 251.61 506.992 258.679 502.991 265.806L495.282 266.395C490.444 266.763 485.512 267.162 480.7 266.471C476.446 265.869 473.269 264.062 468.914 264.024C459.188 263.935 449.475 266.205 439.75 264.544C439.243 264.499 438.754 264.309 438.355 263.992C437.582 263.244 438.013 261.932 438.59 261.019C440.923 257.329 444.873 254.907 448.987 253.455C453.102 252.003 457.47 251.388 461.75 250.52C462.732 250.387 463.677 250.044 464.52 249.518C465.275 248.884 465.896 248.098 466.333 247.21C468.647 243.26 471.025 238.48 469.11 234.321C467.519 230.866 463.937 229.725 461.065 227.664C457.724 225.268 456.944 224.139 452.823 226.618L443.573 232.165C442.99 232.476 442.463 232.882 442.02 233.376C441.582 234.023 441.271 234.752 441.119 235.519C440.022 239.38 438.19 243.197 435.026 245.663C431.863 248.13 427.146 248.909 423.805 246.684C423.266 246.38 422.86 245.898 422.657 245.315C422.575 244.547 422.803 243.774 423.291 243.172C424.921 240.591 426.873 238.207 428.287 235.5C430.284 231.658 431.102 227.334 432.307 223.175C433.765 218.129 435.819 213.272 438.418 208.707C439.052 207.573 439.794 206.406 440.954 205.772C441.817 205.354 442.755 205.106 443.712 205.037C448.391 204.403 452.588 203.42 457.35 203.369C466.257 203.369 474.303 202.482 481.835 206.057C483.198 206.71 484.497 207.484 485.721 208.371L507.829 224.304C509.49 230.454 510.174 236.832 509.851 243.197Z" fill="#F4A28C"/>
<path d="M430.133 231.145C430.133 231.145 437.373 214.452 440.201 213.457C443.028 212.461 451.663 207.021 451.663 207.021L439.193 210.039C439.193 210.039 433.366 219.087 433.163 220.297C432.96 221.508 430.133 231.145 430.133 231.145Z" fill="url(#paint7_linear_9512_2130)"/>
<path d="M320.855 288.267L322.44 286.575C322.593 286.378 322.796 286.232 323.024 286.144C323.22 286.093 323.43 286.093 323.626 286.144C325.515 286.625 327.322 287.392 328.983 288.42C330.346 289.193 332.35 289.928 333.421 290.956C331.931 291.558 329.535 290.67 328.058 290.322C327.291 290.169 321.109 288.007 320.855 288.267Z" fill="#68E1FD"/>
<path d="M325.288 306.824L324.597 304.605C324.508 304.377 324.476 304.13 324.508 303.889C324.571 303.692 324.686 303.515 324.831 303.375C326.182 301.968 327.741 300.776 329.46 299.844C330.804 299.045 332.433 297.663 333.898 297.213C333.676 298.811 331.723 300.453 330.696 301.562C330.119 302.171 325.18 306.469 325.288 306.824Z" fill="#68E1FD"/>
<path d="M327.881 276.438L330.17 276.044C330.404 275.975 330.658 275.975 330.892 276.044C331.076 276.133 331.241 276.26 331.362 276.425C332.579 277.959 333.549 279.671 334.246 281.497C334.88 282.936 336.021 284.73 336.275 286.22C334.722 285.795 333.352 283.64 332.389 282.473C331.862 281.839 328.249 276.374 327.881 276.438Z" fill="#68E1FD"/>
<defs>
<linearGradient id="paint0_linear_9512_2130" x1="719" y1="258.23" x2="0" y2="258.23" gradientUnits="userSpaceOnUse">
<stop stop-color="#68E1FD"/>
<stop offset="1" stop-color="#3A11F2"/>
</linearGradient>
<linearGradient id="paint1_linear_9512_2130" x1="401.964" y1="182.143" x2="278.296" y2="345.633" gradientUnits="userSpaceOnUse">
<stop/>
<stop offset="0.08" stop-opacity="0.69"/>
<stop offset="0.21" stop-opacity="0.32"/>
<stop offset="1" stop-opacity="0"/>
</linearGradient>
<linearGradient id="paint2_linear_9512_2130" x1="263.834" y1="217.976" x2="302.888" y2="217.976" gradientUnits="userSpaceOnUse">
<stop stop-color="white"/>
<stop offset="1" stop-color="#F4F2F4"/>
</linearGradient>
<linearGradient id="paint3_linear_9512_2130" x1="333.523" y1="194.486" x2="264.144" y2="225.254" gradientUnits="userSpaceOnUse">
<stop/>
<stop offset="0.08" stop-opacity="0.69"/>
<stop offset="0.21" stop-opacity="0.32"/>
<stop offset="1" stop-opacity="0"/>
</linearGradient>
<linearGradient id="paint4_linear_9512_2130" x1="276.844" y1="258.419" x2="433.055" y2="258.419" gradientUnits="userSpaceOnUse">
<stop stop-color="white"/>
<stop offset="1" stop-color="#F4F2F4"/>
</linearGradient>
<linearGradient id="paint5_linear_9512_2130" x1="436.124" y1="265.184" x2="381.752" y2="265.184" gradientUnits="userSpaceOnUse">
<stop/>
<stop offset="0.08" stop-opacity="0.69"/>
<stop offset="0.21" stop-opacity="0.32"/>
<stop offset="1" stop-opacity="0"/>
</linearGradient>
<linearGradient id="paint6_linear_9512_2130" x1="449.955" y1="297.473" x2="432.194" y2="232.38" gradientUnits="userSpaceOnUse">
<stop/>
<stop offset="0.08" stop-opacity="0.69"/>
<stop offset="0.21" stop-opacity="0.32"/>
<stop offset="1" stop-opacity="0"/>
</linearGradient>
<linearGradient id="paint7_linear_9512_2130" x1="415.189" y1="153.246" x2="451.784" y2="246.951" gradientUnits="userSpaceOnUse">
<stop/>
<stop offset="0.08" stop-opacity="0.69"/>
<stop offset="0.21" stop-opacity="0.32"/>
<stop offset="1" stop-opacity="0"/>
</linearGradient>
</defs>
</svg>
