<svg width="719" height="517" viewBox="0 0 719 517" fill="none" xmlns="http://www.w3.org/2000/svg">
<path d="M0 4C0 1.79086 1.79086 0 4 0H715C717.209 0 719 1.79086 719 4V512.46C719 514.669 717.209 516.46 715 516.46H3.99998C1.79084 516.46 0 514.669 0 512.46V4Z" fill="url(#paint0_linear_9519_2823)"/>
<path opacity="0.18" d="M464.052 384.547C463.038 385.764 461.954 386.918 460.806 388.008C449.045 399.255 431.883 402.368 415.71 404.029C384.105 407.263 352.234 406.838 320.724 402.755H322.772C320.762 402.502 318.758 402.121 316.774 401.703C303.492 398.913 290.919 393.448 279.831 385.624C274.664 381.935 269.94 377.661 265.756 372.887C252.689 357.944 245.538 337.421 248.575 317.78C251.098 301.252 260.291 286.492 264.368 270.287C272.629 237.357 259.175 201.435 269.56 169.056C272.007 161.41 275.729 154.227 279.431 147.088C281.752 142.631 284.123 138.092 287.737 134.592C291.794 130.674 297.126 128.373 302.312 126.147C322.524 117.493 343.497 108.75 365.472 109.169C377.625 109.391 389.608 112.485 400.868 117.068C408.989 120.384 416.876 124.543 423.457 130.357C438.166 143.335 444.931 163.236 446.706 182.763C448.481 202.291 445.844 221.862 444.785 241.408C444.176 252.561 444.119 263.903 447.061 274.693C450.383 286.885 457.364 297.682 463.101 308.929C469.536 321.533 474.558 335.171 475.058 349.315C475.458 361.894 471.977 374.923 464.046 384.528L464.052 384.547Z" fill="#F8FAFC"/>
<path opacity="0.54" d="M464.051 384.546C463.037 385.764 461.953 386.917 460.805 388.008C449.939 398.393 434.431 401.848 419.38 403.623C418.15 403.769 416.933 403.902 415.709 404.029C384.104 407.263 352.233 406.838 320.723 402.755H322.771C320.761 402.501 318.758 402.121 316.773 401.702C316.012 401.538 315.252 401.366 314.497 401.182C302.045 398.272 290.272 392.985 279.83 385.611C301.817 378.517 335.724 373.965 373.751 373.965C409.762 374.028 442.058 378.092 464.045 384.546H464.051Z" fill="#F8FAFC"/>
<path opacity="0.54" d="M419.451 403.023C419.464 403.238 419.464 403.447 419.451 403.663C418.221 403.809 417.004 403.942 415.78 404.069C384.175 407.302 352.304 406.877 320.794 402.794H322.842C320.832 402.541 318.829 402.16 316.844 401.742C316.084 401.577 315.323 401.406 314.568 401.222C317.295 392.517 339.662 385.746 366.88 385.746C395.854 385.746 419.438 393.481 419.438 403.023H419.451Z" fill="#F8FAFC"/>
<path d="M344.398 146.334L336.854 137.509C336.854 137.509 338.933 129.013 352.488 125.716C355.163 125.076 357.921 124.892 360.654 125.171C364.483 125.495 368.243 126.401 371.806 127.847L371.692 137.959C371.692 137.959 346.998 139.328 344.392 146.334H344.398Z" fill="#F8FAFC"/>
<path d="M344.398 146.334L336.854 137.509C336.854 137.509 338.933 129.013 352.488 125.716C355.163 125.076 357.921 124.892 360.654 125.171C364.483 125.495 368.243 126.401 371.806 127.847L371.692 137.959C371.692 137.959 346.998 139.328 344.392 146.334H344.398Z" fill="url(#paint1_linear_9519_2823)"/>
<path d="M344.398 146.334C342.217 144.724 337.785 145.282 335.591 146.163C332.383 147.469 329.961 150.201 329.042 153.543C328.649 155.09 328.535 156.687 328.706 158.272C329.023 161.734 330.532 165.297 333.372 167.377C339.307 171.7 342.965 167.687 344.734 162.279C345.849 159.217 346.211 155.926 345.78 152.693C345.463 150.252 346.579 148.312 344.683 146.569L344.404 146.334H344.398Z" fill="#C14834"/>
<path d="M356.838 176.849C365.931 176.849 373.303 167.652 373.303 156.307C373.303 144.962 365.931 135.766 356.838 135.766C347.745 135.766 340.373 144.962 340.373 156.307C340.373 167.652 347.745 176.849 356.838 176.849Z" fill="#C14834"/>
<path d="M374.057 152.148C374.209 155.128 374.177 158.114 373.962 161.094C373.562 164.816 374.932 168.512 377.664 171.067C376.821 171.168 375.965 171.143 375.128 170.991C374.279 170.832 373.55 170.3 373.137 169.539C373.943 170.959 375.35 171.942 376.96 172.214C375.23 172.969 370.633 174.579 370.322 171.644C370.208 170.522 370.677 169.215 370.766 168.087C370.887 166.553 370.912 165.006 370.988 163.478L371.578 151.146" fill="#C14834"/>
<path d="M409.072 212.961C409.072 212.961 412.09 207.629 413.396 206.836C414.563 206.12 417.023 203.844 417.72 204.345C418.931 205.207 413.688 209.892 418.367 209.537C419.102 209.474 422.855 209.537 424.662 211.268C426.057 212.574 426.127 214.768 424.814 216.163C424.713 216.27 424.605 216.372 424.497 216.461C423.268 217.323 419.058 217.678 416.782 217.614C414.506 217.551 411.843 217.874 410.283 218.806" fill="#FFB4A3"/>
<path d="M376.827 190.328C376.827 190.328 378.989 197.118 379.205 200.789C379.42 204.46 381.132 219.892 381.715 220.69C382.292 221.489 409.966 212.036 409.966 212.036C409.966 212.036 411.634 214.388 410.296 218.826C410.296 218.826 389.754 237.422 377.322 238.144C364.889 238.874 366.48 209.418 366.48 209.418" fill="#FFB4A3"/>
<path d="M388.816 219.89C388.924 220.131 388.949 220.404 388.886 220.658C388.803 220.829 388.683 220.981 388.53 221.101L383.782 225.375C383.256 225.951 382.565 226.357 381.81 226.554C380.954 226.624 380.117 226.287 379.559 225.634C379.008 224.994 378.564 224.278 378.247 223.498C377.397 221.824 376.681 220.087 376.104 218.305C375.356 215.586 375.001 212.771 375.052 209.949C375.052 206.678 375.197 203.419 375.426 200.154C375.445 199.057 375.622 197.973 375.965 196.933C376.225 196.128 376.751 195.431 377.454 194.962C378.456 194.467 378.64 195.057 379.141 195.919C380.193 197.745 381.151 199.615 382.032 201.517C383.756 205.296 385.278 209.157 386.59 213.094C387.351 215.364 388.093 217.621 388.828 219.884L388.816 219.89Z" fill="#F8FAFC"/>
<path d="M388.665 219.275C388.773 219.516 388.798 219.782 388.741 220.036C388.659 220.213 388.532 220.365 388.38 220.48L383.631 224.765C383.105 225.342 382.414 225.748 381.659 225.945C380.81 226.014 379.973 225.672 379.408 225.025C378.863 224.385 378.419 223.662 378.096 222.889C377.253 221.215 376.536 219.478 375.953 217.696C375.205 214.976 374.856 212.161 374.907 209.34C374.863 206.069 375.047 202.797 375.268 199.539C375.287 198.448 375.465 197.364 375.807 196.331C376.067 195.525 376.594 194.828 377.297 194.359C378.299 193.858 378.483 194.454 379.028 195.316C380.08 197.136 381.038 199.012 381.925 200.914C383.631 204.68 385.152 208.535 386.465 212.453C387.194 214.748 387.936 217.012 388.671 219.281L388.665 219.275Z" fill="url(#paint2_linear_9519_2823)"/>
<path d="M352.494 384.161L360.914 397.392C359.563 396.936 346.959 394.095 344.037 394.102C342.122 394.019 340.277 393.347 338.762 392.174L340.594 382.804L343.853 336.465L361.389 339.007L352.494 384.161Z" fill="#FFB4A3"/>
<path d="M386.305 383.806L394.224 395.719C392.803 395.605 383.281 393.506 380.447 394.248C378.57 394.647 376.611 394.451 374.849 393.696L374.297 384.18L370.715 341.284L385.798 333.936L386.311 383.806H386.305Z" fill="#FFB4A3"/>
<path d="M350.409 170.002L349.699 184.92C351.291 187.234 354.01 188.515 356.813 188.261C364.002 187.456 363.736 185.319 363.736 185.319C363.736 185.319 363.736 174.548 364.028 172.145" fill="#FFB4A3"/>
<path d="M352.12 174.859L350.459 171.854L363.982 173.35C363.868 174.269 363.798 176.406 363.76 178.707C359.455 179.975 354.821 178.441 352.12 174.859Z" fill="url(#paint3_linear_9519_2823)"/>
<path d="M394.027 334.53C384.979 346.462 359.936 344.611 346.039 343.349C343.687 343.134 340.276 343.349 338.07 342.487C332.833 340.426 335.673 338.005 336.574 332.85C338.406 322.275 336.504 311.453 335.997 300.839C335.8 296.471 337.785 280.349 339.154 270.496C339.794 265.887 340.295 262.641 340.371 262.597C343.7 260.809 352.088 267.168 355.822 267.003C357.42 266.927 373.016 264.778 379.8 263.915C380.763 266.191 381.873 268.41 383.122 270.541C383.293 270.788 383.445 271.048 383.578 271.32C383.743 273.108 383.927 275.124 384.124 277.299C386.209 300.186 394.02 334.543 394.02 334.543L394.027 334.53Z" fill="#F8FAFC"/>
<path d="M394.028 334.53C385.589 345.65 363.272 344.794 349.039 343.609L346.053 343.349C343.701 343.133 340.29 343.349 338.083 342.487C332.847 340.426 335.687 338.004 336.587 332.85C338.42 322.275 336.518 311.452 336.01 300.839C335.814 296.471 337.798 280.348 339.168 270.496C339.808 265.887 340.309 262.641 340.385 262.596C341.431 262.026 342.978 262.279 344.709 262.863C348.513 264.162 353.255 267.11 355.816 266.996C357.414 266.92 373.011 264.771 379.794 263.909C380.752 266.185 381.861 268.397 383.11 270.528C383.281 270.775 383.434 271.035 383.567 271.307C383.731 273.095 383.915 275.111 384.112 277.286C386.217 300.18 394.028 334.536 394.028 334.536V334.53Z" fill="url(#paint4_linear_9519_2823)"/>
<path d="M383.116 270.567C383.116 270.567 377.594 285.18 362.112 286.753C351.771 287.818 340.904 273.033 339.148 270.522L338.895 270.161V267.923L339.757 216.087L340.232 187.779C340.232 187.779 342.179 187.868 349.939 186.435C357.223 185.103 359.931 185.769 365.199 186.771C374.804 188.597 375.895 189.193 377.315 190.442C379.8 192.585 385.969 217.558 377.264 238.106C373.707 246.62 383.116 270.567 383.116 270.567Z" fill="#F8FAFC"/>
<path d="M383.116 270.567C383.116 270.567 377.594 285.18 362.112 286.753C356.317 287.349 350.364 282.974 345.932 278.561C343.453 276.07 341.183 273.382 339.148 270.522L338.895 270.161V267.923L339.199 249.917L339.75 216.087L340.226 187.779C340.226 187.779 342.172 187.868 349.932 186.435C357.217 185.103 359.924 185.769 365.193 186.771C374.798 188.597 375.888 189.193 377.309 190.442C379.794 192.585 385.963 217.558 377.258 238.106C373.695 246.506 382.812 269.945 383.053 270.56H383.116V270.567Z" fill="url(#paint5_linear_9519_2823)"/>
<path d="M349.025 343.61L346.039 343.351C343.687 343.135 340.276 343.351 338.07 342.488C332.833 340.428 335.673 338.006 336.574 332.851C338.406 322.276 336.504 311.454 335.997 300.841C335.8 296.473 337.785 280.35 339.154 270.498L338.9 270.136V267.898L339.205 249.893L343.801 253.069L344.663 262.871L346.008 277.136C346.008 277.136 346.008 277.649 345.938 278.543C345.602 285.929 344.207 320.133 347.237 326.182C349.735 331.216 349.374 339.578 349.025 343.617V343.61Z" fill="url(#paint6_linear_9519_2823)"/>
<path d="M364.381 239.398L370.765 218.349C371.139 217.107 372.299 216.27 373.593 216.302L390.324 216.447C391.922 216.46 393.209 217.773 393.196 219.37C393.196 219.662 393.145 219.947 393.057 220.226L382.786 252.237C382.393 253.467 381.239 254.285 379.945 254.253L363.886 253.803C362.289 253.758 361.027 252.421 361.078 250.823C361.084 250.569 361.128 250.322 361.198 250.075L364.374 239.398H364.381Z" fill="#F8FAFC"/>
<path d="M364.381 239.398L370.765 218.349C371.139 217.107 372.299 216.27 373.593 216.302L390.324 216.447C391.922 216.46 393.209 217.773 393.196 219.37C393.196 219.662 393.145 219.947 393.057 220.226L382.786 252.237C382.393 253.467 381.239 254.285 379.945 254.253L363.886 253.803C362.289 253.758 361.027 252.421 361.078 250.823C361.084 250.569 361.128 250.322 361.198 250.075L364.374 239.398H364.381Z" fill="url(#paint7_linear_9519_2823)"/>
<path d="M366.601 239.316L372.795 218.362C373.099 217.17 374.164 216.333 375.388 216.314L390.509 216.473C392.049 216.6 393.197 217.944 393.07 219.484C393.051 219.738 392.994 219.992 392.905 220.226L382.939 252.129C382.615 253.302 381.557 254.12 380.346 254.126L365.808 253.676C364.274 253.53 363.158 252.167 363.304 250.633C363.329 250.405 363.374 250.183 363.456 249.961L366.594 239.316H366.601Z" fill="url(#paint8_linear_9519_2823)"/>
<path d="M344.785 145.846C344.785 145.846 345.381 164.949 350.935 171.485C356.793 178.409 360.134 179.271 367.235 176.411C373.29 174.009 374 157.455 374.209 152.693C374.735 140.33 355.779 129.679 344.785 145.853V145.846Z" fill="#FFB4A3"/>
<path d="M350.168 210.99L338.939 267.917L339.795 216.093L340.372 202.545L350.168 210.99Z" fill="url(#paint9_linear_9519_2823)"/>
<path d="M346.991 157.974C346.991 157.974 346.68 155.102 343.853 156.338C341.025 157.575 343.681 162.602 344.785 163.959C345.888 165.316 348.005 164.904 348.005 164.904" fill="#FFB4A3"/>
<path d="M373.867 139.867C375.895 142.105 376.91 145.079 376.669 148.084C376.295 151.78 373.695 154.538 369.828 154.056C369.828 154.056 371.768 150.182 369.283 148.293C369.283 148.293 368.611 152.82 363.989 153.232L361.015 153.023C361.015 153.023 362.055 148.889 361.015 147.748C359.976 146.607 358.543 153.536 355.823 154.107C354.701 154.379 353.56 154.532 352.406 154.576C351.797 154.677 349.717 150.905 349.679 150.854C349.851 151.539 349.946 152.243 349.958 152.947C350.161 154.138 350.275 155.337 350.307 156.548C350.396 159.489 350.402 162.431 350.307 165.373C350.244 167.548 350.117 169.792 349.096 171.713C348.075 173.634 345.933 175.124 343.802 174.68C345.603 173.615 346.357 171.383 346.535 169.297C346.738 166.597 346.554 163.889 345.983 161.239C345.596 159.109 345.863 156.142 344.766 154.208C341.418 148.306 344.715 140.97 350.434 138.162C356.647 135.099 365.625 133.838 371.673 137.952C372.484 138.498 373.226 139.138 373.879 139.867H373.867Z" fill="#C14834"/>
<path d="M340.271 188.413C340.271 188.413 336.873 193.111 330.824 212.162C328.573 219.231 324.307 235.056 324.307 235.056C324.307 235.056 333.252 238.112 339.567 238.112C342.395 221.717 349.191 215.364 350.459 207.832C351.733 200.294 344.056 186.961 340.264 188.419L340.271 188.413Z" fill="#F8FAFC"/>
<path d="M340.271 188.413C340.271 188.413 336.873 193.111 330.824 212.162C328.573 219.231 324.307 235.056 324.307 235.056C324.307 235.056 333.252 238.112 339.567 238.112C342.395 221.717 349.191 215.364 350.459 207.832C351.733 200.294 344.056 186.961 340.264 188.419L340.271 188.413Z" fill="url(#paint10_linear_9519_2823)"/>
<path d="M346.268 183.118L346.141 186.58C346.122 187.15 346.433 187.677 346.94 187.937C346.94 187.937 352.424 189.788 361.909 190.289L368.883 188.558C369.378 188.336 369.714 187.854 369.745 187.309L369.84 185.578C369.885 184.798 369.314 184.126 368.541 184.037L347.904 181.704C347.099 181.616 346.37 182.193 346.275 182.998C346.275 183.036 346.268 183.074 346.268 183.112V183.118Z" fill="#F8FAFC"/>
<path d="M346.268 183.118L346.141 186.58C346.122 187.15 346.433 187.677 346.94 187.937C346.94 187.937 352.424 189.788 361.909 190.289L368.883 188.558C369.378 188.336 369.714 187.854 369.745 187.309L369.84 185.578C369.885 184.798 369.314 184.126 368.541 184.037L347.904 181.704C347.099 181.616 346.37 182.193 346.275 182.998C346.275 183.036 346.268 183.074 346.268 183.112V183.118Z" fill="url(#paint11_linear_9519_2823)"/>
<path d="M356.381 390.252C356.039 390.043 355.646 389.929 355.246 389.923C354.834 389.992 354.447 390.176 354.13 390.449C352.026 391.939 349.718 393.27 347.156 393.536C344.595 393.803 341.767 392.738 340.601 390.449C340.341 389.929 340.106 389.314 339.574 389.105C338.978 388.946 338.35 389.225 338.071 389.77C337.811 390.309 337.678 390.899 337.684 391.501L337.545 393.752C337.298 395.299 337.488 396.884 338.084 398.336C338.813 399.718 340.677 400.637 341.983 399.826C342.744 399.35 343.162 398.444 343.936 398.006C344.792 397.626 345.787 397.683 346.592 398.171C347.378 398.653 348.126 399.204 348.824 399.807C352.59 402.628 357.674 402.672 362.372 402.603C363.482 402.679 364.585 402.476 365.599 402.026C366.829 401.335 367.514 399.965 367.33 398.564C367.013 396.497 364.655 395.533 363.133 394.43C361.003 392.852 358.746 391.451 356.387 390.252H356.381Z" fill="#231F20"/>
<path d="M392.164 390.558C391.467 390.063 390.51 390.146 389.914 390.767C387.809 392.244 385.501 393.589 382.94 393.855C380.378 394.121 377.551 393.05 376.384 390.767C376.124 390.247 375.89 389.626 375.357 389.417C374.761 389.265 374.14 389.537 373.854 390.082C373.594 390.621 373.461 391.211 373.468 391.813L373.328 394.051C373.081 395.605 373.271 397.19 373.867 398.648C374.596 400.03 376.46 400.949 377.766 400.125C378.527 399.656 378.945 398.743 379.719 398.318C380.575 397.931 381.57 397.995 382.375 398.483C383.162 398.965 383.91 399.516 384.607 400.119C388.373 402.94 393.458 402.984 398.156 402.915C399.265 402.991 400.368 402.788 401.383 402.338C402.613 401.647 403.297 400.277 403.114 398.876C402.797 396.797 400.438 395.846 398.916 394.73C396.786 393.157 394.529 391.763 392.171 390.558H392.164Z" fill="#231F20"/>
<path d="M356.381 390.252C356.039 390.043 355.646 389.929 355.246 389.923C354.834 389.992 354.447 390.176 354.13 390.449C352.026 391.939 349.718 393.27 347.156 393.536C344.595 393.803 341.767 392.738 340.601 390.449C340.341 389.929 340.106 389.314 339.574 389.105C338.978 388.946 338.35 389.225 338.071 389.77C337.811 390.309 337.678 390.899 337.684 391.501L337.545 393.752C337.298 395.299 337.488 396.884 338.084 398.336C338.813 399.718 340.677 400.637 341.983 399.826C342.744 399.35 343.162 398.444 343.936 398.006C344.792 397.626 345.787 397.683 346.592 398.171C347.378 398.653 348.126 399.204 348.824 399.807C352.59 402.628 357.674 402.672 362.372 402.603C363.482 402.679 364.585 402.476 365.599 402.026C366.829 401.335 367.514 399.965 367.33 398.564C367.013 396.497 364.655 395.533 363.133 394.43C361.003 392.852 358.746 391.451 356.387 390.252H356.381Z" fill="url(#paint12_linear_9519_2823)"/>
<path d="M392.164 390.558C391.467 390.063 390.51 390.146 389.914 390.767C387.809 392.244 385.501 393.589 382.94 393.855C380.378 394.121 377.551 393.05 376.384 390.767C376.124 390.247 375.89 389.626 375.357 389.417C374.761 389.265 374.14 389.537 373.854 390.082C373.594 390.621 373.461 391.211 373.468 391.813L373.328 394.051C373.081 395.605 373.271 397.19 373.867 398.648C374.596 400.03 376.46 400.949 377.766 400.125C378.527 399.656 378.945 398.743 379.719 398.318C380.575 397.931 381.57 397.995 382.375 398.483C383.162 398.965 383.91 399.516 384.607 400.119C388.373 402.94 393.458 402.984 398.156 402.915C399.265 402.991 400.368 402.788 401.383 402.338C402.613 401.647 403.297 400.277 403.114 398.876C402.797 396.797 400.438 395.846 398.916 394.73C396.786 393.157 394.529 391.763 392.171 390.558H392.164Z" fill="url(#paint13_linear_9519_2823)"/>
<path d="M327.229 243.242C328.389 246.519 331.553 248.656 334.792 249.937C340.207 252.08 346.141 252.46 351.967 252.682C356.837 252.859 361.712 252.936 366.587 252.917C367.526 252.961 368.464 252.859 369.364 252.612C371.197 252.016 372.433 250.355 373.561 248.789C374.684 247.223 375.977 245.061 375.127 243.216C374.278 241.371 371.926 240.959 369.935 241.251C367.944 241.543 366.074 242.348 364.102 242.177L364.343 239.4C363.481 238.854 362.485 239.748 361.75 240.389C358.593 242.982 353.964 242.05 349.989 240.966L333.03 236.331C331.14 235.811 328.953 234.531 327.565 236.331C326.309 237.986 326.614 241.473 327.229 243.242Z" fill="#FFB4A3"/>
<path d="M376.193 216.398C376.434 215.676 376.929 215.061 377.575 214.668C378.438 214.116 383.63 214.122 386.23 214.167C387.092 214.167 387.2 215.302 386.509 216.614L386.623 216.424L376.2 216.398H376.193Z" fill="#F8FAFC"/>
<path d="M376.193 216.398C376.434 215.676 376.929 215.061 377.575 214.668C378.438 214.116 383.63 214.122 386.23 214.167C387.092 214.167 387.2 215.302 386.509 216.614L386.623 216.424L376.2 216.398H376.193Z" fill="url(#paint14_linear_9519_2823)"/>
<path d="M354.017 127.332L355.361 129.742L351.969 131.06L353.199 133.216L356.128 132.056L356.977 133.907L360.116 133.134L359.012 131.257L361.656 130.667L360.471 128.436L357.852 129L356.825 126.889L354.017 127.332Z" fill="#F8FAFC"/>
<defs>
<linearGradient id="paint0_linear_9519_2823" x1="719" y1="258.23" x2="0" y2="258.23" gradientUnits="userSpaceOnUse">
<stop stop-color="#BB00FF"/>
<stop offset="1" stop-color="#EBB6FF"/>
</linearGradient>
<linearGradient id="paint1_linear_9519_2823" x1="350.465" y1="120.175" x2="355.709" y2="137.141" gradientUnits="userSpaceOnUse">
<stop offset="0.02" stop-color="white" stop-opacity="0"/>
<stop offset="0.39" stop-color="white" stop-opacity="0.39"/>
<stop offset="1" stop-color="white"/>
</linearGradient>
<linearGradient id="paint2_linear_9519_2823" x1="375.364" y1="211.261" x2="386.471" y2="208.174" gradientUnits="userSpaceOnUse">
<stop offset="0.02" stop-color="white" stop-opacity="0"/>
<stop offset="0.39" stop-color="white" stop-opacity="0.39"/>
<stop offset="1" stop-color="white"/>
</linearGradient>
<linearGradient id="paint3_linear_9519_2823" x1="360.292" y1="169.279" x2="343.973" y2="200.06" gradientUnits="userSpaceOnUse">
<stop stop-color="#231F20" stop-opacity="0"/>
<stop offset="1" stop-color="#231F20"/>
</linearGradient>
<linearGradient id="paint4_linear_9519_2823" x1="302.763" y1="309.246" x2="367.545" y2="301.841" gradientUnits="userSpaceOnUse">
<stop offset="0.02" stop-color="white" stop-opacity="0"/>
<stop offset="0.39" stop-color="white" stop-opacity="0.39"/>
<stop offset="1" stop-color="white"/>
</linearGradient>
<linearGradient id="paint5_linear_9519_2823" x1="322.709" y1="236.248" x2="372.687" y2="236.248" gradientUnits="userSpaceOnUse">
<stop offset="0.02" stop-color="white" stop-opacity="0"/>
<stop offset="0.39" stop-color="white" stop-opacity="0.39"/>
<stop offset="1" stop-color="white"/>
</linearGradient>
<linearGradient id="paint6_linear_9519_2823" x1="288.89" y1="295.579" x2="354.605" y2="296.961" gradientUnits="userSpaceOnUse">
<stop stop-color="#231F20" stop-opacity="0"/>
<stop offset="1" stop-color="#231F20"/>
</linearGradient>
<linearGradient id="paint7_linear_9519_2823" x1="383.971" y1="209.125" x2="378.627" y2="229.483" gradientUnits="userSpaceOnUse">
<stop stop-color="#231F20" stop-opacity="0"/>
<stop offset="1" stop-color="#231F20"/>
</linearGradient>
<linearGradient id="paint8_linear_9519_2823" x1="385.646" y1="269.894" x2="373.714" y2="214.159" gradientUnits="userSpaceOnUse">
<stop stop-color="#231F20" stop-opacity="0"/>
<stop offset="1" stop-color="#231F20"/>
</linearGradient>
<linearGradient id="paint9_linear_9519_2823" x1="324.947" y1="233.636" x2="353.483" y2="236.724" gradientUnits="userSpaceOnUse">
<stop stop-color="#231F20" stop-opacity="0"/>
<stop offset="1" stop-color="#231F20"/>
</linearGradient>
<linearGradient id="paint10_linear_9519_2823" x1="324.307" y1="213.208" x2="350.605" y2="213.208" gradientUnits="userSpaceOnUse">
<stop offset="0.02" stop-color="white" stop-opacity="0"/>
<stop offset="0.39" stop-color="white" stop-opacity="0.39"/>
<stop offset="1" stop-color="white"/>
</linearGradient>
<linearGradient id="paint11_linear_9519_2823" x1="356.362" y1="189.572" x2="359.449" y2="181.343" gradientUnits="userSpaceOnUse">
<stop offset="0.02" stop-color="white" stop-opacity="0"/>
<stop offset="0.39" stop-color="white" stop-opacity="0.39"/>
<stop offset="1" stop-color="white"/>
</linearGradient>
<linearGradient id="paint12_linear_9519_2823" x1="337.469" y1="395.838" x2="367.343" y2="395.838" gradientUnits="userSpaceOnUse">
<stop stop-color="#231F20" stop-opacity="0"/>
<stop offset="1" stop-color="#231F20"/>
</linearGradient>
<linearGradient id="paint13_linear_9519_2823" x1="373.252" y1="396.144" x2="403.126" y2="396.144" gradientUnits="userSpaceOnUse">
<stop stop-color="#231F20" stop-opacity="0"/>
<stop offset="1" stop-color="#231F20"/>
</linearGradient>
<linearGradient id="paint14_linear_9519_2823" x1="381.658" y1="214.42" x2="381.475" y2="217.527" gradientUnits="userSpaceOnUse">
<stop offset="0.02" stop-color="white" stop-opacity="0"/>
<stop offset="0.39" stop-color="white" stop-opacity="0.39"/>
<stop offset="1" stop-color="white"/>
</linearGradient>
</defs>
</svg>
