<svg width="483" height="213" viewBox="0 0 483 213" fill="none" xmlns="http://www.w3.org/2000/svg">
<path d="M0 30C0 13.4315 13.4315 0 30 0H453C469.569 0 483 13.4315 483 30V213H0V30Z" fill="#ECEEF0"/>
<g filter="url(#filter0_d_9507_1771)">
<path d="M36 38.5C36 36.0147 38.0147 34 40.5 34H473.5C475.985 34 478 36.0147 478 38.5V38.5C478 40.9853 475.985 43 473.5 43H40.5C38.0147 43 36 40.9853 36 38.5V38.5Z" fill="#CFCFCF" fill-opacity="0.7" shape-rendering="crispEdges"/>
</g>
<g filter="url(#filter1_d_9507_1771)">
<path d="M31.5 213C29.567 213 28 211.433 28 209.5L28 43.5C28 41.567 29.567 40 31.5 40V40C33.433 40 35 41.567 35 43.5L35 209.5C35 211.433 33.433 213 31.5 213V213Z" fill="#CFCFCF" fill-opacity="0.7" shape-rendering="crispEdges"/>
</g>
<path d="M28 39C28 36.7909 29.7909 35 32 35H479C481.209 35 483 36.7909 483 39V209C483 211.209 481.209 213 479 213H32C29.7909 213 28 211.209 28 209V39Z" fill="url(#paint0_linear_9507_1771)"/>
<path opacity="0.18" d="M294.019 155.503C296.647 151.677 298.623 147.405 299.783 142.91C306.037 118.646 286.909 97.7619 267.323 86.3877C256.994 80.3894 244.051 77.8092 232.961 82.2461C226.083 84.9992 220.491 90.1437 214.432 94.4103C208.237 98.77 201.446 102.268 195.461 106.912C185.302 114.794 180.977 124.655 182.216 137.417C183.238 147.932 187.688 157.968 194.437 166.057C200.6 173.444 212.711 175.405 221.872 173.787C229.333 172.471 236.286 168.664 243.846 168.156C253.693 167.494 263.519 172.508 273.199 170.582C276.468 169.93 279.546 168.505 282.368 166.733C286.97 163.844 290.941 159.982 294.019 155.505V155.503Z" fill="#F8FAFC"/>
<path d="M210.025 104.088C210.025 104.088 208.37 105.189 216.363 109.738C224.357 114.286 234.286 119.255 236.345 124.636C238.402 130.015 238.46 135.266 238.46 135.266C238.46 135.266 262.448 144.775 263.658 145.653C264.869 146.531 266.385 145.653 266.385 145.653L263.658 114.989C263.658 114.989 255.88 103.045 243.7 101.087C231.52 99.1297 210.025 104.088 210.025 104.088Z" fill="#F8FAFC"/>
<path d="M210.025 104.088C210.025 104.088 208.37 105.189 216.363 109.738C224.357 114.286 234.286 119.255 236.345 124.636C238.402 130.015 238.46 135.266 238.46 135.266C238.46 135.266 262.448 144.775 263.658 145.653C264.869 146.531 266.385 145.653 266.385 145.653L263.658 114.989C263.658 114.989 255.88 103.045 243.7 101.087C231.52 99.1297 210.025 104.088 210.025 104.088Z" fill="url(#paint1_linear_9507_1771)"/>
<path d="M250.02 123.336H246.299V170.923H250.02V123.336Z" fill="#F8FAFC"/>
<path d="M250.02 123.336H246.299V170.923H250.02V123.336Z" fill="url(#paint2_linear_9507_1771)"/>
<path d="M259.993 147.417H236.968C235.865 147.417 234.971 148.311 234.971 149.415C234.971 150.518 235.865 151.412 236.968 151.412H259.993C261.097 151.412 261.991 150.518 261.991 149.415C261.991 148.311 261.097 147.417 259.993 147.417Z" fill="#F8FAFC"/>
<path d="M259.993 151.909H236.968C235.865 151.909 234.971 152.804 234.971 153.907C234.971 155.01 235.865 155.905 236.968 155.905H259.993C261.097 155.905 261.991 155.01 261.991 153.907C261.991 152.804 261.097 151.909 259.993 151.909Z" fill="#F8FAFC"/>
<path d="M259.992 160.395L235.619 161.743C234.515 161.743 234.97 159.501 234.97 158.397C234.97 157.293 235.864 156.399 236.967 156.399H259.992C261.096 156.399 261.99 157.293 261.99 158.397C261.99 159.501 261.096 160.395 259.992 160.395Z" fill="#F8FAFC"/>
<path d="M259.992 165.377L235.619 167.851C234.515 167.851 234.97 165.609 234.97 164.505C234.97 163.401 235.864 162.507 236.967 162.507L259.992 161.382C261.096 161.382 261.99 162.276 261.99 163.379V164.505C261.99 165.609 261.096 165.377 259.992 165.377Z" fill="#F8FAFC"/>
<path d="M251.479 125.447C258.206 125.447 263.659 119.994 263.659 113.267C263.659 106.54 258.206 101.087 251.479 101.087C244.752 101.087 239.299 106.54 239.299 113.267C239.299 119.994 244.752 125.447 251.479 125.447Z" fill="#F8FAFC"/>
<path d="M251.479 125.447C258.206 125.447 263.659 119.994 263.659 113.267C263.659 106.54 258.206 101.087 251.479 101.087C244.752 101.087 239.299 106.54 239.299 113.267C239.299 119.994 244.752 125.447 251.479 125.447Z" fill="url(#paint3_linear_9507_1771)"/>
<path d="M251.478 120.79C255.632 120.79 259 117.422 259 113.268C259 109.113 255.632 105.745 251.478 105.745C247.323 105.745 243.955 109.113 243.955 113.268C243.955 117.422 247.323 120.79 251.478 120.79Z" fill="url(#paint4_linear_9507_1771)"/>
<path d="M210.437 107.671C210.437 107.671 225.182 101.47 232.071 110.014C238.961 118.558 239.788 122.83 239.099 125.309C238.41 127.788 238.272 132.199 238.272 132.199L213.467 143.775L208.184 140.652L209.195 136.885C209.195 136.885 204.601 135.14 204.511 133.946C204.418 132.752 210.206 126.506 210.666 124.208C211.126 121.912 209.932 110.613 209.932 110.613L210.437 107.673V107.671Z" fill="#F8FAFC"/>
<path d="M214.892 144.693L238.135 133.67L240.708 146.347C240.708 146.347 215.076 158.748 214.249 157.557C213.421 156.365 214.249 153.146 214.249 150.484C214.249 147.821 214.892 144.696 214.892 144.696V144.693Z" fill="#F8FAFC"/>
<path d="M210.629 118.777C210.629 118.777 222.977 114.284 224.631 117.593C226.286 120.899 226.698 122.416 226.698 122.416L210.666 124.206L210.629 118.777Z" fill="url(#paint5_linear_9507_1771)"/>
<path d="M272.034 128.752C270.241 132.337 266.384 145.648 266.384 145.648L253.842 133.667C261.559 122.458 258.968 111.853 253.313 106.785C247.663 101.715 232.757 106.7 232.757 106.7C228.386 103.748 223.593 102.849 219.528 102.779C214.115 102.692 210.021 104.083 210.021 104.083C214.091 95.8128 220.124 89.5911 228.668 86.0985C233.118 84.2791 239.066 85.907 243.676 86.8885C249.025 88.027 254.257 89.7135 259.263 91.9133C262.767 93.4534 266.161 95.2463 269.406 97.2785C272.093 98.9596 275.152 101.08 276.45 104.109C277.729 107.097 277.532 110.94 277.08 114.076C276.335 119.239 274.354 124.113 272.034 128.749V128.752Z" fill="#F8FAFC"/>
<path d="M250.325 110.762H251.237L253.416 115.77H252.171L251.74 114.709H249.795L249.378 115.77H248.162L250.327 110.762H250.325ZM250.748 112.219L250.138 113.775H251.362L250.748 112.219Z" fill="white"/>
<path d="M253.904 110.762H255.008V115.77H253.904V110.762Z" fill="white"/>
<path d="M233.296 88.4254C233.304 88.8802 231.94 88.96 231.477 89.1622C230.4 89.6304 229.357 90.181 228.36 90.8061C226.644 91.8807 225.069 93.1708 223.657 94.6205C222.675 95.6287 221.765 96.7166 220.962 97.8737C220.72 98.2222 220.151 98.826 220.082 99.2622C220.082 99.2622 219.534 102.784 219.528 102.784C214.115 102.696 210.021 104.087 210.021 104.087C213.972 96.0596 220.191 89.0718 228.804 86.0553C229.615 85.7707 230.081 85.4568 230.724 85.9968C231.474 86.6219 232.115 87.3534 232.924 87.9546C233.185 88.1487 233.291 88.3004 233.294 88.428L233.296 88.4254Z" fill="url(#paint6_linear_9507_1771)"/>
<path d="M276.067 103.332C275.296 105.298 264.212 101.678 251.981 96.8739C239.75 92.0699 229.554 87.5373 230.328 85.5715C231.103 83.6058 242.549 84.9517 254.779 89.7557C267.01 94.5597 276.841 101.367 276.07 103.332H276.067Z" fill="url(#paint7_linear_9507_1771)"/>
<path d="M221.221 138.686L225.871 137.986L213.47 143.774L210.025 140.372L221.221 138.686Z" fill="url(#paint8_linear_9507_1771)"/>
<path d="M276.283 167.853C275.849 167.853 275.434 167.502 275.354 167.071L265.744 115.587C265.664 115.153 265.949 114.805 266.38 114.805C266.813 114.805 267.228 115.156 267.308 115.587L276.919 167.071C276.998 167.505 276.714 167.853 276.283 167.853Z" fill="#231F20"/>
<path d="M285.117 167.853C284.683 167.853 284.268 167.502 284.188 167.071L274.578 115.587C274.498 115.153 274.783 114.805 275.214 114.805C275.647 114.805 276.062 115.156 276.142 115.587L285.753 167.071C285.832 167.505 285.548 167.853 285.117 167.853Z" fill="#231F20"/>
<path d="M275.613 119.433H267.516L267.301 118.281H275.398L275.613 119.433Z" fill="#231F20"/>
<path d="M276.48 124.075H268.383L268.168 122.926H276.265L276.48 124.075Z" fill="#231F20"/>
<path d="M277.348 128.719H269.251L269.035 127.567H277.132L277.348 128.719Z" fill="#231F20"/>
<path d="M278.215 133.361H270.118L269.902 132.212H277.999L278.215 133.361Z" fill="#231F20"/>
<path d="M279.079 138.005H270.982L270.77 136.854H278.867L279.079 138.005Z" fill="#231F20"/>
<path d="M279.947 142.647H271.85L271.637 141.498H279.734L279.947 142.647Z" fill="#231F20"/>
<path d="M280.813 147.291H272.715L272.5 146.14H280.597L280.813 147.291Z" fill="#231F20"/>
<path d="M281.68 151.933H273.583L273.367 150.784H281.464L281.68 151.933Z" fill="#231F20"/>
<path d="M282.547 156.578H274.45L274.234 155.426H282.331L282.547 156.578Z" fill="#231F20"/>
<path d="M283.414 161.222H275.317L275.102 160.07H283.199L283.414 161.222Z" fill="#231F20"/>
<path d="M285.409 110.147V128.062L286.718 138.287C286.718 138.287 285.508 138.843 284.231 138.603C282.954 138.364 280.416 122.037 280.416 122.037L278.594 133.294V138.664C278.594 138.664 276.137 139.199 275.187 138.664C274.235 138.13 275.187 120.215 275.187 120.215L276.932 109.83L285.415 110.147H285.409Z" fill="#F8FAFC"/>
<path d="M285.582 99.5007C285.582 99.5007 285.457 100.538 283.265 100.833C281.073 101.131 276.019 93.4625 276.019 93.4625C276.019 93.4625 274.147 93.1194 273.078 92.1618C272.982 92.074 272.883 91.8585 272.902 91.7309C272.921 91.6032 272.971 91.4728 272.945 91.3452C272.929 91.2733 272.891 91.2068 272.889 91.1324C272.889 91.0047 273.003 90.8983 273.128 90.869C273.253 90.8398 273.383 90.8664 273.508 90.8903C274.304 91.0446 275.112 91.127 275.921 91.135C276.105 91.135 276.309 91.1244 276.432 90.9887C276.647 90.7467 276.437 90.3104 276.653 90.0684C276.993 90.1029 277.216 90.4567 277.27 90.7945C277.323 91.1324 277.264 91.4808 277.31 91.8186C277.379 92.332 277.682 92.7869 278.049 93.154C278.416 93.521 278.85 93.811 279.254 94.1328C280.552 95.1702 281.576 96.5455 282.991 97.4153C283.364 97.2291 283.715 97.0056 284.045 96.7503C284.859 97.4818 285.25 98.4607 285.585 99.5007H285.582Z" fill="#F3B6A5"/>
<path d="M259.505 93.8781L261.401 97.1632C261.617 97.5436 262.077 97.7085 262.487 97.5489L264.636 96.6844C265.038 96.9744 265.469 97.2244 265.921 97.4319L266.251 99.7115C266.312 100.145 266.684 100.467 267.123 100.462H270.908C271.347 100.462 271.72 100.14 271.778 99.7035L272.108 97.4319C272.56 97.2271 272.991 96.977 273.395 96.6844L275.537 97.5463C275.949 97.7032 276.412 97.5356 276.63 97.1526L278.518 93.8861C278.737 93.5057 278.643 93.0243 278.303 92.7503L276.486 91.3298C276.542 90.8351 276.542 90.335 276.486 89.8376L278.303 88.4171C278.649 88.1432 278.739 87.6564 278.518 87.276L276.627 84.0042C276.414 83.6238 275.952 83.4589 275.542 83.6185L273.395 84.4803C272.994 84.1904 272.563 83.9404 272.111 83.7329L271.781 81.4533C271.72 81.0197 271.347 80.7005 270.911 80.7031H267.126C266.684 80.7005 266.312 81.025 266.251 81.4612L265.923 83.7355C265.471 83.9404 265.04 84.1904 264.639 84.483L262.497 83.6212C262.085 83.4642 261.622 83.6318 261.404 84.0148L259.515 87.2787C259.3 87.659 259.39 88.1405 259.731 88.4145L261.548 89.8349C261.492 90.3297 261.492 90.8298 261.548 91.3272L259.731 92.7476C259.39 93.0189 259.297 93.4951 259.51 93.8755L259.505 93.8781ZM264.897 90.585C264.897 88.3134 266.74 86.47 269.012 86.47C271.283 86.47 273.127 88.3134 273.127 90.585C273.127 92.8567 271.283 94.7001 269.012 94.7001C266.74 94.6974 264.899 92.8567 264.897 90.585Z" fill="#E4E4E4"/>
<path d="M259.505 93.8781L261.401 97.1632C261.617 97.5436 262.077 97.7085 262.487 97.5489L264.636 96.6844C265.038 96.9744 265.469 97.2244 265.921 97.4319L266.251 99.7115C266.312 100.145 266.684 100.467 267.123 100.462H270.908C271.347 100.462 271.72 100.14 271.778 99.7035L272.108 97.4319C272.56 97.2271 272.991 96.977 273.395 96.6844L275.537 97.5463C275.949 97.7032 276.412 97.5356 276.63 97.1526L278.518 93.8861C278.737 93.5057 278.643 93.0243 278.303 92.7503L276.486 91.3298C276.542 90.8351 276.542 90.335 276.486 89.8376L278.303 88.4171C278.649 88.1432 278.739 87.6564 278.518 87.276L276.627 84.0042C276.414 83.6238 275.952 83.4589 275.542 83.6185L273.395 84.4803C272.994 84.1904 272.563 83.9404 272.111 83.7329L271.781 81.4533C271.72 81.0197 271.347 80.7005 270.911 80.7031H267.126C266.684 80.7005 266.312 81.025 266.251 81.4612L265.923 83.7355C265.471 83.9404 265.04 84.1904 264.639 84.483L262.497 83.6212C262.085 83.4642 261.622 83.6318 261.404 84.0148L259.515 87.2787C259.3 87.659 259.39 88.1405 259.731 88.4145L261.548 89.8349C261.492 90.3297 261.492 90.8298 261.548 91.3272L259.731 92.7476C259.39 93.0189 259.297 93.4951 259.51 93.8755L259.505 93.8781ZM264.897 90.585C264.897 88.3134 266.74 86.47 269.012 86.47C271.283 86.47 273.127 88.3134 273.127 90.585C273.127 92.8567 271.283 94.7001 269.012 94.7001C266.74 94.6974 264.899 92.8567 264.897 90.585Z" fill="url(#paint9_linear_9507_1771)"/>
<path d="M258.253 93.6545L260.149 96.9396C260.365 97.32 260.825 97.4849 261.235 97.3253L263.384 96.4608C263.786 96.7507 264.217 97.0008 264.669 97.2083L264.999 99.4879C265.06 99.9214 265.432 100.243 265.871 100.238H269.656C270.095 100.238 270.468 99.9161 270.526 99.4799L270.856 97.2083C271.308 97.0034 271.739 96.7534 272.143 96.4608L274.285 97.3226C274.697 97.4796 275.16 97.312 275.378 96.9289L277.267 93.6625C277.485 93.2821 277.392 92.8006 277.051 92.5266L275.234 91.1062C275.29 90.6114 275.29 90.1114 275.234 89.6139L277.051 88.1935C277.397 87.9195 277.487 87.4328 277.267 87.0524L275.375 83.7806C275.162 83.4002 274.7 83.2353 274.29 83.3949L272.143 84.2567C271.742 83.9668 271.311 83.7167 270.859 83.5093L270.529 81.2296C270.468 80.796 270.095 80.4768 269.659 80.4795H265.874C265.432 80.4768 265.06 80.8014 264.999 81.2376L264.671 83.5119C264.219 83.7167 263.788 83.9668 263.387 84.2594L261.245 83.3975C260.833 83.2406 260.37 83.4082 260.152 83.7912L258.263 87.055C258.048 87.4354 258.138 87.9169 258.479 88.1909L260.296 89.6113C260.24 90.106 260.24 90.6061 260.296 91.1036L258.479 92.524C258.138 92.7953 258.045 93.2714 258.258 93.6518L258.253 93.6545ZM263.645 90.3614C263.645 88.0898 265.488 86.2464 267.76 86.2464C270.031 86.2464 271.875 88.0898 271.875 90.3614C271.875 92.633 270.031 94.4764 267.76 94.4764C265.488 94.4738 263.647 92.633 263.645 90.3614Z" fill="#E4E4E4"/>
<path d="M284.92 86.7441C284.92 86.7441 283.805 87.4863 283.656 87.9784C283.508 88.4705 283.715 88.7072 283.21 88.7365C282.704 88.7657 282.273 88.8854 282.289 88.9599C282.305 89.0344 282.422 89.4813 282.422 89.4813C282.422 89.4813 281.635 90.907 281.755 91.2635C281.874 91.6199 282.765 92.0961 283.656 92.0668C284.548 92.0375 285.38 91.8301 285.38 91.8301C285.38 91.8301 286.747 90.5825 286.718 90.0479C286.689 89.5132 286.005 86.659 284.92 86.7495V86.7441Z" fill="#F3B6A5"/>
<path d="M283.289 91.6383C283.289 91.6383 283.744 93.5615 283.289 93.8967C282.834 94.2318 284.478 94.7878 285.289 94.5297C286.101 94.2717 286.181 94.0935 286.181 94.0935C286.181 94.0935 285.566 91.5958 285.704 91.0425C285.843 90.4892 283.286 91.6357 283.286 91.6357L283.289 91.6383Z" fill="#F3B6A5"/>
<path d="M284.771 85.4563C284.614 85.5893 284.521 85.7888 284.481 85.9909C284.407 86.374 284.508 86.7863 284.75 87.0895C284.545 87.0815 284.42 87.3369 284.457 87.539C284.495 87.7412 284.633 87.9088 284.715 88.0976C284.846 88.3929 284.843 88.7307 284.769 89.0446C284.694 89.3585 284.553 89.6511 284.412 89.941C284.561 90.0075 284.753 89.965 284.859 89.8426C284.894 89.8027 284.92 89.7575 284.965 89.7282C285.027 89.691 285.104 89.699 285.17 89.7282C285.439 89.8399 285.513 90.2177 285.375 90.473C285.237 90.7284 284.955 90.8747 284.673 90.9465C284.62 90.9598 284.561 90.9731 284.524 91.013C284.473 91.0662 284.471 91.146 284.473 91.2178C284.481 91.4998 284.513 91.7791 284.572 92.0557C284.614 92.2526 284.689 92.4707 284.872 92.5478C285.035 92.4281 285.194 92.3111 285.356 92.1914C285.481 92.4467 285.753 92.6915 286.024 92.601C286.192 92.5452 286.293 92.3829 286.394 92.2393C286.62 91.9174 286.907 91.6354 287.232 91.4147C287.625 91.1487 288.075 90.9651 288.434 90.6539C288.793 90.3427 289.048 89.8373 288.881 89.3957C288.836 89.2787 288.764 89.167 288.761 89.0419C288.761 88.9621 288.788 88.885 288.809 88.8079C288.963 88.2546 288.788 87.6534 288.471 87.1746C288.155 86.6958 287.708 86.3234 287.264 85.959C286.979 85.7249 286.681 85.4855 286.327 85.3791C286.019 85.2887 285.716 85.3259 285.402 85.3206C285.168 85.3206 284.963 85.2887 284.769 85.4563H284.771Z" fill="#606060"/>
<path d="M286.082 93.6733C286.082 93.6733 288.819 94.849 288.936 96.4344C289.054 98.0197 286.675 103.568 286.675 103.568L285.646 111.179C285.646 111.179 280.097 112.131 277.163 111.179L276.371 109.91L277.4 102.22L276.767 101.664L275.182 98.9161C275.182 98.9161 279.225 94.1946 280.643 93.9313C282.06 93.668 286.08 93.668 286.08 93.668L286.082 93.6733Z" fill="white"/>
<path d="M277.918 138.526C277.918 138.526 278.474 140.766 277.918 141.181C277.363 141.596 276.471 141.697 276.471 141.697C276.471 141.697 274.806 141.341 274.351 141.439C273.897 141.537 271.399 141.934 270.766 141.221C270.133 140.508 271.322 139.992 271.322 139.992C271.322 139.992 274.907 139.218 275.266 138.526C275.623 137.832 277.921 138.526 277.921 138.526H277.918Z" fill="#231F20"/>
<path d="M286.469 138.287C286.469 138.287 287.025 140.527 286.469 140.942C285.913 141.357 285.022 141.458 285.022 141.458C285.022 141.458 283.357 141.101 282.902 141.2C282.447 141.298 279.95 141.695 279.317 140.982C278.683 140.269 279.872 139.753 279.872 139.753C279.872 139.753 283.458 138.979 283.817 138.287C284.174 137.593 286.472 138.287 286.472 138.287H286.469Z" fill="#231F20"/>
<path d="M277.08 101.937C277.08 101.937 276.955 102.975 274.763 103.27C272.572 103.568 267.518 95.899 267.518 95.899C267.518 95.899 265.645 95.5559 264.576 94.5983C264.48 94.5105 264.381 94.2951 264.4 94.1674C264.419 94.0397 264.469 93.9094 264.443 93.7817C264.427 93.7099 264.389 93.6434 264.387 93.5689C264.387 93.4412 264.501 93.3348 264.626 93.3055C264.751 93.2763 264.881 93.3029 265.006 93.3268C265.802 93.4811 266.61 93.5636 267.419 93.5715C267.603 93.5715 267.807 93.5609 267.93 93.4252C268.145 93.1832 267.935 92.7469 268.151 92.5049C268.491 92.5395 268.715 92.8932 268.768 93.2311C268.821 93.5689 268.762 93.9173 268.808 94.2552C268.877 94.7685 269.18 95.2234 269.547 95.5905C269.914 95.9549 270.348 96.2475 270.752 96.5694C272.05 97.6068 273.074 98.982 274.489 99.8518C274.862 99.6656 275.213 99.4422 275.543 99.1868C276.357 99.9183 276.748 100.897 277.083 101.937H277.08Z" fill="#F3B6A5"/>
<path opacity="0.51" d="M276.586 100.238C276.586 100.238 280.589 96.5088 281.318 95.9529C282.049 95.3969 283.927 95.1123 283.927 95.1123L288.723 95.7507C288.723 95.7507 289.412 96.8892 288.271 99.3976C287.13 101.906 286.622 103.965 286.622 103.965L285.648 111.179L285.411 127.625L286.72 138.289L285.217 138.904L282.432 119.414L280.416 122.042C280.416 122.042 278.166 135.438 278.594 138.667C279.022 141.896 278.166 138.904 278.166 138.904H276.168L277.378 122.196L278.166 116.906L280.413 110.421L282.063 100.241L277.402 102.222L277.078 100.462" fill="url(#paint10_linear_9507_1771)"/>
<defs>
<filter id="filter0_d_9507_1771" x="26" y="25" width="452" height="18" filterUnits="userSpaceOnUse" color-interpolation-filters="sRGB">
<feFlood flood-opacity="0" result="BackgroundImageFix"/>
<feColorMatrix in="SourceAlpha" type="matrix" values="0 0 0 0 0 0 0 0 0 0 0 0 0 0 0 0 0 0 127 0" result="hardAlpha"/>
<feOffset dx="-6" dy="-5"/>
<feGaussianBlur stdDeviation="2"/>
<feComposite in2="hardAlpha" operator="out"/>
<feColorMatrix type="matrix" values="0 0 0 0 0.592157 0 0 0 0 0.580392 0 0 0 0 0.580392 0 0 0 0.25 0"/>
<feBlend mode="normal" in2="BackgroundImageFix" result="effect1_dropShadow_9507_1771"/>
<feBlend mode="normal" in="SourceGraphic" in2="effect1_dropShadow_9507_1771" result="shape"/>
</filter>
<filter id="filter1_d_9507_1771" x="18" y="32" width="17" height="181" filterUnits="userSpaceOnUse" color-interpolation-filters="sRGB">
<feFlood flood-opacity="0" result="BackgroundImageFix"/>
<feColorMatrix in="SourceAlpha" type="matrix" values="0 0 0 0 0 0 0 0 0 0 0 0 0 0 0 0 0 0 127 0" result="hardAlpha"/>
<feOffset dx="-6" dy="-4"/>
<feGaussianBlur stdDeviation="2"/>
<feComposite in2="hardAlpha" operator="out"/>
<feColorMatrix type="matrix" values="0 0 0 0 0.593099 0 0 0 0 0.580629 0 0 0 0 0.580629 0 0 0 0.25 0"/>
<feBlend mode="normal" in2="BackgroundImageFix" result="effect1_dropShadow_9507_1771"/>
<feBlend mode="normal" in="SourceGraphic" in2="effect1_dropShadow_9507_1771" result="shape"/>
</filter>
<linearGradient id="paint0_linear_9507_1771" x1="28" y1="124" x2="483" y2="124" gradientUnits="userSpaceOnUse">
<stop stop-color="#0173BF"/>
<stop offset="1" stop-color="#013A5F"/>
</linearGradient>
<linearGradient id="paint1_linear_9507_1771" x1="233.8" y1="132.084" x2="274.588" y2="65.111" gradientUnits="userSpaceOnUse">
<stop stop-color="#221F20"/>
<stop offset="0.2" stop-color="#221F20" stop-opacity="0.69"/>
<stop offset="0.23" stop-color="#221F20" stop-opacity="0.6"/>
<stop offset="0.35" stop-color="#221F20" stop-opacity="0.25"/>
<stop offset="0.52" stop-color="#221F20" stop-opacity="0.06"/>
<stop offset="1" stop-color="#221F20" stop-opacity="0"/>
</linearGradient>
<linearGradient id="paint2_linear_9507_1771" x1="236.364" y1="146.598" x2="273.019" y2="148.249" gradientUnits="userSpaceOnUse">
<stop stop-color="#221F20"/>
<stop offset="0.2" stop-color="#221F20" stop-opacity="0.69"/>
<stop offset="0.23" stop-color="#221F20" stop-opacity="0.6"/>
<stop offset="0.35" stop-color="#221F20" stop-opacity="0.25"/>
<stop offset="0.52" stop-color="#221F20" stop-opacity="0.06"/>
<stop offset="1" stop-color="#221F20" stop-opacity="0"/>
</linearGradient>
<linearGradient id="paint3_linear_9507_1771" x1="262.744" y1="104.143" x2="217.822" y2="140.524" gradientUnits="userSpaceOnUse">
<stop stop-color="#221F20"/>
<stop offset="0.2" stop-color="#221F20" stop-opacity="0.69"/>
<stop offset="0.23" stop-color="#221F20" stop-opacity="0.6"/>
<stop offset="0.35" stop-color="#221F20" stop-opacity="0.25"/>
<stop offset="0.52" stop-color="#221F20" stop-opacity="0.06"/>
<stop offset="1" stop-color="#221F20" stop-opacity="0"/>
</linearGradient>
<linearGradient id="paint4_linear_9507_1771" x1="253.776" y1="112.416" x2="276.099" y2="104.146" gradientUnits="userSpaceOnUse">
<stop stop-color="#221F20"/>
<stop offset="0.2" stop-color="#221F20" stop-opacity="0.69"/>
<stop offset="0.23" stop-color="#221F20" stop-opacity="0.6"/>
<stop offset="0.35" stop-color="#221F20" stop-opacity="0.25"/>
<stop offset="0.52" stop-color="#221F20" stop-opacity="0.06"/>
<stop offset="1" stop-color="#221F20" stop-opacity="0"/>
</linearGradient>
<linearGradient id="paint5_linear_9507_1771" x1="206.423" y1="89.1576" x2="230.677" y2="156.679" gradientUnits="userSpaceOnUse">
<stop stop-color="#221F20"/>
<stop offset="0.2" stop-color="#221F20" stop-opacity="0.69"/>
<stop offset="0.23" stop-color="#221F20" stop-opacity="0.6"/>
<stop offset="0.35" stop-color="#221F20" stop-opacity="0.25"/>
<stop offset="0.52" stop-color="#221F20" stop-opacity="0.06"/>
<stop offset="1" stop-color="#221F20" stop-opacity="0"/>
</linearGradient>
<linearGradient id="paint6_linear_9507_1771" x1="239.776" y1="93.2586" x2="198.466" y2="96.6767" gradientUnits="userSpaceOnUse">
<stop stop-color="white"/>
<stop offset="1" stop-color="white" stop-opacity="0"/>
</linearGradient>
<linearGradient id="paint7_linear_9507_1771" x1="250.063" y1="100.361" x2="264.315" y2="73.4898" gradientUnits="userSpaceOnUse">
<stop stop-color="#221F20"/>
<stop offset="0.2" stop-color="#221F20" stop-opacity="0.69"/>
<stop offset="0.23" stop-color="#221F20" stop-opacity="0.6"/>
<stop offset="0.35" stop-color="#221F20" stop-opacity="0.25"/>
<stop offset="0.52" stop-color="#221F20" stop-opacity="0.06"/>
<stop offset="1" stop-color="#221F20" stop-opacity="0"/>
</linearGradient>
<linearGradient id="paint8_linear_9507_1771" x1="202.335" y1="130.759" x2="242.94" y2="154.462" gradientUnits="userSpaceOnUse">
<stop offset="0.2" stop-opacity="0.69"/>
<stop offset="0.32" stop-opacity="0.32"/>
<stop offset="1" stop-opacity="0"/>
</linearGradient>
<linearGradient id="paint9_linear_9507_1771" x1="302.323" y1="70.7255" x2="203.812" y2="129.453" gradientUnits="userSpaceOnUse">
<stop stop-color="#221F20"/>
<stop offset="0.08" stop-color="#221F20" stop-opacity="0.69"/>
<stop offset="0.11" stop-color="#221F20" stop-opacity="0.6"/>
<stop offset="0.25" stop-color="#221F20" stop-opacity="0.25"/>
<stop offset="0.45" stop-color="#221F20" stop-opacity="0.06"/>
<stop offset="1" stop-color="#221F20" stop-opacity="0"/>
</linearGradient>
<linearGradient id="paint10_linear_9507_1771" x1="338.077" y1="84.8846" x2="174.511" y2="182.4" gradientUnits="userSpaceOnUse">
<stop stop-color="#221F20"/>
<stop offset="0.08" stop-color="#221F20" stop-opacity="0.69"/>
<stop offset="0.11" stop-color="#221F20" stop-opacity="0.6"/>
<stop offset="0.25" stop-color="#221F20" stop-opacity="0.25"/>
<stop offset="0.45" stop-color="#221F20" stop-opacity="0.06"/>
<stop offset="1" stop-color="#221F20" stop-opacity="0"/>
</linearGradient>
</defs>
</svg>
