<svg width="719" height="517" viewBox="0 0 719 517" fill="none" xmlns="http://www.w3.org/2000/svg">
<path d="M0 4C0 1.79086 1.79086 0 4 0H715C717.209 0 719 1.79086 719 4V512.46C719 514.669 717.209 516.46 715 516.46H3.99998C1.79084 516.46 0 514.669 0 512.46V4Z" fill="url(#paint0_linear_9518_2579)"/>
<path opacity="0.24" d="M508.966 311.327C504.877 322.739 496.787 331.741 486.472 338.589C470.102 349.417 448.14 354.749 427.681 355.383C394.294 356.41 360.711 348.904 327.693 353.589C307.734 356.423 288.416 363.67 268.236 363.771C249.799 363.853 229.327 355.371 223.083 339.812C222.48 338.322 222.017 336.782 221.694 335.209C220.35 328.59 221.631 321.724 221.472 314.947C221.06 295.825 209.458 278.447 206.44 259.51C201.216 226.751 223.672 193.853 254.573 177.413C286.92 160.257 326.361 161.062 361.833 152.712C397.686 144.236 444.843 134.111 479.478 150.506C486.459 153.816 493.033 158.469 496.59 164.961C499.456 170.173 500.147 176.158 500.813 181.991C504.09 211.142 507.368 240.287 510.64 269.425C512.244 283.437 513.765 297.962 508.966 311.333V311.327Z" fill="#F8FAFC"/>
<path opacity="0.24" d="M486.471 338.588C470.101 349.417 448.139 354.748 427.68 355.382C394.294 356.41 360.711 348.903 327.692 353.588C307.734 356.422 288.416 363.669 268.236 363.77C249.799 363.853 229.327 355.37 223.082 339.811C239.471 324.716 280.954 322.307 299.422 326.174C307.848 327.937 316.039 330.675 324.503 332.273C335.18 334.283 346.135 334.448 356.989 333.884C372.865 333.066 388.638 330.739 404.216 327.55C427.604 322.769 452.958 316.271 474.381 326.821C478.47 328.831 482.356 331.519 484.861 335.329C485.526 336.35 486.072 337.44 486.484 338.581L486.471 338.588Z" fill="#F8FAFC"/>
<path d="M254.764 338.443C251.315 340.098 247.53 343.407 248.779 347.053C249.686 349.703 252.786 350.762 255.493 351.434C263.399 353.399 271.647 355.06 279.629 353.431C284.904 352.36 289.773 349.906 294.826 348.042C300.425 345.975 306.264 344.631 312.204 344.048C313.903 343.883 315.989 343.496 316.484 341.841C317.086 339.895 314.88 338.31 312.991 337.575C303.671 333.942 293.476 334.214 283.693 333.257C273.759 332.312 263.76 334.107 254.764 338.443Z" fill="url(#paint1_linear_9518_2579)"/>
<path d="M442.002 217.501C441.996 220.721 439.384 223.334 436.176 223.334H290.033C286.824 223.334 284.225 220.721 284.219 217.501C284.219 214.28 286.824 211.674 290.033 211.668H436.176C439.384 211.662 441.996 214.261 442.002 217.482C442.002 217.482 442.002 217.494 442.002 217.501Z" fill="#F8FAFC"/>
<path d="M338.248 224.723C342.257 224.723 345.507 221.458 345.507 217.432C345.507 213.405 342.257 210.141 338.248 210.141C334.238 210.141 330.988 213.405 330.988 217.432C330.988 221.458 334.238 224.723 338.248 224.723Z" fill="#F8FAFC"/>
<path d="M434.742 224.723C438.751 224.723 442.001 221.458 442.001 217.432C442.001 213.405 438.751 210.141 434.742 210.141C430.733 210.141 427.482 213.405 427.482 217.432C427.482 221.458 430.733 224.723 434.742 224.723Z" fill="#F8FAFC"/>
<path d="M434.742 224.723C438.751 224.723 442.001 221.458 442.001 217.432C442.001 213.405 438.751 210.141 434.742 210.141C430.733 210.141 427.482 213.405 427.482 217.432C427.482 221.458 430.733 224.723 434.742 224.723Z" fill="url(#paint2_linear_9518_2579)"/>
<path d="M406.581 154.178H459.52C462.144 154.178 464.268 156.314 464.268 158.945V193.784C464.268 196.415 462.144 198.551 459.52 198.551H406.581C403.956 198.551 401.832 196.415 401.832 193.784V158.945C401.832 156.314 403.956 154.178 406.581 154.178Z" fill="#F8FAFC"/>
<path d="M426.031 196.364L433.531 206.565L438.134 196.123L426.031 196.364Z" fill="#F8FAFC"/>
<path d="M433.423 181.446C427.527 181.446 422.74 176.646 422.74 170.725C422.74 164.803 427.521 160.004 433.423 160.004C439.319 160.004 444.106 164.803 444.106 170.725C444.106 176.64 439.319 181.439 433.423 181.446ZM433.423 161.189C428.18 161.189 423.926 165.469 423.932 170.738C423.932 176.006 428.199 180.267 433.442 180.26C438.685 180.26 442.933 175.987 442.933 170.725C442.933 165.456 438.673 161.189 433.423 161.189Z" fill="white"/>
<path d="M431.996 174.936L428.23 171.721L429.308 170.453L431.832 172.615L438.279 165.273L439.522 166.37L431.996 174.936Z" fill="white"/>
<path d="M418.03 192.262C417.574 192.446 417.092 192.535 416.604 192.516C415.209 192.598 414.01 191.533 413.928 190.138C413.922 190.012 413.928 189.885 413.928 189.758C413.846 188.268 414.98 186.987 416.464 186.905C416.559 186.905 416.654 186.905 416.749 186.905C417.193 186.886 417.631 186.968 418.036 187.146L417.865 187.698C417.523 187.539 417.142 187.463 416.768 187.469C415.507 187.469 414.657 188.287 414.657 189.714C414.657 191.045 415.424 191.92 416.743 191.92C417.136 191.92 417.523 191.844 417.878 191.692L418.024 192.256L418.03 192.262Z" fill="white"/>
<path d="M423.355 189.663C423.355 191.533 422.22 192.529 420.845 192.529C419.469 192.529 418.41 191.426 418.41 189.771C418.41 188.116 419.482 186.918 420.927 186.918C422.373 186.918 423.355 188.053 423.355 189.663ZM419.158 189.752C419.158 190.919 419.786 191.958 420.883 191.958C421.98 191.958 422.62 190.931 422.62 189.701C422.62 188.598 422.068 187.495 420.895 187.495C419.723 187.495 419.158 188.56 419.158 189.752Z" fill="white"/>
<path d="M428.82 190.049C428.782 189.295 428.731 188.394 428.744 187.703H428.719C428.535 188.337 428.313 189.016 428.034 189.764L427.076 192.401H426.525L425.644 189.814C425.39 189.047 425.168 188.35 425.022 187.703C425.022 188.382 424.959 189.295 424.921 190.106L424.775 192.439H424.109L424.49 187.006H425.377L426.303 189.631C426.531 190.296 426.709 190.899 426.855 191.463H426.88C427.019 190.911 427.203 190.315 427.432 189.631L428.402 187.006H429.289L429.625 192.439H428.94L428.82 190.049Z" fill="white"/>
<path d="M430.717 187.07C431.161 186.994 431.611 186.963 432.061 186.963C432.606 186.925 433.145 187.083 433.576 187.406C433.893 187.698 434.064 188.11 434.052 188.541C434.077 188.972 433.925 189.391 433.633 189.708C433.183 190.12 432.593 190.335 431.985 190.304C431.801 190.304 431.617 190.291 431.433 190.253V192.459H430.736L430.717 187.064V187.07ZM431.414 189.689C431.604 189.733 431.795 189.746 431.991 189.746C432.834 189.746 433.348 189.334 433.348 188.579C433.348 187.825 432.841 187.514 432.074 187.514C431.852 187.514 431.63 187.527 431.414 187.578V189.689Z" fill="white"/>
<path d="M434.977 187H435.674V191.844H437.988V192.433H434.977V187Z" fill="white"/>
<path d="M441.571 189.885H439.473V191.844H441.819V192.433H438.775V187H441.673V187.59H439.473V189.308H441.578V189.885H441.571Z" fill="white"/>
<path d="M443.865 187.596H442.217V187H446.224V187.596H444.575V192.433H443.865V187.596Z" fill="white"/>
<path d="M449.628 189.885H447.524V191.844H449.869V192.433H446.826V187H449.749V187.59H447.524V189.308H449.628V189.885Z" fill="white"/>
<path d="M450.77 187.077C451.264 187.001 451.759 186.963 452.259 186.969C453.052 186.906 453.838 187.146 454.459 187.641C454.979 188.148 455.258 188.865 455.22 189.594C455.258 190.374 454.979 191.141 454.447 191.705C453.781 192.269 452.919 192.548 452.05 192.485C451.625 192.485 451.201 192.466 450.782 192.421V187.077H450.77ZM451.473 191.882C451.708 191.914 451.942 191.927 452.183 191.92C453.68 191.92 454.485 191.084 454.485 189.613C454.485 188.332 453.768 187.514 452.285 187.514C452.012 187.514 451.733 187.533 451.467 187.59V191.876L451.473 191.882Z" fill="white"/>
<path d="M424.269 232.857C424.611 232.908 424.953 232.927 425.302 232.921H426.399C426.754 232.933 427.109 232.921 427.464 232.889C427.42 233.352 427.4 233.815 427.4 234.278V238.804C427.394 239.242 427.42 239.673 427.47 240.104H425.587C425.638 239.673 425.663 239.235 425.657 238.804V234.392H425.308C424.96 234.392 424.605 234.411 424.256 234.455V232.857H424.269Z" fill="#F8FAFC"/>
<path d="M430.945 239.457C430.666 239.184 430.457 238.861 430.318 238.499C430.089 237.865 429.975 237.193 429.975 236.521C429.963 235.691 430.153 234.867 430.527 234.125C431.053 233.25 432.017 232.724 433.031 232.762C433.805 232.743 434.559 233.028 435.123 233.561C435.396 233.833 435.611 234.163 435.751 234.518C435.979 235.158 436.093 235.83 436.087 236.509C436.1 237.339 435.909 238.163 435.535 238.911C435.003 239.786 434.039 240.306 433.018 240.262C432.245 240.287 431.497 239.996 430.939 239.457H430.945ZM431.75 236.452C431.75 237.999 432.188 238.791 433.044 238.791C433.9 238.791 434.318 238.011 434.318 236.477C434.318 234.943 433.868 234.226 433.031 234.226C432.194 234.226 431.776 235.044 431.776 236.458H431.75V236.452Z" fill="#F8FAFC"/>
<path d="M437.608 239.457C437.335 239.184 437.119 238.854 436.98 238.499C436.752 237.865 436.644 237.193 436.644 236.521C436.625 235.691 436.815 234.867 437.195 234.125C437.722 233.244 438.679 232.724 439.7 232.762C440.473 232.736 441.228 233.028 441.786 233.561C442.058 233.833 442.274 234.163 442.42 234.518C442.648 235.158 442.762 235.83 442.756 236.509C442.775 237.339 442.584 238.163 442.204 238.912C441.672 239.786 440.714 240.3 439.693 240.262C438.92 240.287 438.165 239.996 437.608 239.457ZM438.406 236.452C438.406 237.999 438.844 238.791 439.7 238.791C440.556 238.791 440.974 238.011 440.974 236.477C440.974 234.943 440.53 234.226 439.693 234.226C438.857 234.226 438.406 235.044 438.406 236.458V236.452Z" fill="#F8FAFC"/>
<path d="M443.834 236.338C443.466 235.919 443.282 235.374 443.314 234.823C443.282 234.258 443.485 233.707 443.866 233.288C444.227 232.952 444.709 232.781 445.203 232.8C445.698 232.781 446.18 232.952 446.541 233.288C446.909 233.707 447.093 234.252 447.061 234.81C447.093 235.374 446.896 235.932 446.509 236.351C446.148 236.687 445.673 236.858 445.184 236.839C444.69 236.858 444.202 236.68 443.84 236.338H443.834ZM449.882 232.705L450.339 233.054L444.728 240.364L444.278 240.015L449.882 232.705ZM444.519 234.81C444.519 235.533 444.747 235.913 445.184 235.913C445.622 235.913 445.837 235.545 445.837 234.81C445.837 234.075 445.609 233.707 445.184 233.707C444.76 233.707 444.519 234.081 444.519 234.791V234.81ZM448.101 239.774C447.403 238.88 447.403 237.619 448.101 236.725C448.468 236.389 448.95 236.211 449.445 236.236C450.618 236.236 451.296 236.978 451.296 238.253C451.328 238.817 451.131 239.375 450.745 239.793C449.977 240.459 448.836 240.459 448.069 239.793L448.101 239.781V239.774ZM448.785 238.227C448.785 238.969 449.007 239.33 449.445 239.33C449.882 239.33 450.111 238.963 450.111 238.227C450.111 237.492 449.882 237.162 449.458 237.162C449.033 237.162 448.785 237.504 448.785 238.202V238.221V238.227Z" fill="#F8FAFC"/>
<path d="M329.005 237.91C329.024 238.113 329.106 238.31 329.245 238.462C329.512 238.716 329.867 238.849 330.235 238.83C330.913 238.83 331.331 238.494 331.331 237.961C331.35 237.638 331.167 237.34 330.869 237.219C330.609 237.137 330.336 237.099 330.063 237.105C329.708 237.105 329.353 237.124 329.005 237.162V235.672C329.309 235.71 329.613 235.729 329.918 235.729C330.735 235.729 331.141 235.45 331.141 234.899C331.141 234.436 330.811 234.163 330.247 234.163C329.74 234.087 329.271 234.436 329.201 234.943C329.201 234.943 329.201 234.95 329.201 234.956L327.324 234.677C327.42 234.265 327.616 233.884 327.901 233.574C328.529 232.959 329.391 232.642 330.273 232.705C331.071 232.661 331.858 232.921 332.473 233.441C332.796 233.764 332.973 234.214 332.954 234.671C332.954 235.584 332.466 236.154 331.477 236.389C331.883 236.427 332.263 236.585 332.574 236.845C332.929 237.175 333.126 237.638 333.126 238.126C333.138 238.538 333.011 238.944 332.777 239.28C332.568 239.559 332.289 239.781 331.972 239.926C331.401 240.155 330.792 240.275 330.177 240.263C329.48 240.282 328.783 240.117 328.174 239.781C327.775 239.514 327.464 239.128 327.286 238.678C327.223 238.532 327.172 238.38 327.141 238.221L329.005 237.904V237.91Z" fill="#F8FAFC"/>
<path d="M334.786 239.457C334.513 239.184 334.298 238.861 334.152 238.499C333.924 237.865 333.816 237.193 333.816 236.521C333.797 235.691 333.987 234.867 334.367 234.125C334.894 233.244 335.851 232.724 336.872 232.762C337.645 232.736 338.4 233.028 338.957 233.561C339.23 233.833 339.446 234.163 339.591 234.518C339.82 235.158 339.934 235.83 339.928 236.509C339.947 237.339 339.756 238.163 339.376 238.912C338.431 240.319 336.536 240.687 335.134 239.742C335.008 239.66 334.894 239.565 334.779 239.463L334.786 239.457ZM335.585 236.452C335.585 237.999 336.022 238.791 336.878 238.791C337.734 238.791 338.152 238.011 338.152 236.477C338.152 234.943 337.709 234.226 336.872 234.226C336.035 234.226 335.572 235.044 335.572 236.458H335.585V236.452Z" fill="#F8FAFC"/>
<path d="M341.006 236.338C340.638 235.919 340.454 235.374 340.486 234.823C340.454 234.258 340.657 233.707 341.038 233.288C341.811 232.635 342.94 232.635 343.707 233.288C344.074 233.707 344.258 234.252 344.227 234.81C344.258 235.374 344.062 235.932 343.675 236.351C342.908 237.01 341.773 237.01 341.006 236.351V236.338ZM347.054 232.705L347.511 233.054L341.9 240.364L341.45 240.015L347.054 232.705ZM341.691 234.81C341.691 235.533 341.919 235.913 342.356 235.913C342.794 235.913 343.009 235.545 343.009 234.81C343.009 234.075 342.781 233.707 342.356 233.707C341.931 233.707 341.691 234.081 341.691 234.791V234.81ZM345.273 239.774C344.582 238.874 344.582 237.619 345.273 236.725C345.64 236.389 346.122 236.211 346.617 236.236C347.79 236.236 348.468 236.978 348.468 238.253C348.5 238.817 348.303 239.375 347.916 239.793C347.149 240.459 346.008 240.459 345.241 239.793L345.266 239.781L345.273 239.774ZM345.957 238.227C345.957 238.969 346.179 239.33 346.617 239.33C347.054 239.33 347.282 238.963 347.282 238.227C347.282 237.492 347.054 237.162 346.629 237.162C346.205 237.162 345.957 237.504 345.957 238.202V238.221V238.227Z" fill="#F8FAFC"/>
<path d="M424.269 232.857C424.611 232.908 424.953 232.927 425.302 232.921H426.399C426.754 232.933 427.109 232.921 427.464 232.889C427.42 233.352 427.4 233.815 427.4 234.278V238.804C427.394 239.242 427.42 239.673 427.47 240.104H425.587C425.638 239.673 425.663 239.235 425.657 238.804V234.392H425.308C424.96 234.392 424.605 234.411 424.256 234.455V232.857H424.269Z" fill="url(#paint3_linear_9518_2579)"/>
<path d="M430.945 239.457C430.666 239.184 430.457 238.861 430.318 238.499C430.089 237.865 429.975 237.193 429.975 236.521C429.963 235.691 430.153 234.867 430.527 234.125C431.053 233.25 432.017 232.724 433.031 232.762C433.805 232.743 434.559 233.028 435.123 233.561C435.396 233.833 435.611 234.163 435.751 234.518C435.979 235.158 436.093 235.83 436.087 236.509C436.1 237.339 435.909 238.163 435.535 238.911C435.003 239.786 434.039 240.306 433.018 240.262C432.245 240.287 431.497 239.996 430.939 239.457H430.945ZM431.75 236.452C431.75 237.999 432.188 238.791 433.044 238.791C433.9 238.791 434.318 238.011 434.318 236.477C434.318 234.943 433.868 234.226 433.031 234.226C432.194 234.226 431.776 235.044 431.776 236.458H431.75V236.452Z" fill="url(#paint4_linear_9518_2579)"/>
<path d="M437.608 239.457C437.335 239.184 437.119 238.854 436.98 238.499C436.752 237.865 436.644 237.193 436.644 236.521C436.625 235.691 436.815 234.867 437.195 234.125C437.722 233.244 438.679 232.724 439.7 232.762C440.473 232.736 441.228 233.028 441.786 233.561C442.058 233.833 442.274 234.163 442.42 234.518C442.648 235.158 442.762 235.83 442.756 236.509C442.775 237.339 442.584 238.163 442.204 238.912C441.672 239.786 440.714 240.3 439.693 240.262C438.92 240.287 438.165 239.996 437.608 239.457ZM438.406 236.452C438.406 237.999 438.844 238.791 439.7 238.791C440.556 238.791 440.974 238.011 440.974 236.477C440.974 234.943 440.53 234.226 439.693 234.226C438.857 234.226 438.406 235.044 438.406 236.458V236.452Z" fill="url(#paint5_linear_9518_2579)"/>
<path d="M443.834 236.338C443.466 235.919 443.282 235.374 443.314 234.823C443.282 234.258 443.485 233.707 443.866 233.288C444.227 232.952 444.709 232.781 445.203 232.8C445.698 232.781 446.18 232.952 446.541 233.288C446.909 233.707 447.093 234.252 447.061 234.81C447.093 235.374 446.896 235.932 446.509 236.351C446.148 236.687 445.673 236.858 445.184 236.839C444.69 236.858 444.202 236.68 443.84 236.338H443.834ZM449.882 232.705L450.339 233.054L444.728 240.364L444.278 240.015L449.882 232.705ZM444.519 234.81C444.519 235.533 444.747 235.913 445.184 235.913C445.622 235.913 445.837 235.545 445.837 234.81C445.837 234.075 445.609 233.707 445.184 233.707C444.76 233.707 444.519 234.081 444.519 234.791V234.81ZM448.101 239.774C447.403 238.88 447.403 237.619 448.101 236.725C448.468 236.389 448.95 236.211 449.445 236.236C450.618 236.236 451.296 236.978 451.296 238.253C451.328 238.817 451.131 239.375 450.745 239.793C449.977 240.459 448.836 240.459 448.069 239.793L448.101 239.781V239.774ZM448.785 238.227C448.785 238.969 449.007 239.33 449.445 239.33C449.882 239.33 450.111 238.963 450.111 238.227C450.111 237.492 449.882 237.162 449.458 237.162C449.033 237.162 448.785 237.504 448.785 238.202V238.221V238.227Z" fill="url(#paint6_linear_9518_2579)"/>
<path d="M329.005 237.91C329.024 238.113 329.106 238.31 329.245 238.462C329.512 238.716 329.867 238.849 330.235 238.83C330.913 238.83 331.331 238.494 331.331 237.961C331.35 237.638 331.167 237.34 330.869 237.219C330.609 237.137 330.336 237.099 330.063 237.105C329.708 237.105 329.353 237.124 329.005 237.162V235.672C329.309 235.71 329.613 235.729 329.918 235.729C330.735 235.729 331.141 235.45 331.141 234.899C331.141 234.436 330.811 234.163 330.247 234.163C329.74 234.087 329.271 234.436 329.201 234.943C329.201 234.943 329.201 234.95 329.201 234.956L327.324 234.677C327.42 234.265 327.616 233.884 327.901 233.574C328.529 232.959 329.391 232.642 330.273 232.705C331.071 232.661 331.858 232.921 332.473 233.441C332.796 233.764 332.973 234.214 332.954 234.671C332.954 235.584 332.466 236.154 331.477 236.389C331.883 236.427 332.263 236.585 332.574 236.845C332.929 237.175 333.126 237.638 333.126 238.126C333.138 238.538 333.011 238.944 332.777 239.28C332.568 239.559 332.289 239.781 331.972 239.926C331.401 240.155 330.792 240.275 330.177 240.263C329.48 240.282 328.783 240.117 328.174 239.781C327.775 239.514 327.464 239.128 327.286 238.678C327.223 238.532 327.172 238.38 327.141 238.221L329.005 237.904V237.91Z" fill="url(#paint7_linear_9518_2579)"/>
<path d="M334.786 239.457C334.513 239.184 334.298 238.861 334.152 238.499C333.924 237.865 333.816 237.193 333.816 236.521C333.797 235.691 333.987 234.867 334.367 234.125C334.894 233.244 335.851 232.724 336.872 232.762C337.645 232.736 338.4 233.028 338.957 233.561C339.23 233.833 339.446 234.163 339.591 234.518C339.82 235.158 339.934 235.83 339.928 236.509C339.947 237.339 339.756 238.163 339.376 238.912C338.431 240.319 336.536 240.687 335.134 239.742C335.008 239.66 334.894 239.565 334.779 239.463L334.786 239.457ZM335.585 236.452C335.585 237.999 336.022 238.791 336.878 238.791C337.734 238.791 338.152 238.011 338.152 236.477C338.152 234.943 337.709 234.226 336.872 234.226C336.035 234.226 335.572 235.044 335.572 236.458H335.585V236.452Z" fill="url(#paint8_linear_9518_2579)"/>
<path d="M341.006 236.338C340.638 235.919 340.454 235.374 340.486 234.823C340.454 234.258 340.657 233.707 341.038 233.288C341.811 232.635 342.94 232.635 343.707 233.288C344.074 233.707 344.258 234.252 344.227 234.81C344.258 235.374 344.062 235.932 343.675 236.351C342.908 237.01 341.773 237.01 341.006 236.351V236.338ZM347.054 232.705L347.511 233.054L341.9 240.364L341.45 240.015L347.054 232.705ZM341.691 234.81C341.691 235.533 341.919 235.913 342.356 235.913C342.794 235.913 343.009 235.545 343.009 234.81C343.009 234.075 342.781 233.707 342.356 233.707C341.931 233.707 341.691 234.081 341.691 234.791V234.81ZM345.273 239.774C344.582 238.874 344.582 237.619 345.273 236.725C345.64 236.389 346.122 236.211 346.617 236.236C347.79 236.236 348.468 236.978 348.468 238.253C348.5 238.817 348.303 239.375 347.916 239.793C347.149 240.459 346.008 240.459 345.241 239.793L345.266 239.781L345.273 239.774ZM345.957 238.227C345.957 238.969 346.179 239.33 346.617 239.33C347.054 239.33 347.282 238.963 347.282 238.227C347.282 237.492 347.054 237.162 346.629 237.162C346.205 237.162 345.957 237.504 345.957 238.202V238.221V238.227Z" fill="url(#paint9_linear_9518_2579)"/>
<path d="M333.994 223.334H290.013C286.805 223.334 284.206 220.721 284.199 217.501C284.199 214.28 286.805 211.674 290.013 211.668H333.81C330.64 214.109 330.037 218.674 332.472 221.856C332.903 222.421 333.417 222.915 333.987 223.334H333.994Z" fill="url(#paint10_linear_9518_2579)"/>
<path d="M345.502 217.432C345.514 221.458 342.281 224.735 338.268 224.748C338.268 224.748 338.255 224.748 338.249 224.748C336.721 224.748 335.231 224.266 333.994 223.36C330.748 221.014 330.007 216.474 332.346 213.216C332.758 212.639 333.253 212.125 333.817 211.694C335.085 210.699 336.645 210.16 338.255 210.166C342.255 210.166 345.495 213.418 345.508 217.432H345.502Z" fill="url(#paint11_linear_9518_2579)"/>
<path d="M284.928 332.033L285.112 336.059C284.516 337.676 283.185 338.906 281.537 339.369C279.971 339.781 278.309 339.432 277.035 338.437L277.32 331.697" fill="#C14834"/>
<path d="M269.321 335.711L269.505 339.737C268.909 341.354 267.578 342.584 265.929 343.046C264.369 343.459 262.702 343.116 261.428 342.121L261.707 335.375" fill="#C14834"/>
<path d="M288.373 265.628L285.444 332.939C284.417 333.694 283.193 334.125 281.919 334.163C279.459 334.309 279.015 334.48 277.246 332.863L269.492 262.692L288.525 260.543L288.373 265.621V265.628Z" fill="#231F20"/>
<path d="M288.373 265.628L285.444 332.939C284.417 333.694 283.193 334.125 281.919 334.163C279.459 334.309 279.015 334.48 277.246 332.863L269.492 262.692L288.525 260.543L288.373 265.621V265.628Z" fill="url(#paint12_linear_9518_2579)"/>
<path d="M277.562 272.038L269.866 337.143C269.866 337.143 268.769 338.285 265.751 338.323C262.321 338.367 262.01 337.898 261.243 336.161L259.76 261.488L277.379 264.5L277.562 272.038Z" fill="#231F20"/>
<path d="M277.562 272.038L269.866 337.143C269.866 337.143 268.769 338.285 265.751 338.323C262.321 338.367 262.01 337.898 261.243 336.161L259.76 261.488L277.379 264.5L277.562 272.038Z" fill="url(#paint13_linear_9518_2579)"/>
<path d="M279.985 265.534C277.575 266.346 275.103 266.929 272.586 267.271C269.289 267.614 265.764 265.997 263.133 265.864C259.64 265.68 259.551 265.572 259.551 263.29C259.551 262.142 288.544 259.391 288.544 259.391C288.544 259.391 288.41 261.495 288.417 263.436C288.417 264.9 287.795 264.818 285.158 264.963C282.521 265.109 282.032 264.31 279.985 265.54V265.534Z" fill="url(#paint14_linear_9518_2579)"/>
<path d="M268.547 214.148C268.547 214.148 263.684 215.41 260.216 217.952C258.073 219.518 259.557 263.296 259.557 263.296C259.766 263.264 269.086 267.055 278.095 265.502C285.792 264.177 288.537 260.563 288.537 260.563C288.537 260.563 289.228 218.561 287.738 216.83C287.066 216.056 279.775 213.355 279.775 213.355C279.775 213.355 276.58 218.136 268.547 214.148Z" fill="#F8FAFC"/>
<path d="M269.149 235.172H280.922C282.646 235.172 284.041 236.573 284.041 238.298V256.259C284.041 257.99 282.646 259.384 280.922 259.384H269.149C267.424 259.384 266.029 257.983 266.029 256.259V238.298C266.029 236.567 267.424 235.172 269.149 235.172Z" fill="#F2FBFF"/>
<path d="M267.082 257.773V236.806C267.082 235.912 267.804 235.189 268.692 235.189H267.64C266.752 235.189 266.029 235.912 266.029 236.806V257.773C266.029 258.666 266.752 259.389 267.64 259.389H268.692C267.804 259.389 267.082 258.666 267.082 257.773Z" fill="#D2E8EC"/>
<path d="M283.896 194.957C283.826 193.683 283.541 192.421 283.059 191.236C283.059 191.236 285.811 189.822 285.259 194.9C284.708 199.978 285.323 200.416 283.262 203.174L282.818 202.071C283.345 199.465 284.112 198.197 283.896 194.951V194.957Z" fill="#231F20"/>
<path d="M270.158 204.422L268.566 214.148C268.566 214.148 272.129 219.385 276.631 218.605C281.132 217.825 280.016 215.708 280.016 215.708L279.433 207.491C279.433 207.491 275.344 208.195 270.151 204.416L270.158 204.422Z" fill="#C14834"/>
<path d="M269.574 207.833L270.126 204.416C275.337 208.214 278.032 206.597 278.032 206.597L279.293 211.01C278.583 211.751 277.632 212.208 276.618 212.297C274.133 212.487 271.609 210.528 269.581 207.833H269.574Z" fill="#B58B81"/>
<path d="M268.73 212.975L264.02 215.181C264.02 215.181 271.456 223.068 273.72 222.903C273.72 222.903 275.856 218.915 277.872 218.288L268.73 212.975Z" fill="#F2FBFF"/>
<path d="M287.199 216.543C287.199 216.543 291.206 216.987 293.469 232.044C295.568 245.986 297.799 251.388 293.52 253.562C287.598 256.549 285.132 255.718 285.132 255.718C285.132 255.718 283.103 251.565 284.27 248.731C284.27 248.731 285.747 248.18 288.613 246.861L288.524 236.21C288.524 236.21 281.702 214.394 287.199 216.537V216.543Z" fill="#F8FAFC"/>
<path d="M279.674 214.331C279.281 215.745 278.672 217.089 277.873 218.313C278.311 218.484 281.202 220.519 281.246 221.87C281.246 221.87 284.112 215.358 282.926 214.331C281.937 213.824 280.916 213.368 279.876 212.975L279.674 214.325V214.331Z" fill="#F2FBFF"/>
<path d="M262.131 216.797C262.131 216.797 254.833 219.162 254.003 230.859C253.255 241.491 251.353 249.258 252.906 252.415C254.916 256.53 268.99 257.214 268.99 257.214C269.333 255.167 269.244 253.068 268.737 251.052L261.04 247.971C261.04 247.971 262.257 218.623 262.137 216.797H262.131Z" fill="#F8FAFC"/>
<path d="M288.506 224.616L289.996 245.652C290.129 247.497 286.857 248.613 286.857 248.613C286.857 248.613 287.498 238.342 287.409 237.854C287.314 237.365 288.246 226.118 288.506 224.609V224.616Z" fill="url(#paint15_linear_9518_2579)"/>
<path d="M266.055 197.333C266.442 202.735 271.951 212.27 277.328 211.884C282.704 211.497 284.257 200.339 283.896 194.956C283.535 189.58 280.491 186.505 275.102 186.885C269.732 187.266 265.681 191.944 266.055 197.333Z" fill="#C14834"/>
<path d="M270.562 187.196C270.562 187.196 272.211 184.331 277.245 184.888C282.272 185.446 283.464 189.022 284.796 188.471C286.127 187.919 288.555 190.03 286.901 192.439C285.246 194.842 282.558 195.495 279.255 193.904C275.951 192.313 271.83 192.141 271.006 193.118C270.182 194.094 272.103 204.029 272.103 204.029C272.103 204.029 272.103 204.485 271.19 204.092C270.277 203.699 270.854 197.695 268.99 197.372C267.126 197.049 266.961 201.195 268.438 202.45C269.58 203.42 269.814 206.742 269.814 206.742C269.814 206.742 263.905 202.774 264.317 195.882C264.73 188.984 267.316 186.511 270.562 187.196Z" fill="#231F20"/>
<path d="M283.693 250.197C283.002 249.5 282.063 249.106 281.081 249.094C279.508 249.119 278.183 249.671 275.913 249.836C273.644 249.994 275.159 252.105 275.267 253.544C275.368 254.984 275.039 256.765 275.527 257.19C276.015 257.615 284.149 256.575 284.992 255.599C285.385 255.148 285.119 251.021 283.693 250.203V250.197Z" fill="#C14834"/>
<path d="M285.899 249.125C285.899 249.125 286.21 255.053 286.806 255.471L283.889 256.131C282.716 254.216 282.45 251.877 283.16 249.746L285.905 249.125H285.899Z" fill="#F2FBFF"/>
<path d="M284.593 251.307C284.901 251.307 285.151 251.057 285.151 250.749C285.151 250.441 284.901 250.191 284.593 250.191C284.285 250.191 284.035 250.441 284.035 250.749C284.035 251.057 284.285 251.307 284.593 251.307Z" fill="#D2E8EC"/>
<path d="M278.716 256.365C278.583 255.338 279.064 254.349 279.21 252.593C279.356 250.831 278.221 250.387 276.56 250.203C276.11 250.152 275.755 250.095 275.463 250.051C273.916 250.425 275.153 252.308 275.235 253.627C275.324 254.945 275.026 256.784 275.476 257.196C275.66 257.367 277.08 257.291 278.728 257.076C278.754 256.841 278.747 256.6 278.709 256.372L278.716 256.365Z" fill="#B58B81"/>
<path d="M285.899 249.125C285.899 249.125 286.21 255.053 286.806 255.471L283.889 256.131C282.716 254.216 282.45 251.877 283.16 249.746L285.905 249.125H285.899Z" fill="#F2FBFF"/>
<path d="M284.593 251.307C284.901 251.307 285.151 251.057 285.151 250.749C285.151 250.441 284.901 250.191 284.593 250.191C284.285 250.191 284.035 250.441 284.035 250.749C284.035 251.057 284.285 251.307 284.593 251.307Z" fill="#D2E8EC"/>
<path d="M262.131 226.688L259.893 247.242L262.517 248.465L262.131 226.688Z" fill="url(#paint16_linear_9518_2579)"/>
<path d="M266.005 256.943L259.367 255.84L259.551 263.264C259.551 263.264 260.28 256.683 262.797 257.748C265.308 258.813 266.005 256.943 266.005 256.943Z" fill="url(#paint17_linear_9518_2579)"/>
<path d="M290.052 246.443L285.76 248.992L288.683 247.965L290.052 246.443Z" fill="url(#paint18_linear_9518_2579)"/>
<path d="M279.737 206.312C279.737 206.312 279.591 206.178 278.457 206.255C277.119 206.324 275.781 206.229 274.469 205.976C273.6 205.754 273.182 205.887 273.264 207.079C273.347 208.271 274.279 209.285 276.561 209.406C279.116 209.545 280.187 208.575 280.409 207.427C280.523 206.546 280.048 206.293 279.731 206.312H279.737Z" fill="#C14834"/>
<path d="M269.896 251.236C270.854 251.033 271.798 250.767 272.724 250.443C273.941 249.987 274.315 250.253 276.103 250.443C277.891 250.634 279.102 251.09 278.95 252.884C278.798 254.679 278.278 255.687 278.398 256.745C278.519 257.804 278.208 258.692 276.649 258.73C275.089 258.768 269.871 257.17 269.871 257.17" fill="#C14834"/>
<path d="M268.198 250.748H270.906C270.906 250.748 272.072 254.672 270.557 257.367L267.539 257.259C267.539 257.259 268.579 253.468 268.198 250.748Z" fill="#F2FBFF"/>
<path d="M269.567 252.669C269.896 252.669 270.163 252.388 270.163 252.042C270.163 251.695 269.896 251.414 269.567 251.414C269.238 251.414 268.971 251.695 268.971 252.042C268.971 252.388 269.238 252.669 269.567 252.669Z" fill="#D2E8EC"/>
<path d="M287.117 228.887L282.597 229.762L282.375 228.368L286.908 227.486L287.117 228.887Z" fill="#F2FBFF"/>
<path d="M272.09 341.753C273.701 342.539 275.134 343.655 276.288 345.03C276.96 345.829 277.556 346.844 277.327 347.858C277.131 348.613 276.586 349.228 275.856 349.513C275.146 349.785 274.373 349.868 273.618 349.754C272.293 349.545 270.994 349.158 269.77 348.606C267.386 347.655 264.983 346.66 262.917 345.138C261.94 344.416 260.983 343.458 260.9 342.235C260.9 341.765 261.072 341.195 261.534 341.131C261.731 341.112 261.934 341.131 262.118 341.207C263.481 341.607 264.901 341.772 266.315 341.689C266.847 341.683 267.361 341.531 267.817 341.258C268.248 340.986 268.54 340.415 269.079 340.364C269.884 340.244 271.361 341.398 272.084 341.746L272.09 341.753Z" fill="#F8FAFC"/>
<path d="M276.574 337.753C276.574 337.474 276.605 337.119 276.878 337.056C277.005 337.037 277.138 337.062 277.252 337.132C278.279 337.652 279.091 338.577 280.194 338.926C281.88 339.477 283.77 338.374 284.594 336.789C284.651 336.643 284.752 336.529 284.885 336.453C285.038 336.409 285.196 336.428 285.329 336.504C287.168 337.151 288.962 337.93 290.686 338.843C291.644 339.395 292.652 340.188 292.658 341.291C292.601 342.115 292.107 342.838 291.358 343.186C290.623 343.516 289.824 343.681 289.019 343.675C286.16 343.789 283.307 343.364 280.6 342.419C279.439 342.013 277.677 341.513 276.751 340.644C276.085 339.978 276.605 338.66 276.574 337.753Z" fill="#F8FAFC"/>
<path d="M272.09 341.753C273.701 342.539 275.134 343.655 276.288 345.03C276.96 345.829 277.556 346.844 277.327 347.858C277.131 348.613 276.586 349.228 275.856 349.513C275.146 349.785 274.373 349.868 273.618 349.754C272.293 349.545 270.994 349.158 269.77 348.606C267.386 347.655 264.983 346.66 262.917 345.138C261.94 344.416 260.983 343.458 260.9 342.235C260.9 341.765 261.072 341.195 261.534 341.131C261.731 341.112 261.934 341.131 262.118 341.207C263.481 341.607 264.901 341.772 266.315 341.689C266.847 341.683 267.361 341.531 267.817 341.258C268.248 340.986 268.54 340.415 269.079 340.364C269.884 340.244 271.361 341.398 272.084 341.746L272.09 341.753Z" fill="url(#paint19_linear_9518_2579)"/>
<path d="M276.574 337.753C276.574 337.474 276.605 337.119 276.878 337.056C277.005 337.037 277.138 337.062 277.252 337.132C278.279 337.652 279.091 338.577 280.194 338.926C281.88 339.477 283.77 338.374 284.594 336.789C284.651 336.643 284.752 336.529 284.885 336.453C285.038 336.409 285.196 336.428 285.329 336.504C287.168 337.151 288.962 337.93 290.686 338.843C291.644 339.395 292.652 340.188 292.658 341.291C292.601 342.115 292.107 342.838 291.358 343.186C290.623 343.516 289.824 343.681 289.019 343.675C286.16 343.789 283.307 343.364 280.6 342.419C279.439 342.013 277.677 341.513 276.751 340.644C276.085 339.978 276.605 338.66 276.574 337.753Z" fill="url(#paint20_linear_9518_2579)"/>
<defs>
<linearGradient id="paint0_linear_9518_2579" x1="719" y1="258.23" x2="0" y2="258.23" gradientUnits="userSpaceOnUse">
<stop stop-color="#68D3FD"/>
<stop offset="1" stop-color="#0DBBCE"/>
</linearGradient>
<linearGradient id="paint1_linear_9518_2579" x1="278.368" y1="312.747" x2="298.947" y2="463.639" gradientUnits="userSpaceOnUse">
<stop stop-color="#010101" stop-opacity="0"/>
<stop offset="0.95" stop-color="#010101"/>
</linearGradient>
<linearGradient id="paint2_linear_9518_2579" x1="434.691" y1="203.408" x2="434.932" y2="267.53" gradientUnits="userSpaceOnUse">
<stop stop-color="#010101" stop-opacity="0"/>
<stop offset="0.95" stop-color="#010101"/>
</linearGradient>
<linearGradient id="paint3_linear_9518_2579" x1="425.492" y1="218.833" x2="427.362" y2="291.179" gradientUnits="userSpaceOnUse">
<stop stop-color="#010101" stop-opacity="0"/>
<stop offset="0.95" stop-color="#010101"/>
</linearGradient>
<linearGradient id="paint4_linear_9518_2579" x1="432.575" y1="218.649" x2="434.445" y2="290.988" gradientUnits="userSpaceOnUse">
<stop stop-color="#010101" stop-opacity="0"/>
<stop offset="0.95" stop-color="#010101"/>
</linearGradient>
<linearGradient id="paint5_linear_9518_2579" x1="439.237" y1="218.478" x2="441.107" y2="290.817" gradientUnits="userSpaceOnUse">
<stop stop-color="#010101" stop-opacity="0"/>
<stop offset="0.95" stop-color="#010101"/>
</linearGradient>
<linearGradient id="paint6_linear_9518_2579" x1="446.833" y1="218.282" x2="448.703" y2="290.621" gradientUnits="userSpaceOnUse">
<stop stop-color="#010101" stop-opacity="0"/>
<stop offset="0.95" stop-color="#010101"/>
</linearGradient>
<linearGradient id="paint7_linear_9518_2579" x1="329.696" y1="221.319" x2="331.566" y2="293.664" gradientUnits="userSpaceOnUse">
<stop stop-color="#010101" stop-opacity="0"/>
<stop offset="0.95" stop-color="#010101"/>
</linearGradient>
<linearGradient id="paint8_linear_9518_2579" x1="336.479" y1="221.14" x2="338.349" y2="293.486" gradientUnits="userSpaceOnUse">
<stop stop-color="#010101" stop-opacity="0"/>
<stop offset="0.95" stop-color="#010101"/>
</linearGradient>
<linearGradient id="paint9_linear_9518_2579" x1="344.074" y1="220.951" x2="345.945" y2="293.29" gradientUnits="userSpaceOnUse">
<stop stop-color="#010101" stop-opacity="0"/>
<stop offset="0.95" stop-color="#010101"/>
</linearGradient>
<linearGradient id="paint10_linear_9518_2579" x1="308.691" y1="199.73" x2="310.859" y2="301.151" gradientUnits="userSpaceOnUse">
<stop stop-color="#010101" stop-opacity="0"/>
<stop offset="0.95" stop-color="#010101"/>
</linearGradient>
<linearGradient id="paint11_linear_9518_2579" x1="338.661" y1="197.226" x2="337.26" y2="265.045" gradientUnits="userSpaceOnUse">
<stop stop-color="#010101" stop-opacity="0"/>
<stop offset="0.95" stop-color="#010101"/>
</linearGradient>
<linearGradient id="paint12_linear_9518_2579" x1="289.457" y1="321.591" x2="266.075" y2="233.046" gradientUnits="userSpaceOnUse">
<stop stop-color="#010101" stop-opacity="0"/>
<stop offset="0.95" stop-color="#010101"/>
</linearGradient>
<linearGradient id="paint13_linear_9518_2579" x1="261.991" y1="299.978" x2="322.938" y2="295.312" gradientUnits="userSpaceOnUse">
<stop stop-color="#010101" stop-opacity="0"/>
<stop offset="0.95" stop-color="#010101"/>
</linearGradient>
<linearGradient id="paint14_linear_9518_2579" x1="273.936" y1="267.81" x2="274.177" y2="253.666" gradientUnits="userSpaceOnUse">
<stop stop-color="#010101" stop-opacity="0"/>
<stop offset="0.95" stop-color="#010101"/>
</linearGradient>
<linearGradient id="paint15_linear_9518_2579" x1="285.234" y1="236.624" x2="307.133" y2="236.541" gradientUnits="userSpaceOnUse">
<stop stop-color="#010101" stop-opacity="0"/>
<stop offset="0.95" stop-color="#010101"/>
</linearGradient>
<linearGradient id="paint16_linear_9518_2579" x1="263.963" y1="237.668" x2="247.764" y2="236.736" gradientUnits="userSpaceOnUse">
<stop stop-color="#010101" stop-opacity="0"/>
<stop offset="0.95" stop-color="#010101"/>
</linearGradient>
<linearGradient id="paint17_linear_9518_2579" x1="262.683" y1="261.089" x2="262.683" y2="238.982" gradientUnits="userSpaceOnUse">
<stop stop-color="#010101" stop-opacity="0"/>
<stop offset="0.95" stop-color="#010101"/>
</linearGradient>
<linearGradient id="paint18_linear_9518_2579" x1="287.478" y1="245.264" x2="293.457" y2="279.576" gradientUnits="userSpaceOnUse">
<stop stop-color="#010101" stop-opacity="0"/>
<stop offset="0.95" stop-color="#010101"/>
</linearGradient>
<linearGradient id="paint19_linear_9518_2579" x1="269.447" y1="324.172" x2="268.743" y2="371.418" gradientUnits="userSpaceOnUse">
<stop stop-color="#010101" stop-opacity="0"/>
<stop offset="0.95" stop-color="#010101"/>
</linearGradient>
<linearGradient id="paint20_linear_9518_2579" x1="284.873" y1="317.427" x2="284.175" y2="364.666" gradientUnits="userSpaceOnUse">
<stop stop-color="#010101" stop-opacity="0"/>
<stop offset="0.95" stop-color="#010101"/>
</linearGradient>
</defs>
</svg>
