<svg width="483" height="213" viewBox="0 0 483 213" fill="none" xmlns="http://www.w3.org/2000/svg">
<path d="M0 30C0 13.4315 13.4315 0 30 0H453C469.569 0 483 13.4315 483 30V213H0V30Z" fill="#ECEEF0"/>
<g filter="url(#filter0_d_9522_3289)">
<path d="M36 38.5C36 36.0147 38.0147 34 40.5 34H473.5C475.985 34 478 36.0147 478 38.5V38.5C478 40.9853 475.985 43 473.5 43H40.5C38.0147 43 36 40.9853 36 38.5V38.5Z" fill="#CFCFCF" fill-opacity="0.7" shape-rendering="crispEdges"/>
</g>
<g filter="url(#filter1_d_9522_3289)">
<path d="M31.5 213C29.567 213 28 211.433 28 209.5L28 43.5C28 41.567 29.567 40 31.5 40V40C33.433 40 35 41.567 35 43.5L35 209.5C35 211.433 33.433 213 31.5 213V213Z" fill="#CFCFCF" fill-opacity="0.7" shape-rendering="crispEdges"/>
</g>
<path d="M28 39C28 36.7909 29.7909 35 32 35H479C481.209 35 483 36.7909 483 39V209C483 211.209 481.209 213 479 213H32C29.7909 213 28 211.209 28 209V39Z" fill="url(#paint0_linear_9522_3289)"/>
<path opacity="0.18" d="M211.448 161.966C203.574 154.909 199.01 144.883 198.853 134.31C198.757 123.872 204.784 115.248 212.467 108.207C217.938 103.172 237.324 62.2557 274.128 77.8273C286.146 82.9132 285.641 101.124 293.655 111.45C296.06 114.554 299.042 117.158 301.824 119.938C306.766 124.861 311.222 130.501 313.459 137.116C315.696 143.731 315.435 151.459 311.506 157.223C308.157 162.139 302.617 165.091 297.049 167.171C282.808 172.486 267.289 173.242 252.101 172.763C238.242 172.326 221.838 171.167 211.445 161.966H211.448Z" fill="#F8FAFC"/>
<path d="M205.473 178.211H317.251L293.511 148.706H205.986L205.473 178.211Z" fill="#231F20"/>
<path d="M317.251 178.211H205.473L205.986 148.709H226.263C226.479 148.842 226.715 148.94 226.96 149.004C230.466 150.175 234.272 149.855 237.951 149.504C238.683 149.435 239.43 149.353 240.055 148.983C240.571 148.68 242.854 149.411 242.792 148.81C242.79 148.775 242.787 148.744 242.784 148.709H293.511L317.251 178.211Z" fill="url(#paint1_linear_9522_3289)"/>
<path d="M251.742 154.822L267.851 161.047L292.241 156.168L276.472 149.997L251.742 153.748V154.822Z" fill="#F8FAFC"/>
<path d="M251.742 153.747L267.851 159.974L292.241 155.096L276.472 148.922L251.742 153.747Z" fill="#F8FAFC"/>
<path d="M251.742 153.747L267.851 159.974L292.241 155.096L276.472 148.922L251.742 153.747Z" fill="url(#paint2_linear_9522_3289)"/>
<path d="M267.852 161.049L292.241 156.167L298.101 134.374L273.714 139.252L267.852 161.049Z" fill="#F8FAFC"/>
<path d="M267.852 161.049L292.241 156.167L298.101 134.374L273.714 139.252L267.852 161.049Z" fill="url(#paint3_linear_9522_3289)"/>
<path d="M268.516 160.937L292.905 156.056L298.762 134.263L274.376 139.141L268.516 160.937Z" fill="#F8FAFC"/>
<path d="M254.324 141.857C254.295 141.987 254.236 142.109 254.154 142.213C252.903 144.04 251.568 145.801 250.145 147.498C250.097 147.565 250.033 147.618 249.959 147.653C249.805 147.677 249.65 147.623 249.547 147.506C249.475 147.445 249.406 147.389 249.336 147.323C247.509 145.737 246.333 143.524 245.197 141.375C244.703 140.439 244.213 139.5 243.716 138.566C243.274 137.784 242.899 136.965 242.593 136.122C242.146 134.778 242.045 133.353 241.95 131.94C241.75 129.091 240.923 126.038 239.869 123.245C239.59 122.497 239.292 121.768 238.986 121.071C241.293 121.422 243.577 121.904 245.831 122.513C246.208 122.595 246.573 122.736 246.905 122.933C247.586 123.383 247.903 124.215 248.142 125C248.568 126.394 248.89 127.812 249.179 129.243C250.017 133.472 251.486 137.752 254.077 141.261C254.231 141.423 254.319 141.636 254.324 141.859V141.857Z" fill="#F8FAFC"/>
<path d="M252.063 143.466C252.036 143.597 251.978 143.719 251.895 143.823C251.079 145.025 250.222 146.19 249.328 147.321C247.501 145.735 246.325 143.522 245.189 141.373C244.695 140.436 244.205 139.497 243.708 138.564C243.266 137.782 242.891 136.962 242.585 136.119C242.138 134.776 242.037 133.35 241.941 131.938C241.742 129.089 240.915 126.035 239.861 123.242C241.186 123.519 242.527 123.843 243.569 124.123C243.947 124.205 244.309 124.349 244.641 124.543C245.328 124.998 245.644 125.825 245.886 126.61C246.301 128.006 246.644 129.421 246.916 130.852C247.759 135.085 249.23 139.364 251.815 142.87C251.97 143.033 252.057 143.245 252.063 143.469V143.466Z" fill="url(#paint4_linear_9522_3289)"/>
<path d="M254.427 141.263C253.945 141.021 253.376 141.026 252.842 141.087C251.762 141.212 250.708 141.547 249.756 142.069C249.596 142.157 249.437 142.25 249.309 142.38C249.144 142.545 249.038 142.758 248.937 142.968C248.58 143.723 248.293 144.543 248.349 145.378C248.405 146.213 248.873 147.062 249.655 147.36C249.777 147.407 249.913 147.439 250.043 147.418C250.182 147.397 250.304 147.314 250.418 147.232C251.293 146.593 251.964 145.694 252.887 145.128C253.467 144.771 254.126 144.561 254.698 144.194C255.185 143.88 255.813 143.3 255.629 142.665C255.478 142.138 254.911 141.505 254.427 141.263Z" fill="#F8FAFC"/>
<path d="M254.427 141.263C253.945 141.021 253.376 141.026 252.842 141.087C251.762 141.212 250.708 141.547 249.756 142.069C249.596 142.157 249.437 142.25 249.309 142.38C249.144 142.545 249.038 142.758 248.937 142.968C248.58 143.723 248.293 144.543 248.349 145.378C248.405 146.213 248.873 147.062 249.655 147.36C249.777 147.407 249.913 147.439 250.043 147.418C250.182 147.397 250.304 147.314 250.418 147.232C251.293 146.593 251.964 145.694 252.887 145.128C253.467 144.771 254.126 144.561 254.698 144.194C255.185 143.88 255.813 143.3 255.629 142.665C255.478 142.138 254.911 141.505 254.427 141.263Z" fill="url(#paint5_linear_9522_3289)"/>
<path d="M245.329 140.125C245.063 142.995 242.438 144.748 242.784 148.709H226.263C226.209 148.68 226.159 148.645 226.111 148.61C226.098 148.602 226.084 148.594 226.074 148.584C226.023 148.547 225.973 148.507 225.925 148.467C225.648 148.158 225.443 147.791 225.324 147.395C224.661 145.583 224.148 143.721 223.794 141.825C223.478 140.098 223.289 138.348 222.951 136.624C222.586 134.765 222.054 132.943 221.355 131.179C220.953 130.166 220.49 129.155 220.349 128.07C220.094 126.147 218.245 123.234 219.82 122.082C220.464 121.609 226.63 120.957 227.633 120.513C228.143 120.276 228.67 120.077 229.207 119.912C230.285 119.638 231.399 119.526 232.511 119.584C233.562 119.579 234.61 119.68 235.642 119.885C236.602 120.095 237.445 120.638 238.363 120.851C240.241 121.26 241.866 122.42 242.869 124.056C243.93 125.764 244.372 127.785 244.593 129.783C244.811 131.781 244.787 133.802 245.016 135.792C245.178 137.234 245.465 138.678 245.329 140.125Z" fill="#F8FAFC"/>
<path d="M245.329 140.125C245.063 142.995 242.438 144.748 242.784 148.709H226.263C226.209 148.68 226.159 148.645 226.111 148.61C226.098 148.602 226.084 148.594 226.074 148.584C226.023 148.547 225.973 148.507 225.925 148.467C225.648 148.158 225.443 147.791 225.324 147.395C224.661 145.583 224.148 143.721 223.794 141.825C223.478 140.098 223.289 138.348 222.951 136.624C222.586 134.765 222.054 132.943 221.355 131.179C220.953 130.166 220.49 129.155 220.349 128.07C220.094 126.147 218.245 123.234 219.82 122.082C220.464 121.609 226.63 120.957 227.633 120.513C228.143 120.276 228.67 120.077 229.207 119.912C230.285 119.638 231.399 119.526 232.511 119.584C233.562 119.579 234.61 119.68 235.642 119.885C236.602 120.095 237.445 120.638 238.363 120.851C240.241 121.26 241.866 122.42 242.869 124.056C243.93 125.764 244.372 127.785 244.593 129.783C244.811 131.781 244.787 133.802 245.016 135.792C245.178 137.234 245.465 138.678 245.329 140.125Z" fill="url(#paint6_linear_9522_3289)"/>
<path d="M226.242 128.833V129.817L228.838 131.331L227.761 135.105C227.761 135.105 232.658 139.654 233.437 140.694C234.217 141.734 235.925 148.405 235.829 148.709C235.733 149.012 236.401 148.921 236.401 148.921L236.305 144.588L230.551 128.833H226.245H226.242Z" fill="url(#paint7_linear_9522_3289)"/>
<path d="M224.055 131.671C224.028 132.264 223.927 132.852 223.754 133.419C223.52 134.137 223.113 134.786 222.852 135.491C222.491 136.409 222.355 137.401 222.461 138.382C222.536 138.787 222.563 139.199 222.536 139.609C222.496 139.909 222.387 140.183 222.32 140.473C222.102 141.471 222.44 142.495 222.778 143.46C221.868 143.745 220.993 144.123 220.161 144.588L219.934 144.729C219.035 145.277 218.373 146.139 218.07 147.147C217.982 147.498 217.886 147.937 217.535 148.014C217.368 148.038 217.197 147.996 217.062 147.897C216.46 147.501 216.335 146.695 216.274 145.974C216.067 143.484 214.923 129.479 218.078 124.026C218.44 123.401 219.2 121.654 220.892 121.747C222.206 121.819 223.012 122.68 223.499 123.92C224.337 126.077 224.209 129.378 224.055 131.671Z" fill="#F8FAFC"/>
<path d="M224.056 131.671C224.03 132.264 223.929 132.852 223.756 133.419C223.522 134.137 223.115 134.786 222.854 135.491C222.492 136.408 222.357 137.401 222.463 138.382C222.537 138.786 222.564 139.199 222.537 139.608C222.498 139.909 222.389 140.183 222.322 140.473C222.104 141.47 222.442 142.494 222.78 143.46C221.87 143.745 220.995 144.122 220.162 144.588C219.862 139.459 219.718 129.982 222.184 125.72C222.415 125.321 222.809 124.465 223.503 123.917C224.338 126.077 224.208 129.378 224.056 131.671Z" fill="url(#paint8_linear_9522_3289)"/>
<path d="M230.061 119.848C230.146 120.465 230.194 121.088 230.205 121.71C230.468 127.344 232.373 132.776 234.74 137.891C235.182 138.753 235.53 139.66 235.78 140.596C235.908 141.248 235.98 141.91 235.998 142.572L236.23 146.544C236.107 144.557 236.482 142.57 237.318 140.761C238.009 139.258 239.004 137.931 239.576 136.393C240.613 133.616 240.177 130.528 239.619 127.618C239.228 125.543 238.496 123.037 238.688 120.931C238.775 120.909 233.862 119.361 231.349 119.172C230.819 119.109 230.306 119.377 230.059 119.848H230.061Z" fill="white"/>
<path d="M228.433 120.249L225.811 128.636L229.199 130.174L228.048 133.826L232.665 138.556C233.349 139.258 233.886 140.088 234.245 140.997L236.169 145.876C236.169 145.876 236.788 141.492 234.291 136.364C231.793 131.235 230.061 119.84 230.061 119.84L228.433 120.244V120.249Z" fill="#F8FAFC"/>
<path d="M228.433 120.249L225.811 128.636L229.199 130.174L228.048 133.826L232.665 138.556C233.349 139.258 233.886 140.088 234.245 140.997L236.169 145.876C236.169 145.876 236.788 141.492 234.291 136.364C231.793 131.235 230.061 119.84 230.061 119.84L228.433 120.244V120.249Z" fill="url(#paint9_linear_9522_3289)"/>
<path d="M238.692 120.94L239.593 121.241L243.089 127.878C243.089 127.878 241.679 131.147 241.679 130.881C241.679 130.615 243.216 134.408 243.216 134.408C243.216 134.408 240.719 139.662 238.992 140.433C237.266 141.202 236.202 146.716 236.202 146.716C236.202 146.716 235.558 141.8 239.585 136.398C239.819 136.097 240.274 133.767 239.825 129.921C239.378 126.074 238.112 122.082 238.692 120.94Z" fill="#F8FAFC"/>
<path d="M238.692 120.94L239.593 121.241L243.089 127.878C243.089 127.878 241.679 131.147 241.679 130.881C241.679 130.615 243.216 134.408 243.216 134.408C243.216 134.408 240.719 139.662 238.992 140.433C237.266 141.202 236.202 146.716 236.202 146.716C236.202 146.716 235.558 141.8 239.585 136.398C239.819 136.097 240.274 133.767 239.825 129.921C239.378 126.074 238.112 122.082 238.692 120.94Z" fill="url(#paint10_linear_9522_3289)"/>
<path d="M225.942 114.655C225.569 112.187 224.593 105.343 228.306 101.815C232.876 97.4664 237.68 98.1181 241.045 100.613C242.303 101.491 243.288 102.704 243.886 104.116C244.413 105.441 244.535 106.883 244.61 108.295C244.711 109.258 244.716 110.229 244.628 111.192C244.495 112.128 244.173 113.027 243.681 113.836C243.506 114.121 243.312 114.392 243.144 114.685C242.678 115.53 242.404 116.467 242.338 117.43C242.271 118.39 242.29 119.356 242.391 120.313C242.407 120.473 242.506 120.475 242.335 120.542C242.197 120.563 242.053 120.553 241.918 120.515C241.662 120.475 241.412 120.404 241.16 120.369C240.354 120.257 239.553 120.138 238.755 120.018L229.698 119.901L225.492 119.199C226.035 117.752 226.189 116.185 225.939 114.658L225.942 114.655Z" fill="#C14834"/>
<path d="M225.942 114.655C225.569 112.187 224.593 105.343 228.306 101.815C232.876 97.4664 237.68 98.1181 241.045 100.613C242.793 101.946 243.987 103.88 244.391 106.042C244.572 106.939 244.665 107.851 244.673 108.763C244.695 109.891 244.673 111.264 244.269 112.322C244.011 113.025 243.548 113.631 243.224 114.309C242.803 115.294 242.529 116.331 242.404 117.392C242.234 118.427 242.256 119.483 242.474 120.507C241.827 120.587 241.016 120.348 240.37 120.252C239.832 120.177 239.295 120.095 238.755 120.015L229.698 119.898L225.492 119.196C226.037 117.749 226.192 116.182 225.942 114.655Z" fill="url(#paint11_linear_9522_3289)"/>
<path d="M237.73 123.694C237.204 124.497 236.347 125.026 235.392 125.138C235.323 125.143 235.254 125.143 235.185 125.138C234.943 125.135 234.703 125.101 234.472 125.032C233.839 124.835 233.254 124.508 232.754 124.074C231.605 123.132 230.697 121.925 230.112 120.56C230.056 120.443 230.019 120.315 230.006 120.185C230.006 120.105 230.237 119.951 230.541 119.568C231.027 118.927 231.365 118.185 231.53 117.395C231.671 116.812 231.458 115.373 231.437 114.578C231.437 114.243 231.437 114.019 231.538 114.017C231.775 114.035 232.001 114.126 232.187 114.275C233.267 115.019 234.169 115.993 234.828 117.129L234.975 117.397C235.329 118.017 235.589 118.682 235.754 119.376C235.892 120.113 236.616 119.757 237.462 119.978C237.576 120.007 237.669 120.204 237.744 120.488C237.983 121.411 238.026 123.279 237.728 123.694H237.73Z" fill="#FFB4A3"/>
<path d="M237.745 120.494V120.795C237.716 121.516 237.692 122.237 237.66 122.958C237.644 123.343 237.604 123.78 237.293 124C236.63 124.445 235.925 124.822 235.189 125.131C235.056 125.2 234.901 125.221 234.752 125.192C234.657 125.144 234.563 125.088 234.476 125.027C233.239 124.125 231.361 121.175 230.547 119.563C231.034 118.922 231.371 118.18 231.536 117.39C231.677 116.808 231.465 115.369 231.443 114.573C231.994 114.988 233.523 116.145 234.835 117.124C235.76 117.818 236.577 118.425 236.862 118.627C237.056 118.747 237.231 118.896 237.386 119.066C237.665 119.489 237.793 119.994 237.742 120.5L237.745 120.494Z" fill="url(#paint12_linear_9522_3289)"/>
<path d="M232.568 147.865C232.946 148.073 233.273 148.363 233.638 148.599C233.816 148.714 234.002 148.812 234.18 148.9C234.752 149.222 235.292 149.597 235.798 150.017C235.928 150.102 236.016 150.238 236.045 150.389C236.032 150.538 235.941 150.671 235.808 150.738C235.452 150.898 235.042 150.898 234.686 150.738C234.335 150.578 233.959 150.467 233.576 150.411H233.119C232.954 150.376 232.797 150.315 232.656 150.225C231.951 149.759 231.366 149.134 230.948 148.4C230.799 148.211 230.709 147.985 230.68 147.745C230.68 147.509 230.916 147.535 231.111 147.527C231.619 147.509 232.121 147.626 232.568 147.868V147.865Z" fill="#FFB4A3"/>
<path d="M253.93 142.457C256.686 143.49 259.562 144.168 262.488 144.474C263.791 144.609 265.14 144.681 266.318 145.261C267.736 145.961 268.723 147.301 269.622 148.597C269.803 148.788 269.888 149.052 269.851 149.312C269.752 149.613 269.356 149.706 269.031 149.693C267.196 149.624 265.698 148.145 263.9 147.78C263.842 148.11 263.993 148.44 264.28 148.61C264.565 148.77 264.836 148.948 265.097 149.142C265.185 149.222 265.265 149.344 265.219 149.443C265.19 149.501 265.142 149.546 265.084 149.576C264.669 149.81 264.153 149.671 263.701 149.52C262.74 149.198 261.753 148.81 261.075 148.054C260.775 147.706 260.511 147.272 260.086 147.075C259.716 146.937 259.317 146.9 258.926 146.964C256.253 147.174 252.84 148.317 250.23 147.69C250.057 147.658 249.893 147.594 249.746 147.498C249.416 147.256 249.081 146.296 249.103 145.876C249.121 145.006 249.44 144.171 250.004 143.508C250.587 142.875 253.116 142.168 253.928 142.449" fill="#FFB4A3"/>
<path d="M225.515 145.958C226.417 146.453 227.367 146.953 228.391 147.136C229.221 147.285 230.08 147.222 230.897 147.418C232.306 147.761 233.45 148.871 234.091 150.174C234.732 151.478 234.921 152.975 234.94 154.417C234.94 154.542 234.908 154.717 234.783 154.717C234.719 154.717 234.66 154.696 234.613 154.654C233.628 153.951 233.49 152.451 232.509 151.736L233.205 154.257C233.269 154.489 233.296 154.805 233.072 154.893C232.982 154.925 232.884 154.925 232.793 154.893C232.07 154.683 231.591 154.02 231.189 153.39C230.787 152.76 230.41 152.049 229.763 151.672C230.128 152.672 230.471 153.675 230.793 154.675C230.458 154.816 230.08 154.595 229.811 154.348C229.005 153.603 228.529 152.579 228.072 151.581C228.314 152.401 228.439 153.249 228.439 154.103C228.066 154.148 227.808 153.754 227.643 153.414L225.866 149.746C225.819 149.634 225.752 149.533 225.667 149.445C225.563 149.365 225.444 149.31 225.316 149.28C223.042 148.583 220.613 148.951 218.336 148.254C218.009 148.168 217.695 148.038 217.405 147.868C216.894 147.538 216.719 145.876 216.719 145.269C216.724 144.649 217.038 144.069 217.557 143.729C218.182 143.327 218.948 143.354 219.661 143.327C220.262 143.306 221.4 143.048 221.927 143.365C223.329 144.205 224.082 145.189 225.518 145.961L225.515 145.958Z" fill="#FFB4A3"/>
<path d="M223.143 143.511C223.029 143.243 222.867 142.998 222.659 142.793C222.51 142.599 222.324 142.439 222.111 142.32C221.848 142.219 221.563 142.179 221.281 142.205L218.241 142.253C217.64 142.253 216.988 142.285 216.498 142.647C215.937 143.062 215.74 143.831 215.783 144.527C215.879 145.222 216.02 145.911 216.206 146.586C216.254 147.062 216.395 147.523 216.623 147.94C216.892 148.331 217.467 148.568 217.852 148.291C217.65 147.395 217.629 146.469 217.789 145.568C217.855 145.097 218.134 144.682 218.547 144.445C218.783 144.357 219.036 144.32 219.289 144.333L221.84 144.301C222.444 144.293 223.478 144.488 223.14 143.514L223.143 143.511Z" fill="#F8FAFC"/>
<path d="M223.143 143.511C223.029 143.243 222.867 142.998 222.659 142.793C222.51 142.599 222.324 142.439 222.111 142.32C221.848 142.219 221.563 142.179 221.281 142.205L218.241 142.253C217.64 142.253 216.988 142.285 216.498 142.647C215.937 143.062 215.74 143.831 215.783 144.527C215.879 145.222 216.02 145.911 216.206 146.586C216.254 147.062 216.395 147.523 216.623 147.94C216.892 148.331 217.467 148.568 217.852 148.291C217.65 147.395 217.629 146.469 217.789 145.568C217.855 145.097 218.134 144.682 218.547 144.445C218.783 144.357 219.036 144.32 219.289 144.333L221.84 144.301C222.444 144.293 223.478 144.488 223.14 143.514L223.143 143.511Z" fill="url(#paint13_linear_9522_3289)"/>
<path d="M242.341 117.523C241.982 118.1 241.562 118.635 241.085 119.119C240.255 120.021 239.394 120.954 238.276 121.465C237.912 121.643 237.513 121.736 237.109 121.739C236.409 121.715 235.784 121.298 235.249 120.837C231.863 117.991 230.379 113.224 231.044 108.846C231.166 107.787 231.525 106.769 232.095 105.87C233.06 104.473 234.747 103.707 236.433 103.507C237.707 103.337 239.003 103.507 240.189 104.002C241.373 104.505 242.346 105.401 242.945 106.54C243.197 107.09 243.4 107.662 243.546 108.25C243.852 109.309 242.753 116.829 242.344 117.523H242.341Z" fill="#FFB4A3"/>
<path d="M241.081 107.045C240.31 107.72 239.408 108.231 238.432 108.547C237.802 108.779 237.155 108.968 236.501 109.109C235.453 109.335 234.36 109.452 233.418 109.965C232.101 110.681 231.282 112.069 230.798 113.49C230.303 113.088 229.912 112.572 229.659 111.987C229.399 111.348 229.26 110.667 229.25 109.981C229.189 108.441 229.502 106.912 230.165 105.52C230.737 104.254 231.689 103.198 232.889 102.501C233.559 102.163 234.274 101.921 235.014 101.788C236.017 101.554 237.054 101.49 238.078 101.6C239.517 101.796 240.85 102.469 241.861 103.512C242.419 104.092 242.462 104.414 242.249 105.167C242.036 105.887 241.632 106.534 241.081 107.045Z" fill="#C14834"/>
<path d="M222.734 156.026L228.653 171.758L209.381 172.452L209.49 156.234L222.734 156.026Z" fill="white"/>
<g opacity="0.33">
<path d="M211.121 170.968L210.57 157.242H222.405L226.897 170.199L211.118 170.965L211.121 170.968ZM210.871 157.529L211.398 170.67L226.509 169.936L222.205 157.529H210.871Z" fill="url(#paint14_linear_9522_3289)"/>
</g>
<g opacity="0.33">
<path d="M226.063 168.738L211.26 169.278L211.27 169.563L226.074 169.023L226.063 168.738Z" fill="url(#paint15_linear_9522_3289)"/>
</g>
<g opacity="0.33">
<path d="M226.063 167.505L211.26 168.045L211.27 168.329L226.074 167.789L226.063 167.505Z" fill="url(#paint16_linear_9522_3289)"/>
</g>
<g opacity="0.33">
<path d="M225.005 166.03L211.146 166.577L211.157 166.854L225.016 166.307L225.005 166.03Z" fill="url(#paint17_linear_9522_3289)"/>
</g>
<g opacity="0.33">
<path d="M224.603 164.804L211.072 165.21L211.081 165.486L224.611 165.08L224.603 164.804Z" fill="url(#paint18_linear_9522_3289)"/>
</g>
<g opacity="0.33">
<path d="M224.369 163.349L211.045 164.052L211.059 164.328L224.384 163.625L224.369 163.349Z" fill="url(#paint19_linear_9522_3289)"/>
</g>
<g opacity="0.33">
<path d="M224.044 162.261L211.041 162.824L211.053 163.101L224.056 162.537L224.044 162.261Z" fill="url(#paint20_linear_9522_3289)"/>
</g>
<g opacity="0.33">
<path d="M223.759 161.171L211.035 161.673L211.046 161.949L223.77 161.447L223.759 161.171Z" fill="url(#paint21_linear_9522_3289)"/>
</g>
<g opacity="0.33">
<path d="M223.352 160.051L210.992 160.515L211.003 160.791L223.363 160.327L223.352 160.051Z" fill="url(#paint22_linear_9522_3289)"/>
</g>
<g opacity="0.33">
<path d="M222.964 159.078L210.932 159.396L210.939 159.672L222.971 159.355L222.964 159.078Z" fill="url(#paint23_linear_9522_3289)"/>
</g>
<g opacity="0.33">
<path d="M222.677 158.026L210.852 158.203L210.856 158.48L222.681 158.302L222.677 158.026Z" fill="url(#paint24_linear_9522_3289)"/>
</g>
<g opacity="0.33">
<path d="M211.993 157.377L211.717 157.394L212.523 170.613L212.799 170.596L211.993 157.377Z" fill="url(#paint25_linear_9522_3289)"/>
</g>
<g opacity="0.33">
<path d="M215.862 157.339L215.588 157.378L217.451 170.353L217.725 170.314L215.862 157.339Z" fill="url(#paint26_linear_9522_3289)"/>
</g>
<g opacity="0.33">
<path d="M220.388 157.316L220.121 157.39L223.682 170.257L223.949 170.183L220.388 157.316Z" fill="url(#paint27_linear_9522_3289)"/>
</g>
<path d="M228.836 154.941V155.867L232.767 161.046L243.051 159.253L243.165 157.123L239.101 153.295L228.836 154.941Z" fill="#F8FAFC"/>
<path d="M228.836 154.941V155.867L232.767 161.046L243.051 159.253L243.165 157.123L239.101 153.295L228.836 154.941Z" fill="url(#paint28_linear_9522_3289)"/>
<path d="M232.98 158.939L243.165 157.123L239.101 153.295L229.094 154.931L232.98 158.939Z" fill="#F8FAFC"/>
<path d="M232.227 157.322L233.056 158.354L242.159 156.742L240.755 155.724L232.227 157.322Z" fill="white"/>
<path d="M231.874 157.059L231.002 156.264L232.478 155.984L233.393 156.724L231.874 157.059Z" fill="url(#paint29_linear_9522_3289)"/>
<path d="M230.776 156.139L229.9 155.341L231.382 155.062L232.292 155.804L230.776 156.139Z" fill="url(#paint30_linear_9522_3289)"/>
<path d="M233.64 156.751L232.768 155.958L234.244 155.679L235.159 156.418L233.64 156.751Z" fill="url(#paint31_linear_9522_3289)"/>
<path d="M232.543 155.83L231.668 155.034L233.147 154.755L234.057 155.494L232.543 155.83Z" fill="url(#paint32_linear_9522_3289)"/>
<path d="M235.406 156.444L234.533 155.652L236.015 155.367L236.925 156.109L235.406 156.444Z" fill="url(#paint33_linear_9522_3289)"/>
<path d="M234.31 155.524L233.438 154.729L234.914 154.449L235.829 155.189L234.31 155.524Z" fill="url(#paint34_linear_9522_3289)"/>
<path d="M237.178 156.139L236.303 155.341L237.782 155.062L238.694 155.804L237.178 156.139Z" fill="url(#paint35_linear_9522_3289)"/>
<path d="M236.076 155.216L235.203 154.423L236.682 154.144L237.594 154.883L236.076 155.216Z" fill="url(#paint36_linear_9522_3289)"/>
<path d="M238.943 155.83L238.068 155.034L239.547 154.755L240.46 155.494L238.943 155.83Z" fill="url(#paint37_linear_9522_3289)"/>
<path d="M237.848 154.91L236.973 154.117L238.452 153.835L239.361 154.574L237.848 154.91Z" fill="url(#paint38_linear_9522_3289)"/>
<defs>
<filter id="filter0_d_9522_3289" x="26" y="25" width="452" height="18" filterUnits="userSpaceOnUse" color-interpolation-filters="sRGB">
<feFlood flood-opacity="0" result="BackgroundImageFix"/>
<feColorMatrix in="SourceAlpha" type="matrix" values="0 0 0 0 0 0 0 0 0 0 0 0 0 0 0 0 0 0 127 0" result="hardAlpha"/>
<feOffset dx="-6" dy="-5"/>
<feGaussianBlur stdDeviation="2"/>
<feComposite in2="hardAlpha" operator="out"/>
<feColorMatrix type="matrix" values="0 0 0 0 0.592157 0 0 0 0 0.580392 0 0 0 0 0.580392 0 0 0 0.25 0"/>
<feBlend mode="normal" in2="BackgroundImageFix" result="effect1_dropShadow_9522_3289"/>
<feBlend mode="normal" in="SourceGraphic" in2="effect1_dropShadow_9522_3289" result="shape"/>
</filter>
<filter id="filter1_d_9522_3289" x="18" y="32" width="17" height="181" filterUnits="userSpaceOnUse" color-interpolation-filters="sRGB">
<feFlood flood-opacity="0" result="BackgroundImageFix"/>
<feColorMatrix in="SourceAlpha" type="matrix" values="0 0 0 0 0 0 0 0 0 0 0 0 0 0 0 0 0 0 127 0" result="hardAlpha"/>
<feOffset dx="-6" dy="-4"/>
<feGaussianBlur stdDeviation="2"/>
<feComposite in2="hardAlpha" operator="out"/>
<feColorMatrix type="matrix" values="0 0 0 0 0.593099 0 0 0 0 0.580629 0 0 0 0 0.580629 0 0 0 0.25 0"/>
<feBlend mode="normal" in2="BackgroundImageFix" result="effect1_dropShadow_9522_3289"/>
<feBlend mode="normal" in="SourceGraphic" in2="effect1_dropShadow_9522_3289" result="shape"/>
</filter>
<linearGradient id="paint0_linear_9522_3289" x1="483" y1="124" x2="28" y2="124" gradientUnits="userSpaceOnUse">
<stop stop-color="#00FF85"/>
<stop offset="1" stop-color="#00EEE9"/>
</linearGradient>
<linearGradient id="paint1_linear_9522_3289" x1="258.29" y1="138.79" x2="261.335" y2="177.865" gradientUnits="userSpaceOnUse">
<stop/>
<stop offset="1" stop-opacity="0"/>
</linearGradient>
<linearGradient id="paint2_linear_9522_3289" x1="273.432" y1="158.256" x2="269.085" y2="146.672" gradientUnits="userSpaceOnUse">
<stop/>
<stop offset="1" stop-opacity="0"/>
</linearGradient>
<linearGradient id="paint3_linear_9522_3289" x1="267.852" y1="147.711" x2="298.101" y2="147.711" gradientUnits="userSpaceOnUse">
<stop/>
<stop offset="1" stop-opacity="0"/>
</linearGradient>
<linearGradient id="paint4_linear_9522_3289" x1="228.163" y1="156.692" x2="247.921" y2="130.954" gradientUnits="userSpaceOnUse">
<stop/>
<stop offset="1" stop-opacity="0"/>
</linearGradient>
<linearGradient id="paint5_linear_9522_3289" x1="250.091" y1="137.193" x2="252.576" y2="146.264" gradientUnits="userSpaceOnUse">
<stop/>
<stop offset="1" stop-opacity="0"/>
</linearGradient>
<linearGradient id="paint6_linear_9522_3289" x1="232.793" y1="167.502" x2="232.274" y2="131.102" gradientUnits="userSpaceOnUse">
<stop/>
<stop offset="1" stop-opacity="0"/>
</linearGradient>
<linearGradient id="paint7_linear_9522_3289" x1="236.22" y1="117.318" x2="229.865" y2="145.28" gradientUnits="userSpaceOnUse">
<stop/>
<stop offset="1" stop-opacity="0"/>
</linearGradient>
<linearGradient id="paint8_linear_9522_3289" x1="249.491" y1="148.78" x2="219.795" y2="133.182" gradientUnits="userSpaceOnUse">
<stop/>
<stop offset="1" stop-opacity="0"/>
</linearGradient>
<linearGradient id="paint9_linear_9522_3289" x1="231.178" y1="113.022" x2="231.061" y2="130.815" gradientUnits="userSpaceOnUse">
<stop/>
<stop offset="1" stop-opacity="0"/>
</linearGradient>
<linearGradient id="paint10_linear_9522_3289" x1="239.865" y1="113.077" x2="239.75" y2="130.873" gradientUnits="userSpaceOnUse">
<stop/>
<stop offset="1" stop-opacity="0"/>
</linearGradient>
<linearGradient id="paint11_linear_9522_3289" x1="239.09" y1="125.471" x2="231.384" y2="101.4" gradientUnits="userSpaceOnUse">
<stop/>
<stop offset="1" stop-opacity="0"/>
</linearGradient>
<linearGradient id="paint12_linear_9522_3289" x1="238.178" y1="113.533" x2="232.451" y2="122.242" gradientUnits="userSpaceOnUse">
<stop/>
<stop offset="1" stop-opacity="0"/>
</linearGradient>
<linearGradient id="paint13_linear_9522_3289" x1="209.489" y1="144.216" x2="224.657" y2="145.863" gradientUnits="userSpaceOnUse">
<stop/>
<stop offset="1" stop-opacity="0"/>
</linearGradient>
<linearGradient id="paint14_linear_9522_3289" x1="221.226" y1="180.358" x2="212.387" y2="141.359" gradientUnits="userSpaceOnUse">
<stop/>
<stop offset="1" stop-opacity="0"/>
</linearGradient>
<linearGradient id="paint15_linear_9522_3289" x1="221.198" y1="180.363" x2="212.358" y2="141.364" gradientUnits="userSpaceOnUse">
<stop/>
<stop offset="1" stop-opacity="0"/>
</linearGradient>
<linearGradient id="paint16_linear_9522_3289" x1="221.464" y1="180.303" x2="212.625" y2="141.306" gradientUnits="userSpaceOnUse">
<stop/>
<stop offset="1" stop-opacity="0"/>
</linearGradient>
<linearGradient id="paint17_linear_9522_3289" x1="221.239" y1="180.352" x2="212.399" y2="141.356" gradientUnits="userSpaceOnUse">
<stop/>
<stop offset="1" stop-opacity="0"/>
</linearGradient>
<linearGradient id="paint18_linear_9522_3289" x1="221.293" y1="180.339" x2="212.454" y2="141.341" gradientUnits="userSpaceOnUse">
<stop/>
<stop offset="1" stop-opacity="0"/>
</linearGradient>
<linearGradient id="paint19_linear_9522_3289" x1="221.438" y1="180.306" x2="212.599" y2="141.311" gradientUnits="userSpaceOnUse">
<stop/>
<stop offset="1" stop-opacity="0"/>
</linearGradient>
<linearGradient id="paint20_linear_9522_3289" x1="221.537" y1="180.285" x2="212.697" y2="141.287" gradientUnits="userSpaceOnUse">
<stop/>
<stop offset="1" stop-opacity="0"/>
</linearGradient>
<linearGradient id="paint21_linear_9522_3289" x1="221.645" y1="180.261" x2="212.806" y2="141.263" gradientUnits="userSpaceOnUse">
<stop/>
<stop offset="1" stop-opacity="0"/>
</linearGradient>
<linearGradient id="paint22_linear_9522_3289" x1="221.683" y1="180.254" x2="212.844" y2="141.256" gradientUnits="userSpaceOnUse">
<stop/>
<stop offset="1" stop-opacity="0"/>
</linearGradient>
<linearGradient id="paint23_linear_9522_3289" x1="221.68" y1="180.255" x2="212.841" y2="141.257" gradientUnits="userSpaceOnUse">
<stop/>
<stop offset="1" stop-opacity="0"/>
</linearGradient>
<linearGradient id="paint24_linear_9522_3289" x1="221.755" y1="180.236" x2="212.916" y2="141.238" gradientUnits="userSpaceOnUse">
<stop/>
<stop offset="1" stop-opacity="0"/>
</linearGradient>
<linearGradient id="paint25_linear_9522_3289" x1="216.214" y1="181.493" x2="207.375" y2="142.495" gradientUnits="userSpaceOnUse">
<stop/>
<stop offset="1" stop-opacity="0"/>
</linearGradient>
<linearGradient id="paint26_linear_9522_3289" x1="220.437" y1="180.534" x2="211.597" y2="141.536" gradientUnits="userSpaceOnUse">
<stop/>
<stop offset="1" stop-opacity="0"/>
</linearGradient>
<linearGradient id="paint27_linear_9522_3289" x1="225.559" y1="179.37" x2="216.719" y2="140.375" gradientUnits="userSpaceOnUse">
<stop/>
<stop offset="1" stop-opacity="0"/>
</linearGradient>
<linearGradient id="paint28_linear_9522_3289" x1="236.1" y1="152.244" x2="235.776" y2="164.656" gradientUnits="userSpaceOnUse">
<stop/>
<stop offset="1" stop-opacity="0"/>
</linearGradient>
<linearGradient id="paint29_linear_9522_3289" x1="232.138" y1="157.251" x2="232.228" y2="156.101" gradientUnits="userSpaceOnUse">
<stop/>
<stop offset="1" stop-opacity="0"/>
</linearGradient>
<linearGradient id="paint30_linear_9522_3289" x1="231.039" y1="156.33" x2="231.127" y2="155.184" gradientUnits="userSpaceOnUse">
<stop/>
<stop offset="1" stop-opacity="0"/>
</linearGradient>
<linearGradient id="paint31_linear_9522_3289" x1="233.903" y1="156.942" x2="233.994" y2="155.796" gradientUnits="userSpaceOnUse">
<stop/>
<stop offset="1" stop-opacity="0"/>
</linearGradient>
<linearGradient id="paint32_linear_9522_3289" x1="232.804" y1="156.024" x2="232.894" y2="154.872" gradientUnits="userSpaceOnUse">
<stop/>
<stop offset="1" stop-opacity="0"/>
</linearGradient>
<linearGradient id="paint33_linear_9522_3289" x1="235.672" y1="156.636" x2="235.759" y2="155.49" gradientUnits="userSpaceOnUse">
<stop/>
<stop offset="1" stop-opacity="0"/>
</linearGradient>
<linearGradient id="paint34_linear_9522_3289" x1="234.573" y1="155.715" x2="234.664" y2="154.566" gradientUnits="userSpaceOnUse">
<stop/>
<stop offset="1" stop-opacity="0"/>
</linearGradient>
<linearGradient id="paint35_linear_9522_3289" x1="237.439" y1="156.33" x2="237.529" y2="155.184" gradientUnits="userSpaceOnUse">
<stop/>
<stop offset="1" stop-opacity="0"/>
</linearGradient>
<linearGradient id="paint36_linear_9522_3289" x1="236.342" y1="155.407" x2="236.427" y2="154.261" gradientUnits="userSpaceOnUse">
<stop/>
<stop offset="1" stop-opacity="0"/>
</linearGradient>
<linearGradient id="paint37_linear_9522_3289" x1="239.204" y1="156.024" x2="239.295" y2="154.872" gradientUnits="userSpaceOnUse">
<stop/>
<stop offset="1" stop-opacity="0"/>
</linearGradient>
<linearGradient id="paint38_linear_9522_3289" x1="238.108" y1="155.101" x2="238.196" y2="153.955" gradientUnits="userSpaceOnUse">
<stop/>
<stop offset="1" stop-opacity="0"/>
</linearGradient>
</defs>
</svg>
