<svg width="483" height="213" viewBox="0 0 483 213" fill="none" xmlns="http://www.w3.org/2000/svg">
<path d="M0 30C0 13.4315 13.4315 0 30 0H453C469.569 0 483 13.4315 483 30V213H0V30Z" fill="#ECEEF0"/>
<g filter="url(#filter0_d_9519_2695)">
<path d="M36 38.5C36 36.0147 38.0147 34 40.5 34H473.5C475.985 34 478 36.0147 478 38.5V38.5C478 40.9853 475.985 43 473.5 43H40.5C38.0147 43 36 40.9853 36 38.5V38.5Z" fill="#CFCFCF" fill-opacity="0.7" shape-rendering="crispEdges"/>
</g>
<g filter="url(#filter1_d_9519_2695)">
<path d="M31.5 213C29.567 213 28 211.433 28 209.5L28 43.5C28 41.567 29.567 40 31.5 40V40C33.433 40 35 41.567 35 43.5L35 209.5C35 211.433 33.433 213 31.5 213V213Z" fill="#CFCFCF" fill-opacity="0.7" shape-rendering="crispEdges"/>
</g>
<path d="M28 39C28 36.7909 29.7909 35 32 35H479C481.209 35 483 36.7909 483 39V209C483 211.209 481.209 213 479 213H32C29.7909 213 28 211.209 28 209V39Z" fill="url(#paint0_linear_9519_2695)"/>
<path opacity="0.18" d="M299.366 176.804C298.941 177.315 298.486 177.799 298.004 178.256C293.07 182.975 285.87 184.281 279.084 184.978C265.824 186.335 252.452 186.156 239.232 184.443H240.091C239.248 184.337 238.407 184.177 237.575 184.002C232.002 182.831 226.727 180.539 222.075 177.256C219.907 175.708 217.925 173.915 216.17 171.912C210.687 165.643 207.687 157.032 208.961 148.791C210.02 141.857 213.877 135.664 215.587 128.865C219.053 115.049 213.409 99.9778 217.766 86.3932C218.792 83.1852 220.354 80.1714 221.907 77.1763C222.881 75.3063 223.876 73.4017 225.392 71.9334C227.094 70.2895 229.331 69.3239 231.507 68.3903C239.987 64.7594 248.787 61.0912 258.006 61.2668C263.105 61.3599 268.133 62.658 272.857 64.5812C276.264 65.9723 279.573 67.7173 282.334 70.1565C288.506 75.6015 291.344 83.9513 292.089 92.1441C292.833 100.337 291.727 108.548 291.283 116.749C291.027 121.428 291.003 126.187 292.238 130.714C293.631 135.829 296.56 140.359 298.967 145.078C301.667 150.366 303.774 156.088 303.984 162.022C304.152 167.3 302.691 172.766 299.364 176.796L299.366 176.804Z" fill="#F8FAFC"/>
<path opacity="0.54" d="M299.366 176.804C298.94 177.315 298.485 177.799 298.004 178.256C293.445 182.613 286.938 184.063 280.623 184.808C280.107 184.869 279.597 184.925 279.083 184.978C265.823 186.335 252.451 186.156 239.231 184.443H240.09C239.247 184.337 238.407 184.177 237.574 184.002C237.255 183.933 236.936 183.861 236.619 183.784C231.395 182.563 226.455 180.344 222.074 177.251C231.299 174.274 245.525 172.364 261.479 172.364C276.588 172.391 290.138 174.096 299.363 176.804H299.366Z" fill="#F8FAFC"/>
<path opacity="0.54" d="M280.653 184.555C280.658 184.646 280.658 184.733 280.653 184.824C280.137 184.885 279.626 184.941 279.113 184.994C265.853 186.351 252.481 186.172 239.261 184.459H240.12C239.277 184.353 238.436 184.193 237.603 184.018C237.284 183.949 236.965 183.877 236.648 183.8C237.792 180.148 247.177 177.307 258.596 177.307C270.752 177.307 280.647 180.552 280.647 184.555H280.653Z" fill="#F8FAFC"/>
<path d="M249.163 76.8598L245.998 73.1571C245.998 73.1571 246.871 69.5927 252.558 68.2095C253.68 67.9408 254.837 67.8637 255.984 67.9807C257.59 68.1164 259.168 68.4968 260.663 69.1032L260.615 73.3459C260.615 73.3459 250.254 73.9205 249.161 76.8598H249.163Z" fill="#F8FAFC"/>
<path d="M249.163 76.8598L245.998 73.1571C245.998 73.1571 246.871 69.5927 252.558 68.2095C253.68 67.9408 254.837 67.8637 255.984 67.9807C257.59 68.1164 259.168 68.4968 260.663 69.1032L260.615 73.3459C260.615 73.3459 250.254 73.9205 249.161 76.8598H249.163Z" fill="url(#paint1_linear_9519_2695)"/>
<path d="M249.163 76.8599C248.248 76.1843 246.388 76.4184 245.468 76.7881C244.122 77.3361 243.106 78.4825 242.72 79.8844C242.555 80.5334 242.507 81.2037 242.579 81.8687C242.712 83.3211 243.345 84.816 244.537 85.6885C247.027 87.5026 248.562 85.8188 249.304 83.5498C249.772 82.2651 249.924 80.8845 249.743 79.5279C249.61 78.5038 250.078 77.6899 249.282 76.9584L249.165 76.8599H249.163Z" fill="#C14834"/>
<path d="M254.383 89.6626C258.198 89.6626 261.291 85.804 261.291 81.0442C261.291 76.2844 258.198 72.4258 254.383 72.4258C250.567 72.4258 247.475 76.2844 247.475 81.0442C247.475 85.804 250.567 89.6626 254.383 89.6626Z" fill="#C14834"/>
<path d="M261.607 79.2992C261.671 80.5494 261.658 81.8022 261.568 83.0524C261.4 84.6139 261.974 86.1646 263.121 87.2366C262.767 87.2792 262.408 87.2685 262.057 87.2047C261.7 87.1382 261.395 86.9148 261.222 86.5956C261.56 87.1914 262.15 87.6037 262.826 87.7181C262.1 88.0346 260.171 88.7103 260.041 87.4787C259.993 87.0079 260.19 86.4599 260.227 85.9864C260.277 85.3427 260.288 84.6937 260.32 84.0526L260.567 78.8789" fill="#C14834"/>
<path d="M276.299 104.814C276.299 104.814 277.565 102.577 278.113 102.244C278.602 101.944 279.634 100.989 279.927 101.199C280.435 101.561 278.235 103.526 280.198 103.377C280.507 103.351 282.082 103.377 282.84 104.104C283.425 104.652 283.454 105.572 282.904 106.157C282.861 106.202 282.816 106.245 282.771 106.282C282.255 106.644 280.488 106.793 279.533 106.766C278.578 106.74 277.461 106.875 276.807 107.266" fill="#FFB4A3"/>
<path d="M262.769 95.3174C262.769 95.3174 263.676 98.1662 263.767 99.7064C263.857 101.247 264.575 107.721 264.82 108.056C265.062 108.391 276.673 104.425 276.673 104.425C276.673 104.425 277.373 105.412 276.811 107.274C276.811 107.274 268.193 115.076 262.977 115.379C257.76 115.685 258.428 103.327 258.428 103.327" fill="#FFB4A3"/>
<path d="M267.8 107.721C267.846 107.822 267.856 107.937 267.83 108.043C267.795 108.115 267.744 108.179 267.681 108.229L265.688 110.022C265.467 110.264 265.178 110.434 264.861 110.517C264.502 110.546 264.151 110.405 263.917 110.131C263.685 109.863 263.499 109.562 263.366 109.235C263.01 108.533 262.709 107.804 262.467 107.056C262.153 105.915 262.004 104.734 262.025 103.55C262.025 102.178 262.087 100.811 262.182 99.4407C262.19 98.9805 262.265 98.5257 262.408 98.0894C262.518 97.7516 262.738 97.459 263.034 97.2622C263.454 97.0547 263.531 97.3021 263.741 97.6638C264.183 98.4299 264.584 99.2146 264.954 100.013C265.678 101.598 266.316 103.218 266.867 104.87C267.186 105.822 267.497 106.769 267.806 107.719L267.8 107.721Z" fill="#F8FAFC"/>
<path d="M267.736 107.463C267.781 107.564 267.792 107.676 267.768 107.782C267.733 107.857 267.68 107.921 267.616 107.969L265.624 109.767C265.403 110.009 265.113 110.179 264.797 110.262C264.44 110.291 264.089 110.147 263.852 109.876C263.624 109.607 263.437 109.304 263.302 108.979C262.948 108.277 262.647 107.548 262.403 106.801C262.089 105.66 261.942 104.479 261.964 103.295C261.945 101.922 262.022 100.55 262.115 99.1826C262.123 98.7251 262.198 98.2702 262.341 97.8367C262.451 97.4988 262.671 97.2062 262.967 97.0094C263.387 96.7993 263.464 97.0493 263.693 97.411C264.134 98.1745 264.536 98.9618 264.908 99.7598C265.624 101.34 266.262 102.957 266.813 104.601C267.119 105.564 267.43 106.514 267.739 107.466L267.736 107.463Z" fill="url(#paint2_linear_9519_2695)"/>
<path d="M252.56 176.642L256.093 182.193C255.526 182.002 250.238 180.81 249.012 180.813C248.209 180.778 247.435 180.496 246.799 180.004L247.568 176.073L248.935 156.631L256.292 157.698L252.56 176.642Z" fill="#FFB4A3"/>
<path d="M266.746 176.493L270.068 181.491C269.473 181.443 265.477 180.563 264.288 180.874C263.501 181.041 262.679 180.959 261.939 180.642L261.708 176.65L260.205 158.652L266.533 155.569L266.749 176.493H266.746Z" fill="#FFB4A3"/>
<path d="M251.685 86.79L251.387 93.049C252.054 94.0199 253.196 94.5572 254.371 94.4508C257.388 94.113 257.276 93.2166 257.276 93.2166C257.276 93.2166 257.276 88.6973 257.398 87.6891" fill="#FFB4A3"/>
<path d="M252.404 88.8272L251.707 87.5664L257.381 88.1942C257.333 88.5799 257.304 89.4763 257.288 90.4419C255.482 90.9739 253.537 90.3301 252.404 88.8272Z" fill="url(#paint3_linear_9519_2695)"/>
<path d="M269.986 155.819C266.191 160.825 255.684 160.049 249.853 159.519C248.866 159.429 247.435 159.519 246.509 159.158C244.312 158.293 245.504 157.277 245.881 155.114C246.65 150.678 245.852 146.137 245.639 141.684C245.557 139.851 246.389 133.087 246.964 128.953C247.233 127.02 247.443 125.658 247.475 125.639C248.871 124.889 252.39 127.557 253.957 127.488C254.627 127.456 261.171 126.554 264.017 126.192C264.422 127.147 264.887 128.078 265.411 128.972C265.483 129.076 265.547 129.185 265.603 129.299C265.672 130.049 265.749 130.895 265.831 131.808C266.707 141.41 269.984 155.825 269.984 155.825L269.986 155.819Z" fill="#F8FAFC"/>
<path d="M269.987 155.819C266.446 160.485 257.083 160.125 251.112 159.628L249.859 159.519C248.872 159.429 247.441 159.519 246.515 159.157C244.318 158.293 245.51 157.277 245.887 155.114C246.656 150.677 245.858 146.136 245.645 141.684C245.563 139.851 246.395 133.087 246.97 128.953C247.239 127.019 247.449 125.657 247.481 125.639C247.92 125.399 248.569 125.506 249.295 125.75C250.891 126.296 252.88 127.532 253.955 127.485C254.625 127.453 261.169 126.551 264.015 126.189C264.417 127.144 264.882 128.072 265.406 128.966C265.478 129.07 265.542 129.179 265.598 129.293C265.667 130.043 265.744 130.889 265.827 131.802C266.71 141.407 269.987 155.822 269.987 155.822V155.819Z" fill="url(#paint4_linear_9519_2695)"/>
<path d="M265.409 128.982C265.409 128.982 263.092 135.113 256.596 135.773C252.258 136.22 247.699 130.017 246.962 128.963L246.855 128.812V127.873L247.217 106.125L247.417 94.2477C247.417 94.2477 248.233 94.285 251.489 93.6838C254.546 93.1252 255.681 93.4045 257.892 93.8248C261.922 94.5909 262.379 94.8409 262.975 95.3649C264.018 96.264 266.606 106.742 262.954 115.363C261.462 118.935 265.409 128.982 265.409 128.982Z" fill="#F8FAFC"/>
<path d="M265.409 128.982C265.409 128.982 263.092 135.113 256.596 135.773C254.165 136.023 251.667 134.188 249.808 132.336C248.768 131.291 247.816 130.163 246.962 128.963L246.855 128.812V127.873L246.983 120.318L247.215 106.125L247.414 94.2477C247.414 94.2477 248.231 94.285 251.487 93.6838C254.543 93.1252 255.679 93.4045 257.889 93.8248C261.919 94.5909 262.377 94.8409 262.972 95.3649C264.015 96.264 266.603 106.742 262.951 115.363C261.456 118.887 265.281 128.721 265.382 128.979H265.409V128.982Z" fill="url(#paint5_linear_9519_2695)"/>
<path d="M251.106 159.629L249.853 159.52C248.866 159.429 247.435 159.52 246.509 159.158C244.312 158.293 245.504 157.277 245.881 155.115C246.65 150.678 245.852 146.137 245.639 141.684C245.557 139.852 246.389 133.087 246.964 128.954L246.858 128.802V127.863L246.985 120.309L248.914 121.641L249.276 125.754L249.839 131.739C249.839 131.739 249.839 131.954 249.81 132.329C249.669 135.428 249.084 149.779 250.356 152.316C251.404 154.428 251.252 157.937 251.106 159.631V159.629Z" fill="url(#paint6_linear_9519_2695)"/>
<path d="M257.549 115.906L260.227 107.074C260.384 106.553 260.871 106.202 261.414 106.215L268.433 106.276C269.104 106.282 269.644 106.832 269.638 107.503C269.638 107.625 269.617 107.745 269.58 107.862L265.271 121.292C265.106 121.808 264.622 122.151 264.079 122.138L257.341 121.949C256.671 121.93 256.141 121.369 256.163 120.699C256.165 120.593 256.184 120.489 256.213 120.385L257.546 115.906H257.549Z" fill="#F8FAFC"/>
<path d="M257.549 115.906L260.227 107.074C260.384 106.553 260.871 106.202 261.414 106.215L268.433 106.276C269.104 106.282 269.644 106.832 269.638 107.503C269.638 107.625 269.617 107.745 269.58 107.862L265.271 121.292C265.106 121.808 264.622 122.151 264.079 122.138L257.341 121.949C256.671 121.93 256.141 121.369 256.163 120.699C256.165 120.593 256.184 120.489 256.213 120.385L257.546 115.906H257.549Z" fill="url(#paint7_linear_9519_2695)"/>
<path d="M258.478 115.871L261.077 107.08C261.205 106.58 261.652 106.229 262.165 106.221L268.509 106.287C269.156 106.34 269.637 106.904 269.584 107.551C269.576 107.657 269.552 107.764 269.515 107.862L265.333 121.247C265.198 121.739 264.753 122.082 264.245 122.085L258.146 121.896C257.502 121.835 257.034 121.263 257.095 120.619C257.106 120.524 257.124 120.43 257.159 120.337L258.476 115.871H258.478Z" fill="url(#paint8_linear_9519_2695)"/>
<path d="M249.326 76.6548C249.326 76.6548 249.576 84.6694 251.906 87.4119C254.364 90.3166 255.766 90.6783 258.745 89.4787C261.286 88.4705 261.583 81.5253 261.671 79.5276C261.892 74.3406 253.939 69.8718 249.326 76.6575V76.6548Z" fill="#FFB4A3"/>
<path d="M251.584 103.986L246.873 127.871L247.232 106.128L247.474 100.443L251.584 103.986Z" fill="url(#paint9_linear_9519_2695)"/>
<path d="M250.252 81.7437C250.252 81.7437 250.122 80.5387 248.935 81.0574C247.749 81.5761 248.863 83.6855 249.326 84.2547C249.789 84.824 250.678 84.6511 250.678 84.6511" fill="#FFB4A3"/>
<path d="M261.528 74.1464C262.38 75.0853 262.805 76.3329 262.704 77.5937C262.547 79.1445 261.457 80.3016 259.834 80.0994C259.834 80.0994 260.648 78.4742 259.605 77.6815C259.605 77.6815 259.323 79.5807 257.384 79.7536L256.137 79.6659C256.137 79.6659 256.573 77.9315 256.137 77.4527C255.7 76.9739 255.099 79.8813 253.958 80.1207C253.487 80.2351 253.008 80.2989 252.524 80.3176C252.269 80.3601 251.396 78.7774 251.38 78.7561C251.452 79.0434 251.492 79.3387 251.497 79.6339C251.583 80.134 251.63 80.6368 251.644 81.1448C251.681 82.3791 251.684 83.6133 251.644 84.8475C251.617 85.7599 251.564 86.7016 251.136 87.5075C250.707 88.3135 249.808 88.9386 248.915 88.7524C249.67 88.3055 249.987 87.3692 250.061 86.4941C250.146 85.3609 250.069 84.2251 249.83 83.1132C249.667 82.2195 249.779 80.9746 249.319 80.1633C247.914 77.6868 249.298 74.6092 251.697 73.4308C254.304 72.146 258.07 71.6167 260.608 73.343C260.948 73.5718 261.26 73.8405 261.534 74.1464H261.528Z" fill="#C14834"/>
<path d="M247.432 94.5144C247.432 94.5144 246.006 96.4854 243.469 104.479C242.525 107.445 240.734 114.084 240.734 114.084C240.734 114.084 244.488 115.366 247.137 115.366C248.323 108.487 251.175 105.822 251.707 102.662C252.242 99.4992 249.02 93.9052 247.43 94.517L247.432 94.5144Z" fill="#F8FAFC"/>
<path d="M247.432 94.5144C247.432 94.5144 246.006 96.4854 243.469 104.479C242.525 107.445 240.734 114.084 240.734 114.084C240.734 114.084 244.488 115.366 247.137 115.366C248.323 108.487 251.175 105.822 251.707 102.662C252.242 99.4992 249.02 93.9052 247.43 94.517L247.432 94.5144Z" fill="url(#paint10_linear_9519_2695)"/>
<path d="M249.948 92.2932L249.895 93.7456C249.887 93.985 250.017 94.2058 250.23 94.3148C250.23 94.3148 252.531 95.0916 256.51 95.3017L259.436 94.5755C259.644 94.4824 259.785 94.2803 259.798 94.0515L259.838 93.3253C259.857 92.9981 259.617 92.7162 259.293 92.679L250.634 91.7001C250.297 91.6628 249.991 91.9049 249.951 92.2427C249.951 92.2587 249.948 92.2746 249.948 92.2906V92.2932Z" fill="#F8FAFC"/>
<path d="M249.948 92.2932L249.895 93.7456C249.887 93.985 250.017 94.2058 250.23 94.3148C250.23 94.3148 252.531 95.0916 256.51 95.3017L259.436 94.5755C259.644 94.4824 259.785 94.2803 259.798 94.0515L259.838 93.3253C259.857 92.9981 259.617 92.7162 259.293 92.679L250.634 91.7001C250.297 91.6628 249.991 91.9049 249.951 92.2427C249.951 92.2587 249.948 92.2746 249.948 92.2906V92.2932Z" fill="url(#paint11_linear_9519_2695)"/>
<path d="M254.191 179.198C254.048 179.11 253.883 179.063 253.715 179.06C253.542 179.089 253.38 179.166 253.247 179.281C252.364 179.906 251.396 180.464 250.321 180.576C249.246 180.688 248.06 180.241 247.571 179.281C247.461 179.063 247.363 178.805 247.14 178.717C246.89 178.65 246.626 178.767 246.509 178.996C246.4 179.222 246.344 179.47 246.347 179.722L246.288 180.667C246.185 181.316 246.264 181.981 246.515 182.59C246.82 183.17 247.602 183.555 248.15 183.215C248.47 183.015 248.645 182.635 248.97 182.451C249.329 182.292 249.746 182.316 250.084 182.521C250.414 182.723 250.728 182.954 251.021 183.207C252.601 184.391 254.734 184.409 256.705 184.38C257.17 184.412 257.633 184.327 258.059 184.138C258.575 183.848 258.862 183.273 258.785 182.685C258.652 181.818 257.663 181.414 257.024 180.951C256.13 180.289 255.183 179.701 254.194 179.198H254.191Z" fill="#231F20"/>
<path d="M269.205 179.325C268.912 179.118 268.511 179.153 268.261 179.413C267.378 180.033 266.409 180.597 265.335 180.709C264.26 180.82 263.074 180.371 262.584 179.413C262.475 179.195 262.377 178.934 262.153 178.847C261.903 178.783 261.643 178.897 261.523 179.126C261.414 179.352 261.358 179.599 261.361 179.852L261.302 180.791C261.198 181.443 261.278 182.108 261.528 182.72C261.834 183.299 262.616 183.685 263.164 183.339C263.483 183.143 263.659 182.759 263.983 182.581C264.342 182.419 264.76 182.446 265.098 182.65C265.428 182.853 265.742 183.084 266.034 183.337C267.614 184.52 269.748 184.539 271.719 184.51C272.184 184.542 272.647 184.457 273.073 184.268C273.589 183.978 273.876 183.403 273.799 182.815C273.666 181.943 272.676 181.544 272.038 181.076C271.144 180.416 270.197 179.831 269.208 179.325H269.205Z" fill="#231F20"/>
<path d="M254.191 179.198C254.048 179.11 253.883 179.063 253.715 179.06C253.542 179.089 253.38 179.166 253.247 179.281C252.364 179.906 251.396 180.464 250.321 180.576C249.246 180.688 248.06 180.241 247.571 179.281C247.461 179.063 247.363 178.805 247.14 178.717C246.89 178.65 246.626 178.767 246.509 178.996C246.4 179.222 246.344 179.47 246.347 179.722L246.288 180.667C246.185 181.316 246.264 181.981 246.515 182.59C246.82 183.17 247.602 183.555 248.15 183.215C248.47 183.015 248.645 182.635 248.97 182.451C249.329 182.292 249.746 182.316 250.084 182.521C250.414 182.723 250.728 182.954 251.021 183.207C252.601 184.391 254.734 184.409 256.705 184.38C257.17 184.412 257.633 184.327 258.059 184.138C258.575 183.848 258.862 183.273 258.785 182.685C258.652 181.818 257.663 181.414 257.024 180.951C256.13 180.289 255.183 179.701 254.194 179.198H254.191Z" fill="url(#paint12_linear_9519_2695)"/>
<path d="M269.205 179.325C268.912 179.118 268.511 179.153 268.261 179.413C267.378 180.033 266.409 180.597 265.335 180.709C264.26 180.82 263.074 180.371 262.584 179.413C262.475 179.195 262.377 178.934 262.153 178.847C261.903 178.783 261.643 178.897 261.523 179.126C261.414 179.352 261.358 179.599 261.361 179.852L261.302 180.791C261.198 181.443 261.278 182.108 261.528 182.72C261.834 183.299 262.616 183.685 263.164 183.339C263.483 183.143 263.659 182.759 263.983 182.581C264.342 182.419 264.76 182.446 265.098 182.65C265.428 182.853 265.742 183.084 266.034 183.337C267.614 184.52 269.748 184.539 271.719 184.51C272.184 184.542 272.647 184.457 273.073 184.268C273.589 183.978 273.876 183.403 273.799 182.815C273.666 181.943 272.676 181.544 272.038 181.076C271.144 180.416 270.197 179.831 269.208 179.325H269.205Z" fill="url(#paint13_linear_9519_2695)"/>
<path d="M241.96 117.518C242.447 118.893 243.774 119.789 245.134 120.327C247.405 121.226 249.895 121.385 252.339 121.478C254.382 121.553 256.428 121.585 258.473 121.577C258.867 121.595 259.261 121.553 259.638 121.449C260.407 121.199 260.926 120.502 261.399 119.845C261.87 119.188 262.413 118.281 262.056 117.507C261.7 116.733 260.713 116.56 259.878 116.682C259.043 116.805 258.258 117.143 257.431 117.071L257.532 115.906C257.17 115.677 256.752 116.052 256.444 116.321C255.119 117.409 253.177 117.018 251.51 116.563L244.394 114.618C243.601 114.4 242.684 113.863 242.101 114.618C241.574 115.312 241.702 116.775 241.96 117.518Z" fill="#FFB4A3"/>
<path d="M262.504 106.256C262.605 105.952 262.812 105.694 263.084 105.529C263.446 105.298 265.624 105.301 266.715 105.319C267.076 105.319 267.122 105.795 266.832 106.346L266.88 106.266L262.507 106.256H262.504Z" fill="#F8FAFC"/>
<path d="M262.504 106.256C262.605 105.952 262.812 105.694 263.084 105.529C263.446 105.298 265.624 105.301 266.715 105.319C267.076 105.319 267.122 105.795 266.832 106.346L266.88 106.266L262.507 106.256H262.504Z" fill="url(#paint14_linear_9519_2695)"/>
<path d="M253.199 68.8874L253.763 69.8982L252.34 70.4515L252.856 71.3559L254.085 70.8691L254.441 71.6458L255.758 71.3213L255.295 70.5339L256.404 70.2865L255.907 69.3502L254.808 69.587L254.377 68.7012L253.199 68.8874Z" fill="#F8FAFC"/>
<defs>
<filter id="filter0_d_9519_2695" x="26" y="25" width="452" height="18" filterUnits="userSpaceOnUse" color-interpolation-filters="sRGB">
<feFlood flood-opacity="0" result="BackgroundImageFix"/>
<feColorMatrix in="SourceAlpha" type="matrix" values="0 0 0 0 0 0 0 0 0 0 0 0 0 0 0 0 0 0 127 0" result="hardAlpha"/>
<feOffset dx="-6" dy="-5"/>
<feGaussianBlur stdDeviation="2"/>
<feComposite in2="hardAlpha" operator="out"/>
<feColorMatrix type="matrix" values="0 0 0 0 0.592157 0 0 0 0 0.580392 0 0 0 0 0.580392 0 0 0 0.25 0"/>
<feBlend mode="normal" in2="BackgroundImageFix" result="effect1_dropShadow_9519_2695"/>
<feBlend mode="normal" in="SourceGraphic" in2="effect1_dropShadow_9519_2695" result="shape"/>
</filter>
<filter id="filter1_d_9519_2695" x="18" y="32" width="17" height="181" filterUnits="userSpaceOnUse" color-interpolation-filters="sRGB">
<feFlood flood-opacity="0" result="BackgroundImageFix"/>
<feColorMatrix in="SourceAlpha" type="matrix" values="0 0 0 0 0 0 0 0 0 0 0 0 0 0 0 0 0 0 127 0" result="hardAlpha"/>
<feOffset dx="-6" dy="-4"/>
<feGaussianBlur stdDeviation="2"/>
<feComposite in2="hardAlpha" operator="out"/>
<feColorMatrix type="matrix" values="0 0 0 0 0.593099 0 0 0 0 0.580629 0 0 0 0 0.580629 0 0 0 0.25 0"/>
<feBlend mode="normal" in2="BackgroundImageFix" result="effect1_dropShadow_9519_2695"/>
<feBlend mode="normal" in="SourceGraphic" in2="effect1_dropShadow_9519_2695" result="shape"/>
</filter>
<linearGradient id="paint0_linear_9519_2695" x1="483" y1="124" x2="28" y2="124" gradientUnits="userSpaceOnUse">
<stop stop-color="#BB00FF"/>
<stop offset="1" stop-color="#EBB6FF"/>
</linearGradient>
<linearGradient id="paint1_linear_9519_2695" x1="251.709" y1="65.8846" x2="253.909" y2="73.0028" gradientUnits="userSpaceOnUse">
<stop offset="0.02" stop-color="white" stop-opacity="0"/>
<stop offset="0.39" stop-color="white" stop-opacity="0.39"/>
<stop offset="1" stop-color="white"/>
</linearGradient>
<linearGradient id="paint2_linear_9519_2695" x1="262.155" y1="104.101" x2="266.816" y2="102.806" gradientUnits="userSpaceOnUse">
<stop offset="0.02" stop-color="white" stop-opacity="0"/>
<stop offset="0.39" stop-color="white" stop-opacity="0.39"/>
<stop offset="1" stop-color="white"/>
</linearGradient>
<linearGradient id="paint3_linear_9519_2695" x1="255.833" y1="86.4864" x2="248.986" y2="99.4007" gradientUnits="userSpaceOnUse">
<stop stop-color="#231F20" stop-opacity="0"/>
<stop offset="1" stop-color="#231F20"/>
</linearGradient>
<linearGradient id="paint4_linear_9519_2695" x1="231.696" y1="145.211" x2="258.876" y2="142.104" gradientUnits="userSpaceOnUse">
<stop offset="0.02" stop-color="white" stop-opacity="0"/>
<stop offset="0.39" stop-color="white" stop-opacity="0.39"/>
<stop offset="1" stop-color="white"/>
</linearGradient>
<linearGradient id="paint5_linear_9519_2695" x1="240.064" y1="114.583" x2="261.033" y2="114.583" gradientUnits="userSpaceOnUse">
<stop offset="0.02" stop-color="white" stop-opacity="0"/>
<stop offset="0.39" stop-color="white" stop-opacity="0.39"/>
<stop offset="1" stop-color="white"/>
</linearGradient>
<linearGradient id="paint6_linear_9519_2695" x1="225.876" y1="139.477" x2="253.446" y2="140.056" gradientUnits="userSpaceOnUse">
<stop stop-color="#231F20" stop-opacity="0"/>
<stop offset="1" stop-color="#231F20"/>
</linearGradient>
<linearGradient id="paint7_linear_9519_2695" x1="265.768" y1="103.204" x2="263.526" y2="111.745" gradientUnits="userSpaceOnUse">
<stop stop-color="#231F20" stop-opacity="0"/>
<stop offset="1" stop-color="#231F20"/>
</linearGradient>
<linearGradient id="paint8_linear_9519_2695" x1="266.469" y1="128.7" x2="261.463" y2="105.316" gradientUnits="userSpaceOnUse">
<stop stop-color="#231F20" stop-opacity="0"/>
<stop offset="1" stop-color="#231F20"/>
</linearGradient>
<linearGradient id="paint9_linear_9519_2695" x1="241.002" y1="113.488" x2="252.975" y2="114.783" gradientUnits="userSpaceOnUse">
<stop stop-color="#231F20" stop-opacity="0"/>
<stop offset="1" stop-color="#231F20"/>
</linearGradient>
<linearGradient id="paint10_linear_9519_2695" x1="240.734" y1="104.918" x2="251.768" y2="104.918" gradientUnits="userSpaceOnUse">
<stop offset="0.02" stop-color="white" stop-opacity="0"/>
<stop offset="0.39" stop-color="white" stop-opacity="0.39"/>
<stop offset="1" stop-color="white"/>
</linearGradient>
<linearGradient id="paint11_linear_9519_2695" x1="254.183" y1="95.0011" x2="255.478" y2="91.5484" gradientUnits="userSpaceOnUse">
<stop offset="0.02" stop-color="white" stop-opacity="0"/>
<stop offset="0.39" stop-color="white" stop-opacity="0.39"/>
<stop offset="1" stop-color="white"/>
</linearGradient>
<linearGradient id="paint12_linear_9519_2695" x1="246.257" y1="181.542" x2="258.79" y2="181.542" gradientUnits="userSpaceOnUse">
<stop stop-color="#231F20" stop-opacity="0"/>
<stop offset="1" stop-color="#231F20"/>
</linearGradient>
<linearGradient id="paint13_linear_9519_2695" x1="261.27" y1="181.669" x2="273.804" y2="181.669" gradientUnits="userSpaceOnUse">
<stop stop-color="#231F20" stop-opacity="0"/>
<stop offset="1" stop-color="#231F20"/>
</linearGradient>
<linearGradient id="paint14_linear_9519_2695" x1="264.797" y1="105.426" x2="264.72" y2="106.729" gradientUnits="userSpaceOnUse">
<stop offset="0.02" stop-color="white" stop-opacity="0"/>
<stop offset="0.39" stop-color="white" stop-opacity="0.39"/>
<stop offset="1" stop-color="white"/>
</linearGradient>
</defs>
</svg>
