<svg width="719" height="517" viewBox="0 0 719 517" fill="none" xmlns="http://www.w3.org/2000/svg">
<path d="M0 4C0 1.79086 1.79086 0 4 0H715C717.209 0 719 1.79086 719 4V512.46C719 514.669 717.209 516.46 715 516.46H3.99998C1.79084 516.46 0 514.669 0 512.46V4Z" fill="url(#paint0_linear_9523_3418)"/>
<path opacity="0.18" d="M507.78 308.182C507.051 309.748 506.208 311.257 505.263 312.703C505.104 312.969 504.927 313.229 504.749 313.464C495.588 326.942 478.793 333.568 462.937 335.755C445.09 338.202 426.729 336.554 409.237 341.1C397.229 344.206 386.026 350.128 374.126 353.672C360.172 357.831 345.539 358.642 331.052 358.915C299.238 359.505 266.581 357.387 237.411 343.915C226.398 338.83 215.512 331.571 209.445 320.774C208.728 319.506 208.082 318.187 207.524 316.843C207.289 316.285 207.067 315.721 206.858 315.156C201.196 299.585 206.066 281.726 212.291 266.243C218.758 250.228 226.709 234.848 236.028 220.304C242.229 210.603 249.044 201.315 256.437 192.49C264.07 183.424 270.943 173.939 282.621 171.917C297.387 169.349 311.925 174.713 326.43 176.824C352.513 180.641 378.774 173.578 404.989 170.871C431.205 168.164 460.262 170.871 479.345 190.138C489.109 199.978 495.227 213.184 499.956 226.555C501.7 231.475 503.272 236.458 504.673 241.498C507.127 250.267 509.08 259.174 510.519 268.171C512.655 281.58 513.524 296.016 507.786 308.182H507.78Z" fill="#F8FAFC"/>
<path opacity="0.25" d="M507.78 308.183C507.05 309.749 506.207 311.258 505.263 312.703C481.906 313.502 458.543 314.307 435.174 315.125C364.255 317.547 293.316 320.013 222.372 319.069C217.027 318.999 211.251 318.758 207.023 315.252C206.972 315.201 206.915 315.157 206.858 315.112C203.948 307.118 203.802 298.527 205.203 289.924C206.528 281.802 209.248 273.712 212.285 266.168C215.487 258.249 219.05 250.508 222.974 242.938C226.962 235.165 231.318 227.62 236.028 220.298C244.093 218.909 252.373 219.594 260.101 222.282C267.734 224.907 274.93 228.952 282.741 230.924C299.371 235.108 316.667 229.478 333.747 229.161C351.188 228.92 368.274 234.113 382.641 244.016C390.73 249.582 398.053 256.626 406.999 260.417C417.397 264.83 429.183 264.424 439.98 261.324C450.777 258.224 460.781 252.6 470.513 246.685C478.349 241.904 489.755 234.29 499.183 238.012C501.211 238.823 503.082 240.009 504.686 241.492C507.139 250.261 509.092 259.168 510.531 268.165C512.655 281.574 513.524 296.01 507.786 308.176L507.78 308.183Z" fill="#F8FAFC"/>
<path opacity="0.25" d="M504.749 313.488C495.588 326.967 478.793 333.592 462.937 335.78C445.089 338.227 426.729 336.579 409.237 341.124C397.229 344.231 386.026 350.153 374.126 353.697C360.172 357.856 345.539 358.667 331.052 358.94C299.238 359.529 266.58 357.412 237.41 343.939C226.398 338.855 215.512 331.595 209.444 320.798L206.623 313.805L504.762 313.495L504.749 313.488Z" fill="#F8FAFC"/>
<path d="M246.508 320.723C245.449 321.281 244.219 322.251 244.612 323.411C244.79 323.842 245.094 324.216 245.481 324.482C248.796 327.094 253.311 327.468 257.552 327.621C285.695 328.813 313.877 327.132 341.988 325.452C343.161 325.49 344.315 325.192 345.323 324.59C346.261 323.893 346.667 322.371 345.824 321.534C363.126 321.883 380.453 321.782 397.799 321.224C400.196 321.148 403.144 320.704 403.962 318.453C404.659 316.589 403.321 314.471 401.54 313.584C399.758 312.696 397.679 312.728 395.688 312.785C374.468 313.368 353.235 313.679 331.996 313.73C321.434 313.73 310.878 313.679 300.328 313.578C290.406 313.47 279.843 314.212 269.985 312.817C268.736 312.633 267.043 311.84 265.857 312.652C264.944 313.273 265.319 314.605 264.735 315.15C263.803 316.018 262.878 315.854 261.47 316.05C256.252 316.735 251.187 318.32 246.508 320.735V320.723Z" fill="url(#paint1_linear_9523_3418)"/>
<path d="M239.953 276.926C239.186 280.438 236.377 283.152 232.839 283.798C235.413 285.187 236.377 288.395 234.989 290.969C233.6 293.543 230.392 294.507 227.818 293.118C226.582 292.408 225.529 291.166 224.084 291.172C223.317 291.267 222.575 291.489 221.877 291.831C218.986 292.782 215.816 291.749 214.047 289.276C211.48 290.956 207.898 292.332 205.565 290.348C205.457 290.253 205.349 290.151 205.254 290.043C206.668 281.922 209.546 273.832 212.773 266.287C216.171 258.369 219.937 250.628 224.071 243.058C224.876 242.95 225.688 242.975 226.48 243.134C228.572 243.52 230.589 246.316 231.33 248.123C232.44 250.957 232.123 254.146 230.481 256.708C234.944 258.026 237.67 263.485 236.047 267.847C239.065 269.812 240.606 273.395 239.953 276.932V276.926Z" fill="#F8FAFC"/>
<path d="M239.953 276.926C239.186 280.438 236.377 283.152 232.839 283.798C235.413 285.187 236.377 288.395 234.989 290.969C233.6 293.543 230.392 294.507 227.818 293.118C226.582 292.408 225.529 291.166 224.084 291.172C223.317 291.267 222.575 291.489 221.877 291.831C218.986 292.782 215.816 291.749 214.047 289.276C211.48 290.956 207.898 292.332 205.565 290.348C205.457 290.253 205.349 290.151 205.254 290.043C206.668 281.922 209.546 273.832 212.773 266.287C216.171 258.369 219.937 250.628 224.071 243.058C224.876 242.95 225.688 242.975 226.48 243.134C228.572 243.52 230.589 246.316 231.33 248.123C232.44 250.957 232.123 254.146 230.481 256.708C234.944 258.026 237.67 263.485 236.047 267.847C239.065 269.812 240.606 273.395 239.953 276.932V276.926Z" fill="url(#paint2_linear_9523_3418)"/>
<path d="M223.52 276.927C218.549 280.401 215.785 286.247 216.254 292.295C216.812 302.915 220.445 314.371 220.445 314.371H207.004C207.004 314.371 212.057 295.091 209.819 288.415C207.581 281.745 207.448 283.07 207.448 283.07L211.22 285.27L212.374 272.064C212.374 272.064 213.319 278.169 213.319 280.553C213.319 282.937 222.638 268.926 222.638 268.926L215.766 282.544L223.513 276.927H223.52Z" fill="#F8FAFC"/>
<path d="M409.118 281.674H301.959V300.675H409.118V281.674Z" fill="#231F20"/>
<path d="M409.118 281.674H301.959V300.675H409.118V281.674Z" fill="url(#paint3_linear_9523_3418)"/>
<path d="M270.17 257.347C268.382 255.749 266.194 254.658 263.842 254.189C261.94 253.701 259.759 253.428 258.143 254.551C256.976 255.445 256.266 256.808 256.196 258.279C256.139 259.73 256.361 261.176 256.856 262.539C257.02 263.224 257.363 263.858 257.857 264.365C258.567 264.879 259.417 265.145 260.292 265.126C264.47 265.354 268.654 265.31 272.826 265.012C274.734 264.91 274.963 262.875 273.821 261.689C272.471 260.301 271.488 258.691 270.182 257.353L270.17 257.347Z" fill="#F8FAFC"/>
<path d="M270.239 257.435C268.458 255.85 266.289 254.766 263.95 254.291C262.042 253.803 259.861 253.53 258.25 254.652C257.084 255.546 256.374 256.903 256.298 258.367C256.241 259.819 256.469 261.271 256.963 262.634C257.128 263.319 257.471 263.953 257.965 264.46C258.675 264.967 259.525 265.234 260.4 265.221C264.578 265.443 268.762 265.405 272.934 265.101C274.836 264.999 275.064 262.97 273.929 261.785C272.61 260.403 271.596 258.761 270.252 257.435H270.239Z" fill="url(#paint4_linear_9523_3418)"/>
<path d="M324.859 301.1C324.859 306.85 326.66 312.29 322.57 314.078C321.499 314.534 315.622 314.236 314.436 314.236C308.673 314.236 303.994 308.359 303.994 301.112C303.994 293.866 308.673 287.989 314.436 287.989C315.514 287.989 321.467 287.773 322.444 288.153C326.666 289.795 324.865 295.197 324.865 301.093L324.859 301.1Z" fill="#231F20"/>
<path d="M324.859 301.099C324.859 306.849 326.66 312.289 322.57 314.077C321.499 314.534 315.622 314.236 314.436 314.236C308.673 314.236 303.994 308.358 303.994 301.112C303.994 293.865 308.673 287.988 314.436 287.988C315.514 287.988 321.721 287.81 322.697 288.197C326.951 289.846 324.865 295.203 324.865 301.099H324.859Z" fill="#231F20"/>
<path d="M324.86 301.099C324.86 306.85 326.502 312.22 322.4 314.001C321.341 314.458 315.616 314.223 314.424 314.223C308.661 314.223 303.982 308.346 303.982 301.099C303.982 293.853 308.661 287.975 314.424 287.975C315.502 287.975 321.297 287.715 322.248 288.096C326.502 289.751 324.86 295.203 324.86 301.093V301.099Z" fill="url(#paint5_linear_9523_3418)"/>
<path d="M320.922 314.222C326.685 314.222 331.358 308.346 331.358 301.098C331.358 293.85 326.685 287.975 320.922 287.975C315.159 287.975 310.486 293.85 310.486 301.098C310.486 308.346 315.159 314.222 320.922 314.222Z" fill="#231F20"/>
<path d="M321.156 310.165C325.221 310.165 328.516 306.027 328.516 300.921C328.516 295.816 325.221 291.678 321.156 291.678C317.09 291.678 313.795 295.816 313.795 300.921C313.795 306.027 317.09 310.165 321.156 310.165Z" fill="#F8FAFC"/>
<path d="M321.568 305.34C323.547 305.34 325.151 303.327 325.151 300.845C325.151 298.362 323.547 296.35 321.568 296.35C319.59 296.35 317.986 298.362 317.986 300.845C317.986 303.327 319.59 305.34 321.568 305.34Z" fill="url(#paint6_linear_9523_3418)"/>
<path d="M400.857 300.124C400.857 305.874 402.651 311.314 398.568 313.102C397.497 313.558 391.613 313.26 390.434 313.26C384.665 313.26 379.992 307.383 379.992 300.136C379.992 292.89 384.677 287.006 390.428 287.006C391.506 287.006 397.453 286.791 398.435 287.171C402.689 288.819 400.863 294.221 400.863 300.117L400.857 300.124Z" fill="#231F20"/>
<path d="M400.857 300.123C400.857 305.873 402.651 311.313 398.568 313.101C397.497 313.557 391.613 313.259 390.434 313.259C384.665 313.259 379.992 307.382 379.992 300.136C379.992 292.889 384.677 287.006 390.428 287.006C391.506 287.006 397.712 286.828 398.689 287.215C402.949 288.863 400.863 294.227 400.863 300.123H400.857Z" fill="#231F20"/>
<path d="M400.856 300.124C400.856 305.874 402.498 311.244 398.396 313.019C397.337 313.482 391.6 313.247 390.42 313.247C384.651 313.247 379.979 307.37 379.979 300.124C379.979 292.877 384.67 287.012 390.42 287.012C391.498 287.012 397.293 286.753 398.244 287.133C402.498 288.781 400.856 294.234 400.856 300.124Z" fill="url(#paint7_linear_9523_3418)"/>
<path d="M396.914 313.24C402.678 313.24 407.35 307.364 407.35 300.116C407.35 292.868 402.678 286.992 396.914 286.992C391.151 286.992 386.479 292.868 386.479 300.116C386.479 307.364 391.151 313.24 396.914 313.24Z" fill="#231F20"/>
<path d="M397.154 309.189C401.219 309.189 404.514 305.05 404.514 299.945C404.514 294.84 401.219 290.701 397.154 290.701C393.088 290.701 389.793 294.84 389.793 299.945C389.793 305.05 393.088 309.189 397.154 309.189Z" fill="#F8FAFC"/>
<path d="M397.566 304.365C399.545 304.365 401.149 302.353 401.149 299.87C401.149 297.388 399.545 295.375 397.566 295.375C395.588 295.375 393.984 297.388 393.984 299.87C393.984 302.353 395.588 304.365 397.566 304.365Z" fill="url(#paint8_linear_9523_3418)"/>
<path d="M279.034 301.1C279.034 306.85 280.835 312.29 276.746 314.078C275.687 314.534 269.797 314.236 268.611 314.236C262.848 314.236 258.176 308.359 258.176 301.112C258.176 293.866 262.848 287.989 268.611 287.989C269.689 287.989 275.642 287.773 276.619 288.153C280.86 289.795 279.041 295.197 279.041 301.093L279.034 301.1Z" fill="#231F20"/>
<path d="M279.034 301.099C279.034 306.849 280.835 312.289 276.746 314.077C275.687 314.534 269.797 314.236 268.611 314.236C262.848 314.236 258.176 308.358 258.176 301.112C258.176 293.865 262.848 287.988 268.611 287.988C269.689 287.988 275.902 287.81 276.879 288.197C281.12 289.846 279.041 295.203 279.041 301.099H279.034Z" fill="#231F20"/>
<path d="M279.033 301.099C279.033 306.85 280.675 312.22 276.573 314.001C275.515 314.458 269.79 314.223 268.598 314.223C262.835 314.223 258.162 308.346 258.162 301.099C258.162 293.853 262.835 287.975 268.598 287.975C269.676 287.975 275.47 287.715 276.421 288.096C280.682 289.751 279.033 295.203 279.033 301.093V301.099Z" fill="url(#paint9_linear_9523_3418)"/>
<path d="M275.096 314.222C280.859 314.222 285.531 308.346 285.531 301.098C285.531 293.85 280.859 287.975 275.096 287.975C269.332 287.975 264.66 293.85 264.66 301.098C264.66 308.346 269.332 314.222 275.096 314.222Z" fill="#231F20"/>
<path d="M275.331 310.165C279.397 310.165 282.692 306.027 282.692 300.921C282.692 295.816 279.397 291.678 275.331 291.678C271.266 291.678 267.971 295.816 267.971 300.921C267.971 306.027 271.266 310.165 275.331 310.165Z" fill="#F8FAFC"/>
<path d="M275.742 305.34C277.721 305.34 279.324 303.327 279.324 300.845C279.324 298.362 277.721 296.35 275.742 296.35C273.764 296.35 272.16 298.362 272.16 300.845C272.16 303.327 273.764 305.34 275.742 305.34Z" fill="url(#paint10_linear_9523_3418)"/>
<path d="M355.031 300.124C355.031 305.874 356.832 311.314 352.742 313.102C351.671 313.558 345.794 313.26 344.608 313.26C338.845 313.26 334.166 307.383 334.166 300.136C334.166 292.89 338.877 287.006 344.602 287.006C345.679 287.006 351.633 286.791 352.609 287.171C356.863 288.819 355.037 294.221 355.037 300.117L355.031 300.124Z" fill="#231F20"/>
<path d="M355.031 300.123C355.031 305.873 356.832 311.313 352.742 313.101C351.671 313.557 345.794 313.259 344.608 313.259C338.845 313.259 334.166 307.382 334.166 300.136C334.166 292.889 338.877 287.006 344.602 287.006C345.679 287.006 351.886 286.828 352.869 287.215C357.123 288.863 355.037 294.227 355.037 300.123H355.031Z" fill="#231F20"/>
<path d="M355.032 300.124C355.032 305.874 356.674 311.244 352.572 313.019C351.513 313.482 345.788 313.247 344.596 313.247C338.833 313.247 334.154 307.37 334.154 300.124C334.154 292.877 338.871 287.012 344.596 287.012C345.674 287.012 351.469 286.753 352.42 287.133C356.68 288.781 355.032 294.234 355.032 300.124Z" fill="url(#paint11_linear_9523_3418)"/>
<path d="M351.094 313.24C356.857 313.24 361.529 307.364 361.529 300.116C361.529 292.868 356.857 286.992 351.094 286.992C345.33 286.992 340.658 292.868 340.658 300.116C340.658 307.364 345.33 313.24 351.094 313.24Z" fill="#231F20"/>
<path d="M351.329 309.189C355.395 309.189 358.69 305.05 358.69 299.945C358.69 294.84 355.395 290.701 351.329 290.701C347.264 290.701 343.969 294.84 343.969 299.945C343.969 305.05 347.264 309.189 351.329 309.189Z" fill="#F8FAFC"/>
<path d="M351.74 304.365C353.719 304.365 355.322 302.353 355.322 299.87C355.322 297.388 353.719 295.375 351.74 295.375C349.762 295.375 348.158 297.388 348.158 299.87C348.158 302.353 349.762 304.365 351.74 304.365Z" fill="url(#paint12_linear_9523_3418)"/>
<path d="M412.389 268.258V300.668H409.098C409.187 300.066 409.232 299.457 409.225 298.849C409.225 291.152 402.987 284.92 395.296 284.92C387.606 284.92 381.367 291.158 381.367 298.849C381.367 299.457 381.405 300.066 381.488 300.668H335.054C335.142 300.066 335.187 299.457 335.18 298.849C335.358 291.152 329.265 284.767 321.575 284.59C313.884 284.412 307.494 290.505 307.316 298.196C307.316 298.411 307.316 298.633 307.316 298.849C307.316 299.457 307.354 300.066 307.443 300.668H247.536C247.536 300.668 247.536 300.567 247.473 300.377C247.023 298.164 244.468 283.848 250.89 273.558C250.89 273.558 271.28 245.066 312.35 233.325C339.701 225.527 366.17 226.997 382.293 230.339C390.389 232.019 395.886 234.155 397.56 235.842C402.6 240.869 412.376 268.252 412.376 268.252L412.389 268.258Z" fill="#F8FAFC"/>
<path d="M397.325 267.979H394.624C393.094 267.979 391.854 269.219 391.854 270.749V274.008C391.854 275.538 393.094 276.778 394.624 276.778H397.325C398.855 276.778 400.096 275.538 400.096 274.008V270.749C400.096 269.219 398.855 267.979 397.325 267.979Z" fill="url(#paint13_linear_9523_3418)"/>
<path d="M373.278 263.934V296.344L335.872 295.925C335.872 295.925 336.557 282.947 319.16 281.673L317.879 263.648L373.271 263.934H373.278Z" fill="url(#paint14_linear_9523_3418)"/>
<path d="M261.936 263.935H306.918C306.918 263.935 331.923 227.752 381.096 232.501L389.617 232.083C389.617 232.083 329.71 212.809 273.386 254.716L261.936 263.935Z" fill="url(#paint15_linear_9523_3418)"/>
<path d="M313.758 263.934H373.297V235.011C373.297 235.011 337.786 232.5 313.758 263.934Z" fill="url(#paint16_linear_9523_3418)"/>
<path d="M377.602 234.732V263.51H406.937C406.937 263.51 396.736 241.161 393.528 239.342C390.313 237.522 377.602 234.732 377.602 234.732Z" fill="url(#paint17_linear_9523_3418)"/>
<path d="M382.305 230.763L382.216 230.959C382.216 230.959 342.522 227.041 311.525 263.781C311.525 263.781 293.089 275.377 293.647 300.801H247.479C247.029 298.588 244.474 284.272 250.896 273.983C250.896 273.983 271.285 245.491 312.356 233.749C339.707 225.932 366.176 227.415 382.299 230.756L382.305 230.763Z" fill="url(#paint18_linear_9523_3418)"/>
<path d="M249.623 276.018C249.623 276.018 253.655 277.85 254.492 281.305C254.872 282.63 255.151 283.981 255.329 285.344L247.1 282.719C247.1 282.719 248.723 276.747 249.617 276.018H249.623Z" fill="#F8FAFC"/>
<path d="M299.449 276.856C299.449 276.856 290.649 275.702 288.443 279.994C286.237 284.286 286.154 285.865 286.154 285.865C286.154 285.865 296.216 283.456 297.896 282.302C299.576 281.148 305.003 276.957 299.456 276.862L299.449 276.856Z" fill="#F8FAFC"/>
<path d="M254.738 276.71L257.743 285.865L266.48 291.451L273.46 291.165L283.516 285.51L288.689 276.438L254.738 276.71Z" fill="#F8FAFC"/>
<path d="M318.355 257.847C320.219 256.002 322.768 255.026 325.31 254.366C327.415 253.827 329.837 253.529 331.625 254.772C332.912 255.761 333.698 257.264 333.78 258.887C333.837 260.491 333.577 262.095 333.019 263.597C332.836 264.358 332.462 265.055 331.923 265.62C331.136 266.178 330.185 266.469 329.222 266.444C324.6 266.697 319.972 266.653 315.363 266.317C313.258 266.209 313.004 263.959 314.272 262.646C315.762 261.137 316.884 259.324 318.374 257.853L318.355 257.847Z" fill="#F8FAFC"/>
<path d="M318.265 257.955C320.129 256.11 322.678 255.121 325.22 254.474C327.338 253.935 329.747 253.637 331.535 254.874C332.822 255.863 333.614 257.372 333.697 258.995C333.754 260.599 333.494 262.196 332.936 263.705C332.752 264.466 332.372 265.157 331.826 265.722C331.04 266.286 330.096 266.577 329.132 266.552C324.51 266.799 319.882 266.755 315.273 266.425C313.155 266.317 312.908 264.067 314.176 262.754C315.647 261.245 316.75 259.432 318.278 257.961L318.265 257.955Z" fill="url(#paint19_linear_9523_3418)"/>
<path d="M304.457 295.291H248.754C246.891 295.291 245.381 296.801 245.381 298.664V299.038C245.381 300.901 246.891 302.411 248.754 302.411H304.457C306.32 302.411 307.83 300.901 307.83 299.038V298.664C307.83 296.801 306.32 295.291 304.457 295.291Z" fill="#F8FAFC"/>
<path d="M304.457 295.291H248.754C246.891 295.291 245.381 296.801 245.381 298.664V299.038C245.381 300.901 246.891 302.411 248.754 302.411H304.457C306.32 302.411 307.83 300.901 307.83 299.038V298.664C307.83 296.801 306.32 295.291 304.457 295.291Z" fill="url(#paint20_linear_9523_3418)"/>
<path d="M291.948 295.291H248.386C246.726 295.291 245.381 296.636 245.381 298.296V299.406C245.381 301.065 246.726 302.411 248.386 302.411H291.948C293.608 302.411 294.953 301.065 294.953 299.406V298.296C294.953 296.636 293.608 295.291 291.948 295.291Z" fill="url(#paint21_linear_9523_3418)"/>
<path d="M379.555 295.926H335.853C334.263 295.926 332.975 297.214 332.975 298.804V299.337C332.975 300.926 334.263 302.215 335.853 302.215H379.555C381.144 302.215 382.433 300.926 382.433 299.337V298.804C382.433 297.214 381.144 295.926 379.555 295.926Z" fill="#F8FAFC"/>
<path d="M379.555 295.926H335.853C334.263 295.926 332.975 297.214 332.975 298.804V299.337C332.975 300.926 334.263 302.215 335.853 302.215H379.555C381.144 302.215 382.433 300.926 382.433 299.337V298.804C382.433 297.214 381.144 295.926 379.555 295.926Z" fill="url(#paint22_linear_9523_3418)"/>
<path d="M369.646 268.885H359.584V271.814H369.646V268.885Z" fill="url(#paint23_linear_9523_3418)"/>
<path d="M470.991 209.797H471.846C480.634 209.797 487.76 216.917 487.76 225.704V309.747H455.064V225.704C455.064 216.917 462.197 209.791 470.991 209.797Z" fill="#F8FAFC"/>
<path d="M470.991 209.797H471.846C480.634 209.797 487.76 216.917 487.76 225.704V309.747H455.064V225.704C455.064 216.917 462.197 209.791 470.991 209.797Z" fill="url(#paint24_linear_9523_3418)"/>
<path d="M473.848 254.85H468.694C466.684 254.85 465.055 256.479 465.055 258.489V261.126C465.055 263.136 466.684 264.765 468.694 264.765H473.848C475.858 264.765 477.487 263.136 477.487 261.126V258.489C477.487 256.479 475.858 254.85 473.848 254.85Z" fill="url(#paint25_linear_9523_3418)"/>
<path d="M494.117 305.557H448.85V313.101H494.117V305.557Z" fill="#F8FAFC"/>
<path d="M471.585 241.643C479.803 241.643 486.465 234.981 486.465 226.763C486.465 218.545 479.803 211.883 471.585 211.883C463.367 211.883 456.705 218.545 456.705 226.763C456.705 234.981 463.367 241.643 471.585 241.643Z" fill="url(#paint26_linear_9523_3418)"/>
<path d="M444.45 296.527H423.497C419.578 296.527 416.402 293.345 416.396 289.426V277.273C416.396 275.409 414.887 273.9 413.023 273.893H398.98C397.953 273.957 397.065 273.183 397.002 272.156C396.938 271.129 397.712 270.242 398.739 270.178C398.821 270.178 398.897 270.178 398.98 270.178H413.023C416.941 270.184 420.111 273.361 420.117 277.279V289.433C420.117 291.297 421.633 292.806 423.497 292.806H444.45C446.314 292.806 447.829 291.297 447.829 289.433C447.829 285.515 451.012 282.338 454.93 282.332H466.171C468.035 282.332 469.55 280.817 469.55 278.953V259.781C469.614 258.753 470.501 257.974 471.528 258.043C472.46 258.1 473.208 258.849 473.266 259.781V278.953C473.266 282.871 470.083 286.047 466.165 286.054H454.892C453.028 286.054 451.513 287.569 451.513 289.433C451.513 293.338 448.349 296.508 444.444 296.534L444.45 296.527Z" fill="#F8FAFC"/>
<path d="M444.45 296.527H423.497C419.578 296.527 416.402 293.345 416.396 289.426V277.273C416.396 275.409 414.887 273.9 413.023 273.893H398.98C397.953 273.957 397.065 273.183 397.002 272.156C396.938 271.129 397.712 270.242 398.739 270.178C398.821 270.178 398.897 270.178 398.98 270.178H413.023C416.941 270.184 420.111 273.361 420.117 277.279V289.433C420.117 291.297 421.633 292.806 423.497 292.806H444.45C446.314 292.806 447.829 291.297 447.829 289.433C447.829 285.515 451.012 282.338 454.93 282.332H466.171C468.035 282.332 469.55 280.817 469.55 278.953V259.781C469.614 258.753 470.501 257.974 471.528 258.043C472.46 258.1 473.208 258.849 473.266 259.781V278.953C473.266 282.871 470.083 286.047 466.165 286.054H454.892C453.028 286.054 451.513 287.569 451.513 289.433C451.513 293.338 448.349 296.508 444.444 296.534L444.45 296.527Z" fill="url(#paint27_linear_9523_3418)"/>
<path d="M400.299 268.854H397.287C395.89 268.854 394.758 269.986 394.758 271.383V272.398C394.758 273.795 395.89 274.927 397.287 274.927H400.299C401.696 274.927 402.829 273.795 402.829 272.398V271.383C402.829 269.986 401.696 268.854 400.299 268.854Z" fill="#F8FAFC"/>
<path d="M400.299 268.854H397.287C395.89 268.854 394.758 269.986 394.758 271.383V272.398C394.758 273.795 395.89 274.927 397.287 274.927H400.299C401.696 274.927 402.829 273.795 402.829 272.398V271.383C402.829 269.986 401.696 268.854 400.299 268.854Z" fill="url(#paint28_linear_9523_3418)"/>
<path d="M471.591 218.42L467.502 226.7H470.647L468.757 234.454L475.566 225.762L472.637 225.546L476.936 218.318L471.591 218.42Z" fill="white"/>
<path d="M346.644 287.443C348.8 288.001 351.082 287.817 353.124 286.924C355.165 286.004 356.706 284.242 357.352 282.099C357.942 279.975 357.479 277.724 357.352 275.537C354.582 275.207 351.773 275.6 349.206 276.691C346.619 277.819 344.679 280.07 343.943 282.796C343.848 283.823 344.102 284.857 344.666 285.719C346.543 282.505 350.518 281.205 353.136 278.561C351.513 281.186 349.136 283.253 346.79 285.269C346.359 285.567 346.023 285.998 345.845 286.492C345.738 286.898 345.985 287.317 346.391 287.424C346.467 287.443 346.549 287.45 346.632 287.45L346.644 287.443Z" fill="#F8FAFC"/>
<defs>
<linearGradient id="paint0_linear_9523_3418" x1="719" y1="258.23" x2="0" y2="258.23" gradientUnits="userSpaceOnUse">
<stop stop-color="#03C96B"/>
<stop offset="1" stop-color="#8FEE00"/>
</linearGradient>
<linearGradient id="paint1_linear_9523_3418" x1="244.536" y1="320.152" x2="404.152" y2="320.152" gradientUnits="userSpaceOnUse">
<stop stop-color="#231F20" stop-opacity="0"/>
<stop offset="1" stop-color="#231F20"/>
</linearGradient>
<linearGradient id="paint2_linear_9523_3418" x1="199.307" y1="260.734" x2="271.944" y2="287.273" gradientUnits="userSpaceOnUse">
<stop stop-color="#231F20" stop-opacity="0"/>
<stop offset="1" stop-color="#231F20"/>
</linearGradient>
<linearGradient id="paint3_linear_9523_3418" x1="354.885" y1="304.942" x2="356.984" y2="260.657" gradientUnits="userSpaceOnUse">
<stop stop-color="#231F20" stop-opacity="0"/>
<stop offset="1" stop-color="#231F20"/>
</linearGradient>
<linearGradient id="paint4_linear_9523_3418" x1="265.453" y1="267.605" x2="265.453" y2="255.952" gradientUnits="userSpaceOnUse">
<stop stop-color="#231F20" stop-opacity="0"/>
<stop offset="1" stop-color="#231F20"/>
</linearGradient>
<linearGradient id="paint5_linear_9523_3418" x1="308.256" y1="301.575" x2="333.039" y2="300.307" gradientUnits="userSpaceOnUse">
<stop stop-color="#231F20" stop-opacity="0"/>
<stop offset="1" stop-color="#231F20"/>
</linearGradient>
<linearGradient id="paint6_linear_9523_3418" x1="325.639" y1="291.975" x2="310.765" y2="324.385" gradientUnits="userSpaceOnUse">
<stop stop-color="#231F20" stop-opacity="0"/>
<stop offset="1" stop-color="#231F20"/>
</linearGradient>
<linearGradient id="paint7_linear_9523_3418" x1="384.252" y1="300.599" x2="409.035" y2="299.331" gradientUnits="userSpaceOnUse">
<stop stop-color="#231F20" stop-opacity="0"/>
<stop offset="1" stop-color="#231F20"/>
</linearGradient>
<linearGradient id="paint8_linear_9523_3418" x1="401.637" y1="290.994" x2="386.757" y2="323.41" gradientUnits="userSpaceOnUse">
<stop stop-color="#231F20" stop-opacity="0"/>
<stop offset="1" stop-color="#231F20"/>
</linearGradient>
<linearGradient id="paint9_linear_9523_3418" x1="262.442" y1="301.575" x2="287.225" y2="300.307" gradientUnits="userSpaceOnUse">
<stop stop-color="#231F20" stop-opacity="0"/>
<stop offset="1" stop-color="#231F20"/>
</linearGradient>
<linearGradient id="paint10_linear_9523_3418" x1="279.819" y1="291.975" x2="264.939" y2="324.385" gradientUnits="userSpaceOnUse">
<stop stop-color="#231F20" stop-opacity="0"/>
<stop offset="1" stop-color="#231F20"/>
</linearGradient>
<linearGradient id="paint11_linear_9523_3418" x1="338.434" y1="300.599" x2="363.217" y2="299.331" gradientUnits="userSpaceOnUse">
<stop stop-color="#231F20" stop-opacity="0"/>
<stop offset="1" stop-color="#231F20"/>
</linearGradient>
<linearGradient id="paint12_linear_9523_3418" x1="355.817" y1="290.994" x2="340.937" y2="323.411" gradientUnits="userSpaceOnUse">
<stop stop-color="#231F20" stop-opacity="0"/>
<stop offset="1" stop-color="#231F20"/>
</linearGradient>
<linearGradient id="paint13_linear_9523_3418" x1="389.654" y1="268.118" x2="421.087" y2="289.275" gradientUnits="userSpaceOnUse">
<stop stop-color="#231F20" stop-opacity="0"/>
<stop offset="1" stop-color="#231F20"/>
</linearGradient>
<linearGradient id="paint14_linear_9523_3418" x1="338.3" y1="319.77" x2="350.035" y2="255.647" gradientUnits="userSpaceOnUse">
<stop stop-color="#231F20" stop-opacity="0"/>
<stop offset="1" stop-color="#231F20"/>
</linearGradient>
<linearGradient id="paint15_linear_9523_3418" x1="317.791" y1="218.116" x2="347.132" y2="327.918" gradientUnits="userSpaceOnUse">
<stop stop-color="#231F20" stop-opacity="0"/>
<stop offset="1" stop-color="#231F20"/>
</linearGradient>
<linearGradient id="paint16_linear_9523_3418" x1="342.117" y1="214.456" x2="346.726" y2="328.874" gradientUnits="userSpaceOnUse">
<stop stop-color="#231F20" stop-opacity="0"/>
<stop offset="1" stop-color="#231F20"/>
</linearGradient>
<linearGradient id="paint17_linear_9523_3418" x1="404.521" y1="230.795" x2="365.124" y2="289.745" gradientUnits="userSpaceOnUse">
<stop stop-color="#231F20" stop-opacity="0"/>
<stop offset="1" stop-color="#231F20"/>
</linearGradient>
<linearGradient id="paint18_linear_9523_3418" x1="322.709" y1="325.78" x2="308.045" y2="213.879" gradientUnits="userSpaceOnUse">
<stop stop-color="#231F20" stop-opacity="0"/>
<stop offset="1" stop-color="#231F20"/>
</linearGradient>
<linearGradient id="paint19_linear_9523_3418" x1="323.546" y1="269.202" x2="323.546" y2="256.313" gradientUnits="userSpaceOnUse">
<stop stop-color="#231F20" stop-opacity="0"/>
<stop offset="1" stop-color="#231F20"/>
</linearGradient>
<linearGradient id="paint20_linear_9523_3418" x1="289.697" y1="282.782" x2="276.149" y2="299.406" gradientUnits="userSpaceOnUse">
<stop stop-color="#231F20" stop-opacity="0"/>
<stop offset="1" stop-color="#231F20"/>
</linearGradient>
<linearGradient id="paint21_linear_9523_3418" x1="270.278" y1="292.362" x2="269.866" y2="315.839" gradientUnits="userSpaceOnUse">
<stop stop-color="#231F20" stop-opacity="0"/>
<stop offset="1" stop-color="#231F20"/>
</linearGradient>
<linearGradient id="paint22_linear_9523_3418" x1="357.46" y1="294.372" x2="358.157" y2="307.921" gradientUnits="userSpaceOnUse">
<stop stop-color="#231F20" stop-opacity="0"/>
<stop offset="1" stop-color="#231F20"/>
</linearGradient>
<linearGradient id="paint23_linear_9523_3418" x1="364.459" y1="257.986" x2="364.878" y2="291.506" gradientUnits="userSpaceOnUse">
<stop stop-color="#231F20" stop-opacity="0"/>
<stop offset="1" stop-color="#231F20"/>
</linearGradient>
<linearGradient id="paint24_linear_9523_3418" x1="467.998" y1="329.826" x2="473.584" y2="227.853" gradientUnits="userSpaceOnUse">
<stop stop-color="#231F20" stop-opacity="0"/>
<stop offset="1" stop-color="#231F20"/>
</linearGradient>
<linearGradient id="paint25_linear_9523_3418" x1="471.103" y1="255.072" x2="472.003" y2="280.267" gradientUnits="userSpaceOnUse">
<stop stop-color="#231F20" stop-opacity="0"/>
<stop offset="1" stop-color="#231F20"/>
</linearGradient>
<linearGradient id="paint26_linear_9523_3418" x1="470.774" y1="243.817" x2="473.373" y2="189.008" gradientUnits="userSpaceOnUse">
<stop stop-color="#231F20" stop-opacity="0"/>
<stop offset="1" stop-color="#231F20"/>
</linearGradient>
<linearGradient id="paint27_linear_9523_3418" x1="434.934" y1="260.357" x2="438.288" y2="354.234" gradientUnits="userSpaceOnUse">
<stop stop-color="#231F20" stop-opacity="0"/>
<stop offset="1" stop-color="#231F20"/>
</linearGradient>
<linearGradient id="paint28_linear_9523_3418" x1="398.79" y1="275.866" x2="398.79" y2="268.955" gradientUnits="userSpaceOnUse">
<stop stop-color="#231F20" stop-opacity="0"/>
<stop offset="1" stop-color="#231F20"/>
</linearGradient>
</defs>
</svg>
