<svg width="483" height="213" viewBox="0 0 483 213" fill="none" xmlns="http://www.w3.org/2000/svg">
<path d="M0 30C0 13.4315 13.4315 0 30 0H453C469.569 0 483 13.4315 483 30V213H0V30Z" fill="#ECEEF0"/>
<g filter="url(#filter0_d_9515_2289)">
<path d="M36 38.5C36 36.0147 38.0147 34 40.5 34H473.5C475.985 34 478 36.0147 478 38.5V38.5C478 40.9853 475.985 43 473.5 43H40.5C38.0147 43 36 40.9853 36 38.5V38.5Z" fill="#CFCFCF" fill-opacity="0.7" shape-rendering="crispEdges"/>
</g>
<g filter="url(#filter1_d_9515_2289)">
<path d="M31.5 213C29.567 213 28 211.433 28 209.5L28 43.5C28 41.567 29.567 40 31.5 40V40C33.433 40 35 41.567 35 43.5L35 209.5C35 211.433 33.433 213 31.5 213V213Z" fill="#CFCFCF" fill-opacity="0.7" shape-rendering="crispEdges"/>
</g>
<path d="M28 39C28 36.7909 29.7909 35 32 35H479C481.209 35 483 36.7909 483 39V209C483 211.209 481.209 213 479 213H32C29.7909 213 28 211.209 28 209V39Z" fill="url(#paint0_linear_9515_2289)"/>
<path opacity="0.18" d="M314.131 141.516C314.099 142.497 314.041 143.476 313.942 144.476C313.251 151.714 310.705 158.941 305.217 163.596C298.703 169.121 289.462 169.935 280.924 169.621C272.385 169.307 263.628 168.15 255.457 170.643C250.983 172.007 246.889 174.42 242.425 175.811C233.929 178.458 224.372 177.146 216.746 172.582C209.12 168.017 203.494 160.338 201.132 151.773C200.69 150.161 200.347 148.525 200.105 146.87C198.759 137.818 200.078 128.41 199.887 119.18C199.716 110.976 198.373 102.48 201.315 94.8115C203.276 89.7043 207.007 85.4882 211.277 82.1525C226.218 70.5044 245.035 64.2295 263.884 64.1124C275.111 64.0406 286.587 65.8308 296.437 71.2146C299.639 72.9622 302.68 75.1355 304.933 77.9843C306.609 80.115 307.806 82.5861 308.787 85.1078C310.489 89.4862 311.588 94.0773 312.054 98.7536C312.655 104.829 312.181 110.958 312.423 117.052C312.761 125.226 314.368 133.339 314.128 141.51L314.131 141.516Z" fill="#F8FAFC"/>
<path d="M313.942 144.474L313.902 144.86C313.325 150.369 311.665 155.848 308.433 160.16C307.497 161.418 306.419 162.567 305.222 163.581C298.708 169.106 289.467 169.92 280.929 169.606C272.39 169.292 263.633 168.135 255.462 170.627C250.988 171.992 246.894 174.404 242.431 175.796C233.934 178.442 224.377 177.131 216.751 172.566C211.734 169.518 207.574 165.246 204.661 160.149C203.137 157.513 201.953 154.696 201.142 151.762C200.7 150.151 200.357 148.515 200.115 146.86L243.332 145.948L313.939 144.469L313.942 144.474Z" fill="#F8FAFC"/>
<path d="M313.905 144.859C313.328 150.368 311.668 155.848 308.436 160.159H204.653C203.129 157.523 201.945 154.706 201.134 151.772C200.693 150.16 200.349 148.525 200.107 146.87L243.324 145.958L313.9 144.856L313.905 144.859Z" fill="url(#paint1_linear_9515_2289)"/>
<path d="M226.356 167.706C235.185 167.706 242.342 165.597 242.342 162.995C242.342 160.393 235.185 158.284 226.356 158.284C217.527 158.284 210.369 160.393 210.369 162.995C210.369 165.597 217.527 167.706 226.356 167.706Z" fill="url(#paint2_linear_9515_2289)"/>
<path d="M229.525 159.064L229.716 161.067C229.716 161.067 228.948 162.23 227.945 162.301C226.942 162.373 226.602 161.897 226.602 161.897L226.769 158.955" fill="#FFAA71"/>
<path d="M226.605 161.897L226.675 160.713L229.617 159.923L229.843 161.529C229.292 161.947 228.643 162.213 227.957 162.301C226.951 162.375 226.608 161.897 226.608 161.897H226.605Z" fill="white"/>
<path d="M220.146 159.276L219.949 161.335C219.949 161.335 220.737 162.527 221.766 162.604C222.795 162.679 223.144 162.187 223.144 162.187L222.974 159.162" fill="#FFAA71"/>
<path d="M223.145 162.184L223.075 160.968L220.059 160.154L219.947 161.33C219.947 161.33 220.735 162.522 221.764 162.599C222.793 162.673 223.142 162.184 223.142 162.184H223.145Z" fill="white"/>
<path d="M222.609 114.272C222.609 114.272 218.635 116.206 218.542 116.829C218.449 117.451 218.989 132.959 218.989 132.959C218.989 132.959 220.295 134.635 224.24 134.635C228.185 134.635 229.339 133.475 229.52 132.932C229.701 132.39 230.347 116.948 230.254 116.286C230.161 115.624 226.493 114.283 226.493 114.283L222.607 114.272H222.609Z" fill="#F8FAFC"/>
<path d="M228.562 121.571L227.748 133.594L229.52 132.932L229.767 129.096L228.562 121.571Z" fill="url(#paint3_linear_9515_2289)"/>
<path d="M224.979 124.927C224.979 124.927 220.295 124.967 219.997 124.669C219.699 124.372 218.576 116.586 218.542 116.828C218.475 117.283 218.739 124.723 218.888 128.872C220.593 128.324 222.263 127.681 223.896 126.944C224.346 126.752 224.732 126.438 225.008 126.037C225.264 125.659 225.41 125.209 224.979 124.93V124.927Z" fill="url(#paint4_linear_9515_2289)"/>
<path d="M223.27 112.075C223.1 112.82 222.882 113.554 222.616 114.269C222.355 114.982 222.89 116.485 224.504 116.485C226.119 116.485 226.305 114.629 226.276 114.269C226.257 114.011 225.837 113.158 225.733 112.336C225.619 111.45 223.358 111.458 223.27 112.075Z" fill="#FFAA71"/>
<path d="M223.609 116.828L224.296 117.788L223.806 130.758L225.11 132.192L226.019 130.431L224.945 117.628L225.189 116.684L224.469 116.237L223.609 116.828Z" fill="#231F20"/>
<path d="M225.448 123.696L225.61 121.398L229.303 120.485L228.129 127.654L225.217 128L225.448 123.696Z" fill="white"/>
<path d="M223.049 113.102C223.049 113.102 223.049 115.578 224.413 115.36C225.778 115.142 226.001 113.253 226.001 113.253L223.049 113.102Z" fill="url(#paint5_linear_9515_2289)"/>
<path d="M219.616 133.169C219.616 133.169 218.824 135.887 219.289 144.586C219.757 153.284 219.943 159.367 219.943 159.367C219.943 159.367 220.002 160.078 221.5 160.096C222.997 160.115 223.393 159.115 223.393 159.115L224.843 136.834L226.373 159.585C226.373 159.585 228.171 160.62 229.573 159.843C230.347 159.415 230.278 143.548 229.929 136.558C229.884 135.417 229.605 134.297 229.112 133.267C229.112 133.267 225.325 135.784 219.616 133.169Z" fill="#231F20"/>
<path d="M230.255 116.283C230.255 116.283 232.066 123.88 232.215 125.17C232.364 126.46 230.398 130.051 230.071 129.368C229.614 128.477 229.156 125.088 229.156 125.088L230.255 116.283Z" fill="#F8FAFC"/>
<path d="M233.525 124.885C233.523 125.01 233.592 125.125 233.701 125.183C233.831 125.215 233.97 125.194 234.084 125.122C234.986 124.694 235.512 124.069 236.185 123.396C236.704 122.938 237.17 122.42 237.569 121.853C237.875 121.34 237.617 119.097 237.321 119.063C237.026 119.028 237.069 119.746 237.122 120.193C237.175 120.64 236.688 121.175 236.566 121.39C236.443 121.606 236.034 121.209 235.664 121.824C235.393 122.279 235.382 122.614 234.986 122.986C234.512 123.422 234.089 123.907 233.717 124.431C233.624 124.542 233.56 124.675 233.531 124.816C233.528 124.84 233.528 124.862 233.528 124.885H233.525Z" fill="#FFAA71"/>
<path d="M230.542 125.354C230.603 125.25 234.947 122.739 234.947 122.739C234.947 122.739 235.508 123.082 235.929 124.138C235.929 124.138 230.702 129.187 230.268 129.413C229.835 129.639 230.449 128.597 229.715 127.179C228.983 125.761 230.542 125.357 230.542 125.357V125.354Z" fill="#F8FAFC"/>
<path d="M217.868 162.812C217.493 163.065 217.182 163.4 216.956 163.793C216.735 164.206 216.831 164.714 217.182 165.02C217.334 165.115 217.504 165.174 217.682 165.195C219.177 165.448 220.699 164.929 221.723 163.812C221.805 163.706 221.904 163.615 222.021 163.549C222.276 163.421 222.595 163.549 222.869 163.45C223.252 163.317 223.369 162.839 223.425 162.434C223.481 162.03 223.526 161.535 223.242 161.227C222.946 161.713 222.311 161.857 221.741 161.881C221.396 161.918 221.047 161.881 220.715 161.78C220.409 161.668 220.159 161.341 219.808 161.389C219.457 161.437 219.153 161.79 218.906 161.987L217.866 162.817L217.868 162.812Z" fill="#231F20"/>
<path d="M231.962 162.811C232.337 163.064 232.648 163.399 232.875 163.793C233.095 164.205 233 164.713 232.648 165.019C232.497 165.115 232.327 165.174 232.148 165.195C230.656 165.448 229.14 164.929 228.113 163.817C228.031 163.711 227.932 163.62 227.815 163.554C227.56 163.426 227.241 163.554 226.967 163.455C226.584 163.322 226.467 162.843 226.411 162.439C226.355 162.035 226.31 161.54 226.594 161.231C226.89 161.718 227.525 161.862 228.094 161.886C228.44 161.923 228.789 161.886 229.121 161.785C229.427 161.673 229.677 161.346 230.028 161.394C230.379 161.442 230.683 161.795 230.93 161.992L231.962 162.819V162.811Z" fill="#231F20"/>
<path d="M223.23 124.162C223.368 124.066 223.557 124.029 223.714 123.917C223.871 123.806 225.775 122.534 225.922 122.872C225.988 123.026 225.847 123.199 225.712 123.297C225.576 123.396 225.422 123.532 225.451 123.702L227.385 122.747C227.417 122.726 227.454 122.718 227.494 122.72C227.56 122.72 227.584 122.808 227.598 122.877C227.661 123.359 227.536 123.848 227.249 124.239C226.768 124.885 226.103 125.37 225.337 125.628C224.355 125.955 223.459 126.404 223.209 125.657C223.097 125.33 222.905 124.79 223.028 124.431C223.062 124.319 223.131 124.223 223.227 124.159L223.23 124.162Z" fill="#FFAA71"/>
<path d="M219.29 116.104C218.723 116.493 218.236 116.982 217.848 117.549C217.218 118.48 216.175 126.29 216.656 128.407C216.859 129.303 224.227 125.96 224.227 125.96C224.227 125.96 224.056 124.462 223.277 123.954C223.277 123.954 219.662 124.728 219.391 124.457C219.12 124.186 219.29 116.104 219.29 116.104Z" fill="#F8FAFC"/>
<path d="M221.828 108.843C221.828 108.843 221.742 112.232 223.046 113.091C224.349 113.95 224.868 113.83 225.804 113.394C226.371 113.131 226.786 111.059 227.022 109.473C227.265 107.978 226.405 106.523 224.98 106.013C224.495 105.829 223.961 105.829 223.477 106.013C222.314 106.433 221.62 107.625 221.828 108.843Z" fill="#FFAA71"/>
<path d="M227.047 109.343C227.124 109.173 227.177 108.995 227.206 108.811C227.267 108.197 227.198 107.577 227.007 106.992C226.94 106.648 226.82 106.319 226.65 106.01C226.483 105.747 226.246 105.537 225.964 105.404C225.812 105.404 225.677 105.249 225.565 105.148C225.328 104.973 225.03 104.904 224.74 104.959C224.453 104.991 224.174 105.084 223.884 105.111C223.392 105.156 222.822 105.026 222.442 105.345C222.245 105.569 222.088 105.821 221.971 106.093C221.838 106.319 221.644 106.505 221.495 106.718C221.325 106.922 221.237 107.18 221.242 107.446C221.298 107.681 221.375 107.907 221.474 108.125C221.53 108.487 221.562 108.854 221.575 109.221C221.652 109.641 221.902 110.024 221.902 110.45L221.99 108.207C221.985 108.146 221.998 108.082 222.027 108.026C222.096 107.915 222.251 107.909 222.376 107.875C222.679 107.798 222.894 107.516 223.19 107.404C223.394 107.343 223.61 107.324 223.823 107.351L225.435 107.428C225.53 107.428 225.626 107.449 225.711 107.494C225.772 107.542 225.831 107.598 225.884 107.654C226.065 107.8 226.331 107.771 226.538 107.888C226.82 108.05 226.866 108.431 226.882 108.758L226.94 109.971C226.927 109.755 226.961 109.54 227.041 109.34L227.047 109.343Z" fill="#231F20"/>
<path d="M222.714 114.006C222.714 114.006 223.525 115.948 224.47 116.24L222.836 117.368L222.283 114.426L222.714 114.006Z" fill="#F8FAFC"/>
<path d="M226.152 113.918L226.479 114.266L226.219 117.288L224.455 116.227C224.455 116.227 225.926 115.2 226.155 113.918H226.152Z" fill="#F8FAFC"/>
<path d="M222.714 114.006C222.714 114.006 223.525 115.948 224.47 116.24L222.836 117.368L222.283 114.426L222.714 114.006Z" fill="url(#paint6_linear_9515_2289)"/>
<path d="M226.152 113.918L226.479 114.266L226.219 117.288L224.455 116.227C224.455 116.227 225.926 115.2 226.155 113.918H226.152Z" fill="url(#paint7_linear_9515_2289)"/>
<path d="M262.705 135.996C263.131 139.96 261.724 148.113 257.327 149.719C256.244 150.115 255.071 150.163 253.919 150.201C249.411 150.35 244.899 150.387 240.385 150.312C238.579 150.32 236.778 150.195 234.991 149.94C234.121 149.796 233.222 149.578 232.546 149.012C231.405 148.051 231.219 146.219 231.988 144.936C232.756 143.654 234.304 142.976 235.794 143.024C233.967 143.149 232.384 141.771 232.256 139.944C232.208 139.271 232.371 138.598 232.716 138.018C233.764 136.26 236.095 135.861 238.13 135.642C236.847 134.108 235.895 132.214 235.842 130.216C235.789 128.216 236.789 126.122 238.579 125.231C240.369 124.34 242.886 124.984 243.731 126.795C243.077 123.401 243.966 119.669 246.322 117.137C248.44 114.849 252.728 113.062 255.797 114.432C258.739 115.738 259.832 120.201 260.481 122.991C261.484 127.277 262.226 131.621 262.7 135.996H262.705Z" fill="#F8FAFC"/>
<path d="M262.705 135.996C263.131 139.96 261.724 148.113 257.327 149.719C256.244 150.115 255.071 150.163 253.919 150.201C249.411 150.35 244.899 150.387 240.385 150.312C238.579 150.32 236.778 150.195 234.991 149.94C234.121 149.796 233.222 149.578 232.546 149.012C231.405 148.051 231.219 146.219 231.988 144.936C232.756 143.654 234.304 142.976 235.794 143.024C233.967 143.149 232.384 141.771 232.256 139.944C232.208 139.271 232.371 138.598 232.716 138.018C233.764 136.26 236.095 135.861 238.13 135.642C236.847 134.108 235.895 132.214 235.842 130.216C235.789 128.216 236.789 126.122 238.579 125.231C240.369 124.34 242.886 124.984 243.731 126.795C243.077 123.401 243.966 119.669 246.322 117.137C248.44 114.849 252.728 113.062 255.797 114.432C258.739 115.738 259.832 120.201 260.481 122.991C261.484 127.277 262.226 131.621 262.7 135.996H262.705Z" fill="url(#paint8_linear_9515_2289)"/>
<path d="M295.09 91.9551H288.555V108.29H295.09V91.9551Z" fill="#F8FAFC"/>
<path d="M295.09 91.9551H288.555V108.29H295.09V91.9551Z" fill="url(#paint9_linear_9515_2289)"/>
<path d="M295.666 89.6377H287.979C287.56 89.6377 287.221 89.9771 287.221 90.3958V92.0104C287.221 92.4291 287.56 92.7685 287.979 92.7685H295.666C296.085 92.7685 296.424 92.4291 296.424 92.0104V90.3958C296.424 89.9771 296.085 89.6377 295.666 89.6377Z" fill="#F8FAFC"/>
<path d="M272.084 87.8691L248.535 111.312V117.951V148.85H298.354V117.951V113.525L272.084 87.8691Z" fill="#F8FAFC"/>
<path d="M272.084 87.8691L248.535 111.312V117.951V148.85H298.354V117.951V113.525L272.084 87.8691Z" fill="url(#paint10_linear_9515_2289)"/>
<g opacity="0.2">
<path d="M272.768 86.2725L248.541 110.431V114.277L272.768 91.3078L298.363 115.572V113.154C298.754 113.154 299.073 112.841 299.076 112.45C299.076 112.25 298.996 112.061 298.85 111.926L272.768 86.2725Z" fill="#F8FAFC"/>
</g>
<path d="M300.297 148.85H246.6V152.797H300.297V148.85Z" fill="#F8FAFC"/>
<path d="M274.024 123.906H254.832V139.832H274.024V123.906Z" fill="#F8FAFC"/>
<path d="M274.024 123.906H254.832V139.832H274.024V123.906Z" fill="url(#paint11_linear_9515_2289)"/>
<path d="M293.216 123.191H280.557V148.85H293.216V123.191Z" fill="#F8FAFC"/>
<path d="M292.192 124.824H281.584V147.519H292.192V124.824Z" fill="#F8FAFC"/>
<path d="M292.192 124.824H281.584V147.519H292.192V124.824Z" fill="url(#paint12_linear_9515_2289)"/>
<path d="M293.582 121.763H280.26C279.955 121.763 279.707 122.01 279.707 122.316V123.353C279.707 123.659 279.955 123.907 280.26 123.907H293.582C293.887 123.907 294.135 123.659 294.135 123.353V122.316C294.135 122.01 293.887 121.763 293.582 121.763Z" fill="#F8FAFC"/>
<path d="M271.64 86.2462L245.673 111.5C245.04 112.144 245.051 113.179 245.695 113.812C245.99 114.102 246.386 114.269 246.798 114.28C247.213 114.28 247.615 114.12 247.916 113.833L271.651 91.2497C272.273 90.6538 273.255 90.6538 273.88 91.2497L297.615 113.833C297.916 114.12 298.315 114.28 298.73 114.28C299.631 114.259 300.344 113.509 300.323 112.607C300.312 112.192 300.147 111.798 299.855 111.503L273.891 86.2489C273.263 85.6371 272.263 85.6371 271.635 86.2489L271.64 86.2462Z" fill="#F8FAFC"/>
<path d="M274.578 123.191H254.279V123.907H274.578V123.191Z" fill="#F8FAFC"/>
<path d="M260.156 123.906H259.51V138.504H260.156V123.906Z" fill="#F8FAFC"/>
<path d="M264.75 123.906H264.104V138.504H264.75V123.906Z" fill="#F8FAFC"/>
<path d="M269.344 123.906H268.697V138.504H269.344V123.906Z" fill="#F8FAFC"/>
<path d="M274.024 131.597H254.832V132.142H274.024V131.597Z" fill="#F8FAFC"/>
<path d="M273.441 138.749C274.071 138.42 274.484 137.781 274.523 137.071C274.523 136.744 274.409 136.371 274.098 136.326C273.965 136.321 273.835 136.35 273.72 136.414C273.366 136.581 273.052 136.818 272.794 137.113C272.89 136.797 272.927 136.464 272.909 136.132C272.911 135.653 272.526 135.265 272.05 135.259C271.77 135.259 271.51 135.39 271.345 135.616C271.095 135.914 270.919 136.268 270.829 136.645C270.624 136.097 270.267 135.619 269.802 135.267C269.725 135.204 269.632 135.156 269.533 135.134C269.419 135.129 269.305 135.156 269.206 135.212C268.618 135.512 268.235 136.103 268.201 136.76C268.137 136.52 267.929 136.347 267.685 136.321C267.466 136.316 267.286 136.491 267.28 136.709C267.28 136.738 267.28 136.768 267.288 136.794C266.825 136.313 266.136 136.119 265.49 136.292C264.844 136.496 264.439 137.135 264.53 137.805C264.235 137.685 263.899 137.826 263.78 138.122C263.766 138.151 263.758 138.183 263.75 138.212C263.697 138.553 263.796 138.898 264.022 139.159" fill="#F8FAFC"/>
<path d="M254.989 138.717L254.249 138.098C254.087 137.989 253.97 137.826 253.922 137.638C253.89 137.31 254.249 137.098 254.576 137.151C254.88 137.236 255.151 137.411 255.35 137.656C255.26 136.978 255.209 136.183 255.709 135.696C256.119 135.358 256.686 135.294 257.159 135.528C257.619 135.77 257.981 136.167 258.181 136.645C258.407 135.93 258.846 135.299 259.439 134.842C259.593 134.666 259.859 134.648 260.035 134.802C260.056 134.821 260.077 134.842 260.093 134.866C260.596 135.345 260.872 136.012 260.857 136.707C260.95 136.494 261.064 136.289 261.2 136.1C261.232 136.039 261.285 135.994 261.351 135.97C261.452 135.94 261.548 136.018 261.623 136.089C261.819 136.281 262.014 136.536 261.95 136.802C262.059 136.369 262.285 135.972 262.604 135.658C262.931 135.374 263.538 135.347 263.783 135.717C263.894 135.917 263.934 136.145 263.9 136.371C263.854 136.85 263.7 137.313 263.447 137.72C263.447 137.56 263.689 137.497 263.817 137.592C263.934 137.701 263.987 137.866 263.958 138.023C263.958 138.18 263.886 138.334 263.881 138.494" fill="#F8FAFC"/>
<path d="M273.441 138.749C274.071 138.42 274.484 137.781 274.523 137.071C274.523 136.744 274.409 136.371 274.098 136.326C273.965 136.321 273.835 136.35 273.72 136.414C273.366 136.581 273.052 136.818 272.794 137.113C272.89 136.797 272.927 136.464 272.909 136.132C272.911 135.653 272.526 135.265 272.05 135.259C271.77 135.259 271.51 135.39 271.345 135.616C271.095 135.914 270.919 136.268 270.829 136.645C270.624 136.097 270.267 135.619 269.802 135.267C269.725 135.204 269.632 135.156 269.533 135.134C269.419 135.129 269.305 135.156 269.206 135.212C268.618 135.512 268.235 136.103 268.201 136.76C268.137 136.52 267.929 136.347 267.685 136.321C267.466 136.316 267.286 136.491 267.28 136.709C267.28 136.738 267.28 136.768 267.288 136.794C266.825 136.313 266.136 136.119 265.49 136.292C264.844 136.496 264.439 137.135 264.53 137.805C264.235 137.685 263.899 137.826 263.78 138.122C263.766 138.151 263.758 138.183 263.75 138.212C263.697 138.553 263.796 138.898 264.022 139.159" fill="url(#paint13_linear_9515_2289)"/>
<path d="M273.968 138.505H254.893C254.226 138.505 253.686 139.046 253.686 139.713V141.79C253.686 142.457 254.226 142.998 254.893 142.998H273.968C274.635 142.998 275.176 142.457 275.176 141.79V139.713C275.176 139.046 274.635 138.505 273.968 138.505Z" fill="#F8FAFC"/>
<path d="M254.989 138.717L254.249 138.098C254.087 137.989 253.97 137.826 253.922 137.638C253.89 137.31 254.249 137.098 254.576 137.151C254.88 137.236 255.151 137.411 255.35 137.656C255.26 136.978 255.209 136.183 255.709 135.696C256.119 135.358 256.686 135.294 257.159 135.528C257.619 135.77 257.981 136.167 258.181 136.645C258.407 135.93 258.846 135.299 259.439 134.842C259.593 134.666 259.859 134.648 260.035 134.802C260.056 134.821 260.077 134.842 260.093 134.866C260.596 135.345 260.872 136.012 260.857 136.707C260.95 136.494 261.064 136.289 261.2 136.1C261.232 136.039 261.285 135.994 261.351 135.97C261.452 135.94 261.548 136.018 261.623 136.089C261.819 136.281 262.014 136.536 261.95 136.802C262.059 136.369 262.285 135.972 262.604 135.658C262.931 135.374 263.538 135.347 263.783 135.717C263.894 135.917 263.934 136.145 263.9 136.371C263.854 136.85 263.7 137.313 263.447 137.72C263.447 137.56 263.689 137.497 263.817 137.592C263.934 137.701 263.987 137.866 263.958 138.023C263.958 138.18 263.886 138.334 263.881 138.494" fill="url(#paint14_linear_9515_2289)"/>
<path d="M261.513 140.952H258.736V160.437H261.513V140.952Z" fill="#F8FAFC"/>
<path d="M261.513 140.952H258.736V160.437H261.513V140.952Z" fill="url(#paint15_linear_9515_2289)"/>
<path d="M268.158 141.963H251.027V151.387H268.158V141.963Z" fill="#F8FAFC"/>
<path d="M268.085 141.963H250.955V151.387H268.085V141.963Z" fill="url(#paint16_linear_9515_2289)"/>
<path d="M253.999 145.758C253.922 145.655 253.826 145.57 253.711 145.511C253.581 145.445 253.437 145.413 253.294 145.415C253.206 145.415 253.118 145.429 253.036 145.455C252.951 145.479 252.871 145.519 252.802 145.572C252.73 145.628 252.671 145.697 252.629 145.774C252.584 145.862 252.562 145.961 252.562 146.059C252.562 146.152 252.581 146.245 252.623 146.33C252.666 146.402 252.722 146.463 252.791 146.511C252.863 146.564 252.945 146.607 253.03 146.636L253.304 146.735C253.424 146.772 253.544 146.812 253.664 146.86C253.781 146.902 253.89 146.963 253.991 147.035C254.089 147.11 254.169 147.203 254.225 147.312C254.291 147.442 254.323 147.589 254.315 147.732C254.318 147.884 254.286 148.035 254.217 148.174C254.158 148.293 254.071 148.4 253.964 148.48C253.858 148.562 253.738 148.623 253.608 148.66C253.477 148.7 253.339 148.719 253.203 148.719C253.094 148.719 252.985 148.711 252.876 148.687C252.775 148.666 252.677 148.634 252.581 148.591C252.488 148.551 252.397 148.496 252.32 148.432C252.238 148.368 252.169 148.293 252.107 148.208L252.408 147.985C252.49 148.113 252.602 148.219 252.735 148.291C252.876 148.376 253.041 148.418 253.206 148.416C253.296 148.416 253.387 148.402 253.475 148.376C253.562 148.347 253.645 148.304 253.719 148.248C253.791 148.192 253.852 148.12 253.895 148.038C253.945 147.95 253.969 147.852 253.967 147.751C253.969 147.647 253.945 147.543 253.895 147.453C253.85 147.373 253.786 147.307 253.709 147.256C253.629 147.197 253.539 147.152 253.445 147.123L253.118 147.014C253.007 146.979 252.897 146.939 252.791 146.894C252.682 146.852 252.581 146.793 252.493 146.719C252.405 146.644 252.334 146.554 252.283 146.45C252.171 146.187 252.177 145.889 252.302 145.633C252.365 145.519 252.453 145.418 252.56 145.338C252.666 145.261 252.786 145.202 252.913 145.168C253.038 145.133 253.166 145.115 253.296 145.115C253.501 145.109 253.706 145.152 253.892 145.24C254.036 145.306 254.164 145.407 254.265 145.53L253.996 145.753L253.999 145.758Z" fill="white"/>
<path d="M256.164 148.632H255.781L257.26 145.211H257.587L259.058 148.632H258.673L258.295 147.733H256.537L256.164 148.632ZM256.667 147.413H258.17L257.417 145.613L256.664 147.413H256.667Z" fill="white"/>
<path d="M261.043 148.32H262.636V148.632H260.691V145.211H261.04V148.32H261.043Z" fill="white"/>
<path d="M264.601 148.32H266.434V148.632H264.25V145.211H266.373V145.517H264.598V146.693H266.256V147.004H264.598V148.32H264.601Z" fill="white"/>
<defs>
<filter id="filter0_d_9515_2289" x="26" y="25" width="452" height="18" filterUnits="userSpaceOnUse" color-interpolation-filters="sRGB">
<feFlood flood-opacity="0" result="BackgroundImageFix"/>
<feColorMatrix in="SourceAlpha" type="matrix" values="0 0 0 0 0 0 0 0 0 0 0 0 0 0 0 0 0 0 127 0" result="hardAlpha"/>
<feOffset dx="-6" dy="-5"/>
<feGaussianBlur stdDeviation="2"/>
<feComposite in2="hardAlpha" operator="out"/>
<feColorMatrix type="matrix" values="0 0 0 0 0.592157 0 0 0 0 0.580392 0 0 0 0 0.580392 0 0 0 0.25 0"/>
<feBlend mode="normal" in2="BackgroundImageFix" result="effect1_dropShadow_9515_2289"/>
<feBlend mode="normal" in="SourceGraphic" in2="effect1_dropShadow_9515_2289" result="shape"/>
</filter>
<filter id="filter1_d_9515_2289" x="18" y="32" width="17" height="181" filterUnits="userSpaceOnUse" color-interpolation-filters="sRGB">
<feFlood flood-opacity="0" result="BackgroundImageFix"/>
<feColorMatrix in="SourceAlpha" type="matrix" values="0 0 0 0 0 0 0 0 0 0 0 0 0 0 0 0 0 0 127 0" result="hardAlpha"/>
<feOffset dx="-6" dy="-4"/>
<feGaussianBlur stdDeviation="2"/>
<feComposite in2="hardAlpha" operator="out"/>
<feColorMatrix type="matrix" values="0 0 0 0 0.593099 0 0 0 0 0.580629 0 0 0 0 0.580629 0 0 0 0.25 0"/>
<feBlend mode="normal" in2="BackgroundImageFix" result="effect1_dropShadow_9515_2289"/>
<feBlend mode="normal" in="SourceGraphic" in2="effect1_dropShadow_9515_2289" result="shape"/>
</filter>
<linearGradient id="paint0_linear_9515_2289" x1="483" y1="124" x2="28" y2="124" gradientUnits="userSpaceOnUse">
<stop stop-color="#9C4546"/>
<stop offset="1" stop-color="#F23611"/>
</linearGradient>
<linearGradient id="paint1_linear_9515_2289" x1="257.26" y1="120.302" x2="256.619" y2="184.967" gradientUnits="userSpaceOnUse">
<stop stop-color="#231F20" stop-opacity="0"/>
<stop offset="1" stop-color="#231F20"/>
</linearGradient>
<linearGradient id="paint2_linear_9515_2289" x1="226.539" y1="144.473" x2="226.17" y2="181.676" gradientUnits="userSpaceOnUse">
<stop stop-color="#231F20" stop-opacity="0"/>
<stop offset="1" stop-color="#231F20"/>
</linearGradient>
<linearGradient id="paint3_linear_9515_2289" x1="227.663" y1="127.588" x2="236.763" y2="127.5" gradientUnits="userSpaceOnUse">
<stop stop-color="#231F20" stop-opacity="0"/>
<stop offset="1" stop-color="#231F20"/>
</linearGradient>
<linearGradient id="paint4_linear_9515_2289" x1="213.158" y1="124.183" x2="225.623" y2="121.188" gradientUnits="userSpaceOnUse">
<stop stop-color="#231F20" stop-opacity="0"/>
<stop offset="1" stop-color="#231F20"/>
</linearGradient>
<linearGradient id="paint5_linear_9515_2289" x1="224.903" y1="109.013" x2="223.948" y2="119.525" gradientUnits="userSpaceOnUse">
<stop stop-color="#231F20" stop-opacity="0"/>
<stop offset="1" stop-color="#231F20"/>
</linearGradient>
<linearGradient id="paint6_linear_9515_2289" x1="223.408" y1="110.266" x2="223.321" y2="124.425" gradientUnits="userSpaceOnUse">
<stop stop-color="#231F20" stop-opacity="0"/>
<stop offset="1" stop-color="#231F20"/>
</linearGradient>
<linearGradient id="paint7_linear_9515_2289" x1="225.495" y1="110.276" x2="225.41" y2="124.438" gradientUnits="userSpaceOnUse">
<stop stop-color="#231F20" stop-opacity="0"/>
<stop offset="1" stop-color="#231F20"/>
</linearGradient>
<linearGradient id="paint8_linear_9515_2289" x1="268.009" y1="150.24" x2="226.037" y2="117.48" gradientUnits="userSpaceOnUse">
<stop stop-color="#231F20" stop-opacity="0"/>
<stop offset="1" stop-color="#231F20"/>
</linearGradient>
<linearGradient id="paint9_linear_9515_2289" x1="291.779" y1="88.138" x2="291.874" y2="114.31" gradientUnits="userSpaceOnUse">
<stop stop-color="#231F20" stop-opacity="0"/>
<stop offset="1" stop-color="#231F20"/>
</linearGradient>
<linearGradient id="paint10_linear_9515_2289" x1="278.027" y1="168.382" x2="263.184" y2="47.9" gradientUnits="userSpaceOnUse">
<stop stop-color="#231F20" stop-opacity="0"/>
<stop offset="1" stop-color="#231F20"/>
</linearGradient>
<linearGradient id="paint11_linear_9515_2289" x1="265.081" y1="118.932" x2="264.509" y2="130.258" gradientUnits="userSpaceOnUse">
<stop offset="0.02" stop-color="white" stop-opacity="0"/>
<stop offset="0.58" stop-color="white" stop-opacity="0.39"/>
<stop offset="1" stop-color="white"/>
</linearGradient>
<linearGradient id="paint12_linear_9515_2289" x1="288.037" y1="155.576" x2="286.989" y2="137.877" gradientUnits="userSpaceOnUse">
<stop offset="0.02" stop-color="white" stop-opacity="0"/>
<stop offset="0.58" stop-color="white" stop-opacity="0.39"/>
<stop offset="1" stop-color="white"/>
</linearGradient>
<linearGradient id="paint13_linear_9515_2289" x1="269.887" y1="133.828" x2="267.985" y2="143.63" gradientUnits="userSpaceOnUse">
<stop stop-color="#231F20" stop-opacity="0"/>
<stop offset="1" stop-color="#231F20"/>
</linearGradient>
<linearGradient id="paint14_linear_9515_2289" x1="260.088" y1="131.924" x2="258.183" y2="141.726" gradientUnits="userSpaceOnUse">
<stop stop-color="#231F20" stop-opacity="0"/>
<stop offset="1" stop-color="#231F20"/>
</linearGradient>
<linearGradient id="paint15_linear_9515_2289" x1="254.664" y1="150.47" x2="273.13" y2="151.23" gradientUnits="userSpaceOnUse">
<stop stop-color="#231F20" stop-opacity="0"/>
<stop offset="1" stop-color="#231F20"/>
</linearGradient>
<linearGradient id="paint16_linear_9515_2289" x1="257.964" y1="136.986" x2="261.819" y2="160.969" gradientUnits="userSpaceOnUse">
<stop stop-color="#231F20" stop-opacity="0"/>
<stop offset="1" stop-color="#231F20"/>
</linearGradient>
</defs>
</svg>
