<svg width="483" height="213" viewBox="0 0 483 213" fill="none" xmlns="http://www.w3.org/2000/svg">
<path d="M0 30C0 13.4315 13.4315 0 30 0H453C469.569 0 483 13.4315 483 30V213H0V30Z" fill="#ECEEF0"/>
<g filter="url(#filter0_d_9507_1709)">
<path d="M36 38.5C36 36.0147 38.0147 34 40.5 34H473.5C475.985 34 478 36.0147 478 38.5V38.5C478 40.9853 475.985 43 473.5 43H40.5C38.0147 43 36 40.9853 36 38.5V38.5Z" fill="#CFCFCF" fill-opacity="0.7" shape-rendering="crispEdges"/>
</g>
<g filter="url(#filter1_d_9507_1709)">
<path d="M31.5 213C29.567 213 28 211.433 28 209.5L28 43.5C28 41.567 29.567 40 31.5 40V40C33.433 40 35 41.567 35 43.5L35 209.5C35 211.433 33.433 213 31.5 213V213Z" fill="#CFCFCF" fill-opacity="0.7" shape-rendering="crispEdges"/>
</g>
<path d="M28 39C28 36.7909 29.7909 35 32 35H479C481.209 35 483 36.7909 483 39V209C483 211.209 481.209 213 479 213H32C29.7909 213 28 211.209 28 209V39Z" fill="url(#paint0_linear_9507_1709)"/>
<path opacity="0.18" d="M296.398 161.873C292.142 166.6 287.617 171.072 282.25 174.442C271.354 181.289 258.012 182.965 245.145 183.183C225.469 183.51 206.341 178.068 198.364 158.4C195.728 151.893 194.722 144.78 195.073 137.769C195.382 131.667 196.736 125.549 199.723 120.229C200.665 118.571 201.731 116.989 202.92 115.499V153.002C202.92 157.902 206.892 161.873 211.792 161.873C211.797 161.873 211.802 161.873 211.805 161.873H296.395H296.398Z" fill="#F8FAFC"/>
<path opacity="0.18" d="M286.783 82.9909H242.773C245.886 81.6157 249.133 80.573 252.464 79.8761C256.712 79.0036 261.061 78.7535 265.394 78.5168C270.993 78.2029 276.829 77.9369 281.982 80.1447C283.687 80.9055 285.296 81.8631 286.783 82.9909Z" fill="#F8FAFC"/>
<path opacity="0.46" d="M318.379 91.9524V153.095C318.379 157.99 314.413 161.958 309.518 161.964H211.806C206.909 161.964 202.94 157.992 202.938 153.095V91.9524C202.938 87.0554 206.909 83.0866 211.806 83.084H309.521C314.415 83.0893 318.381 87.058 318.381 91.9524H318.379Z" fill="#F8FAFC"/>
<path d="M258.191 140.968L237.11 119.888L218.16 135.092L211.324 134.776L237.11 113.442L258.191 134.52L277.311 114.767L293.263 124.779L306.448 111.594L309.672 114.815L293.739 130.639L277.955 120.757L258.191 140.968Z" fill="#F8FAFC"/>
<path d="M215.046 139.606C217.722 139.606 219.892 137.436 219.892 134.76C219.892 132.083 217.722 129.913 215.046 129.913C212.369 129.913 210.199 132.083 210.199 134.76C210.199 137.436 212.369 139.606 215.046 139.606Z" fill="#F8FAFC"/>
<path d="M214.971 138.085C216.819 138.085 218.318 136.587 218.318 134.739C218.318 132.891 216.819 131.393 214.971 131.393C213.123 131.393 211.625 132.891 211.625 134.739C211.625 136.587 213.123 138.085 214.971 138.085Z" fill="white"/>
<path d="M258.294 142.743C260.97 142.743 263.14 140.573 263.14 137.896C263.14 135.22 260.97 133.05 258.294 133.05C255.617 133.05 253.447 135.22 253.447 137.896C253.447 140.573 255.617 142.743 258.294 142.743Z" fill="#F8FAFC"/>
<path d="M258.223 141.221C260.071 141.221 261.57 139.723 261.57 137.875C261.57 136.027 260.071 134.528 258.223 134.528C256.375 134.528 254.877 136.027 254.877 137.875C254.877 139.723 256.375 141.221 258.223 141.221Z" fill="white"/>
<path d="M277.761 122.638C280.437 122.638 282.607 120.468 282.607 117.792C282.607 115.115 280.437 112.945 277.761 112.945C275.084 112.945 272.914 115.115 272.914 117.792C272.914 120.468 275.084 122.638 277.761 122.638Z" fill="#F8FAFC"/>
<path d="M277.684 121.116C279.532 121.116 281.03 119.618 281.03 117.77C281.03 115.922 279.532 114.424 277.684 114.424C275.836 114.424 274.338 115.922 274.338 117.77C274.338 119.618 275.836 121.116 277.684 121.116Z" fill="white"/>
<path d="M237.647 121.473C240.324 121.473 242.494 119.303 242.494 116.627C242.494 113.95 240.324 111.78 237.647 111.78C234.971 111.78 232.801 113.95 232.801 116.627C232.801 119.303 234.971 121.473 237.647 121.473Z" fill="#F8FAFC"/>
<path d="M237.577 119.949C239.425 119.949 240.923 118.451 240.923 116.603C240.923 114.755 239.425 113.257 237.577 113.257C235.729 113.257 234.23 114.755 234.23 116.603C234.23 118.451 235.729 119.949 237.577 119.949Z" fill="white"/>
<path d="M311.073 123.954L306.513 123.899L306.641 113.623L296.078 114.344L295.77 109.798L311.261 108.739L311.073 123.954Z" fill="#F8FAFC"/>
<path d="M214.544 111.176H212.57V118.326H214.544V111.176Z" fill="#F8FAFC"/>
<path d="M216.944 113.078H214.971V118.324H216.944V113.078Z" fill="#F8FAFC"/>
<path d="M219.503 114.714H217.529V118.326H219.503V114.714Z" fill="#F8FAFC"/>
<path d="M275.89 141.181H273.916V144.756H275.89V141.181Z" fill="#F8FAFC"/>
<path d="M278.296 139.511H276.322V144.756H278.296V139.511Z" fill="#F8FAFC"/>
<path d="M280.855 136.858H278.881V144.756H280.855V136.858Z" fill="#F8FAFC"/>
<path opacity="0.18" d="M253.785 103.776C253.283 102.401 253.176 100.712 254.134 99.6052C254.549 99.153 255.073 98.8179 255.655 98.6264C257.156 98.0784 258.829 98.3098 260.124 99.2435C261.396 100.214 261.965 101.85 261.577 103.401C261.249 104.563 260.353 105.516 260.153 106.702C260.066 107.213 260.1 107.782 259.784 108.189C259.401 108.684 257.321 108.66 256.693 108.655C253.916 108.631 254.618 106.064 253.785 103.776Z" fill="#F8FAFC"/>
<path opacity="0.18" d="M253.785 103.776C253.283 102.401 253.176 100.712 254.134 99.6052C254.549 99.153 255.073 98.8179 255.655 98.6264C257.156 98.0784 258.829 98.3098 260.124 99.2435C261.396 100.214 261.965 101.85 261.577 103.401C261.249 104.563 260.353 105.516 260.153 106.702C260.066 107.213 260.1 107.782 259.784 108.189C259.401 108.684 257.321 108.66 256.693 108.655C253.916 108.631 254.618 106.064 253.785 103.776Z" fill="#F8FAFC"/>
<path opacity="0.18" d="M253.785 103.776C253.283 102.401 253.176 100.712 254.134 99.6052C254.549 99.153 255.073 98.8179 255.655 98.6264C257.156 98.0784 258.829 98.3098 260.124 99.2435C261.396 100.214 261.965 101.85 261.577 103.401C261.249 104.563 260.353 105.516 260.153 106.702C260.066 107.213 260.1 107.782 259.784 108.189C259.401 108.684 257.321 108.66 256.693 108.655C253.916 108.631 254.618 106.064 253.785 103.776Z" fill="#F8FAFC"/>
<path opacity="0.18" d="M253.785 103.776C253.283 102.401 253.176 100.712 254.134 99.6052C254.549 99.153 255.073 98.8179 255.655 98.6264C257.156 98.0784 258.829 98.3098 260.124 99.2435C261.396 100.214 261.965 101.85 261.577 103.401C261.249 104.563 260.353 105.516 260.153 106.702C260.066 107.213 260.1 107.782 259.784 108.189C259.401 108.684 257.321 108.66 256.693 108.655C253.916 108.631 254.618 106.064 253.785 103.776Z" fill="#F8FAFC"/>
<path d="M254.739 110.163C254.781 110.248 254.813 110.339 254.829 110.434C254.824 110.543 254.81 110.652 254.792 110.759C254.786 110.998 254.903 111.227 255.1 111.363C255.295 111.496 255.515 111.586 255.749 111.623C256.843 111.868 257.986 111.746 259.008 111.278C259.194 111.19 259.394 111.067 259.428 110.868V110.647C259.46 110.551 259.505 110.461 259.564 110.381C259.75 110.051 259.707 109.639 259.46 109.352C259.665 109.203 259.721 108.923 259.593 108.708C259.457 108.5 259.239 108.365 258.995 108.333C258.753 108.301 258.508 108.301 258.266 108.333C257.436 108.405 256.098 107.99 255.337 108.29C254.898 108.482 254.555 109.658 254.741 110.166L254.739 110.163Z" fill="#231F20"/>
<path d="M256.348 108.969C255.768 108.442 255.595 107.591 255.534 106.804C255.494 106.274 255.478 105.74 255.494 105.208C255.465 104.99 255.548 104.771 255.713 104.628C255.808 104.577 255.915 104.561 256.021 104.577C256.359 104.638 256.646 104.854 256.8 105.157C256.952 105.458 257.029 105.79 257.029 106.128C257.029 106.378 256.979 106.708 256.739 106.758C256.705 106.772 256.665 106.764 256.636 106.74C256.614 106.719 256.601 106.692 256.596 106.663C256.545 106.189 256.633 105.713 256.851 105.29C256.947 105.051 257.085 104.779 257.34 104.745C257.468 104.734 257.596 104.774 257.694 104.859C257.931 105.075 258.04 105.397 257.984 105.713C257.923 106.019 257.811 106.314 257.652 106.586L257.567 106.745C257.434 106.072 257.606 105.375 258.043 104.846C258.093 104.777 258.162 104.721 258.242 104.686C258.426 104.62 258.623 104.769 258.726 104.934C258.934 105.314 259.006 105.756 258.928 106.184C258.825 107.187 258.444 108.142 257.833 108.942" stroke="white" stroke-width="0.92" stroke-miterlimit="10"/>
<path d="M310.575 150.504H239.638C238.807 150.504 238.133 151.178 238.133 152.009V152.012C238.133 152.844 238.807 153.518 239.638 153.518H310.575C311.407 153.518 312.081 152.844 312.081 152.012V152.009C312.081 151.178 311.407 150.504 310.575 150.504Z" fill="#F8FAFC"/>
<path d="M226.939 136.641L230.363 129.448L238.271 134.071L232.829 145.302L228.583 142.94L226.939 136.641Z" fill="#F8FAFC"/>
<path d="M227.588 135.92L230.466 130.342L236.97 134.14L232.041 144.035L228.684 141.466L227.588 135.92Z" fill="white"/>
<path d="M227.36 153.609L229.645 167.67L227.594 181.861L229.201 182.757L226.541 182.643L226.721 168.114L222.795 157.889L220.734 181.904L221.976 182.72L219.691 182.63L218.412 159.623C218.412 159.623 217.316 153.785 218.864 152.787C220.412 151.787 227.357 153.609 227.357 153.609H227.36Z" fill="#231F20"/>
<path d="M219.052 132.521C219.052 132.521 224.572 133.138 225.944 134.143C227.317 135.149 228.732 136.721 228.732 138C228.732 139.28 229.277 145.578 229.277 145.578L231.562 140.285L232.842 141.014C232.842 141.014 231.389 150.191 230.557 150.462C229.727 150.736 227.5 150.143 227.5 150.143L227.362 153.612C227.362 153.612 219.877 154.343 218.869 152.79C217.861 151.236 215.506 135.055 219.055 132.523L219.052 132.521Z" fill="#F8FAFC"/>
<path d="M223.805 130.786C223.805 130.786 223.137 132.193 223.494 133.342C223.494 133.342 221.44 133.052 221.379 132.826C221.318 132.6 221.637 130.429 221.4 129.767C221.161 129.105 223.805 130.786 223.805 130.786Z" fill="#EEA886"/>
<path d="M221.592 125.056C222.398 124.71 224.611 124.226 225.43 127.53C226.249 130.834 225.007 130.993 223.717 131.017C222.427 131.041 220.259 128.937 220.057 128.261C219.855 127.586 219.294 126.048 221.594 125.056H221.592Z" fill="#EEA886"/>
<path d="M222.177 124.82C221.411 124.947 220.744 125.181 220.275 125.857C220.073 126.147 219.948 126.477 219.866 126.82C219.773 127.206 219.61 127.578 219.555 127.98C219.43 128.868 219.648 129.826 219.246 130.664C219.092 130.985 218.847 131.262 218.549 131.456C218.342 131.592 218.11 131.688 217.916 131.839C217.328 132.307 217.294 133.313 217.847 133.818C217.98 133.938 218.147 134.055 218.163 134.233C218.177 134.372 218.089 134.497 218.001 134.606C217.602 135.098 217.105 135.534 216.871 136.122C216.759 136.404 216.714 136.707 216.711 137.008C216.706 137.643 216.911 138.311 217.392 138.723C217.873 139.136 218.666 139.21 219.134 138.777C219.076 139.035 219.235 139.309 219.461 139.444C219.688 139.58 219.967 139.606 220.23 139.585C221.148 139.508 221.967 138.899 222.454 138.114C222.741 137.651 222.933 137.109 222.882 136.563C222.816 135.824 222.321 135.183 222.22 134.446C222.071 133.366 222.784 132.35 222.837 131.262C222.864 130.701 222.627 130.001 222.826 129.461C222.975 129.06 223.467 128.642 223.757 128.328C223.866 128.211 225.343 127.03 225.329 126.977C225.329 126.977 224.71 124.391 222.172 124.817L222.177 124.82Z" fill="#FF6B6B"/>
<path d="M231.677 138.75C231.677 138.659 231.685 138.569 231.709 138.484C231.791 138.239 232.049 138.106 232.182 137.888C232.254 137.75 232.299 137.601 232.315 137.446C232.326 137.308 232.363 137.172 232.422 137.047C232.485 136.922 232.621 136.845 232.762 136.853C232.948 136.88 233.052 137.082 233.1 137.263C233.424 138.353 233.379 139.521 232.969 140.58C232.908 140.737 232.799 140.918 232.632 140.904C232.576 140.896 232.52 140.875 232.472 140.846C232.137 140.665 231.663 140.521 231.647 140.122C231.629 139.667 231.669 139.202 231.677 138.747V138.75Z" fill="#EEA886"/>
<path d="M232.45 137.587L230.899 136.135L230.764 136.409L232.184 137.896C232.184 137.896 232.474 137.805 232.45 137.587Z" fill="#F8FAFC"/>
<path d="M227.496 150.14C227.496 150.14 226.698 149.821 226.422 147.494C226.145 145.166 225.805 142.77 225.805 142.77V153.702H227.632L227.496 150.14Z" fill="url(#paint1_linear_9507_1709)"/>
<defs>
<filter id="filter0_d_9507_1709" x="26" y="25" width="452" height="18" filterUnits="userSpaceOnUse" color-interpolation-filters="sRGB">
<feFlood flood-opacity="0" result="BackgroundImageFix"/>
<feColorMatrix in="SourceAlpha" type="matrix" values="0 0 0 0 0 0 0 0 0 0 0 0 0 0 0 0 0 0 127 0" result="hardAlpha"/>
<feOffset dx="-6" dy="-5"/>
<feGaussianBlur stdDeviation="2"/>
<feComposite in2="hardAlpha" operator="out"/>
<feColorMatrix type="matrix" values="0 0 0 0 0.592157 0 0 0 0 0.580392 0 0 0 0 0.580392 0 0 0 0.25 0"/>
<feBlend mode="normal" in2="BackgroundImageFix" result="effect1_dropShadow_9507_1709"/>
<feBlend mode="normal" in="SourceGraphic" in2="effect1_dropShadow_9507_1709" result="shape"/>
</filter>
<filter id="filter1_d_9507_1709" x="18" y="32" width="17" height="181" filterUnits="userSpaceOnUse" color-interpolation-filters="sRGB">
<feFlood flood-opacity="0" result="BackgroundImageFix"/>
<feColorMatrix in="SourceAlpha" type="matrix" values="0 0 0 0 0 0 0 0 0 0 0 0 0 0 0 0 0 0 127 0" result="hardAlpha"/>
<feOffset dx="-6" dy="-4"/>
<feGaussianBlur stdDeviation="2"/>
<feComposite in2="hardAlpha" operator="out"/>
<feColorMatrix type="matrix" values="0 0 0 0 0.593099 0 0 0 0 0.580629 0 0 0 0 0.580629 0 0 0 0.25 0"/>
<feBlend mode="normal" in2="BackgroundImageFix" result="effect1_dropShadow_9507_1709"/>
<feBlend mode="normal" in="SourceGraphic" in2="effect1_dropShadow_9507_1709" result="shape"/>
</filter>
<linearGradient id="paint0_linear_9507_1709" x1="28" y1="124" x2="483" y2="124" gradientUnits="userSpaceOnUse">
<stop stop-color="#FF6B6B"/>
<stop offset="1" stop-color="#4D8AFF"/>
</linearGradient>
<linearGradient id="paint1_linear_9507_1709" x1="231.869" y1="143.759" x2="216.665" y2="156.974" gradientUnits="userSpaceOnUse">
<stop stop-color="#231F20" stop-opacity="0"/>
<stop offset="1" stop-color="#231F20"/>
</linearGradient>
</defs>
</svg>
