<svg width="719" height="517" viewBox="0 0 719 517" fill="none" xmlns="http://www.w3.org/2000/svg">
<path d="M0 4C0 1.79086 1.79086 0 4 0H715C717.209 0 719 1.79086 719 4V512.46C719 514.669 717.209 516.46 715 516.46H3.99998C1.79084 516.46 0 514.669 0 512.46V4Z" fill="url(#paint0_linear_9522_3164)"/>
<path opacity="0.18" d="M254.503 349.184C235.737 332.364 224.857 308.468 224.483 283.267C224.255 258.388 238.621 237.834 256.931 221.052C269.973 209.051 316.179 111.529 403.899 148.643C432.543 160.765 431.338 204.169 450.441 228.781C456.172 236.179 463.279 242.386 469.911 249.012C481.691 260.747 492.31 274.188 497.642 289.955C502.974 305.723 502.353 324.141 492.988 337.879C485.006 349.596 471.8 356.633 458.531 361.591C424.586 374.258 387.599 376.059 351.397 374.918C318.366 373.878 279.267 371.114 254.497 349.184H254.503Z" fill="#F8FAFC"/>
<path d="M240.264 387.901H506.683L450.099 317.578H241.487L240.264 387.901Z" fill="#231F20"/>
<path d="M506.683 387.901H240.264L241.487 317.584H289.817C290.331 317.901 290.895 318.136 291.478 318.288C299.834 321.077 308.907 320.317 317.675 319.48C319.419 319.315 321.2 319.118 322.69 318.237C323.92 317.514 329.36 319.258 329.214 317.825C329.208 317.742 329.201 317.666 329.195 317.584H450.099L506.683 387.901Z" fill="url(#paint1_linear_9522_3164)"/>
<path d="M350.541 332.155L388.936 346.991L447.068 335.363L409.484 320.654L350.541 329.594V332.155Z" fill="#F8FAFC"/>
<path d="M350.541 329.593L388.936 344.434L447.068 332.807L409.484 318.092L350.541 329.593Z" fill="#F8FAFC"/>
<path d="M350.541 329.593L388.936 344.434L447.068 332.807L409.484 318.092L350.541 329.593Z" fill="url(#paint2_linear_9522_3164)"/>
<path d="M388.936 346.995L447.067 335.362L461.034 283.418L402.909 295.046L388.936 346.995Z" fill="#F8FAFC"/>
<path d="M388.936 346.995L447.067 335.362L461.034 283.418L402.909 295.046L388.936 346.995Z" fill="url(#paint3_linear_9522_3164)"/>
<path d="M390.521 346.73L448.653 335.096L462.614 283.152L404.489 294.78L390.521 346.73Z" fill="#F8FAFC"/>
<path d="M356.697 301.252C356.627 301.562 356.488 301.854 356.291 302.101C353.312 306.457 350.129 310.654 346.737 314.699C346.623 314.857 346.471 314.984 346.293 315.067C345.925 315.124 345.558 314.997 345.31 314.718C345.139 314.572 344.974 314.439 344.81 314.28C340.454 310.502 337.652 305.227 334.945 300.104C333.765 297.872 332.599 295.634 331.413 293.409C330.361 291.545 329.467 289.592 328.738 287.583C327.673 284.381 327.432 280.983 327.203 277.616C326.728 270.826 324.756 263.548 322.246 256.891C321.58 255.109 320.87 253.372 320.141 251.711C325.637 252.548 331.083 253.695 336.453 255.147C337.354 255.344 338.222 255.68 339.015 256.149C340.638 257.22 341.392 259.205 341.963 261.075C342.977 264.397 343.744 267.776 344.436 271.187C346.433 281.268 349.932 291.469 356.107 299.832C356.475 300.218 356.684 300.725 356.697 301.258V301.252Z" fill="#F8FAFC"/>
<path d="M351.308 305.088C351.245 305.398 351.105 305.69 350.909 305.937C348.962 308.803 346.921 311.58 344.791 314.274C340.435 310.496 337.633 305.221 334.926 300.098C333.746 297.867 332.58 295.629 331.394 293.403C330.342 291.539 329.448 289.586 328.719 287.577C327.654 284.375 327.413 280.977 327.184 277.61C326.709 270.82 324.737 263.542 322.227 256.885C325.384 257.544 328.579 258.318 331.065 258.983C331.965 259.18 332.827 259.522 333.62 259.985C335.255 261.069 336.01 263.041 336.587 264.911C337.576 268.24 338.394 271.613 339.04 275.024C341.05 285.11 344.556 295.312 350.719 303.668C351.086 304.054 351.295 304.562 351.308 305.094V305.088Z" fill="url(#paint4_linear_9522_3164)"/>
<path d="M356.945 299.839C355.797 299.262 354.441 299.275 353.166 299.421C350.592 299.719 348.082 300.517 345.812 301.76C345.431 301.969 345.051 302.191 344.747 302.502C344.354 302.895 344.1 303.402 343.859 303.903C343.01 305.704 342.325 307.656 342.458 309.647C342.591 311.638 343.707 313.66 345.571 314.37C345.863 314.484 346.186 314.561 346.497 314.51C346.826 314.459 347.118 314.263 347.391 314.066C349.476 312.544 351.074 310.401 353.274 309.051C354.656 308.201 356.229 307.701 357.592 306.826C358.752 306.078 360.248 304.695 359.811 303.18C359.449 301.925 358.099 300.416 356.945 299.839Z" fill="#F8FAFC"/>
<path d="M356.945 299.839C355.797 299.262 354.441 299.275 353.166 299.421C350.592 299.719 348.082 300.517 345.812 301.76C345.431 301.969 345.051 302.191 344.747 302.502C344.354 302.895 344.1 303.402 343.859 303.903C343.01 305.704 342.325 307.656 342.458 309.647C342.591 311.638 343.707 313.66 345.571 314.37C345.863 314.484 346.186 314.561 346.497 314.51C346.826 314.459 347.118 314.263 347.391 314.066C349.476 312.544 351.074 310.401 353.274 309.051C354.656 308.201 356.229 307.701 357.592 306.826C358.752 306.078 360.248 304.695 359.811 303.18C359.449 301.925 358.099 300.416 356.945 299.839Z" fill="url(#paint5_linear_9522_3164)"/>
<path d="M335.262 297.124C334.628 303.965 328.37 308.143 329.195 317.584H289.817C289.69 317.514 289.57 317.431 289.455 317.349C289.424 317.33 289.392 317.311 289.367 317.286C289.246 317.197 289.126 317.102 289.012 317.007C288.352 316.271 287.864 315.396 287.579 314.452C286 310.134 284.776 305.696 283.933 301.176C283.179 297.061 282.729 292.889 281.923 288.781C281.055 284.349 279.787 280.006 278.119 275.803C277.162 273.387 276.059 270.978 275.723 268.392C275.114 263.808 270.708 256.865 274.461 254.12C275.996 252.992 290.692 251.438 293.082 250.38C294.299 249.815 295.555 249.34 296.835 248.947C299.403 248.294 302.059 248.027 304.709 248.167C307.214 248.154 309.712 248.395 312.172 248.883C314.46 249.384 316.47 250.678 318.657 251.185C323.133 252.161 327.007 254.925 329.397 258.824C331.927 262.895 332.98 267.713 333.506 272.474C334.026 277.236 333.969 282.054 334.514 286.797C334.901 290.233 335.585 293.675 335.262 297.124Z" fill="#F8FAFC"/>
<path d="M335.262 297.124C334.628 303.965 328.37 308.143 329.195 317.584H289.817C289.69 317.514 289.57 317.431 289.455 317.349C289.424 317.33 289.392 317.311 289.367 317.286C289.246 317.197 289.126 317.102 289.012 317.007C288.352 316.271 287.864 315.396 287.579 314.452C286 310.134 284.776 305.696 283.933 301.176C283.179 297.061 282.729 292.889 281.923 288.781C281.055 284.349 279.787 280.006 278.119 275.803C277.162 273.387 276.059 270.978 275.723 268.392C275.114 263.808 270.708 256.865 274.461 254.12C275.996 252.992 290.692 251.438 293.082 250.38C294.299 249.815 295.555 249.34 296.835 248.947C299.403 248.294 302.059 248.027 304.709 248.167C307.214 248.154 309.712 248.395 312.172 248.883C314.46 249.384 316.47 250.678 318.657 251.185C323.133 252.161 327.007 254.925 329.397 258.824C331.927 262.895 332.98 267.713 333.506 272.474C334.026 277.236 333.969 282.054 334.514 286.797C334.901 290.233 335.585 293.675 335.262 297.124Z" fill="url(#paint6_linear_9522_3164)"/>
<path d="M289.766 270.211V272.557L295.953 276.164L293.386 285.161C293.386 285.161 305.058 296.002 306.915 298.481C308.773 300.96 312.843 316.861 312.615 317.583C312.387 318.306 313.978 318.091 313.978 318.091L313.75 307.763L300.036 270.211H289.772H289.766Z" fill="url(#paint7_linear_9522_3164)"/>
<path d="M284.554 276.976C284.491 278.389 284.25 279.791 283.838 281.141C283.28 282.853 282.31 284.4 281.688 286.08C280.826 288.267 280.503 290.632 280.756 292.971C280.934 293.935 280.997 294.918 280.934 295.894C280.839 296.611 280.579 297.264 280.42 297.955C279.9 300.332 280.706 302.773 281.511 305.074C279.343 305.753 277.257 306.653 275.272 307.763L274.733 308.099C272.59 309.405 271.012 311.459 270.289 313.862C270.08 314.699 269.852 315.745 269.015 315.929C268.615 315.986 268.21 315.884 267.886 315.65C266.453 314.705 266.155 312.784 266.01 311.066C265.515 305.132 262.789 271.751 270.308 258.754C271.17 257.265 272.984 253.099 277.016 253.321C280.148 253.492 282.069 255.546 283.229 258.501C285.226 263.643 284.922 271.51 284.554 276.976Z" fill="#F8FAFC"/>
<path d="M284.555 276.975C284.491 278.389 284.251 279.79 283.838 281.141C283.281 282.852 282.31 284.399 281.689 286.079C280.827 288.267 280.504 290.632 280.757 292.971C280.935 293.935 280.998 294.917 280.935 295.894C280.84 296.61 280.58 297.263 280.421 297.954C279.901 300.332 280.706 302.773 281.512 305.074C279.343 305.753 277.258 306.653 275.273 307.762C274.557 295.539 274.214 272.949 280.091 262.793C280.643 261.842 281.581 259.8 283.236 258.494C285.227 263.642 284.916 271.51 284.555 276.975Z" fill="url(#paint8_linear_9522_3164)"/>
<path d="M298.872 248.795C299.074 250.266 299.189 251.749 299.214 253.233C299.842 266.661 304.381 279.607 310.024 291.799C311.076 293.853 311.907 296.015 312.503 298.247C312.807 299.8 312.978 301.379 313.022 302.957L313.574 312.423C313.282 307.687 314.176 302.951 316.167 298.64C317.815 295.058 320.187 291.894 321.55 288.229C324.022 281.611 322.983 274.25 321.651 267.314C320.719 262.369 318.976 256.396 319.432 251.375C319.641 251.324 307.931 247.634 301.94 247.184C300.678 247.032 299.455 247.672 298.865 248.795H298.872Z" fill="white"/>
<path d="M294.991 249.752L288.74 269.742L296.817 273.406L294.072 282.111L305.078 293.384C306.708 295.057 307.988 297.035 308.844 299.204L313.428 310.831C313.428 310.831 314.905 300.383 308.952 288.159C302.999 275.936 298.872 248.775 298.872 248.775L294.991 249.739V249.752Z" fill="#F8FAFC"/>
<path d="M294.991 249.752L288.74 269.742L296.817 273.406L294.072 282.111L305.078 293.384C306.708 295.057 307.988 297.035 308.844 299.204L313.428 310.831C313.428 310.831 314.905 300.383 308.952 288.159C302.999 275.936 298.872 248.775 298.872 248.775L294.991 249.739V249.752Z" fill="url(#paint9_linear_9522_3164)"/>
<path d="M319.438 251.4L321.588 252.117L329.918 267.935C329.918 267.935 326.558 275.727 326.558 275.093C326.558 274.459 330.223 283.5 330.223 283.5C330.223 283.5 324.269 296.021 320.155 297.86C316.04 299.692 313.504 312.835 313.504 312.835C313.504 312.835 311.97 301.119 321.569 288.242C322.126 287.526 323.211 281.972 322.139 272.804C321.074 263.637 318.056 254.12 319.438 251.4Z" fill="#F8FAFC"/>
<path d="M319.438 251.4L321.588 252.117L329.918 267.935C329.918 267.935 326.558 275.727 326.558 275.093C326.558 274.459 330.223 283.5 330.223 283.5C330.223 283.5 324.269 296.021 320.155 297.86C316.04 299.692 313.504 312.835 313.504 312.835C313.504 312.835 311.97 301.119 321.569 288.242C322.126 287.526 323.211 281.972 322.139 272.804C321.074 263.637 318.056 254.12 319.438 251.4Z" fill="url(#paint10_linear_9522_3164)"/>
<path d="M289.05 236.419C288.162 230.536 285.836 214.223 294.686 205.816C305.578 195.45 317.028 197.003 325.048 202.95C328.047 205.042 330.393 207.934 331.82 211.3C333.075 214.457 333.367 217.894 333.544 221.26C333.785 223.555 333.798 225.869 333.588 228.164C333.271 230.396 332.504 232.539 331.331 234.466C330.913 235.145 330.45 235.791 330.051 236.489C328.941 238.505 328.288 240.737 328.13 243.032C327.971 245.321 328.016 247.622 328.257 249.904C328.295 250.285 328.529 250.291 328.123 250.45C327.794 250.5 327.451 250.475 327.128 250.386C326.519 250.291 325.923 250.12 325.321 250.037C323.4 249.771 321.492 249.486 319.59 249.201L298.002 248.922L287.979 247.248C289.272 243.799 289.64 240.065 289.044 236.425L289.05 236.419Z" fill="#C14834"/>
<path d="M289.05 236.419C288.162 230.536 285.836 214.223 294.686 205.816C305.578 195.45 317.028 197.003 325.048 202.95C329.214 206.127 332.061 210.736 333.024 215.89C333.455 218.027 333.677 220.201 333.696 222.376C333.747 225.064 333.696 228.336 332.733 230.859C332.118 232.533 331.014 233.978 330.241 235.595C329.239 237.941 328.586 240.413 328.288 242.943C327.882 245.409 327.933 247.926 328.453 250.367C326.912 250.557 324.979 249.987 323.438 249.759C322.157 249.581 320.877 249.384 319.59 249.194L298.002 248.915L287.979 247.242C289.278 243.793 289.646 240.058 289.05 236.419Z" fill="url(#paint11_linear_9522_3164)"/>
<path d="M317.15 257.963C315.894 259.878 313.853 261.14 311.577 261.406C311.412 261.419 311.247 261.419 311.082 261.406C310.505 261.4 309.935 261.317 309.383 261.152C307.874 260.683 306.479 259.903 305.288 258.87C302.549 256.626 300.387 253.747 298.992 250.495C298.859 250.216 298.77 249.912 298.738 249.601C298.738 249.411 299.29 249.043 300.013 248.13C301.173 246.602 301.978 244.833 302.371 242.95C302.707 241.562 302.2 238.132 302.149 236.236C302.149 235.437 302.149 234.905 302.39 234.898C302.954 234.943 303.493 235.158 303.937 235.513C306.511 237.289 308.66 239.609 310.233 242.316L310.581 242.957C311.425 244.434 312.046 246.019 312.439 247.674C312.769 249.43 314.493 248.58 316.509 249.106C316.782 249.176 317.004 249.645 317.181 250.324C317.752 252.524 317.853 256.974 317.143 257.963H317.15Z" fill="#FFB4A3"/>
<path d="M317.181 250.335V251.052C317.112 252.77 317.055 254.488 316.979 256.206C316.941 257.126 316.845 258.165 316.104 258.692C314.525 259.75 312.845 260.651 311.089 261.386C310.772 261.551 310.404 261.602 310.049 261.532C309.821 261.418 309.599 261.285 309.39 261.139C306.441 258.99 301.965 251.959 300.025 248.116C301.186 246.589 301.991 244.82 302.384 242.937C302.72 241.548 302.213 238.118 302.162 236.223C303.474 237.212 307.12 239.97 310.245 242.303C312.452 243.957 314.398 245.403 315.077 245.885C315.539 246.17 315.958 246.525 316.326 246.931C316.991 247.939 317.296 249.144 317.175 250.348L317.181 250.335Z" fill="url(#paint12_linear_9522_3164)"/>
<path d="M304.843 315.573C305.743 316.068 306.523 316.759 307.392 317.323C307.817 317.596 308.26 317.83 308.685 318.04C310.048 318.807 311.335 319.701 312.54 320.702C312.851 320.905 313.06 321.229 313.13 321.59C313.098 321.945 312.882 322.262 312.565 322.421C311.716 322.801 310.739 322.801 309.89 322.421C309.053 322.04 308.159 321.774 307.246 321.641H306.156C305.762 321.558 305.388 321.413 305.052 321.197C303.372 320.088 301.978 318.598 300.982 316.848C300.627 316.398 300.412 315.859 300.342 315.288C300.342 314.724 300.906 314.787 301.369 314.768C302.58 314.724 303.778 315.003 304.843 315.58V315.573Z" fill="#FFB4A3"/>
<path d="M355.759 302.685C362.328 305.145 369.181 306.761 376.155 307.49C379.262 307.814 382.476 307.985 385.285 309.367C388.664 311.034 391.016 314.23 393.159 317.317C393.59 317.774 393.793 318.402 393.704 319.023C393.47 319.739 392.525 319.961 391.752 319.929C387.377 319.765 383.808 316.24 379.522 315.371C379.382 316.157 379.744 316.943 380.428 317.349C381.107 317.729 381.753 318.154 382.375 318.617C382.584 318.807 382.774 319.099 382.666 319.333C382.597 319.473 382.482 319.581 382.343 319.65C381.354 320.208 380.124 319.879 379.046 319.517C376.757 318.75 374.405 317.825 372.789 316.024C372.072 315.193 371.445 314.16 370.43 313.691C369.549 313.361 368.598 313.272 367.666 313.425C361.294 313.925 353.16 316.652 346.94 315.155C346.528 315.079 346.135 314.927 345.787 314.699C345 314.122 344.202 311.833 344.252 310.832C344.297 308.758 345.057 306.768 346.402 305.189C347.79 303.68 353.819 301.994 355.753 302.666" fill="#FFB4A3"/>
<path d="M288.035 311.029C290.184 312.208 292.447 313.4 294.888 313.838C296.866 314.193 298.914 314.041 300.861 314.51C304.221 315.328 306.947 317.971 308.475 321.078C310.003 324.185 310.453 327.754 310.497 331.19C310.497 331.488 310.421 331.907 310.123 331.907C309.971 331.907 309.832 331.856 309.718 331.755C307.372 330.081 307.042 326.505 304.703 324.8L306.364 330.81C306.516 331.362 306.579 332.116 306.047 332.325C305.831 332.401 305.597 332.401 305.381 332.325C303.656 331.824 302.515 330.246 301.558 328.743C300.601 327.24 299.7 325.548 298.16 324.647C299.028 327.031 299.846 329.421 300.613 331.805C299.814 332.141 298.914 331.615 298.274 331.025C296.353 329.25 295.218 326.809 294.127 324.432C294.704 326.385 295.002 328.407 295.002 330.442C294.115 330.55 293.5 329.612 293.107 328.8L288.872 320.057C288.758 319.791 288.599 319.55 288.396 319.341C288.149 319.151 287.864 319.018 287.559 318.948C282.139 317.287 276.35 318.162 270.923 316.501C270.143 316.298 269.395 315.987 268.704 315.581C267.487 314.795 267.068 310.833 267.068 309.387C267.081 307.91 267.829 306.528 269.065 305.716C270.555 304.759 272.381 304.822 274.08 304.759C275.513 304.708 278.227 304.093 279.482 304.848C282.823 306.851 284.617 309.197 288.041 311.035L288.035 311.029Z" fill="#FFB4A3"/>
<path d="M282.38 305.195C282.108 304.554 281.721 303.971 281.226 303.483C280.871 303.02 280.428 302.64 279.92 302.354C279.293 302.113 278.614 302.018 277.942 302.082L270.696 302.196C269.263 302.196 267.71 302.272 266.543 303.134C265.205 304.123 264.736 305.955 264.838 307.616C265.066 309.271 265.402 310.913 265.846 312.524C265.96 313.658 266.296 314.755 266.841 315.751C267.481 316.683 268.851 317.247 269.77 316.588C269.288 314.451 269.238 312.245 269.618 310.095C269.776 308.973 270.442 307.984 271.425 307.42C271.989 307.211 272.591 307.122 273.194 307.154L279.274 307.078C280.713 307.059 283.179 307.521 282.374 305.201L282.38 305.195Z" fill="#F8FAFC"/>
<path d="M282.38 305.195C282.108 304.554 281.721 303.971 281.226 303.483C280.871 303.02 280.428 302.64 279.92 302.354C279.293 302.113 278.614 302.018 277.942 302.082L270.696 302.196C269.263 302.196 267.71 302.272 266.543 303.134C265.205 304.123 264.736 305.955 264.838 307.616C265.066 309.271 265.402 310.913 265.846 312.524C265.96 313.658 266.296 314.755 266.841 315.751C267.481 316.683 268.851 317.247 269.77 316.588C269.288 314.451 269.238 312.245 269.618 310.095C269.776 308.973 270.442 307.984 271.425 307.42C271.989 307.211 272.591 307.122 273.194 307.154L279.274 307.078C280.713 307.059 283.179 307.521 282.374 305.201L282.38 305.195Z" fill="url(#paint13_linear_9522_3164)"/>
<path d="M328.136 243.254C327.28 244.629 326.278 245.904 325.143 247.058C323.165 249.207 321.111 251.432 318.448 252.649C317.58 253.074 316.629 253.296 315.665 253.302C313.998 253.245 312.508 252.25 311.233 251.153C303.163 244.369 299.625 233.008 301.21 222.572C301.502 220.049 302.357 217.621 303.714 215.478C306.016 212.149 310.035 210.324 314.055 209.848C317.092 209.442 320.179 209.848 323.007 211.027C325.828 212.226 328.149 214.362 329.575 217.076C330.177 218.388 330.659 219.751 331.008 221.152C331.737 223.676 329.119 241.599 328.142 243.254H328.136Z" fill="#FFB4A3"/>
<path d="M325.138 218.281C323.3 219.891 321.15 221.108 318.823 221.863C317.321 222.415 315.78 222.865 314.221 223.201C311.723 223.74 309.117 224.019 306.873 225.242C303.734 226.948 301.782 230.257 300.628 233.643C299.448 232.685 298.516 231.455 297.914 230.061C297.293 228.539 296.963 226.916 296.938 225.28C296.792 221.609 297.54 217.964 299.119 214.648C300.482 211.63 302.752 209.113 305.611 207.452C307.209 206.647 308.914 206.07 310.677 205.753C313.067 205.195 315.539 205.043 317.98 205.303C321.41 205.772 324.587 207.376 326.996 209.861C328.327 211.243 328.429 212.011 327.921 213.805C327.414 215.523 326.45 217.064 325.138 218.281Z" fill="#C14834"/>
<path d="M281.403 335.025L295.509 372.52L249.576 374.175L249.836 335.52L281.403 335.025Z" fill="white"/>
<g opacity="0.33">
<path d="M253.723 370.636L252.41 337.922H280.617L291.325 368.804L253.716 370.63L253.723 370.636ZM253.127 338.607L254.382 369.926L290.399 368.176L280.141 338.607H253.127Z" fill="url(#paint14_linear_9522_3164)"/>
</g>
<g opacity="0.33">
<path d="M289.337 365.322L254.053 366.609L254.077 367.287L289.361 366L289.337 365.322Z" fill="url(#paint15_linear_9522_3164)"/>
</g>
<g opacity="0.33">
<path d="M289.337 362.382L254.053 363.67L254.077 364.348L289.361 363.06L289.337 362.382Z" fill="url(#paint16_linear_9522_3164)"/>
</g>
<g opacity="0.33">
<path d="M286.816 358.87L253.785 360.174L253.811 360.833L286.842 359.529L286.816 358.87Z" fill="url(#paint17_linear_9522_3164)"/>
</g>
<g opacity="0.33">
<path d="M285.857 355.948L253.607 356.916L253.627 357.575L285.877 356.607L285.857 355.948Z" fill="url(#paint18_linear_9522_3164)"/>
</g>
<g opacity="0.33">
<path d="M285.302 352.477L253.545 354.152L253.58 354.811L285.337 353.135L285.302 352.477Z" fill="url(#paint19_linear_9522_3164)"/>
</g>
<g opacity="0.33">
<path d="M284.526 349.884L253.533 351.227L253.562 351.885L284.554 350.543L284.526 349.884Z" fill="url(#paint20_linear_9522_3164)"/>
</g>
<g opacity="0.33">
<path d="M283.844 347.288L253.518 348.484L253.544 349.143L283.87 347.946L283.844 347.288Z" fill="url(#paint21_linear_9522_3164)"/>
</g>
<g opacity="0.33">
<path d="M282.876 344.617L253.416 345.723L253.441 346.382L282.901 345.276L282.876 344.617Z" fill="url(#paint22_linear_9522_3164)"/>
</g>
<g opacity="0.33">
<path d="M281.95 342.299L253.271 343.055L253.289 343.714L281.967 342.958L281.95 342.299Z" fill="url(#paint23_linear_9522_3164)"/>
</g>
<g opacity="0.33">
<path d="M281.265 339.792L253.08 340.215L253.09 340.874L281.274 340.451L281.265 339.792Z" fill="url(#paint24_linear_9522_3164)"/>
</g>
<g opacity="0.33">
<path d="M255.801 338.245L255.143 338.285L257.064 369.793L257.722 369.753L255.801 338.245Z" fill="url(#paint25_linear_9522_3164)"/>
</g>
<g opacity="0.33">
<path d="M265.022 338.154L264.369 338.248L268.809 369.174L269.462 369.081L265.022 338.154Z" fill="url(#paint26_linear_9522_3164)"/>
</g>
<g opacity="0.33">
<path d="M275.809 338.1L275.174 338.275L283.661 368.943L284.297 368.767L275.809 338.1Z" fill="url(#paint27_linear_9522_3164)"/>
</g>
<path d="M295.947 332.438V334.644L305.318 346.988L329.828 342.715L330.101 337.637L320.413 328.514L295.947 332.438Z" fill="#F8FAFC"/>
<path d="M295.947 332.438V334.644L305.318 346.988L329.828 342.715L330.101 337.637L320.413 328.514L295.947 332.438Z" fill="url(#paint28_linear_9522_3164)"/>
<path d="M305.825 341.967L330.101 337.637L320.414 328.514L296.562 332.413L305.825 341.967Z" fill="#F8FAFC"/>
<path d="M304.031 338.113L306.009 340.573L327.705 336.731L324.357 334.303L304.031 338.113Z" fill="white"/>
<path d="M303.187 337.485L301.107 335.59L304.626 334.924L306.807 336.686L303.187 337.485Z" fill="url(#paint29_linear_9522_3164)"/>
<path d="M300.568 335.29L298.482 333.388L302.014 332.723L304.182 334.492L300.568 335.29Z" fill="url(#paint30_linear_9522_3164)"/>
<path d="M307.398 336.748L305.318 334.859L308.837 334.193L311.018 335.956L307.398 336.748Z" fill="url(#paint31_linear_9522_3164)"/>
<path d="M304.785 334.556L302.699 332.66L306.224 331.994L308.393 333.757L304.785 334.556Z" fill="url(#paint32_linear_9522_3164)"/>
<path d="M311.607 336.021L309.527 334.132L313.059 333.453L315.227 335.222L311.607 336.021Z" fill="url(#paint33_linear_9522_3164)"/>
<path d="M308.996 333.827L306.916 331.931L310.435 331.266L312.616 333.028L308.996 333.827Z" fill="url(#paint34_linear_9522_3164)"/>
<path d="M315.83 335.29L313.744 333.388L317.269 332.723L319.444 334.492L315.83 335.29Z" fill="url(#paint35_linear_9522_3164)"/>
<path d="M313.205 333.092L311.125 331.203L314.65 330.537L316.825 332.3L313.205 333.092Z" fill="url(#paint36_linear_9522_3164)"/>
<path d="M320.039 334.556L317.953 332.66L321.478 331.994L323.653 333.757L320.039 334.556Z" fill="url(#paint37_linear_9522_3164)"/>
<path d="M317.428 332.362L315.342 330.473L318.867 329.801L321.035 331.563L317.428 332.362Z" fill="url(#paint38_linear_9522_3164)"/>
<defs>
<linearGradient id="paint0_linear_9522_3164" x1="719" y1="258.23" x2="0" y2="258.23" gradientUnits="userSpaceOnUse">
<stop stop-color="#00FF85"/>
<stop offset="1" stop-color="#00EEE9"/>
</linearGradient>
<linearGradient id="paint1_linear_9522_3164" x1="366.151" y1="293.942" x2="373.41" y2="387.077" gradientUnits="userSpaceOnUse">
<stop/>
<stop offset="1" stop-opacity="0"/>
</linearGradient>
<linearGradient id="paint2_linear_9522_3164" x1="402.237" y1="340.339" x2="391.878" y2="312.728" gradientUnits="userSpaceOnUse">
<stop/>
<stop offset="1" stop-opacity="0"/>
</linearGradient>
<linearGradient id="paint3_linear_9522_3164" x1="388.936" y1="315.207" x2="461.034" y2="315.207" gradientUnits="userSpaceOnUse">
<stop/>
<stop offset="1" stop-opacity="0"/>
</linearGradient>
<linearGradient id="paint4_linear_9522_3164" x1="294.343" y1="336.61" x2="341.437" y2="275.264" gradientUnits="userSpaceOnUse">
<stop/>
<stop offset="1" stop-opacity="0"/>
</linearGradient>
<linearGradient id="paint5_linear_9522_3164" x1="346.611" y1="290.139" x2="352.532" y2="311.758" gradientUnits="userSpaceOnUse">
<stop/>
<stop offset="1" stop-opacity="0"/>
</linearGradient>
<linearGradient id="paint6_linear_9522_3164" x1="305.381" y1="362.376" x2="304.145" y2="275.619" gradientUnits="userSpaceOnUse">
<stop/>
<stop offset="1" stop-opacity="0"/>
</linearGradient>
<linearGradient id="paint7_linear_9522_3164" x1="313.547" y1="242.765" x2="298.401" y2="309.411" gradientUnits="userSpaceOnUse">
<stop/>
<stop offset="1" stop-opacity="0"/>
</linearGradient>
<linearGradient id="paint8_linear_9522_3164" x1="345.178" y1="317.754" x2="274.398" y2="280.576" gradientUnits="userSpaceOnUse">
<stop/>
<stop offset="1" stop-opacity="0"/>
</linearGradient>
<linearGradient id="paint9_linear_9522_3164" x1="301.534" y1="232.526" x2="301.255" y2="274.934" gradientUnits="userSpaceOnUse">
<stop/>
<stop offset="1" stop-opacity="0"/>
</linearGradient>
<linearGradient id="paint10_linear_9522_3164" x1="322.234" y1="232.659" x2="321.962" y2="275.074" gradientUnits="userSpaceOnUse">
<stop/>
<stop offset="1" stop-opacity="0"/>
</linearGradient>
<linearGradient id="paint11_linear_9522_3164" x1="320.389" y1="262.198" x2="302.022" y2="204.827" gradientUnits="userSpaceOnUse">
<stop/>
<stop offset="1" stop-opacity="0"/>
</linearGradient>
<linearGradient id="paint12_linear_9522_3164" x1="318.215" y1="233.744" x2="304.565" y2="254.501" gradientUnits="userSpaceOnUse">
<stop/>
<stop offset="1" stop-opacity="0"/>
</linearGradient>
<linearGradient id="paint13_linear_9522_3164" x1="249.837" y1="306.875" x2="285.988" y2="310.799" gradientUnits="userSpaceOnUse">
<stop/>
<stop offset="1" stop-opacity="0"/>
</linearGradient>
<linearGradient id="paint14_linear_9522_3164" x1="277.808" y1="393.016" x2="256.74" y2="300.066" gradientUnits="userSpaceOnUse">
<stop/>
<stop offset="1" stop-opacity="0"/>
</linearGradient>
<linearGradient id="paint15_linear_9522_3164" x1="277.739" y1="393.029" x2="256.671" y2="300.078" gradientUnits="userSpaceOnUse">
<stop/>
<stop offset="1" stop-opacity="0"/>
</linearGradient>
<linearGradient id="paint16_linear_9522_3164" x1="278.373" y1="392.887" x2="257.306" y2="299.938" gradientUnits="userSpaceOnUse">
<stop/>
<stop offset="1" stop-opacity="0"/>
</linearGradient>
<linearGradient id="paint17_linear_9522_3164" x1="277.839" y1="393.004" x2="256.771" y2="300.059" gradientUnits="userSpaceOnUse">
<stop/>
<stop offset="1" stop-opacity="0"/>
</linearGradient>
<linearGradient id="paint18_linear_9522_3164" x1="277.967" y1="392.975" x2="256.9" y2="300.027" gradientUnits="userSpaceOnUse">
<stop/>
<stop offset="1" stop-opacity="0"/>
</linearGradient>
<linearGradient id="paint19_linear_9522_3164" x1="278.316" y1="392.894" x2="257.249" y2="299.951" gradientUnits="userSpaceOnUse">
<stop/>
<stop offset="1" stop-opacity="0"/>
</linearGradient>
<linearGradient id="paint20_linear_9522_3164" x1="278.549" y1="392.845" x2="257.481" y2="299.893" gradientUnits="userSpaceOnUse">
<stop/>
<stop offset="1" stop-opacity="0"/>
</linearGradient>
<linearGradient id="paint21_linear_9522_3164" x1="278.806" y1="392.789" x2="257.738" y2="299.838" gradientUnits="userSpaceOnUse">
<stop/>
<stop offset="1" stop-opacity="0"/>
</linearGradient>
<linearGradient id="paint22_linear_9522_3164" x1="278.898" y1="392.771" x2="257.83" y2="299.819" gradientUnits="userSpaceOnUse">
<stop/>
<stop offset="1" stop-opacity="0"/>
</linearGradient>
<linearGradient id="paint23_linear_9522_3164" x1="278.89" y1="392.773" x2="257.822" y2="299.821" gradientUnits="userSpaceOnUse">
<stop/>
<stop offset="1" stop-opacity="0"/>
</linearGradient>
<linearGradient id="paint24_linear_9522_3164" x1="279.068" y1="392.73" x2="258" y2="299.778" gradientUnits="userSpaceOnUse">
<stop/>
<stop offset="1" stop-opacity="0"/>
</linearGradient>
<linearGradient id="paint25_linear_9522_3164" x1="265.861" y1="395.725" x2="244.793" y2="302.774" gradientUnits="userSpaceOnUse">
<stop/>
<stop offset="1" stop-opacity="0"/>
</linearGradient>
<linearGradient id="paint26_linear_9522_3164" x1="275.926" y1="393.44" x2="254.858" y2="300.49" gradientUnits="userSpaceOnUse">
<stop/>
<stop offset="1" stop-opacity="0"/>
</linearGradient>
<linearGradient id="paint27_linear_9522_3164" x1="288.134" y1="390.665" x2="267.066" y2="297.721" gradientUnits="userSpaceOnUse">
<stop/>
<stop offset="1" stop-opacity="0"/>
</linearGradient>
<linearGradient id="paint28_linear_9522_3164" x1="313.262" y1="326.009" x2="312.488" y2="355.592" gradientUnits="userSpaceOnUse">
<stop/>
<stop offset="1" stop-opacity="0"/>
</linearGradient>
<linearGradient id="paint29_linear_9522_3164" x1="303.815" y1="337.942" x2="304.03" y2="335.203" gradientUnits="userSpaceOnUse">
<stop/>
<stop offset="1" stop-opacity="0"/>
</linearGradient>
<linearGradient id="paint30_linear_9522_3164" x1="301.196" y1="335.747" x2="301.405" y2="333.014" gradientUnits="userSpaceOnUse">
<stop/>
<stop offset="1" stop-opacity="0"/>
</linearGradient>
<linearGradient id="paint31_linear_9522_3164" x1="308.026" y1="337.205" x2="308.241" y2="334.472" gradientUnits="userSpaceOnUse">
<stop/>
<stop offset="1" stop-opacity="0"/>
</linearGradient>
<linearGradient id="paint32_linear_9522_3164" x1="305.406" y1="335.018" x2="305.622" y2="332.273" gradientUnits="userSpaceOnUse">
<stop/>
<stop offset="1" stop-opacity="0"/>
</linearGradient>
<linearGradient id="paint33_linear_9522_3164" x1="312.241" y1="336.477" x2="312.45" y2="333.745" gradientUnits="userSpaceOnUse">
<stop/>
<stop offset="1" stop-opacity="0"/>
</linearGradient>
<linearGradient id="paint34_linear_9522_3164" x1="309.623" y1="334.283" x2="309.839" y2="331.545" gradientUnits="userSpaceOnUse">
<stop/>
<stop offset="1" stop-opacity="0"/>
</linearGradient>
<linearGradient id="paint35_linear_9522_3164" x1="316.451" y1="335.747" x2="316.667" y2="333.014" gradientUnits="userSpaceOnUse">
<stop/>
<stop offset="1" stop-opacity="0"/>
</linearGradient>
<linearGradient id="paint36_linear_9522_3164" x1="313.839" y1="333.549" x2="314.041" y2="330.816" gradientUnits="userSpaceOnUse">
<stop/>
<stop offset="1" stop-opacity="0"/>
</linearGradient>
<linearGradient id="paint37_linear_9522_3164" x1="320.66" y1="335.018" x2="320.876" y2="332.273" gradientUnits="userSpaceOnUse">
<stop/>
<stop offset="1" stop-opacity="0"/>
</linearGradient>
<linearGradient id="paint38_linear_9522_3164" x1="318.049" y1="332.819" x2="318.258" y2="330.086" gradientUnits="userSpaceOnUse">
<stop/>
<stop offset="1" stop-opacity="0"/>
</linearGradient>
</defs>
</svg>
