<svg width="719" height="517" viewBox="0 0 719 517" fill="none" xmlns="http://www.w3.org/2000/svg">
<path d="M0 4C0 1.79086 1.79086 0 4 0H715C717.209 0 719 1.79086 719 4V512.46C719 514.669 717.209 516.46 715 516.46H3.99998C1.79084 516.46 0 514.669 0 512.46V4Z" fill="url(#paint0_linear_9526_3962)"/>
<path opacity="0.24" d="M334.761 392.091C316.571 387.71 299.079 381.294 281.86 374.491C256.347 364.417 229.745 352.2 216.196 330.58C206.439 315.009 204.829 296.49 205.114 278.681C205.317 267.212 206.268 255.553 210.896 244.832C219.487 224.918 241.303 210 265.249 207.641C279.07 206.278 293.234 208.789 306.871 206.386C345.463 199.564 365.757 157.124 404.291 150.087C414.182 148.267 424.44 149.047 434.432 150.347C456.051 153.168 548.438 208.37 502.428 310.755C495.087 327.081 480.232 339.799 464.261 350.019C451.119 358.432 436.258 364.823 424.338 374.573C418.271 379.531 412.755 385.485 405.027 388.071C400.272 389.669 395.086 389.847 390.001 389.999L348.601 391.279" fill="#68E1FD"/>
<path d="M331.395 359.65L336.986 392.289L363.316 391.116L364.16 367.975L368.186 391.509L390.426 390.729L398.484 353.932L331.395 359.65Z" fill="#606161"/>
<path d="M331.395 359.65L336.986 392.289L363.316 391.116L364.16 367.975L368.186 391.509L390.426 390.729L398.484 353.932L331.395 359.65Z" fill="url(#paint1_linear_9526_3962)"/>
<path d="M343.511 192.756C343.378 194.233 343.891 195.704 344.918 196.775C345.153 197.041 345.457 197.251 345.793 197.371C347.537 197.916 347.575 194.372 347.055 193.377C346.44 192.248 343.72 190.473 343.511 192.756Z" fill="#FFB4A3"/>
<path d="M374.558 190.276C374.736 191.753 374.273 193.23 373.277 194.34C373.049 194.619 372.758 194.84 372.428 194.974C370.703 195.576 370.545 192.038 371.039 191.024C371.597 189.851 374.26 188.006 374.558 190.276Z" fill="#FFB4A3"/>
<path d="M351.487 213.57C343.79 217.431 338.021 224.189 332.479 230.777C331.364 232.102 330.863 233.718 330.279 235.348C324.149 252.624 325.245 263.681 323.458 277.705C321.98 289.193 318.608 300.897 321.454 312.138C321.454 312.138 322.817 358.23 325.353 365.495L401.459 362.452C401.459 362.452 394.44 288.021 393.813 278.91C390.668 234.695 381.583 225.09 374.786 219.111C367.99 213.126 351.493 213.57 351.493 213.57H351.487Z" fill="#68E1FD"/>
<path d="M351.487 213.57C343.79 217.431 338.021 224.19 332.479 230.777C331.364 232.102 330.863 233.719 330.279 235.348C324.149 252.625 325.245 263.682 323.458 277.706C321.98 289.194 318.608 300.897 321.454 312.138C321.454 312.138 322.817 358.23 325.353 365.496L401.459 362.453C401.459 362.453 394.282 291.698 394.085 282.562C393.261 243.996 383.32 225.369 374.793 219.111C367.483 213.754 351.487 213.57 351.487 213.57Z" fill="url(#paint2_linear_9526_3962)"/>
<path d="M360.711 310.786C360.983 310.824 361.269 310.774 361.51 310.641C361.788 310.393 361.934 310.032 361.915 309.664C362.099 306.608 360.064 303.933 358.891 301.112C357.902 298.74 357.503 296.154 356.545 293.757C355.588 291.361 353.889 289.046 351.41 288.362C350.364 288.134 349.292 288.051 348.227 288.127L339.586 288.33C338.781 288.159 337.982 288.672 337.811 289.484C337.773 289.668 337.766 289.852 337.798 290.036C337.582 292.267 335.978 297.517 337.418 299.495C338.064 300.401 339.789 300.699 340.752 301.156C342.147 301.834 343.504 302.595 344.81 303.432C349.559 306.386 354.77 310.793 360.704 310.793L360.711 310.786Z" fill="#FFB4A3"/>
<path d="M373.34 289.441C369.251 291.552 367.723 296.498 365.789 300.688C364.667 303.116 363.297 305.418 361.7 307.554C361.211 308.208 360.679 308.943 360.793 309.748C360.996 310.579 361.7 311.194 362.555 311.276C363.386 311.339 364.223 311.206 364.99 310.883C369.016 309.514 372.763 307.44 376.072 304.765C378.234 303.015 380.276 300.961 382.894 300.016C383.915 299.649 385.101 299.395 385.716 298.495C386.033 297.937 386.216 297.315 386.248 296.675C386.47 294.938 386.705 293.169 386.369 291.451C385.804 288.503 384.511 287.679 381.886 287.875C379.09 288.078 375.901 288.129 373.359 289.441H373.34Z" fill="#FFB4A3"/>
<path d="M349.49 218.598C349.49 218.598 358.455 226.834 363.242 221.121C368.022 215.409 367.445 217.546 367.445 217.546L364.953 271.201L349.49 218.598Z" fill="#606161"/>
<path d="M360.832 163.008C359.165 161.036 356.8 159.794 354.232 159.546C351.747 159.324 349.014 160.231 347.695 162.355C346.738 163.889 346.643 165.804 346.637 167.617C346.637 169.31 346.694 171.066 347.486 172.562C348.323 174.021 349.661 175.13 351.246 175.682C354.885 177.045 359.19 175.821 361.96 173.184C364.731 170.553 363.07 165.652 360.838 163.008H360.832Z" fill="#606161"/>
<path d="M360.832 163.008C359.165 161.036 356.8 159.794 354.232 159.546C351.747 159.324 349.014 160.231 347.695 162.355C346.738 163.889 346.643 165.804 346.637 167.617C346.637 169.31 346.694 171.066 347.486 172.562C348.323 174.021 349.661 175.13 351.246 175.682C354.885 177.045 359.19 175.821 361.96 173.184C364.731 170.553 363.07 165.652 360.838 163.008H360.832Z" fill="url(#paint3_linear_9526_3962)"/>
<path d="M352.684 202.506C352.684 202.506 352.767 214.076 350.167 216.555C347.568 219.034 360.945 230.199 366.322 217.418C366.322 217.418 362.987 211.991 363.951 202.728C364.914 193.465 352.678 202.506 352.678 202.506H352.684Z" fill="#FFB4A3"/>
<path d="M352.324 205.251L352.362 207.787C352.362 207.787 359.222 217.335 361.91 214.032C364.605 210.729 363.774 210.044 363.774 210.044L363.977 202.709L352.324 205.251Z" fill="url(#paint4_linear_9526_3962)"/>
<path d="M346.021 186.06C346.021 186.06 344.373 203.755 353.877 207.103C363.38 210.45 368.928 205.34 371.375 196.769C373.829 188.197 369.594 171.06 359.551 172.899C349.508 174.737 346.021 186.06 346.021 186.06Z" fill="#FFB4A3"/>
<path d="M344.601 192.019C344.157 191.417 343.866 190.713 343.758 189.972C342.401 183.245 344.722 176.309 349.851 171.751C350.872 170.819 352.063 170.089 353.363 169.601C354.663 169.215 356.026 169.062 357.383 169.145C361.618 169.272 365.866 170.584 369.207 173.19C372.548 175.795 374.887 179.739 375.166 183.968C375.3 185.223 375.116 186.491 374.627 187.658C374.127 188.83 373.1 189.693 371.857 189.991C369.676 190.403 369.048 188.406 367.267 187.087C364.579 185.109 363.685 182.123 357.655 182.725C347.816 183.714 347.308 195.209 344.608 192.019H344.601Z" fill="#606161"/>
<path d="M342.655 219.775C342.655 219.775 310.137 243.138 309.465 286.25C309.072 311.23 337.203 306.519 338.109 305.898C339.016 305.277 341.412 283.911 341.412 283.911C341.412 283.911 331.363 284.069 330.114 282.262C328.865 280.456 342.655 219.775 342.655 219.775Z" fill="#68E1FD"/>
<path d="M342.655 219.775C342.655 219.775 310.137 243.138 309.465 286.25C309.072 311.23 337.203 306.519 338.109 305.898C339.016 305.277 341.412 283.911 341.412 283.911C341.412 283.911 331.363 284.069 330.114 282.262C328.865 280.456 342.655 219.775 342.655 219.775Z" fill="url(#paint5_linear_9526_3962)"/>
<path d="M377.315 219.775C377.315 219.775 409.839 243.138 410.505 286.25C410.898 311.23 382.767 306.519 381.861 305.898C380.954 305.277 378.558 283.911 378.558 283.911C378.558 283.911 388.606 284.069 389.849 282.262C391.092 280.456 377.309 219.775 377.309 219.775H377.315Z" fill="#68E1FD"/>
<path d="M377.315 219.775C377.315 219.775 409.839 243.138 410.505 286.25C410.898 311.23 382.767 306.519 381.861 305.898C380.954 305.277 378.558 283.911 378.558 283.911C378.558 283.911 388.606 284.069 389.849 282.262C391.092 280.456 377.309 219.775 377.309 219.775H377.315Z" fill="url(#paint6_linear_9526_3962)"/>
<path d="M381.57 227.055C381.349 227.055 381.146 226.91 381.076 226.7C378.977 220.411 370.792 216.804 370.716 216.753C370.456 216.639 370.336 216.341 370.444 216.081C370.444 216.081 370.444 216.081 370.444 216.074C370.558 215.815 370.862 215.688 371.128 215.802C371.483 215.954 379.821 219.644 382.071 226.377C382.16 226.65 382.008 226.941 381.742 227.036C381.691 227.055 381.634 227.062 381.577 227.062L381.57 227.055Z" fill="#68E1FD"/>
<path d="M381.57 227.055C381.349 227.055 381.146 226.91 381.076 226.7C378.977 220.411 370.792 216.804 370.716 216.753C370.456 216.639 370.336 216.341 370.444 216.081C370.444 216.081 370.444 216.081 370.444 216.074C370.558 215.815 370.862 215.688 371.128 215.802C371.483 215.954 379.821 219.644 382.071 226.377C382.16 226.65 382.008 226.941 381.742 227.036C381.691 227.055 381.634 227.062 381.577 227.062L381.57 227.055Z" fill="url(#paint7_linear_9526_3962)"/>
<path d="M349.393 262.552C335.629 242.835 345.849 219.415 345.894 219.358C346.046 219.136 346.021 218.831 345.824 218.641C345.672 218.464 345.406 218.445 345.228 218.597C345.209 218.609 345.196 218.628 345.184 218.641C344.974 218.907 334.272 242.854 348.487 262.603C348.652 262.818 349.514 262.729 349.387 262.552H349.393Z" fill="#68E1FD"/>
<path d="M351.753 213.987C351.753 213.987 348.348 216.986 351.918 224.239C355.487 231.492 365.282 272.556 365.282 272.556L346.529 242.72L348.38 231.314L344.474 228.334C344.474 228.334 344.303 217.575 346.294 215.306C348.285 213.036 350.466 213.163 351.759 213.987H351.753Z" fill="#68E1FD"/>
<path d="M364.471 212.416C364.471 212.416 369.974 213.697 370.925 216.271C371.876 218.845 375.794 226.396 375.794 226.396L373.41 229.782L377.29 234.137L365.263 272.551C365.263 272.551 367.685 220.716 366.309 217.406C364.934 214.097 364.471 212.41 364.471 212.41V212.416Z" fill="#68E1FD"/>
<path d="M351.753 213.987C351.753 213.987 348.348 216.986 351.918 224.239C355.487 231.492 365.282 272.556 365.282 272.556L346.529 242.72L348.38 231.314L344.474 228.334C344.474 228.334 344.303 217.575 346.294 215.306C348.285 213.036 350.466 213.163 351.759 213.987H351.753Z" fill="url(#paint8_linear_9526_3962)"/>
<path d="M365.378 270.193C365.835 259.998 367.54 220.297 366.317 217.412C364.953 214.09 364.459 212.41 364.459 212.41C364.472 212.429 364.491 212.436 364.516 212.442C365.125 212.581 370.025 213.849 370.913 216.259C371.883 218.839 375.82 226.371 375.82 226.371L373.436 229.782L377.285 234.131L365.258 272.558C365.258 272.558 365.283 271.715 365.372 270.187L365.378 270.193Z" fill="url(#paint9_linear_9526_3962)"/>
<path d="M372.822 191.569C372.936 191.462 373.031 191.328 373.094 191.183C373.132 191.018 373.151 190.847 373.151 190.675C373.17 190.498 373.246 190.339 373.379 190.219C373.5 190.105 373.677 190.067 373.836 190.124C373.975 190.187 374.083 190.308 374.128 190.454C374.178 190.599 374.197 190.752 374.197 190.91C374.267 191.487 374.191 192.077 373.969 192.622C373.76 192.996 373.487 193.332 373.17 193.611C373.056 193.75 372.898 193.845 372.714 193.864C372.6 193.858 372.485 193.814 372.39 193.75C372.346 193.731 372.308 193.7 372.283 193.662C372.264 193.624 372.251 193.579 372.245 193.535C372.168 193.135 372.168 192.723 372.245 192.324C372.352 192.02 372.555 191.753 372.815 191.563L372.822 191.569Z" fill="url(#paint10_linear_9526_3962)"/>
<path d="M345.495 193.903C345.375 193.802 345.28 193.675 345.216 193.529C345.172 193.364 345.147 193.193 345.14 193.022C345.121 192.844 345.032 192.686 344.899 192.565C344.766 192.458 344.582 192.426 344.424 192.483C344.284 192.553 344.183 192.673 344.145 192.819C344.107 192.965 344.088 193.123 344.088 193.276C344.031 193.859 344.132 194.442 344.367 194.981C344.589 195.349 344.874 195.672 345.204 195.945C345.318 196.078 345.483 196.167 345.66 196.186C345.774 196.173 345.882 196.129 345.977 196.065C346.022 196.046 346.06 196.014 346.085 195.976C346.104 195.932 346.117 195.888 346.117 195.843C346.174 195.444 346.155 195.032 346.06 194.639C345.945 194.347 345.755 194.087 345.502 193.903H345.495Z" fill="url(#paint11_linear_9526_3962)"/>
<path d="M365.378 270.193C365.835 259.998 367.54 220.297 366.317 217.412C364.953 214.09 364.459 212.41 364.459 212.41C364.472 212.429 364.491 212.436 364.516 212.442C364.903 212.803 367.451 215.13 368.092 216.759C368.732 218.389 369.645 258.439 365.378 270.193Z" fill="url(#paint12_linear_9526_3962)"/>
<path d="M336.461 270.952C336.461 270.952 340.518 259.287 351.258 260.814C361.998 262.342 363.862 269.38 363.862 269.38C363.862 269.38 366.734 256.313 381.456 261.753C396.177 267.193 384.784 284.761 383.072 285.927C381.361 287.094 362.322 305.435 362.322 305.435C362.322 305.435 338.439 284.754 337.088 282.611C335.738 280.468 334.35 276.462 336.467 270.946L336.461 270.952Z" fill="#68E1FD"/>
<path d="M340.392 271.497C340.392 271.497 343.93 259.927 353.098 261.36C362.265 262.799 363.812 269.767 363.812 269.767C363.812 269.767 368.707 256.985 381.457 261.753C396.406 267.338 384.544 284.761 383.073 285.927C381.602 287.094 362.278 305.48 362.278 305.48C362.278 305.48 342.003 285.147 340.855 283.036C339.708 280.925 338.554 276.969 340.399 271.491L340.392 271.497Z" fill="url(#paint13_linear_9526_3962)"/>
<path d="M338.883 270.724C340.1 267.23 343.054 264.035 346.744 263.819C346.985 263.788 347.233 263.826 347.454 263.927C347.74 264.136 347.917 264.453 347.962 264.802C348.475 267.224 347.214 269.621 346.782 272.055C345.946 276.772 348.222 281.407 350.117 285.8C350.428 286.517 350.707 287.423 350.206 288.026C349.832 288.381 349.325 288.571 348.811 288.558C340.157 289.16 336.518 277.514 338.889 270.717L338.883 270.724Z" fill="url(#paint14_linear_9526_3962)"/>
<path d="M361.738 293.763L356.99 278.3L354.149 284.259L339.136 284.729L336.695 282.193L352.336 281.622L357.548 270.686L361.903 284.862L365.663 274.065L368.478 280.094L371.984 271.275L375.312 281.787L385.843 281.8L384.283 284.532L373.296 284.615L371.686 279.53L368.687 287.087L366.037 281.419L361.738 293.763Z" fill="white"/>
<path d="M383.415 257.335C383.003 257.335 382.591 257.246 382.217 257.068C381.183 256.574 380.517 255.458 380.22 253.752C379.668 250.57 377.804 228.469 380.575 226.11C380.987 225.73 381.57 225.603 382.109 225.774C384.429 226.497 386.452 233.566 387.016 235.709L391.264 252.503C391.334 253.721 390.915 255.788 389.038 256.003L388.855 254.456C389.761 254.348 389.73 252.744 389.73 252.725L385.507 236.096C384.315 231.55 382.464 227.353 381.627 227.258C379.909 228.728 380.847 248.173 381.76 253.486C381.963 254.646 382.35 255.401 382.895 255.661C383.345 255.813 383.833 255.781 384.258 255.572L385.006 256.935C384.512 257.189 383.973 257.322 383.421 257.328L383.415 257.335Z" fill="#68E1FD"/>
<path d="M383.415 257.335C383.003 257.335 382.591 257.246 382.217 257.068C381.183 256.574 380.517 255.458 380.22 253.752C379.668 250.57 377.804 228.469 380.575 226.11C380.987 225.73 381.57 225.603 382.109 225.774C384.429 226.497 386.452 233.566 387.016 235.709L391.264 252.503C391.334 253.721 390.915 255.788 389.038 256.003L388.855 254.456C389.761 254.348 389.73 252.744 389.73 252.725L385.507 236.096C384.315 231.55 382.464 227.353 381.627 227.258C379.909 228.728 380.847 248.173 381.76 253.486C381.963 254.646 382.35 255.401 382.895 255.661C383.345 255.813 383.833 255.781 384.258 255.572L385.006 256.935C384.512 257.189 383.973 257.322 383.421 257.328L383.415 257.335Z" fill="url(#paint15_linear_9526_3962)"/>
<path d="M304.018 262.68V295.958H279.876V320.811H246.61V295.958H222.492V262.68H246.61V239.285H279.876V262.68H304.018Z" fill="#68E1FD"/>
<defs>
<linearGradient id="paint0_linear_9526_3962" x1="719" y1="258.23" x2="0" y2="258.23" gradientUnits="userSpaceOnUse">
<stop stop-color="#81E4F6"/>
<stop offset="1" stop-color="#059794"/>
</linearGradient>
<linearGradient id="paint1_linear_9526_3962" x1="331.395" y1="373.11" x2="398.484" y2="373.11" gradientUnits="userSpaceOnUse">
<stop offset="0.12" stop-color="#010101" stop-opacity="0"/>
<stop offset="0.95" stop-color="#010101"/>
</linearGradient>
<linearGradient id="paint2_linear_9526_3962" x1="364.205" y1="397.861" x2="354.847" y2="214.54" gradientUnits="userSpaceOnUse">
<stop stop-color="white" stop-opacity="0"/>
<stop offset="0.95" stop-color="white"/>
</linearGradient>
<linearGradient id="paint3_linear_9526_3962" x1="352.75" y1="163.484" x2="356.642" y2="173.32" gradientUnits="userSpaceOnUse">
<stop stop-color="#010101" stop-opacity="0"/>
<stop offset="0.95" stop-color="#010101"/>
</linearGradient>
<linearGradient id="paint4_linear_9526_3962" x1="356.436" y1="216.903" x2="363.445" y2="179.171" gradientUnits="userSpaceOnUse">
<stop offset="0.12" stop-color="#010101" stop-opacity="0"/>
<stop offset="0.95" stop-color="#010101"/>
</linearGradient>
<linearGradient id="paint5_linear_9526_3962" x1="291.498" y1="258.717" x2="338.484" y2="263.447" gradientUnits="userSpaceOnUse">
<stop offset="0.52" stop-color="white" stop-opacity="0.52"/>
<stop offset="0.95" stop-color="white"/>
</linearGradient>
<linearGradient id="paint6_linear_9526_3962" x1="428.403" y1="261.017" x2="385.76" y2="263.097" gradientUnits="userSpaceOnUse">
<stop offset="0.52" stop-color="white" stop-opacity="0.52"/>
<stop offset="0.95" stop-color="white"/>
</linearGradient>
<linearGradient id="paint7_linear_9526_3962" x1="377.5" y1="220.57" x2="370.133" y2="225.502" gradientUnits="userSpaceOnUse">
<stop offset="0.12" stop-color="#010101" stop-opacity="0"/>
<stop offset="0.95" stop-color="#010101"/>
</linearGradient>
<linearGradient id="paint8_linear_9526_3962" x1="341.762" y1="248.443" x2="355.091" y2="243.758" gradientUnits="userSpaceOnUse">
<stop stop-color="white" stop-opacity="0"/>
<stop offset="0.95" stop-color="white"/>
</linearGradient>
<linearGradient id="paint9_linear_9526_3962" x1="383.251" y1="241.612" x2="362.779" y2="242.589" gradientUnits="userSpaceOnUse">
<stop stop-color="white" stop-opacity="0"/>
<stop offset="0.11" stop-color="white" stop-opacity="0.18"/>
<stop offset="0.29" stop-color="white" stop-opacity="0.42"/>
<stop offset="0.45" stop-color="white" stop-opacity="0.63"/>
<stop offset="0.6" stop-color="white" stop-opacity="0.79"/>
<stop offset="0.74" stop-color="white" stop-opacity="0.9"/>
<stop offset="0.86" stop-color="white" stop-opacity="0.98"/>
<stop offset="0.95" stop-color="white"/>
</linearGradient>
<linearGradient id="paint10_linear_9526_3962" x1="374.46" y1="192.221" x2="366.7" y2="190.741" gradientUnits="userSpaceOnUse">
<stop offset="0.12" stop-color="#010101" stop-opacity="0"/>
<stop offset="0.95" stop-color="#010101"/>
</linearGradient>
<linearGradient id="paint11_linear_9526_3962" x1="344.212" y1="194.915" x2="351.919" y2="193.15" gradientUnits="userSpaceOnUse">
<stop offset="0.12" stop-color="#010101" stop-opacity="0"/>
<stop offset="0.95" stop-color="#010101"/>
</linearGradient>
<linearGradient id="paint12_linear_9526_3962" x1="348.476" y1="246.786" x2="366.539" y2="240.763" gradientUnits="userSpaceOnUse">
<stop stop-color="white" stop-opacity="0"/>
<stop offset="0.95" stop-color="white"/>
</linearGradient>
<linearGradient id="paint13_linear_9526_3962" x1="351.874" y1="257.099" x2="417.404" y2="350.703" gradientUnits="userSpaceOnUse">
<stop offset="0.12" stop-color="#010101" stop-opacity="0"/>
<stop offset="0.95" stop-color="#010101"/>
</linearGradient>
<linearGradient id="paint14_linear_9526_3962" x1="333.919" y1="274.534" x2="369.993" y2="279.023" gradientUnits="userSpaceOnUse">
<stop stop-color="white" stop-opacity="0"/>
<stop offset="0.95" stop-color="white"/>
</linearGradient>
<linearGradient id="paint15_linear_9526_3962" x1="367.159" y1="239.31" x2="428.074" y2="248.097" gradientUnits="userSpaceOnUse">
<stop offset="0.12" stop-color="#010101" stop-opacity="0"/>
<stop offset="0.95" stop-color="#010101"/>
</linearGradient>
</defs>
</svg>
