<svg width="133" height="133" viewBox="0 0 133 133" fill="none" xmlns="http://www.w3.org/2000/svg">
<path d="M75.0189 21.9551H10.3809V27.8496H75.0189V21.9551Z" fill="#FF6600"/>
<path d="M73.1555 32.3874H53.0725C52.998 32.3874 52.9395 32.3288 52.9395 32.2544V29.9934C52.9395 29.9189 52.998 29.8604 53.0725 29.8604H73.1555C73.2299 29.8604 73.2885 29.9189 73.2885 29.9934V32.2544C73.2885 32.3288 73.2299 32.3874 73.1555 32.3874ZM53.2055 32.1214H73.0225V30.1264H53.2055V32.1214Z" fill="#FF6600"/>
<path d="M55.8671 36.3776H35.2521C35.1777 36.3776 35.1191 36.3191 35.1191 36.2446V33.9836C35.1191 33.9091 35.1777 33.8506 35.2521 33.8506H55.8671C55.9416 33.8506 56.0001 33.9091 56.0001 33.9836V36.2446C56.0001 36.3191 55.9416 36.3776 55.8671 36.3776ZM35.3851 36.1116H55.7341V34.1166H35.3851V36.1116Z" fill="#FF6600"/>
<path d="M20.0894 40.8991H12.2424C12.1679 40.8991 12.1094 40.8406 12.1094 40.7661V38.5051C12.1094 38.4306 12.1679 38.3721 12.2424 38.3721H20.0894C20.1639 38.3721 20.2224 38.4306 20.2224 38.5051V40.7661C20.2224 40.8406 20.1639 40.8991 20.0894 40.8991ZM12.3754 40.6331H19.9564V38.6381H12.3754V40.6331Z" fill="#FF6600"/>
<path d="M73.1559 40.8991H44.4279C44.3534 40.8991 44.2949 40.8406 44.2949 40.7661V38.5051C44.2949 38.4306 44.3534 38.3721 44.4279 38.3721H73.1559C73.2304 38.3721 73.2889 38.4306 73.2889 38.5051V40.7661C73.2889 40.8406 73.2304 40.8991 73.1559 40.8991ZM44.5609 40.6331H73.0229V38.6381H44.5609V40.6331Z" fill="#FF6600"/>
<path d="M29.2664 45.1549H12.2424C12.1679 45.1549 12.1094 45.0964 12.1094 45.0219V42.7609C12.1094 42.6864 12.1679 42.6279 12.2424 42.6279H29.2664C29.3409 42.6279 29.3994 42.6864 29.3994 42.7609V45.0219C29.3994 45.0964 29.3409 45.1549 29.2664 45.1549ZM12.3754 44.8889H29.1334V42.8939H12.3754V44.8889Z" fill="#FF6600"/>
<path d="M22.0844 49.4118H12.2424C12.1679 49.4118 12.1094 49.3532 12.1094 49.2788V47.0178C12.1094 46.9433 12.1679 46.8848 12.2424 46.8848H22.0844C22.1589 46.8848 22.2174 46.9433 22.2174 47.0178V49.2788C22.2174 49.3532 22.1589 49.4118 22.0844 49.4118ZM12.3754 49.1458H21.9514V47.1508H12.3754V49.1458Z" fill="#FF6600"/>
<path d="M73.1571 49.4118H50.5471C50.4726 49.4118 50.4141 49.3532 50.4141 49.2788V47.0178C50.4141 46.9433 50.4726 46.8848 50.5471 46.8848H73.1571C73.2315 46.8848 73.2901 46.9433 73.2901 47.0178V49.2788C73.2901 49.3532 73.2315 49.4118 73.1571 49.4118ZM50.6801 49.1458H73.0241V47.1508H50.6801V49.1458Z" fill="#FF6600"/>
<path d="M59.3241 53.8004H40.1721C40.0976 53.8004 40.0391 53.7419 40.0391 53.6674V51.4064C40.0391 51.332 40.0976 51.2734 40.1721 51.2734H59.3241C59.3985 51.2734 59.4571 51.332 59.4571 51.4064V53.6674C59.4571 53.7419 59.3985 53.8004 59.3241 53.8004ZM40.3051 53.5344H59.1911V51.5394H40.3051V53.5344Z" fill="#FF6600"/>
<path d="M47.488 58.4206H27.006C26.9316 58.4206 26.873 58.362 26.873 58.2876V56.0266C26.873 55.9521 26.9316 55.8936 27.006 55.8936H47.488C47.5625 55.8936 47.621 55.9521 47.621 56.0266V58.2876C47.621 58.362 47.5625 58.4206 47.488 58.4206ZM27.139 58.1546H47.355V56.1596H27.139V58.1546Z" fill="#FF6600"/>
<path d="M30.8624 62.8102H12.2424C12.1679 62.8102 12.1094 62.7517 12.1094 62.6772V60.4162C12.1094 60.3417 12.1679 60.2832 12.2424 60.2832H30.8624C30.9369 60.2832 30.9954 60.3417 30.9954 60.4162V62.6772C30.9954 62.7517 30.9369 62.8102 30.8624 62.8102ZM12.3754 62.5442H30.7294V60.5492H12.3754V62.5442Z" fill="#FF6600"/>
<path d="M21.5524 67.1325H12.2424C12.1679 67.1325 12.1094 67.0739 12.1094 66.9995V64.7385C12.1094 64.664 12.1679 64.6055 12.2424 64.6055H21.5524C21.6269 64.6055 21.6854 64.664 21.6854 64.7385V66.9995C21.6854 67.0739 21.6269 67.1325 21.5524 67.1325ZM12.3754 66.8665H21.4194V64.8715H12.3754V66.8665Z" fill="#FF6600"/>
<path d="M26.6064 32.3874H12.2424C12.1679 32.3874 12.1094 32.3288 12.1094 32.2544V29.9934C12.1094 29.9189 12.1679 29.8604 12.2424 29.8604H26.6064C26.6809 29.8604 26.7394 29.9189 26.7394 29.9934V32.2544C26.7394 32.3288 26.6809 32.3874 26.6064 32.3874ZM12.3754 32.1214H26.4734V30.1264H12.3754V32.1214Z" fill="#FF6600"/>
<path d="M73.1555 62.8102H54.4025C54.3281 62.8102 54.2695 62.7517 54.2695 62.6772V60.4162C54.2695 60.3417 54.3281 60.2832 54.4025 60.2832H73.1555C73.23 60.2832 73.2885 60.3417 73.2885 60.4162V62.6772C73.2885 62.7517 73.23 62.8102 73.1555 62.8102ZM54.5355 62.5442H73.0225V60.5492H54.5355V62.5442Z" fill="#FF6600"/>
<path d="M41.6353 67.1325H23.4143C23.3398 67.1325 23.2812 67.0739 23.2812 66.9995V64.7385C23.2812 64.664 23.3398 64.6055 23.4143 64.6055H41.6353C41.7097 64.6055 41.7682 64.664 41.7682 64.7385V66.9995C41.7682 67.0739 41.7097 67.1325 41.6353 67.1325ZM23.5473 66.8665H41.5023V64.8715H23.5473V66.8665Z" fill="#FF6600"/>
<path d="M75.0191 69.8353H10.381C10.3066 69.8353 10.248 69.7767 10.248 69.7023V21.9553C10.248 21.8808 10.3066 21.8223 10.381 21.8223H75.0191C75.0935 21.8223 75.152 21.8808 75.152 21.9553V69.7023C75.152 69.7767 75.0935 69.8353 75.0191 69.8353ZM10.514 69.5693H74.886V22.0883H10.514V69.5693Z" fill="#00396D"/>
<path d="M13.7487 27.0735C12.5517 27.0735 11.5781 26.1 11.5781 24.903C11.5781 23.706 12.5517 22.7324 13.7487 22.7324C14.9457 22.7324 15.9192 23.706 15.9192 24.903C15.9192 26.1 14.9457 27.0735 13.7487 27.0735ZM13.7487 22.9984C12.698 22.9984 11.8441 23.8523 11.8441 24.903C11.8441 25.9537 12.698 26.8075 13.7487 26.8075C14.7994 26.8075 15.6532 25.9537 15.6532 24.903C15.6532 23.8523 14.7994 22.9984 13.7487 22.9984Z" fill="#00396D"/>
<path d="M19.2018 27.0735C18.0048 27.0735 17.0312 26.1 17.0312 24.903C17.0312 23.706 18.0048 22.7324 19.2018 22.7324C20.3988 22.7324 21.3724 23.706 21.3724 24.903C21.3724 26.1 20.3988 27.0735 19.2018 27.0735ZM19.2018 22.9984C18.1511 22.9984 17.2973 23.8523 17.2973 24.903C17.2973 25.9537 18.1511 26.8075 19.2018 26.8075C20.2525 26.8075 21.1064 25.9537 21.1064 24.903C21.1064 23.8523 20.2525 22.9984 19.2018 22.9984Z" fill="#00396D"/>
<path d="M24.6549 27.0735C23.4579 27.0735 22.4844 26.1 22.4844 24.903C22.4844 23.706 23.4579 22.7324 24.6549 22.7324C25.8519 22.7324 26.8255 23.706 26.8255 24.903C26.8255 26.1 25.8519 27.0735 24.6549 27.0735ZM24.6549 22.9984C23.6042 22.9984 22.7504 23.8523 22.7504 24.903C22.7504 25.9537 23.6042 26.8075 24.6549 26.8075C25.7056 26.8075 26.5595 25.9537 26.5595 24.903C26.5595 23.8523 25.7056 22.9984 24.6549 22.9984Z" fill="#00396D"/>
<path d="M51.7447 32.3874H27.9377C27.8632 32.3874 27.8047 32.3288 27.8047 32.2544V29.9934C27.8047 29.9189 27.8632 29.8604 27.9377 29.8604H51.7447C51.8192 29.8604 51.8777 29.9189 51.8777 29.9934V32.2544C51.8777 32.3288 51.8192 32.3874 51.7447 32.3874ZM28.0707 32.1214H51.6117V30.1264H28.0707V32.1214Z" fill="#00396D"/>
<path d="M33.9214 36.3776H12.2424C12.1679 36.3776 12.1094 36.3191 12.1094 36.2446V33.9836C12.1094 33.9091 12.1679 33.8506 12.2424 33.8506H33.9214C33.9959 33.8506 34.0544 33.9091 34.0544 33.9836V36.2446C34.0544 36.3191 33.9959 36.3776 33.9214 36.3776ZM12.3754 36.1116H33.7884V34.1166H12.3754V36.1116Z" fill="#00396D"/>
<path d="M73.1573 36.3776H57.3303C57.2558 36.3776 57.1973 36.3191 57.1973 36.2446V33.9836C57.1973 33.9091 57.2558 33.8506 57.3303 33.8506H73.1573C73.2317 33.8506 73.2903 33.9091 73.2903 33.9836V36.2446C73.2903 36.3191 73.2317 36.3776 73.1573 36.3776ZM57.4633 36.1116H73.0243V34.1166H57.4633V36.1116Z" fill="#00396D"/>
<path d="M43.0987 40.9H21.6857C21.6113 40.9 21.5527 40.8415 21.5527 40.767V38.506C21.5527 38.4316 21.6113 38.373 21.6857 38.373H43.0987C43.1732 38.373 43.2317 38.4316 43.2317 38.506V40.767C43.2317 40.8415 43.1732 40.9 43.0987 40.9ZM21.8187 40.634H42.9657V38.639H21.8187V40.634Z" fill="#00396D"/>
<path d="M63.116 45.1559H30.8635C30.789 45.1559 30.7305 45.0974 30.7305 45.0229V42.7619C30.7305 42.6874 30.789 42.6289 30.8635 42.6289H63.116C63.1904 42.6289 63.249 42.6874 63.249 42.7619V45.0229C63.249 45.0974 63.1904 45.1559 63.116 45.1559ZM30.9965 44.8899H62.983V42.8949H30.9965V44.8899Z" fill="#00396D"/>
<path d="M73.1567 45.1559H64.6447C64.5702 45.1559 64.5117 45.0974 64.5117 45.0229V42.7619C64.5117 42.6874 64.5702 42.6289 64.6447 42.6289H73.1567C73.2312 42.6289 73.2897 42.6874 73.2897 42.7619V45.0229C73.2897 45.0974 73.2312 45.1559 73.1567 45.1559ZM64.7777 44.8899H73.0237V42.8949H64.7777V44.8899Z" fill="#00396D"/>
<path d="M49.0848 49.4118H23.6818C23.6073 49.4118 23.5488 49.3532 23.5488 49.2788V47.0178C23.5488 46.9433 23.6073 46.8848 23.6818 46.8848H49.0848C49.1593 46.8848 49.2178 46.9433 49.2178 47.0178V49.2788C49.2178 49.3532 49.1593 49.4118 49.0848 49.4118ZM23.8148 49.1458H48.9518V47.1508H23.8148V49.1458Z" fill="#00396D"/>
<path d="M38.4434 53.8004H12.2424C12.1679 53.8004 12.1094 53.7419 12.1094 53.6674V51.4064C12.1094 51.332 12.1679 51.2734 12.2424 51.2734H38.4434C38.5179 51.2734 38.5764 51.332 38.5764 51.4064V53.6674C38.5764 53.7419 38.5179 53.8004 38.4434 53.8004ZM12.3754 53.5344H38.3104V51.5394H12.3754V53.5344Z" fill="#00396D"/>
<path d="M73.1561 53.8004H60.9201C60.8456 53.8004 60.7871 53.7419 60.7871 53.6674V51.4064C60.7871 51.332 60.8456 51.2734 60.9201 51.2734H73.1561C73.2306 51.2734 73.2891 51.332 73.2891 51.4064V53.6674C73.2891 53.7419 73.2306 53.8004 73.1561 53.8004ZM61.0531 53.5344H73.0231V51.5394H61.0531V53.5344Z" fill="#00396D"/>
<path d="M25.3429 58.4215H12.2424C12.1679 58.4215 12.1094 58.363 12.1094 58.2885V56.0275C12.1094 55.9531 12.1679 55.8945 12.2424 55.8945H25.3429C25.4174 55.8945 25.4759 55.9531 25.4759 56.0275V58.2885C25.4759 58.363 25.4174 58.4215 25.3429 58.4215ZM12.3754 58.1555H25.2099V56.1605H12.3754V58.1555Z" fill="#00396D"/>
<path d="M73.1572 58.4215H49.0842C49.0097 58.4215 48.9512 58.363 48.9512 58.2885V56.0275C48.9512 55.9531 49.0097 55.8945 49.0842 55.8945H73.1572C73.2316 55.8945 73.2902 55.9531 73.2902 56.0275V58.2885C73.2902 58.363 73.2316 58.4215 73.1572 58.4215ZM49.2172 58.1555H73.0242V56.1605H49.2172V58.1555Z" fill="#00396D"/>
<path d="M53.0743 62.8102H32.3928C32.3183 62.8102 32.2598 62.7517 32.2598 62.6772V60.4162C32.2598 60.3417 32.3183 60.2832 32.3928 60.2832H53.0743C53.1487 60.2832 53.2073 60.3417 53.2073 60.4162V62.6772C53.2073 62.7517 53.1487 62.8102 53.0743 62.8102ZM32.5258 62.5442H52.9413V60.5492H32.5258V62.5442Z" fill="#00396D"/>
<path d="M73.1578 67.1325H43.0998C43.0253 67.1325 42.9668 67.0739 42.9668 66.9995V64.7385C42.9668 64.664 43.0253 64.6055 43.0998 64.6055H73.1578C73.2323 64.6055 73.2908 64.664 73.2908 64.7385V66.9995C73.2908 67.0739 73.2323 67.1325 73.1578 67.1325ZM43.2328 66.8665H73.0248V64.8715H43.2328V66.8665Z" fill="#00396D"/>
<path d="M111.177 22.2217H89.6309V36.9847H111.177V22.2217Z" fill="#00396D"/>
<path d="M122.618 46.96H89.6309V61.723H122.618V46.96Z" fill="#00396D"/>
<path d="M96.5873 33.4516C96.5208 33.4516 96.4569 33.4277 96.4037 33.3798L92.6664 29.8447C92.6132 29.7941 92.584 29.7276 92.584 29.6558C92.584 29.584 92.6106 29.5148 92.6611 29.4643L96.292 25.8307C96.3958 25.727 96.5633 25.727 96.6671 25.8307C96.7708 25.9345 96.7708 26.1021 96.6671 26.2058L93.2304 29.6425L96.7682 32.9888C96.8746 33.0899 96.8799 33.2575 96.7788 33.3639C96.7283 33.4224 96.6591 33.4516 96.5873 33.4516Z" fill="#FF6600"/>
<path d="M104.22 33.4519C104.151 33.4519 104.079 33.4253 104.026 33.3694C103.925 33.263 103.93 33.0955 104.036 32.9944L107.574 29.6481L104.137 26.2087C104.034 26.105 104.034 25.9374 104.137 25.8337C104.241 25.7299 104.409 25.7299 104.513 25.8337L108.143 29.4646C108.194 29.5151 108.223 29.5843 108.221 29.6561C108.221 29.7279 108.189 29.7971 108.138 29.8449L104.401 33.3801C104.35 33.428 104.286 33.4519 104.22 33.4519Z" fill="#FF6600"/>
<path d="M98.6697 33.6302C98.6298 33.6302 98.5899 33.6223 98.55 33.601C98.4197 33.5345 98.3665 33.3749 98.433 33.2445L102.258 25.6369C102.325 25.5066 102.484 25.4534 102.615 25.5199C102.745 25.5864 102.798 25.746 102.732 25.8763L98.9065 33.4839C98.8613 33.577 98.7682 33.6302 98.6697 33.6302Z" fill="#FF6600"/>
<path d="M120.194 52.745H97.7172C97.5709 52.745 97.4512 52.6253 97.4512 52.479V50.351C97.4512 50.2047 97.5709 50.085 97.7172 50.085H120.194C120.34 50.085 120.46 50.2047 120.46 50.351V52.479C120.46 52.6253 120.34 52.745 120.194 52.745ZM97.9832 52.213H119.928V50.617H97.9832V52.213Z" fill="#FF6600"/>
<path d="M120.194 58.5965H97.7172C97.5709 58.5965 97.4512 58.4768 97.4512 58.3305V56.2025C97.4512 56.0562 97.5709 55.9365 97.7172 55.9365H120.194C120.34 55.9365 120.46 56.0562 120.46 56.2025V58.3305C120.46 58.4768 120.34 58.5965 120.194 58.5965ZM97.9832 58.0645H119.928V56.4685H97.9832V58.0645Z" fill="#FF6600"/>
<path d="M93.6605 53.3572C92.5886 53.3572 91.7188 52.4874 91.7188 51.4154C91.7188 50.3434 92.5912 49.4736 93.6605 49.4736C94.7299 49.4736 95.6024 50.3434 95.6024 51.4154C95.6024 52.4874 94.7325 53.3572 93.6605 53.3572ZM93.6605 50.0056C92.8838 50.0056 92.2508 50.6387 92.2508 51.4154C92.2508 52.1921 92.8838 52.8252 93.6605 52.8252C94.4373 52.8252 95.0704 52.1921 95.0704 51.4154C95.0704 50.6387 94.4373 50.0056 93.6605 50.0056Z" fill="#FF6600"/>
<path d="M93.6605 59.2088C92.5886 59.2088 91.7188 58.339 91.7188 57.267C91.7188 56.195 92.5912 55.3252 93.6605 55.3252C94.7299 55.3252 95.6024 56.195 95.6024 57.267C95.6024 58.339 94.7325 59.2088 93.6605 59.2088ZM93.6605 55.8572C92.8838 55.8572 92.2508 56.4903 92.2508 57.267C92.2508 58.0437 92.8838 58.6768 93.6605 58.6768C94.4373 58.6768 95.0704 58.0437 95.0704 57.267C95.0704 56.4903 94.4373 55.8572 93.6605 55.8572Z" fill="#FF6600"/>
<path d="M80.9276 81.9258C78.2756 79.7499 73.9478 80.7501 71.3676 78.4917C71.0723 78.2337 70.8037 77.9305 70.6414 77.5714C70.4126 77.0713 70.4047 76.5047 70.3036 75.9674C70.2025 75.4274 69.9658 74.8582 69.4737 74.6188C69.2316 74.5017 68.9523 74.4778 68.6836 74.4618C66.9041 74.3554 65.1139 74.4352 63.3503 74.7012C63.236 74.7172 63.1189 74.7385 63.0232 74.8023C62.8902 74.8927 62.829 75.055 62.7811 75.2066C62.4832 76.1509 62.3927 77.1937 61.8049 77.989C61.4351 78.4917 60.8978 78.8455 60.3339 79.1115C57.6712 80.3777 54.3063 79.9095 51.9017 81.6545C51.532 81.1065 51.7474 80.3138 52.2289 79.8643C52.713 79.4147 53.3886 79.2392 54.0457 79.1541C54.7 79.069 55.373 79.0583 56.0034 78.8615C56.2561 78.7843 56.5195 78.6593 56.6418 78.4252C56.7642 78.1911 56.7163 77.9065 56.7722 77.6459C56.8865 77.1138 57.3973 76.7814 57.8681 76.5074C58.8496 75.9328 59.8764 75.313 60.4323 74.3182C60.8712 73.5282 60.9563 72.5972 61.1319 71.7087C61.3553 70.5702 61.7384 69.4291 61.5947 68.2773C61.5442 67.8677 61.4245 67.4687 61.3048 67.075C60.9218 65.8355 60.4988 64.6065 60.028 63.3803C59.8524 61.505 60.2089 59.5552 61.2064 57.9565C62.2012 56.3579 63.8664 55.1476 65.7284 54.8709C66.0529 54.8231 66.3881 54.8018 66.7126 54.8523C67.1621 54.9215 67.5877 55.1183 68.0399 55.1635C68.5932 55.2194 69.1678 55.0412 69.7024 55.1955C70.2477 55.3524 70.6414 55.8179 70.9899 56.2674C71.3011 56.6664 71.6096 57.0841 71.857 57.7145C72.7295 59.7334 72.9662 62.0237 72.4475 64.2687C71.5751 66.0004 71.2106 67.9847 71.474 69.9585C71.4155 71.2087 71.5564 72.4855 72.0512 73.6346C72.546 74.7837 73.4211 75.7971 74.5622 76.3052C75.1182 76.5526 75.7938 76.7361 76.0492 77.2867C76.1822 77.574 76.1715 77.9092 76.2859 78.2018C76.4695 78.6646 76.9456 78.9546 77.4271 79.0743C77.9085 79.194 78.4139 79.1833 78.9113 79.2286C79.579 79.2924 80.2653 79.4812 80.7388 79.9547C81.2122 80.4335 81.3905 81.2448 80.9276 81.9258Z" fill="#FF6600"/>
<path d="M48.8242 86.4241C48.8561 85.8016 49.1753 85.2377 49.5078 84.711C50.4468 83.2294 51.5959 81.8116 53.1547 81.0003C55.1018 79.9869 57.4187 80.0534 59.5387 79.4815C59.9563 79.3697 60.3713 79.2288 60.7437 79.0053C61.813 78.3616 62.361 77.122 62.7201 75.9277C62.877 75.409 63.0738 74.8105 63.5819 74.627C63.5819 74.9222 63.5819 75.2148 63.6511 75.5074C64.473 75.5925 65.2604 75.8984 66.0823 75.9942C66.8963 76.09 67.7235 75.9782 68.5082 75.7442C68.6891 75.691 68.8726 75.6271 69.0243 75.5154C69.1759 75.4037 69.2956 75.2308 69.3009 75.0419C69.3036 74.9036 69.269 74.7227 69.394 74.6615C69.4552 74.6323 69.527 74.6509 69.5908 74.6775C69.8728 74.7999 70.0723 75.0632 70.184 75.3478C70.2957 75.6324 70.3303 75.9437 70.3649 76.2469C70.4021 76.5847 70.4394 76.9225 70.5112 77.3588C70.7958 77.795 71.0858 78.2366 71.4661 78.5904C71.9183 79.0106 72.4823 79.2953 73.0648 79.5001C73.6473 79.7049 74.2538 79.8326 74.9401 80.1119C75.6423 80.2263 76.3446 80.3406 77.0468 80.455C77.7331 80.5667 78.422 80.6811 79.0764 80.9125C80.5527 81.4366 81.7683 82.5458 82.6594 83.8332C83.1994 84.6126 83.6489 85.5143 83.6144 86.464L48.8242 86.4241Z" fill="#00396D"/>
<path d="M86.2285 105.595C86.7924 105.345 87.359 105.095 87.9229 104.845C88.8992 104.411 89.9445 103.916 90.442 102.972C90.9686 101.972 90.7266 100.737 90.285 99.6974C89.8435 98.6573 89.213 97.6865 88.9444 96.6703C88.8965 96.5506 88.822 96.4442 88.7289 96.3564C88.705 96.5347 88.6917 96.7155 88.689 96.8964L86.2285 105.595Z" fill="#00396D"/>
<path d="M44.0546 96.707C43.2965 97.9413 42.7299 99.2952 42.3841 100.702C42.2298 101.335 42.1181 102.008 42.3123 102.628C42.5996 103.543 43.472 104.134 44.3179 104.589C45.1053 105.012 45.9219 105.379 46.7598 105.69L44.0546 96.707Z" fill="#00396D"/>
<path d="M68.0608 58.5205C68.638 60.2841 69.7579 61.8668 71.2342 62.992C71.2342 62.992 71.4496 64.3379 71.4815 64.3353C71.6119 64.173 71.7768 64.0294 71.9763 63.9762C72.3221 63.8804 72.7025 64.0879 72.8887 64.3938C73.0749 64.6997 73.1015 65.0801 73.0563 65.4365C72.9844 66.0004 72.7504 66.5324 72.4631 67.0245C72.1625 67.5379 71.7928 68.0273 71.2767 68.4636C70.7554 69.7962 70.1436 71.0943 69.444 72.3419C69.444 72.3419 69.3589 75.0976 69.3402 75.1641C69.1195 75.4195 68.7949 75.5578 68.4757 75.6642C66.8957 76.1829 65.1188 76.0765 63.6106 75.3716C63.6106 75.3716 63.3632 72.2621 63.3552 72.1956C62.5173 70.9613 61.8976 69.5808 61.4826 68.1098C60.3202 67.5672 59.5594 66.2717 59.6499 64.9949C59.6685 64.7183 59.7297 64.4363 59.8972 64.2156C60.0648 63.9948 60.3601 63.8565 60.6234 63.9389C60.8495 64.0081 61.0038 64.2182 61.1075 64.4284C61.1075 63.8671 61.307 63.3058 61.7619 62.8403C64.2756 62.2073 66.5366 60.6086 68.0608 58.5205Z" fill="#FFDC32"/>
<path d="M64.1236 65.1647C64.344 65.1647 64.5226 64.7932 64.5226 64.3348C64.5226 63.8764 64.344 63.5049 64.1236 63.5049C63.9032 63.5049 63.7246 63.8764 63.7246 64.3348C63.7246 64.7932 63.9032 65.1647 64.1236 65.1647Z" fill="#000001"/>
<path d="M68.6783 65.1647C68.8987 65.1647 69.0773 64.7932 69.0773 64.3348C69.0773 63.8764 68.8987 63.5049 68.6783 63.5049C68.4579 63.5049 68.2793 63.8764 68.2793 64.3348C68.2793 64.7932 68.4579 65.1647 68.6783 65.1647Z" fill="#000001"/>
<path d="M66.6105 68.1996C66.5733 68.1996 66.536 68.1836 66.5094 68.1517C66.4456 68.0772 66.419 67.9815 66.4349 67.8777C66.4562 67.7368 66.5573 67.5878 66.693 67.5C66.7462 67.4654 66.802 67.4362 66.8579 67.4096C66.959 67.359 67.0547 67.3112 67.1053 67.234C67.193 67.1117 67.1531 66.9281 67.092 66.8084C67.0388 66.7047 66.9616 66.6089 66.8792 66.5078C66.8366 66.4546 66.7914 66.4014 66.7515 66.3456C66.2035 65.5955 66.2301 64.6299 66.3073 63.6217C66.3126 63.5499 66.3764 63.4941 66.4509 63.4994C66.5254 63.5047 66.5786 63.5685 66.5733 63.643C66.4988 64.598 66.4695 65.5103 66.9643 66.186C67.0015 66.2365 67.0414 66.2871 67.084 66.3349C67.1718 66.4413 67.2622 66.5504 67.3287 66.6807C67.4298 66.8776 67.4803 67.1649 67.3234 67.383C67.2329 67.5107 67.0973 67.5798 66.9776 67.641C66.9297 67.6649 66.8818 67.6889 66.8366 67.7181C66.7674 67.7634 66.7089 67.8458 66.6983 67.9123C66.693 67.9469 66.7036 67.9629 66.7116 67.9762C66.7595 68.032 66.7515 68.1171 66.6956 68.165C66.6717 68.189 66.6398 68.1996 66.6105 68.1996Z" fill="#000001"/>
<path d="M62.8887 63.3162C62.8355 63.3162 62.7876 63.2843 62.7663 63.2338C62.7371 63.1646 62.7717 63.0875 62.8382 63.0609C63.6521 62.7257 64.5884 62.7177 65.4051 63.0396C65.4742 63.0662 65.5061 63.1433 65.4795 63.2125C65.4529 63.2816 65.3758 63.3136 65.3066 63.287C64.5512 62.989 63.6867 62.997 62.9366 63.3082C62.9233 63.3136 62.9047 63.3162 62.8887 63.3162Z" fill="#000001"/>
<path d="M67.3885 63.311C67.3379 63.311 67.29 63.2817 67.2688 63.2339C67.2368 63.1674 67.2661 63.0876 67.3353 63.0583C68.1652 62.6753 69.168 62.6487 70.0192 62.9812C70.0884 63.0078 70.1203 63.0849 70.0937 63.1541C70.0671 63.2232 69.9899 63.2551 69.9208 63.2285C69.1361 62.92 68.2104 62.9466 67.4443 63.3004C67.4257 63.3083 67.4071 63.311 67.3885 63.311Z" fill="#000001"/>
<path d="M67.728 70.1633C67.7174 70.1633 67.7041 70.1606 67.6934 70.1579C67.6216 70.1393 67.5817 70.0648 67.6003 69.9957C67.6562 69.7882 67.6961 69.5807 67.72 69.3653C67.736 69.195 67.7174 69.086 67.6588 69.0354C67.6163 68.9982 67.5418 68.9875 67.4593 69.0008C67.3849 69.0168 67.3077 69.054 67.2279 69.0939L67.188 69.1126C66.6028 69.3972 66.0655 69.4876 65.5867 69.3812C65.5149 69.3653 65.4697 69.2934 65.4856 69.2216C65.5016 69.1498 65.5734 69.1046 65.6452 69.1205C66.0575 69.2136 66.5496 69.1285 67.071 68.8732L67.1109 68.8545C67.204 68.8093 67.2997 68.7614 67.4088 68.7402C67.5711 68.7082 67.728 68.7428 67.8344 68.8333C68.0046 68.9822 68.002 69.2216 67.986 69.3919C67.9621 69.6233 67.9195 69.8441 67.861 70.0648C67.8397 70.1234 67.7865 70.1633 67.728 70.1633Z" fill="#000001"/>
<path d="M72.0246 63.4945C72.0087 63.4945 71.9927 63.4918 71.9768 63.4865C71.0431 63.1327 70.16 62.4198 69.4285 61.425C68.8406 60.6217 68.3937 59.7146 67.9602 58.7756C66.2099 61.3239 63.2706 62.997 60.2329 63.1566C60.1557 63.1566 60.0972 63.1034 60.0919 63.0316C60.0892 62.9571 60.1451 62.896 60.2169 62.8906C63.2493 62.731 66.1833 61.0233 67.8697 58.4325C67.8963 58.3926 67.9415 58.3686 67.9921 58.3713C68.04 58.374 68.0825 58.4032 68.1038 58.4484C68.5613 59.4513 69.0242 60.4222 69.6439 61.268C70.3435 62.223 71.1841 62.9039 72.0699 63.2391C72.139 63.2657 72.1736 63.3428 72.147 63.4093C72.1284 63.4625 72.0778 63.4945 72.0246 63.4945Z" fill="#000001"/>
<path d="M71.6012 68.2585C71.5613 68.2585 71.5241 68.2426 71.4975 68.208C71.4523 68.1495 71.4603 68.067 71.5188 68.0218C72.4232 67.3009 72.9472 66.1358 72.8807 64.9787C72.8701 64.8058 72.8435 64.585 72.7371 64.4095C72.6094 64.202 72.3567 64.0743 72.112 64.0929C71.8699 64.1116 71.6385 64.2738 71.5401 64.4999C71.5161 64.5531 71.4576 64.585 71.4017 64.5797C71.3432 64.5717 71.2953 64.5265 71.2874 64.468C71.2661 64.3297 71.2448 64.1914 71.2262 64.0557C71.1756 63.7046 71.1278 63.3748 71.0559 63.0476C71.04 62.9758 71.0852 62.9039 71.157 62.888C71.2288 62.872 71.3007 62.9172 71.3166 62.9891C71.3938 63.3269 71.4416 63.662 71.4922 64.0185C71.4948 64.0451 71.5002 64.0743 71.5028 64.1009C71.6624 63.9466 71.8752 63.8456 72.0933 63.8296C72.4365 63.8057 72.7849 63.9839 72.9632 64.2738C73.1015 64.4973 73.1334 64.7606 73.144 64.9654C73.2132 66.2076 72.6519 67.4605 71.681 68.2319C71.6598 68.2505 71.6305 68.2585 71.6012 68.2585Z" fill="#000001"/>
<path d="M61.339 68.1842C61.3177 68.1842 61.2964 68.1789 61.2778 68.1682C60.392 67.7054 59.7403 66.8063 59.5781 65.8194C59.5302 65.5268 59.5222 65.2396 59.5195 64.9204C59.5195 64.6996 59.5195 64.4283 59.6419 64.1942C59.8201 63.8457 60.2404 63.6569 60.6208 63.75C60.7937 63.7925 60.948 63.8936 61.0623 64.0293C61.1421 63.5638 61.2991 63.1222 61.5252 62.7498C61.5624 62.686 61.6449 62.6673 61.7087 62.7046C61.7726 62.7418 61.7912 62.8243 61.7539 62.8881C61.4613 63.3722 61.2884 63.9814 61.2725 64.6038C61.2698 64.6756 61.2113 64.7342 61.1395 64.7342H61.1368C61.065 64.7315 61.0065 64.673 61.0065 64.5985C61.0118 64.3325 60.8123 64.0745 60.5569 64.008C60.2989 63.9415 60.0037 64.0771 59.8813 64.3139C59.7882 64.4921 59.7882 64.7182 59.7882 64.9177C59.7909 65.2236 59.7962 65.5002 59.8414 65.7742C59.9904 66.6813 60.5889 67.5059 61.4028 67.9315C61.4667 67.9661 61.4933 68.0459 61.4587 68.1097C61.4321 68.1576 61.3869 68.1842 61.339 68.1842Z" fill="#000001"/>
<path d="M66.4131 74.7169C66.2429 74.7169 66.078 74.6956 65.921 74.6504C65.5566 74.5493 65.2507 74.3338 64.998 74.137C63.7797 73.1954 62.7742 71.8334 62.088 70.2002C61.524 68.8596 61.1516 67.3008 60.9442 65.4308C60.9362 65.359 60.9894 65.2925 61.0612 65.2845C61.133 65.2765 61.1995 65.3297 61.2075 65.4016C61.4097 67.2449 61.7794 68.7798 62.33 70.0965C63.0003 71.6898 63.9766 73.0145 65.1576 73.9269C65.389 74.1077 65.6683 74.3046 65.9902 74.3924C66.4105 74.5121 66.9185 74.4376 67.384 74.1875C67.7564 73.988 68.1049 73.6901 68.5198 73.222C70.7596 70.7029 71.4831 67.4737 71.6985 65.2074C71.7065 65.1356 71.773 65.0797 71.8422 65.0877C71.9167 65.0957 71.9699 65.1595 71.9619 65.2313C71.7438 67.5349 71.0069 70.8226 68.7193 73.3975C68.2831 73.8896 67.9107 74.2062 67.509 74.4216C67.1473 74.6185 66.7722 74.7169 66.4131 74.7169Z" fill="#000001"/>
<path d="M61.6629 60.7521C61.6097 60.7521 61.5565 60.7175 61.5379 60.6643C61.5113 60.5951 61.5486 60.518 61.6177 60.494C63.5968 59.7679 65.3497 58.3075 66.4217 56.4881C66.4589 56.4242 66.5414 56.403 66.6026 56.4402C66.6664 56.4774 66.6877 56.5599 66.6504 56.6211C65.5306 58.5203 63.775 59.986 61.7082 60.7441C61.6949 60.7494 61.6789 60.7521 61.6629 60.7521Z" fill="#000001"/>
<path d="M61.2801 59.4357C61.2482 59.4357 61.219 59.4251 61.1924 59.4038C61.1365 59.3559 61.1312 59.2708 61.179 59.2149C61.3812 58.9835 61.6579 58.8612 61.9239 58.7388C62.1925 58.6191 62.4479 58.5047 62.6048 58.2919C62.666 58.2095 62.7139 58.1164 62.7617 58.0153C62.7937 57.9514 62.8256 57.8849 62.8602 57.8238C63.1741 57.2811 63.7459 57.0204 64.2966 56.7677C64.7142 56.5762 65.1478 56.3767 65.4537 56.0602C65.5042 56.007 65.5893 56.0043 65.6425 56.0549C65.6957 56.1054 65.6984 56.1905 65.6479 56.2437C65.3074 56.5975 64.8525 56.8076 64.4109 57.0098C63.8736 57.2572 63.3656 57.4886 63.0942 57.9568C63.0623 58.0126 63.0331 58.0711 63.0065 58.1297C62.9533 58.2387 62.9001 58.3504 62.8229 58.4515C62.6234 58.7175 62.3255 58.8505 62.0382 58.9782C61.7855 59.0926 61.5461 59.199 61.3839 59.3852C61.3546 59.4198 61.3174 59.4357 61.2801 59.4357Z" fill="#000001"/>
<path d="M71.4116 61.2338C71.385 61.2338 71.3584 61.2259 71.3371 61.2099C70.8929 60.904 70.728 60.3906 70.5684 59.8959C70.462 59.5634 70.3503 59.2229 70.1588 58.9542C70.0603 58.8186 69.9406 58.7015 69.813 58.5765C69.672 58.4382 69.5257 58.2945 69.4086 58.1216C69.0203 57.5524 69.0389 56.8156 69.0522 56.2251C69.0549 56.1532 69.1214 56.0947 69.1879 56.0947C69.2623 56.0974 69.3182 56.1586 69.3182 56.2304C69.3049 56.7837 69.2863 57.4726 69.6268 57.9727C69.7278 58.1216 69.8608 58.252 69.9992 58.3876C70.1295 58.5153 70.2625 58.6457 70.3742 58.7999C70.5923 59.1032 70.7094 59.4649 70.8211 59.8161C70.9727 60.2895 71.1164 60.7364 71.4888 60.9918C71.5499 61.0343 71.5632 61.1168 71.5233 61.178C71.4941 61.2126 71.4542 61.2338 71.4116 61.2338Z" fill="#000001"/>
<path d="M72.6671 63.609C72.6644 63.609 72.6644 63.609 72.6618 63.609C72.5873 63.6063 72.5314 63.5425 72.5341 63.4706C72.683 60.2121 72.1457 57.9166 70.8423 56.2487C70.5284 55.8444 70.2332 55.5758 69.9193 55.4055C69.5309 55.1954 69.1053 55.1448 68.7569 55.2619C68.6877 55.2858 68.6132 55.2486 68.5893 55.1794C68.5654 55.1103 68.6026 55.0331 68.6718 55.0118C69.092 54.8682 69.5921 54.9267 70.047 55.1714C70.3954 55.3603 70.7173 55.6502 71.0551 56.0838C72.3984 57.8048 72.9544 60.1536 72.8001 63.4813C72.7974 63.5531 72.7389 63.609 72.6671 63.609Z" fill="#000001"/>
<path d="M68.0282 55.3517C67.9963 55.3517 67.9643 55.3411 67.9404 55.3198C67.8845 55.2719 67.8792 55.1868 67.9271 55.131L68.1 54.9341C68.1479 54.8783 68.233 54.8729 68.2889 54.9235C68.3447 54.9714 68.35 55.0565 68.2995 55.1123L68.1266 55.3092C68.1027 55.3358 68.0654 55.3517 68.0282 55.3517Z" fill="#000001"/>
<path d="M60.0509 63.6381C59.9871 63.6381 59.9312 63.5929 59.9206 63.529C59.745 62.5475 59.8302 61.4675 60.1786 60.2226C60.6893 58.3952 61.5911 56.9163 62.7801 55.9427C64.1872 54.7936 66.0785 54.3973 67.5974 54.9293C67.6665 54.9532 67.7038 55.0303 67.6798 55.0995C67.6559 55.1686 67.5787 55.2059 67.5096 55.1819C66.0732 54.6792 64.283 55.0596 62.9477 56.1529C61.4953 57.3392 60.7798 59.0629 60.434 60.2998C60.0962 61.5048 60.0137 62.5475 60.1813 63.4891C60.1946 63.5609 60.1467 63.6301 60.0749 63.6434C60.0669 63.6381 60.0589 63.6381 60.0509 63.6381Z" fill="#000001"/>
<path d="M81.1761 81.5456C81.1628 81.5456 81.1469 81.5429 81.1309 81.5376C81.0618 81.5137 81.0245 81.4366 81.0485 81.3674C81.24 80.8221 80.9181 80.2449 80.5377 79.9416C80.0536 79.5559 79.3992 79.4389 78.947 79.3857C78.7662 79.3644 78.5826 79.3484 78.3991 79.3325C77.9921 79.2979 77.5745 79.2633 77.1675 79.1622C76.5318 79.0026 76.1088 78.6568 76.0051 78.2206C75.9678 78.0583 75.9758 77.8961 75.9838 77.7391C75.9918 77.5769 75.9998 77.4226 75.9545 77.2869C75.8348 76.9119 75.3827 76.7682 74.9464 76.6299C74.8773 76.6086 74.8108 76.5874 74.7443 76.5634C73.4834 76.1378 72.438 75.0126 71.8768 73.4725C71.3847 72.1212 71.3102 70.6635 71.2384 69.2537C71.2357 69.1793 71.2916 69.1181 71.3634 69.1154C71.4459 69.1048 71.499 69.1686 71.5017 69.2404C71.5735 70.629 71.6453 72.0654 72.1241 73.3794C72.6561 74.8424 73.643 75.9091 74.8267 76.3107C74.8905 76.332 74.957 76.3533 75.0235 76.3746C75.4997 76.5262 76.0397 76.6991 76.2019 77.2045C76.2631 77.388 76.2525 77.5742 76.2445 77.7524C76.2365 77.8961 76.2312 78.0344 76.2605 78.1594C76.3722 78.6382 76.9733 78.8404 77.2287 78.9042C77.6144 79 78.0214 79.0346 78.4177 79.0691C78.6039 79.0851 78.7901 79.1011 78.9763 79.1224C79.4604 79.1809 80.1627 79.3085 80.7 79.7341C81.2533 80.1757 81.498 80.8833 81.2958 81.4578C81.2825 81.511 81.232 81.5456 81.1761 81.5456Z" fill="#000001"/>
<path d="M51.7007 81.1094C51.6289 81.1094 51.5704 81.0536 51.5677 80.9818C51.5305 80.1332 52.2859 79.5001 53.0015 79.2714C53.4936 79.1144 54.0096 79.0825 54.5097 79.0533C54.7491 79.04 54.9938 79.024 55.2332 78.9974C55.8663 78.9256 56.2759 78.7154 56.4542 78.3776C56.5393 78.2127 56.5659 78.0212 56.5951 77.8164C56.6217 77.6195 56.651 77.4147 56.7361 77.2258C56.9755 76.6938 57.5208 76.4784 58.0502 76.2709C58.2443 76.1938 58.4438 76.1166 58.622 76.0235C59.2418 75.699 59.7525 75.1085 60.226 74.1615C60.9974 72.624 61.3831 70.9004 61.3352 69.1767C61.3326 69.1022 61.3911 69.041 61.4656 69.041C61.5294 69.041 61.6012 69.0969 61.6012 69.1714C61.6491 70.9403 61.2581 72.7065 60.4654 74.2839C59.9654 75.2814 59.4174 75.9118 58.7444 76.2629C58.5556 76.3613 58.3481 76.4438 58.1486 76.5209C57.6485 76.7178 57.175 76.904 56.9808 77.3376C56.9117 77.4945 56.8877 77.6701 56.8611 77.8589C56.8319 78.077 56.8 78.3005 56.6936 78.5053C56.4728 78.9282 55.994 79.1863 55.2678 79.2687C55.0231 79.298 54.773 79.3139 54.531 79.3272C54.0256 79.3565 53.5494 79.3858 53.0892 79.5321C52.4455 79.7369 51.8124 80.2981 51.8417 80.9764C51.8444 81.0509 51.7885 81.1121 51.714 81.1148C51.7034 81.1094 51.7034 81.1094 51.7007 81.1094Z" fill="#000001"/>
<path d="M66.5181 76.1746C66.5021 76.1746 66.4835 76.1746 66.4675 76.1746C65.5339 76.1667 64.5444 75.9512 63.5256 75.5309C63.4724 75.5097 63.4405 75.4591 63.4431 75.4006C63.5016 74.1717 63.4112 73.1183 63.1665 72.1793C63.1479 72.1075 63.1904 72.0357 63.2622 72.0171C63.3341 71.9984 63.4059 72.041 63.4245 72.1128C63.6692 73.0545 63.765 74.1052 63.7144 75.3208C64.6694 75.7038 65.5977 75.9007 66.4702 75.9086C67.4704 75.9246 68.4067 75.6692 69.1834 75.1958C69.1036 74.1743 69.1621 73.1476 69.3563 72.1447C69.3696 72.0729 69.4414 72.025 69.5132 72.0383C69.5851 72.0516 69.6329 72.1235 69.6196 72.1953C69.4255 73.2008 69.3696 74.2302 69.4574 75.2543C69.4627 75.3048 69.4388 75.35 69.3962 75.3766C68.5743 75.9007 67.5821 76.1746 66.5181 76.1746Z" fill="#000001"/>
<path d="M48.8633 86.1149C48.8473 86.1149 48.8287 86.1123 48.8128 86.1043C48.7463 86.075 48.7117 85.9979 48.7409 85.9314C49.382 84.3832 50.8902 81.6222 53.7949 80.5263C54.7738 80.1565 55.8272 80.0182 56.846 79.8825L56.8965 79.8746C58.0084 79.7256 59.0032 79.574 59.9262 79.1963C60.9823 78.7653 61.7803 78.0711 62.1766 77.2438C62.4266 76.7171 62.5277 76.1293 62.5969 75.5707C62.698 74.7913 63.0198 74.6024 63.2699 74.5785C63.3443 74.5732 63.4082 74.6264 63.4135 74.7008C63.4188 74.7727 63.3656 74.8392 63.2911 74.8445C63.0118 74.8684 62.9001 75.2701 62.8576 75.6053C62.7831 76.1851 62.6793 76.7996 62.4133 77.3582C61.9877 78.2466 61.1419 78.9861 60.0247 79.4436C59.0724 79.832 58.0616 79.9889 56.9311 80.1379L56.8805 80.1432C55.8777 80.2762 54.8403 80.4145 53.888 80.7736C51.0791 81.8323 49.6108 84.5216 48.9883 86.0298C48.9644 86.083 48.9165 86.1149 48.8633 86.1149Z" fill="#000001"/>
<path d="M83.6209 86.1337C83.5624 86.1337 83.5066 86.0938 83.4906 86.0326C82.8522 83.4843 80.8386 81.3882 78.4818 80.8137C78.0323 80.7046 77.5641 80.6434 77.1119 80.5849C76.9443 80.5636 76.7768 80.5424 76.6092 80.5184C75.5425 80.3641 74.4865 80.1194 73.473 79.7896C72.5394 79.4863 71.2253 78.9543 70.5976 77.8425C70.3449 77.3982 70.1986 76.8503 70.1427 76.1613L70.1321 76.0044C70.1161 75.757 70.0975 75.5256 70.0257 75.3075C69.9512 75.092 69.7836 74.8367 69.5256 74.7728C69.4538 74.7542 69.4112 74.6824 69.4272 74.6106C69.4458 74.5387 69.5149 74.4962 69.5894 74.5121C69.8953 74.5866 70.1534 74.8526 70.2757 75.2197C70.3608 75.4697 70.3794 75.7304 70.3954 75.9831L70.406 76.1374C70.4592 76.7864 70.5949 77.2998 70.829 77.7068C71.4035 78.7256 72.5872 79.2177 73.5555 79.5316C74.5556 79.8561 75.5957 80.0981 76.6491 80.2498C76.814 80.2737 76.9816 80.295 77.1492 80.3163C77.6093 80.3748 78.0855 80.436 78.5483 80.5503C81.0008 81.1488 83.0916 83.3247 83.7539 85.9634C83.7725 86.0353 83.7273 86.1071 83.6582 86.1257C83.6422 86.131 83.6316 86.1337 83.6209 86.1337Z" fill="#000001"/>
<path d="M65.8067 80.8352C65.5461 80.8352 65.2854 80.8246 65.0247 80.8006C64.2453 80.7288 63.6122 80.5586 63.0856 80.2793C62.4259 79.9282 61.9391 79.4015 61.7157 78.795C61.6891 78.7258 61.7263 78.6487 61.7955 78.6248C61.8646 78.6008 61.9418 78.6354 61.9657 78.7046C62.1652 79.2499 62.6068 79.726 63.2106 80.0452C63.7053 80.3059 64.3065 80.4655 65.0486 80.5346C66.3547 80.6543 67.6874 80.4628 68.9003 79.984C68.9695 79.9574 69.0466 79.9893 69.0732 80.0585C69.0998 80.1277 69.0679 80.2048 68.9987 80.2314C67.9879 80.6304 66.8973 80.8352 65.8067 80.8352Z" fill="#000001"/>
<path d="M63.0621 78.8695C63.0461 78.8695 63.0275 78.8668 63.0115 78.8589C62.9424 78.8323 62.9105 78.7551 62.9371 78.686C63.2722 77.856 63.4425 76.941 63.4318 76.0419C63.4318 75.9674 63.4904 75.9089 63.5622 75.9062C63.5622 75.9062 63.5622 75.9062 63.5648 75.9062C63.6366 75.9062 63.6978 75.9648 63.6978 76.0366C63.7085 76.9703 63.5302 77.9199 63.1818 78.7817C63.1658 78.8376 63.1153 78.8695 63.0621 78.8695Z" fill="#000001"/>
<path d="M64.4858 79.3452C64.4751 79.3452 64.4618 79.3425 64.4512 79.3398C64.3794 79.3212 64.3395 79.2467 64.3581 79.1776C64.5762 78.3716 64.6879 77.547 64.6932 76.7277C64.6932 76.6532 64.7544 76.5947 64.8262 76.5947C64.9007 76.5947 64.9592 76.6559 64.9592 76.7277C64.9539 77.5709 64.8369 78.4168 64.6134 79.2467C64.5975 79.3053 64.5443 79.3452 64.4858 79.3452Z" fill="#000001"/>
<path d="M66.3368 79.8006C66.265 79.8006 66.2065 79.7421 66.2038 79.6702C66.1852 78.8669 66.1825 78.0503 66.1958 77.2417C66.1958 77.1698 66.257 77.1113 66.3288 77.1113H66.3315C66.406 77.1113 66.4645 77.1725 66.4618 77.247C66.4485 78.0503 66.4512 78.8643 66.4698 79.6649C66.4725 79.7394 66.4139 79.7979 66.3395 79.8006H66.3368Z" fill="#000001"/>
<path d="M68.3778 79.3884C68.3326 79.3884 68.2874 79.3645 68.2635 79.3219C68.1464 79.1224 68.1118 78.9017 68.0826 78.6702C68.0054 78.0531 67.9656 77.4227 67.9629 76.8029C67.9629 76.7284 68.0214 76.6699 68.0959 76.6699C68.1704 76.6699 68.2289 76.7284 68.2289 76.8029C68.2316 77.4147 68.2715 78.0318 68.3486 78.6383C68.3752 78.8485 68.4045 79.0347 68.4949 79.1889C68.5321 79.2528 68.5109 79.3326 68.447 79.3698C68.4231 79.3831 68.4018 79.3884 68.3778 79.3884Z" fill="#000001"/>
<path d="M69.9342 78.8849C69.8916 78.8849 69.849 78.8636 69.8224 78.8264C69.3224 78.0763 69.2266 77.1399 69.1974 76.2409C69.1947 76.1664 69.2532 76.1052 69.325 76.1025C69.3277 76.1025 69.3277 76.1025 69.3304 76.1025C69.4022 76.1025 69.4607 76.1584 69.4634 76.2302C69.4926 77.0894 69.583 77.9805 70.0459 78.6774C70.0858 78.7386 70.0698 78.8211 70.0086 78.861C69.9847 78.8769 69.9608 78.8849 69.9342 78.8849Z" fill="#000001"/>
<path d="M46.0943 105.591C46.073 105.591 46.0518 105.586 46.0331 105.575C45.7272 105.413 45.4027 105.264 45.0888 105.123C44.6819 104.937 44.2589 104.746 43.8626 104.514C43.0061 104.011 42.4475 103.405 42.2001 102.708C41.8436 101.7 42.1602 100.615 42.5565 99.5931C42.8997 98.702 43.2907 97.8189 43.7163 96.9624C43.7482 96.8959 43.828 96.8693 43.8945 96.9039C43.961 96.9358 43.9876 97.0156 43.953 97.0821C43.5301 97.9306 43.1444 98.8084 42.8039 99.6915C42.4262 100.665 42.1203 101.695 42.4475 102.62C42.6736 103.256 43.1923 103.815 43.9929 104.285C44.3786 104.511 44.7936 104.7 45.1952 104.881C45.5118 105.025 45.839 105.174 46.1528 105.341C46.2167 105.376 46.2433 105.456 46.2087 105.522C46.1874 105.565 46.1422 105.591 46.0943 105.591Z" fill="#000001"/>
<path d="M86.7345 105.472C86.6866 105.472 86.6387 105.446 86.6148 105.4C86.5802 105.334 86.6068 105.254 86.6733 105.222L87.0457 105.031C87.3543 104.874 87.6628 104.714 87.9714 104.557C88.5034 104.286 89.054 104.007 89.5222 103.624C89.8786 103.331 90.3414 102.849 90.5117 102.203C90.6101 101.828 90.6101 101.402 90.5117 100.894C90.3494 100.075 89.977 99.2957 89.6153 98.5456C89.3652 98.0269 89.1072 97.4896 88.9157 96.9363C88.8917 96.8671 88.929 96.7927 88.9981 96.7661C89.0673 96.7421 89.1444 96.7794 89.1684 96.8485C89.3546 97.3885 89.6099 97.9178 89.8547 98.4286C90.2244 99.1946 90.6048 99.9873 90.7724 100.841C90.8788 101.386 90.8761 101.855 90.7671 102.267C90.5782 102.982 90.0755 103.509 89.6871 103.826C89.195 104.225 88.6337 104.512 88.0884 104.791C87.7799 104.948 87.4713 105.108 87.1627 105.265L86.7903 105.456C86.777 105.467 86.7558 105.472 86.7345 105.472Z" fill="#000001"/>
<path d="M73.1877 107.496H47.2155L47 107.187L41.2305 86.4475L79.0317 86.3916L82.9606 91.9217L83.4606 100.232L73.1877 107.496Z" fill="white"/>
<path d="M103.869 94.0262C104.233 94.0049 104.59 94.1804 104.85 94.4385C105.111 94.6965 105.281 95.029 105.409 95.3721C105.829 96.492 105.829 97.7315 105.622 98.9099C105.411 100.088 105.002 101.219 104.616 102.349C104.281 103.328 103.959 104.318 103.456 105.219C102.954 106.124 102.251 106.946 101.328 107.411L97.3145 107.377C97.3145 107.377 101.11 96.0637 101.169 96.0212C101.243 95.8243 101.419 95.6807 101.608 95.5902C101.799 95.4998 102.007 95.4572 102.209 95.4014C102.507 95.3216 102.797 95.2205 103.079 95.0981C103.278 95.0104 103.478 94.9093 103.632 94.755C103.786 94.6007 103.893 94.3906 103.869 94.0262Z" fill="white"/>
<path d="M27.7347 97.6836H32.8073L33.4218 100.099L32.012 105.398L30.1659 107.454L24.4629 107.393L27.7347 97.6836Z" fill="white"/>
<path d="M105.951 86.7747C105.903 86.6178 105.845 86.4582 105.73 86.3385C105.616 86.2188 105.44 86.1443 105.286 86.1975C105.188 86.2294 105.113 86.3066 105.044 86.3837C104.621 86.8545 104.331 87.4371 103.897 87.8972C103.706 88.1021 103.469 88.2883 103.193 88.3282C102.839 88.3814 102.477 88.1792 102.288 87.876C102.099 87.5727 102.07 87.1897 102.147 86.8412C102.277 86.2693 102.679 85.7932 103.134 85.4234C103.421 85.1894 103.74 84.9845 104.1 84.8941C104.459 84.8037 104.863 84.8462 105.158 85.067C105.406 85.2505 105.555 85.5352 105.661 85.8251C105.762 86.0991 105.837 86.381 105.951 86.7747Z" fill="#FF6600"/>
<path d="M108.428 86.4951C108.662 86.2291 109.109 86.1892 109.388 86.4073C109.59 86.5669 109.689 86.8223 109.744 87.0723C109.891 87.7107 109.824 88.3784 109.907 89.0274C109.944 89.3174 110.016 89.618 110.21 89.8361C110.505 90.1739 111.066 90.2351 111.428 89.9664C111.838 89.6632 111.912 89.086 111.923 88.5779C111.931 88.0885 111.91 87.5937 111.798 87.1176C111.684 86.6414 111.476 86.1812 111.144 85.8195C111.027 85.6918 110.891 85.5748 110.734 85.5029C110.526 85.4072 110.287 85.3912 110.061 85.4152C109.484 85.479 108.944 85.7902 108.428 86.4951Z" fill="#FF6600"/>
<path d="M103.931 93.6616C103.827 93.6163 103.72 93.7467 103.739 93.8557C103.758 93.9648 103.851 94.0473 103.938 94.1164C104.026 94.1856 104.119 94.2654 104.143 94.3744C104.162 94.4675 104.127 94.5739 104.181 94.6511C104.223 94.7123 104.306 94.7309 104.375 94.7548C104.526 94.8054 104.659 94.9064 104.752 95.0368C104.838 95.1565 104.885 95.2948 104.963 95.4198C105.066 95.5874 105.218 95.7204 105.332 95.8827C105.75 96.4705 105.588 97.2792 105.391 97.9734C104.412 101.429 102.962 104.812 100.635 107.544L103.84 107.454C103.84 107.454 107.338 96.5583 107.325 96.5716C107.322 96.3003 107.303 95.9864 107.088 95.8188C106.99 95.7417 106.862 95.7098 106.747 95.6592C106.481 95.5448 106.261 95.3241 106.17 95.0501C106.08 94.7761 106.133 94.4542 106.325 94.2388C106.396 94.159 106.481 94.0951 106.54 94.0047C106.596 93.9143 106.609 93.7839 106.535 93.7094L103.931 93.6616Z" fill="#FFDC32"/>
<path d="M31.9731 97.7441C32.3668 97.7867 32.6753 98.1352 32.7897 98.5155C32.9041 98.8959 32.8615 99.3029 32.803 99.6966C32.5769 101.263 32.146 102.814 31.3799 104.2C30.6138 105.586 29.502 106.801 28.1055 107.549L32.5822 107.411L35.8141 97.7628L31.9731 97.7441Z" fill="#FFDC32"/>
<path d="M70.0245 86.533C72.3281 86.5143 74.6343 86.8468 76.8395 87.5145C77.43 87.6927 78.103 87.9933 78.2253 88.5971C78.3716 89.318 77.6428 89.9005 77.43 90.6054C77.1693 91.4593 77.7093 92.3557 78.3583 92.9702C79.0074 93.5846 79.8 94.0687 80.2788 94.8215C80.9811 95.9228 80.8614 97.3778 80.4012 98.6014C79.4144 101.216 77.0656 103.129 74.4933 104.219C71.9211 105.31 69.1122 105.685 66.3431 106.052C63.3825 106.443 60.4219 106.834 57.4587 107.225L55.5488 107.51L85.66 107.486L91.7461 86.5755L70.0245 86.533Z" fill="#FFDC32"/>
<path d="M103.447 80.6645C104.255 80.6645 104.91 80.0834 104.91 79.3664C104.91 78.6495 104.255 78.0684 103.447 78.0684C102.639 78.0684 101.984 78.6495 101.984 79.3664C101.984 80.0834 102.639 80.6645 103.447 80.6645Z" fill="#FFDC32"/>
<path d="M122.486 107.634H10.5158C10.4413 107.634 10.3828 107.576 10.3828 107.501C10.3828 107.427 10.4413 107.368 10.5158 107.368H122.486C122.56 107.368 122.619 107.427 122.619 107.501C122.619 107.576 122.56 107.634 122.486 107.634Z" fill="#000001"/>
<path d="M118.595 109.163H44.9689C44.8945 109.163 44.8359 109.105 44.8359 109.03C44.8359 108.956 44.8945 108.897 44.9689 108.897H118.595C118.67 108.897 118.728 108.956 118.728 109.03C118.728 109.105 118.67 109.163 118.595 109.163Z" fill="#000001"/>
<path d="M95.4009 111.177H15.3615C15.287 111.177 15.2285 111.119 15.2285 111.044C15.2285 110.97 15.287 110.911 15.3615 110.911H95.4009C95.4754 110.911 95.5339 110.97 95.5339 111.044C95.5339 111.119 95.4754 111.177 95.4009 111.177Z" fill="#000001"/>
<path d="M24.4149 107.595C24.4016 107.595 24.3856 107.592 24.3723 107.587C24.3032 107.563 24.2659 107.488 24.2872 107.419L27.5564 97.6383C27.575 97.5851 27.6255 97.5479 27.6814 97.5479H35.7917C35.8343 97.5479 35.8742 97.5691 35.9008 97.6037C35.9247 97.6383 35.9327 97.6835 35.9194 97.7234L32.6742 107.379C32.6503 107.448 32.5758 107.488 32.5066 107.462C32.4375 107.438 32.4002 107.363 32.4242 107.294L35.6108 97.8139H27.7798L24.5399 107.504C24.5213 107.56 24.4708 107.595 24.4149 107.595Z" fill="#000001"/>
<path d="M33.7952 106.043C33.7234 106.043 33.6649 105.987 33.6622 105.913C33.6595 105.839 33.7181 105.777 33.7925 105.777C34.3857 105.761 35.0002 105.471 35.5269 104.963C36.0057 104.501 36.3541 103.926 36.7026 103.327C37.1734 102.511 37.6336 101.636 37.6309 100.694C37.6283 100.138 37.3649 99.529 36.8648 99.4439C36.4685 99.3774 36.0934 99.646 35.7423 99.928C35.6838 99.9732 35.6013 99.9652 35.5561 99.9067C35.5109 99.8509 35.5189 99.7657 35.5774 99.7205C35.9578 99.4173 36.4047 99.1007 36.9074 99.1832C37.5538 99.2923 37.8943 100.026 37.8969 100.694C37.8996 101.702 37.4208 102.615 36.9313 103.46C36.5749 104.075 36.2131 104.668 35.7104 105.155C35.1358 105.711 34.4575 106.025 33.8005 106.043C33.7979 106.043 33.7952 106.043 33.7952 106.043Z" fill="#000001"/>
<path d="M29.7844 96.1213C29.7684 96.1213 29.7525 96.1187 29.7365 96.1133C29.6673 96.0867 29.6328 96.0096 29.6594 95.9431C29.7897 95.5973 30.0424 95.326 30.2871 95.0653C30.5425 94.7913 30.7845 94.5306 30.883 94.2008C30.9681 93.9162 30.9335 93.6129 30.8963 93.2937C30.8723 93.0863 30.8484 92.8735 30.8564 92.6607C30.875 92.118 31.1197 91.5913 31.524 91.2216C31.5772 91.1711 31.6623 91.1764 31.7129 91.2296C31.7634 91.2828 31.7581 91.3679 31.7049 91.4184C31.3511 91.7403 31.141 92.1978 31.1224 92.6713C31.1144 92.8655 31.1357 93.0597 31.1596 93.2645C31.1968 93.597 31.2367 93.9401 31.1383 94.2779C31.0213 94.6663 30.7473 94.9616 30.4813 95.2462C30.2446 95.5015 30.0211 95.7409 29.9067 96.0362C29.8881 96.0894 29.8376 96.1213 29.7844 96.1213Z" fill="#000001"/>
<path d="M32.4319 95.4757C32.4293 95.4757 32.4293 95.4757 32.4266 95.4757C32.3521 95.473 32.2963 95.4119 32.2989 95.3374C32.3122 95.0155 32.5011 94.7735 32.6846 94.5367C32.7963 94.3904 32.9027 94.2548 32.9692 94.1031C33.1368 93.7148 33.0198 93.2839 32.8974 92.829C32.8176 92.5337 32.7325 92.2252 32.7272 91.9166C32.7112 91.1984 33.1235 90.4643 33.8577 89.903C33.9162 89.8578 33.9987 89.8684 34.0439 89.9269C34.0891 89.9855 34.0785 90.0679 34.0199 90.1131C33.3656 90.6132 32.9825 91.2862 32.9958 91.9086C33.0012 92.1853 33.081 92.4752 33.1554 92.7572C33.2858 93.236 33.4214 93.7334 33.214 94.2069C33.1342 94.3904 33.0118 94.5474 32.8948 94.699C32.7298 94.9118 32.5729 95.1139 32.5649 95.348C32.5623 95.4198 32.5037 95.4757 32.4319 95.4757Z" fill="#000001"/>
<path d="M34.3225 96.2337H34.3198C34.2453 96.231 34.1895 96.1699 34.1895 96.098C34.2001 95.7336 34.4076 95.4437 34.6097 95.1644C34.7667 94.9463 34.9156 94.7388 34.9715 94.5047C35.0486 94.1775 34.9343 93.845 34.8119 93.4912C34.7507 93.3104 34.6842 93.1242 34.647 92.9326C34.514 92.2756 34.7082 91.5574 35.1577 91.06C35.2056 91.0041 35.2907 91.0015 35.3466 91.0494C35.4024 91.0973 35.4051 91.1824 35.3572 91.2382C34.9635 91.6745 34.7933 92.3049 34.9103 92.8821C34.9449 93.055 35.0061 93.2332 35.0673 93.4061C35.1949 93.7785 35.3279 94.1642 35.2348 94.5685C35.1683 94.8532 34.9954 95.0926 34.8305 95.3213C34.6443 95.5793 34.4688 95.8241 34.4608 96.1087C34.4528 96.1778 34.3943 96.2337 34.3225 96.2337Z" fill="#000001"/>
<path d="M97.3251 107.494C97.3118 107.494 97.2958 107.491 97.2825 107.486C97.2133 107.462 97.1761 107.387 97.1974 107.318L100.956 96.0423C100.98 95.9731 101.054 95.9359 101.124 95.9571C101.193 95.9811 101.23 96.0556 101.209 96.1247L97.4501 107.4C97.4315 107.459 97.3809 107.494 97.3251 107.494Z" fill="#000001"/>
<path d="M103.874 107.456C103.86 107.456 103.847 107.454 103.834 107.451C103.765 107.43 103.725 107.355 103.746 107.284L107.169 96.4919C107.191 96.4228 107.265 96.3829 107.337 96.4042C107.406 96.4254 107.446 96.4999 107.425 96.5717L104.001 107.363C103.983 107.419 103.93 107.456 103.874 107.456Z" fill="#000001"/>
<path d="M107.274 96.3054C107.266 96.3054 107.261 96.3054 107.253 96.3027C107.181 96.2921 107.13 96.2229 107.144 96.1484C107.162 96.034 107.077 95.9223 106.997 95.8611C106.899 95.7867 106.779 95.7388 106.654 95.6856L106.598 95.6616C106.452 95.6031 106.268 95.5127 106.146 95.3531C106.056 95.236 106.002 95.0844 105.981 94.8929C105.952 94.6535 105.992 94.4567 106.098 94.3077C106.162 94.2252 106.242 94.1614 106.311 94.1082L106.346 94.0816C106.423 94.0204 106.468 93.9672 106.481 93.9167C106.489 93.8821 106.481 93.8449 106.465 93.8289C106.25 93.8156 104.914 93.7385 104.191 93.6986C104.095 93.6879 104.007 93.6932 103.928 93.7145C103.858 93.7305 103.811 93.7597 103.795 93.789C103.776 93.8262 103.787 93.8901 103.827 93.9858C103.835 94.0018 103.856 94.0071 103.885 94.0098C103.922 94.0151 103.957 94.0337 103.978 94.0656C103.999 94.0976 104.007 94.1348 103.999 94.172C103.84 94.853 103.175 95.2068 102.792 95.3557C102.6 95.4302 102.401 95.4914 102.209 95.5499C101.882 95.6483 101.576 95.7414 101.297 95.9037C101.233 95.9409 101.151 95.9197 101.116 95.8558C101.079 95.792 101.1 95.7122 101.164 95.6749C101.47 95.4994 101.808 95.3956 102.132 95.2972C102.318 95.2414 102.512 95.1828 102.693 95.111C102.943 95.0126 103.51 94.7413 103.702 94.2359C103.68 94.2252 103.659 94.2093 103.638 94.1907C103.606 94.1587 103.59 94.1188 103.579 94.0976C103.531 93.9858 103.478 93.8236 103.553 93.6746C103.606 93.5709 103.709 93.4964 103.858 93.4618C103.968 93.4326 104.087 93.4246 104.21 93.4379L105.356 93.5044C106.101 93.5469 106.415 93.5656 106.542 93.5975L106.55 93.5789C106.718 93.6454 106.774 93.8422 106.734 93.9912C106.694 94.1348 106.585 94.2332 106.508 94.2944L106.471 94.3237C106.407 94.3742 106.348 94.4194 106.306 94.4726C106.242 94.5604 106.218 94.6961 106.239 94.8663C106.255 95.0099 106.292 95.119 106.351 95.1961C106.433 95.3025 106.569 95.369 106.691 95.4196L106.747 95.4409C106.886 95.4967 107.026 95.5552 107.154 95.651C107.338 95.792 107.433 95.9995 107.402 96.1936C107.394 96.2601 107.338 96.3054 107.274 96.3054Z" fill="#000001"/>
<path d="M105.025 93.4091C105.014 93.4091 105.003 93.4091 104.993 93.4064C104.921 93.3878 104.878 93.316 104.894 93.2442C105.113 92.3637 105.376 91.4806 105.631 90.6267C105.903 89.717 106.185 88.7754 106.411 87.839C106.932 85.6658 107.033 83.9182 106.732 82.3328C106.589 81.5747 106.373 81.0055 106.057 80.5427C105.668 79.9787 105.123 79.5983 104.554 79.4973C104.482 79.484 104.434 79.4148 104.448 79.343C104.461 79.2712 104.533 79.2233 104.602 79.2366C105.238 79.351 105.849 79.7713 106.275 80.3937C106.615 80.8885 106.842 81.4896 106.993 82.285C107.302 83.9076 107.198 85.6924 106.669 87.9029C106.443 88.8472 106.161 89.7915 105.887 90.7065C105.631 91.5577 105.368 92.4355 105.152 93.3107C105.139 93.3692 105.083 93.4091 105.025 93.4091Z" fill="#000001"/>
<path d="M104.76 93.6933C104.749 93.6933 104.741 93.6933 104.731 93.6906C104.659 93.6746 104.614 93.6028 104.63 93.531C105.071 91.5653 105.526 89.533 105.742 87.4556C105.776 87.1257 105.805 86.7799 105.723 86.4554C105.635 86.1176 105.428 85.8596 105.167 85.7665C104.928 85.6813 104.622 85.7292 104.327 85.8968C103.864 86.1602 103.537 86.615 103.223 87.0566C103.18 87.1177 103.095 87.131 103.036 87.0885C102.978 87.0459 102.962 86.9635 103.005 86.9023C103.321 86.4607 103.68 85.9606 104.194 85.668C104.555 85.4606 104.944 85.4047 105.258 85.5164C105.601 85.6414 105.872 85.9686 105.981 86.3916C106.071 86.7586 106.042 87.1337 106.005 87.4848C105.787 89.5783 105.329 91.6185 104.888 93.5922C104.877 93.6507 104.821 93.6933 104.76 93.6933Z" fill="#000001"/>
<path d="M105.111 93.6324C105.097 93.6324 105.082 93.6297 105.068 93.6244C104.999 93.6005 104.962 93.526 104.986 93.4568C105.632 91.5443 106.302 89.5679 107.319 87.7751C107.619 87.2457 108.039 86.5754 108.625 86.0673C109.085 85.6683 109.824 85.3385 110.396 85.7189C110.676 85.9051 110.824 86.211 110.923 86.4557C111.226 87.2111 111.322 88.0357 111.194 88.8391C111.184 88.9109 111.114 88.9614 111.043 88.9508C110.971 88.9401 110.92 88.871 110.931 88.7992C111.051 88.0437 110.963 87.2697 110.676 86.5568C110.59 86.3466 110.465 86.0886 110.25 85.9423C109.806 85.6471 109.191 85.9343 108.8 86.2695C108.247 86.751 107.843 87.3973 107.553 87.9081C106.55 89.677 105.885 91.6427 105.241 93.5419C105.217 93.5978 105.167 93.6324 105.111 93.6324Z" fill="#000001"/>
<path d="M47.1197 107.587C47.0612 107.587 47.008 107.55 46.992 107.491L41.0788 86.4876C41.0682 86.4477 41.0762 86.4052 41.1001 86.3706C41.1241 86.3387 41.164 86.3174 41.2065 86.3174H91.704C91.7465 86.3174 91.7864 86.336 91.8104 86.3706C91.8343 86.4052 91.8423 86.4477 91.8316 86.4876L85.7668 107.454C85.7456 107.526 85.6711 107.565 85.6019 107.544C85.5301 107.523 85.4902 107.451 85.5115 107.379L91.5284 86.5834H41.3821L47.2474 107.417C47.266 107.488 47.2261 107.56 47.1543 107.581C47.1436 107.584 47.1303 107.587 47.1197 107.587Z" fill="#000001"/>
<path d="M65.6997 100.513C65.4231 100.513 65.1651 100.449 64.9337 100.319C63.9096 99.7444 63.7633 98.0553 64.6065 96.5524C65.4497 95.0495 66.9686 94.2914 67.99 94.866C69.0114 95.4405 69.1604 97.1296 68.3172 98.6325C67.9129 99.3534 67.3463 99.9253 66.7185 100.247C66.3674 100.423 66.0243 100.513 65.6997 100.513ZM67.2186 94.9351C66.3993 94.9351 65.4391 95.6054 64.8352 96.6801C64.0638 98.0553 64.1649 99.5821 65.0613 100.085C65.4869 100.324 66.0322 100.295 66.5962 100.008C67.1787 99.7098 67.708 99.1752 68.0858 98.4995C68.8572 97.1243 68.7561 95.5975 67.8597 95.0947C67.6628 94.9857 67.4474 94.9351 67.2186 94.9351Z" fill="#000001"/>
</svg>
