<svg width="400" height="400" viewBox="0 0 400 400" fill="none" xmlns="http://www.w3.org/2000/svg">
<path d="M225.625 66.0322H31.2246V83.7602H225.625V66.0322Z" fill="#FF6600"/>
<path d="M220.025 97.4076H159.625C159.401 97.4076 159.225 97.2316 159.225 97.0076V90.2076C159.225 89.9836 159.401 89.8076 159.625 89.8076H220.025C220.249 89.8076 220.425 89.9836 220.425 90.2076V97.0076C220.425 97.2316 220.249 97.4076 220.025 97.4076ZM160.025 96.6076H219.625V90.6076H160.025V96.6076Z" fill="#FF6600"/>
<path d="M168.023 109.408H106.023C105.799 109.408 105.623 109.232 105.623 109.008V102.208C105.623 101.984 105.799 101.808 106.023 101.808H168.023C168.247 101.808 168.423 101.984 168.423 102.208V109.008C168.423 109.232 168.247 109.408 168.023 109.408ZM106.423 108.608H167.623V102.608H106.423V108.608Z" fill="#FF6600"/>
<path d="M60.4238 123.007H36.8238C36.5998 123.007 36.4238 122.831 36.4238 122.607V115.807C36.4238 115.583 36.5998 115.407 36.8238 115.407H60.4238C60.6478 115.407 60.8238 115.583 60.8238 115.807V122.607C60.8238 122.831 60.6478 123.007 60.4238 123.007ZM37.2238 122.207H60.0238V116.207H37.2238V122.207Z" fill="#FF6600"/>
<path d="M220.025 123.007H133.625C133.401 123.007 133.225 122.831 133.225 122.607V115.807C133.225 115.583 133.401 115.407 133.625 115.407H220.025C220.249 115.407 220.425 115.583 220.425 115.807V122.607C220.425 122.831 220.249 123.007 220.025 123.007ZM134.025 122.207H219.625V116.207H134.025V122.207Z" fill="#FF6600"/>
<path d="M88.0238 135.808H36.8238C36.5998 135.808 36.4238 135.632 36.4238 135.408V128.608C36.4238 128.384 36.5998 128.208 36.8238 128.208H88.0238C88.2478 128.208 88.4238 128.384 88.4238 128.608V135.408C88.4238 135.632 88.2478 135.808 88.0238 135.808ZM37.2238 135.008H87.6238V129.008H37.2238V135.008Z" fill="#FF6600"/>
<path d="M66.4238 148.608H36.8238C36.5998 148.608 36.4238 148.432 36.4238 148.208V141.408C36.4238 141.184 36.5998 141.008 36.8238 141.008H66.4238C66.6478 141.008 66.8238 141.184 66.8238 141.408V148.208C66.8238 148.432 66.6478 148.608 66.4238 148.608ZM37.2238 147.808H66.0238V141.808H37.2238V147.808Z" fill="#FF6600"/>
<path d="M220.023 148.608H152.023C151.799 148.608 151.623 148.432 151.623 148.208V141.408C151.623 141.184 151.799 141.008 152.023 141.008H220.023C220.247 141.008 220.423 141.184 220.423 141.408V148.208C220.423 148.432 220.247 148.608 220.023 148.608ZM152.423 147.808H219.623V141.808H152.423V147.808Z" fill="#FF6600"/>
<path d="M178.424 161.808H120.824C120.6 161.808 120.424 161.632 120.424 161.408V154.608C120.424 154.384 120.6 154.208 120.824 154.208H178.424C178.648 154.208 178.824 154.384 178.824 154.608V161.408C178.824 161.632 178.648 161.808 178.424 161.808ZM121.224 161.008H178.024V155.008H121.224V161.008Z" fill="#FF6600"/>
<path d="M142.824 175.704H81.2242C81.0002 175.704 80.8242 175.528 80.8242 175.304V168.504C80.8242 168.28 81.0002 168.104 81.2242 168.104H142.824C143.048 168.104 143.224 168.28 143.224 168.504V175.304C143.224 175.528 143.048 175.704 142.824 175.704ZM81.6242 174.904H142.424V168.904H81.6242V174.904Z" fill="#FF6600"/>
<path d="M92.8238 188.904H36.8238C36.5998 188.904 36.4238 188.728 36.4238 188.504V181.704C36.4238 181.48 36.5998 181.304 36.8238 181.304H92.8238C93.0478 181.304 93.2238 181.48 93.2238 181.704V188.504C93.2238 188.728 93.0478 188.904 92.8238 188.904ZM37.2238 188.104H92.4238V182.104H37.2238V188.104Z" fill="#FF6600"/>
<path d="M64.8238 201.904H36.8238C36.5998 201.904 36.4238 201.728 36.4238 201.504V194.704C36.4238 194.48 36.5998 194.304 36.8238 194.304H64.8238C65.0478 194.304 65.2238 194.48 65.2238 194.704V201.504C65.2238 201.728 65.0478 201.904 64.8238 201.904ZM37.2238 201.104H64.4238V195.104H37.2238V201.104Z" fill="#FF6600"/>
<path d="M80.0238 97.4076H36.8238C36.5998 97.4076 36.4238 97.2316 36.4238 97.0076V90.2076C36.4238 89.9836 36.5998 89.8076 36.8238 89.8076H80.0238C80.2478 89.8076 80.4238 89.9836 80.4238 90.2076V97.0076C80.4238 97.2316 80.2478 97.4076 80.0238 97.4076ZM37.2238 96.6076H79.6238V90.6076H37.2238V96.6076Z" fill="#FF6600"/>
<path d="M220.025 188.904H163.625C163.401 188.904 163.225 188.728 163.225 188.504V181.704C163.225 181.48 163.401 181.304 163.625 181.304H220.025C220.249 181.304 220.425 181.48 220.425 181.704V188.504C220.425 188.728 220.249 188.904 220.025 188.904ZM164.025 188.104H219.625V182.104H164.025V188.104Z" fill="#FF6600"/>
<path d="M125.223 201.904H70.4234C70.1994 201.904 70.0234 201.728 70.0234 201.504V194.704C70.0234 194.48 70.1994 194.304 70.4234 194.304H125.223C125.447 194.304 125.623 194.48 125.623 194.704V201.504C125.623 201.728 125.447 201.904 125.223 201.904ZM70.8234 201.104H124.823V195.104H70.8234V201.104Z" fill="#FF6600"/>
<path d="M225.624 210.032H31.2242C31.0002 210.032 30.8242 209.856 30.8242 209.632V66.0318C30.8242 65.8078 31.0002 65.6318 31.2242 65.6318H225.624C225.848 65.6318 226.024 65.8078 226.024 66.0318V209.632C226.024 209.856 225.848 210.032 225.624 210.032ZM31.6242 209.232H225.224V66.4318H31.6242V209.232Z" fill="#00396D"/>
<path d="M41.3522 81.4242C37.7522 81.4242 34.8242 78.4962 34.8242 74.8962C34.8242 71.2962 37.7522 68.3682 41.3522 68.3682C44.9522 68.3682 47.8802 71.2962 47.8802 74.8962C47.8802 78.4962 44.9522 81.4242 41.3522 81.4242ZM41.3522 69.1682C38.1922 69.1682 35.6242 71.7362 35.6242 74.8962C35.6242 78.0562 38.1922 80.6242 41.3522 80.6242C44.5122 80.6242 47.0802 78.0562 47.0802 74.8962C47.0802 71.7362 44.5122 69.1682 41.3522 69.1682Z" fill="#00396D"/>
<path d="M57.7526 81.4242C54.1526 81.4242 51.2246 78.4962 51.2246 74.8962C51.2246 71.2962 54.1526 68.3682 57.7526 68.3682C61.3526 68.3682 64.2806 71.2962 64.2806 74.8962C64.2806 78.4962 61.3526 81.4242 57.7526 81.4242ZM57.7526 69.1682C54.5926 69.1682 52.0246 71.7362 52.0246 74.8962C52.0246 78.0562 54.5926 80.6242 57.7526 80.6242C60.9126 80.6242 63.4806 78.0562 63.4806 74.8962C63.4806 71.7362 60.9126 69.1682 57.7526 69.1682Z" fill="#00396D"/>
<path d="M74.153 81.4242C70.553 81.4242 67.625 78.4962 67.625 74.8962C67.625 71.2962 70.553 68.3682 74.153 68.3682C77.753 68.3682 80.681 71.2962 80.681 74.8962C80.681 78.4962 77.753 81.4242 74.153 81.4242ZM74.153 69.1682C70.993 69.1682 68.425 71.7362 68.425 74.8962C68.425 78.0562 70.993 80.6242 74.153 80.6242C77.313 80.6242 79.881 78.0562 79.881 74.8962C79.881 71.7362 77.313 69.1682 74.153 69.1682Z" fill="#00396D"/>
<path d="M155.625 97.4076H84.025C83.801 97.4076 83.625 97.2316 83.625 97.0076V90.2076C83.625 89.9836 83.801 89.8076 84.025 89.8076H155.625C155.849 89.8076 156.025 89.9836 156.025 90.2076V97.0076C156.025 97.2316 155.849 97.4076 155.625 97.4076ZM84.425 96.6076H155.225V90.6076H84.425V96.6076Z" fill="#00396D"/>
<path d="M102.024 109.408H36.8238C36.5998 109.408 36.4238 109.232 36.4238 109.008V102.208C36.4238 101.984 36.5998 101.808 36.8238 101.808H102.024C102.248 101.808 102.424 101.984 102.424 102.208V109.008C102.424 109.232 102.248 109.408 102.024 109.408ZM37.2238 108.608H101.624V102.608H37.2238V108.608Z" fill="#00396D"/>
<path d="M220.023 109.408H172.423C172.199 109.408 172.023 109.232 172.023 109.008V102.208C172.023 101.984 172.199 101.808 172.423 101.808H220.023C220.247 101.808 220.423 101.984 220.423 102.208V109.008C220.423 109.232 220.247 109.408 220.023 109.408ZM172.823 108.608H219.623V102.608H172.823V108.608Z" fill="#00396D"/>
<path d="M129.624 123.008H65.2242C65.0002 123.008 64.8242 122.832 64.8242 122.608V115.808C64.8242 115.584 65.0002 115.408 65.2242 115.408H129.624C129.848 115.408 130.024 115.584 130.024 115.808V122.608C130.024 122.832 129.848 123.008 129.624 123.008ZM65.6242 122.208H129.224V116.208H65.6242V122.208Z" fill="#00396D"/>
<path d="M189.824 135.808H92.8238C92.5998 135.808 92.4238 135.632 92.4238 135.408V128.608C92.4238 128.384 92.5998 128.208 92.8238 128.208H189.824C190.048 128.208 190.224 128.384 190.224 128.608V135.408C190.224 135.632 190.048 135.808 189.824 135.808ZM93.2238 135.008H189.424V129.008H93.2238V135.008Z" fill="#00396D"/>
<path d="M220.023 135.808H194.423C194.199 135.808 194.023 135.632 194.023 135.408V128.608C194.023 128.384 194.199 128.208 194.423 128.208H220.023C220.247 128.208 220.423 128.384 220.423 128.608V135.408C220.423 135.632 220.247 135.808 220.023 135.808ZM194.823 135.008H219.623V129.008H194.823V135.008Z" fill="#00396D"/>
<path d="M147.624 148.608H71.2242C71.0002 148.608 70.8242 148.432 70.8242 148.208V141.408C70.8242 141.184 71.0002 141.008 71.2242 141.008H147.624C147.848 141.008 148.024 141.184 148.024 141.408V148.208C148.024 148.432 147.848 148.608 147.624 148.608ZM71.6242 147.808H147.224V141.808H71.6242V147.808Z" fill="#00396D"/>
<path d="M115.624 161.808H36.8238C36.5998 161.808 36.4238 161.632 36.4238 161.408V154.608C36.4238 154.384 36.5998 154.208 36.8238 154.208H115.624C115.848 154.208 116.024 154.384 116.024 154.608V161.408C116.024 161.632 115.848 161.808 115.624 161.808ZM37.2238 161.008H115.224V155.008H37.2238V161.008Z" fill="#00396D"/>
<path d="M220.024 161.808H183.224C183 161.808 182.824 161.632 182.824 161.408V154.608C182.824 154.384 183 154.208 183.224 154.208H220.024C220.248 154.208 220.424 154.384 220.424 154.608V161.408C220.424 161.632 220.248 161.808 220.024 161.808ZM183.624 161.008H219.624V155.008H183.624V161.008Z" fill="#00396D"/>
<path d="M76.2238 175.704H36.8238C36.5998 175.704 36.4238 175.528 36.4238 175.304V168.504C36.4238 168.28 36.5998 168.104 36.8238 168.104H76.2238C76.4478 168.104 76.6238 168.28 76.6238 168.504V175.304C76.6238 175.528 76.4478 175.704 76.2238 175.704ZM37.2238 174.904H75.8238V168.904H37.2238V174.904Z" fill="#00396D"/>
<path d="M220.025 175.704H147.625C147.401 175.704 147.225 175.528 147.225 175.304V168.504C147.225 168.28 147.401 168.104 147.625 168.104H220.025C220.249 168.104 220.425 168.28 220.425 168.504V175.304C220.425 175.528 220.249 175.704 220.025 175.704ZM148.025 174.904H219.625V168.904H148.025V174.904Z" fill="#00396D"/>
<path d="M159.623 188.904H97.4234C97.1994 188.904 97.0234 188.728 97.0234 188.504V181.704C97.0234 181.48 97.1994 181.304 97.4234 181.304H159.623C159.847 181.304 160.023 181.48 160.023 181.704V188.504C160.023 188.728 159.847 188.904 159.623 188.904ZM97.8234 188.104H159.223V182.104H97.8234V188.104Z" fill="#00396D"/>
<path d="M220.025 201.904H129.625C129.401 201.904 129.225 201.728 129.225 201.504V194.704C129.225 194.48 129.401 194.304 129.625 194.304H220.025C220.249 194.304 220.425 194.48 220.425 194.704V201.504C220.425 201.728 220.249 201.904 220.025 201.904ZM130.025 201.104H219.625V195.104H130.025V201.104Z" fill="#00396D"/>
<path d="M334.368 66.832H269.568V111.232H334.368V66.832Z" fill="#00396D"/>
<path d="M368.776 141.232H269.568V185.632H368.776V141.232Z" fill="#00396D"/>
<path d="M290.487 100.608C290.287 100.608 290.095 100.536 289.935 100.392L278.695 89.7601C278.535 89.6081 278.447 89.4081 278.447 89.1921C278.447 88.9761 278.527 88.7681 278.679 88.6161L289.599 77.6881C289.911 77.3761 290.415 77.3761 290.727 77.6881C291.039 78.0001 291.039 78.5041 290.727 78.8161L280.391 89.1521L291.031 99.2161C291.351 99.5201 291.367 100.024 291.063 100.344C290.911 100.52 290.703 100.608 290.487 100.608Z" fill="#FF6600"/>
<path d="M313.447 100.608C313.239 100.608 313.023 100.528 312.863 100.36C312.559 100.04 312.575 99.5359 312.895 99.2319L323.535 89.1679L313.199 78.8239C312.887 78.5119 312.887 78.0079 313.199 77.6959C313.511 77.3839 314.015 77.3839 314.327 77.6959L325.247 88.6159C325.399 88.7679 325.487 88.9759 325.479 89.1919C325.479 89.4079 325.383 89.6159 325.231 89.7599L313.991 100.392C313.839 100.536 313.647 100.608 313.447 100.608Z" fill="#FF6600"/>
<path d="M296.751 101.144C296.631 101.144 296.511 101.12 296.391 101.056C295.999 100.856 295.839 100.376 296.039 99.9843L307.543 77.1043C307.743 76.7123 308.223 76.5523 308.615 76.7523C309.007 76.9523 309.167 77.4323 308.967 77.8243L297.463 100.704C297.327 100.984 297.047 101.144 296.751 101.144Z" fill="#FF6600"/>
<path d="M361.488 158.632H293.888C293.448 158.632 293.088 158.272 293.088 157.832V151.432C293.088 150.992 293.448 150.632 293.888 150.632H361.488C361.928 150.632 362.288 150.992 362.288 151.432V157.832C362.288 158.272 361.928 158.632 361.488 158.632ZM294.688 157.032H360.688V152.232H294.688V157.032Z" fill="#FF6600"/>
<path d="M361.488 176.232H293.888C293.448 176.232 293.088 175.872 293.088 175.432V169.032C293.088 168.592 293.448 168.232 293.888 168.232H361.488C361.928 168.232 362.288 168.592 362.288 169.032V175.432C362.288 175.872 361.928 176.232 361.488 176.232ZM294.688 174.632H360.688V169.832H294.688V174.632Z" fill="#FF6600"/>
<path d="M281.688 160.472C278.464 160.472 275.848 157.856 275.848 154.632C275.848 151.408 278.472 148.792 281.688 148.792C284.904 148.792 287.528 151.408 287.528 154.632C287.528 157.856 284.912 160.472 281.688 160.472ZM281.688 150.392C279.352 150.392 277.448 152.296 277.448 154.632C277.448 156.968 279.352 158.872 281.688 158.872C284.024 158.872 285.928 156.968 285.928 154.632C285.928 152.296 284.024 150.392 281.688 150.392Z" fill="#FF6600"/>
<path d="M281.688 178.073C278.464 178.073 275.848 175.457 275.848 172.233C275.848 169.009 278.472 166.393 281.688 166.393C284.904 166.393 287.528 169.009 287.528 172.233C287.528 175.457 284.912 178.073 281.688 178.073ZM281.688 167.993C279.352 167.993 277.448 169.897 277.448 172.233C277.448 174.569 279.352 176.473 281.688 176.473C284.024 176.473 285.928 174.569 285.928 172.233C285.928 169.897 284.024 167.993 281.688 167.993Z" fill="#FF6600"/>
<path d="M243.391 246.391C235.415 239.847 222.399 242.855 214.639 236.063C213.751 235.287 212.943 234.375 212.455 233.295C211.767 231.791 211.743 230.087 211.439 228.471C211.135 226.847 210.423 225.135 208.943 224.415C208.215 224.063 207.375 223.991 206.567 223.943C201.215 223.623 195.831 223.863 190.527 224.663C190.183 224.711 189.831 224.775 189.543 224.967C189.143 225.239 188.959 225.727 188.815 226.183C187.919 229.023 187.647 232.159 185.879 234.551C184.767 236.063 183.151 237.127 181.455 237.927C173.447 241.735 163.327 240.327 156.095 245.575C154.983 243.927 155.631 241.543 157.079 240.191C158.535 238.839 160.567 238.311 162.543 238.055C164.511 237.799 166.535 237.767 168.431 237.175C169.191 236.943 169.983 236.567 170.351 235.863C170.719 235.159 170.575 234.303 170.743 233.519C171.087 231.919 172.623 230.919 174.039 230.095C176.991 228.367 180.079 226.503 181.751 223.511C183.071 221.135 183.327 218.335 183.855 215.663C184.527 212.239 185.679 208.807 185.247 205.343C185.095 204.111 184.735 202.911 184.375 201.727C183.223 197.999 181.951 194.303 180.535 190.615C180.007 184.975 181.079 179.111 184.079 174.303C187.071 169.495 192.079 165.855 197.679 165.023C198.655 164.879 199.663 164.815 200.639 164.967C201.991 165.175 203.271 165.767 204.631 165.903C206.295 166.071 208.023 165.535 209.631 165.999C211.271 166.471 212.455 167.871 213.503 169.223C214.439 170.423 215.367 171.679 216.111 173.575C218.735 179.647 219.447 186.535 217.887 193.287C215.263 198.495 214.167 204.463 214.959 210.399C214.783 214.159 215.207 217.999 216.695 221.455C218.183 224.911 220.815 227.959 224.247 229.487C225.919 230.231 227.951 230.783 228.719 232.439C229.119 233.303 229.087 234.311 229.431 235.191C229.983 236.583 231.415 237.455 232.863 237.815C234.311 238.175 235.831 238.143 237.327 238.279C239.335 238.471 241.399 239.039 242.823 240.463C244.247 241.903 244.783 244.343 243.391 246.391Z" fill="#FF6600"/>
<path d="M146.84 259.919C146.936 258.047 147.896 256.351 148.896 254.767C151.72 250.311 155.176 246.047 159.864 243.607C165.72 240.559 172.688 240.759 179.064 239.039C180.32 238.703 181.568 238.279 182.688 237.607C185.904 235.671 187.552 231.943 188.632 228.351C189.104 226.791 189.696 224.991 191.224 224.439C191.224 225.327 191.224 226.207 191.432 227.087C193.904 227.343 196.272 228.263 198.744 228.551C201.192 228.839 203.68 228.503 206.04 227.799C206.584 227.639 207.136 227.447 207.592 227.111C208.048 226.775 208.408 226.255 208.424 225.687C208.432 225.271 208.328 224.727 208.704 224.543C208.888 224.455 209.104 224.511 209.296 224.591C210.144 224.959 210.744 225.751 211.08 226.607C211.416 227.463 211.52 228.399 211.624 229.311C211.736 230.327 211.848 231.343 212.064 232.655C212.92 233.967 213.792 235.295 214.936 236.359C216.296 237.623 217.992 238.479 219.744 239.095C221.496 239.711 223.32 240.095 225.384 240.935C227.496 241.279 229.608 241.623 231.72 241.967C233.784 242.303 235.856 242.647 237.824 243.343C242.264 244.919 245.92 248.255 248.6 252.127C250.224 254.471 251.576 257.183 251.472 260.039L146.84 259.919Z" fill="#00396D"/>
<path d="M259.336 317.575C261.032 316.823 262.736 316.071 264.432 315.319C267.368 314.015 270.512 312.527 272.008 309.687C273.592 306.679 272.864 302.967 271.536 299.839C270.208 296.711 268.312 293.791 267.504 290.735C267.36 290.375 267.136 290.055 266.856 289.791C266.784 290.327 266.744 290.871 266.736 291.415L259.336 317.575Z" fill="#00396D"/>
<path d="M132.496 290.848C130.216 294.56 128.512 298.632 127.472 302.864C127.008 304.768 126.672 306.792 127.256 308.656C128.12 311.408 130.744 313.184 133.288 314.552C135.656 315.824 138.112 316.928 140.632 317.864L132.496 290.848Z" fill="#00396D"/>
<path d="M204.697 175.999C206.433 181.303 209.801 186.063 214.241 189.447C214.241 189.447 214.889 193.495 214.985 193.487C215.377 192.999 215.873 192.567 216.473 192.407C217.513 192.119 218.657 192.743 219.217 193.663C219.777 194.583 219.857 195.727 219.721 196.799C219.505 198.495 218.801 200.095 217.937 201.575C217.033 203.119 215.921 204.591 214.369 205.903C212.801 209.911 210.961 213.815 208.857 217.567C208.857 217.567 208.601 225.855 208.545 226.055C207.881 226.823 206.905 227.239 205.945 227.559C201.193 229.119 195.849 228.799 191.313 226.679C191.313 226.679 190.569 217.327 190.545 217.127C188.025 213.415 186.161 209.263 184.913 204.839C181.417 203.207 179.129 199.311 179.401 195.471C179.457 194.639 179.641 193.791 180.145 193.127C180.649 192.463 181.537 192.047 182.329 192.295C183.009 192.503 183.473 193.135 183.785 193.767C183.785 192.079 184.385 190.391 185.753 188.991C193.313 187.087 200.113 182.279 204.697 175.999Z" fill="#FFDC32"/>
<path d="M192.856 195.983C193.519 195.983 194.056 194.866 194.056 193.487C194.056 192.109 193.519 190.991 192.856 190.991C192.194 190.991 191.656 192.109 191.656 193.487C191.656 194.866 192.194 195.983 192.856 195.983Z" fill="#000001"/>
<path d="M206.552 195.983C207.214 195.983 207.752 194.866 207.752 193.487C207.752 192.109 207.214 190.991 206.552 190.991C205.889 190.991 205.352 192.109 205.352 193.487C205.352 194.866 205.889 195.983 206.552 195.983Z" fill="#000001"/>
<path d="M200.336 205.112C200.224 205.112 200.112 205.064 200.032 204.968C199.84 204.744 199.76 204.456 199.808 204.144C199.872 203.72 200.176 203.272 200.584 203.008C200.744 202.904 200.912 202.816 201.08 202.736C201.384 202.584 201.672 202.44 201.824 202.208C202.088 201.84 201.968 201.288 201.784 200.928C201.624 200.616 201.392 200.328 201.144 200.024C201.016 199.864 200.88 199.704 200.76 199.536C199.112 197.28 199.192 194.376 199.424 191.344C199.44 191.128 199.632 190.96 199.856 190.976C200.08 190.992 200.24 191.184 200.224 191.408C200 194.28 199.912 197.024 201.4 199.056C201.512 199.208 201.632 199.36 201.76 199.504C202.024 199.824 202.296 200.152 202.496 200.544C202.8 201.136 202.952 202 202.48 202.656C202.208 203.04 201.8 203.248 201.44 203.432C201.296 203.504 201.152 203.576 201.016 203.664C200.808 203.8 200.632 204.048 200.6 204.248C200.584 204.352 200.616 204.4 200.64 204.44C200.784 204.608 200.76 204.864 200.592 205.008C200.52 205.08 200.424 205.112 200.336 205.112Z" fill="#000001"/>
<path d="M189.144 190.423C188.984 190.423 188.84 190.327 188.776 190.175C188.688 189.967 188.792 189.735 188.992 189.655C191.44 188.647 194.256 188.623 196.712 189.591C196.92 189.671 197.016 189.903 196.936 190.111C196.856 190.319 196.624 190.415 196.416 190.335C194.144 189.439 191.544 189.463 189.288 190.399C189.248 190.415 189.192 190.423 189.144 190.423Z" fill="#000001"/>
<path d="M202.672 190.408C202.52 190.408 202.376 190.32 202.312 190.176C202.216 189.976 202.304 189.736 202.512 189.648C205.008 188.496 208.024 188.416 210.584 189.416C210.792 189.496 210.888 189.728 210.808 189.936C210.728 190.144 210.496 190.24 210.288 190.16C207.928 189.232 205.144 189.312 202.84 190.376C202.784 190.4 202.728 190.408 202.672 190.408Z" fill="#000001"/>
<path d="M203.695 211.015C203.663 211.015 203.623 211.007 203.591 210.999C203.375 210.943 203.255 210.719 203.311 210.511C203.479 209.887 203.599 209.263 203.671 208.615C203.719 208.103 203.663 207.775 203.487 207.623C203.359 207.511 203.135 207.479 202.887 207.519C202.663 207.567 202.431 207.679 202.191 207.799L202.071 207.855C200.311 208.711 198.695 208.983 197.255 208.663C197.039 208.615 196.903 208.399 196.951 208.183C196.999 207.967 197.215 207.831 197.431 207.879C198.671 208.159 200.151 207.903 201.719 207.135L201.839 207.079C202.119 206.943 202.407 206.799 202.735 206.735C203.223 206.639 203.695 206.743 204.015 207.015C204.527 207.463 204.519 208.183 204.471 208.695C204.399 209.391 204.271 210.055 204.095 210.719C204.031 210.895 203.871 211.015 203.695 211.015Z" fill="#000001"/>
<path d="M216.615 190.959C216.567 190.959 216.519 190.951 216.471 190.935C213.663 189.871 211.007 187.727 208.807 184.735C207.039 182.319 205.695 179.591 204.391 176.767C199.127 184.431 190.287 189.463 181.151 189.943C180.919 189.943 180.743 189.783 180.727 189.567C180.719 189.343 180.887 189.159 181.103 189.143C190.223 188.663 199.047 183.527 204.119 175.735C204.199 175.615 204.335 175.543 204.487 175.551C204.631 175.559 204.759 175.647 204.823 175.783C206.199 178.799 207.591 181.719 209.455 184.263C211.559 187.135 214.087 189.183 216.751 190.191C216.959 190.271 217.063 190.503 216.983 190.703C216.927 190.863 216.775 190.959 216.615 190.959Z" fill="#000001"/>
<path d="M215.343 205.288C215.223 205.288 215.111 205.24 215.031 205.136C214.895 204.96 214.919 204.712 215.095 204.576C217.815 202.408 219.391 198.904 219.191 195.424C219.159 194.904 219.079 194.24 218.759 193.712C218.375 193.088 217.615 192.704 216.879 192.76C216.151 192.816 215.455 193.304 215.159 193.984C215.087 194.144 214.911 194.24 214.743 194.224C214.567 194.2 214.423 194.064 214.399 193.888C214.335 193.472 214.271 193.056 214.215 192.648C214.063 191.592 213.919 190.6 213.703 189.616C213.655 189.4 213.791 189.184 214.007 189.136C214.223 189.088 214.439 189.224 214.487 189.44C214.719 190.456 214.863 191.464 215.015 192.536C215.023 192.616 215.039 192.704 215.047 192.784C215.527 192.32 216.167 192.016 216.823 191.968C217.855 191.896 218.903 192.432 219.439 193.304C219.855 193.976 219.951 194.768 219.983 195.384C220.191 199.12 218.503 202.888 215.583 205.208C215.519 205.264 215.431 205.288 215.343 205.288Z" fill="#000001"/>
<path d="M184.48 205.064C184.416 205.064 184.352 205.048 184.296 205.016C181.632 203.624 179.672 200.92 179.184 197.952C179.04 197.072 179.016 196.208 179.008 195.248C179.008 194.584 179.008 193.768 179.376 193.064C179.912 192.016 181.176 191.448 182.32 191.728C182.84 191.856 183.304 192.16 183.648 192.568C183.888 191.168 184.36 189.84 185.04 188.72C185.152 188.528 185.4 188.472 185.592 188.584C185.784 188.696 185.84 188.944 185.728 189.136C184.848 190.592 184.328 192.424 184.28 194.296C184.272 194.512 184.096 194.688 183.88 194.688H183.872C183.656 194.68 183.48 194.504 183.48 194.28C183.496 193.48 182.896 192.704 182.128 192.504C181.352 192.304 180.464 192.712 180.096 193.424C179.816 193.96 179.816 194.64 179.816 195.24C179.824 196.16 179.84 196.992 179.976 197.816C180.424 200.544 182.224 203.024 184.672 204.304C184.864 204.408 184.944 204.648 184.84 204.84C184.76 204.984 184.624 205.064 184.48 205.064Z" fill="#000001"/>
<path d="M199.743 224.711C199.231 224.711 198.735 224.647 198.263 224.511C197.167 224.207 196.247 223.559 195.487 222.967C191.823 220.135 188.799 216.039 186.735 211.127C185.039 207.095 183.919 202.407 183.295 196.783C183.271 196.567 183.431 196.367 183.647 196.343C183.863 196.319 184.063 196.479 184.087 196.695C184.695 202.239 185.807 206.855 187.463 210.815C189.479 215.607 192.415 219.591 195.967 222.335C196.663 222.879 197.503 223.471 198.471 223.735C199.735 224.095 201.263 223.871 202.663 223.119C203.783 222.519 204.831 221.623 206.079 220.215C212.815 212.639 214.991 202.927 215.639 196.111C215.663 195.895 215.863 195.727 216.071 195.751C216.295 195.775 216.455 195.967 216.431 196.183C215.775 203.111 213.559 212.999 206.679 220.743C205.367 222.223 204.247 223.175 203.039 223.823C201.951 224.415 200.823 224.711 199.743 224.711Z" fill="#000001"/>
<path d="M185.457 182.712C185.297 182.712 185.137 182.608 185.081 182.448C185.001 182.24 185.113 182.008 185.321 181.936C191.273 179.752 196.545 175.36 199.769 169.888C199.881 169.696 200.129 169.632 200.313 169.744C200.505 169.856 200.569 170.104 200.457 170.288C197.089 176 191.809 180.408 185.593 182.688C185.553 182.704 185.505 182.712 185.457 182.712Z" fill="#000001"/>
<path d="M184.304 178.752C184.208 178.752 184.12 178.72 184.04 178.656C183.872 178.512 183.856 178.256 184 178.088C184.608 177.392 185.44 177.024 186.24 176.656C187.048 176.296 187.816 175.952 188.288 175.312C188.472 175.064 188.616 174.784 188.76 174.48C188.856 174.288 188.952 174.088 189.056 173.904C190 172.272 191.72 171.488 193.376 170.728C194.632 170.152 195.936 169.552 196.856 168.6C197.008 168.44 197.264 168.432 197.424 168.584C197.584 168.736 197.592 168.992 197.44 169.152C196.416 170.216 195.048 170.848 193.72 171.456C192.104 172.2 190.576 172.896 189.76 174.304C189.664 174.472 189.576 174.648 189.496 174.824C189.336 175.152 189.176 175.488 188.944 175.792C188.344 176.592 187.448 176.992 186.584 177.376C185.824 177.72 185.104 178.04 184.616 178.6C184.528 178.704 184.416 178.752 184.304 178.752Z" fill="#000001"/>
<path d="M214.776 184.16C214.696 184.16 214.616 184.136 214.552 184.088C213.216 183.168 212.72 181.624 212.24 180.136C211.92 179.136 211.584 178.112 211.008 177.304C210.712 176.896 210.352 176.544 209.968 176.168C209.544 175.752 209.104 175.32 208.752 174.8C207.584 173.088 207.64 170.872 207.68 169.096C207.688 168.88 207.888 168.704 208.088 168.704C208.312 168.712 208.48 168.896 208.48 169.112C208.44 170.776 208.384 172.848 209.408 174.352C209.712 174.8 210.112 175.192 210.528 175.6C210.92 175.984 211.32 176.376 211.656 176.84C212.312 177.752 212.664 178.84 213 179.896C213.456 181.32 213.888 182.664 215.008 183.432C215.192 183.56 215.232 183.808 215.112 183.992C215.024 184.096 214.904 184.16 214.776 184.16Z" fill="#000001"/>
<path d="M218.551 191.303C218.543 191.303 218.543 191.303 218.535 191.303C218.311 191.295 218.143 191.103 218.151 190.887C218.599 181.087 216.983 174.183 213.063 169.167C212.119 167.951 211.231 167.143 210.287 166.631C209.119 165.999 207.839 165.847 206.791 166.199C206.583 166.271 206.359 166.159 206.287 165.951C206.215 165.743 206.327 165.511 206.535 165.447C207.799 165.015 209.303 165.191 210.671 165.927C211.719 166.495 212.687 167.367 213.703 168.671C217.743 173.847 219.415 180.911 218.951 190.919C218.943 191.135 218.767 191.303 218.551 191.303Z" fill="#000001"/>
<path d="M204.599 166.472C204.503 166.472 204.407 166.44 204.335 166.376C204.167 166.232 204.151 165.976 204.295 165.808L204.815 165.216C204.959 165.048 205.215 165.032 205.383 165.184C205.551 165.328 205.567 165.584 205.415 165.752L204.895 166.344C204.823 166.424 204.711 166.472 204.599 166.472Z" fill="#000001"/>
<path d="M180.608 191.392C180.416 191.392 180.248 191.256 180.216 191.064C179.688 188.112 179.944 184.864 180.992 181.12C182.528 175.624 185.24 171.176 188.816 168.248C193.048 164.792 198.736 163.6 203.304 165.2C203.512 165.272 203.624 165.504 203.552 165.712C203.48 165.92 203.248 166.032 203.04 165.96C198.72 164.448 193.336 165.592 189.32 168.88C184.952 172.448 182.8 177.632 181.76 181.352C180.744 184.976 180.496 188.112 181 190.944C181.04 191.16 180.896 191.368 180.68 191.408C180.656 191.392 180.632 191.392 180.608 191.392Z" fill="#000001"/>
<path d="M244.144 245.248C244.104 245.248 244.056 245.24 244.008 245.224C243.8 245.152 243.688 244.92 243.76 244.712C244.336 243.072 243.368 241.336 242.224 240.424C240.768 239.264 238.8 238.912 237.44 238.752C236.896 238.688 236.344 238.64 235.792 238.592C234.568 238.488 233.312 238.384 232.088 238.08C230.176 237.6 228.904 236.56 228.592 235.248C228.48 234.76 228.504 234.272 228.528 233.8C228.552 233.312 228.576 232.848 228.44 232.44C228.08 231.312 226.72 230.88 225.408 230.464C225.2 230.4 225 230.336 224.8 230.264C221.008 228.984 217.864 225.6 216.176 220.968C214.696 216.904 214.472 212.52 214.256 208.28C214.248 208.056 214.416 207.872 214.632 207.864C214.88 207.832 215.04 208.024 215.048 208.24C215.264 212.416 215.48 216.736 216.92 220.688C218.52 225.088 221.488 228.296 225.048 229.504C225.24 229.568 225.44 229.632 225.64 229.696C227.072 230.152 228.696 230.672 229.184 232.192C229.368 232.744 229.336 233.304 229.312 233.84C229.288 234.272 229.272 234.688 229.36 235.064C229.696 236.504 231.504 237.112 232.272 237.304C233.432 237.592 234.656 237.696 235.848 237.8C236.408 237.848 236.968 237.896 237.528 237.96C238.984 238.136 241.096 238.52 242.712 239.8C244.376 241.128 245.112 243.256 244.504 244.984C244.464 245.144 244.312 245.248 244.144 245.248Z" fill="#000001"/>
<path d="M155.496 243.936C155.28 243.936 155.104 243.768 155.096 243.552C154.984 241 157.256 239.096 159.408 238.408C160.888 237.936 162.44 237.84 163.944 237.752C164.664 237.712 165.4 237.664 166.12 237.584C168.024 237.368 169.256 236.736 169.792 235.72C170.048 235.224 170.128 234.648 170.216 234.032C170.296 233.44 170.384 232.824 170.64 232.256C171.36 230.656 173 230.008 174.592 229.384C175.176 229.152 175.776 228.92 176.312 228.64C178.176 227.664 179.712 225.888 181.136 223.04C183.456 218.416 184.616 213.232 184.472 208.048C184.464 207.824 184.64 207.64 184.864 207.64C185.056 207.64 185.272 207.808 185.272 208.032C185.416 213.352 184.24 218.664 181.856 223.408C180.352 226.408 178.704 228.304 176.68 229.36C176.112 229.656 175.488 229.904 174.888 230.136C173.384 230.728 171.96 231.288 171.376 232.592C171.168 233.064 171.096 233.592 171.016 234.16C170.928 234.816 170.832 235.488 170.512 236.104C169.848 237.376 168.408 238.152 166.224 238.4C165.488 238.488 164.736 238.536 164.008 238.576C162.488 238.664 161.056 238.752 159.672 239.192C157.736 239.808 155.832 241.496 155.92 243.536C155.928 243.76 155.76 243.944 155.536 243.952C155.504 243.936 155.504 243.936 155.496 243.936Z" fill="#000001"/>
<path d="M200.056 229.095C200.008 229.095 199.952 229.095 199.904 229.095C197.096 229.071 194.12 228.423 191.056 227.159C190.896 227.095 190.8 226.943 190.808 226.767C190.984 223.071 190.712 219.903 189.976 217.079C189.92 216.863 190.048 216.647 190.264 216.591C190.48 216.535 190.696 216.663 190.752 216.879C191.488 219.711 191.776 222.871 191.624 226.527C194.496 227.679 197.288 228.271 199.912 228.295C202.92 228.343 205.736 227.575 208.072 226.151C207.832 223.079 208.008 219.991 208.592 216.975C208.632 216.759 208.848 216.615 209.064 216.655C209.28 216.695 209.424 216.911 209.384 217.127C208.8 220.151 208.632 223.247 208.896 226.327C208.912 226.479 208.84 226.615 208.712 226.695C206.24 228.271 203.256 229.095 200.056 229.095Z" fill="#000001"/>
<path d="M146.96 258.992C146.912 258.992 146.856 258.984 146.808 258.96C146.608 258.872 146.504 258.64 146.592 258.44C148.52 253.784 153.056 245.48 161.792 242.184C164.736 241.072 167.904 240.656 170.968 240.248L171.12 240.224C174.464 239.776 177.456 239.32 180.232 238.184C183.408 236.888 185.808 234.8 187 232.312C187.752 230.728 188.056 228.96 188.264 227.28C188.568 224.936 189.536 224.368 190.288 224.296C190.512 224.28 190.704 224.44 190.72 224.664C190.736 224.88 190.576 225.08 190.352 225.096C189.512 225.168 189.176 226.376 189.048 227.384C188.824 229.128 188.512 230.976 187.712 232.656C186.432 235.328 183.888 237.552 180.528 238.928C177.664 240.096 174.624 240.568 171.224 241.016L171.072 241.032C168.056 241.432 164.936 241.848 162.072 242.928C153.624 246.112 149.208 254.2 147.336 258.736C147.264 258.896 147.12 258.992 146.96 258.992Z" fill="#000001"/>
<path d="M251.495 259.048C251.319 259.048 251.151 258.928 251.103 258.744C249.183 251.08 243.127 244.776 236.039 243.048C234.687 242.72 233.279 242.536 231.919 242.36C231.415 242.296 230.911 242.232 230.407 242.16C227.199 241.696 224.023 240.96 220.975 239.968C218.167 239.056 214.215 237.456 212.327 234.112C211.567 232.776 211.127 231.128 210.959 229.056L210.927 228.584C210.879 227.84 210.823 227.144 210.607 226.488C210.383 225.84 209.879 225.072 209.103 224.88C208.887 224.824 208.759 224.608 208.807 224.392C208.863 224.176 209.071 224.048 209.295 224.096C210.215 224.32 210.991 225.12 211.359 226.224C211.615 226.976 211.671 227.76 211.719 228.52L211.751 228.984C211.911 230.936 212.319 232.48 213.023 233.704C214.751 236.768 218.311 238.248 221.223 239.192C224.231 240.168 227.359 240.896 230.527 241.352C231.023 241.424 231.527 241.488 232.031 241.552C233.415 241.728 234.847 241.912 236.239 242.256C243.615 244.056 249.903 250.6 251.895 258.536C251.951 258.752 251.815 258.968 251.607 259.024C251.559 259.04 251.527 259.048 251.495 259.048Z" fill="#000001"/>
<path d="M197.92 243.111C197.136 243.111 196.352 243.079 195.568 243.007C193.224 242.791 191.32 242.279 189.736 241.439C187.752 240.383 186.288 238.799 185.616 236.975C185.536 236.767 185.648 236.535 185.856 236.463C186.064 236.391 186.296 236.495 186.368 236.703C186.968 238.343 188.296 239.775 190.112 240.735C191.6 241.519 193.408 241.999 195.64 242.207C199.568 242.567 203.576 241.991 207.224 240.551C207.432 240.471 207.664 240.567 207.744 240.775C207.824 240.983 207.728 241.215 207.52 241.295C204.48 242.495 201.2 243.111 197.92 243.111Z" fill="#000001"/>
<path d="M189.664 237.2C189.616 237.2 189.56 237.192 189.512 237.168C189.304 237.088 189.208 236.856 189.288 236.648C190.296 234.152 190.808 231.4 190.776 228.696C190.776 228.472 190.952 228.296 191.168 228.288C191.168 228.288 191.168 228.288 191.176 228.288C191.392 228.288 191.576 228.464 191.576 228.68C191.608 231.488 191.072 234.344 190.024 236.936C189.976 237.104 189.824 237.2 189.664 237.2Z" fill="#000001"/>
<path d="M193.945 238.631C193.913 238.631 193.873 238.623 193.841 238.615C193.625 238.559 193.505 238.335 193.561 238.127C194.217 235.703 194.553 233.223 194.569 230.759C194.569 230.535 194.753 230.359 194.969 230.359C195.193 230.359 195.369 230.543 195.369 230.759C195.353 233.295 195.001 235.839 194.329 238.335C194.281 238.511 194.121 238.631 193.945 238.631Z" fill="#000001"/>
<path d="M199.511 240C199.295 240 199.119 239.824 199.111 239.608C199.055 237.192 199.048 234.736 199.088 232.304C199.088 232.088 199.272 231.912 199.488 231.912H199.495C199.719 231.912 199.896 232.096 199.888 232.32C199.848 234.736 199.855 237.184 199.911 239.592C199.919 239.816 199.743 239.992 199.519 240H199.511Z" fill="#000001"/>
<path d="M205.648 238.76C205.512 238.76 205.376 238.688 205.304 238.56C204.952 237.96 204.848 237.296 204.76 236.6C204.528 234.744 204.408 232.848 204.4 230.984C204.4 230.76 204.576 230.584 204.8 230.584C205.024 230.584 205.2 230.76 205.2 230.984C205.208 232.824 205.328 234.68 205.56 236.504C205.64 237.136 205.728 237.696 206 238.16C206.112 238.352 206.048 238.592 205.856 238.704C205.784 238.744 205.72 238.76 205.648 238.76Z" fill="#000001"/>
<path d="M210.328 237.248C210.2 237.248 210.072 237.184 209.992 237.072C208.488 234.816 208.2 232 208.112 229.296C208.104 229.072 208.28 228.888 208.496 228.88C208.504 228.88 208.504 228.88 208.512 228.88C208.728 228.88 208.904 229.048 208.912 229.264C209 231.848 209.272 234.528 210.664 236.624C210.784 236.808 210.736 237.056 210.552 237.176C210.48 237.224 210.408 237.248 210.328 237.248Z" fill="#000001"/>
<path d="M138.632 317.567C138.568 317.567 138.504 317.551 138.448 317.519C137.528 317.031 136.552 316.583 135.608 316.159C134.384 315.599 133.112 315.023 131.92 314.327C129.344 312.815 127.664 310.991 126.92 308.895C125.848 305.863 126.8 302.599 127.992 299.527C129.024 296.847 130.2 294.191 131.48 291.615C131.576 291.415 131.816 291.335 132.016 291.439C132.216 291.535 132.296 291.775 132.192 291.975C130.92 294.527 129.76 297.167 128.736 299.823C127.6 302.751 126.68 305.847 127.664 308.631C128.344 310.543 129.904 312.223 132.312 313.639C133.472 314.319 134.72 314.887 135.928 315.431C136.88 315.863 137.864 316.311 138.808 316.815C139 316.919 139.08 317.159 138.976 317.359C138.912 317.487 138.776 317.567 138.632 317.567Z" fill="#000001"/>
<path d="M260.855 317.208C260.711 317.208 260.567 317.128 260.495 316.992C260.391 316.792 260.471 316.552 260.671 316.456L261.791 315.88C262.719 315.408 263.647 314.928 264.575 314.456C266.175 313.64 267.831 312.8 269.239 311.648C270.311 310.768 271.703 309.32 272.215 307.376C272.511 306.248 272.511 304.968 272.215 303.44C271.727 300.976 270.607 298.632 269.519 296.376C268.767 294.816 267.991 293.2 267.415 291.536C267.343 291.328 267.455 291.104 267.663 291.024C267.871 290.952 268.103 291.064 268.175 291.272C268.735 292.896 269.503 294.488 270.239 296.024C271.351 298.328 272.495 300.712 272.999 303.28C273.319 304.92 273.311 306.328 272.983 307.568C272.415 309.72 270.903 311.304 269.735 312.256C268.255 313.456 266.567 314.32 264.927 315.16C263.999 315.632 263.071 316.112 262.143 316.584L261.023 317.16C260.983 317.192 260.919 317.208 260.855 317.208Z" fill="#000001"/>
<path d="M220.112 323.296H142L141.352 322.368L124 259.992L237.688 259.824L249.504 276.456L251.008 301.448L220.112 323.296Z" fill="white"/>
<path d="M312.384 282.784C313.48 282.72 314.552 283.248 315.336 284.024C316.12 284.8 316.632 285.8 317.016 286.832C318.28 290.2 318.28 293.928 317.656 297.472C317.024 301.016 315.792 304.416 314.632 307.816C313.624 310.76 312.656 313.736 311.144 316.448C309.632 319.168 307.52 321.64 304.744 323.04L292.672 322.936C292.672 322.936 304.088 288.912 304.264 288.784C304.488 288.192 305.016 287.76 305.584 287.488C306.16 287.216 306.784 287.088 307.392 286.92C308.288 286.68 309.16 286.376 310.008 286.008C310.608 285.744 311.208 285.44 311.672 284.976C312.136 284.512 312.456 283.88 312.384 282.784Z" fill="white"/>
<path d="M83.4084 293.784H98.6644L100.512 301.048L96.2724 316.984L90.7204 323.168L73.5684 322.984L83.4084 293.784Z" fill="white"/>
<path d="M318.649 260.976C318.505 260.504 318.329 260.024 317.985 259.664C317.641 259.304 317.113 259.08 316.649 259.24C316.353 259.336 316.129 259.568 315.921 259.8C314.649 261.216 313.777 262.968 312.473 264.352C311.897 264.968 311.185 265.528 310.353 265.648C309.289 265.808 308.201 265.2 307.633 264.288C307.065 263.376 306.977 262.224 307.209 261.176C307.601 259.456 308.809 258.024 310.177 256.912C311.041 256.208 312.001 255.592 313.081 255.32C314.161 255.048 315.377 255.176 316.265 255.84C317.009 256.392 317.457 257.248 317.777 258.12C318.081 258.944 318.305 259.792 318.649 260.976Z" fill="#FF6600"/>
<path d="M326.096 260.136C326.8 259.336 328.144 259.216 328.984 259.872C329.592 260.352 329.888 261.12 330.056 261.872C330.496 263.792 330.296 265.8 330.544 267.752C330.656 268.624 330.872 269.528 331.456 270.184C332.344 271.2 334.032 271.384 335.12 270.576C336.352 269.664 336.576 267.928 336.608 266.4C336.632 264.928 336.568 263.44 336.232 262.008C335.888 260.576 335.264 259.192 334.264 258.104C333.912 257.72 333.504 257.368 333.032 257.152C332.408 256.864 331.688 256.816 331.008 256.888C329.272 257.08 327.648 258.016 326.096 260.136Z" fill="#FF6600"/>
<path d="M312.568 281.688C312.256 281.552 311.936 281.944 311.992 282.272C312.048 282.6 312.328 282.848 312.592 283.056C312.856 283.264 313.136 283.504 313.208 283.832C313.264 284.112 313.16 284.432 313.32 284.664C313.448 284.848 313.696 284.904 313.904 284.976C314.36 285.128 314.76 285.432 315.04 285.824C315.296 286.184 315.44 286.6 315.672 286.976C315.984 287.48 316.44 287.88 316.784 288.368C318.04 290.136 317.552 292.568 316.96 294.656C314.016 305.048 309.656 315.224 302.656 323.44L312.296 323.168C312.296 323.168 322.816 290.4 322.776 290.44C322.768 289.624 322.712 288.68 322.064 288.176C321.768 287.944 321.384 287.848 321.04 287.696C320.24 287.352 319.576 286.688 319.304 285.864C319.032 285.04 319.192 284.072 319.768 283.424C319.984 283.184 320.24 282.992 320.416 282.72C320.584 282.448 320.624 282.056 320.4 281.832L312.568 281.688Z" fill="#FFDC32"/>
<path d="M96.1613 293.968C97.3453 294.096 98.2733 295.144 98.6173 296.288C98.9613 297.432 98.8333 298.656 98.6573 299.84C97.9773 304.552 96.6813 309.216 94.3773 313.384C92.0733 317.552 88.7293 321.208 84.5293 323.456L97.9933 323.04L107.713 294.024L96.1613 293.968Z" fill="#FFDC32"/>
<path d="M210.6 260.248C217.528 260.192 224.464 261.192 231.096 263.2C232.872 263.736 234.896 264.64 235.264 266.456C235.704 268.624 233.512 270.376 232.872 272.496C232.088 275.064 233.712 277.76 235.664 279.608C237.616 281.456 240 282.912 241.44 285.176C243.552 288.488 243.192 292.864 241.808 296.544C238.84 304.408 231.776 310.16 224.04 313.44C216.304 316.72 207.856 317.848 199.528 318.952C190.624 320.128 181.72 321.304 172.808 322.48L167.064 323.336L257.624 323.264L275.928 260.376L210.6 260.248Z" fill="#FFDC32"/>
<path d="M311.121 242.6C313.551 242.6 315.521 240.852 315.521 238.696C315.521 236.54 313.551 234.792 311.121 234.792C308.691 234.792 306.721 236.54 306.721 238.696C306.721 240.852 308.691 242.6 311.121 242.6Z" fill="#FFDC32"/>
<path d="M368.377 323.712H31.6246C31.4006 323.712 31.2246 323.536 31.2246 323.312C31.2246 323.088 31.4006 322.912 31.6246 322.912H368.377C368.601 322.912 368.777 323.088 368.777 323.312C368.777 323.536 368.601 323.712 368.377 323.712Z" fill="#000001"/>
<path d="M356.672 328.312H135.24C135.016 328.312 134.84 328.136 134.84 327.912C134.84 327.688 135.016 327.512 135.24 327.512H356.672C356.896 327.512 357.072 327.688 357.072 327.912C357.072 328.136 356.896 328.312 356.672 328.312Z" fill="#000001"/>
<path d="M286.921 334.368H46.2008C45.9768 334.368 45.8008 334.192 45.8008 333.968C45.8008 333.744 45.9768 333.568 46.2008 333.568H286.921C287.145 333.568 287.321 333.744 287.321 333.968C287.321 334.192 287.145 334.368 286.921 334.368Z" fill="#000001"/>
<path d="M73.4254 323.592C73.3854 323.592 73.3374 323.584 73.2974 323.568C73.0894 323.496 72.9774 323.272 73.0414 323.064L82.8734 293.648C82.9294 293.488 83.0814 293.376 83.2494 293.376H107.641C107.769 293.376 107.889 293.44 107.969 293.544C108.041 293.648 108.065 293.784 108.025 293.904L98.2654 322.944C98.1934 323.152 97.9694 323.272 97.7614 323.192C97.5534 323.12 97.4414 322.896 97.5134 322.688L107.097 294.176H83.5454L73.8014 323.32C73.7454 323.488 73.5934 323.592 73.4254 323.592Z" fill="#000001"/>
<path d="M101.64 318.928C101.424 318.928 101.248 318.76 101.24 318.536C101.232 318.312 101.408 318.128 101.632 318.128C103.416 318.08 105.264 317.208 106.848 315.68C108.288 314.288 109.336 312.56 110.384 310.76C111.8 308.304 113.184 305.672 113.176 302.84C113.168 301.168 112.376 299.336 110.872 299.08C109.68 298.88 108.552 299.688 107.496 300.536C107.32 300.672 107.072 300.648 106.936 300.472C106.8 300.304 106.824 300.048 107 299.912C108.144 299 109.488 298.048 111 298.296C112.944 298.624 113.968 300.832 113.976 302.84C113.984 305.872 112.544 308.616 111.072 311.16C110 313.008 108.912 314.792 107.4 316.256C105.672 317.928 103.632 318.872 101.656 318.928C101.648 318.928 101.64 318.928 101.64 318.928Z" fill="#000001"/>
<path d="M89.5768 289.088C89.5288 289.088 89.4808 289.08 89.4328 289.064C89.2248 288.984 89.1208 288.752 89.2008 288.552C89.5928 287.512 90.3528 286.696 91.0888 285.912C91.8568 285.088 92.5848 284.304 92.8808 283.312C93.1368 282.456 93.0328 281.544 92.9208 280.584C92.8488 279.96 92.7768 279.32 92.8008 278.68C92.8568 277.048 93.5928 275.464 94.8088 274.352C94.9688 274.2 95.2248 274.216 95.3768 274.376C95.5288 274.536 95.5128 274.792 95.3528 274.944C94.2888 275.912 93.6568 277.288 93.6008 278.712C93.5768 279.296 93.6408 279.88 93.7128 280.496C93.8248 281.496 93.9448 282.528 93.6488 283.544C93.2968 284.712 92.4728 285.6 91.6728 286.456C90.9608 287.224 90.2888 287.944 89.9448 288.832C89.8888 288.992 89.7368 289.088 89.5768 289.088Z" fill="#000001"/>
<path d="M97.537 287.144C97.529 287.144 97.529 287.144 97.521 287.144C97.297 287.136 97.129 286.952 97.137 286.728C97.177 285.76 97.745 285.032 98.297 284.32C98.633 283.88 98.953 283.472 99.153 283.016C99.657 281.848 99.305 280.552 98.937 279.184C98.697 278.296 98.441 277.368 98.425 276.44C98.377 274.28 99.617 272.072 101.825 270.384C102.001 270.248 102.249 270.28 102.385 270.456C102.521 270.632 102.489 270.88 102.313 271.016C100.345 272.52 99.193 274.544 99.233 276.416C99.249 277.248 99.489 278.12 99.713 278.968C100.105 280.408 100.513 281.904 99.889 283.328C99.649 283.88 99.281 284.352 98.929 284.808C98.433 285.448 97.961 286.056 97.937 286.76C97.929 286.976 97.753 287.144 97.537 287.144Z" fill="#000001"/>
<path d="M103.224 289.424H103.216C102.992 289.416 102.824 289.232 102.824 289.016C102.856 287.92 103.48 287.048 104.088 286.208C104.56 285.552 105.008 284.928 105.176 284.224C105.408 283.24 105.064 282.24 104.696 281.176C104.512 280.632 104.312 280.072 104.2 279.496C103.8 277.52 104.384 275.36 105.736 273.864C105.88 273.696 106.136 273.688 106.304 273.832C106.472 273.976 106.48 274.232 106.336 274.4C105.152 275.712 104.64 277.608 104.992 279.344C105.096 279.864 105.28 280.4 105.464 280.92C105.848 282.04 106.248 283.2 105.968 284.416C105.768 285.272 105.248 285.992 104.752 286.68C104.192 287.456 103.664 288.192 103.64 289.048C103.616 289.256 103.44 289.424 103.224 289.424Z" fill="#000001"/>
<path d="M292.705 323.288C292.665 323.288 292.617 323.28 292.577 323.264C292.369 323.192 292.257 322.968 292.321 322.76L303.625 288.848C303.697 288.64 303.921 288.528 304.129 288.592C304.337 288.664 304.449 288.888 304.385 289.096L293.081 323.008C293.025 323.184 292.873 323.288 292.705 323.288Z" fill="#000001"/>
<path d="M312.401 323.176C312.361 323.176 312.321 323.168 312.281 323.16C312.073 323.096 311.953 322.872 312.017 322.656L322.313 290.2C322.377 289.992 322.601 289.872 322.817 289.936C323.025 290 323.145 290.224 323.081 290.44L312.785 322.896C312.729 323.064 312.569 323.176 312.401 323.176Z" fill="#000001"/>
<path d="M322.624 289.64C322.6 289.64 322.584 289.64 322.56 289.632C322.344 289.6 322.192 289.392 322.232 289.168C322.288 288.824 322.032 288.488 321.792 288.304C321.496 288.08 321.136 287.936 320.76 287.776L320.592 287.704C320.152 287.528 319.6 287.256 319.232 286.776C318.96 286.424 318.8 285.968 318.736 285.392C318.648 284.672 318.768 284.08 319.088 283.632C319.28 283.384 319.52 283.192 319.728 283.032L319.832 282.952C320.064 282.768 320.2 282.608 320.24 282.456C320.264 282.352 320.24 282.24 320.192 282.192C319.544 282.152 315.528 281.92 313.352 281.8C313.064 281.768 312.8 281.784 312.56 281.848C312.352 281.896 312.208 281.984 312.16 282.072C312.104 282.184 312.136 282.376 312.256 282.664C312.28 282.712 312.344 282.728 312.432 282.736C312.544 282.752 312.648 282.808 312.712 282.904C312.776 283 312.8 283.112 312.776 283.224C312.296 285.272 310.296 286.336 309.144 286.784C308.568 287.008 307.968 287.192 307.392 287.368C306.408 287.664 305.488 287.944 304.648 288.432C304.456 288.544 304.208 288.48 304.104 288.288C303.992 288.096 304.056 287.856 304.248 287.744C305.168 287.216 306.184 286.904 307.16 286.608C307.72 286.44 308.304 286.264 308.848 286.048C309.6 285.752 311.304 284.936 311.88 283.416C311.816 283.384 311.752 283.336 311.688 283.28C311.592 283.184 311.544 283.064 311.512 283C311.368 282.664 311.208 282.176 311.432 281.728C311.592 281.416 311.904 281.192 312.352 281.088C312.68 281 313.04 280.976 313.408 281.016L316.856 281.216C319.096 281.344 320.04 281.4 320.424 281.496L320.448 281.44C320.952 281.64 321.12 282.232 321 282.68C320.88 283.112 320.552 283.408 320.32 283.592L320.208 283.68C320.016 283.832 319.84 283.968 319.712 284.128C319.52 284.392 319.448 284.8 319.512 285.312C319.56 285.744 319.672 286.072 319.848 286.304C320.096 286.624 320.504 286.824 320.872 286.976L321.04 287.04C321.456 287.208 321.88 287.384 322.264 287.672C322.816 288.096 323.104 288.72 323.008 289.304C322.984 289.504 322.816 289.64 322.624 289.64Z" fill="#000001"/>
<path d="M315.864 280.928C315.832 280.928 315.8 280.928 315.768 280.92C315.552 280.864 315.424 280.648 315.472 280.432C316.128 277.784 316.92 275.128 317.688 272.56C318.504 269.824 319.352 266.992 320.032 264.176C321.6 257.64 321.904 252.384 321 247.616C320.568 245.336 319.92 243.624 318.968 242.232C317.8 240.536 316.16 239.392 314.448 239.088C314.232 239.048 314.088 238.84 314.128 238.624C314.168 238.408 314.384 238.264 314.592 238.304C316.504 238.648 318.344 239.912 319.624 241.784C320.648 243.272 321.328 245.08 321.784 247.472C322.712 252.352 322.4 257.72 320.808 264.368C320.128 267.208 319.28 270.048 318.456 272.8C317.688 275.36 316.896 278 316.248 280.632C316.208 280.808 316.04 280.928 315.864 280.928Z" fill="#000001"/>
<path d="M315.065 281.784C315.033 281.784 315.009 281.784 314.977 281.776C314.761 281.728 314.625 281.512 314.673 281.296C316.001 275.384 317.369 269.272 318.017 263.024C318.121 262.032 318.209 260.992 317.961 260.016C317.697 259 317.073 258.224 316.289 257.944C315.569 257.688 314.649 257.832 313.761 258.336C312.369 259.128 311.385 260.496 310.441 261.824C310.313 262.008 310.057 262.048 309.881 261.92C309.705 261.792 309.657 261.544 309.785 261.36C310.737 260.032 311.817 258.528 313.361 257.648C314.449 257.024 315.617 256.856 316.561 257.192C317.593 257.568 318.409 258.552 318.737 259.824C319.009 260.928 318.921 262.056 318.809 263.112C318.153 269.408 316.777 275.544 315.449 281.48C315.417 281.656 315.249 281.784 315.065 281.784Z" fill="#000001"/>
<path d="M316.12 281.6C316.08 281.6 316.032 281.592 315.992 281.576C315.784 281.504 315.672 281.28 315.744 281.072C317.688 275.32 319.705 269.376 322.761 263.984C323.665 262.392 324.928 260.376 326.688 258.848C328.072 257.648 330.296 256.656 332.016 257.8C332.856 258.36 333.305 259.28 333.601 260.016C334.513 262.288 334.8 264.768 334.416 267.184C334.384 267.4 334.177 267.552 333.961 267.52C333.745 267.488 333.593 267.28 333.625 267.064C333.985 264.792 333.721 262.464 332.857 260.32C332.601 259.688 332.225 258.912 331.577 258.472C330.241 257.584 328.392 258.448 327.216 259.456C325.552 260.904 324.336 262.848 323.464 264.384C320.448 269.704 318.449 275.616 316.513 281.328C316.441 281.496 316.288 281.6 316.12 281.6Z" fill="#000001"/>
<path d="M141.713 323.568C141.537 323.568 141.377 323.456 141.329 323.28L123.545 260.112C123.513 259.992 123.537 259.864 123.609 259.76C123.681 259.664 123.801 259.6 123.929 259.6H275.801C275.929 259.6 276.049 259.656 276.121 259.76C276.193 259.864 276.217 259.992 276.185 260.112L257.945 323.168C257.881 323.384 257.657 323.504 257.449 323.44C257.233 323.376 257.113 323.16 257.177 322.944L275.273 260.4H124.457L142.097 323.056C142.153 323.272 142.033 323.488 141.817 323.552C141.785 323.56 141.745 323.568 141.713 323.568Z" fill="#000001"/>
<path d="M197.592 302.296C196.76 302.296 195.984 302.104 195.288 301.712C192.208 299.984 191.768 294.904 194.304 290.384C196.84 285.864 201.408 283.584 204.48 285.312C207.552 287.04 208 292.12 205.464 296.64C204.248 298.808 202.544 300.528 200.656 301.496C199.6 302.024 198.568 302.296 197.592 302.296ZM202.16 285.52C199.696 285.52 196.808 287.536 194.992 290.768C192.672 294.904 192.976 299.496 195.672 301.008C196.952 301.728 198.592 301.64 200.288 300.776C202.04 299.88 203.632 298.272 204.768 296.24C207.088 292.104 206.784 287.512 204.088 286C203.496 285.672 202.848 285.52 202.16 285.52Z" fill="#000001"/>
</svg>
