<svg width="780" height="641" viewBox="0 0 780 641" fill="none" xmlns="http://www.w3.org/2000/svg">
<rect x="9" y="632" width="623" height="762" rx="30" transform="rotate(-90 9 632)" fill="url(#paint0_linear_9164_1727)" fill-opacity="0.2"/>
<rect x="4.5" y="636.5" width="632" height="771" rx="34.5" transform="rotate(-90 4.5 636.5)" stroke="url(#paint1_linear_9164_1727)" stroke-opacity="0.4" stroke-width="9"/>
<circle cx="389.639" cy="320.639" r="304.139" stroke="#EBEEF1" stroke-width="7"/>
<circle cx="389.639" cy="328.707" r="197.648" stroke="#EBEEF1" stroke-width="8"/>
<g clip-path="url(#clip0_9164_1727)">
<path d="M191.324 232.693H212.556L212.702 280.397H198.36V245.99H191.324V232.693Z" fill="#B1C2D2"/>
<path d="M188.396 268.519V229H143.004V245.857H170.283L188.396 268.519Z" fill="#014372"/>
<path d="M167.677 296.279H146.445L146.299 248.575H160.645V282.983H167.677V296.279Z" fill="#B1C2D2"/>
<path d="M170.605 260.453V299.972H215.997V283.116H188.718L170.605 260.453Z" fill="#014372"/>
</g>
<g clip-path="url(#clip1_9164_1727)">
<path d="M483.663 540.327C503.912 540.327 520.327 523.912 520.327 503.663C520.327 483.415 503.912 467 483.663 467C463.415 467 447 483.415 447 503.663C447 523.912 463.415 540.327 483.663 540.327Z" fill="#2CA01C"/>
<path d="M457.184 503.663C457.184 507.445 458.686 511.071 461.36 513.745C464.034 516.419 467.661 517.921 471.442 517.921H473.479V512.625H471.442C470.259 512.635 469.086 512.41 467.99 511.964C466.895 511.518 465.898 510.859 465.058 510.026C464.219 509.193 463.552 508.202 463.097 507.109C462.642 506.017 462.408 504.846 462.408 503.663C462.408 502.48 462.642 501.309 463.097 500.217C463.552 499.125 464.219 498.134 465.058 497.3C465.898 496.467 466.895 495.809 467.99 495.362C469.086 494.916 470.259 494.692 471.442 494.701H476.33V522.402C476.331 523.807 476.889 525.154 477.882 526.147C478.875 527.14 480.222 527.698 481.626 527.699V489.405H471.442C469.57 489.405 467.716 489.774 465.986 490.491C464.256 491.207 462.684 492.257 461.36 493.581C460.036 494.905 458.986 496.477 458.269 498.207C457.552 499.937 457.184 501.791 457.184 503.663ZM495.884 489.405H493.847V494.702H495.884C498.243 494.728 500.497 495.684 502.156 497.362C503.815 499.04 504.745 501.304 504.745 503.663C504.745 506.023 503.815 508.287 502.156 509.965C500.497 511.643 498.243 512.599 495.884 512.625H490.996V484.925C490.996 484.23 490.859 483.541 490.593 482.898C490.327 482.256 489.937 481.672 489.445 481.18C488.953 480.688 488.369 480.298 487.727 480.032C487.084 479.766 486.396 479.629 485.7 479.629V517.922H495.884C499.665 517.922 503.292 516.42 505.966 513.746C508.64 511.072 510.142 507.445 510.142 503.664C510.142 499.883 508.64 496.256 505.966 493.582C503.292 490.908 499.665 489.405 495.884 489.405Z" fill="white"/>
</g>
<g clip-path="url(#clip2_9164_1727)">
<path fill-rule="evenodd" clip-rule="evenodd" d="M403.96 76.2305C383.736 76.2305 367.295 92.6638 367.295 112.895C367.295 133.127 383.736 149.56 403.96 149.56H440.625V112.895C440.625 92.6638 424.261 76.2305 403.96 76.2305ZM418.472 127.391H403.96C395.932 127.391 389.448 120.88 389.448 112.895C389.448 104.911 395.932 98.4 403.96 98.4C411.988 98.4 418.472 104.911 418.472 112.895V127.391Z" fill="#49C8F5"/>
</g>
<path d="M608.701 304.546L580.262 299.527V336.611C580.262 338.304 581.635 339.677 583.328 339.677H632.402C634.095 339.677 635.468 338.304 635.468 336.611V322.948L608.701 304.546Z" fill="#185C37"/>
<path d="M608.701 272.761H583.328C581.635 272.761 580.262 274.134 580.262 275.827V289.49L608.701 306.219L623.758 311.238L635.468 306.219V289.49L608.701 272.761Z" fill="#21A366"/>
<path d="M580.262 289.489H608.701V306.218H580.262V289.489Z" fill="#107C41"/>
<path opacity="0.1" d="M600.616 286.144H580.262V327.966H600.616C602.307 327.961 603.677 326.591 603.683 324.9V289.21C603.677 287.519 602.307 286.149 600.616 286.144Z" fill="black"/>
<path opacity="0.2" d="M598.943 287.816H580.262V329.639H598.943C600.634 329.634 602.004 328.264 602.01 326.573V290.883C602.004 289.192 600.634 287.822 598.943 287.816Z" fill="black"/>
<path opacity="0.2" d="M598.943 287.816H580.262V326.293H598.943C600.634 326.288 602.004 324.918 602.01 323.227V290.883C602.004 289.192 600.634 287.822 598.943 287.816Z" fill="black"/>
<path opacity="0.2" d="M597.27 287.816H580.262V326.293H597.27C598.962 326.288 600.331 324.918 600.337 323.227V290.883C600.331 289.192 598.962 287.822 597.27 287.816Z" fill="black"/>
<path d="M566.6 287.816H597.271C598.964 287.816 600.337 289.189 600.337 290.883V321.554C600.337 323.248 598.964 324.621 597.271 324.621H566.6C564.906 324.621 563.533 323.248 563.533 321.554V290.883C563.533 289.189 564.906 287.816 566.6 287.816Z" fill="url(#paint2_linear_9164_1727)"/>
<path d="M573.029 316.186L579.48 306.19L573.57 296.25H578.324L581.549 302.607C581.847 303.211 582.051 303.659 582.162 303.955H582.204C582.412 303.481 582.635 303.013 582.873 302.552L586.321 296.253H590.685L584.624 306.135L590.839 316.186H586.195L582.47 309.208C582.294 308.912 582.145 308.6 582.025 308.277H581.969C581.86 308.593 581.715 308.896 581.538 309.18L577.702 316.186H573.029Z" fill="white"/>
<path d="M632.401 272.761H608.701V289.49H635.468V275.827C635.468 274.134 634.095 272.761 632.401 272.761Z" fill="#33C481"/>
<path d="M608.701 306.219H635.468V322.948H608.701V306.219Z" fill="#107C41"/>
<g clip-path="url(#clip3_9164_1727)">
<path d="M242.738 523.112C262.74 523.112 278.963 506.862 278.963 486.832C278.963 466.789 262.753 450.553 242.738 450.553C222.722 450.553 206.525 466.776 206.525 486.819C206.525 506.862 222.735 523.112 242.738 523.112Z" fill="#1EB4EA"/>
<path d="M223.856 486.725L230.037 480.516C230.442 480.057 230.388 479.355 229.929 478.95C229.511 478.586 228.877 478.586 228.458 478.964L222.277 485.145L216.082 478.95C215.65 478.518 214.948 478.518 214.516 478.964C214.084 479.396 214.084 480.098 214.529 480.529L220.711 486.725L214.529 492.92C214.084 493.338 214.057 494.04 214.462 494.485C214.88 494.931 215.582 494.958 216.028 494.553C216.041 494.539 216.055 494.526 216.082 494.512L222.277 488.317L228.445 494.485C228.863 494.931 229.565 494.958 230.01 494.539C230.24 494.323 230.361 494.04 230.361 493.729C230.361 493.433 230.24 493.149 230.037 492.947L223.856 486.725ZM260.608 486.725C260.608 487.831 261.512 488.736 262.619 488.736C263.739 488.736 264.63 487.831 264.63 486.725C264.63 485.604 263.726 484.714 262.619 484.714C261.512 484.714 260.608 485.618 260.608 486.725ZM256.788 486.725C256.788 483.512 259.407 480.88 262.619 480.88C265.831 480.88 268.449 483.499 268.449 486.725C268.449 489.937 265.831 492.569 262.619 492.569C259.393 492.555 256.788 489.95 256.788 486.725ZM254.494 486.725C254.494 491.206 258.138 494.863 262.619 494.863C267.1 494.863 270.744 491.219 270.744 486.725C270.744 482.244 267.1 478.586 262.619 478.586C258.138 478.599 254.494 482.244 254.494 486.725ZM253.927 478.734H253.589C252.564 478.734 251.578 479.058 250.755 479.693C250.634 479.18 250.188 478.829 249.662 478.815C249.054 478.815 248.569 479.301 248.569 479.909V493.608C248.609 494.215 249.122 494.688 249.743 494.647C250.31 494.62 250.755 494.161 250.782 493.594V485.172C250.782 482.365 251.038 481.231 253.441 480.934C253.67 480.907 253.9 480.907 253.913 480.907C254.575 480.88 255.034 480.435 255.034 479.814C255.02 479.234 254.534 478.734 253.927 478.734ZM232.656 485.388C232.656 485.361 232.656 485.321 232.656 485.294C233.452 482.149 236.637 480.246 239.782 481.042C241.901 481.582 243.548 483.256 244.047 485.375L232.656 485.388ZM246.315 485.172C245.842 482.905 244.6 481.056 242.724 479.855C239.931 478.1 236.367 478.195 233.681 480.098C230.955 482.055 229.7 485.483 230.496 488.736C231.333 491.975 234.059 494.391 237.393 494.809C238.378 494.931 239.323 494.877 240.308 494.62C241.172 494.404 241.996 494.053 242.738 493.581C243.521 493.082 244.182 492.407 244.816 491.61C244.83 491.597 244.843 491.583 244.857 491.57C245.302 491.017 245.221 490.234 244.735 489.869C244.331 489.559 243.642 489.424 243.102 490.126C242.981 490.288 242.859 490.463 242.711 490.639C242.279 491.111 241.753 491.57 241.105 491.934C240.295 492.366 239.364 492.623 238.378 492.623C235.153 492.582 233.439 490.328 232.818 488.722C232.71 488.412 232.629 488.101 232.575 487.791L232.561 487.615H244.128C245.694 487.575 246.557 486.455 246.315 485.172Z" fill="white"/>
</g>
<path d="M488.75 281.511L477.06 271L432.9 315.674L387.44 271L375.75 281.511L421.21 327.5L375.75 373.489L387.44 384L432.9 339.326L477.06 384L488.75 373.489L443.29 327.5L488.75 281.511Z" fill="url(#paint3_linear_9164_1727)"/>
<path d="M291 381.201V271H320.989C332.723 271 341.85 273.624 350.977 277.56C358.8 281.495 365.319 288.054 369.231 295.926C373.142 303.798 375.75 314.293 375.75 327.412C375.75 339.22 373.142 348.403 369.231 356.275C365.319 364.146 358.8 370.706 350.977 375.954C343.154 379.889 334.027 382.513 322.292 382.513H291V381.201ZM322.292 366.77C330.116 366.77 336.635 365.458 341.85 362.834C347.066 360.211 350.977 354.963 354.889 349.715C357.496 343.156 358.8 335.284 358.8 326.101C358.8 312.982 356.192 302.486 349.673 295.926C343.154 289.366 334.027 285.431 320.989 285.431H306.646V366.77H322.292Z" fill="#00396D"/>
<defs>
<linearGradient id="paint0_linear_9164_1727" x1="320.5" y1="1394" x2="320.5" y2="632" gradientUnits="userSpaceOnUse">
<stop stop-color="#4D8AFF"/>
<stop offset="1" stop-color="#FF6B6B"/>
</linearGradient>
<linearGradient id="paint1_linear_9164_1727" x1="320.5" y1="632" x2="320.5" y2="1394" gradientUnits="userSpaceOnUse">
<stop stop-color="#FF6B6B"/>
<stop offset="1" stop-color="#4D8AFF"/>
</linearGradient>
<linearGradient id="paint2_linear_9164_1727" x1="569.927" y1="285.42" x2="593.944" y2="327.017" gradientUnits="userSpaceOnUse">
<stop stop-color="#18884F"/>
<stop offset="0.5" stop-color="#117E43"/>
<stop offset="1" stop-color="#0B6631"/>
</linearGradient>
<linearGradient id="paint3_linear_9164_1727" x1="528.895" y1="229.368" x2="395.962" y2="394.652" gradientUnits="userSpaceOnUse">
<stop stop-color="#001BE2"/>
<stop offset="1" stop-color="#00FF85"/>
</linearGradient>
<clipPath id="clip0_9164_1727">
<rect width="73" height="70.9722" fill="white" transform="translate(143 229)"/>
</clipPath>
<clipPath id="clip1_9164_1727">
<rect width="73.3266" height="73.3266" fill="white" transform="translate(447 467)"/>
</clipPath>
<clipPath id="clip2_9164_1727">
<rect width="74" height="74" fill="white" transform="translate(367 76)"/>
</clipPath>
<clipPath id="clip3_9164_1727">
<rect width="73" height="73.584" fill="white" transform="translate(206 450)"/>
</clipPath>
</defs>
</svg>
