<svg width="610" height="610" viewBox="0 0 610 610" fill="none" xmlns="http://www.w3.org/2000/svg">
<g filter="url(#filter0_f_9164_1727)">
<circle cx="304.639" cy="304.639" r="300.139" stroke="#00396D"/>
</g>
<circle cx="304.639" cy="312.707" r="201.148" fill="url(#paint0_linear_9164_1727)" fill-opacity="0.5" stroke="#00396D"/>
<g clip-path="url(#clip0_9164_1727)">
<path d="M106.324 216.693H127.556L127.702 264.397H113.36V229.99H106.324V216.693Z" fill="#B1C2D2"/>
<path d="M103.396 252.519V213H58.0039V229.857H85.283L103.396 252.519Z" fill="#014372"/>
<path d="M82.677 280.279H61.4453L61.2988 232.575H75.6449V266.983H82.677V280.279Z" fill="#B1C2D2"/>
<path d="M85.6055 244.453V283.972H130.997V267.116H103.718L85.6055 244.453Z" fill="#014372"/>
</g>
<g clip-path="url(#clip1_9164_1727)">
<path d="M398.663 524.327C418.912 524.327 435.327 507.912 435.327 487.663C435.327 467.415 418.912 451 398.663 451C378.415 451 362 467.415 362 487.663C362 507.912 378.415 524.327 398.663 524.327Z" fill="#2CA01C"/>
<path d="M372.184 487.663C372.184 491.445 373.686 495.071 376.36 497.745C379.034 500.419 382.661 501.921 386.442 501.921H388.479V496.625H386.442C385.259 496.635 384.086 496.41 382.99 495.964C381.895 495.518 380.898 494.859 380.058 494.026C379.219 493.193 378.552 492.202 378.097 491.109C377.642 490.017 377.408 488.846 377.408 487.663C377.408 486.48 377.642 485.309 378.097 484.217C378.552 483.125 379.219 482.134 380.058 481.3C380.898 480.467 381.895 479.809 382.99 479.362C384.086 478.916 385.259 478.692 386.442 478.701H391.33V506.402C391.331 507.807 391.889 509.154 392.882 510.147C393.875 511.14 395.222 511.698 396.626 511.699V473.405H386.442C384.57 473.405 382.716 473.774 380.986 474.491C379.256 475.207 377.684 476.257 376.36 477.581C375.036 478.905 373.986 480.477 373.269 482.207C372.552 483.937 372.184 485.791 372.184 487.663ZM410.884 473.405H408.847V478.702H410.884C413.243 478.728 415.497 479.684 417.156 481.362C418.815 483.04 419.745 485.304 419.745 487.663C419.745 490.023 418.815 492.287 417.156 493.965C415.497 495.643 413.243 496.599 410.884 496.625H405.996V468.925C405.996 468.23 405.859 467.541 405.593 466.898C405.327 466.256 404.937 465.672 404.445 465.18C403.953 464.688 403.369 464.298 402.727 464.032C402.084 463.766 401.396 463.629 400.7 463.629V501.922H410.884C414.665 501.922 418.292 500.42 420.966 497.746C423.64 495.072 425.142 491.445 425.142 487.664C425.142 483.883 423.64 480.256 420.966 477.582C418.292 474.908 414.665 473.405 410.884 473.405Z" fill="white"/>
</g>
<g clip-path="url(#clip2_9164_1727)">
<path fill-rule="evenodd" clip-rule="evenodd" d="M318.96 60.2305C298.736 60.2305 282.295 76.6638 282.295 96.8955C282.295 117.127 298.736 133.56 318.96 133.56H355.625V96.8955C355.625 76.6638 339.261 60.2305 318.96 60.2305ZM333.472 111.391H318.96C310.932 111.391 304.448 104.88 304.448 96.8955C304.448 88.9113 310.932 82.4 318.96 82.4C326.988 82.4 333.472 88.9113 333.472 96.8955V111.391Z" fill="#49C8F5"/>
</g>
<path d="M523.701 288.546L495.262 283.527V320.611C495.262 322.304 496.635 323.677 498.328 323.677H547.402C549.095 323.677 550.468 322.304 550.468 320.611V306.948L523.701 288.546Z" fill="#185C37"/>
<path d="M523.701 256.761H498.328C496.635 256.761 495.262 258.134 495.262 259.827V273.49L523.701 290.219L538.758 295.238L550.468 290.219V273.49L523.701 256.761Z" fill="#21A366"/>
<path d="M495.262 273.489H523.701V290.218H495.262V273.489Z" fill="#107C41"/>
<path opacity="0.1" d="M515.616 270.144H495.262V311.966H515.616C517.307 311.961 518.677 310.591 518.683 308.9V273.21C518.677 271.519 517.307 270.149 515.616 270.144Z" fill="black"/>
<path opacity="0.2" d="M513.943 271.816H495.262V313.639H513.943C515.634 313.634 517.004 312.264 517.01 310.573V274.883C517.004 273.192 515.634 271.822 513.943 271.816Z" fill="black"/>
<path opacity="0.2" d="M513.943 271.816H495.262V310.293H513.943C515.634 310.288 517.004 308.918 517.01 307.227V274.883C517.004 273.192 515.634 271.822 513.943 271.816Z" fill="black"/>
<path opacity="0.2" d="M512.27 271.816H495.262V310.293H512.27C513.962 310.288 515.331 308.918 515.337 307.227V274.883C515.331 273.192 513.962 271.822 512.27 271.816Z" fill="black"/>
<path d="M481.6 271.816H512.271C513.964 271.816 515.337 273.189 515.337 274.883V305.554C515.337 307.248 513.964 308.621 512.271 308.621H481.6C479.906 308.621 478.533 307.248 478.533 305.554V274.883C478.533 273.189 479.906 271.816 481.6 271.816Z" fill="url(#paint1_linear_9164_1727)"/>
<path d="M488.029 300.186L494.48 290.19L488.57 280.25H493.324L496.549 286.607C496.847 287.211 497.051 287.659 497.162 287.955H497.204C497.412 287.481 497.635 287.013 497.873 286.552L501.321 280.253H505.685L499.624 290.135L505.839 300.186H501.195L497.47 293.208C497.294 292.912 497.145 292.6 497.025 292.277H496.969C496.86 292.593 496.715 292.896 496.538 293.18L492.702 300.186H488.029Z" fill="white"/>
<path d="M547.401 256.761H523.701V273.49H550.468V259.827C550.468 258.134 549.095 256.761 547.401 256.761Z" fill="#33C481"/>
<path d="M523.701 290.219H550.468V306.948H523.701V290.219Z" fill="#107C41"/>
<g clip-path="url(#clip3_9164_1727)">
<path d="M157.738 507.112C177.74 507.112 193.963 490.862 193.963 470.832C193.963 450.789 177.753 434.553 157.738 434.553C137.722 434.553 121.525 450.776 121.525 470.819C121.525 490.862 137.735 507.112 157.738 507.112Z" fill="#1EB4EA"/>
<path d="M138.856 470.725L145.037 464.516C145.442 464.057 145.388 463.355 144.929 462.95C144.511 462.586 143.877 462.586 143.458 462.964L137.277 469.145L131.082 462.95C130.65 462.518 129.948 462.518 129.516 462.964C129.084 463.396 129.084 464.098 129.529 464.529L135.711 470.725L129.529 476.92C129.084 477.338 129.057 478.04 129.462 478.485C129.88 478.931 130.582 478.958 131.028 478.553C131.041 478.539 131.055 478.526 131.082 478.512L137.277 472.317L143.445 478.485C143.863 478.931 144.565 478.958 145.01 478.539C145.24 478.323 145.361 478.04 145.361 477.729C145.361 477.433 145.24 477.149 145.037 476.947L138.856 470.725ZM175.608 470.725C175.608 471.831 176.512 472.736 177.619 472.736C178.739 472.736 179.63 471.831 179.63 470.725C179.63 469.604 178.726 468.714 177.619 468.714C176.512 468.714 175.608 469.618 175.608 470.725ZM171.788 470.725C171.788 467.512 174.407 464.88 177.619 464.88C180.831 464.88 183.449 467.499 183.449 470.725C183.449 473.937 180.831 476.569 177.619 476.569C174.393 476.555 171.788 473.95 171.788 470.725ZM169.494 470.725C169.494 475.206 173.138 478.863 177.619 478.863C182.1 478.863 185.744 475.219 185.744 470.725C185.744 466.244 182.1 462.586 177.619 462.586C173.138 462.599 169.494 466.244 169.494 470.725ZM168.927 462.734H168.589C167.564 462.734 166.578 463.058 165.755 463.693C165.634 463.18 165.188 462.829 164.662 462.815C164.054 462.815 163.569 463.301 163.569 463.909V477.608C163.609 478.215 164.122 478.688 164.743 478.647C165.31 478.62 165.755 478.161 165.782 477.594V469.172C165.782 466.365 166.038 465.231 168.441 464.934C168.67 464.907 168.9 464.907 168.913 464.907C169.575 464.88 170.034 464.435 170.034 463.814C170.02 463.234 169.534 462.734 168.927 462.734ZM147.656 469.388C147.656 469.361 147.656 469.321 147.656 469.294C148.452 466.149 151.637 464.246 154.782 465.042C156.901 465.582 158.548 467.256 159.047 469.375L147.656 469.388ZM161.315 469.172C160.842 466.905 159.6 465.056 157.724 463.855C154.931 462.1 151.367 462.195 148.681 464.098C145.955 466.055 144.7 469.483 145.496 472.736C146.333 475.975 149.059 478.391 152.393 478.809C153.378 478.931 154.323 478.877 155.308 478.62C156.172 478.404 156.996 478.053 157.738 477.581C158.521 477.082 159.182 476.407 159.816 475.61C159.83 475.597 159.843 475.583 159.857 475.57C160.302 475.017 160.221 474.234 159.735 473.869C159.331 473.559 158.642 473.424 158.102 474.126C157.981 474.288 157.859 474.463 157.711 474.639C157.279 475.111 156.753 475.57 156.105 475.934C155.295 476.366 154.364 476.623 153.378 476.623C150.153 476.582 148.439 474.328 147.818 472.722C147.71 472.412 147.629 472.101 147.575 471.791L147.561 471.615H159.128C160.694 471.575 161.557 470.455 161.315 469.172Z" fill="white"/>
</g>
<path d="M403.75 265.511L392.06 255L347.9 299.674L302.44 255L290.75 265.511L336.21 311.5L290.75 357.489L302.44 368L347.9 323.326L392.06 368L403.75 357.489L358.29 311.5L403.75 265.511Z" fill="url(#paint2_linear_9164_1727)"/>
<path d="M206 365.201V255H235.989C247.723 255 256.85 257.624 265.977 261.56C273.8 265.495 280.319 272.054 284.231 279.926C288.142 287.798 290.75 298.293 290.75 311.412C290.75 323.22 288.142 332.403 284.231 340.275C280.319 348.146 273.8 354.706 265.977 359.954C258.154 363.889 249.027 366.513 237.292 366.513H206V365.201ZM237.292 350.77C245.116 350.77 251.635 349.458 256.85 346.834C262.066 344.211 265.977 338.963 269.889 333.715C272.496 327.156 273.8 319.284 273.8 310.101C273.8 296.982 271.192 286.486 264.673 279.926C258.154 273.366 249.027 269.431 235.989 269.431H221.646V350.77H237.292Z" fill="#00396D"/>
<defs>
<filter id="filter0_f_9164_1727" x="0" y="0" width="609.279" height="609.278" filterUnits="userSpaceOnUse" color-interpolation-filters="sRGB">
<feFlood flood-opacity="0" result="BackgroundImageFix"/>
<feBlend mode="normal" in="SourceGraphic" in2="BackgroundImageFix" result="shape"/>
<feGaussianBlur stdDeviation="2" result="effect1_foregroundBlur_9164_1727"/>
</filter>
<linearGradient id="paint0_linear_9164_1727" x1="304.639" y1="111.059" x2="304.639" y2="514.355" gradientUnits="userSpaceOnUse">
<stop stop-color="#00396D"/>
<stop offset="1" stop-color="#539CE0"/>
</linearGradient>
<linearGradient id="paint1_linear_9164_1727" x1="484.927" y1="269.42" x2="508.944" y2="311.017" gradientUnits="userSpaceOnUse">
<stop stop-color="#18884F"/>
<stop offset="0.5" stop-color="#117E43"/>
<stop offset="1" stop-color="#0B6631"/>
</linearGradient>
<linearGradient id="paint2_linear_9164_1727" x1="443.895" y1="213.368" x2="310.962" y2="378.652" gradientUnits="userSpaceOnUse">
<stop stop-color="#001BE2"/>
<stop offset="1" stop-color="#00FF85"/>
</linearGradient>
<clipPath id="clip0_9164_1727">
<rect width="73" height="70.9722" fill="white" transform="translate(58 213)"/>
</clipPath>
<clipPath id="clip1_9164_1727">
<rect width="73.3266" height="73.3266" fill="white" transform="translate(362 451)"/>
</clipPath>
<clipPath id="clip2_9164_1727">
<rect width="74" height="74" fill="white" transform="translate(282 60)"/>
</clipPath>
<clipPath id="clip3_9164_1727">
<rect width="73" height="73.584" fill="white" transform="translate(121 434)"/>
</clipPath>
</defs>
</svg>
