<svg width="847" height="693" viewBox="0 0 847 693" fill="none" xmlns="http://www.w3.org/2000/svg">
<rect y="692.281" width="692.278" height="846.735" rx="30" transform="rotate(-90 0 692.281)" fill="url(#paint0_linear_9803_1875)" fill-opacity="0.2"/>
<mask id="mask0_9803_1875" style="mask-type:alpha" maskUnits="userSpaceOnUse" x="0" y="0" width="847" height="692">
<rect width="847" height="692" fill="#D9D9D9"/>
</mask>
<g mask="url(#mask0_9803_1875)">
<circle cx="439.48" cy="-61.6711" r="492.984" stroke="#EBEEF1" stroke-width="7"/>
<circle cx="439.48" cy="-48.3363" r="324.36" stroke="#EBEEF1" stroke-width="8"/>
<g clip-path="url(#clip0_9803_1875)">
<path d="M179.701 331.178H199.092L199.226 374.746H186.127V343.321H179.701V331.178Z" fill="#B1C2D2"/>
<path d="M177.026 363.898V327.805H135.569V343.2H160.484L177.026 363.898Z" fill="#014372"/>
<path d="M158.103 389.251H138.712L138.578 345.683H151.681V377.108H158.103V389.251Z" fill="#B1C2D2"/>
<path d="M160.778 356.531V392.625H202.235V377.229H177.321L160.778 356.531Z" fill="#014372"/>
</g>
<g clip-path="url(#clip1_9803_1875)">
<path d="M682.277 181.126C700.688 181.126 715.613 166.201 715.613 147.79C715.613 129.379 700.688 114.454 682.277 114.454C663.867 114.454 648.941 129.379 648.941 147.79C648.941 166.201 663.867 181.126 682.277 181.126Z" fill="#2CA01C"/>
<path d="M658.202 147.79C658.202 151.228 659.568 154.526 661.999 156.957C664.43 159.388 667.727 160.754 671.166 160.754H673.017V155.938H671.166C670.09 155.947 669.023 155.743 668.027 155.337C667.031 154.931 666.125 154.332 665.361 153.575C664.598 152.817 663.992 151.916 663.578 150.923C663.164 149.93 662.952 148.865 662.952 147.79C662.952 146.714 663.164 145.649 663.578 144.656C663.992 143.663 664.598 142.762 665.361 142.004C666.125 141.247 667.031 140.648 668.027 140.242C669.023 139.837 670.09 139.632 671.166 139.641H675.61V164.828C675.611 166.105 676.118 167.33 677.021 168.233C677.924 169.136 679.148 169.643 680.425 169.644V134.826H671.166C669.463 134.826 667.777 135.161 666.204 135.812C664.632 136.464 663.202 137.419 661.998 138.623C660.795 139.827 659.84 141.256 659.188 142.829C658.537 144.402 658.202 146.087 658.202 147.79ZM693.389 134.826H691.538V139.641H693.389C695.535 139.666 697.584 140.535 699.092 142.06C700.6 143.586 701.446 145.645 701.446 147.79C701.446 149.935 700.6 151.994 699.092 153.519C697.584 155.045 695.535 155.914 693.389 155.938H688.945V130.752C688.945 130.12 688.82 129.493 688.578 128.909C688.336 128.325 687.982 127.794 687.535 127.347C687.088 126.9 686.557 126.545 685.973 126.303C685.388 126.061 684.762 125.937 684.13 125.937V160.754H693.389C696.828 160.754 700.125 159.389 702.556 156.957C704.988 154.526 706.354 151.229 706.354 147.79C706.354 144.352 704.988 141.055 702.556 138.623C700.125 136.192 696.828 134.826 693.389 134.826Z" fill="white"/>
</g>
<g clip-path="url(#clip2_9803_1875)">
<path fill-rule="evenodd" clip-rule="evenodd" d="M172.2 113.551C153.979 113.551 139.166 128.357 139.166 146.585C139.166 164.813 153.979 179.619 172.2 179.619H205.234V146.585C205.234 128.357 190.491 113.551 172.2 113.551ZM185.275 159.645H172.2C164.967 159.645 159.126 153.778 159.126 146.585C159.126 139.391 164.967 133.525 172.2 133.525C179.433 133.525 185.275 139.391 185.275 146.585V159.645Z" fill="#49C8F5"/>
</g>
<g clip-path="url(#clip3_9803_1875)">
<path d="M705.128 355.306L679.153 350.723V384.592C679.153 386.138 680.407 387.392 681.954 387.392H726.773C728.32 387.392 729.574 386.138 729.574 384.592V372.113L705.128 355.306Z" fill="#185C37"/>
<path d="M705.128 326.276H681.954C680.407 326.276 679.153 327.53 679.153 329.077V341.555L705.128 356.834L718.879 361.418L729.574 356.834V341.555L705.128 326.276Z" fill="#21A366"/>
<path d="M679.153 341.556H705.128V356.835H679.153V341.556Z" fill="#107C41"/>
<path opacity="0.1" d="M697.743 338.5H679.153V376.698H697.743C699.288 376.693 700.539 375.442 700.544 373.897V341.301C700.539 339.756 699.288 338.505 697.743 338.5Z" fill="black"/>
<path opacity="0.2" d="M696.215 340.027H679.153V378.225H696.215C697.76 378.22 699.011 376.969 699.016 375.424V342.828C699.011 341.283 697.76 340.032 696.215 340.027Z" fill="black"/>
<path opacity="0.2" d="M696.215 340.027H679.153V375.169H696.215C697.76 375.164 699.011 373.913 699.016 372.368V342.828C699.011 341.283 697.76 340.032 696.215 340.027Z" fill="black"/>
<path opacity="0.2" d="M694.688 340.027H679.153V375.169H694.688C696.232 375.164 697.483 373.913 697.488 372.368V342.828C697.483 341.283 696.232 340.032 694.688 340.027Z" fill="black"/>
<path d="M666.675 340.027H694.687C696.234 340.027 697.488 341.281 697.488 342.828V370.841C697.488 372.387 696.234 373.641 694.687 373.641H666.675C665.128 373.641 663.874 372.387 663.874 370.841V342.828C663.874 341.281 665.128 340.027 666.675 340.027Z" fill="url(#paint1_linear_9803_1875)"/>
<path d="M672.548 365.938L678.439 356.808L673.041 347.729H677.384L680.329 353.536C680.601 354.087 680.788 354.497 680.889 354.767H680.927C681.117 354.333 681.321 353.906 681.538 353.485L684.687 347.733H688.673L683.138 356.758L688.814 365.937H684.572L681.17 359.565C681.01 359.293 680.874 359.009 680.763 358.714H680.713C680.613 359.003 680.481 359.279 680.319 359.539L676.815 365.938H672.548Z" fill="white"/>
<path d="M726.773 326.276H705.127V341.555H729.573V329.077C729.573 327.53 728.32 326.276 726.773 326.276Z" fill="#33C481"/>
<path d="M705.127 356.835H729.573V372.114H705.127V356.835Z" fill="#107C41"/>
</g>
</g>
<g clip-path="url(#clip4_9803_1875)">
<path d="M423.585 462.944C441.853 462.944 456.67 448.22 456.67 430.072C456.67 411.912 441.866 397.2 423.585 397.2C405.304 397.2 390.512 411.9 390.512 430.06C390.512 448.22 405.316 462.944 423.585 462.944Z" fill="#1EB4EA"/>
<path d="M406.339 429.974L411.985 424.348C412.354 423.933 412.305 423.297 411.886 422.93C411.504 422.6 410.925 422.6 410.542 422.942L404.897 428.543L399.239 422.93C398.844 422.538 398.203 422.538 397.809 422.942C397.414 423.333 397.414 423.969 397.821 424.361L403.467 429.974L397.821 435.587C397.414 435.966 397.39 436.602 397.759 437.005C398.141 437.409 398.782 437.433 399.189 437.067C399.202 437.054 399.214 437.042 399.239 437.03L404.897 431.417L410.53 437.005C410.912 437.409 411.553 437.433 411.96 437.054C412.17 436.859 412.28 436.602 412.28 436.321C412.28 436.052 412.17 435.795 411.985 435.611L406.339 429.974ZM439.905 429.974C439.905 430.977 440.731 431.796 441.742 431.796C442.765 431.796 443.579 430.977 443.579 429.974C443.579 428.959 442.753 428.152 441.742 428.152C440.731 428.152 439.905 428.971 439.905 429.974ZM436.417 429.974C436.417 427.063 438.808 424.679 441.742 424.679C444.676 424.679 447.067 427.051 447.067 429.974C447.067 432.884 444.676 435.269 441.742 435.269C438.796 435.257 436.417 432.897 436.417 429.974ZM434.321 429.974C434.321 434.034 437.649 437.348 441.742 437.348C445.834 437.348 449.163 434.046 449.163 429.974C449.163 425.914 445.834 422.6 441.742 422.6C437.649 422.612 434.321 425.914 434.321 429.974ZM433.803 422.734H433.495C432.558 422.734 431.658 423.028 430.906 423.602C430.796 423.138 430.389 422.82 429.908 422.808C429.353 422.808 428.909 423.248 428.909 423.798V436.211C428.946 436.761 429.415 437.189 429.982 437.152C430.5 437.128 430.906 436.712 430.931 436.198V428.567C430.931 426.024 431.165 424.997 433.36 424.727C433.569 424.703 433.779 424.703 433.791 424.703C434.395 424.679 434.814 424.275 434.814 423.712C434.802 423.187 434.358 422.734 433.803 422.734ZM414.376 428.763C414.376 428.739 414.376 428.702 414.376 428.677C415.103 425.828 418.012 424.104 420.885 424.825C422.82 425.314 424.324 426.831 424.78 428.751L414.376 428.763ZM426.851 428.567C426.419 426.513 425.285 424.838 423.572 423.749C421.02 422.159 417.766 422.245 415.313 423.969C412.823 425.742 411.676 428.849 412.404 431.796C413.168 434.731 415.658 436.92 418.703 437.299C419.603 437.409 420.466 437.36 421.365 437.128C422.154 436.932 422.906 436.614 423.584 436.186C424.299 435.734 424.903 435.122 425.483 434.401C425.495 434.388 425.507 434.376 425.52 434.364C425.926 433.863 425.852 433.153 425.409 432.823C425.039 432.542 424.41 432.42 423.917 433.055C423.806 433.202 423.695 433.361 423.56 433.52C423.165 433.948 422.684 434.364 422.093 434.694C421.353 435.086 420.503 435.318 419.603 435.318C416.657 435.281 415.091 433.239 414.524 431.784C414.425 431.502 414.351 431.221 414.302 430.94L414.29 430.781H424.854C426.284 430.744 427.073 429.729 426.851 428.567Z" fill="white"/>
</g>
<defs>
<linearGradient id="paint0_linear_9803_1875" x1="346.139" y1="1539.02" x2="346.139" y2="692.281" gradientUnits="userSpaceOnUse">
<stop stop-color="#4D8AFF"/>
<stop offset="1" stop-color="#FF6B6B"/>
</linearGradient>
<linearGradient id="paint1_linear_9803_1875" x1="669.713" y1="337.839" x2="691.648" y2="375.83" gradientUnits="userSpaceOnUse">
<stop stop-color="#18884F"/>
<stop offset="0.5" stop-color="#117E43"/>
<stop offset="1" stop-color="#0B6631"/>
</linearGradient>
<clipPath id="clip0_9803_1875">
<rect width="66.6721" height="64.8201" fill="white" transform="translate(135.566 327.805)"/>
</clipPath>
<clipPath id="clip1_9803_1875">
<rect width="66.6721" height="66.6721" fill="white" transform="translate(648.941 114.454)"/>
</clipPath>
<clipPath id="clip2_9803_1875">
<rect width="66.6721" height="66.6721" fill="white" transform="translate(138.9 113.343)"/>
</clipPath>
<clipPath id="clip3_9803_1875">
<rect width="66.6721" height="62.5051" fill="white" transform="translate(663.388 325.582)"/>
</clipPath>
<clipPath id="clip4_9803_1875">
<rect width="66.6721" height="66.6721" fill="white" transform="translate(390.031 396.699)"/>
</clipPath>
</defs>
</svg>
