<svg width="133" height="133" viewBox="0 0 133 133" fill="none" xmlns="http://www.w3.org/2000/svg">
<path d="M28.3526 30.9174C29.8263 30.1833 31.5047 29.8667 33.1459 30.0104C33.8003 30.0689 34.4759 30.2072 35 30.6035C35 30.6035 36.4736 33.7583 36.6119 33.7583C37.7371 40.1556 38.4154 46.6327 38.6415 53.1231L40.1524 64.6515L40.7402 68.6735C40.7402 68.6735 44.0599 108.124 44.0839 108.254C44.1424 109.071 44.3445 109.874 44.6744 110.622C44.7675 110.834 44.8739 111.05 44.8765 111.284C44.8792 111.638 44.6425 111.949 44.568 112.295C44.5015 112.598 44.5653 112.915 44.5839 113.226C44.6026 113.537 44.5653 113.88 44.2887 113.989C44.0253 113.872 43.8764 113.596 43.7115 113.356C43.5465 113.117 43.2965 112.883 42.9667 112.907C41.2749 112.97 39.7108 113.928 38.5989 115.205C38.2106 115.652 37.8249 116.168 37.253 116.319C36.8566 116.423 36.4257 116.333 36.056 116.471C35.7208 116.516 35.4974 116.144 35.367 115.833C35.2606 115.577 35.1542 115.306 35.1941 115.032C35.2394 114.713 35.4761 114.46 35.6064 114.165C35.7075 113.936 35.7448 113.678 35.7128 113.428C35.6596 113.018 35.4229 112.633 35.4681 112.22C35.4974 111.965 35.633 111.739 35.7341 111.502C35.9602 110.975 36.0187 110.38 35.9017 109.821L32.3187 71.0754C32.3187 71.0754 25.7166 109.898 25.7192 109.935C25.6687 110.329 25.6767 110.728 25.7378 111.116C25.7724 111.329 25.823 111.547 25.7618 111.755C25.6713 112.071 25.3575 112.263 25.1766 112.54C24.8999 112.96 24.9664 113.513 24.8015 113.989C24.6659 113.795 24.5116 113.617 24.3387 113.457C24.1738 113.3 23.9743 113.157 23.7482 113.149C23.5114 113.141 23.2986 113.279 23.0911 113.393C21.9979 114.003 20.6865 114.05 19.4363 113.976C19.0719 113.955 18.6782 113.928 18.3803 114.151C18.0504 114.29 17.7898 114.553 17.4652 114.705C17.0423 114.904 16.5529 114.896 16.1113 114.832C15.8506 114.75 15.7123 114.465 15.6245 114.205C15.4915 113.808 15.4064 113.396 15.3718 112.978C15.3505 112.712 15.3505 112.43 15.4809 112.194C15.558 112.05 15.6777 111.936 15.7948 111.821C16.1565 111.47 16.5289 111.077 16.5981 110.579C16.6353 110.305 16.5741 110.028 16.5608 109.752C16.5422 109.363 16.6247 108.97 16.7976 108.621L22.1734 72.4852L22.8996 67.8036L28.3526 30.9174Z" fill="#40E0D0"/>
<path d="M36.9708 18.5826C37.2953 17.8192 37.3565 16.9441 37.1384 16.1434C37.0506 15.8215 36.9149 15.5023 36.6729 15.2709C36.4335 15.0395 36.0717 14.9118 35.7552 15.0182C35.6993 15.0368 35.6461 15.0608 35.5876 15.0581C35.5158 15.0555 35.4546 15.0129 35.3934 14.9757C35.0263 14.7442 34.5848 14.6059 34.1592 14.6804C33.8692 14.7309 33.6059 14.8772 33.3372 14.9996C31.7599 15.7284 29.9511 15.7604 28.3098 16.3269C28.0678 16.4094 27.8044 16.5318 27.7193 16.7712C27.6502 16.968 27.7193 17.1861 27.7007 17.3936C27.6741 17.6623 27.4985 17.8884 27.3522 18.1145C27.2059 18.3406 27.0862 18.6225 27.1793 18.8752C27.2166 18.9736 27.2831 19.0588 27.3283 19.1545C27.5384 19.5987 27.2405 20.1041 27.2059 20.5936C27.198 20.7213 27.2086 20.8569 27.2778 20.9633C27.3283 21.0431 27.4081 21.099 27.4773 21.1628C27.6608 21.3331 27.7832 21.5645 27.8177 21.8119C27.8177 21.8119 28.4109 26.0652 28.4482 26.0519C28.4827 26.2487 28.6397 26.4137 28.8259 26.4855C29.0121 26.5573 29.2222 26.552 29.4164 26.4988C29.9005 26.3711 30.2836 25.9907 30.5389 25.5625C30.7969 25.1342 30.9486 24.6527 31.1321 24.1872C31.7944 22.4955 32.9143 20.9367 34.4757 20.0084C34.7364 19.8541 35.0104 19.7158 35.2312 19.5083C35.3748 19.3753 35.4945 19.213 35.6461 19.088C35.7977 18.963 35.9972 18.8726 36.1888 18.9151L36.9708 18.5826Z" fill="#00396D"/>
<path d="M34.4391 28.9832C34.3593 29.2625 34.2795 29.5418 34.2023 29.8211C34.1784 29.9036 34.1571 29.9887 34.1784 30.0712C34.1943 30.1324 34.2369 30.1856 34.2741 30.2388C34.3885 30.393 34.4869 30.5633 34.6146 30.808C35.5164 32.7604 36.4341 34.7794 36.4766 36.9925C36.3144 36.9925 36.1521 36.9898 35.9872 36.9898C36.1521 37.4979 36.317 38.0086 36.4819 38.5167C36.4979 38.5699 36.5165 38.6231 36.5192 38.6789C36.5245 38.8252 36.4234 38.9529 36.3277 39.0646C36.2239 39.187 36.1202 39.3067 36.0138 39.4264C35.9952 39.4477 35.9712 39.4716 35.942 39.4716C35.918 39.469 35.8994 39.4503 35.8808 39.4344C35.7664 39.328 35.5988 39.2961 35.4419 39.3173C35.2876 39.336 35.1413 39.3998 34.9977 39.461C34.1332 39.8387 33.2687 40.2164 32.4042 40.5941C32.4042 40.5941 30.4677 33.5611 30.4171 33.5106C29.8905 32.8509 29.409 32.1486 29.0605 31.3799C28.7121 30.6112 28.5019 29.7679 28.5392 28.9247C28.5418 28.8502 28.5365 28.7571 28.4674 28.7305C28.4434 28.7226 28.4168 28.7226 28.3902 28.7252C28.0497 28.7678 27.7758 29.0152 27.547 29.2705C27.3182 29.5232 27.0975 29.8052 26.7889 29.9515C26.7889 29.9515 22.9452 31.1591 22.908 31.1937C22.7962 31.2841 22.6819 31.3799 22.6127 31.5049C22.5941 31.5422 22.5781 31.5794 22.5542 31.614C22.4504 31.7709 22.227 31.8188 22.1286 31.9784C22.0435 32.1194 22.078 32.3109 21.9929 32.4545C21.9929 32.4545 18.7663 46.7494 18.7451 46.776C18.4126 47.9836 18.6227 49.3775 19.4606 50.3085C19.6468 50.5133 19.8596 50.6968 20.1096 50.8139C20.4209 50.9602 20.7693 51.0001 21.1098 51.0373C21.3891 51.0692 21.6711 51.0985 21.9477 51.0506C21.9477 51.0506 20.8252 59.7594 20.8119 59.8206C20.7294 60.0042 20.6177 60.1744 20.4847 60.326C20.3996 60.4244 20.3012 60.5122 20.1894 60.7197C19.7532 62.1774 19.1494 63.5978 18.2423 64.8161C17.7555 65.4705 17.1863 66.0583 16.6942 66.7047C16.0319 67.5719 15.5078 68.5454 15.1035 69.6573C15.3988 70.5138 16.2181 71.0751 17.0373 71.4661C18.6679 72.2481 20.5033 72.5993 22.3095 72.4742L23.1128 67.7687L26.2596 67.9443L28.4115 68.1491C28.4115 68.1491 29.7575 65.5582 29.792 65.4439C30.8294 63.2653 31.6141 60.9671 32.1249 58.6103L32.8404 54.5804L33.2075 48.6992L32.992 45.4034L37.0272 43.2728L36.9794 44.2623L37.1948 48.896L37.6896 52.4764L38.5009 56.3706L38.6605 60.4058L38.7935 69.4631C38.7935 69.4631 40.3044 68.7502 40.3842 68.7502C40.7167 68.4789 41.0492 68.2049 41.3817 67.9336C41.6184 67.7394 41.8578 67.5426 42.044 67.3005C42.3659 66.8856 42.5148 66.3536 42.5122 65.7817C41.3976 63.2254 40.7034 60.4856 40.464 57.7086L39.5941 51.4975L39.1499 46.3584L39.2616 42.504L45.5233 41.7486C45.5233 41.7486 47.9864 44.0947 48.0662 44.1C48.5105 44.3554 49.0504 44.4432 49.5532 44.3394C50.0559 44.2357 50.5188 43.9457 50.8273 43.5361C50.8273 43.5361 59.1771 32.7791 59.1983 32.7498C59.1132 32.1141 58.8047 31.5209 58.3791 31.0394C57.9535 30.558 57.4161 30.1882 56.8442 29.8983C56.6208 29.7866 56.3362 29.6908 56.1367 29.8398C55.9851 29.9541 55.9425 30.1776 55.7829 30.284L48.9201 38.2799C48.9201 38.2799 38.8414 29.1615 38.8227 29.196C38.7589 29.0311 38.6365 28.8901 38.4849 28.8024C38.4503 28.7811 38.4104 28.7625 38.3705 28.7651C38.3067 28.7678 38.2588 28.8183 38.2136 28.8609C38.1152 28.9487 37.9955 29.0098 37.8651 29.0391L34.4391 28.9832Z" fill="white"/>
<path d="M38.7364 38.1627L40.6144 31.542L43.0962 31.5899L47.1234 35.2101L45.147 42.6714L38.2656 42.5225L38.7364 38.1627Z" fill="#00396D"/>
<path d="M35.7266 118.969H51.0162C51.0162 118.969 50.8992 117.681 50.9285 117.649C50.6625 116.88 49.9389 116.354 49.1808 116.061C48.4227 115.769 47.6061 115.662 46.8241 115.439C45.5366 115.072 44.3157 114.356 43.5337 113.271C43.4618 113.172 43.3927 113.066 43.2889 112.999C43.1772 112.928 43.0416 112.906 42.9112 112.901C42.4271 112.872 41.9483 112.986 41.4908 113.143C40.2911 113.558 39.2032 114.295 38.3733 115.258C38.07 115.612 37.7881 116.003 37.3864 116.237C36.9156 116.511 36.3437 116.529 35.801 116.524L35.7266 118.969Z" fill="#00396D"/>
<path d="M15.1582 118.905H30.408L30.4692 117.801C30.4692 117.801 30.5091 117.78 30.5144 117.71C30.4186 117.117 29.9558 116.636 29.4264 116.351C28.8971 116.066 28.2986 115.941 27.7161 115.792C26.6175 115.511 25.4763 115.082 24.8087 114.167C24.5134 113.763 24.2421 113.226 23.742 113.188C23.4867 113.17 23.2473 113.297 23.0185 113.406C22.0582 113.861 20.9809 114.071 19.9196 114.008C19.4302 113.978 18.9115 113.896 18.4672 114.103C18.305 114.178 18.164 114.29 18.015 114.385C17.4352 114.763 16.7303 114.947 16.0387 114.899L15.1582 118.905Z" fill="#00396D"/>
<path d="M40.8828 31.5126C41.077 31.0684 41.3377 30.6508 41.6489 30.2784C41.8245 30.0709 42.0186 29.8741 42.2501 29.7304C42.4815 29.5868 42.7555 29.5017 43.0268 29.5283C43.0268 29.5283 49.7832 30.8875 49.847 30.9461C50.1423 31.4382 50.2513 32.0287 50.2221 32.6006C50.1928 33.1725 50.0306 33.7337 49.8098 34.2631C49.6076 34.7525 49.3523 35.2313 48.9692 35.5957C48.9692 35.5957 42.0585 34.1567 42.0479 34.1194C42.7501 33.5236 43.1624 32.6032 43.1385 31.6829L40.8828 31.5126Z" fill="#FFDC32"/>
<path d="M39.5101 35.2285C39.0765 35.7791 38.5871 36.3032 37.9806 36.6569C37.3741 37.0107 36.6373 37.181 35.959 37.0001C36.0388 37.5959 36.2649 38.1731 36.6133 38.6626C36.6133 38.6626 37.5523 37.6066 37.6002 37.6145C38.0737 37.3725 38.5897 37.2102 39.0153 36.8937L39.5101 35.2285Z" fill="#FFDC32"/>
<path d="M28.3892 38.0801C28.1232 38.3913 27.6444 38.495 27.4529 38.8541C27.3571 39.035 27.3491 39.2478 27.3624 39.45C27.3757 39.7133 27.4156 39.9767 27.5114 40.224C27.5938 40.4395 27.7189 40.6443 27.9104 40.772C28.0301 40.8545 28.1711 40.8997 28.3094 40.9476C28.4504 40.9954 28.594 41.0433 28.735 41.0912C28.7749 41.1045 28.8201 41.1178 28.8627 41.1045C28.8946 41.0912 28.9159 41.0646 28.9371 41.038C29.2696 40.5964 29.4186 40.0219 29.3468 39.4739C29.2696 38.926 28.9744 38.4099 28.3892 38.0801Z" fill="#FFDC32"/>
<path d="M36.4924 17.3223C36.6919 17.8117 36.7664 18.341 36.8409 18.8651C36.934 19.5114 37.0244 20.1605 37.1548 20.8787C37.5724 21.9241 38.2587 22.8604 39.1258 23.5759L37.1255 23.3312C37.1255 23.3312 36.7345 25.1746 36.7105 25.2145C36.5403 25.805 36.3355 26.3849 36.0961 26.9515C36.0056 27.1643 35.9099 27.3771 35.7636 27.5553C35.6173 27.7335 35.4125 27.8745 35.1837 27.9011C34.9869 27.9224 34.782 27.8559 34.5879 27.9037C34.5879 27.9037 34.1543 30.3882 34.1782 30.4174C33.5318 31.0425 32.6727 31.4309 31.7816 31.5586C30.8905 31.6863 29.9754 31.5666 29.1242 31.274L28.5098 29.4332C28.5098 29.4332 28.68 26.3929 28.7172 26.3955C28.962 26.3822 29.204 26.3237 29.4275 26.22C29.494 26.188 29.5631 26.1508 29.603 26.0896C29.6509 26.0151 29.6509 25.9194 29.6509 25.8316C29.6429 25.2251 29.6642 24.6133 29.8185 24.0281C29.9728 23.4429 30.2654 22.879 30.7176 22.4561C30.3691 21.9693 30.2999 21.3202 30.4196 20.735C30.4569 20.5595 30.5101 20.3813 30.6112 20.2323C30.7122 20.0833 30.8665 19.9636 31.0447 19.9344C31.2363 19.9051 31.4304 19.9823 31.59 20.0966C31.747 20.211 31.88 20.3573 32.0236 20.485C32.0582 20.5169 32.0954 20.5488 32.1433 20.5595C32.2231 20.5808 32.3082 20.5329 32.3588 20.4664C32.4093 20.3999 32.4306 20.3174 32.4519 20.2376C32.5716 19.82 32.7392 19.4183 33.0477 19.006C34.2155 18.5512 35.4045 18.0857 36.4924 17.3223Z" fill="#FFDC32"/>
<path d="M56.7109 29.7308C57.3467 30.1963 57.9292 30.7362 58.4373 31.3374C58.5809 31.5076 58.7272 31.6859 58.932 31.771C59.1129 31.8455 59.3177 31.8322 59.5146 31.8109C59.8364 31.7763 60.153 31.7178 60.4669 31.6406C60.7355 31.5741 61.0122 31.4864 61.2063 31.2895C61.2808 31.2124 61.3447 31.1193 61.4324 31.0581C61.5149 31.0022 61.6107 30.9756 61.7038 30.9437C62.1985 30.7682 62.5975 30.3452 62.7465 29.8451C62.7837 29.7175 62.805 29.5765 62.7465 29.4594C62.7252 29.4169 62.6959 29.3796 62.68 29.3371C62.6481 29.236 62.7092 29.1296 62.7199 29.0232C62.7358 28.853 62.6188 28.6987 62.4964 28.579C62.4592 28.5417 62.422 28.5072 62.4007 28.4593C62.3794 28.4114 62.3821 28.3555 62.3767 28.3023C62.3608 28.0603 62.2278 27.8289 62.0283 27.6932C62.0283 27.6932 63.8318 26.9112 63.8743 26.8526C63.9222 26.7569 63.9701 26.6611 63.9914 26.56C64.0153 26.4563 64.01 26.3446 63.9594 26.2515C63.9089 26.1584 63.8025 26.0919 63.6988 26.1078C63.6988 26.1078 59.6955 27.0867 59.6875 27.1027C59.5731 26.9644 59.3842 26.8899 59.206 26.9165C59.0278 26.9431 58.8682 27.0681 58.8017 27.2357L56.7109 29.7308Z" fill="#FFDC32"/>
<path d="M35.6621 39.7132L37.6172 37.6012L39.0669 36.875L38.8248 38.0693C38.8248 38.0693 41.5753 38.1465 41.5966 38.1704C41.671 38.2183 41.7508 38.2742 41.7774 38.3593C41.804 38.4444 41.7668 38.5428 41.703 38.6067C41.6391 38.6705 41.5567 38.7104 41.4742 38.7476C41.147 38.8886 40.8065 38.9897 40.4634 39.0908C40.4634 39.0908 41.9796 39.4712 41.9929 39.4791C42.0488 39.5377 42.1046 39.5962 42.1419 39.668C42.1791 39.7398 42.1897 39.8276 42.1578 39.9021C42.1126 39.9978 42.0009 40.0457 41.8971 40.059C41.7907 40.0723 41.6843 40.0643 41.5806 40.0883L40.1788 40.1388L40.1442 40.1734C40.1442 40.1734 41.5434 40.7559 41.4981 40.7666C41.5567 40.8517 41.6178 40.9528 41.5912 41.0539C41.57 41.1416 41.4848 41.2028 41.3944 41.2241C41.3066 41.2454 41.2135 41.2321 41.1231 41.2161L39.7505 40.9288C39.7505 40.9288 40.8012 41.7189 40.8305 41.7029C40.8651 41.796 40.889 41.8918 40.9023 41.9902C40.905 42.0115 40.9076 42.0381 40.8943 42.0567C40.881 42.0753 40.8597 42.0833 40.8385 42.0886C40.756 42.1125 40.6709 42.1391 40.5858 42.1445C40.5006 42.1498 40.4075 42.1312 40.341 42.078C40.341 42.078 38.636 41.514 38.6174 41.522C38.4897 42.0407 38.0534 42.4716 37.5135 42.5568C37.149 42.5355 36.8192 42.3174 36.5904 42.0327C36.3617 41.7508 36.2207 41.405 36.1037 41.0592C35.9813 40.7134 35.8855 40.3596 35.6621 39.7132Z" fill="#FFDC32"/>
<path d="M36.2544 21.2609C36.438 21.2609 36.5869 20.9465 36.5869 20.5587C36.5869 20.1708 36.438 19.8564 36.2544 19.8564C36.0707 19.8564 35.9219 20.1708 35.9219 20.5587C35.9219 20.9465 36.0707 21.2609 36.2544 21.2609Z" fill="#000001"/>
<path d="M35.0039 28.0493C34.7406 28.0493 34.4427 27.9721 34.1048 27.8179C32.9211 27.2752 31.9449 26.3362 31.3597 25.1738C31.3278 25.1073 31.3517 25.0275 31.4182 24.9956C31.4847 24.961 31.5645 24.9876 31.5965 25.0541C32.1551 26.1633 33.086 27.0597 34.2165 27.5758C34.69 27.7939 35.0598 27.8391 35.347 27.7168C35.6928 27.5705 35.8977 27.1821 36.0493 26.8257C37.1612 24.2215 37.3101 21.0588 36.4962 17.4226C36.4802 17.3507 36.5254 17.2789 36.5972 17.263C36.6691 17.247 36.7409 17.2922 36.7569 17.364C37.5841 21.0561 37.4272 24.2747 36.294 26.9294C36.1211 27.3364 35.8844 27.778 35.4508 27.9615C35.3125 28.02 35.1635 28.0493 35.0039 28.0493Z" fill="#000001"/>
<path d="M34.1728 30.5311C34.1675 30.5311 34.1648 30.5311 34.1595 30.5311C34.0877 30.5231 34.0318 30.4593 34.0398 30.3875C34.1196 29.5389 34.2739 28.693 34.4973 27.8711C34.516 27.7993 34.5904 27.7594 34.6596 27.778C34.7314 27.7966 34.7713 27.8711 34.7527 27.9403C34.5319 28.7462 34.3803 29.5788 34.3032 30.4087C34.2978 30.4779 34.242 30.5311 34.1728 30.5311Z" fill="#000001"/>
<path d="M28.5432 29.4863C28.5406 29.4863 28.5379 29.4863 28.5379 29.4863C28.4634 29.4837 28.4076 29.4198 28.4102 29.348C28.4555 28.3691 28.5273 27.377 28.6257 26.4007C28.6337 26.3289 28.6975 26.2731 28.772 26.281C28.8438 26.289 28.8997 26.3529 28.8917 26.4273C28.7959 27.3982 28.7241 28.3851 28.6789 29.3613C28.6736 29.4305 28.6151 29.4863 28.5432 29.4863Z" fill="#000001"/>
<path d="M39.3478 23.7754C39.3398 23.7754 39.3345 23.7754 39.3265 23.7728L37.0389 23.411C36.9671 23.4004 36.9166 23.3312 36.9272 23.2594C36.9378 23.1876 37.007 23.137 37.0788 23.1477L38.7945 23.419C37.9593 22.7646 37.3262 21.8469 37.023 20.8308C37.0017 20.7616 37.0416 20.6872 37.1134 20.6659C37.1852 20.6446 37.257 20.6845 37.2783 20.7563C37.6215 21.8975 38.3982 22.9083 39.417 23.5307C39.4702 23.5626 39.4941 23.6318 39.4728 23.6903C39.4542 23.7408 39.4037 23.7754 39.3478 23.7754Z" fill="#000001"/>
<path d="M31.1795 19.367C30.9773 19.367 30.7778 19.3564 30.581 19.3377C30.5092 19.3298 30.456 19.2659 30.4613 19.1914C30.4693 19.1196 30.5331 19.0664 30.6076 19.0717C31.5439 19.1675 32.5521 19.0239 33.6001 18.6461C34.438 18.3456 35.2786 17.912 36.3319 17.2417C36.3798 17.2097 36.4436 17.2151 36.4889 17.2523C36.5341 17.2895 36.5474 17.3507 36.5261 17.4039C36.2415 18.0929 35.6909 18.6887 34.9753 19.085C34.9115 19.1196 34.829 19.0983 34.7944 19.0318C34.7599 18.968 34.7811 18.8855 34.8476 18.851C35.3584 18.569 35.7786 18.1753 36.0633 17.7205C35.1801 18.2604 34.4353 18.6275 33.6905 18.8935C32.8234 19.2101 31.9802 19.367 31.1795 19.367Z" fill="#000001"/>
<path d="M31.2826 23.097C31.2587 23.097 31.2347 23.0916 31.2135 23.0783C30.4101 22.5889 29.9899 21.5382 30.2399 20.6311C30.3303 20.304 30.4926 20.0539 30.7054 19.9076C31.0858 19.6496 31.6577 19.7507 31.9263 20.1231C31.945 20.147 31.9636 20.1763 31.9822 20.2029C32.0647 20.3252 32.1338 20.421 32.1977 20.4077C32.2615 20.3944 32.312 20.2694 32.3333 20.2215L32.86 18.9553C32.8893 18.8888 32.9664 18.8543 33.0329 18.8835C33.0994 18.9128 33.134 18.9899 33.1047 19.0564L32.578 20.3226C32.5355 20.421 32.4504 20.6285 32.2482 20.6684C32.0061 20.7136 31.8652 20.5035 31.7614 20.3518C31.7455 20.3279 31.7268 20.3013 31.7109 20.28C31.5247 20.0247 31.115 19.9528 30.8544 20.1284C30.6495 20.2667 30.5458 20.5168 30.4953 20.7003C30.2771 21.4983 30.6442 22.4213 31.3491 22.8496C31.413 22.8868 31.4316 22.9693 31.3943 23.0331C31.3704 23.0757 31.3278 23.097 31.2826 23.097Z" fill="#000001"/>
<path d="M28.7646 26.5276C28.6955 26.5276 28.6396 26.4771 28.6316 26.4079C28.6236 26.3334 28.6795 26.2696 28.7513 26.2643C28.9136 26.2483 29.0785 26.2323 29.2221 26.1738C29.3631 26.1153 29.4642 26.0116 29.4935 25.8998C29.5121 25.828 29.5041 25.7429 29.4961 25.6525L29.4935 25.6232C29.3897 24.4794 29.81 23.309 30.6133 22.4924C30.6639 22.4392 30.749 22.4392 30.8022 22.4897C30.8554 22.5403 30.8554 22.6254 30.8048 22.6786C30.0547 23.442 29.6637 24.5353 29.7595 25.5993L29.7621 25.6285C29.7728 25.7323 29.7834 25.8493 29.7541 25.9663C29.7063 26.1579 29.5467 26.3281 29.3285 26.4212C29.1477 26.4983 28.9508 26.517 28.7806 26.5329C28.7726 26.5276 28.7673 26.5276 28.7646 26.5276Z" fill="#000001"/>
<path d="M34.9434 24.5492C34.8876 24.5492 34.8344 24.5146 34.8158 24.4561C34.7493 24.2486 34.72 24.0358 34.7307 23.8177C34.7413 23.6075 34.8317 23.4692 34.978 23.4346C35.0552 23.416 35.1243 23.4346 35.1749 23.4479L36.2256 23.7299C36.2974 23.7485 36.3399 23.823 36.3187 23.8921C36.3 23.964 36.2282 24.0065 36.1564 23.9852L35.1057 23.7033C35.0871 23.698 35.0498 23.6873 35.0392 23.6926C35.0286 23.6953 35.002 23.7405 34.9967 23.8309C34.986 24.0145 35.0126 24.198 35.0685 24.3736C35.0924 24.4427 35.0525 24.5172 34.9833 24.5412C34.97 24.5465 34.9567 24.5492 34.9434 24.5492Z" fill="#000001"/>
<path d="M35.7812 19.5778C35.7334 19.5778 35.6881 19.5512 35.6642 19.5059C35.6296 19.4421 35.6536 19.3596 35.7201 19.3251C36.0499 19.1522 36.4569 19.1495 36.7894 19.3171C36.8559 19.3517 36.8798 19.4315 36.8479 19.4953C36.8133 19.5618 36.7335 19.5857 36.6697 19.5538C36.4143 19.4235 36.1004 19.4261 35.8477 19.5591C35.8238 19.5724 35.8025 19.5778 35.7812 19.5778Z" fill="#000001"/>
<path d="M32.3814 40.7005C32.3229 40.7005 32.2697 40.6606 32.2537 40.6021L30.3571 33.6675C29.3357 32.4705 28.6468 31.0181 28.3675 29.47C28.3542 29.3982 28.402 29.329 28.4739 29.3157C28.5457 29.3024 28.6148 29.3503 28.6281 29.4221C28.9021 30.9356 29.5778 32.3508 30.5779 33.5158C30.5912 33.5318 30.5992 33.5478 30.6045 33.5664L32.5091 40.5303C32.5277 40.6021 32.4878 40.6739 32.416 40.6925C32.4027 40.7005 32.392 40.7005 32.3814 40.7005Z" fill="#000001"/>
<path d="M36.4519 36.9845C36.3828 36.9845 36.3243 36.9313 36.3189 36.8621C36.1407 34.6277 35.4358 32.4359 34.2761 30.518C33.4914 31.1298 32.6801 31.5235 31.8661 31.6884C30.9165 31.8826 29.9403 31.7709 29.1157 31.3745C29.0492 31.3426 29.0226 31.2628 29.0545 31.1963C29.0864 31.1298 29.1662 31.1032 29.2327 31.1351C30.0041 31.5075 30.9218 31.6113 31.8156 31.4277C32.6295 31.2601 33.4408 30.8532 34.2308 30.2148C34.2601 30.1908 34.3 30.1802 34.3372 30.1882C34.3745 30.1935 34.4091 30.2174 34.4277 30.2493C35.6539 32.2364 36.4014 34.5133 36.5876 36.8408C36.5929 36.9153 36.5397 36.9791 36.4652 36.9845C36.4599 36.9845 36.4573 36.9845 36.4519 36.9845Z" fill="#000001"/>
<path d="M27.6235 38.6712C27.5623 38.6712 27.5065 38.6287 27.4932 38.5648C27.1979 37.1471 26.892 35.6787 26.7085 34.2157C26.5728 33.1411 26.4611 31.7393 26.7856 30.4119C26.9026 29.9331 27.0516 29.5767 27.2564 29.2894C27.5224 28.9144 27.8975 28.659 28.2858 28.5872C28.3577 28.5739 28.4268 28.6218 28.4401 28.6936C28.4534 28.7654 28.4055 28.8346 28.3337 28.8479C28.0119 28.9064 27.698 29.1245 27.4719 29.441C27.2883 29.7017 27.15 30.0289 27.041 30.4731C26.7271 31.7579 26.8388 33.1305 26.9691 34.1812C27.1527 35.6335 27.4559 37.0965 27.7512 38.509C27.7671 38.5808 27.7193 38.6526 27.6474 38.6659C27.6421 38.6686 27.6341 38.6712 27.6235 38.6712Z" fill="#000001"/>
<path d="M38.9127 35.1647C38.8595 35.1647 38.8063 35.1301 38.7876 35.0769C38.6201 34.6167 38.3354 34.2071 37.9657 33.8906C37.9497 33.8773 37.9391 33.8613 37.9311 33.8427C37.7396 33.4011 37.5827 32.9542 37.4284 32.5233C37.2262 31.9514 37.0347 31.4114 36.7767 30.8927C36.4096 30.1533 35.7526 29.1903 34.7072 28.7993C34.638 28.7727 34.6035 28.6982 34.6301 28.6291C34.6567 28.5599 34.7311 28.5253 34.8003 28.5519C35.9281 28.9722 36.6277 29.9937 37.0161 30.7757C37.2821 31.3104 37.4763 31.8557 37.6811 32.4355C37.83 32.8532 37.9817 33.2841 38.1652 33.7097C38.5589 34.0555 38.8621 34.4944 39.0403 34.9865C39.0643 35.0556 39.0297 35.1328 38.9605 35.1567C38.9419 35.162 38.9286 35.1647 38.9127 35.1647Z" fill="#000001"/>
<path d="M35.4872 38.6338C35.4739 38.6338 35.4606 38.6311 35.4446 38.6284C35.1015 38.5167 34.9818 38.1177 34.9844 37.7852C34.9924 36.8941 35.4978 36.1174 36.0138 35.3965C36.5086 34.7076 37.0592 34.0107 37.8572 33.7128C37.9264 33.6862 38.0035 33.7234 38.0275 33.7899C38.0541 33.8591 38.0168 33.9362 37.9503 33.9601C37.2215 34.2315 36.7001 34.8938 36.2293 35.5482C35.7372 36.2344 35.2557 36.9713 35.2504 37.7826C35.2478 38.0113 35.3196 38.3039 35.5271 38.3704C35.5962 38.3944 35.6361 38.4688 35.6122 38.538C35.5936 38.5965 35.543 38.6338 35.4872 38.6338Z" fill="#000001"/>
<path d="M28.0681 40.9211C27.7383 40.9211 27.4058 40.4795 27.2701 39.8437C27.2063 39.5405 27.1983 39.2399 27.2542 39.0005C27.3153 38.7239 27.451 38.551 27.6345 38.5137C27.9857 38.4393 28.3607 38.8995 28.507 39.5831C28.6507 40.2667 28.4964 40.8386 28.1426 40.9131C28.1187 40.9184 28.0947 40.9211 28.0681 40.9211ZM27.7117 38.7718C27.7037 38.7718 27.6984 38.7718 27.6904 38.7744C27.6186 38.7904 27.5494 38.8995 27.5148 39.0591C27.4696 39.2612 27.4749 39.5219 27.5335 39.7879C27.6558 40.3625 27.9458 40.6843 28.0894 40.6524C28.2357 40.6205 28.3687 40.2108 28.249 39.6363C28.132 39.091 27.8633 38.7718 27.7117 38.7718Z" fill="#000001"/>
<path d="M28.902 41.1975C28.8887 41.1975 28.8754 41.1948 28.8621 41.1922L28.1598 40.9741C28.0907 40.9528 28.0508 40.8783 28.072 40.8065C28.0933 40.7373 28.1678 40.6974 28.2396 40.7187L28.8621 40.9129C29.1387 40.6123 29.2744 40.1628 29.2291 39.6946C29.1892 39.2663 29.0057 38.8248 28.6865 38.3832C28.6253 38.2981 28.5695 38.2369 28.5083 38.2183C28.4365 38.1997 28.338 38.2396 28.221 38.3407L28.1811 38.3752C28.0694 38.471 27.9444 38.5801 27.7715 38.604C27.697 38.6146 27.6305 38.5641 27.6225 38.4896C27.6119 38.4178 27.6624 38.3486 27.7369 38.3407C27.83 38.3274 27.9178 38.2529 28.0082 38.1731L28.0508 38.1385C28.2423 37.9762 28.4152 37.9204 28.5801 37.9629C28.7237 38.0028 28.8222 38.1146 28.9046 38.2289C29.2531 38.7104 29.4499 39.1972 29.4951 39.6707C29.551 40.2479 29.3621 40.8038 28.9924 41.1603C28.9711 41.1869 28.9365 41.1975 28.902 41.1975Z" fill="#000001"/>
<path d="M21.3852 51.1645C21.2336 51.1645 21.0846 51.1565 20.9357 51.1405C20.3265 51.0794 19.8451 50.8905 19.5046 50.5819C19.2625 50.3612 19.071 50.0632 18.8981 49.6403C18.4938 48.6455 18.4034 47.5229 18.6507 46.4749L18.6694 46.4802C18.7172 46.0626 19.1907 43.9532 21.8959 32.1428C21.8614 31.93 22.0103 31.7412 22.1699 31.6348C22.2151 31.6028 22.263 31.5762 22.3082 31.5496C22.396 31.4991 22.4811 31.4486 22.5343 31.3821C22.553 31.3608 22.5663 31.3368 22.5822 31.3156C22.6115 31.273 22.6434 31.2251 22.6886 31.1799C22.795 31.0788 22.936 31.0442 23.0477 31.0176C24.391 30.6851 25.7157 30.2383 26.9872 29.6876C27.0537 29.6584 27.1335 29.6903 27.1627 29.7568C27.192 29.8233 27.1601 29.9031 27.0936 29.9324C25.8088 30.4883 24.4708 30.9378 23.1142 31.2757C23.0238 31.2969 22.928 31.3209 22.8722 31.3741C22.8482 31.3954 22.8269 31.4299 22.803 31.4645C22.7817 31.4938 22.7604 31.5257 22.7392 31.5523C22.654 31.656 22.545 31.7172 22.4412 31.7784C22.3987 31.8023 22.3588 31.8263 22.3189 31.8529C22.2231 31.9194 22.138 32.0231 22.1593 32.1109C22.1646 32.1322 22.1646 32.1535 22.1593 32.1747C21.0554 36.9893 18.9646 46.1424 18.9114 46.5095C18.9114 46.5175 18.9088 46.5254 18.9088 46.5361C18.6747 47.5283 18.7598 48.5949 19.1428 49.5392C19.2998 49.9223 19.47 50.1909 19.6828 50.3824C19.9781 50.6511 20.409 50.816 20.9596 50.8745C21.8401 50.965 22.7498 50.7708 23.5185 50.3266L37.4862 42.8014C37.55 42.7669 37.6325 42.7908 37.6671 42.8546C37.7017 42.9185 37.6777 43.0009 37.6139 43.0355L23.6515 50.5607C22.9653 50.9543 22.1752 51.1645 21.3852 51.1645Z" fill="#000001"/>
<path d="M22.3186 46.0816C22.3133 46.0816 22.308 46.0816 22.3053 46.0816C22.2335 46.0736 22.1803 46.0098 22.1883 45.9353C22.2495 45.3581 22.6831 44.85 23.2417 44.6984C27.0933 42.9348 34.3977 39.5886 34.7914 39.3997C35.0494 39.163 35.4617 39.1151 35.7649 39.2933C35.8288 39.3305 35.8501 39.413 35.8128 39.4768C35.7756 39.5407 35.6931 39.562 35.6293 39.5247C35.4245 39.4024 35.1319 39.4396 34.9616 39.6045L34.9457 39.5859C34.8073 39.687 34.3738 39.8865 33.1156 40.4637C32.0303 40.9638 30.5806 41.6261 29.1309 42.2911C26.2315 43.6185 23.3348 44.9458 23.3348 44.9458C22.8666 45.0761 22.5048 45.4991 22.4543 45.9619C22.4437 46.0311 22.3851 46.0816 22.3186 46.0816Z" fill="#000001"/>
<path d="M24.2683 44.4456C24.2577 44.4456 24.2497 44.4456 24.239 44.4429C24.1672 44.427 24.122 44.3552 24.138 44.2833L25.8723 36.6678C25.8882 36.5959 25.9601 36.5507 26.0319 36.5667C26.1037 36.5826 26.1489 36.6545 26.133 36.7263L24.3987 44.3419C24.3854 44.4057 24.3295 44.4456 24.2683 44.4456Z" fill="#000001"/>
<path d="M37.6067 42.733C37.5987 42.733 37.5881 42.733 37.5801 42.7303C37.1651 42.6452 36.7741 42.3766 36.4177 41.9323C35.9149 41.3072 35.5638 39.7964 35.5505 39.7325C35.5399 39.69 35.5532 39.6447 35.5824 39.6102L37.5375 37.5513C37.5482 37.5407 37.5588 37.5327 37.5695 37.5274L38.8516 36.8225C38.9154 36.7879 38.9979 36.8118 39.0325 36.8757C39.067 36.9395 39.0431 37.022 38.9793 37.0566L37.7158 37.7508L35.8245 39.7405C35.899 40.0437 36.2155 41.2594 36.6225 41.7648C36.9417 42.1584 37.2795 42.3952 37.6333 42.4697C37.7051 42.4856 37.7503 42.5548 37.737 42.6266C37.7237 42.6904 37.6679 42.733 37.6067 42.733Z" fill="#000001"/>
<path d="M40.4203 39.1496C40.3644 39.1496 40.3139 39.115 40.2952 39.0591C40.2713 38.99 40.3085 38.9128 40.3777 38.8915L41.5774 38.4846C41.6146 38.4739 41.6412 38.434 41.6385 38.4021C41.6359 38.3702 41.6013 38.3356 41.5667 38.3356C41.5454 38.3356 41.5242 38.3276 41.5055 38.317C41.2715 38.2744 39.6808 38.2611 38.7072 38.2611C38.6327 38.2611 38.5742 38.2026 38.5742 38.1281C38.5742 38.0536 38.6327 37.9951 38.7072 37.9951C40.8219 37.9951 41.4098 38.027 41.5933 38.0723C41.7503 38.0856 41.8859 38.2186 41.9045 38.3755C41.9232 38.5378 41.8141 38.6974 41.6598 38.7426L40.4655 39.1469C40.4495 39.1469 40.4336 39.1496 40.4203 39.1496Z" fill="#000001"/>
<path d="M41.8826 40.19C41.8587 40.19 41.8348 40.1873 41.8108 40.182L40.1563 40.1767C40.0818 40.1767 40.0233 40.1155 40.0233 40.0437C40.0233 39.9692 40.0818 39.9107 40.1563 39.9107L41.8241 39.916C41.8348 39.916 41.8454 39.9187 41.856 39.9213C41.8906 39.932 41.9252 39.916 41.9412 39.9054C41.9784 39.8841 42.005 39.8468 42.0156 39.8096C42.0343 39.7378 41.9997 39.6473 41.9332 39.5862C41.7177 39.5463 40.3691 39.3308 39.4647 39.1925C39.3929 39.1818 39.3423 39.1127 39.353 39.0409C39.3636 38.969 39.4328 38.9185 39.5046 38.9291C41.0687 39.1739 41.7018 39.2696 41.9545 39.3361C41.9598 39.3335 41.9651 39.3335 41.9731 39.3308L41.9757 39.3388C42.0156 39.3494 42.0449 39.3601 42.0662 39.368L42.0768 39.3547C42.2391 39.4798 42.3189 39.6846 42.2737 39.8681C42.2471 39.9745 42.1752 40.0703 42.0768 40.1288C42.0183 40.1714 41.9491 40.19 41.8826 40.19Z" fill="#000001"/>
<path d="M37.725 42.6445C37.6745 42.6445 37.6239 42.6153 37.6026 42.5621C37.5734 42.4956 37.6053 42.4158 37.6745 42.3865C38.0841 42.2136 38.382 41.8173 38.4352 41.3757C38.4405 41.3332 38.4645 41.2986 38.5017 41.2773C38.539 41.256 38.5815 41.2534 38.6188 41.2693C38.6613 41.2879 40.4435 41.9795 40.4435 41.9795C40.5446 41.9982 40.6723 41.9849 40.7867 41.9396C40.6882 41.7534 40.4941 41.6258 40.3371 41.5247L39.1907 40.7772C39.1454 40.748 39.1242 40.6948 39.1321 40.6416C39.1401 40.5884 39.18 40.5485 39.2332 40.5352C39.2784 40.5245 39.321 40.5165 41.2016 41.0964C41.3 41.0938 41.4224 41.0805 41.457 41.0166C41.4783 40.9741 41.465 40.9049 41.4384 40.8304C41.183 40.7666 40.6058 40.5591 39.2252 40.0643C39.1561 40.0404 39.1188 39.9633 39.1454 39.8941C39.1694 39.8249 39.2465 39.7877 39.3157 39.8143C40.1456 40.1122 41.4064 40.5591 41.5607 40.6043C41.5847 40.607 41.6086 40.615 41.6272 40.6309C41.6485 40.6469 41.6645 40.6682 41.6724 40.6921C41.7123 40.7932 41.7788 40.9767 41.6937 41.139C41.5793 41.3544 41.3054 41.3598 41.1883 41.3624C41.175 41.3624 41.1591 41.3598 41.1458 41.3571C40.8319 41.2613 40.4276 41.1363 40.0711 41.0299L40.4861 41.2986C40.6829 41.4263 40.9276 41.5859 41.0447 41.8465C41.0819 41.929 41.0819 42.0035 41.0473 42.0647C41.0128 42.1258 40.9569 42.1524 40.933 42.1631C40.7601 42.2455 40.5606 42.2668 40.3744 42.2296C40.111 42.1285 39.071 41.7242 38.6746 41.5699C38.5629 42.0354 38.2251 42.4397 37.7835 42.6259C37.7596 42.6419 37.741 42.6445 37.725 42.6445Z" fill="#000001"/>
<path d="M38.7533 38.1682C38.7427 38.1682 38.7294 38.1655 38.7187 38.1628C38.6469 38.1442 38.607 38.0697 38.6257 37.9979L40.4584 31.4224C40.4744 31.3612 40.5355 31.3213 40.5967 31.3266L43.004 31.4995C43.0785 31.5049 43.1317 31.5687 43.1264 31.6405C43.1211 31.715 43.0572 31.7682 42.9854 31.7629L40.6872 31.598L38.8837 38.0697C38.865 38.1283 38.8118 38.1682 38.7533 38.1682Z" fill="#000001"/>
<path d="M45.1097 42.6769L38.3107 42.6424C38.2363 42.6424 38.1777 42.5812 38.1777 42.5094C38.1777 42.4349 38.2389 42.3764 38.3107 42.3764L45.0086 42.4109L47.0435 35.3752C47.0648 35.3061 47.1366 35.2635 47.2084 35.2848C47.2803 35.3061 47.3202 35.3779 47.2989 35.4497L45.2347 42.5838C45.2214 42.637 45.1709 42.6769 45.1097 42.6769Z" fill="#000001"/>
<path d="M36.5113 38.7139C36.4661 38.7139 36.4235 38.6926 36.3969 38.65C36.0777 38.1287 35.8915 37.5328 35.8596 36.9237C35.8569 36.8785 35.8782 36.8333 35.9155 36.8067C35.9527 36.7801 36.0006 36.7747 36.0431 36.7934C36.5884 37.0195 37.2854 36.9317 37.9078 36.5566C38.493 36.2028 38.9452 35.6708 39.3575 35.1548C39.4027 35.0963 39.4878 35.0883 39.5437 35.1335C39.6022 35.1787 39.6102 35.2639 39.565 35.3197C39.1394 35.8544 38.6686 36.4103 38.0461 36.7854C37.4237 37.1604 36.7294 37.2748 36.1416 37.1099C36.1974 37.6047 36.3623 38.0861 36.623 38.5117C36.6603 38.5756 36.6416 38.6554 36.5778 38.6953C36.5592 38.7086 36.5352 38.7139 36.5113 38.7139Z" fill="#000001"/>
<path d="M49.0545 35.6921C49.0465 35.6921 49.0386 35.6921 49.0306 35.6894C41.8778 34.41 41.8645 34.3488 41.8433 34.2264C41.8353 34.1812 41.8486 34.136 41.8805 34.1067C42.4604 33.5481 42.8541 32.8033 42.9924 32.0107C43.128 31.2313 43.0137 30.412 42.6732 29.6965C42.33 29.763 41.9869 29.9651 41.7129 30.2657C41.4496 30.5556 41.2368 30.9307 41.0506 31.4441C41.0266 31.5132 40.9495 31.5478 40.8803 31.5239C40.8112 31.4999 40.7766 31.4228 40.8005 31.3536C41 30.8057 41.2288 30.404 41.5161 30.0875C41.8832 29.6858 42.3593 29.4384 42.8275 29.4092C42.8381 29.4092 42.8514 29.4092 42.862 29.4118C45.1922 29.8667 49.6317 30.7339 49.8153 30.7605C49.8525 30.7631 49.8871 30.7817 49.911 30.8137C50.1371 31.1142 50.2781 31.5079 50.3154 31.9521C50.3526 32.3724 50.2994 32.7847 50.2435 33.1305C50.0547 34.2903 49.7062 35.0909 49.1503 35.6495C49.1237 35.6788 49.0918 35.6921 49.0545 35.6921ZM42.2236 34.1387C43.0802 34.3382 46.5834 34.9819 49.0093 35.4155C49.4961 34.8994 49.8046 34.1573 49.9802 33.0906C50.0334 32.7608 50.0839 32.3698 50.0494 31.9787C50.0174 31.6037 49.9031 31.2712 49.7248 31.0158C49.4429 30.9679 48.2485 30.7392 42.9658 29.7071C43.2876 30.4413 43.3914 31.2685 43.2531 32.0585C43.1201 32.8299 42.7556 33.5614 42.2236 34.1387Z" fill="#000001"/>
<path d="M40.7844 31.0683C40.7524 31.0683 40.7205 31.0577 40.6939 31.0337L38.9383 29.4164C38.8 29.3739 38.7282 29.2462 38.6697 29.1425C38.6298 29.0706 38.5872 28.9962 38.5446 28.9908C38.5207 28.9855 38.4835 28.9988 38.4542 29.0095C38.2919 29.06 38.1297 29.1159 37.9701 29.177L37.9674 29.1717C37.8451 29.201 37.329 29.2063 34.5041 29.2223C34.4243 29.2196 34.3711 29.1637 34.3711 29.0893C34.3711 29.0148 34.4296 28.9563 34.5041 28.9563C35.7756 28.9483 37.6908 28.935 37.8903 28.9217C38.0499 28.8605 38.2121 28.8046 38.3771 28.7541C38.4276 28.7381 38.5047 28.7142 38.5872 28.7275C38.7574 28.7541 38.8372 28.8977 38.9011 29.0121C38.941 29.0839 38.9835 29.1584 39.0261 29.1664C39.0527 29.1717 39.074 29.1824 39.0926 29.1983L40.8721 30.8395C40.9253 30.8901 40.9307 30.9725 40.8801 31.0284C40.8562 31.055 40.8216 31.0683 40.7844 31.0683Z" fill="#000001"/>
<path d="M49.1285 44.5606C48.6418 44.5606 48.1497 44.3956 47.7693 44.0924L45.5109 41.8926C45.4577 41.842 45.4577 41.7569 45.5083 41.7037C45.5588 41.6505 45.6439 41.6505 45.6971 41.7011L47.9448 43.8929C48.3465 44.2094 48.8998 44.3557 49.4185 44.2706C49.9372 44.1882 50.4186 43.8769 50.7059 43.438C50.7112 43.4301 50.7166 43.4247 50.7219 43.4194C50.8974 43.2146 56.2307 36.3598 59.061 32.7156C59.0557 32.3219 58.7976 31.9628 58.513 31.6356C57.9863 31.0212 57.3958 30.4519 56.7627 29.9439C56.5446 29.8401 56.4196 29.8348 56.3026 29.8401C56.252 29.8428 56.1908 29.8481 56.1483 29.8694C56.0445 29.9199 55.9993 30.0769 55.9647 30.2178C55.9568 30.2471 55.9408 30.2737 55.9169 30.2923C55.6695 30.545 50.9134 36.2454 49.0886 38.4346C49.0647 38.4638 49.0301 38.4798 48.9955 38.4825C48.9583 38.4825 48.9237 38.4718 48.8971 38.4479L46.9261 36.5939C46.8729 36.5433 46.8702 36.4582 46.9207 36.405C46.9713 36.3518 47.0564 36.3491 47.1096 36.3997L48.9769 38.1579C54.1586 31.9362 55.3795 30.4865 55.7094 30.154C55.744 30.0077 55.8105 29.7444 56.0312 29.6326C56.119 29.5901 56.2121 29.5794 56.2919 29.5768C56.4701 29.5688 56.6404 29.5874 56.8931 29.7124C56.9011 29.7178 56.909 29.7231 56.917 29.7284C57.5687 30.2471 58.1725 30.8323 58.7152 31.4627C59.0264 31.8271 59.3429 32.266 59.3243 32.7661C59.3243 32.7927 59.3137 32.822 59.2977 32.8433C52.1849 41.9937 51.1049 43.3662 50.924 43.5817L50.9267 43.5843C50.5969 44.0844 50.0489 44.4382 49.4584 44.5313C49.3493 44.5499 49.2403 44.5606 49.1285 44.5606Z" fill="#000001"/>
<path d="M48.7649 40.3043C48.701 40.3043 48.6452 40.2591 48.6345 40.1952C48.5281 39.6074 48.584 38.9982 48.7968 38.4396C48.8234 38.3705 48.9006 38.3359 48.9697 38.3625C49.0389 38.3891 49.0734 38.4662 49.0468 38.5354C48.85 39.0488 48.7995 39.6074 48.8979 40.15C48.9112 40.2218 48.8633 40.291 48.7915 40.3043C48.7808 40.3043 48.7729 40.3043 48.7649 40.3043Z" fill="#000001"/>
<path d="M59.5439 30.6222C59.5119 30.6222 59.4827 30.6116 59.4561 30.5903C59.4002 30.5424 59.3949 30.4573 59.4428 30.4014C59.8205 29.9652 59.9242 29.3162 59.7008 28.7842C59.6396 28.6352 59.5545 28.4995 59.4667 28.3532C59.4295 28.2921 59.4454 28.2149 59.504 28.175C59.5625 28.1351 59.6396 28.1458 59.6848 28.2016C59.8498 28.4064 59.9854 28.6325 60.0892 28.8746C60.1424 28.9757 60.2754 29.0502 60.3897 29.0448C60.5094 29.0369 60.6212 28.9438 60.6504 28.8267C60.6877 28.6751 60.6025 28.5049 60.5148 28.3559C60.294 27.9835 60.0227 27.6457 59.7088 27.3504C59.5891 27.2387 59.2885 26.9887 59.0597 27.1084C58.9879 27.1456 58.9267 27.2201 58.8682 27.2919L56.9344 29.6699C56.8892 29.7258 56.8041 29.7364 56.7482 29.6886C56.6923 29.6433 56.6817 29.5582 56.7296 29.5024L58.6634 27.1243C58.7326 27.0392 58.8177 26.9355 58.9374 26.8716C59.2087 26.7306 59.5492 26.8317 59.8923 27.1562C60.2248 27.4701 60.5121 27.8266 60.7462 28.2202C60.8552 28.4038 60.9723 28.6458 60.9111 28.8906C60.8552 29.1167 60.6424 29.2949 60.4084 29.3108C60.294 29.3188 60.1769 29.2869 60.0785 29.2284C60.1158 29.7125 59.9641 30.2099 59.6476 30.5797C59.6183 30.6063 59.5811 30.6222 59.5439 30.6222Z" fill="#000001"/>
<path d="M61.5538 31.1108C61.4926 31.1108 61.4208 31.1002 61.3543 31.0603C61.1708 30.9486 61.1867 30.7358 61.2 30.5815C61.2027 30.5522 61.2053 30.523 61.2053 30.4964C61.0777 30.4405 60.9739 30.3261 60.9207 30.1798C60.8542 29.9936 60.8835 29.7941 61.0005 29.6611L61.0245 29.6345C61.0378 29.6186 61.059 29.5946 61.075 29.576C61.0431 29.5627 61.0165 29.5521 60.9925 29.5414C60.926 29.5122 60.8489 29.4802 60.7824 29.4297C60.6627 29.3393 60.5669 29.1743 60.6281 29.0094C60.652 28.9403 60.7292 28.903 60.7984 28.9296C60.8675 28.9536 60.9021 29.0307 60.8782 29.0999C60.8675 29.1291 60.8968 29.185 60.942 29.2169C60.9846 29.2488 61.0404 29.2728 61.0963 29.2967C61.1309 29.31 61.1654 29.326 61.1974 29.3419C61.2373 29.3605 61.2878 29.3898 61.3197 29.4457C61.4155 29.5999 61.2905 29.7383 61.224 29.8127L61.2027 29.8367C61.1388 29.9112 61.1442 30.0176 61.1734 30.092C61.2 30.1665 61.2638 30.2516 61.3596 30.2703C61.4181 30.2809 61.4634 30.3288 61.4687 30.3873C61.4767 30.4591 61.4713 30.5336 61.466 30.6054C61.458 30.7278 61.4527 30.8129 61.4953 30.8368C61.5166 30.8501 61.5538 30.8528 61.6097 30.8448C62.0353 30.789 62.3731 30.4405 62.5806 30.1585C62.6683 30.0415 62.7508 29.9112 62.7614 29.7755C62.7694 29.6718 62.7162 29.5441 62.6205 29.5201C62.5806 29.5095 62.546 29.4802 62.53 29.443C62.5141 29.4031 62.5167 29.3605 62.538 29.3233C62.6072 29.2089 62.6205 29.06 62.5779 28.9163C62.5353 28.77 62.4396 28.6556 62.3199 28.5971C62.2587 28.5679 62.2294 28.4987 62.2507 28.4349C62.2906 28.3125 62.2614 28.1689 62.1736 28.0465C62.0858 27.9241 61.9528 27.855 61.8278 27.855C61.7746 27.8576 61.724 27.8231 61.7028 27.7725C61.6895 27.7406 61.6895 27.698 61.7054 27.6661C61.732 27.6049 61.7613 27.5384 63.8148 26.7617C63.8786 26.7271 63.9185 26.6314 63.9292 26.5542C63.9398 26.4744 63.9292 26.4 63.8946 26.3468C63.8627 26.2962 63.8068 26.2616 63.7589 26.2643C63.6605 26.2803 61.3942 26.8202 59.8993 27.1767C59.8275 27.1926 59.7556 27.1501 59.7397 27.0783C59.7237 27.0064 59.7663 26.9346 59.8381 26.9187C63.6845 26.001 63.7323 26.001 63.7563 25.9983C63.8999 25.993 64.0409 26.0728 64.1234 26.2058C64.1899 26.3122 64.2165 26.4478 64.1952 26.5915C64.1686 26.7777 64.0675 26.932 63.9239 27.0038C63.2668 27.2512 62.5593 27.5305 62.1842 27.6901C62.264 27.7406 62.3358 27.8071 62.3944 27.8869C62.5114 28.0438 62.5593 28.2327 62.5353 28.4083C62.6763 28.5067 62.7854 28.6583 62.8386 28.8365C62.8891 29.0041 62.8865 29.177 62.8333 29.3286C62.9796 29.435 63.0434 29.6292 63.0328 29.7941C63.0168 29.9963 62.9077 30.1692 62.8013 30.3128C62.4529 30.7863 62.0645 31.0523 61.6496 31.1055C61.615 31.1082 61.5857 31.1108 61.5538 31.1108Z" fill="#000001"/>
<path d="M61.0682 28.0606C61.0177 28.0606 60.9698 28.0314 60.9485 27.9835C60.9166 27.917 60.9458 27.8372 61.0123 27.8079L61.3847 27.635C61.4512 27.6031 61.531 27.6324 61.5603 27.6989C61.5922 27.7654 61.563 27.8452 61.4965 27.8744L61.1241 28.0473C61.1081 28.0553 61.0868 28.0606 61.0682 28.0606Z" fill="#000001"/>
<path d="M59.4339 31.9971C59.3062 31.9971 59.1812 31.9945 59.0562 31.9918C58.9817 31.9891 58.9232 31.9306 58.9259 31.8561C58.9285 31.7843 58.987 31.7258 59.0589 31.7258H59.0615C59.4898 31.7338 59.9314 31.7418 60.349 31.646C60.7985 31.5423 61.1629 31.3188 61.3731 31.0182C61.4156 30.9571 61.4981 30.9438 61.5593 30.9837C61.6204 31.0262 61.6337 31.1087 61.5938 31.1699C61.3465 31.5263 60.9262 31.787 60.4128 31.9067C60.0856 31.9812 59.7584 31.9971 59.4339 31.9971Z" fill="#000001"/>
<path d="M20.329 63.8163C20.3236 63.8163 20.3183 63.8163 20.313 63.8163C20.2412 63.8083 20.188 63.7418 20.1986 63.6673L21.7654 51.0802C21.7733 51.0084 21.8425 50.9525 21.9143 50.9658C21.9861 50.9738 22.0393 51.0403 22.0287 51.1148L20.462 63.7019C20.4513 63.7658 20.3955 63.8163 20.329 63.8163Z" fill="#000001"/>
<path d="M21.9154 72.6234C19.8007 72.6234 17.6807 71.9957 15.9064 70.8439C15.3691 70.4954 14.885 69.9236 15.1297 69.3676C15.2175 69.1655 15.3851 69.0245 15.5367 68.9128C16.4624 68.2318 17.6408 68.0084 18.6702 67.878C21.9074 67.4684 25.1978 67.7291 28.3845 67.9871C32.058 61.244 33.6646 53.2826 32.9065 45.5553C32.8985 45.4835 32.9517 45.417 33.0262 45.409C33.1007 45.401 33.1645 45.4542 33.1725 45.5287C33.9386 53.3358 32.3053 61.385 28.5787 68.1892C28.5521 68.2345 28.5015 68.261 28.451 68.2584C25.251 68.0004 21.942 67.7317 18.7048 68.1414C17.7099 68.2664 16.5714 68.4818 15.6963 69.1256C15.5739 69.216 15.4383 69.3277 15.3744 69.4714C15.1962 69.8757 15.6085 70.3279 16.0527 70.6178C17.8722 71.8015 20.064 72.416 22.2399 72.3495C22.3117 72.3468 22.3756 72.4053 22.3782 72.4772C22.3809 72.5516 22.3224 72.6128 22.2505 72.6155C22.1362 72.6208 22.0244 72.6234 21.9154 72.6234Z" fill="#000001"/>
<path d="M15.1825 69.633C15.1665 69.633 15.1532 69.6304 15.1373 69.6251C15.0681 69.6011 15.0309 69.524 15.0575 69.4548C15.491 68.2365 16.1241 67.1087 16.9354 66.1006C17.1376 65.8479 17.3557 65.6031 17.5632 65.3664C17.8638 65.0233 18.175 64.6695 18.449 64.2997C19.3507 63.0682 19.8561 61.6025 20.2312 60.3284C20.2524 60.2592 20.3269 60.2166 20.3961 60.2379C20.4652 60.2592 20.5078 60.3337 20.4865 60.4028C20.1035 61.6983 19.5901 63.1905 18.6644 64.4567C18.3851 64.8371 18.0712 65.1962 17.7653 65.542C17.5579 65.7787 17.3424 66.0208 17.1429 66.2681C16.3476 67.2523 15.7304 68.3536 15.3075 69.5426C15.2862 69.5985 15.2357 69.633 15.1825 69.633Z" fill="#000001"/>
<path d="M33.6131 58.7509C33.1609 58.7509 32.706 58.7297 32.2591 58.6871C32.1873 58.6791 32.1315 58.6153 32.1394 58.5435C32.1474 58.4716 32.2086 58.4158 32.2831 58.4238C34.2435 58.6073 36.2678 58.3812 38.1404 57.7667C38.2096 57.7428 38.2867 57.7827 38.308 57.8519C38.3319 57.921 38.292 57.9955 38.2229 58.0194C36.7439 58.5036 35.1745 58.7509 33.6131 58.7509Z" fill="#000001"/>
<path d="M38.7712 69.6013C38.7446 69.6013 38.718 69.5934 38.6967 69.5774C38.6621 69.5535 38.6409 69.5136 38.6382 69.471C38.5983 67.3749 38.5797 65.2655 38.5637 63.228C38.5557 62.2252 38.5478 61.2223 38.5371 60.2222C38.5238 58.9986 38.5079 57.6101 38.311 56.2694C38.2073 55.5565 38.0477 54.8383 37.8934 54.1441C37.8056 53.7451 37.7178 53.3487 37.638 52.9471C37.3268 51.3724 37.13 49.67 36.997 47.4276C36.9198 46.0896 36.872 44.733 36.8613 43.3924C36.8613 43.3179 36.9198 43.2594 36.9943 43.2594C37.0661 43.2594 37.1273 43.3179 37.1273 43.3924C37.138 44.7277 37.1858 46.0816 37.263 47.4143C37.3933 49.6434 37.5902 51.3351 37.8987 52.8965C37.9785 53.2955 38.0663 53.6919 38.1541 54.0856C38.3084 54.7851 38.468 55.506 38.5744 56.2295C38.7739 57.5888 38.7898 58.9853 38.8031 60.2169C38.8138 61.2197 38.8217 62.2198 38.8297 63.2253C38.8457 65.2017 38.8616 67.2419 38.9015 69.2768C39.6118 69.0002 40.2847 68.6358 40.9045 68.1942C41.3727 67.859 41.6999 67.5531 41.9393 67.226C42.2425 66.8083 42.3888 66.3588 42.3968 65.8108C41.3035 63.4275 40.8247 60.8207 40.3938 58.1394C39.6144 53.2982 38.9175 48.0873 39.0904 42.7885C39.0931 42.7141 39.1569 42.6529 39.2287 42.6609C39.3032 42.6635 39.3591 42.7247 39.3564 42.7992C39.1835 48.0766 39.8778 53.2716 40.6571 58.0995C41.0881 60.7728 41.5642 63.369 42.6521 65.731C42.6601 65.7497 42.6654 65.7683 42.6654 65.7869C42.6601 66.3987 42.4952 66.9227 42.1547 67.3882C41.8994 67.7393 41.5509 68.0665 41.0615 68.4176C40.3725 68.9124 39.6171 69.3087 38.8217 69.6013C38.8031 69.5987 38.7872 69.6013 38.7712 69.6013Z" fill="#000001"/>
<path d="M22.2869 72.5596C22.2789 72.5596 22.2709 72.5596 22.2629 72.557C22.1911 72.5437 22.1432 72.4745 22.1565 72.4027L22.9652 68.0696C22.9785 67.9977 23.0476 67.9499 23.1194 67.9632C23.1913 67.9765 23.2391 68.0456 23.2258 68.1174L22.4172 72.4506C22.4039 72.5144 22.348 72.5596 22.2869 72.5596Z" fill="#000001"/>
<path d="M32.2751 70.7183C32.2671 70.7183 32.2591 70.7183 32.2512 70.7157C32.1793 70.7024 32.1315 70.6332 32.1421 70.5614L33.3763 63.5363C33.3896 63.4645 33.4588 63.4166 33.5306 63.4273C33.6024 63.4406 33.6503 63.5097 33.6397 63.5815L32.4054 70.6066C32.3948 70.6731 32.3389 70.7183 32.2751 70.7183Z" fill="#000001"/>
<path d="M26.0242 53.4103C25.4124 53.4103 24.7527 53.3837 24.1037 53.2746C24.0132 53.2586 23.9201 53.2374 23.8403 53.1709C23.718 53.0618 23.7047 52.8969 23.7073 52.7798C23.7126 52.3569 23.8244 51.9739 24.0531 51.6094C24.0771 51.5695 24.1196 51.5456 24.1702 51.5456C26.4604 51.5988 28.8305 51.652 31.0596 50.9764C31.1048 50.9631 31.15 50.9737 31.1846 51.003C31.2192 51.0322 31.2351 51.0774 31.2298 51.1227L31.0675 52.2505C31.0436 52.4234 31.0117 52.6389 30.884 52.8118C30.7084 53.0485 30.4212 53.1283 30.1605 53.1762C29.7588 53.2507 29.3492 53.2799 28.9608 53.3065C28.1868 53.3544 27.3967 53.389 26.6147 53.4023C26.4258 53.4076 26.229 53.4103 26.0242 53.4103ZM24.242 51.8116C24.0664 52.1148 23.9786 52.4314 23.976 52.7798C23.976 52.8171 23.9733 52.9288 24.0185 52.9687C24.0451 52.99 24.0957 53.0006 24.1489 53.0113C24.9921 53.1549 25.8619 53.1522 26.612 53.1389C27.3888 53.123 28.1735 53.0911 28.9449 53.0432C29.3252 53.0192 29.7269 52.99 30.1126 52.9182C30.3227 52.8783 30.5515 52.8171 30.6712 52.6548C30.759 52.5351 30.7829 52.3649 30.8042 52.2133L30.9372 51.2876C28.7533 51.9074 26.4631 51.8621 24.242 51.8116Z" fill="#000001"/>
<path d="M16.7701 112.677C16.7249 112.677 16.6824 112.656 16.6558 112.613C16.6185 112.549 16.6371 112.47 16.701 112.43C18.3608 111.414 19.6562 109.631 20.6564 106.977C20.683 106.908 20.7575 106.873 20.8266 106.9C20.8958 106.926 20.9304 107.003 20.9038 107.07C19.8823 109.783 18.5523 111.61 16.8366 112.656C16.818 112.669 16.7941 112.677 16.7701 112.677Z" fill="#000001"/>
<path d="M20.9598 112.781C20.9039 112.781 20.8507 112.744 20.8321 112.688C20.8108 112.619 20.8481 112.544 20.9199 112.521C21.3455 112.385 21.7073 112.124 22.0903 111.845C22.3377 111.667 22.593 111.48 22.867 111.331C23.0293 111.244 23.2447 111.14 23.4815 111.156C23.8379 111.172 24.1092 111.422 24.3593 111.677C24.4098 111.73 24.4098 111.813 24.3566 111.866C24.3034 111.917 24.221 111.917 24.1678 111.863C23.947 111.637 23.7289 111.433 23.4682 111.422C23.3006 111.417 23.125 111.496 22.992 111.566C22.734 111.707 22.484 111.885 22.2446 112.06C21.8615 112.337 21.4652 112.627 20.997 112.773C20.9864 112.781 20.9731 112.781 20.9598 112.781Z" fill="#000001"/>
<path d="M36.7553 114.835C36.7234 114.835 36.6888 114.821 36.6622 114.797C36.609 114.747 36.6064 114.662 36.6596 114.609L38.7557 112.427C39.0669 112.106 39.3462 111.757 39.2877 111.395C39.277 111.334 39.2584 111.292 39.2318 111.268C39.1759 111.22 39.0589 111.244 38.9498 111.273L36.1356 112.039C36.0637 112.058 35.9919 112.018 35.9733 111.946C35.9547 111.874 35.9946 111.802 36.0664 111.784L38.8807 111.018C38.9951 110.986 39.2345 110.922 39.4047 111.065C39.4792 111.129 39.5297 111.225 39.551 111.353C39.6281 111.829 39.3063 112.239 38.9498 112.611L36.8538 114.792C36.8245 114.821 36.7899 114.835 36.7553 114.835Z" fill="#000001"/>
<path d="M40.9106 110.419C40.8601 110.419 40.8095 110.39 40.7882 110.339C40.759 110.273 40.7909 110.193 40.8574 110.164C41.6847 109.81 42.4853 109.374 43.2328 108.871C43.294 108.828 43.3764 108.847 43.4163 108.905C43.4562 108.967 43.4403 109.049 43.3817 109.089C42.621 109.602 41.807 110.047 40.9638 110.408C40.9452 110.416 40.9266 110.419 40.9106 110.419Z" fill="#000001"/>
<path d="M43.862 113.106C43.8034 113.106 43.7476 113.066 43.7343 113.005C43.6385 112.619 43.5082 112.239 43.3486 111.874C43.2954 111.752 43.2369 111.619 43.2555 111.47C43.2608 111.433 43.2794 111.401 43.3087 111.377C43.3379 111.356 43.3752 111.348 43.4124 111.353C43.7183 111.411 44.0428 111.369 44.3248 111.233C44.3913 111.201 44.4711 111.228 44.503 111.294C44.5349 111.361 44.5083 111.441 44.4418 111.473C44.1625 111.608 43.8487 111.664 43.5428 111.638C43.5561 111.677 43.5747 111.717 43.5906 111.757C43.7582 112.14 43.8939 112.537 43.9923 112.936C44.0109 113.007 43.9657 113.079 43.8965 113.098C43.8832 113.106 43.8726 113.106 43.862 113.106Z" fill="#000001"/>
<path d="M51.018 119.136H35.7309C35.6937 119.136 35.6618 119.122 35.6352 119.096C35.6112 119.069 35.5953 119.034 35.5979 119L35.6751 116.499C35.6777 116.428 35.7363 116.372 35.8081 116.372C36.3135 116.374 36.9412 116.377 37.4147 116.084C37.6807 115.92 37.8855 115.675 38.101 115.417C38.1462 115.364 38.1888 115.31 38.234 115.257C39.1411 114.196 40.37 113.379 41.7 112.959C42.1788 112.807 42.756 112.68 43.4183 112.874C43.4503 112.882 43.4769 112.903 43.4955 112.932C43.9716 113.709 44.7377 114.379 45.7166 114.874C46.6609 115.353 47.6983 115.622 48.5841 115.824C49.3129 115.989 50.1162 116.17 50.611 116.755C51.1137 117.351 51.1536 118.159 51.151 119.005C51.151 119.074 51.0924 119.136 51.018 119.136ZM35.8666 118.87H50.885C50.8823 118.125 50.8291 117.42 50.4088 116.925C49.9726 116.409 49.2491 116.244 48.5495 116.087C47.6238 115.877 46.5678 115.603 45.5969 115.111C44.5941 114.603 43.7987 113.914 43.296 113.116C42.7241 112.962 42.2293 113.071 41.7824 113.214C40.5003 113.621 39.3113 114.406 38.4362 115.43C38.3909 115.481 38.3484 115.534 38.3058 115.587C38.0877 115.85 37.8589 116.124 37.5557 116.311C37.0609 116.616 36.4491 116.627 35.9384 116.638L35.8666 118.87Z" fill="#000001"/>
<path d="M30.4793 119.075H15.2189C15.179 119.075 15.1418 119.057 15.1152 119.027C15.0912 118.995 15.0806 118.956 15.0886 118.916L15.9078 114.867C15.9211 114.803 15.977 114.766 16.0408 114.761C16.5223 114.771 17.1208 114.785 17.5703 114.505C17.6661 114.447 17.7539 114.372 17.8496 114.298C18.0039 114.173 18.1635 114.042 18.3604 113.968C18.6077 113.875 18.8684 113.878 19.0998 113.883C20.382 113.907 21.837 113.936 22.9781 113.271L23.0499 113.229C23.1909 113.143 23.3372 113.056 23.5101 113.021C23.8373 112.955 24.2097 113.096 24.5076 113.399C24.6619 113.556 24.7843 113.734 24.9013 113.909C24.9678 114.005 25.0316 114.104 25.1035 114.194C25.8589 115.176 27.1623 115.591 28.4577 115.891C29.0536 116.03 29.7319 116.186 30.1654 116.679C30.7081 117.29 30.6815 118.173 30.615 118.953C30.607 119.022 30.5485 119.075 30.4793 119.075ZM15.3812 118.809H30.3596C30.4128 118.118 30.4128 117.36 29.9659 116.857C29.5882 116.429 28.9817 116.29 28.3965 116.152C27.0532 115.841 25.6993 115.407 24.8933 114.356C24.8188 114.261 24.7497 114.16 24.6832 114.058C24.5661 113.886 24.4571 113.723 24.3188 113.585C24.0847 113.346 23.8027 113.234 23.566 113.282C23.4383 113.308 23.3159 113.38 23.1883 113.457L23.1138 113.503C21.9061 114.207 20.4139 114.178 19.0945 114.152C18.887 114.146 18.653 114.144 18.4561 114.218C18.2992 114.279 18.1635 114.388 18.0199 114.505C17.9241 114.582 17.823 114.665 17.714 114.734C17.2352 115.032 16.6447 115.04 16.1499 115.032L15.3812 118.809Z" fill="#000001"/>
<path d="M96.2051 78.7458C95.8114 79.7034 95.8167 80.8206 96.2237 81.7755C96.3487 82.0708 96.5429 82.3767 96.8541 82.4538C96.8541 82.4538 116.219 82.406 116.256 82.3474C116.897 82.1479 117.544 81.7649 117.772 81.1345C117.913 80.7488 117.879 80.3232 117.844 79.9135C117.82 79.6396 117.794 79.3576 117.671 79.1129C117.568 78.9054 117.405 78.7378 117.23 78.5889C116.844 78.259 116.376 78.001 115.87 77.9717L110.013 77.9531L99.3199 78.3282L96.2051 78.7458Z" fill="#40E0D0"/>
<path d="M96.8538 67.9169C98.3434 68.26 99.6867 69.0447 101.107 69.6087C101.107 69.6087 115.652 70.8615 115.679 70.9041C115.913 72.6836 114.931 74.41 113.713 75.7267C112.981 76.5167 112.146 77.2242 111.178 77.6951C109.861 78.3335 108.377 78.5037 106.922 78.666C106.268 78.7378 105.611 78.8123 104.951 78.8123C104.166 78.8123 103.384 78.7112 102.602 78.634C101.496 78.525 100.384 78.4691 99.2718 78.4133C99.2718 78.4133 94.0502 79.1474 94.0502 79.2379C94.0236 79.4267 93.9996 79.6209 94.0316 79.8098C94.0635 79.9986 94.1646 80.1848 94.3348 80.2753C94.3907 80.3045 94.4518 80.3231 94.5077 80.3551C94.5636 80.3896 94.6114 80.4349 94.6513 80.4881C94.7444 80.6051 94.8109 80.7434 94.8402 80.8897C94.8402 80.8897 102.948 106.279 102.903 106.33C102.895 106.553 102.764 106.761 102.597 106.907C102.429 107.053 102.224 107.155 102.02 107.248C100.243 108.056 98.2929 108.548 96.3431 108.439C96.2952 108.437 96.242 108.434 96.1995 108.455C96.1569 108.477 96.1276 108.516 96.0931 108.551C96.0106 108.636 95.8909 108.687 95.7712 108.687L86.5915 110.339C86.5915 110.339 79.1728 80.2141 79.2127 80.121C79.1462 79.3921 79.1223 78.6606 79.1409 77.9291C79.1515 77.4929 79.1781 77.0513 79.2978 76.6284C79.5957 75.5671 80.4602 74.7371 81.4444 74.2397L83.9954 73.5641L94.1965 69.3826C94.1965 69.3826 94.8136 69.1884 94.8907 69.1831C95.0424 68.9862 95.2153 68.7787 95.4573 68.7202C95.577 68.6936 95.6994 68.7043 95.8217 68.6856C95.9414 68.667 96.0691 68.6085 96.1117 68.4915C96.1356 68.4223 96.125 68.3478 96.1409 68.276C96.1649 68.1616 96.2527 68.0712 96.3564 68.018C96.4575 67.9621 96.5798 67.8531 96.8538 67.9169Z" fill="white"/>
<path d="M82.8644 118.944H103.873L104.405 115.14C104.405 115.14 103.982 113.302 103.807 113.214C103.679 112.895 103.495 112.597 103.267 112.339C103.171 112.23 103.056 112.124 102.915 112.089C102.782 112.057 102.641 112.094 102.514 112.145C102.011 112.347 101.604 112.757 101.085 112.916C100.38 113.132 99.6117 112.847 98.8616 113.039C98.5265 113.201 98.4573 113.645 98.2339 113.946C98.0716 114.164 97.8216 114.302 97.5689 114.403C97.3374 114.496 97.0954 114.568 96.8613 114.544C96.6538 114.063 96.2974 113.645 95.8558 113.363C95.7494 113.294 95.6324 113.233 95.5047 113.222C95.385 113.214 95.268 113.251 95.1562 113.291C94.478 113.528 93.8156 113.853 93.1001 113.922C92.4351 113.986 91.7009 113.842 91.129 114.257C90.4906 114.93 89.658 115.398 88.7855 115.709C87.9131 116.02 86.9927 116.185 86.075 116.316C85.5536 116.39 85.0296 116.457 84.5269 116.611C84.0241 116.765 83.54 117.018 83.1889 117.412C82.8378 117.805 82.6409 118.356 82.8644 118.944Z" fill="#40E0D0"/>
<path d="M97.9766 118.837L105.621 114.483L105.643 95.1607L104.927 95.1634L104.988 82.3848H108.625V95.1448L108.055 95.1634V114.608L115.604 118.861L97.9766 118.837Z" fill="#FFDC32"/>
<path d="M105.016 95.1133H108.623L108.572 82.3799L105 82.4304L105.016 95.1133Z" fill="#000001"/>
<path d="M116.54 70.5082C117.003 69.2979 117.093 67.9785 117.133 66.6831C117.359 59.549 116.272 52.3989 114.202 45.568C114.191 44.8312 113.87 44.2806 113.42 43.9374C112.97 43.5969 112.409 43.4347 111.856 43.3336C110.518 43.0889 109.143 43.1527 107.789 43.2698C105.342 43.4772 102.884 43.855 100.532 44.8232C100.33 45.1823 100.181 45.5733 100.096 45.9776C100.096 45.9776 96.122 52.3377 96.1619 52.3643C96.0369 52.6808 95.9092 53.0187 95.9678 53.3538C96.005 53.5613 96.1087 53.7502 96.2205 53.9284C96.8589 54.9711 97.7074 55.8835 98.6969 56.599C98.9682 56.7959 99.2582 56.9794 99.5827 57.0539C99.8593 57.1177 100.149 57.0964 100.426 57.1629C100.514 57.1842 100.601 57.2135 100.689 57.1895C100.777 57.1656 100.844 57.0938 100.902 57.0246C101.157 56.7294 101.41 56.4368 101.644 56.2053C101.955 58.602 101.844 61.0519 101.317 63.4086C101.219 63.8422 101.107 64.2784 100.907 64.6748C100.708 65.0711 100.41 65.4329 100.019 65.643C99.8194 65.7494 99.5907 65.8239 99.4603 66.0074C99.1571 66.4384 99.6306 67.098 99.3486 67.5449C99.2715 67.6673 99.1518 67.7497 99.064 67.8641C98.8858 68.0929 98.8672 68.4334 99.0241 68.6781C99.0241 68.6781 101.418 69.79 101.532 69.8352C103.277 70.2874 105.03 70.7156 106.815 70.9737C109.459 71.3567 112.159 71.362 114.803 70.9896L116.54 70.5082Z" fill="#00396D"/>
<path d="M101.633 33.904C101.915 33.2017 102.215 32.4915 102.694 31.901C103.173 31.3105 103.854 30.8476 104.609 30.8024C104.788 30.7918 104.966 30.8024 105.141 30.7758C105.304 30.7519 105.458 30.6934 105.615 30.6535C106.892 30.3263 108.174 31.119 109.163 31.9888C110.919 33.5289 112.416 35.6303 112.366 37.9631C112.339 39.1202 111.948 40.3545 112.475 41.3812C112.778 41.9744 113.355 42.4053 113.613 43.0198C113.869 43.6263 113.778 44.3126 113.754 44.9696C113.701 46.4086 114.002 47.861 114.619 49.1617C114.31 48.9543 113.903 48.9702 113.547 49.074C113.191 49.175 112.858 49.3533 112.502 49.4517C111.956 49.6006 111.379 49.5581 110.815 49.5155C110.145 49.4623 109.474 49.4118 108.807 49.3586C108.328 49.3213 107.809 49.2655 107.464 48.933C107.083 48.5659 107.035 47.9834 107.009 47.4567C106.942 46.0549 106.876 44.6504 106.812 43.2486L104.891 39.8544L102.489 34.6568L101.633 33.904Z" fill="#000001"/>
<path d="M102.316 34.5264C102.175 35.1089 102.09 35.7047 102.061 36.3006C102.053 36.4735 102.05 36.649 102.013 36.8193C101.957 37.0906 101.822 37.3353 101.678 37.5721C101.5 37.8647 101.308 38.1493 101.104 38.4259C101.104 38.4259 102.096 38.7451 102.173 38.8489C102.298 40.0006 102.574 41.1338 102.997 42.2138C103.106 42.4904 103.237 42.783 103.487 42.9453C103.801 43.1527 104.266 43.0809 104.506 42.7883C104.737 43.033 104.886 43.3522 104.926 43.6874C104.934 43.7433 104.939 43.8044 104.976 43.847C105.014 43.8922 105.078 43.9055 105.136 43.9082C105.54 43.9295 105.889 43.5544 106.291 43.589C106.368 43.5943 106.445 43.6182 106.522 43.6129C106.599 43.6076 106.684 43.5677 106.705 43.4906C106.719 43.4453 106.705 43.3975 106.695 43.3522C106.426 42.3361 106.128 41.328 105.798 40.3278C105.668 39.9341 105.53 39.5325 105.28 39.2C105.208 39.1042 105.128 39.0164 105.08 38.9074C105.024 38.777 105.019 38.6307 105.011 38.4871C104.992 38.1493 104.953 37.8141 104.886 37.4816C104.82 37.1465 104.713 36.79 104.444 36.5772C104.285 36.4522 104.08 36.3857 103.952 36.2288C103.7 35.9175 103.87 35.4095 103.628 35.0876C103.362 34.7392 102.782 34.8296 102.316 34.5264Z" fill="#FFDC32"/>
<path d="M96.2092 53.665C96.7492 54.3247 97.2892 54.9871 97.901 55.5802C98.5128 56.1734 99.2017 56.6974 99.9811 57.0432C99.9811 57.0432 98.0473 60.6369 98.0473 60.6741C97.8824 60.9827 97.6643 61.262 97.4062 61.4987C97.4062 61.4987 87.5589 71.1572 87.5536 71.1519C87.4951 71.4764 87.4259 71.8222 87.1972 72.0643C87.0322 72.2372 86.8061 72.3356 86.5907 72.4393L83.6806 73.6283C83.6806 73.6283 81.0898 74.4769 81.0339 74.4902C80.8903 74.5886 80.7467 74.6897 80.6004 74.7881C80.5472 74.8227 80.4833 74.8599 80.4248 74.8333C80.3689 74.8067 80.3583 74.7349 80.353 74.6737C80.3423 74.5141 80.3477 74.3545 80.3689 74.1976C80.3689 74.1976 80.4753 72.9846 80.462 72.9953C80.5684 72.7319 80.8105 72.5351 81.0845 72.4526L83.7152 71.1093L93.9349 57.5061L96.2092 53.665Z" fill="#FFDC32"/>
<path d="M89.9805 109.871L91.2387 114.108C91.2387 114.108 91.6403 114.13 91.7919 114.151C92.175 114.09 92.5314 114.345 92.9144 114.396C93.1804 114.433 93.4464 114.372 93.7045 114.292C94.3375 114.098 94.9387 113.8 95.4734 113.409C95.5824 113.329 95.6995 113.185 95.617 113.079L94.6275 108.85L89.9805 109.871Z" fill="#FFDC32"/>
<path d="M97.2637 108.397L99.0193 113.058C99.0193 113.058 99.8758 113.262 99.9529 113.246C100.275 113.297 100.599 113.342 100.924 113.318C101.248 113.294 101.576 113.196 101.826 112.988C102.009 112.837 102.147 112.635 102.339 112.496C102.461 112.409 102.602 112.347 102.698 112.233C102.794 112.119 102.815 111.919 102.693 111.834L101.682 107.432L99.7428 108.017L97.2637 108.397Z" fill="#FFDC32"/>
<path d="M115.734 119.04H97.8374C97.7762 119.04 97.723 119 97.7097 118.942C97.6937 118.883 97.7203 118.822 97.7735 118.793L105.24 114.638C105.304 114.603 105.386 114.625 105.421 114.688C105.456 114.752 105.434 114.835 105.37 114.869L98.3534 118.774H115.223L108.076 114.803C108.012 114.768 107.988 114.686 108.025 114.622C108.06 114.558 108.142 114.534 108.206 114.571L115.8 118.79C115.854 118.819 115.88 118.881 115.864 118.939C115.848 118.998 115.795 119.04 115.734 119.04Z" fill="#000001"/>
<path d="M108.097 115.056H105.645C105.57 115.056 105.512 114.997 105.512 114.923V95.1643C105.512 95.0898 105.57 95.0312 105.645 95.0312C105.719 95.0312 105.778 95.0898 105.778 95.1643V114.79H107.964V95.2015C107.964 95.127 108.023 95.0685 108.097 95.0685C108.172 95.0685 108.23 95.127 108.23 95.2015V114.923C108.23 114.997 108.172 115.056 108.097 115.056Z" fill="#000001"/>
<path d="M108.607 95.2912H105.029C104.955 95.2912 104.896 95.2326 104.896 95.1581V82.5498C104.896 82.4753 104.955 82.4168 105.029 82.4168C105.104 82.4168 105.162 82.4753 105.162 82.5498V95.0252H108.474V82.4992C108.474 82.4247 108.533 82.3662 108.607 82.3662C108.682 82.3662 108.74 82.4247 108.74 82.4992V95.1581C108.74 95.2326 108.682 95.2912 108.607 95.2912Z" fill="#000001"/>
<path d="M96.8099 82.5498C96.7939 82.5498 96.778 82.5471 96.762 82.5418C96.6716 82.5072 96.5918 82.4646 96.4934 82.3928C96.4827 82.3848 96.4721 82.3742 96.4641 82.3636C95.7619 81.3927 95.5677 80.0866 95.9587 78.9534C95.9826 78.8843 96.0598 78.847 96.1289 78.871C96.1981 78.8949 96.2353 78.9721 96.2114 79.0412C95.8496 80.0866 96.0252 81.2916 96.6663 82.1907C96.7487 82.2465 96.7993 82.2731 96.8551 82.2944C97.3366 82.2784 100.028 82.2731 115.909 82.2731C116.888 82.2731 117.686 81.4751 117.686 80.4962V79.9111C117.686 78.9322 116.888 78.1342 115.909 78.1342H110.025C109.95 78.1342 109.892 78.0756 109.892 78.0012C109.892 77.9267 109.95 77.8682 110.025 77.8682H115.909C117.037 77.8682 117.952 78.7859 117.952 79.9111V80.4962C117.952 81.6241 117.037 82.5391 115.909 82.5391C107.256 82.5391 97.0865 82.5444 96.8232 82.5524C96.8179 82.5498 96.8152 82.5498 96.8099 82.5498Z" fill="#000001"/>
<path d="M104.03 43.2138C103.833 43.2138 103.631 43.142 103.48 43.0249C103.208 42.8148 103.065 42.5009 102.942 42.2003C101.945 39.7558 101.674 37.0399 102.176 34.5502C102.19 34.4784 102.261 34.4305 102.333 34.4464C102.405 34.4597 102.453 34.5316 102.437 34.6034C101.945 37.0426 102.211 39.7053 103.19 42.1019C103.299 42.3706 103.424 42.6472 103.645 42.8175C103.833 42.9638 104.145 43.017 104.318 42.8441C104.371 42.7935 104.453 42.7935 104.506 42.8441C104.557 42.8973 104.557 42.9797 104.506 43.0329C104.373 43.1579 104.203 43.2138 104.03 43.2138Z" fill="#000001"/>
<path d="M104.954 43.9086C104.898 43.9086 104.845 43.8713 104.826 43.8155C104.696 43.3978 104.531 42.9855 104.334 42.5892C104.302 42.5227 104.329 42.4429 104.392 42.411C104.459 42.3791 104.539 42.4057 104.571 42.4695C104.773 42.8765 104.946 43.3021 105.079 43.7357C105.1 43.8048 105.06 43.8793 104.991 43.9032C104.98 43.9086 104.967 43.9086 104.954 43.9086Z" fill="#000001"/>
<path d="M102.097 38.8646C102.092 38.8646 102.084 38.8646 102.078 38.8646C101.746 38.8167 101.413 38.7395 101.092 38.6385C100.969 38.5986 100.945 38.5188 100.94 38.4735C100.935 38.3964 100.98 38.3459 100.996 38.3272C101.453 37.8006 101.783 37.1648 101.948 36.4865C101.967 36.4147 102.036 36.3721 102.108 36.3881C102.179 36.4067 102.222 36.4785 102.206 36.5477C102.038 37.2287 101.714 37.8724 101.27 38.4124C101.549 38.4975 101.831 38.5587 102.116 38.5986C102.187 38.6092 102.238 38.6757 102.227 38.7502C102.219 38.8193 102.163 38.8646 102.097 38.8646Z" fill="#000001"/>
<path d="M104.459 39.5941C104.451 39.5941 104.443 39.5941 104.438 39.5941C104.363 39.5915 104.307 39.5303 104.31 39.4558C104.313 39.3813 104.374 39.3228 104.448 39.3281C104.613 39.3335 104.77 39.235 104.842 39.0887C104.893 38.9797 104.898 38.8493 104.898 38.7323C104.895 38.4557 104.85 38.187 104.794 37.8678C104.746 37.6018 104.693 37.2986 104.579 37.0299C104.496 36.8357 104.342 36.5777 104.079 36.4314C103.946 36.3915 103.834 36.2851 103.783 36.1494C103.749 36.0563 103.743 35.9606 103.741 35.8755L103.738 35.8223C103.719 35.5403 103.621 35.261 103.461 35.0269C103.352 34.995 103.246 34.9657 103.142 34.9391C102.895 34.8726 102.661 34.8115 102.437 34.7157C102.166 34.5987 101.796 34.3779 101.586 33.9922C101.552 33.9283 101.576 33.8459 101.639 33.8113C101.703 33.7767 101.786 33.798 101.82 33.8645C101.996 34.1837 102.31 34.3699 102.544 34.471C102.751 34.5614 102.975 34.6199 103.211 34.6811C103.331 34.713 103.453 34.745 103.581 34.7849C103.608 34.7928 103.634 34.8115 103.65 34.8327C103.855 35.112 103.98 35.4578 104.004 35.8036L104.007 35.8595C104.009 35.9313 104.015 36.0005 104.033 36.0563C104.055 36.1149 104.105 36.1601 104.161 36.176C104.172 36.1787 104.182 36.1814 104.19 36.1867C104.528 36.3676 104.72 36.6868 104.823 36.9208C104.951 37.2188 105.007 37.538 105.057 37.8173C105.103 38.0779 105.161 38.4051 105.164 38.7243C105.167 38.8706 105.159 39.0409 105.081 39.1978C104.967 39.4372 104.714 39.5941 104.459 39.5941Z" fill="#000001"/>
<path d="M104.392 42.1794C104.371 42.1794 104.347 42.174 104.326 42.1607C104.262 42.1235 104.241 42.0437 104.278 41.9799C104.536 41.5303 104.672 41.0169 104.666 40.4982C104.666 40.4238 104.725 40.3652 104.799 40.3652C104.871 40.3652 104.932 40.4238 104.932 40.4982C104.938 41.0648 104.789 41.6234 104.507 42.1129C104.483 42.1554 104.438 42.1794 104.392 42.1794Z" fill="#000001"/>
<path d="M112.209 49.6703C112.079 49.6703 111.951 49.6649 111.829 49.657L108.243 49.4708C108.137 49.4654 108.004 49.4575 107.887 49.3963C107.791 49.3457 107.719 49.2713 107.658 49.2021C107.413 48.9361 107.136 48.6382 106.988 48.2684C106.847 47.92 106.831 47.5343 106.817 47.1938L106.666 43.5523L106.62 43.414C106.469 42.9591 106.323 42.5122 106.174 42.0706C106.216 42.5787 106.224 43.108 106.197 43.6587C106.118 45.2174 105.767 46.7549 105.423 48.2418C105.407 48.3137 105.336 48.3589 105.264 48.3429C105.192 48.327 105.147 48.2551 105.163 48.1833C105.501 46.707 105.852 45.1828 105.931 43.6454C105.99 42.5016 105.889 41.4482 105.634 40.5012C105.477 40.057 105.314 39.6181 105.144 39.1845C105.118 39.118 105.149 39.0436 105.216 39.0143C105.28 38.985 105.357 39.0143 105.389 39.0781C105.594 39.5011 105.759 39.948 105.889 40.4215C106.224 41.3658 106.543 42.3287 106.876 43.3315L106.926 43.4858C106.929 43.4964 106.932 43.5097 106.934 43.523L107.089 47.1805C107.102 47.5157 107.118 47.8615 107.24 48.1674C107.371 48.4919 107.618 48.7605 107.86 49.0212C107.908 49.0744 107.961 49.1303 108.014 49.1595C108.081 49.1941 108.174 49.1994 108.262 49.2048L111.847 49.391C112.167 49.4069 112.528 49.4255 112.837 49.3112C112.935 49.2739 113.031 49.2234 113.129 49.1702C113.265 49.0984 113.406 49.0212 113.566 48.9787C113.84 48.9068 114.122 48.9414 114.374 49C113.896 47.8083 113.616 46.5554 113.539 45.2706C113.534 45.1961 113.59 45.135 113.664 45.1296C113.736 45.127 113.8 45.1802 113.805 45.2547C113.885 46.598 114.191 47.904 114.72 49.1409C114.741 49.1888 114.731 49.242 114.699 49.2792C114.667 49.3165 114.614 49.3324 114.563 49.3218C114.268 49.2447 113.933 49.1569 113.632 49.2367C113.502 49.2713 113.38 49.3351 113.252 49.4043C113.148 49.4601 113.042 49.516 112.927 49.5585C112.693 49.649 112.448 49.6703 112.209 49.6703Z" fill="#000001"/>
<path d="M103.799 51.872C103.794 51.872 103.788 51.872 103.783 51.872C103.711 51.864 103.658 51.7975 103.666 51.7257C103.916 49.5365 103.262 47.3021 101.873 45.5944C101.828 45.5385 101.836 45.4534 101.892 45.4082C101.947 45.3629 102.033 45.3709 102.078 45.4268C103.512 47.1904 104.187 49.4966 103.929 51.7576C103.924 51.8214 103.865 51.872 103.799 51.872Z" fill="#000001"/>
<path d="M101.527 56.3707C101.503 56.3707 101.482 56.3654 101.461 56.3521C101.397 56.3148 101.376 56.2324 101.413 56.1685L103.004 53.4713C103.041 53.4074 103.123 53.3888 103.184 53.4234C103.248 53.4606 103.27 53.5431 103.232 53.6069L101.642 56.3042C101.618 56.3467 101.575 56.3707 101.527 56.3707Z" fill="#000001"/>
<path d="M80.3404 74.6205C80.3377 74.6205 80.3351 74.6205 80.3324 74.6205C80.2579 74.6152 80.2021 74.554 80.2074 74.4795L80.2712 73.4288C80.2819 73.2692 80.2925 73.091 80.3563 72.9234C80.4494 72.684 80.6516 72.4872 80.8937 72.402C80.9016 72.3994 80.9096 72.3967 80.9176 72.3967C81.0958 72.3276 82.5854 71.5482 83.5191 71.0508L93.7521 57.4821L95.9918 53.657C96.0291 53.5932 96.1089 53.5719 96.1727 53.6091C96.2365 53.6464 96.2578 53.7288 96.2206 53.79L93.9729 57.6284L83.7133 71.2316C83.7026 71.2476 83.6867 71.2609 83.668 71.2689C81.7661 72.277 81.1863 72.5829 80.9788 72.6414L80.9814 72.6494C80.8112 72.7106 80.6702 72.8463 80.6037 73.0165C80.5532 73.1468 80.5452 73.2958 80.5346 73.4421L80.4707 74.4928C80.4681 74.5646 80.4095 74.6205 80.3404 74.6205Z" fill="#000001"/>
<path d="M82.5449 73.9977C82.0661 73.9977 81.5847 73.8727 81.1697 73.628C81.1059 73.5907 81.0846 73.5083 81.1218 73.4471C81.1591 73.3832 81.2415 73.362 81.3027 73.3992C81.848 73.7184 82.5104 73.8142 83.1248 73.6625C83.7366 73.5109 84.2819 73.1172 84.6144 72.5799C84.6543 72.5161 84.7368 72.5001 84.798 72.5374C84.8591 72.5773 84.8804 72.6571 84.8405 72.7209C84.4708 73.3141 83.867 73.753 83.1887 73.9206C82.9759 73.9711 82.7604 73.9977 82.5449 73.9977Z" fill="#000001"/>
<path d="M87.1239 72.179C87.0866 72.179 87.0494 72.1631 87.0228 72.1338C86.9749 72.0779 86.9802 71.9928 87.0361 71.9449C87.2675 71.7454 87.4085 71.4449 87.4112 71.1416C87.4112 71.107 87.4271 71.0725 87.4511 71.0485C90.143 68.4337 97.1494 61.6082 97.4261 61.273C97.434 61.2624 97.442 61.2491 97.4527 61.2411C97.6814 61.0389 97.857 60.7809 97.9607 60.491L99.8493 57.0144C99.8839 56.9505 99.9664 56.9266 100.03 56.9612C100.094 56.9957 100.118 57.0782 100.083 57.142L98.2028 60.6C98.0937 60.9113 97.8916 61.2092 97.6309 61.4406L97.6202 61.43C97.3649 61.7412 95.9072 63.2015 87.6772 71.2028C87.6559 71.5646 87.4856 71.913 87.2117 72.1471C87.1851 72.1684 87.1531 72.179 87.1239 72.179Z" fill="#000001"/>
<path d="M111.633 71.3438C111.011 71.3438 110.42 71.3226 109.872 71.2933C106.435 71.1151 103.456 70.5911 100.756 69.6867C100.179 69.4925 99.5699 69.2664 99.0246 68.9259C98.9634 68.886 98.9448 68.8035 98.982 68.7424C99.0219 68.6812 99.1044 68.6626 99.1656 68.6998C99.6869 69.027 100.277 69.2451 100.839 69.434C103.515 70.3304 106.473 70.8517 109.883 71.0273C111.827 71.1284 114.359 71.1444 116.706 70.3836C116.775 70.3623 116.852 70.3996 116.873 70.4687C116.894 70.5379 116.857 70.6123 116.788 70.6363C115.067 71.1975 113.25 71.3438 111.633 71.3438Z" fill="#000001"/>
<path d="M90.2649 79.7566C89.3977 79.7566 88.6582 79.6263 88.0092 79.3576C87.1926 79.0198 86.5462 78.4559 86.1818 77.7696C86.1472 77.7058 86.1711 77.6233 86.2376 77.5887C86.3015 77.5541 86.3839 77.5781 86.4185 77.6446C86.751 78.2777 87.3522 78.799 88.1103 79.1129C88.7567 79.3816 89.5041 79.5039 90.3872 79.4906C90.6266 79.4693 96.2924 78.6474 99.2716 78.2138C99.2823 78.2138 99.2956 78.2112 99.3062 78.2138C101.304 78.4665 103.371 78.7272 105.451 78.666C107.744 78.5995 109.736 78.134 111.367 77.2802C113.282 76.2773 114.737 74.6707 115.359 72.8752C115.615 72.1437 115.657 71.5425 115.495 71.0398C115.474 70.9706 115.511 70.8962 115.58 70.8722C115.649 70.8483 115.724 70.8882 115.748 70.9573C115.929 71.5159 115.886 72.173 115.612 72.963C114.968 74.8197 113.465 76.4795 111.492 77.5142C109.824 78.3867 107.797 78.8655 105.461 78.932C103.363 78.9932 101.296 78.7325 99.2929 78.4798C92.0098 79.5412 90.6719 79.7353 90.3926 79.7433V79.7566C90.35 79.754 90.3074 79.7566 90.2649 79.7566Z" fill="#000001"/>
<path d="M86.5538 110.531C86.4926 110.531 86.4394 110.491 86.4234 110.43C86.3516 110.132 79.2042 80.7336 79.1244 80.449C78.9409 79.4116 78.7786 78.0762 79.1164 76.8287C79.4702 75.52 80.3719 74.4959 81.4652 74.1581L83.1091 73.6473C83.1809 73.6261 83.2527 73.666 83.2767 73.7351C83.2979 73.8043 83.258 73.8788 83.1889 73.9027L81.545 74.4134C80.5369 74.7246 79.7069 75.6769 79.3744 76.9005C79.0499 78.0975 79.2095 79.3956 79.3851 80.3904C79.409 80.4436 84.9126 103.088 86.6522 110.249L95.8957 108.541L88.1844 81.247C88.1817 81.2337 88.179 81.2204 88.179 81.2071C88.1844 81.0741 88.1391 80.9384 88.0939 80.7974C88.0381 80.6298 87.9822 80.4543 87.9982 80.2628C88.0061 80.1484 88.0407 80.0446 88.0753 79.9436C88.0939 79.885 88.1125 79.8292 88.1258 79.768C88.1524 79.6536 88.1418 79.5126 88.062 79.4568C88.0008 79.4142 87.9875 79.3318 88.0301 79.2706C88.0726 79.2094 88.1551 79.1961 88.2163 79.2387C88.4078 79.3743 88.4291 79.6297 88.3865 79.8239C88.3706 79.8904 88.3493 79.9595 88.328 80.0234C88.2987 80.1111 88.2695 80.1963 88.2642 80.2787C88.2535 80.417 88.2987 80.558 88.3493 80.7096C88.3998 80.8613 88.4504 81.0209 88.4477 81.1911L96.1936 108.605C96.2043 108.64 96.1989 108.68 96.1777 108.711C96.159 108.743 96.1245 108.765 96.0899 108.773L86.5804 110.528C86.5697 110.531 86.5618 110.531 86.5538 110.531Z" fill="#000001"/>
<path d="M83.8641 73.6526C83.8109 73.6526 83.7604 73.6207 83.7418 73.5701C83.7152 73.501 83.7471 73.4239 83.8162 73.3973L94.1583 69.2769C94.2275 69.2503 94.3046 69.2822 94.3312 69.3514C94.3578 69.4206 94.3259 69.4977 94.2567 69.5243L83.9147 73.6446C83.8987 73.6473 83.8827 73.6526 83.8641 73.6526Z" fill="#000001"/>
<path d="M94.0045 70.4548C93.9566 70.4548 93.9114 70.4308 93.8875 70.3856C93.8529 70.3218 93.8742 70.2393 93.9407 70.2047C94.2093 70.0558 94.3849 69.7605 94.5551 69.4785L94.6083 69.3908C94.8025 69.0689 95.0818 68.6832 95.5074 68.5848C95.5606 68.5715 95.6165 68.5635 95.675 68.5555C95.8426 68.5316 95.9543 68.5076 95.9995 68.4305C96.0128 68.4066 96.0208 68.372 96.0314 68.3347C96.0394 68.3028 96.0474 68.2682 96.0607 68.239C96.1618 67.965 96.457 67.8347 96.7044 67.8267C96.9438 67.8187 97.1832 67.9065 97.388 67.9836L99.0319 68.6034C99.1011 68.63 99.1357 68.7071 99.1091 68.7736C99.0825 68.8428 99.008 68.8774 98.9388 68.8508L97.2949 68.231C97.1061 68.1592 96.9066 68.0874 96.7151 68.0927C96.5634 68.098 96.3719 68.1751 96.3134 68.3321C96.3054 68.356 96.3001 68.3773 96.2921 68.4012C96.2788 68.4518 96.2655 68.5076 96.2336 68.5635C96.1219 68.7603 95.8984 68.7949 95.7176 68.8215C95.667 68.8295 95.6165 68.8375 95.5713 68.8481C95.2414 68.9253 95.0073 69.2551 94.8398 69.5344L94.7866 69.6222C94.6004 69.9361 94.4062 70.2606 94.0737 70.4441C94.0471 70.4494 94.0258 70.4548 94.0045 70.4548Z" fill="#000001"/>
<path d="M95.9009 71.7611C95.893 71.7611 95.8823 71.7611 95.8743 71.7584C95.8025 71.7451 95.7546 71.6733 95.7706 71.6015C95.8318 71.3009 95.8265 70.9844 95.7546 70.6838L95.744 70.6359C95.7147 70.5136 95.6802 70.3752 95.7174 70.2316C95.752 70.096 95.8398 69.9922 95.9302 69.8991C96.2521 69.5666 96.6271 69.298 97.0474 69.1038C97.1139 69.0719 97.1937 69.1011 97.223 69.1676C97.2549 69.2341 97.2256 69.3139 97.1591 69.3432C96.7681 69.5241 96.4196 69.7741 96.1191 70.0827C96.0446 70.1598 95.9914 70.2263 95.9728 70.2954C95.9515 70.3752 95.9754 70.471 96.002 70.5721L96.0127 70.62C96.0925 70.9551 96.0978 71.3142 96.0286 71.652C96.018 71.7159 95.9621 71.7611 95.9009 71.7611Z" fill="#000001"/>
<path d="M98.4403 71.564C98.4191 71.564 98.4004 71.5587 98.3792 71.5507C98.3127 71.5188 98.2887 71.4364 98.3206 71.3725C98.4297 71.1571 98.6851 71.1092 98.8526 71.0773C99.0335 71.0427 99.1373 70.9868 99.1612 70.9123C99.1692 70.8857 99.1718 70.8538 99.1745 70.8219C99.1851 70.7261 99.2011 70.5825 99.3394 70.516C99.4006 70.4867 99.4591 70.4894 99.5017 70.4894L99.6985 70.4947C99.8661 70.1436 100.199 69.8643 100.582 69.7526C100.653 69.7313 100.725 69.7739 100.747 69.843C100.768 69.9122 100.728 69.9867 100.656 70.0079C100.34 70.101 100.066 70.3325 99.9193 70.6277C99.906 70.6543 99.8847 70.6969 99.8395 70.7288C99.7863 70.7634 99.7304 70.7607 99.7012 70.7607L99.4964 70.7554C99.4831 70.7554 99.4591 70.7554 99.4511 70.7554C99.4485 70.7634 99.4432 70.8166 99.4378 70.8485C99.4325 70.8964 99.4272 70.9443 99.4139 70.9868C99.3314 71.2555 99.0069 71.3167 98.9005 71.3353C98.7462 71.3645 98.6026 71.3965 98.5574 71.4896C98.5361 71.5374 98.4909 71.564 98.4403 71.564Z" fill="#000001"/>
<path d="M84.0883 76.4162C84.0297 76.4162 83.9765 76.3789 83.9606 76.3204C83.9393 76.2486 83.9819 76.1768 84.051 76.1555C88.4985 74.8627 92.986 73.4982 97.3909 72.1017C97.4627 72.0804 97.5346 72.1176 97.5585 72.1894C97.5798 72.2586 97.5425 72.3331 97.4707 72.357C93.0631 73.7535 88.573 75.1181 84.1228 76.4135C84.1149 76.4162 84.1016 76.4162 84.0883 76.4162Z" fill="#000001"/>
<path d="M83.3106 81.1664C83.2468 81.1664 83.1909 81.1212 83.1803 81.0574C83.1005 80.6105 83.1377 80.1476 83.2814 79.7194L83.2947 79.6821C83.3293 79.5864 83.3612 79.4933 83.3479 79.4135C83.3292 79.2858 83.2095 79.1953 83.0712 79.0916C82.9781 79.0224 82.8824 78.948 82.8052 78.8575C82.5951 78.6022 82.5632 78.2058 82.7281 77.8467C82.8664 77.5408 83.1111 77.3014 83.3266 77.0913C83.3798 77.0408 83.4649 77.0407 83.5155 77.0939C83.566 77.1471 83.566 77.2296 83.5128 77.2828C83.3053 77.4876 83.0872 77.6978 82.9702 77.9584C82.8717 78.1766 82.8451 78.4878 83.0127 78.6899C83.0686 78.7591 83.1484 78.8176 83.2335 78.8815C83.3958 79.0038 83.5766 79.1422 83.6112 79.3762C83.6325 79.5199 83.5873 79.6529 83.5447 79.7699L83.5314 79.8072C83.4011 80.1955 83.3691 80.6105 83.4383 81.0148C83.4516 81.0866 83.4037 81.1558 83.3292 81.1691C83.3239 81.1637 83.3186 81.1664 83.3106 81.1664Z" fill="#000001"/>
<path d="M90.9406 108.381C90.8794 108.381 90.8235 108.339 90.8102 108.278C90.4139 106.512 90.0042 104.687 89.5494 102.897C88.9057 100.375 88.1502 97.8399 87.4187 95.39L83.6229 82.6726C83.6016 82.6034 83.6415 82.5289 83.7133 82.5077C83.7825 82.4864 83.857 82.5263 83.8783 82.5981L87.6741 95.3156C88.4056 97.7681 89.1637 100.306 89.8074 102.833C90.2649 104.628 90.6746 106.456 91.0709 108.222C91.0869 108.294 91.0416 108.366 90.9698 108.381C90.9592 108.381 90.9485 108.381 90.9406 108.381Z" fill="#000001"/>
<path d="M110.843 73.2587C109.859 73.2587 108.84 73.1736 107.789 73.0033C105.142 72.5777 102.615 71.66 100.711 70.9072C100.642 70.8806 100.61 70.8035 100.636 70.7343C100.663 70.6652 100.74 70.6306 100.809 70.6599C102.703 71.4073 105.211 72.317 107.834 72.74C110.484 73.1656 112.918 73.0485 115.069 72.3889C115.139 72.3676 115.213 72.4075 115.234 72.4766C115.256 72.5458 115.216 72.6203 115.147 72.6416C113.811 73.0539 112.372 73.2587 110.843 73.2587Z" fill="#000001"/>
<path d="M105.631 78.3929C105.594 78.3929 105.554 78.377 105.527 78.3451C105.479 78.2892 105.487 78.2041 105.546 78.1588C107.105 76.8741 108.28 75.0998 108.855 73.1634C108.876 73.0942 108.951 73.0543 109.02 73.0729C109.089 73.0942 109.132 73.1687 109.11 73.2378C108.52 75.2249 107.315 77.0443 105.716 78.361C105.69 78.3849 105.66 78.3929 105.631 78.3929Z" fill="#000001"/>
<path d="M106.306 74.2726C104.317 74.2726 102.34 73.8177 100.547 72.9453C100.481 72.9133 100.454 72.8335 100.486 72.767C100.518 72.7005 100.598 72.6739 100.664 72.7058C102.633 73.6661 104.827 74.1077 107.016 73.988C107.091 73.9826 107.152 74.0412 107.157 74.113C107.163 74.1875 107.104 74.2486 107.032 74.254C106.788 74.2673 106.546 74.2726 106.306 74.2726Z" fill="#000001"/>
<path d="M103.334 78.2247C103.289 78.2247 103.246 78.2034 103.222 78.1635C103.182 78.1023 103.201 78.0198 103.265 77.9799C104.483 77.2165 105.542 76.1791 106.326 74.9768C106.366 74.9156 106.449 74.8997 106.51 74.9369C106.571 74.9768 106.59 75.0593 106.55 75.1204C105.744 76.3547 104.656 77.4187 103.406 78.2034C103.382 78.2193 103.358 78.2247 103.334 78.2247Z" fill="#000001"/>
<path d="M107.749 78.1075C107.714 78.1075 107.682 78.0942 107.655 78.0702C107.602 78.0197 107.602 77.9346 107.653 77.8814C108.501 77.0222 109.236 76.054 109.839 75.0086C109.877 74.9447 109.956 74.9235 110.02 74.9607C110.084 74.9979 110.105 75.0777 110.068 75.1416C109.454 76.2082 108.704 77.1924 107.842 78.0676C107.818 78.0942 107.783 78.1075 107.749 78.1075Z" fill="#000001"/>
<path d="M111.688 74.5969C111.244 74.5969 110.797 74.5703 110.358 74.5144C110.286 74.5064 110.233 74.44 110.244 74.3655C110.252 74.2937 110.321 74.2405 110.393 74.2511C111.8 74.4293 113.263 74.3123 114.627 73.9186C114.696 73.8973 114.771 73.9399 114.792 74.009C114.813 74.0782 114.771 74.1527 114.702 74.174C113.728 74.4533 112.704 74.5969 111.688 74.5969Z" fill="#000001"/>
<path d="M96.1779 108.576C96.1087 108.576 96.0502 108.522 96.0449 108.451C96.0396 108.376 96.0954 108.315 96.1699 108.31C98.3618 108.166 100.479 107.953 102.291 106.919C102.442 106.833 102.596 106.738 102.698 106.597C102.775 106.488 102.823 106.32 102.751 106.195C102.745 106.187 102.743 106.179 102.74 106.171C102.719 106.105 95.34 83.1142 95.0261 82.1353C94.933 81.707 94.816 81.2921 94.6723 80.8904C94.6165 80.7335 94.5579 80.5818 94.4515 80.4781C94.417 80.4435 94.3744 80.4143 94.3345 80.385C94.2813 80.3478 94.2308 80.3079 94.1855 80.2626C93.9328 80.0126 93.9089 79.6482 93.9062 79.2971C93.9062 79.2226 93.9648 79.1641 94.0393 79.1641C94.1111 79.1641 94.1723 79.2226 94.1723 79.2971C94.1749 79.5923 94.1935 79.8982 94.3717 80.0764C94.409 80.1137 94.4489 80.1429 94.4915 80.1749C94.542 80.2121 94.5925 80.2493 94.6351 80.2919C94.7814 80.4355 94.8585 80.6244 94.9224 80.8053C95.0687 81.2176 95.191 81.6432 95.2815 82.0714C95.3533 82.2949 102.796 105.479 102.987 106.081C103.094 106.28 103.065 106.543 102.913 106.756C102.783 106.94 102.591 107.057 102.424 107.153C100.562 108.214 98.4123 108.432 96.1885 108.576C96.1859 108.576 96.1806 108.576 96.1779 108.576Z" fill="#000001"/>
<path d="M91.212 114.367C91.1535 114.367 91.1003 114.329 91.0844 114.268L89.8874 110.002C89.8687 109.93 89.9086 109.858 89.9805 109.837C90.0496 109.818 90.1241 109.858 90.1454 109.93L91.3424 114.196C91.361 114.268 91.3211 114.34 91.2493 114.361C91.236 114.367 91.2227 114.367 91.212 114.367Z" fill="#000001"/>
<path d="M95.7064 113.438C95.6478 113.438 95.592 113.398 95.576 113.336L94.512 109.07C94.4934 108.998 94.5386 108.926 94.6078 108.908C94.6796 108.889 94.7514 108.934 94.77 109.003L95.834 113.27C95.8527 113.342 95.8074 113.414 95.7383 113.432C95.7276 113.435 95.717 113.438 95.7064 113.438Z" fill="#000001"/>
<path d="M96.9472 119.09H82.7987C82.7322 119.09 82.6763 119.039 82.6657 118.973L82.6391 118.763C82.4742 118.09 82.8785 117.409 83.3546 117.039C83.8653 116.64 84.4984 116.475 85.1022 116.356C85.5198 116.273 85.9481 116.207 86.3604 116.143C87.0174 116.042 87.6984 115.935 88.3474 115.76C89.5764 115.43 90.4941 114.885 91.0739 114.142C91.0899 114.124 91.1085 114.108 91.1325 114.1C91.3692 114.012 91.7416 113.954 92.0794 114.047C92.1566 114.068 92.2337 114.1 92.3082 114.129C92.3667 114.153 92.4226 114.174 92.4837 114.193C92.8854 114.318 93.319 114.225 93.8031 114.103C94.2846 113.98 94.7101 113.855 95.0187 113.571C95.0506 113.541 95.0799 113.512 95.1091 113.483C95.2182 113.376 95.3406 113.254 95.5055 113.198C95.8167 113.097 96.1732 113.262 96.4578 113.64C96.769 114.052 96.9605 114.539 97.0137 115.052H97.0057C97.0483 115.273 97.0642 116.039 97.0722 118.954C97.0722 118.989 97.0589 119.024 97.0323 119.047C97.0164 119.077 96.9818 119.09 96.9472 119.09ZM82.9157 118.824H96.8142C96.8089 117.385 96.7903 115.318 96.7637 115.111C96.761 115.1 96.7584 115.092 96.7584 115.081C96.7105 114.616 96.5349 114.174 96.253 113.802C96.088 113.584 95.83 113.379 95.5959 113.453C95.4895 113.488 95.3991 113.579 95.306 113.672C95.2741 113.704 95.2395 113.738 95.2049 113.767C94.8485 114.092 94.391 114.228 93.8749 114.361C93.4706 114.464 92.9173 114.605 92.4119 114.448C92.3454 114.427 92.2816 114.403 92.2177 114.377C92.1512 114.35 92.0847 114.323 92.0129 114.305C91.7522 114.23 91.4623 114.273 91.2628 114.339C90.6457 115.113 89.6907 115.677 88.4219 116.02C87.7569 116.199 87.0706 116.305 86.4056 116.409C85.996 116.473 85.5704 116.539 85.1581 116.619C84.5835 116.733 83.9904 116.888 83.5195 117.252C83.1126 117.569 82.7614 118.146 82.9024 118.718L82.9157 118.824Z" fill="#000001"/>
<path d="M90.7839 116.191C90.7493 116.191 90.7147 116.186 90.6775 116.178C90.6535 116.172 90.587 116.154 90.5418 116.093C90.4833 116.013 90.5072 115.917 90.5179 115.882C90.6323 115.452 90.7839 115.026 90.9701 114.624C91.002 114.558 91.0791 114.529 91.1456 114.56C91.2121 114.592 91.2414 114.67 91.2095 114.736C91.0339 115.116 90.8876 115.518 90.7812 115.925C90.8849 115.925 90.9967 115.84 91.0951 115.757C91.5553 115.369 91.9968 114.951 92.4091 114.515C92.4597 114.462 92.5448 114.459 92.598 114.51C92.6512 114.56 92.6539 114.646 92.6033 114.699C92.183 115.143 91.7335 115.566 91.2653 115.962C91.1297 116.074 90.9674 116.191 90.7839 116.191Z" fill="#000001"/>
<path d="M96.287 118.46H83.3381C83.2636 118.46 83.2051 118.402 83.2051 118.327C83.2051 118.253 83.2636 118.194 83.3381 118.194H96.287C96.3614 118.194 96.42 118.253 96.42 118.327C96.42 118.402 96.3588 118.46 96.287 118.46Z" fill="#000001"/>
<path d="M104.366 115.162C104.305 115.162 104.249 115.119 104.236 115.055C104.044 114.103 103.829 113.191 103.273 112.494C103.14 112.326 103.017 112.246 102.908 112.26C102.794 112.273 102.698 112.393 102.605 112.504L102.576 112.539C101.985 113.247 101.02 113.6 100.11 113.435C99.9584 113.409 99.8094 113.366 99.6631 113.329C99.3599 113.247 99.0726 113.169 98.796 113.207C98.5486 114.005 97.8251 114.63 97.0058 114.736C96.934 114.747 96.8675 114.694 96.8568 114.622C96.8462 114.55 96.8994 114.483 96.9712 114.473C97.7133 114.377 98.3677 113.794 98.5619 113.058C98.5752 113.01 98.6124 112.973 98.663 112.962C99.03 112.882 99.3865 112.981 99.7323 113.074C99.8733 113.111 100.017 113.151 100.158 113.177C100.975 113.324 101.842 113.007 102.371 112.371L102.398 112.337C102.512 112.198 102.656 112.023 102.874 111.996C103.079 111.972 103.283 112.084 103.478 112.329C104.068 113.074 104.294 114.021 104.491 115.005C104.504 115.077 104.459 115.146 104.387 115.162C104.382 115.162 104.374 115.162 104.366 115.162Z" fill="#000001"/>
<path d="M98.9463 113.162C98.8904 113.162 98.8399 113.127 98.8212 113.074L97.2146 108.533C97.1907 108.464 97.2252 108.387 97.2944 108.363C97.3636 108.339 97.4407 108.374 97.4646 108.443L99.0713 112.983C99.0952 113.053 99.0606 113.13 98.9915 113.154C98.9755 113.159 98.9596 113.162 98.9463 113.162Z" fill="#000001"/>
<path d="M102.738 112.163C102.677 112.163 102.621 112.121 102.607 112.06L101.583 107.527C101.567 107.455 101.613 107.383 101.684 107.367C101.756 107.352 101.828 107.397 101.844 107.469L102.868 112.001C102.884 112.073 102.839 112.145 102.767 112.161C102.756 112.163 102.748 112.163 102.738 112.163Z" fill="#000001"/>
<path d="M96.3373 13.8643H66.2793V43.9223H96.3373V13.8643Z" fill="#00396D"/>
<path d="M85.7829 39.0572C84.0247 39.0572 82.3701 37.9825 81.8355 36.4504C81.5881 35.7402 81.5748 34.9767 81.5615 34.2399C81.5455 33.402 81.5323 32.6093 81.2077 31.8858C80.8486 31.0852 80.1198 30.4069 78.976 29.8137C78.6249 29.6301 78.2551 29.4626 77.8987 29.3003C77.2975 29.0263 76.6778 28.7444 76.1112 28.3773C74.0869 27.0632 72.9378 24.6001 73.3155 22.3816C73.3208 22.3577 73.3315 22.3338 73.3474 22.3151C73.5629 22.0704 73.7677 21.8284 73.9645 21.5969C74.9487 20.4425 75.7999 19.445 76.9544 18.9343C78.6195 18.1975 80.5188 18.6124 82.1653 19.0593C85.1366 19.8653 88.4323 21.0437 90.3422 23.6797C92.0818 26.0817 92.2254 29.1035 92.0419 31.2155C91.8637 33.277 91.3583 34.9182 90.4964 36.2349C89.4404 37.8495 87.8152 38.8976 86.1447 39.0412C86.025 39.0519 85.9026 39.0572 85.7829 39.0572ZM73.5709 22.4641C73.2304 24.5708 74.329 26.9063 76.2575 28.1538C76.8081 28.5103 77.4199 28.7896 78.0104 29.0582C78.3695 29.2205 78.7419 29.3907 79.101 29.5769C80.3007 30.202 81.0694 30.9202 81.4524 31.7768C81.7982 32.5482 81.8142 33.4073 81.8302 34.2346C81.8435 34.9528 81.8568 35.6949 82.0908 36.3626C82.6202 37.8894 84.3545 38.9268 86.1261 38.7752C87.7141 38.6396 89.2675 37.6367 90.2783 36.0886C91.1136 34.8092 91.6057 33.2078 91.7812 31.1916C91.9621 29.1247 91.8211 26.1695 90.1294 23.834C88.2674 21.2644 85.0248 20.1073 82.0988 19.3147C80.4949 18.8811 78.6515 18.4768 77.0634 19.1763C75.9649 19.6631 75.1722 20.5915 74.1694 21.7672C73.9752 21.9959 73.7783 22.2274 73.5709 22.4641Z" fill="white"/>
<path d="M81.5961 29.537C81.5616 29.537 81.527 29.5237 81.503 29.4971C81.1493 29.1434 80.6412 28.9119 79.907 28.7683C79.6889 28.7257 79.4681 28.6938 79.25 28.6619C78.859 28.6034 78.4573 28.5449 78.0663 28.4305C77.0768 28.1379 76.1884 27.4729 75.6324 26.6031C75.5925 26.5419 75.6111 26.4594 75.6723 26.4195C75.7335 26.3796 75.816 26.3982 75.8559 26.4594C76.3799 27.276 77.2125 27.9011 78.1408 28.1751C78.5105 28.2842 78.9069 28.3427 79.2873 28.3986C79.5107 28.4305 79.7341 28.4651 79.9576 28.5076C80.7449 28.6592 81.2982 28.9146 81.6919 29.3083C81.7451 29.3615 81.7451 29.4439 81.6919 29.4971C81.6626 29.5237 81.6281 29.537 81.5961 29.537Z" fill="white"/>
<path d="M84.7535 36.7402C84.7509 36.7402 84.7455 36.7402 84.7429 36.7402C84.6684 36.7348 84.6152 36.671 84.6205 36.5965C84.6524 36.2215 84.5647 35.8384 84.3758 35.5166C84.28 35.3543 84.1603 35.2053 84.0353 35.0511C83.9316 34.9234 83.8252 34.793 83.7321 34.6521C83.1229 33.7264 83.1921 32.4948 83.2426 31.5957C83.248 31.5239 83.3118 31.4707 83.3836 31.4707C83.4581 31.476 83.514 31.5372 83.5086 31.6117C83.4475 32.7289 83.4368 33.7211 83.9555 34.5084C84.0406 34.6388 84.1391 34.7585 84.2428 34.8861C84.3705 35.0431 84.5008 35.2053 84.6072 35.3862C84.8253 35.756 84.9238 36.1949 84.8892 36.6231C84.8812 36.6896 84.8227 36.7402 84.7535 36.7402Z" fill="white"/>
<path d="M88.7797 35.3148C88.7611 35.3148 88.7398 35.3095 88.7212 35.3015C88.6547 35.2696 88.6281 35.1898 88.66 35.1233C89.1681 34.0805 89.4234 33.0591 89.4208 32.0909C89.4181 30.9816 89.0643 29.9549 88.4259 29.1968C88.2318 28.968 88.0057 28.7552 87.7849 28.5504C87.5747 28.3536 87.3566 28.1487 87.1624 27.9253C86.6384 27.3215 86.2926 26.5873 86.1623 25.8C86.149 25.7281 86.1995 25.659 86.2713 25.6457C86.3405 25.6324 86.4123 25.6829 86.4256 25.7547C86.548 26.4942 86.8725 27.1832 87.3646 27.7497C87.5508 27.9625 87.7636 28.162 87.9684 28.3536C88.1945 28.5637 88.4259 28.7818 88.6308 29.0239C89.3091 29.8272 89.6841 30.9151 89.6894 32.0882C89.6921 33.099 89.4288 34.1603 88.9021 35.2376C88.8755 35.2882 88.8276 35.3148 88.7797 35.3148Z" fill="white"/>
<path d="M85.7161 23.6821C85.6603 23.6821 85.6097 23.6475 85.5911 23.5917C85.3145 22.7564 84.583 22.0781 83.7291 21.86C83.221 21.7297 82.6731 21.7536 82.1437 21.7776C82.0347 21.7829 81.923 21.7882 81.8139 21.7909C80.3403 21.8387 79.2949 21.4903 78.7177 20.7535C78.6724 20.6949 78.6831 20.6125 78.7389 20.5673C78.7948 20.522 78.8799 20.5327 78.9251 20.5885C79.4465 21.2535 80.4147 21.5648 81.8033 21.5249C81.9123 21.5222 82.0214 21.5169 82.1304 21.5116C82.6784 21.4876 83.2476 21.4637 83.7929 21.602C84.7319 21.8414 85.5352 22.5889 85.8411 23.5066C85.8651 23.5757 85.8278 23.6502 85.756 23.6741C85.7454 23.6795 85.7294 23.6821 85.7161 23.6821Z" fill="white"/>
<path d="M73.4302 22.4855C73.4143 22.4855 73.3983 22.4828 73.3824 22.4775C72.6189 22.1796 71.946 21.5704 71.4911 20.7671C71.1081 20.0915 70.8687 19.2669 70.7809 18.3226C70.725 17.7054 70.7436 17.2054 70.8474 16.7478C70.8633 16.676 70.9352 16.6308 71.007 16.6468C71.0788 16.6627 71.124 16.7345 71.1081 16.8064C71.0123 17.2373 70.9937 17.7108 71.0469 18.2986C71.132 19.2057 71.3581 19.993 71.7225 20.6368C72.1481 21.3869 72.7706 21.9535 73.4781 22.2301C73.5473 22.2567 73.5792 22.3338 73.5526 22.403C73.534 22.4535 73.4834 22.4855 73.4302 22.4855Z" fill="white"/>
<path d="M73.8757 22.6688C73.8677 22.6688 73.8624 22.6688 73.8544 22.6688C73.6868 22.6661 73.5512 22.6182 73.4581 22.5304C73.4049 22.4799 73.4022 22.3948 73.4527 22.3416C73.5033 22.2884 73.5857 22.2857 73.6416 22.3363C73.6975 22.3895 73.7932 22.4028 73.8624 22.4028C73.8677 22.4028 73.873 22.4028 73.8757 22.4028C74.1736 22.4028 74.4715 22.2219 74.6072 21.9585C74.7402 21.6979 74.7162 21.3521 74.546 21.11C74.421 21.0275 74.2906 20.9531 74.163 20.8812C74.0246 20.8041 73.8837 20.7216 73.7507 20.6312C73.1841 20.2428 72.7372 19.6443 72.4951 18.9448C72.2744 18.3117 72.2158 17.5908 72.3249 16.854C72.3355 16.7822 72.4047 16.729 72.4765 16.7423C72.5483 16.7529 72.5989 16.8194 72.5882 16.8939C72.4872 17.5882 72.543 18.2665 72.7478 18.8596C72.9713 19.506 73.3809 20.0593 73.9023 20.4131C74.0273 20.4982 74.1576 20.5727 74.296 20.6525C74.4343 20.7323 74.5753 20.8121 74.7136 20.9052C74.7269 20.9132 74.7375 20.9238 74.7455 20.9344C74.9902 21.259 75.0301 21.7191 74.8439 22.0809C74.6604 22.4347 74.2747 22.6688 73.8757 22.6688Z" fill="white"/>
<path d="M73.2761 39.3334C73.2415 39.3334 73.2043 39.3201 73.1777 39.2909C73.1271 39.2377 73.1324 39.1526 73.1856 39.102C74.1725 38.195 75.5717 38.046 76.5798 38.0832C77.2315 38.1072 77.8832 38.2029 78.5163 38.3679C78.7796 38.437 79.0429 38.5168 79.2983 38.5966C79.8409 38.7642 80.4049 38.9398 80.9741 38.9876C81.7083 39.0488 82.6526 38.8626 83.1101 38.1444C83.15 38.0832 83.2325 38.0646 83.2936 38.1045C83.3548 38.1444 83.3734 38.2269 83.3335 38.2881C82.8122 39.1047 81.7615 39.3228 80.9502 39.2536C80.3543 39.2031 79.7771 39.0249 79.2185 38.852C78.9658 38.7748 78.7051 38.6924 78.4471 38.6259C77.8327 38.4663 77.2022 38.3732 76.5665 38.3492C75.6169 38.3173 74.2815 38.4503 73.3638 39.2989C73.3399 39.3228 73.308 39.3334 73.2761 39.3334Z" fill="white"/>
<path d="M73.1786 40.9993C73.1466 40.9993 73.1174 40.9887 73.0908 40.9674C73.0349 40.9195 73.0296 40.8344 73.0775 40.7786C73.7052 40.0497 74.6575 39.5762 75.7561 39.4486C76.6445 39.3448 77.6154 39.4592 78.7326 39.7944C78.9614 39.8635 79.1875 39.938 79.4109 40.0125C79.8232 40.1508 80.2515 40.2918 80.6798 40.3875C81.4325 40.5551 82.0869 40.5445 82.6295 40.3556C83.361 40.1003 83.9303 39.5177 84.4969 38.8926C84.5474 38.8368 84.6299 38.8341 84.6857 38.8846C84.7389 38.9352 84.7442 39.0176 84.6937 39.0735C84.1032 39.7252 83.5073 40.3317 82.7173 40.6083C82.1295 40.8131 81.4246 40.8291 80.6239 40.6482C80.1823 40.5498 79.7488 40.4062 79.3285 40.2652C79.105 40.1907 78.8816 40.1162 78.6555 40.0471C77.5755 39.7225 76.6392 39.6108 75.788 39.7092C74.7692 39.8289 73.8542 40.2785 73.2796 40.9488C73.253 40.9834 73.2158 40.9993 73.1786 40.9993Z" fill="white"/>
<path d="M89.475 16.995C89.1904 16.995 88.9004 16.9232 88.7196 16.6678C88.7009 16.6412 88.685 16.6146 88.6664 16.5854C88.6371 16.5348 88.6105 16.4923 88.5786 16.471C88.5307 16.4391 88.4429 16.4444 88.3605 16.4524C87.7354 16.5135 87.1076 16.604 86.4905 16.7184C86.4187 16.7317 86.3495 16.6838 86.3362 16.612C86.3229 16.5401 86.3708 16.471 86.4426 16.4577C87.0677 16.3406 87.7034 16.2502 88.3365 16.189C88.4323 16.1784 88.5972 16.1624 88.7302 16.2529C88.8127 16.3087 88.8579 16.3832 88.8978 16.4524C88.9111 16.4736 88.9244 16.4976 88.9403 16.5189C89.1478 16.8141 89.6293 16.7503 90.0708 16.6492C91.5551 16.3114 93.1325 16.2821 94.6274 16.5614C94.6992 16.5747 94.7471 16.6439 94.7338 16.7157C94.7205 16.7875 94.6487 16.8354 94.5795 16.8221C93.1192 16.5481 91.5791 16.5774 90.1294 16.9072C89.9671 16.9391 89.725 16.995 89.475 16.995Z" fill="#FFDC32"/>
<path d="M93.9544 18.9899C93.9411 18.9899 93.9252 18.9873 93.9119 18.9819C92.9756 18.6574 91.9568 18.5271 90.9673 18.5989C90.6853 18.6202 90.3954 18.6574 90.1187 18.6947C89.8049 18.7346 89.4803 18.7771 89.1558 18.7984C88.9936 18.8064 88.8047 18.8117 88.6371 18.7292C88.544 18.684 88.4722 18.6202 88.403 18.559C88.3764 18.5351 88.3498 18.5138 88.3232 18.4925C87.8019 18.0829 87.0145 18.2744 86.3096 18.5138C86.2404 18.5377 86.166 18.5005 86.142 18.4313C86.1181 18.3622 86.1553 18.285 86.2245 18.2611C86.9959 17.9951 87.8684 17.7903 88.4881 18.2824C88.5201 18.3063 88.5493 18.3329 88.5786 18.3595C88.6371 18.41 88.693 18.4606 88.7541 18.4898C88.8659 18.543 89.0068 18.5404 89.1425 18.5324C89.4564 18.5138 89.7756 18.4712 90.0868 18.4313C90.3688 18.3941 90.6614 18.3568 90.9513 18.3356C91.9754 18.2611 93.0288 18.3967 93.9997 18.7319C94.0688 18.7558 94.1061 18.833 94.0821 18.9021C94.0608 18.9553 94.0076 18.9899 93.9544 18.9899Z" fill="#FFDC32"/>
<path d="M91.6881 20.4669C91.3662 20.4669 91.0444 20.4536 90.7252 20.4296C90.507 20.4137 90.2783 20.3844 90.0841 20.2594C90.0389 20.2301 89.9963 20.1929 89.9511 20.1583C89.8952 20.1131 89.842 20.0679 89.7862 20.0439C89.6851 20.0014 89.5521 20.0226 89.4351 20.0386L88.2194 20.2195C88.1503 20.2301 88.0785 20.1796 88.0678 20.1078C88.0572 20.0359 88.1077 19.9668 88.1795 19.9561L89.3952 19.7753C89.5388 19.754 89.717 19.7274 89.8873 19.7965C89.9804 19.8338 90.0548 19.8976 90.1213 19.9508C90.1559 19.9801 90.1905 20.0093 90.2277 20.0333C90.3687 20.1264 90.5523 20.1477 90.7464 20.161C91.4567 20.2168 92.1775 20.2088 92.8851 20.137C92.9516 20.1317 93.0234 20.1822 93.0314 20.2567C93.0394 20.3285 92.9862 20.395 92.9117 20.403C92.5047 20.4456 92.0977 20.4669 91.6881 20.4669Z" fill="#FFDC32"/>
<path d="M71.5243 31.8693C71.3966 31.8693 71.2689 31.8534 71.1412 31.8161C71.0003 31.7762 70.8726 31.7097 70.7502 31.6485C70.6731 31.6086 70.5959 31.5714 70.5161 31.5368C69.8059 31.2495 68.9787 31.5288 68.194 31.8374C68.1248 31.864 68.0477 31.8294 68.0211 31.7629C67.9945 31.6938 68.0264 31.6166 68.0955 31.59C68.9308 31.2602 69.8139 30.9676 70.6146 31.2921C70.7023 31.3267 70.7848 31.3692 70.8699 31.4118C70.987 31.4703 71.0987 31.5262 71.2157 31.5608C71.6174 31.6778 72.0297 31.5342 72.4659 31.3825C72.6707 31.3107 72.8809 31.2389 73.091 31.1937C73.8092 31.0394 74.5354 31.199 75.2403 31.3533C75.9558 31.5102 76.6315 31.6592 77.2991 31.5049C77.371 31.4863 77.4428 31.5342 77.4587 31.606C77.4747 31.6778 77.4295 31.7496 77.3577 31.7656C76.6315 31.9305 75.8947 31.7709 75.1818 31.614C74.4742 31.4597 73.8066 31.3134 73.1442 31.4544C72.9474 31.4969 72.7452 31.5661 72.5484 31.6352C72.2159 31.7496 71.8727 31.8693 71.5243 31.8693Z" fill="#FFDC32"/>
<path d="M72.3964 33.6814C72.3725 33.6814 72.3485 33.6814 72.3246 33.6788C72.0453 33.6681 71.7766 33.5963 71.5159 33.5271C71.3882 33.4926 71.2606 33.458 71.1329 33.4314C70.3056 33.2611 69.4491 33.3995 68.6218 33.5351C68.55 33.5484 68.4809 33.4979 68.4702 33.4261C68.4596 33.3542 68.5075 33.2851 68.5793 33.2744C69.3906 33.1414 70.3109 32.9898 71.1887 33.1707C71.3217 33.1973 71.4547 33.2345 71.5877 33.2691C71.8458 33.3383 72.0878 33.4021 72.3379 33.4128C72.6597 33.4261 72.9949 33.3383 73.3141 33.2558L73.3806 33.2399C74.5643 32.9366 75.9501 32.6839 77.2456 33.0936C77.3147 33.1148 77.3546 33.1893 77.3334 33.2611C77.3121 33.3303 77.2376 33.3702 77.1658 33.3489C75.9342 32.9606 74.5935 33.2079 73.4471 33.5005L73.3806 33.5165C73.0614 33.5963 72.7342 33.6814 72.3964 33.6814Z" fill="#FFDC32"/>
<path d="M68.7565 35.5994C68.6953 35.5994 68.6394 35.5568 68.6261 35.493C68.6102 35.4212 68.658 35.3494 68.7299 35.3361C69.9003 35.0913 71.0946 35.0382 72.2836 35.1765C72.382 35.1871 72.4831 35.2004 72.5815 35.2137C72.8874 35.2536 73.212 35.2935 73.5072 35.2935C73.9275 35.2908 74.3558 35.2057 74.7681 35.1259C74.9569 35.0887 75.1458 35.0515 75.3346 35.0222C76.1433 34.8919 76.7524 34.9477 77.2472 35.1978C77.3137 35.2297 77.3403 35.3121 77.3057 35.376C77.2711 35.4398 77.1913 35.4664 77.1275 35.4345C76.6859 35.2111 76.1273 35.1632 75.3772 35.2829C75.191 35.3121 75.0048 35.3494 74.8213 35.3866C74.3957 35.4717 73.9568 35.5568 73.5125 35.5595C73.1774 35.5568 72.8635 35.5196 72.5496 35.477C72.4512 35.4637 72.3528 35.4504 72.2544 35.4398C71.0946 35.3041 69.9269 35.3574 68.7857 35.5968C68.7724 35.5968 68.7644 35.5994 68.7565 35.5994Z" fill="#FFDC32"/>
</svg>
