<svg width="400" height="400" viewBox="0 0 400 400" fill="none" xmlns="http://www.w3.org/2000/svg">
<path d="M85.2708 92.9839C89.7028 90.7759 94.7508 89.8239 99.6868 90.2559C101.655 90.4319 103.687 90.8479 105.263 92.0399C105.263 92.0399 109.695 101.528 110.111 101.528C113.495 120.768 115.535 140.248 116.215 159.768L120.759 194.44L122.527 206.536C122.527 206.536 132.511 325.184 132.583 325.576C132.759 328.032 133.367 330.448 134.359 332.696C134.639 333.336 134.959 333.984 134.967 334.688C134.975 335.752 134.263 336.688 134.039 337.728C133.839 338.64 134.031 339.592 134.087 340.528C134.143 341.464 134.031 342.496 133.199 342.824C132.407 342.472 131.959 341.64 131.463 340.92C130.967 340.2 130.215 339.496 129.223 339.568C124.135 339.76 119.431 342.64 116.087 346.48C114.919 347.824 113.759 349.376 112.039 349.832C110.847 350.144 109.551 349.872 108.439 350.288C107.431 350.424 106.759 349.304 106.367 348.368C106.047 347.6 105.727 346.784 105.847 345.96C105.983 345 106.695 344.24 107.087 343.352C107.391 342.664 107.503 341.888 107.407 341.136C107.247 339.904 106.535 338.744 106.671 337.504C106.759 336.736 107.167 336.056 107.471 335.344C108.151 333.76 108.327 331.968 107.975 330.288L97.1988 213.76C97.1988 213.76 77.3428 330.52 77.3508 330.632C77.1988 331.816 77.2228 333.016 77.4068 334.184C77.5108 334.824 77.6628 335.48 77.4788 336.104C77.2068 337.056 76.2628 337.632 75.7188 338.464C74.8868 339.728 75.0868 341.392 74.5908 342.824C74.1828 342.24 73.7188 341.704 73.1988 341.224C72.7028 340.752 72.1028 340.32 71.4228 340.296C70.7108 340.272 70.0708 340.688 69.4468 341.032C66.1588 342.864 62.2148 343.008 58.4548 342.784C57.3588 342.72 56.1748 342.64 55.2788 343.312C54.2868 343.728 53.5028 344.52 52.5268 344.976C51.2548 345.576 49.7828 345.552 48.4548 345.36C47.6708 345.112 47.2548 344.256 46.9908 343.472C46.5908 342.28 46.3348 341.04 46.2308 339.784C46.1668 338.984 46.1668 338.136 46.5588 337.424C46.7908 336.992 47.1508 336.648 47.5028 336.304C48.5908 335.248 49.7108 334.064 49.9188 332.568C50.0308 331.744 49.8468 330.912 49.8068 330.08C49.7508 328.912 49.9988 327.728 50.5188 326.68L66.6868 218L68.8708 203.92L85.2708 92.9839Z" fill="#40E0D0"/>
<path d="M111.191 55.8887C112.167 53.5927 112.351 50.9607 111.695 48.5527C111.431 47.5847 111.023 46.6247 110.295 45.9287C109.575 45.2327 108.487 44.8487 107.535 45.1687C107.367 45.2247 107.207 45.2967 107.031 45.2887C106.815 45.2807 106.631 45.1527 106.447 45.0407C105.343 44.3447 104.015 43.9287 102.735 44.1527C101.863 44.3047 101.071 44.7447 100.263 45.1127C95.5193 47.3047 90.0793 47.4007 85.1433 49.1047C84.4153 49.3527 83.6233 49.7207 83.3673 50.4407C83.1593 51.0327 83.3673 51.6887 83.3113 52.3127C83.2313 53.1207 82.7033 53.8007 82.2633 54.4807C81.8233 55.1607 81.4633 56.0087 81.7433 56.7687C81.8553 57.0647 82.0553 57.3207 82.1913 57.6087C82.8233 58.9447 81.9273 60.4647 81.8233 61.9367C81.7993 62.3207 81.8313 62.7287 82.0393 63.0487C82.1913 63.2887 82.4313 63.4567 82.6393 63.6487C83.1913 64.1607 83.5593 64.8567 83.6633 65.6007C83.6633 65.6007 85.4473 78.3927 85.5593 78.3527C85.6633 78.9447 86.1353 79.4407 86.6953 79.6567C87.2553 79.8727 87.8873 79.8567 88.4713 79.6967C89.9273 79.3127 91.0793 78.1687 91.8473 76.8807C92.6233 75.5927 93.0793 74.1447 93.6313 72.7447C95.6233 67.6567 98.9913 62.9687 103.687 60.1767C104.471 59.7127 105.295 59.2967 105.959 58.6727C106.391 58.2727 106.751 57.7847 107.207 57.4087C107.663 57.0327 108.263 56.7607 108.839 56.8887L111.191 55.8887Z" fill="#00396D"/>
<path d="M103.576 87.1695C103.336 88.0095 103.096 88.8495 102.864 89.6895C102.792 89.9375 102.728 90.1935 102.792 90.4415C102.84 90.6255 102.968 90.7855 103.08 90.9455C103.424 91.4095 103.72 91.9215 104.104 92.6575C106.816 98.5295 109.576 104.601 109.704 111.257C109.216 111.257 108.728 111.249 108.232 111.249C108.728 112.777 109.224 114.313 109.72 115.841C109.768 116.001 109.824 116.161 109.832 116.329C109.848 116.769 109.544 117.153 109.256 117.489C108.944 117.857 108.632 118.217 108.312 118.577C108.256 118.641 108.184 118.713 108.096 118.713C108.024 118.705 107.968 118.649 107.912 118.601C107.568 118.281 107.064 118.185 106.592 118.249C106.128 118.305 105.688 118.497 105.256 118.681C102.656 119.817 100.056 120.953 97.4558 122.089C97.4558 122.089 91.6318 100.937 91.4798 100.785C89.8958 98.8015 88.4478 96.6895 87.3998 94.3775C86.3518 92.0655 85.7198 89.5295 85.8318 86.9935C85.8398 86.7695 85.8238 86.4895 85.6158 86.4095C85.5438 86.3855 85.4638 86.3855 85.3838 86.3935C84.3598 86.5215 83.5358 87.2655 82.8478 88.0335C82.1598 88.7935 81.4958 89.6415 80.5678 90.0815C80.5678 90.0815 69.0078 93.7135 68.8958 93.8175C68.5598 94.0895 68.2158 94.3775 68.0078 94.7535C67.9518 94.8655 67.9038 94.9775 67.8318 95.0815C67.5198 95.5535 66.8478 95.6975 66.5518 96.1775C66.2958 96.6015 66.3998 97.1775 66.1438 97.6095C66.1438 97.6095 56.4398 140.601 56.3758 140.681C55.3758 144.313 56.0078 148.505 58.5278 151.305C59.0878 151.921 59.7278 152.473 60.4798 152.825C61.4158 153.265 62.4638 153.385 63.4878 153.497C64.3278 153.593 65.1758 153.681 66.0078 153.537C66.0078 153.537 62.6318 179.729 62.5918 179.913C62.3438 180.465 62.0078 180.977 61.6078 181.433C61.3518 181.729 61.0558 181.993 60.7198 182.617C59.4078 187.001 57.5918 191.273 54.8638 194.937C53.3998 196.905 51.6878 198.673 50.2078 200.617C48.2158 203.225 46.6398 206.153 45.4238 209.497C46.3118 212.073 48.7758 213.761 51.2398 214.937C56.1438 217.289 61.6638 218.345 67.0958 217.969L69.5118 203.817L78.9758 204.345L85.4478 204.961C85.4478 204.961 89.4958 197.169 89.5998 196.825C92.7198 190.273 95.0798 183.361 96.6158 176.273L98.7678 164.153L99.8718 146.465L99.2238 136.553L111.36 130.145L111.216 133.121L111.864 147.057L113.352 157.825L115.792 169.537L116.272 181.673L116.672 208.913C116.672 208.913 121.216 206.769 121.456 206.769C122.456 205.953 123.456 205.129 124.456 204.313C125.168 203.729 125.888 203.137 126.448 202.409C127.416 201.161 127.864 199.561 127.856 197.841C124.504 190.153 122.416 181.913 121.696 173.561L119.08 154.881L117.744 139.425L118.08 127.833L136.912 125.561C136.912 125.561 144.32 132.617 144.56 132.633C145.896 133.401 147.52 133.665 149.032 133.353C150.544 133.041 151.936 132.169 152.864 130.937C152.864 130.937 177.976 98.5855 178.04 98.4975C177.784 96.5855 176.856 94.8015 175.576 93.3535C174.296 91.9055 172.68 90.7935 170.96 89.9215C170.288 89.5855 169.432 89.2975 168.832 89.7455C168.376 90.0895 168.248 90.7615 167.768 91.0815L147.128 115.129C147.128 115.129 116.816 87.7055 116.76 87.8095C116.568 87.3135 116.2 86.8895 115.744 86.6255C115.64 86.5615 115.52 86.5055 115.4 86.5135C115.208 86.5215 115.064 86.6735 114.928 86.8015C114.632 87.0655 114.272 87.2495 113.88 87.3375L103.576 87.1695Z" fill="white"/>
<path d="M116.504 114.777L122.152 94.8652L129.616 95.0092L141.728 105.897L135.784 128.337L115.088 127.889L116.504 114.777Z" fill="#00396D"/>
<path d="M107.447 357.801H153.431C153.431 357.801 153.079 353.929 153.167 353.833C152.367 351.521 150.191 349.937 147.911 349.057C145.631 348.177 143.175 347.857 140.823 347.185C136.951 346.081 133.279 343.929 130.927 340.665C130.711 340.369 130.503 340.049 130.191 339.849C129.855 339.633 129.447 339.569 129.055 339.553C127.599 339.465 126.159 339.809 124.783 340.281C121.175 341.529 117.903 343.745 115.407 346.641C114.495 347.705 113.647 348.881 112.439 349.585C111.023 350.409 109.303 350.465 107.671 350.449L107.447 357.801Z" fill="#00396D"/>
<path d="M45.5918 357.61H91.4558L91.6398 354.29C91.6398 354.29 91.7598 354.226 91.7758 354.018C91.4878 352.234 90.0958 350.786 88.5038 349.93C86.9118 349.074 85.1118 348.698 83.3598 348.25C80.0558 347.402 76.6238 346.114 74.6158 343.362C73.7278 342.146 72.9118 340.53 71.4078 340.418C70.6398 340.362 69.9198 340.746 69.2318 341.074C66.3438 342.442 63.1038 343.074 59.9118 342.882C58.4398 342.794 56.8798 342.546 55.5438 343.17C55.0558 343.394 54.6318 343.73 54.1838 344.018C52.4398 345.154 50.3198 345.706 48.2398 345.562L45.5918 357.61Z" fill="#00396D"/>
<path d="M122.959 94.7775C123.543 93.4415 124.327 92.1855 125.263 91.0655C125.791 90.4415 126.375 89.8495 127.071 89.4175C127.767 88.9855 128.591 88.7295 129.407 88.8095C129.407 88.8095 149.727 92.8975 149.919 93.0735C150.807 94.5535 151.135 96.3295 151.047 98.0495C150.959 99.7695 150.471 101.457 149.807 103.049C149.199 104.521 148.431 105.961 147.279 107.057C147.279 107.057 126.495 102.729 126.463 102.617C128.575 100.825 129.815 98.0575 129.743 95.2895L122.959 94.7775Z" fill="#FFDC32"/>
<path d="M118.832 105.953C117.528 107.609 116.056 109.185 114.232 110.249C112.408 111.313 110.192 111.825 108.152 111.281C108.392 113.073 109.072 114.809 110.12 116.281C110.12 116.281 112.944 113.105 113.088 113.129C114.512 112.401 116.064 111.913 117.344 110.961L118.832 105.953Z" fill="#FFDC32"/>
<path d="M85.3843 114.529C84.5843 115.465 83.1443 115.777 82.5683 116.857C82.2803 117.401 82.2563 118.041 82.2963 118.649C82.3363 119.441 82.4563 120.233 82.7443 120.977C82.9923 121.625 83.3683 122.241 83.9443 122.625C84.3043 122.873 84.7283 123.009 85.1443 123.153C85.5683 123.297 86.0003 123.441 86.4243 123.585C86.5443 123.625 86.6803 123.665 86.8083 123.625C86.9043 123.585 86.9683 123.505 87.0323 123.425C88.0323 122.097 88.4803 120.369 88.2643 118.721C88.0323 117.073 87.1443 115.521 85.3843 114.529Z" fill="#FFDC32"/>
<path d="M109.752 52.0977C110.352 53.5697 110.576 55.1617 110.8 56.7377C111.08 58.6817 111.352 60.6337 111.744 62.7937C113 65.9377 115.064 68.7537 117.672 70.9057L111.656 70.1697C111.656 70.1697 110.48 75.7137 110.408 75.8337C109.896 77.6097 109.28 79.3537 108.56 81.0577C108.288 81.6977 108 82.3377 107.56 82.8737C107.12 83.4097 106.504 83.8337 105.816 83.9137C105.224 83.9777 104.608 83.7777 104.024 83.9217C104.024 83.9217 102.72 91.3937 102.792 91.4817C100.848 93.3617 98.2641 94.5297 95.5841 94.9137C92.9041 95.2977 90.1521 94.9377 87.5921 94.0577L85.7441 88.5217C85.7441 88.5217 86.2561 79.3777 86.3681 79.3857C87.1041 79.3457 87.8321 79.1697 88.5041 78.8577C88.7041 78.7617 88.9121 78.6497 89.0321 78.4657C89.1761 78.2417 89.1761 77.9537 89.1761 77.6897C89.1521 75.8657 89.2161 74.0257 89.6801 72.2657C90.1441 70.5057 91.0241 68.8097 92.3841 67.5377C91.3361 66.0737 91.1281 64.1217 91.4881 62.3617C91.6001 61.8337 91.7601 61.2977 92.0641 60.8497C92.3681 60.4017 92.8321 60.0417 93.3681 59.9537C93.9441 59.8657 94.5281 60.0977 95.0081 60.4417C95.4801 60.7857 95.8801 61.2257 96.3121 61.6097C96.4161 61.7057 96.5281 61.8017 96.6721 61.8337C96.9121 61.8977 97.1681 61.7537 97.3201 61.5537C97.4721 61.3537 97.5361 61.1057 97.6001 60.8657C97.9601 59.6097 98.4641 58.4017 99.3921 57.1617C102.904 55.7937 106.48 54.3937 109.752 52.0977Z" fill="#FFDC32"/>
<path d="M170.561 89.4168C172.473 90.8168 174.225 92.4408 175.753 94.2488C176.185 94.7608 176.625 95.2968 177.241 95.5528C177.785 95.7768 178.401 95.7368 178.993 95.6728C179.961 95.5688 180.913 95.3928 181.857 95.1608C182.665 94.9608 183.497 94.6968 184.081 94.1048C184.305 93.8728 184.497 93.5928 184.761 93.4088C185.009 93.2408 185.297 93.1608 185.577 93.0648C187.065 92.5368 188.265 91.2648 188.713 89.7608C188.825 89.3768 188.889 88.9528 188.713 88.6008C188.649 88.4728 188.561 88.3608 188.513 88.2328C188.417 87.9288 188.601 87.6088 188.633 87.2888C188.681 86.7768 188.329 86.3128 187.961 85.9528C187.849 85.8408 187.737 85.7368 187.673 85.5928C187.609 85.4488 187.617 85.2808 187.601 85.1208C187.553 84.3928 187.153 83.6968 186.553 83.2888C186.553 83.2888 191.977 80.9368 192.105 80.7608C192.249 80.4728 192.393 80.1848 192.457 79.8808C192.529 79.5688 192.513 79.2328 192.361 78.9528C192.209 78.6728 191.889 78.4728 191.577 78.5208C191.577 78.5208 179.537 81.4648 179.513 81.5128C179.169 81.0968 178.601 80.8728 178.065 80.9528C177.529 81.0328 177.049 81.4088 176.849 81.9128L170.561 89.4168Z" fill="#FFDC32"/>
<path d="M107.256 119.44L113.136 113.088L117.496 110.904L116.768 114.496C116.768 114.496 125.04 114.728 125.104 114.8C125.328 114.944 125.568 115.112 125.648 115.368C125.728 115.624 125.616 115.92 125.424 116.112C125.232 116.304 124.984 116.424 124.736 116.536C123.752 116.96 122.728 117.264 121.696 117.568C121.696 117.568 126.256 118.712 126.296 118.736C126.464 118.912 126.632 119.088 126.744 119.304C126.856 119.52 126.888 119.784 126.792 120.008C126.656 120.296 126.32 120.44 126.008 120.48C125.688 120.52 125.368 120.496 125.056 120.568L120.84 120.72L120.736 120.824C120.736 120.824 124.944 122.576 124.808 122.608C124.984 122.864 125.168 123.168 125.088 123.472C125.024 123.736 124.768 123.92 124.496 123.984C124.232 124.048 123.952 124.008 123.68 123.96L119.552 123.096C119.552 123.096 122.712 125.472 122.8 125.424C122.904 125.704 122.976 125.992 123.016 126.288C123.024 126.352 123.032 126.432 122.992 126.488C122.952 126.544 122.888 126.568 122.824 126.584C122.576 126.656 122.32 126.736 122.064 126.752C121.808 126.768 121.528 126.712 121.328 126.552C121.328 126.552 116.2 124.856 116.144 124.88C115.76 126.44 114.448 127.736 112.824 127.992C111.728 127.928 110.736 127.272 110.048 126.416C109.36 125.568 108.936 124.528 108.584 123.488C108.216 122.448 107.928 121.384 107.256 119.44Z" fill="#FFDC32"/>
<path d="M109.039 63.9447C109.591 63.9447 110.039 62.9991 110.039 61.8327C110.039 60.6663 109.591 59.7207 109.039 59.7207C108.487 59.7207 108.039 60.6663 108.039 61.8327C108.039 62.9991 108.487 63.9447 109.039 63.9447Z" fill="#000001"/>
<path d="M105.279 84.3598C104.487 84.3598 103.591 84.1278 102.575 83.6638C99.0155 82.0318 96.0795 79.2078 94.3195 75.7118C94.2235 75.5118 94.2955 75.2718 94.4955 75.1758C94.6955 75.0718 94.9355 75.1518 95.0315 75.3518C96.7115 78.6878 99.5115 81.3838 102.911 82.9358C104.335 83.5918 105.447 83.7278 106.311 83.3598C107.351 82.9198 107.967 81.7518 108.423 80.6798C111.767 72.8478 112.215 63.3358 109.767 52.3998C109.719 52.1838 109.855 51.9678 110.071 51.9198C110.287 51.8718 110.503 52.0078 110.551 52.2238C113.039 63.3278 112.567 73.0078 109.159 80.9918C108.639 82.2158 107.927 83.5438 106.623 84.0958C106.207 84.2718 105.759 84.3598 105.279 84.3598Z" fill="#000001"/>
<path d="M102.775 91.825C102.759 91.825 102.751 91.825 102.735 91.825C102.519 91.801 102.351 91.609 102.375 91.393C102.615 88.841 103.079 86.297 103.751 83.825C103.807 83.609 104.031 83.489 104.239 83.545C104.455 83.601 104.575 83.825 104.519 84.033C103.855 86.457 103.399 88.961 103.167 91.457C103.151 91.665 102.983 91.825 102.775 91.825Z" fill="#000001"/>
<path d="M85.8475 88.6813C85.8395 88.6813 85.8315 88.6813 85.8315 88.6813C85.6075 88.6733 85.4395 88.4813 85.4475 88.2653C85.5835 85.3213 85.7995 82.3373 86.0955 79.4013C86.1195 79.1853 86.3115 79.0173 86.5355 79.0413C86.7515 79.0653 86.9195 79.2573 86.8955 79.4813C86.6075 82.4013 86.3915 85.3693 86.2555 88.3053C86.2395 88.5133 86.0635 88.6813 85.8475 88.6813Z" fill="#000001"/>
<path d="M118.343 71.504C118.319 71.504 118.303 71.504 118.279 71.496L111.399 70.408C111.183 70.376 111.031 70.168 111.063 69.952C111.095 69.736 111.303 69.584 111.519 69.616L116.679 70.432C114.167 68.464 112.263 65.704 111.351 62.648C111.287 62.44 111.407 62.216 111.623 62.152C111.839 62.088 112.055 62.208 112.119 62.424C113.151 65.856 115.487 68.896 118.551 70.768C118.711 70.864 118.783 71.072 118.719 71.248C118.663 71.4 118.511 71.504 118.343 71.504Z" fill="#000001"/>
<path d="M93.7763 58.248C93.1683 58.248 92.5683 58.216 91.9763 58.16C91.7603 58.136 91.6003 57.944 91.6163 57.72C91.6403 57.504 91.8323 57.344 92.0563 57.36C94.8723 57.648 97.9043 57.216 101.056 56.08C103.576 55.176 106.104 53.872 109.272 51.856C109.416 51.76 109.608 51.776 109.744 51.888C109.88 52 109.92 52.184 109.856 52.344C109 54.416 107.344 56.208 105.192 57.4C105 57.504 104.752 57.44 104.648 57.24C104.544 57.048 104.608 56.8 104.808 56.696C106.344 55.848 107.608 54.664 108.464 53.296C105.808 54.92 103.568 56.024 101.328 56.824C98.7203 57.776 96.1843 58.248 93.7763 58.248Z" fill="#000001"/>
<path d="M94.0867 69.4652C94.0147 69.4652 93.9427 69.4492 93.8787 69.4092C91.4627 67.9372 90.1987 64.7772 90.9507 62.0492C91.2227 61.0652 91.7107 60.3132 92.3507 59.8732C93.4947 59.0972 95.2147 59.4012 96.0227 60.5212C96.0787 60.5932 96.1347 60.6812 96.1907 60.7612C96.4387 61.1292 96.6467 61.4172 96.8387 61.3772C97.0307 61.3372 97.1827 60.9612 97.2467 60.8172L98.8307 57.0092C98.9187 56.8092 99.1507 56.7052 99.3507 56.7932C99.5507 56.8812 99.6547 57.1132 99.5667 57.3132L97.9827 61.1212C97.8547 61.4172 97.5987 62.0412 96.9907 62.1612C96.2627 62.2972 95.8387 61.6652 95.5267 61.2092C95.4787 61.1372 95.4227 61.0572 95.3747 60.9932C94.8147 60.2252 93.5827 60.0092 92.7987 60.5372C92.1827 60.9532 91.8707 61.7052 91.7187 62.2572C91.0627 64.6572 92.1667 67.4332 94.2867 68.7212C94.4787 68.8332 94.5347 69.0812 94.4227 69.2732C94.3507 69.4012 94.2227 69.4652 94.0867 69.4652Z" fill="#000001"/>
<path d="M86.5117 79.7844C86.3037 79.7844 86.1357 79.6324 86.1117 79.4244C86.0877 79.2004 86.2557 79.0084 86.4717 78.9924C86.9597 78.9444 87.4557 78.8964 87.8877 78.7204C88.3117 78.5444 88.6157 78.2324 88.7037 77.8964C88.7597 77.6804 88.7357 77.4244 88.7117 77.1524L88.7037 77.0644C88.3917 73.6244 89.6557 70.1044 92.0717 67.6484C92.2237 67.4884 92.4797 67.4884 92.6397 67.6404C92.7997 67.7924 92.7997 68.0484 92.6477 68.2084C90.3917 70.5044 89.2157 73.7924 89.5037 76.9924L89.5117 77.0804C89.5437 77.3924 89.5757 77.7444 89.4877 78.0964C89.3437 78.6724 88.8637 79.1844 88.2077 79.4644C87.6637 79.6964 87.0717 79.7524 86.5597 79.8004C86.5357 79.7844 86.5197 79.7844 86.5117 79.7844Z" fill="#000001"/>
<path d="M105.096 73.8326C104.928 73.8326 104.768 73.7287 104.712 73.5527C104.512 72.9287 104.424 72.2886 104.456 71.6326C104.488 71.0006 104.76 70.5846 105.2 70.4806C105.432 70.4246 105.64 70.4807 105.792 70.5207L108.952 71.3686C109.168 71.4246 109.296 71.6486 109.232 71.8566C109.176 72.0726 108.96 72.2006 108.744 72.1366L105.584 71.2886C105.528 71.2726 105.416 71.2406 105.384 71.2566C105.352 71.2646 105.272 71.4006 105.256 71.6726C105.224 72.2246 105.304 72.7766 105.472 73.3046C105.544 73.5126 105.424 73.7367 105.216 73.8087C105.176 73.8247 105.136 73.8326 105.096 73.8326Z" fill="#000001"/>
<path d="M107.616 58.8807C107.472 58.8807 107.336 58.8007 107.264 58.6647C107.16 58.4727 107.232 58.2247 107.432 58.1207C108.424 57.6007 109.648 57.5927 110.648 58.0967C110.848 58.2007 110.92 58.4407 110.824 58.6327C110.72 58.8327 110.48 58.9047 110.288 58.8087C109.52 58.4167 108.576 58.4247 107.816 58.8247C107.744 58.8647 107.68 58.8807 107.616 58.8807Z" fill="#000001"/>
<path d="M97.3912 122.409C97.2152 122.409 97.0552 122.289 97.0072 122.113L91.3032 101.257C88.2312 97.6568 86.1592 93.2888 85.3192 88.6328C85.2792 88.4168 85.4232 88.2088 85.6392 88.1688C85.8552 88.1288 86.0632 88.2728 86.1032 88.4888C86.9272 93.0408 88.9592 97.2968 91.9672 100.801C92.0072 100.849 92.0312 100.897 92.0472 100.953L97.7752 121.897C97.8312 122.113 97.7112 122.329 97.4952 122.385C97.4552 122.409 97.4232 122.409 97.3912 122.409Z" fill="#000001"/>
<path d="M109.632 111.233C109.424 111.233 109.248 111.073 109.232 110.865C108.696 104.145 106.576 97.553 103.088 91.785C100.728 93.625 98.2882 94.809 95.8402 95.305C92.9842 95.889 90.0482 95.553 87.5682 94.361C87.3682 94.265 87.2882 94.025 87.3842 93.825C87.4802 93.625 87.7202 93.545 87.9202 93.641C90.2402 94.761 93.0002 95.073 95.6882 94.521C98.1362 94.017 100.576 92.793 102.952 90.873C103.04 90.801 103.16 90.769 103.272 90.793C103.384 90.809 103.488 90.881 103.544 90.977C107.232 96.953 109.48 103.801 110.04 110.801C110.056 111.025 109.896 111.217 109.672 111.233C109.656 111.233 109.648 111.233 109.632 111.233Z" fill="#000001"/>
<path d="M83.0796 116.305C82.8956 116.305 82.7276 116.177 82.6876 115.985C81.7996 111.721 80.8796 107.305 80.3276 102.905C79.9196 99.6734 79.5836 95.4574 80.5596 91.4654C80.9116 90.0254 81.3596 88.9534 81.9756 88.0894C82.7756 86.9614 83.9035 86.1934 85.0715 85.9774C85.2875 85.9374 85.4956 86.0814 85.5356 86.2974C85.5756 86.5134 85.4315 86.7214 85.2155 86.7614C84.2475 86.9374 83.3036 87.5934 82.6236 88.5454C82.0716 89.3294 81.6556 90.3134 81.3276 91.6494C80.3836 95.5134 80.7196 99.6414 81.1116 102.801C81.6636 107.169 82.5756 111.569 83.4636 115.817C83.5116 116.033 83.3676 116.249 83.1516 116.289C83.1356 116.297 83.1116 116.305 83.0796 116.305Z" fill="#000001"/>
<path d="M117.032 105.761C116.872 105.761 116.712 105.657 116.656 105.497C116.152 104.113 115.296 102.881 114.184 101.929C114.136 101.889 114.104 101.841 114.08 101.785C113.504 100.457 113.032 99.1127 112.568 97.8167C111.96 96.0967 111.384 94.4727 110.608 92.9127C109.504 90.6887 107.528 87.7927 104.384 86.6167C104.176 86.5367 104.072 86.3127 104.152 86.1047C104.232 85.8967 104.456 85.7927 104.664 85.8727C108.056 87.1367 110.16 90.2087 111.328 92.5607C112.128 94.1687 112.712 95.8087 113.328 97.5527C113.776 98.8087 114.232 100.105 114.784 101.385C115.968 102.425 116.88 103.745 117.416 105.225C117.488 105.433 117.384 105.665 117.176 105.737C117.12 105.753 117.08 105.761 117.032 105.761Z" fill="#000001"/>
<path d="M106.727 116.193C106.687 116.193 106.647 116.185 106.599 116.177C105.567 115.841 105.207 114.641 105.215 113.641C105.239 110.961 106.759 108.625 108.311 106.457C109.799 104.385 111.455 102.289 113.855 101.393C114.063 101.313 114.295 101.425 114.367 101.625C114.447 101.833 114.335 102.065 114.135 102.137C111.943 102.953 110.375 104.945 108.959 106.913C107.479 108.977 106.031 111.193 106.015 113.633C106.007 114.321 106.223 115.201 106.847 115.401C107.055 115.473 107.175 115.697 107.103 115.905C107.047 116.081 106.895 116.193 106.727 116.193Z" fill="#000001"/>
<path d="M84.4158 123.072C83.4238 123.072 82.4238 121.744 82.0158 119.832C81.8238 118.92 81.7998 118.016 81.9678 117.296C82.1518 116.464 82.5598 115.944 83.1118 115.832C84.1678 115.608 85.2958 116.992 85.7358 119.048C86.1678 121.104 85.7038 122.824 84.6398 123.048C84.5678 123.064 84.4958 123.072 84.4158 123.072ZM83.3438 116.608C83.3198 116.608 83.3038 116.608 83.2798 116.616C83.0638 116.664 82.8558 116.992 82.7518 117.472C82.6158 118.08 82.6318 118.864 82.8078 119.664C83.1758 121.392 84.0478 122.36 84.4798 122.264C84.9198 122.168 85.3198 120.936 84.9598 119.208C84.6078 117.568 83.7998 116.608 83.3438 116.608Z" fill="#000001"/>
<path d="M86.9284 123.904C86.8884 123.904 86.8484 123.896 86.8084 123.888L84.6964 123.232C84.4884 123.168 84.3684 122.944 84.4324 122.728C84.4964 122.52 84.7204 122.4 84.9364 122.464L86.8084 123.048C87.6404 122.144 88.0484 120.792 87.9124 119.384C87.7924 118.096 87.2404 116.768 86.2804 115.44C86.0964 115.184 85.9284 115 85.7444 114.944C85.5284 114.888 85.2324 115.008 84.8804 115.312L84.7604 115.416C84.4244 115.704 84.0484 116.032 83.5284 116.104C83.3044 116.136 83.1044 115.984 83.0804 115.76C83.0484 115.544 83.2004 115.336 83.4244 115.312C83.7044 115.272 83.9684 115.048 84.2404 114.808L84.3684 114.704C84.9444 114.216 85.4644 114.048 85.9604 114.176C86.3924 114.296 86.6884 114.632 86.9364 114.976C87.9844 116.424 88.5764 117.888 88.7124 119.312C88.8804 121.048 88.3124 122.72 87.2004 123.792C87.1364 123.872 87.0324 123.904 86.9284 123.904Z" fill="#000001"/>
<path d="M64.3198 153.881C63.8638 153.881 63.4158 153.857 62.9678 153.809C61.1358 153.625 59.6878 153.057 58.6638 152.129C57.9358 151.465 57.3598 150.569 56.8398 149.297C55.6238 146.305 55.3518 142.929 56.0958 139.777L56.1518 139.793C56.2958 138.537 57.7198 132.193 65.8558 96.6726C65.7518 96.0326 66.1998 95.4646 66.6798 95.1446C66.8158 95.0486 66.9598 94.9686 67.0958 94.8886C67.3598 94.7366 67.6158 94.5846 67.7758 94.3846C67.8318 94.3206 67.8718 94.2486 67.9198 94.1846C68.0078 94.0566 68.1038 93.9126 68.2398 93.7766C68.5598 93.4726 68.9838 93.3686 69.3198 93.2886C73.3598 92.2886 77.3438 90.9446 81.1678 89.2886C81.3678 89.2006 81.6078 89.2966 81.6958 89.4966C81.7838 89.6966 81.6878 89.9366 81.4878 90.0246C77.6238 91.6966 73.5998 93.0486 69.5198 94.0646C69.2478 94.1286 68.9598 94.2006 68.7918 94.3606C68.7198 94.4246 68.6558 94.5286 68.5838 94.6326C68.5198 94.7206 68.4558 94.8166 68.3918 94.8966C68.1358 95.2086 67.8078 95.3926 67.4958 95.5766C67.3678 95.6486 67.2478 95.7206 67.1278 95.8006C66.8398 96.0006 66.5838 96.3126 66.6478 96.5766C66.6638 96.6406 66.6638 96.7046 66.6478 96.7686C63.3278 111.249 57.0398 138.777 56.8798 139.881C56.8798 139.905 56.8718 139.929 56.8718 139.961C56.1678 142.945 56.4238 146.153 57.5758 148.993C58.0478 150.145 58.5598 150.953 59.1998 151.529C60.0878 152.337 61.3838 152.833 63.0398 153.009C65.6878 153.281 68.4238 152.697 70.7358 151.361L112.744 128.729C112.936 128.625 113.184 128.697 113.288 128.889C113.392 129.081 113.32 129.329 113.128 129.433L71.1358 152.065C69.0718 153.249 66.6958 153.881 64.3198 153.881Z" fill="#000001"/>
<path d="M67.1268 138.594C67.1108 138.594 67.0948 138.594 67.0868 138.594C66.8708 138.57 66.7108 138.378 66.7348 138.154C66.9188 136.418 68.2228 134.89 69.9028 134.434C81.4868 129.13 103.455 119.066 104.639 118.498C105.415 117.786 106.655 117.642 107.567 118.178C107.759 118.29 107.823 118.538 107.711 118.73C107.599 118.922 107.351 118.986 107.159 118.874C106.543 118.506 105.663 118.618 105.151 119.114L105.103 119.058C104.687 119.362 103.383 119.962 99.5988 121.698C96.3348 123.202 91.9748 125.194 87.6148 127.194C78.8948 131.186 70.1828 135.178 70.1828 135.178C68.7748 135.57 67.6868 136.842 67.5348 138.234C67.5028 138.442 67.3268 138.594 67.1268 138.594Z" fill="#000001"/>
<path d="M72.9915 133.672C72.9595 133.672 72.9355 133.672 72.9035 133.664C72.6875 133.616 72.5515 133.4 72.5995 133.184L77.8155 110.28C77.8635 110.064 78.0795 109.928 78.2955 109.976C78.5115 110.024 78.6475 110.24 78.5995 110.456L73.3835 133.36C73.3435 133.552 73.1755 133.672 72.9915 133.672Z" fill="#000001"/>
<path d="M113.103 128.521C113.079 128.521 113.047 128.521 113.023 128.513C111.775 128.257 110.599 127.449 109.527 126.113C108.015 124.233 106.959 119.689 106.919 119.497C106.887 119.369 106.927 119.233 107.015 119.129L112.895 112.937C112.927 112.905 112.959 112.881 112.991 112.865L116.847 110.745C117.039 110.641 117.287 110.713 117.391 110.905C117.495 111.097 117.423 111.345 117.231 111.449L113.431 113.537L107.743 119.521C107.967 120.433 108.919 124.089 110.143 125.609C111.103 126.793 112.119 127.505 113.183 127.729C113.399 127.777 113.535 127.985 113.495 128.201C113.455 128.393 113.287 128.521 113.103 128.521Z" fill="#000001"/>
<path d="M121.568 117.745C121.4 117.745 121.248 117.641 121.192 117.473C121.12 117.265 121.232 117.033 121.44 116.969L125.048 115.745C125.16 115.713 125.24 115.593 125.232 115.497C125.224 115.401 125.12 115.297 125.016 115.297C124.952 115.297 124.888 115.273 124.832 115.241C124.128 115.113 119.344 115.073 116.416 115.073C116.192 115.073 116.016 114.897 116.016 114.673C116.016 114.449 116.192 114.273 116.416 114.273C122.776 114.273 124.544 114.369 125.096 114.505C125.568 114.545 125.976 114.945 126.032 115.417C126.088 115.905 125.76 116.385 125.296 116.521L121.704 117.737C121.656 117.737 121.608 117.745 121.568 117.745Z" fill="#000001"/>
<path d="M125.968 120.872C125.896 120.872 125.824 120.864 125.752 120.848L120.776 120.832C120.552 120.832 120.376 120.648 120.376 120.432C120.376 120.208 120.552 120.032 120.776 120.032L125.792 120.048C125.824 120.048 125.856 120.056 125.888 120.064C125.992 120.096 126.096 120.048 126.144 120.016C126.256 119.952 126.336 119.84 126.368 119.728C126.424 119.512 126.32 119.24 126.12 119.056C125.472 118.936 121.416 118.288 118.696 117.872C118.48 117.84 118.328 117.632 118.36 117.416C118.392 117.2 118.6 117.048 118.816 117.08C123.52 117.816 125.424 118.104 126.184 118.304C126.2 118.296 126.216 118.296 126.24 118.288L126.248 118.312C126.368 118.344 126.456 118.376 126.52 118.4L126.552 118.36C127.04 118.736 127.28 119.352 127.144 119.904C127.064 120.224 126.848 120.512 126.552 120.688C126.376 120.816 126.168 120.872 125.968 120.872Z" fill="#000001"/>
<path d="M113.463 128.257C113.311 128.257 113.159 128.169 113.095 128.009C113.007 127.809 113.103 127.569 113.311 127.481C114.543 126.961 115.439 125.769 115.599 124.441C115.615 124.313 115.687 124.209 115.799 124.145C115.911 124.081 116.039 124.073 116.151 124.121C116.279 124.177 121.639 126.257 121.639 126.257C121.943 126.313 122.327 126.273 122.671 126.137C122.375 125.577 121.791 125.193 121.319 124.889L117.871 122.641C117.735 122.553 117.671 122.393 117.695 122.233C117.719 122.073 117.839 121.953 117.999 121.913C118.135 121.881 118.263 121.857 123.919 123.601C124.215 123.593 124.583 123.553 124.687 123.361C124.751 123.233 124.711 123.025 124.631 122.801C123.863 122.609 122.127 121.985 117.975 120.497C117.767 120.425 117.655 120.193 117.735 119.985C117.807 119.777 118.039 119.665 118.247 119.745C120.743 120.641 124.535 121.985 124.999 122.121C125.071 122.129 125.143 122.153 125.199 122.201C125.263 122.249 125.311 122.313 125.335 122.385C125.455 122.689 125.655 123.241 125.399 123.729C125.055 124.377 124.231 124.393 123.879 124.401C123.839 124.401 123.791 124.393 123.751 124.385C122.807 124.097 121.591 123.721 120.519 123.401L121.767 124.209C122.359 124.593 123.095 125.073 123.447 125.857C123.559 126.105 123.559 126.329 123.455 126.513C123.351 126.697 123.183 126.777 123.111 126.809C122.591 127.057 121.991 127.121 121.431 127.009C120.639 126.705 117.511 125.489 116.319 125.025C115.983 126.425 114.967 127.641 113.639 128.201C113.567 128.249 113.511 128.257 113.463 128.257Z" fill="#000001"/>
<path d="M116.552 114.792C116.52 114.792 116.48 114.784 116.448 114.776C116.232 114.72 116.112 114.496 116.168 114.28L121.68 94.5043C121.728 94.3203 121.912 94.2003 122.096 94.2163L129.336 94.7363C129.56 94.7523 129.72 94.9443 129.704 95.1603C129.688 95.3843 129.496 95.5443 129.28 95.5283L122.368 95.0323L116.944 114.496C116.888 114.672 116.728 114.792 116.552 114.792Z" fill="#000001"/>
<path d="M135.672 128.352L115.224 128.248C115 128.248 114.824 128.064 114.824 127.848C114.824 127.624 115.008 127.448 115.224 127.448L135.368 127.552L141.488 106.392C141.552 106.184 141.768 106.056 141.984 106.12C142.2 106.184 142.32 106.4 142.256 106.616L136.048 128.072C136.008 128.232 135.856 128.352 135.672 128.352Z" fill="#000001"/>
<path d="M109.808 116.433C109.672 116.433 109.544 116.369 109.464 116.241C108.504 114.673 107.944 112.881 107.848 111.049C107.84 110.913 107.904 110.777 108.016 110.697C108.128 110.617 108.272 110.601 108.4 110.657C110.04 111.337 112.136 111.073 114.008 109.945C115.768 108.881 117.128 107.281 118.368 105.729C118.504 105.553 118.76 105.529 118.928 105.665C119.104 105.801 119.128 106.057 118.992 106.225C117.712 107.833 116.296 109.505 114.424 110.633C112.552 111.761 110.464 112.105 108.696 111.609C108.864 113.097 109.36 114.545 110.144 115.825C110.256 116.017 110.2 116.257 110.008 116.377C109.952 116.417 109.88 116.433 109.808 116.433Z" fill="#000001"/>
<path d="M147.536 107.345C147.512 107.345 147.488 107.345 147.464 107.337C125.952 103.489 125.912 103.305 125.848 102.937C125.824 102.801 125.864 102.665 125.96 102.577C127.704 100.897 128.888 98.6572 129.304 96.2732C129.712 93.9292 129.368 91.4652 128.344 89.3132C127.312 89.5132 126.28 90.1212 125.456 91.0252C124.664 91.8972 124.024 93.0252 123.464 94.5692C123.392 94.7772 123.16 94.8812 122.952 94.8092C122.744 94.7372 122.64 94.5052 122.712 94.2972C123.312 92.6492 124 91.4412 124.864 90.4892C125.968 89.2812 127.4 88.5372 128.808 88.4492C128.84 88.4492 128.88 88.4492 128.912 88.4572C135.92 89.8252 149.272 92.4332 149.824 92.5132C149.936 92.5212 150.04 92.5772 150.112 92.6732C150.792 93.5772 151.216 94.7612 151.328 96.0972C151.44 97.3612 151.28 98.6012 151.112 99.6412C150.544 103.129 149.496 105.537 147.824 107.217C147.744 107.305 147.648 107.345 147.536 107.345ZM126.992 102.673C129.568 103.273 140.104 105.209 147.4 106.513C148.864 104.961 149.792 102.729 150.32 99.5212C150.48 98.5292 150.632 97.3532 150.528 96.1772C150.432 95.0492 150.088 94.0492 149.552 93.2812C148.704 93.1372 145.112 92.4492 129.224 89.3452C130.192 91.5532 130.504 94.0412 130.088 96.4172C129.688 98.7372 128.592 100.937 126.992 102.673Z" fill="#000001"/>
<path d="M122.663 93.4403C122.567 93.4403 122.471 93.4083 122.391 93.3363L117.111 88.4723C116.695 88.3443 116.479 87.9603 116.303 87.6483C116.183 87.4323 116.055 87.2083 115.927 87.1923C115.855 87.1763 115.743 87.2163 115.655 87.2483C115.167 87.4003 114.679 87.5683 114.199 87.7523L114.191 87.7363C113.823 87.8243 112.271 87.8403 103.775 87.8883C103.535 87.8803 103.375 87.7123 103.375 87.4883C103.375 87.2643 103.551 87.0883 103.775 87.0883C107.599 87.0643 113.359 87.0243 113.959 86.9843C114.439 86.8003 114.927 86.6323 115.423 86.4803C115.575 86.4323 115.807 86.3603 116.055 86.4003C116.567 86.4803 116.807 86.9123 116.999 87.2563C117.119 87.4723 117.247 87.6963 117.375 87.7203C117.455 87.7363 117.519 87.7683 117.575 87.8163L122.927 92.7523C123.087 92.9043 123.103 93.1523 122.951 93.3203C122.879 93.4003 122.775 93.4403 122.663 93.4403Z" fill="#000001"/>
<path d="M147.759 134.016C146.295 134.016 144.815 133.52 143.671 132.608L136.879 125.992C136.719 125.84 136.719 125.584 136.871 125.424C137.023 125.264 137.279 125.264 137.439 125.416L144.199 132.008C145.407 132.96 147.071 133.4 148.631 133.144C150.191 132.896 151.639 131.96 152.503 130.64C152.519 130.616 152.535 130.6 152.551 130.584C153.079 129.968 169.119 109.352 177.631 98.392C177.615 97.208 176.839 96.128 175.983 95.144C174.399 93.296 172.623 91.584 170.719 90.056C170.063 89.744 169.687 89.728 169.335 89.744C169.183 89.752 168.999 89.768 168.871 89.832C168.559 89.984 168.423 90.456 168.319 90.88C168.295 90.968 168.247 91.048 168.175 91.104C167.431 91.864 153.127 109.008 147.639 115.592C147.567 115.68 147.463 115.728 147.359 115.736C147.247 115.736 147.143 115.704 147.063 115.632L141.135 110.056C140.975 109.904 140.967 109.648 141.119 109.488C141.271 109.328 141.527 109.32 141.687 109.472L147.303 114.76C162.887 96.048 166.559 91.688 167.551 90.688C167.655 90.248 167.855 89.456 168.519 89.12C168.783 88.992 169.063 88.96 169.303 88.952C169.839 88.928 170.351 88.984 171.111 89.36C171.135 89.376 171.159 89.392 171.183 89.408C173.143 90.968 174.959 92.728 176.591 94.624C177.527 95.72 178.479 97.04 178.423 98.544C178.423 98.624 178.391 98.712 178.343 98.776C156.951 126.296 153.703 130.424 153.159 131.072L153.167 131.08C152.175 132.584 150.527 133.648 148.751 133.928C148.423 133.984 148.095 134.016 147.759 134.016Z" fill="#000001"/>
<path d="M146.663 121.217C146.471 121.217 146.303 121.081 146.271 120.889C145.951 119.121 146.119 117.289 146.759 115.609C146.839 115.401 147.071 115.297 147.279 115.377C147.487 115.457 147.591 115.689 147.511 115.897C146.919 117.441 146.767 119.121 147.063 120.753C147.103 120.969 146.959 121.177 146.743 121.217C146.711 121.217 146.687 121.217 146.663 121.217Z" fill="#000001"/>
<path d="M179.079 92.0975C178.983 92.0975 178.895 92.0655 178.815 92.0015C178.647 91.8575 178.631 91.6015 178.775 91.4335C179.911 90.1215 180.223 88.1695 179.551 86.5695C179.367 86.1215 179.111 85.7135 178.847 85.2735C178.735 85.0895 178.783 84.8575 178.959 84.7375C179.135 84.6175 179.367 84.6495 179.503 84.8175C179.999 85.4335 180.407 86.1135 180.719 86.8415C180.879 87.1455 181.279 87.3695 181.623 87.3535C181.983 87.3295 182.319 87.0495 182.407 86.6975C182.519 86.2415 182.263 85.7295 181.999 85.2815C181.335 84.1615 180.519 83.1455 179.575 82.2575C179.215 81.9215 178.311 81.1695 177.623 81.5295C177.407 81.6415 177.223 81.8655 177.047 82.0815L171.231 89.2335C171.095 89.4015 170.839 89.4335 170.671 89.2895C170.503 89.1535 170.471 88.8975 170.615 88.7295L176.431 81.5775C176.639 81.3215 176.895 81.0095 177.255 80.8175C178.071 80.3935 179.095 80.6975 180.127 81.6735C181.127 82.6175 181.991 83.6895 182.695 84.8735C183.023 85.4255 183.375 86.1535 183.191 86.8895C183.023 87.5695 182.383 88.1055 181.679 88.1535C181.335 88.1775 180.983 88.0815 180.687 87.9055C180.799 89.3615 180.343 90.8575 179.391 91.9695C179.303 92.0495 179.191 92.0975 179.079 92.0975Z" fill="#000001"/>
<path d="M185.128 93.5682C184.944 93.5682 184.728 93.5362 184.528 93.4162C183.976 93.0802 184.024 92.4402 184.064 91.9762C184.072 91.8882 184.08 91.8002 184.08 91.7202C183.696 91.5522 183.384 91.2082 183.224 90.7682C183.024 90.2082 183.112 89.6082 183.464 89.2082L183.536 89.1282C183.576 89.0802 183.64 89.0082 183.688 88.9522C183.592 88.9122 183.512 88.8802 183.44 88.8482C183.24 88.7602 183.008 88.6642 182.808 88.5122C182.448 88.2402 182.16 87.7442 182.344 87.2482C182.416 87.0402 182.648 86.9282 182.856 87.0082C183.064 87.0802 183.168 87.3122 183.096 87.5202C183.064 87.6082 183.152 87.7762 183.288 87.8722C183.416 87.9682 183.584 88.0402 183.752 88.1122C183.856 88.1522 183.96 88.2002 184.056 88.2482C184.176 88.3042 184.328 88.3922 184.424 88.5602C184.712 89.0242 184.336 89.4402 184.136 89.6642L184.072 89.7362C183.88 89.9602 183.896 90.2802 183.984 90.5042C184.064 90.7282 184.256 90.9842 184.544 91.0402C184.72 91.0722 184.856 91.2162 184.872 91.3922C184.896 91.6082 184.88 91.8322 184.864 92.0482C184.84 92.4162 184.824 92.6722 184.952 92.7442C185.016 92.7842 185.128 92.7922 185.296 92.7682C186.576 92.6002 187.592 91.5522 188.216 90.7042C188.48 90.3522 188.728 89.9602 188.76 89.5522C188.784 89.2402 188.624 88.8562 188.336 88.7842C188.216 88.7522 188.112 88.6642 188.064 88.5522C188.016 88.4322 188.024 88.3042 188.088 88.1922C188.296 87.8482 188.336 87.4002 188.208 86.9682C188.08 86.5282 187.792 86.1842 187.432 86.0082C187.248 85.9202 187.16 85.7122 187.224 85.5202C187.344 85.1522 187.256 84.7202 186.992 84.3522C186.728 83.9842 186.328 83.7762 185.952 83.7762C185.792 83.7842 185.64 83.6802 185.576 83.5282C185.536 83.4322 185.536 83.3042 185.584 83.2082C185.664 83.0242 185.752 82.8242 191.928 80.4882C192.12 80.3842 192.24 80.0962 192.272 79.8642C192.304 79.6242 192.272 79.4002 192.168 79.2402C192.072 79.0882 191.904 78.9842 191.76 78.9922C191.464 79.0402 184.648 80.6642 180.152 81.7362C179.936 81.7842 179.72 81.6562 179.672 81.4402C179.624 81.2242 179.752 81.0082 179.968 80.9602C191.536 78.2002 191.68 78.2002 191.752 78.1922C192.184 78.1762 192.608 78.4162 192.856 78.8162C193.056 79.1362 193.136 79.5442 193.072 79.9762C192.992 80.5362 192.688 81.0002 192.256 81.2162C190.28 81.9602 188.152 82.8002 187.024 83.2802C187.264 83.4322 187.48 83.6322 187.656 83.8722C188.008 84.3442 188.152 84.9122 188.08 85.4402C188.504 85.7362 188.832 86.1922 188.992 86.7282C189.144 87.2322 189.136 87.7522 188.976 88.2082C189.416 88.5282 189.608 89.1122 189.576 89.6082C189.528 90.2162 189.2 90.7362 188.88 91.1682C187.832 92.5922 186.664 93.3922 185.416 93.5522C185.312 93.5602 185.224 93.5682 185.128 93.5682Z" fill="#000001"/>
<path d="M183.665 84.3932C183.513 84.3932 183.369 84.3052 183.305 84.1612C183.209 83.9612 183.297 83.7212 183.497 83.6332L184.617 83.1132C184.817 83.0172 185.057 83.1052 185.145 83.3052C185.241 83.5052 185.153 83.7452 184.953 83.8332L183.833 84.3532C183.785 84.3772 183.721 84.3932 183.665 84.3932Z" fill="#000001"/>
<path d="M178.751 96.2336C178.367 96.2336 177.991 96.2256 177.615 96.2176C177.391 96.2096 177.215 96.0336 177.223 95.8096C177.231 95.5936 177.407 95.4176 177.623 95.4176H177.631C178.919 95.4416 180.247 95.4656 181.503 95.1776C182.855 94.8656 183.951 94.1936 184.583 93.2896C184.711 93.1056 184.959 93.0656 185.143 93.1856C185.327 93.3136 185.367 93.5616 185.247 93.7456C184.503 94.8176 183.239 95.6016 181.695 95.9616C180.711 96.1856 179.727 96.2336 178.751 96.2336Z" fill="#000001"/>
<path d="M61.1441 191.929C61.1281 191.929 61.1121 191.929 61.0961 191.929C60.8801 191.905 60.7201 191.705 60.7521 191.481L65.4641 153.625C65.4881 153.409 65.6961 153.241 65.9121 153.281C66.1281 153.305 66.2881 153.505 66.2561 153.729L61.5441 191.585C61.5121 191.777 61.3441 191.929 61.1441 191.929Z" fill="#000001"/>
<path d="M65.9109 218.417C59.5509 218.417 53.1749 216.529 47.8389 213.065C46.2229 212.017 44.7669 210.297 45.5029 208.625C45.7669 208.017 46.2709 207.593 46.7269 207.257C49.5109 205.209 53.0549 204.537 56.1509 204.145C65.8869 202.913 75.7829 203.697 85.3669 204.473C96.4149 184.193 101.247 160.249 98.9669 137.009C98.9429 136.793 99.1029 136.593 99.3269 136.569C99.5509 136.545 99.7429 136.705 99.7669 136.929C102.071 160.409 97.1589 184.617 85.9509 205.081C85.8709 205.217 85.7189 205.297 85.5669 205.289C75.9429 204.513 65.9909 203.705 56.2549 204.937C53.2629 205.313 49.8389 205.961 47.2069 207.897C46.8389 208.169 46.4309 208.505 46.2389 208.937C45.7029 210.153 46.9429 211.513 48.2789 212.385C53.7509 215.945 60.3429 217.793 66.8869 217.593C67.1029 217.585 67.2949 217.761 67.3029 217.977C67.3109 218.201 67.1349 218.385 66.9189 218.393C66.5749 218.409 66.2389 218.417 65.9109 218.417Z" fill="#000001"/>
<path d="M45.6637 209.425C45.6157 209.425 45.5757 209.417 45.5277 209.401C45.3197 209.329 45.2077 209.097 45.2877 208.889C46.5917 205.225 48.4957 201.833 50.9357 198.801C51.5437 198.041 52.1997 197.305 52.8237 196.593C53.7277 195.561 54.6637 194.497 55.4877 193.385C58.1997 189.681 59.7197 185.273 60.8477 181.441C60.9117 181.233 61.1357 181.105 61.3437 181.169C61.5517 181.233 61.6797 181.457 61.6157 181.665C60.4637 185.561 58.9197 190.049 56.1357 193.857C55.2957 195.001 54.3517 196.081 53.4317 197.121C52.8077 197.833 52.1597 198.561 51.5597 199.305C49.1677 202.265 47.3117 205.577 46.0397 209.153C45.9757 209.321 45.8237 209.425 45.6637 209.425Z" fill="#000001"/>
<path d="M101.096 176.696C99.7364 176.696 98.3684 176.632 97.0244 176.504C96.8084 176.48 96.6404 176.288 96.6644 176.072C96.6884 175.856 96.8724 175.688 97.0964 175.712C102.992 176.264 109.08 175.584 114.712 173.736C114.92 173.664 115.152 173.784 115.216 173.992C115.288 174.2 115.168 174.424 114.96 174.496C110.512 175.952 105.792 176.696 101.096 176.696Z" fill="#000001"/>
<path d="M116.607 209.329C116.527 209.329 116.447 209.305 116.383 209.257C116.279 209.185 116.215 209.065 116.207 208.937C116.087 202.633 116.031 196.289 115.983 190.161C115.959 187.145 115.935 184.129 115.903 181.121C115.863 177.441 115.815 173.265 115.223 169.233C114.911 167.089 114.431 164.929 113.967 162.841C113.703 161.641 113.439 160.449 113.199 159.241C112.263 154.505 111.671 149.385 111.271 142.641C111.039 138.617 110.895 134.537 110.863 130.505C110.863 130.281 111.039 130.105 111.263 130.105C111.479 130.105 111.663 130.281 111.663 130.505C111.695 134.521 111.839 138.593 112.071 142.601C112.463 149.305 113.055 154.393 113.983 159.089C114.223 160.289 114.487 161.481 114.751 162.665C115.215 164.769 115.695 166.937 116.015 169.113C116.615 173.201 116.663 177.401 116.703 181.105C116.735 184.121 116.759 187.129 116.783 190.153C116.831 196.097 116.879 202.233 116.999 208.353C119.135 207.521 121.159 206.425 123.023 205.097C124.431 204.089 125.415 203.169 126.135 202.185C127.047 200.929 127.487 199.577 127.511 197.929C124.223 190.761 122.783 182.921 121.487 174.857C119.143 160.297 117.047 144.625 117.567 128.689C117.575 128.465 117.767 128.281 117.983 128.305C118.207 128.313 118.375 128.497 118.367 128.721C117.847 144.593 119.935 160.217 122.279 174.737C123.575 182.777 125.007 190.585 128.279 197.689C128.303 197.745 128.319 197.801 128.319 197.857C128.303 199.697 127.807 201.273 126.783 202.673C126.015 203.729 124.967 204.713 123.495 205.769C121.423 207.257 119.151 208.449 116.759 209.329C116.703 209.321 116.655 209.329 116.607 209.329Z" fill="#000001"/>
<path d="M67.0315 218.225C67.0075 218.225 66.9835 218.225 66.9595 218.217C66.7435 218.177 66.5995 217.969 66.6395 217.753L69.0715 204.721C69.1115 204.505 69.3195 204.361 69.5355 204.401C69.7515 204.441 69.8955 204.649 69.8555 204.865L67.4235 217.897C67.3835 218.089 67.2155 218.225 67.0315 218.225Z" fill="#000001"/>
<path d="M97.0724 212.688C97.0484 212.688 97.0244 212.688 97.0004 212.68C96.7844 212.64 96.6404 212.432 96.6724 212.216L100.384 191.088C100.424 190.872 100.632 190.728 100.848 190.76C101.064 190.8 101.208 191.008 101.176 191.224L97.4644 212.352C97.4324 212.552 97.2644 212.688 97.0724 212.688Z" fill="#000001"/>
<path d="M78.2716 160.632C76.4316 160.632 74.4476 160.552 72.4956 160.224C72.2236 160.176 71.9436 160.112 71.7036 159.912C71.3356 159.584 71.2956 159.088 71.3036 158.736C71.3196 157.464 71.6556 156.312 72.3436 155.216C72.4156 155.096 72.5436 155.024 72.6956 155.024C79.5836 155.184 86.7116 155.344 93.4156 153.312C93.5516 153.272 93.6876 153.304 93.7916 153.392C93.8956 153.48 93.9436 153.616 93.9276 153.752L93.4396 157.144C93.3676 157.664 93.2716 158.312 92.8876 158.832C92.3596 159.544 91.4956 159.784 90.7116 159.928C89.5036 160.152 88.2716 160.24 87.1036 160.32C84.7756 160.464 82.3996 160.568 80.0476 160.608C79.4796 160.624 78.8876 160.632 78.2716 160.632ZM72.9116 155.824C72.3836 156.736 72.1196 157.688 72.1116 158.736C72.1116 158.848 72.1036 159.184 72.2396 159.304C72.3196 159.368 72.4716 159.4 72.6316 159.432C75.1676 159.864 77.7836 159.856 80.0396 159.816C82.3756 159.768 84.7356 159.672 87.0556 159.528C88.1996 159.456 89.4076 159.368 90.5676 159.152C91.1996 159.032 91.8876 158.848 92.2476 158.36C92.5116 158 92.5836 157.488 92.6476 157.032L93.0476 154.248C86.4796 156.112 79.5916 155.976 72.9116 155.824Z" fill="#000001"/>
<path d="M50.4403 338.881C50.3043 338.881 50.1763 338.817 50.0963 338.689C49.9843 338.497 50.0403 338.257 50.2323 338.137C55.2243 335.081 59.1203 329.721 62.1283 321.737C62.2083 321.529 62.4323 321.425 62.6403 321.505C62.8483 321.585 62.9523 321.817 62.8723 322.017C59.8003 330.177 55.8003 335.673 50.6403 338.817C50.5843 338.857 50.5123 338.881 50.4403 338.881Z" fill="#000001"/>
<path d="M63.0406 339.192C62.8726 339.192 62.7126 339.08 62.6566 338.912C62.5926 338.704 62.7046 338.48 62.9206 338.408C64.2006 338 65.2886 337.216 66.4406 336.376C67.1846 335.84 67.9526 335.28 68.7766 334.832C69.2646 334.568 69.9126 334.256 70.6246 334.304C71.6966 334.352 72.5126 335.104 73.2646 335.872C73.4166 336.032 73.4166 336.28 73.2566 336.44C73.0966 336.592 72.8486 336.592 72.6886 336.432C72.0246 335.752 71.3686 335.136 70.5846 335.104C70.0806 335.088 69.5526 335.328 69.1526 335.536C68.3766 335.96 67.6246 336.496 66.9046 337.024C65.7526 337.856 64.5606 338.728 63.1526 339.168C63.1206 339.192 63.0806 339.192 63.0406 339.192Z" fill="#000001"/>
<path d="M110.543 345.368C110.447 345.368 110.343 345.328 110.263 345.256C110.103 345.104 110.095 344.848 110.255 344.688L116.559 338.128C117.495 337.16 118.335 336.112 118.159 335.024C118.127 334.84 118.071 334.712 117.991 334.64C117.823 334.496 117.471 334.568 117.143 334.656L108.679 336.96C108.463 337.016 108.247 336.896 108.191 336.68C108.135 336.464 108.255 336.248 108.471 336.192L116.935 333.888C117.279 333.792 117.999 333.6 118.511 334.032C118.735 334.224 118.887 334.512 118.951 334.896C119.183 336.328 118.215 337.56 117.143 338.68L110.839 345.24C110.751 345.328 110.647 345.368 110.543 345.368Z" fill="#000001"/>
<path d="M123.039 332.089C122.887 332.089 122.735 332.001 122.671 331.849C122.583 331.649 122.679 331.409 122.879 331.321C125.367 330.257 127.775 328.945 130.023 327.433C130.207 327.305 130.455 327.361 130.575 327.537C130.695 327.721 130.647 327.969 130.471 328.089C128.183 329.633 125.735 330.969 123.199 332.057C123.143 332.081 123.087 332.089 123.039 332.089Z" fill="#000001"/>
<path d="M131.921 340.169C131.745 340.169 131.577 340.049 131.537 339.865C131.249 338.705 130.857 337.561 130.377 336.465C130.217 336.097 130.041 335.697 130.097 335.249C130.113 335.137 130.169 335.041 130.257 334.969C130.345 334.905 130.457 334.881 130.569 334.897C131.489 335.073 132.465 334.945 133.313 334.537C133.513 334.441 133.753 334.521 133.849 334.721C133.945 334.921 133.865 335.161 133.665 335.257C132.825 335.665 131.881 335.833 130.961 335.753C131.001 335.873 131.057 335.993 131.105 336.113C131.609 337.265 132.017 338.457 132.313 339.657C132.369 339.873 132.233 340.089 132.025 340.145C131.985 340.169 131.953 340.169 131.921 340.169Z" fill="#000001"/>
<path d="M153.439 358.304H107.463C107.351 358.304 107.255 358.264 107.175 358.184C107.103 358.104 107.055 358 107.063 357.896L107.295 350.376C107.303 350.16 107.479 349.992 107.695 349.992C109.215 350 111.103 350.008 112.527 349.128C113.327 348.632 113.943 347.896 114.591 347.12C114.727 346.96 114.855 346.8 114.991 346.64C117.719 343.448 121.415 340.992 125.415 339.728C126.855 339.272 128.591 338.888 130.583 339.472C130.679 339.496 130.759 339.56 130.815 339.648C132.247 341.984 134.551 344 137.495 345.488C140.335 346.928 143.455 347.736 146.119 348.344C148.311 348.84 150.727 349.384 152.215 351.144C153.727 352.936 153.847 355.368 153.839 357.912C153.839 358.12 153.663 358.304 153.439 358.304ZM107.871 357.504H153.039C153.031 355.264 152.871 353.144 151.607 351.656C150.295 350.104 148.119 349.608 146.015 349.136C143.231 348.504 140.055 347.68 137.135 346.2C134.119 344.672 131.727 342.6 130.215 340.2C128.495 339.736 127.007 340.064 125.663 340.496C121.807 341.72 118.231 344.08 115.599 347.16C115.463 347.312 115.335 347.472 115.207 347.632C114.551 348.424 113.863 349.248 112.951 349.808C111.463 350.728 109.623 350.76 108.087 350.792L107.871 357.504Z" fill="#000001"/>
<path d="M91.6709 358.12H45.7749C45.6549 358.12 45.5429 358.064 45.4629 357.976C45.3909 357.88 45.3589 357.76 45.3829 357.64L47.8469 345.464C47.8869 345.272 48.0549 345.16 48.2469 345.144C49.6949 345.176 51.4949 345.216 52.8469 344.376C53.1349 344.2 53.3989 343.976 53.6869 343.752C54.1509 343.376 54.6309 342.984 55.2229 342.76C55.9669 342.48 56.7509 342.488 57.4469 342.504C61.3029 342.576 65.6789 342.664 69.1109 340.664L69.3269 340.536C69.7509 340.28 70.1909 340.016 70.7109 339.912C71.6949 339.712 72.8149 340.136 73.7109 341.048C74.1749 341.52 74.5429 342.056 74.8949 342.584C75.0949 342.872 75.2869 343.168 75.5029 343.44C77.7749 346.392 81.6949 347.64 85.5909 348.544C87.3829 348.96 89.4229 349.432 90.7269 350.912C92.3589 352.752 92.2789 355.408 92.0789 357.752C92.0549 357.96 91.8789 358.12 91.6709 358.12ZM46.2629 357.32H91.3109C91.4709 355.24 91.4709 352.96 90.1269 351.448C88.9909 350.16 87.1669 349.744 85.4069 349.328C81.3669 348.392 77.2949 347.088 74.8709 343.928C74.6469 343.64 74.4389 343.336 74.2389 343.032C73.8869 342.512 73.5589 342.024 73.1429 341.608C72.4389 340.888 71.5909 340.552 70.8789 340.696C70.4949 340.776 70.1269 340.992 69.7429 341.224L69.5189 341.36C65.8869 343.48 61.3989 343.392 57.4309 343.312C56.8069 343.296 56.1029 343.288 55.5109 343.512C55.0389 343.696 54.6309 344.024 54.1989 344.376C53.9109 344.608 53.6069 344.856 53.2789 345.064C51.8389 345.96 50.0629 345.984 48.5749 345.96L46.2629 357.32Z" fill="#000001"/>
<path d="M289.336 236.831C288.152 239.711 288.168 243.071 289.392 245.943C289.768 246.831 290.352 247.751 291.288 247.983C291.288 247.983 349.528 247.839 349.64 247.663C351.568 247.063 353.512 245.911 354.2 244.015C354.624 242.855 354.52 241.575 354.416 240.343C354.344 239.519 354.264 238.671 353.896 237.935C353.584 237.311 353.096 236.807 352.568 236.359C351.408 235.367 350 234.591 348.48 234.503L330.864 234.447L298.704 235.575L289.336 236.831Z" fill="#40E0D0"/>
<path d="M291.288 204.264C295.768 205.296 299.808 207.656 304.08 209.352C304.08 209.352 347.824 213.12 347.904 213.248C348.608 218.6 345.656 223.792 341.992 227.752C339.792 230.128 337.28 232.256 334.368 233.672C330.408 235.592 325.944 236.104 321.568 236.592C319.6 236.808 317.624 237.032 315.64 237.032C313.28 237.032 310.928 236.728 308.576 236.496C305.248 236.168 301.904 236 298.56 235.832C298.56 235.832 282.856 238.04 282.856 238.312C282.776 238.88 282.704 239.464 282.8 240.032C282.896 240.6 283.2 241.16 283.712 241.432C283.88 241.52 284.064 241.576 284.232 241.672C284.4 241.776 284.544 241.912 284.664 242.072C284.944 242.424 285.144 242.84 285.232 243.28C285.232 243.28 309.616 319.64 309.48 319.792C309.456 320.464 309.064 321.088 308.56 321.528C308.056 321.968 307.44 322.272 306.824 322.552C301.48 324.984 295.616 326.464 289.752 326.136C289.608 326.128 289.448 326.12 289.32 326.184C289.192 326.248 289.104 326.368 289 326.472C288.752 326.728 288.392 326.88 288.032 326.88L260.424 331.848C260.424 331.848 238.112 241.248 238.232 240.968C238.032 238.776 237.96 236.576 238.016 234.376C238.048 233.064 238.128 231.736 238.488 230.464C239.384 227.272 241.984 224.776 244.944 223.28L252.616 221.248L283.296 208.672C283.296 208.672 285.152 208.088 285.384 208.072C285.84 207.48 286.36 206.856 287.088 206.68C287.448 206.6 287.816 206.632 288.184 206.576C288.544 206.52 288.928 206.344 289.056 205.992C289.128 205.784 289.096 205.56 289.144 205.344C289.216 205 289.48 204.728 289.792 204.568C290.096 204.4 290.464 204.072 291.288 204.264Z" fill="white"/>
<path d="M249.217 357.728H312.401L314.001 346.288C314.001 346.288 312.729 340.76 312.201 340.496C311.817 339.536 311.265 338.64 310.577 337.864C310.289 337.536 309.945 337.216 309.521 337.112C309.121 337.016 308.697 337.128 308.313 337.28C306.801 337.888 305.577 339.12 304.017 339.6C301.897 340.248 299.585 339.392 297.329 339.968C296.321 340.456 296.113 341.792 295.441 342.696C294.953 343.352 294.201 343.768 293.441 344.072C292.745 344.352 292.017 344.568 291.313 344.496C290.689 343.048 289.617 341.792 288.289 340.944C287.969 340.736 287.617 340.552 287.233 340.52C286.873 340.496 286.521 340.608 286.185 340.728C284.145 341.44 282.153 342.416 280.001 342.624C278.001 342.816 275.793 342.384 274.073 343.632C272.153 345.656 269.649 347.064 267.025 348C264.401 348.936 261.633 349.432 258.873 349.824C257.305 350.048 255.729 350.248 254.217 350.712C252.705 351.176 251.249 351.936 250.193 353.12C249.137 354.304 248.545 355.96 249.217 357.728Z" fill="#40E0D0"/>
<path d="M294.664 357.407L317.656 344.311L317.72 286.199L315.568 286.207L315.752 247.775H326.688V286.151L324.976 286.207V344.687L347.68 357.479L294.664 357.407Z" fill="#FFDC32"/>
<path d="M315.841 286.056H326.689L326.537 247.76L315.793 247.912L315.841 286.056Z" fill="#000001"/>
<path d="M350.496 212.056C351.888 208.416 352.16 204.448 352.28 200.552C352.96 179.096 349.688 157.592 343.464 137.048C343.432 134.832 342.464 133.176 341.112 132.144C339.76 131.12 338.072 130.632 336.408 130.328C332.384 129.592 328.248 129.784 324.176 130.136C316.816 130.76 309.424 131.896 302.352 134.808C301.744 135.888 301.296 137.064 301.04 138.28C301.04 138.28 289.088 157.408 289.208 157.488C288.832 158.44 288.448 159.456 288.624 160.464C288.736 161.088 289.048 161.656 289.384 162.192C291.304 165.328 293.856 168.072 296.832 170.224C297.648 170.816 298.52 171.368 299.496 171.592C300.328 171.784 301.2 171.72 302.032 171.92C302.296 171.984 302.56 172.072 302.824 172C303.088 171.928 303.288 171.712 303.464 171.504C304.232 170.616 304.992 169.736 305.696 169.04C306.632 176.248 306.296 183.616 304.712 190.704C304.416 192.008 304.08 193.32 303.48 194.512C302.88 195.704 301.984 196.792 300.808 197.424C300.208 197.744 299.52 197.968 299.128 198.52C298.216 199.816 299.64 201.8 298.792 203.144C298.56 203.512 298.2 203.76 297.936 204.104C297.4 204.792 297.344 205.816 297.816 206.552C297.816 206.552 305.016 209.896 305.36 210.032C310.608 211.392 315.88 212.68 321.248 213.456C329.2 214.608 337.32 214.624 345.272 213.504L350.496 212.056Z" fill="#00396D"/>
<path d="M305.664 101.967C306.512 99.8554 307.416 97.7194 308.856 95.9434C310.296 94.1674 312.344 92.7754 314.616 92.6394C315.152 92.6074 315.688 92.6394 316.216 92.5594C316.704 92.4874 317.168 92.3114 317.64 92.1914C321.48 91.2074 325.336 93.5914 328.312 96.2074C333.592 100.839 338.096 107.159 337.944 114.175C337.864 117.655 336.688 121.367 338.272 124.455C339.184 126.239 340.92 127.535 341.696 129.383C342.464 131.207 342.192 133.271 342.12 135.247C341.96 139.575 342.864 143.943 344.72 147.855C343.792 147.231 342.568 147.279 341.496 147.591C340.424 147.895 339.424 148.431 338.352 148.727C336.712 149.175 334.976 149.047 333.28 148.919C331.264 148.759 329.248 148.607 327.24 148.447C325.8 148.335 324.24 148.167 323.2 147.167C322.056 146.063 321.912 144.311 321.832 142.727C321.632 138.511 321.432 134.287 321.24 130.071L315.464 119.863L308.24 104.231L305.664 101.967Z" fill="#000001"/>
<path d="M307.72 103.84C307.296 105.592 307.04 107.384 306.952 109.176C306.928 109.696 306.92 110.224 306.808 110.736C306.64 111.552 306.232 112.288 305.8 113C305.264 113.88 304.688 114.736 304.072 115.568C304.072 115.568 307.056 116.528 307.288 116.84C307.664 120.304 308.496 123.712 309.768 126.96C310.096 127.792 310.488 128.672 311.24 129.16C312.184 129.784 313.584 129.568 314.304 128.688C315 129.424 315.448 130.384 315.568 131.392C315.592 131.56 315.608 131.744 315.72 131.872C315.832 132.008 316.024 132.048 316.2 132.056C317.416 132.12 318.464 130.992 319.672 131.096C319.904 131.112 320.136 131.184 320.368 131.168C320.6 131.152 320.856 131.032 320.92 130.8C320.96 130.664 320.92 130.52 320.888 130.384C320.08 127.328 319.184 124.296 318.192 121.288C317.8 120.104 317.384 118.896 316.632 117.896C316.416 117.608 316.176 117.344 316.032 117.016C315.864 116.624 315.848 116.184 315.824 115.752C315.768 114.736 315.648 113.728 315.448 112.728C315.248 111.72 314.928 110.648 314.12 110.008C313.64 109.632 313.024 109.432 312.64 108.96C311.88 108.024 312.392 106.496 311.664 105.528C310.864 104.48 309.12 104.752 307.72 103.84Z" fill="#FFDC32"/>
<path d="M289.352 161.398C290.976 163.382 292.6 165.374 294.44 167.158C296.28 168.942 298.352 170.518 300.696 171.558C300.696 171.558 294.88 182.366 294.88 182.478C294.384 183.406 293.728 184.246 292.952 184.958C292.952 184.958 263.336 214.006 263.32 213.99C263.144 214.966 262.936 216.006 262.248 216.734C261.752 217.254 261.072 217.55 260.424 217.862L251.672 221.438C251.672 221.438 243.88 223.99 243.712 224.03C243.28 224.326 242.848 224.63 242.408 224.926C242.248 225.03 242.056 225.142 241.88 225.062C241.712 224.982 241.68 224.766 241.664 224.582C241.632 224.102 241.648 223.622 241.712 223.15C241.712 223.15 242.032 219.502 241.992 219.534C242.312 218.742 243.04 218.15 243.864 217.902L251.776 213.862L282.512 172.95L289.352 161.398Z" fill="#FFDC32"/>
<path d="M270.617 330.439L274.401 343.183C274.401 343.183 275.609 343.247 276.065 343.311C277.217 343.127 278.289 343.895 279.441 344.047C280.241 344.159 281.041 343.975 281.817 343.735C283.721 343.151 285.529 342.255 287.137 341.079C287.465 340.839 287.817 340.407 287.569 340.087L284.593 327.367L270.617 330.439Z" fill="#FFDC32"/>
<path d="M292.52 326.008L297.8 340.024C297.8 340.024 300.376 340.64 300.608 340.592C301.576 340.744 302.552 340.88 303.528 340.808C304.504 340.736 305.488 340.44 306.24 339.816C306.792 339.36 307.208 338.752 307.784 338.336C308.152 338.072 308.576 337.888 308.864 337.544C309.152 337.2 309.216 336.6 308.848 336.344L305.808 323.104L299.976 324.864L292.52 326.008Z" fill="#FFDC32"/>
<path d="M348.073 358.015H294.249C294.065 358.015 293.905 357.895 293.865 357.719C293.817 357.543 293.897 357.359 294.057 357.271L316.513 344.775C316.705 344.671 316.953 344.735 317.057 344.927C317.161 345.119 317.097 345.367 316.905 345.471L295.801 357.215H346.537L325.041 345.271C324.849 345.167 324.777 344.919 324.889 344.727C324.993 344.535 325.241 344.463 325.433 344.575L348.273 357.263C348.433 357.351 348.513 357.535 348.465 357.711C348.417 357.887 348.257 358.015 348.073 358.015Z" fill="#000001"/>
<path d="M325.104 346.031H317.728C317.504 346.031 317.328 345.855 317.328 345.631V286.207C317.328 285.983 317.504 285.807 317.728 285.807C317.952 285.807 318.128 285.983 318.128 286.207V345.231H324.704V286.319C324.704 286.095 324.88 285.919 325.104 285.919C325.328 285.919 325.504 286.095 325.504 286.319V345.631C325.504 345.855 325.328 346.031 325.104 346.031Z" fill="#000001"/>
<path d="M326.64 286.591H315.88C315.656 286.591 315.48 286.415 315.48 286.191V248.271C315.48 248.047 315.656 247.871 315.88 247.871C316.104 247.871 316.28 248.047 316.28 248.271V285.791H326.24V248.119C326.24 247.895 326.416 247.719 326.64 247.719C326.864 247.719 327.04 247.895 327.04 248.119V286.191C327.04 286.415 326.864 286.591 326.64 286.591Z" fill="#000001"/>
<path d="M291.16 248.271C291.112 248.271 291.064 248.263 291.016 248.247C290.744 248.143 290.504 248.015 290.208 247.799C290.176 247.775 290.144 247.743 290.12 247.711C288.008 244.791 287.424 240.863 288.6 237.455C288.672 237.247 288.904 237.135 289.112 237.207C289.32 237.279 289.432 237.511 289.36 237.719C288.272 240.863 288.8 244.487 290.728 247.191C290.976 247.359 291.128 247.439 291.296 247.503C292.744 247.455 300.84 247.439 348.6 247.439C351.544 247.439 353.944 245.039 353.944 242.095V240.335C353.944 237.391 351.544 234.991 348.6 234.991H330.904C330.68 234.991 330.504 234.815 330.504 234.591C330.504 234.367 330.68 234.191 330.904 234.191H348.6C351.992 234.191 354.744 236.951 354.744 240.335V242.095C354.744 245.487 351.992 248.239 348.6 248.239C322.576 248.239 291.992 248.255 291.2 248.279C291.184 248.271 291.176 248.271 291.16 248.271Z" fill="#000001"/>
<path d="M312.872 129.967C312.28 129.967 311.672 129.751 311.216 129.399C310.4 128.767 309.968 127.823 309.6 126.919C306.6 119.567 305.784 111.399 307.296 103.911C307.336 103.695 307.552 103.551 307.768 103.599C307.984 103.639 308.128 103.855 308.08 104.071C306.6 111.407 307.4 119.415 310.344 126.623C310.672 127.431 311.048 128.263 311.712 128.775C312.28 129.215 313.216 129.375 313.736 128.855C313.896 128.703 314.144 128.703 314.304 128.855C314.456 129.015 314.456 129.263 314.304 129.423C313.904 129.799 313.392 129.967 312.872 129.967Z" fill="#000001"/>
<path d="M315.649 132.054C315.481 132.054 315.321 131.942 315.265 131.774C314.873 130.518 314.377 129.278 313.785 128.086C313.689 127.886 313.769 127.646 313.961 127.55C314.161 127.454 314.401 127.534 314.497 127.726C315.105 128.95 315.625 130.23 316.025 131.534C316.089 131.742 315.969 131.966 315.761 132.038C315.729 132.054 315.689 132.054 315.649 132.054Z" fill="#000001"/>
<path d="M307.056 116.888C307.04 116.888 307.016 116.888 307 116.888C306 116.744 305 116.512 304.032 116.208C303.664 116.088 303.592 115.848 303.576 115.712C303.56 115.48 303.696 115.328 303.744 115.272C305.12 113.688 306.112 111.776 306.608 109.736C306.664 109.52 306.872 109.392 307.088 109.44C307.304 109.496 307.432 109.712 307.384 109.92C306.88 111.968 305.904 113.904 304.568 115.528C305.408 115.784 306.256 115.968 307.112 116.088C307.328 116.12 307.48 116.32 307.448 116.544C307.424 116.752 307.256 116.888 307.056 116.888Z" fill="#000001"/>
<path d="M314.16 119.08C314.136 119.08 314.112 119.08 314.096 119.08C313.872 119.072 313.704 118.888 313.712 118.664C313.72 118.44 313.904 118.264 314.128 118.28C314.624 118.296 315.096 118 315.312 117.56C315.464 117.232 315.48 116.84 315.48 116.488C315.472 115.656 315.336 114.848 315.168 113.888C315.024 113.088 314.864 112.176 314.52 111.368C314.272 110.784 313.808 110.008 313.016 109.568C312.616 109.448 312.28 109.128 312.128 108.72C312.024 108.44 312.008 108.152 312 107.896L311.992 107.736C311.936 106.888 311.64 106.048 311.16 105.344C310.832 105.248 310.512 105.16 310.2 105.08C309.456 104.88 308.752 104.696 308.08 104.408C307.264 104.056 306.152 103.392 305.52 102.232C305.416 102.04 305.488 101.792 305.68 101.688C305.872 101.584 306.12 101.648 306.224 101.848C306.752 102.808 307.696 103.368 308.4 103.672C309.024 103.944 309.696 104.12 310.408 104.304C310.768 104.4 311.136 104.496 311.52 104.616C311.6 104.64 311.68 104.696 311.728 104.76C312.344 105.6 312.72 106.64 312.792 107.68L312.8 107.848C312.808 108.064 312.824 108.272 312.88 108.44C312.944 108.616 313.096 108.752 313.264 108.8C313.296 108.808 313.328 108.816 313.352 108.832C314.368 109.376 314.944 110.336 315.256 111.04C315.64 111.936 315.808 112.896 315.96 113.736C316.096 114.52 316.272 115.504 316.28 116.464C316.288 116.904 316.264 117.416 316.032 117.888C315.688 118.608 314.928 119.08 314.16 119.08Z" fill="#000001"/>
<path d="M313.96 126.854C313.896 126.854 313.824 126.838 313.76 126.798C313.568 126.686 313.504 126.446 313.616 126.254C314.392 124.902 314.8 123.358 314.784 121.798C314.784 121.574 314.96 121.398 315.184 121.398C315.4 121.398 315.584 121.574 315.584 121.798C315.6 123.502 315.152 125.182 314.304 126.654C314.232 126.782 314.096 126.854 313.96 126.854Z" fill="#000001"/>
<path d="M337.473 149.383C337.081 149.383 336.697 149.367 336.329 149.343L325.545 148.783C325.225 148.767 324.825 148.743 324.473 148.559C324.185 148.407 323.969 148.183 323.785 147.975C323.049 147.175 322.217 146.279 321.769 145.167C321.345 144.119 321.297 142.959 321.257 141.935L320.801 130.983L320.665 130.567C320.209 129.199 319.769 127.855 319.321 126.527C319.449 128.055 319.473 129.647 319.393 131.303C319.153 135.991 318.097 140.615 317.065 145.087C317.017 145.303 316.801 145.439 316.585 145.391C316.369 145.343 316.233 145.127 316.281 144.911C317.297 140.471 318.353 135.887 318.593 131.263C318.769 127.823 318.465 124.655 317.697 121.807C317.225 120.471 316.737 119.151 316.225 117.847C316.145 117.647 316.241 117.423 316.441 117.335C316.633 117.247 316.865 117.335 316.961 117.527C317.577 118.799 318.073 120.143 318.465 121.567C319.473 124.407 320.433 127.303 321.433 130.319L321.585 130.783C321.593 130.815 321.601 130.855 321.609 130.895L322.073 141.895C322.113 142.903 322.161 143.943 322.529 144.863C322.921 145.839 323.665 146.647 324.393 147.431C324.537 147.591 324.697 147.759 324.857 147.847C325.057 147.951 325.337 147.967 325.601 147.983L336.385 148.543C337.345 148.591 338.433 148.647 339.361 148.303C339.657 148.191 339.945 148.039 340.241 147.879C340.649 147.663 341.073 147.431 341.553 147.303C342.377 147.087 343.225 147.191 343.985 147.367C342.545 143.783 341.705 140.015 341.473 136.151C341.457 135.927 341.625 135.743 341.849 135.727C342.065 135.719 342.257 135.879 342.273 136.103C342.513 140.143 343.433 144.071 345.025 147.791C345.089 147.935 345.057 148.095 344.961 148.207C344.865 148.319 344.705 148.367 344.553 148.335C343.665 148.103 342.657 147.839 341.753 148.079C341.361 148.183 340.993 148.375 340.609 148.583C340.297 148.751 339.977 148.919 339.633 149.047C338.929 149.319 338.193 149.383 337.473 149.383Z" fill="#000001"/>
<path d="M312.177 156.006C312.161 156.006 312.145 156.006 312.129 156.006C311.913 155.982 311.753 155.782 311.777 155.566C312.529 148.982 310.561 142.262 306.385 137.126C306.249 136.958 306.273 136.702 306.441 136.566C306.609 136.43 306.865 136.454 307.001 136.622C311.313 141.926 313.345 148.862 312.569 155.662C312.553 155.854 312.377 156.006 312.177 156.006Z" fill="#000001"/>
<path d="M305.344 169.535C305.272 169.535 305.208 169.519 305.144 169.479C304.952 169.367 304.888 169.119 305 168.927L309.784 160.815C309.896 160.623 310.144 160.567 310.328 160.671C310.52 160.783 310.584 161.031 310.472 161.223L305.688 169.335C305.616 169.463 305.488 169.535 305.344 169.535Z" fill="#000001"/>
<path d="M241.624 224.423C241.616 224.423 241.608 224.423 241.6 224.423C241.376 224.407 241.208 224.223 241.224 223.999L241.416 220.839C241.448 220.359 241.48 219.823 241.672 219.319C241.952 218.599 242.56 218.007 243.288 217.751C243.312 217.743 243.336 217.735 243.36 217.735C243.896 217.527 248.376 215.183 251.184 213.687L281.96 172.879L288.696 161.375C288.808 161.183 289.048 161.119 289.24 161.231C289.432 161.343 289.496 161.591 289.384 161.775L282.624 173.319L251.768 214.231C251.736 214.279 251.688 214.319 251.632 214.343C245.912 217.375 244.168 218.295 243.544 218.471L243.552 218.495C243.04 218.679 242.616 219.087 242.416 219.599C242.264 219.991 242.24 220.439 242.208 220.879L242.016 224.039C242.008 224.255 241.832 224.423 241.624 224.423Z" fill="#000001"/>
<path d="M248.257 222.551C246.817 222.551 245.369 222.175 244.121 221.439C243.929 221.327 243.865 221.079 243.977 220.895C244.089 220.703 244.337 220.639 244.521 220.751C246.161 221.711 248.153 221.999 250.001 221.543C251.841 221.087 253.481 219.903 254.481 218.287C254.601 218.095 254.849 218.047 255.033 218.159C255.217 218.279 255.281 218.519 255.161 218.711C254.049 220.495 252.233 221.815 250.193 222.319C249.553 222.471 248.905 222.551 248.257 222.551Z" fill="#000001"/>
<path d="M262.025 217.079C261.913 217.079 261.801 217.031 261.721 216.943C261.577 216.775 261.593 216.519 261.761 216.375C262.457 215.775 262.881 214.871 262.889 213.959C262.889 213.855 262.937 213.751 263.009 213.679C271.105 205.815 292.177 185.287 293.009 184.279C293.033 184.247 293.057 184.207 293.089 184.183C293.777 183.575 294.305 182.799 294.617 181.927L300.297 171.471C300.401 171.279 300.649 171.207 300.841 171.311C301.033 171.415 301.105 171.663 301.001 171.855L295.345 182.255C295.017 183.191 294.409 184.087 293.625 184.783L293.593 184.751C292.825 185.687 288.441 190.079 263.689 214.143C263.625 215.231 263.113 216.279 262.289 216.983C262.209 217.047 262.113 217.079 262.025 217.079Z" fill="#000001"/>
<path d="M335.736 214.568C333.864 214.568 332.088 214.504 330.44 214.416C320.104 213.88 311.144 212.304 303.024 209.584C301.288 209 299.456 208.32 297.816 207.296C297.632 207.176 297.576 206.928 297.688 206.744C297.808 206.56 298.056 206.504 298.24 206.616C299.808 207.6 301.584 208.256 303.272 208.824C311.32 211.52 320.216 213.088 330.472 213.616C336.32 213.92 343.936 213.968 350.992 211.68C351.2 211.616 351.432 211.728 351.496 211.936C351.56 212.144 351.448 212.368 351.24 212.44C346.064 214.128 340.6 214.568 335.736 214.568Z" fill="#000001"/>
<path d="M271.472 239.872C268.864 239.872 266.64 239.48 264.688 238.672C262.232 237.656 260.288 235.96 259.192 233.896C259.088 233.704 259.16 233.456 259.36 233.352C259.552 233.248 259.8 233.32 259.904 233.52C260.904 235.424 262.712 236.992 264.992 237.936C266.936 238.744 269.184 239.112 271.84 239.072C272.56 239.008 289.6 236.536 298.56 235.232C298.592 235.232 298.632 235.224 298.664 235.232C304.672 235.992 310.888 236.776 317.144 236.592C324.04 236.392 330.032 234.992 334.936 232.424C340.696 229.408 345.072 224.576 346.944 219.176C347.712 216.976 347.84 215.168 347.352 213.656C347.288 213.448 347.4 213.224 347.608 213.152C347.816 213.08 348.04 213.2 348.112 213.408C348.656 215.088 348.528 217.064 347.704 219.44C345.768 225.024 341.248 230.016 335.312 233.128C330.296 235.752 324.2 237.192 317.176 237.392C310.864 237.576 304.648 236.792 298.624 236.032C276.72 239.224 272.696 239.808 271.856 239.832V239.872C271.728 239.864 271.6 239.872 271.472 239.872Z" fill="#000001"/>
<path d="M260.313 332.424C260.129 332.424 259.968 332.304 259.92 332.12C259.704 331.224 238.208 242.808 237.968 241.952C237.416 238.832 236.928 234.816 237.944 231.064C239.008 227.128 241.72 224.048 245.008 223.032L249.952 221.496C250.168 221.432 250.384 221.552 250.456 221.76C250.52 221.968 250.4 222.192 250.192 222.264L245.248 223.8C242.216 224.736 239.72 227.6 238.72 231.28C237.744 234.88 238.224 238.784 238.752 241.776C238.824 241.936 255.376 310.04 260.608 331.576L288.408 326.44L265.216 244.352C265.208 244.312 265.2 244.272 265.2 244.232C265.216 243.832 265.08 243.424 264.944 243C264.776 242.496 264.608 241.968 264.656 241.392C264.68 241.048 264.784 240.736 264.888 240.432C264.944 240.256 265 240.088 265.04 239.904C265.12 239.56 265.088 239.136 264.848 238.968C264.664 238.84 264.624 238.592 264.752 238.408C264.88 238.224 265.129 238.184 265.313 238.312C265.889 238.72 265.952 239.488 265.824 240.072C265.776 240.272 265.712 240.48 265.648 240.672C265.56 240.936 265.472 241.192 265.456 241.44C265.424 241.856 265.561 242.28 265.713 242.736C265.865 243.192 266.016 243.672 266.008 244.184L289.304 326.632C289.336 326.736 289.32 326.856 289.256 326.952C289.2 327.048 289.096 327.112 288.992 327.136L260.392 332.416C260.36 332.424 260.337 332.424 260.313 332.424Z" fill="#000001"/>
<path d="M252.224 221.512C252.064 221.512 251.912 221.416 251.856 221.264C251.776 221.056 251.872 220.824 252.08 220.744L283.184 208.352C283.392 208.272 283.624 208.368 283.704 208.576C283.784 208.784 283.688 209.016 283.48 209.096L252.376 221.488C252.328 221.496 252.28 221.512 252.224 221.512Z" fill="#000001"/>
<path d="M282.72 211.896C282.576 211.896 282.44 211.824 282.368 211.688C282.264 211.496 282.328 211.248 282.528 211.144C283.336 210.696 283.864 209.808 284.376 208.96L284.536 208.696C285.12 207.728 285.96 206.568 287.24 206.272C287.4 206.232 287.568 206.208 287.744 206.184C288.248 206.112 288.584 206.04 288.72 205.808C288.76 205.736 288.784 205.632 288.816 205.52C288.84 205.424 288.864 205.32 288.904 205.232C289.208 204.408 290.096 204.016 290.84 203.992C291.56 203.968 292.28 204.232 292.896 204.464L297.84 206.328C298.048 206.408 298.152 206.64 298.072 206.84C297.992 207.048 297.768 207.152 297.56 207.072L292.616 205.208C292.048 204.992 291.448 204.776 290.872 204.792C290.416 204.808 289.84 205.04 289.664 205.512C289.64 205.584 289.624 205.648 289.6 205.72C289.56 205.872 289.52 206.04 289.424 206.208C289.088 206.8 288.416 206.904 287.872 206.984C287.72 207.008 287.568 207.032 287.432 207.064C286.44 207.296 285.736 208.288 285.232 209.128L285.072 209.392C284.512 210.336 283.928 211.312 282.928 211.864C282.848 211.88 282.784 211.896 282.72 211.896Z" fill="#000001"/>
<path d="M288.425 215.824C288.401 215.824 288.369 215.824 288.345 215.816C288.129 215.776 287.985 215.56 288.033 215.344C288.217 214.44 288.201 213.488 287.985 212.584L287.953 212.44C287.865 212.072 287.761 211.656 287.873 211.224C287.977 210.816 288.241 210.504 288.513 210.224C289.481 209.224 290.609 208.416 291.873 207.832C292.073 207.736 292.313 207.824 292.401 208.024C292.497 208.224 292.409 208.464 292.209 208.552C291.033 209.096 289.985 209.848 289.081 210.776C288.857 211.008 288.697 211.208 288.641 211.416C288.577 211.656 288.649 211.944 288.729 212.248L288.761 212.392C289.001 213.4 289.017 214.48 288.809 215.496C288.777 215.688 288.609 215.824 288.425 215.824Z" fill="#000001"/>
<path d="M296.064 215.232C296 215.232 295.944 215.216 295.88 215.192C295.68 215.096 295.608 214.848 295.704 214.656C296.032 214.008 296.8 213.864 297.304 213.768C297.848 213.664 298.16 213.496 298.232 213.272C298.256 213.192 298.264 213.096 298.272 213C298.304 212.712 298.352 212.28 298.768 212.08C298.952 211.992 299.128 212 299.256 212L299.848 212.016C300.352 210.96 301.352 210.12 302.504 209.784C302.72 209.72 302.936 209.848 303 210.056C303.064 210.264 302.944 210.488 302.728 210.552C301.776 210.832 300.952 211.528 300.512 212.416C300.472 212.496 300.408 212.624 300.272 212.72C300.112 212.824 299.944 212.816 299.856 212.816L299.24 212.8C299.2 212.8 299.128 212.8 299.104 212.8C299.096 212.824 299.08 212.984 299.064 213.08C299.048 213.224 299.032 213.368 298.992 213.496C298.744 214.304 297.768 214.488 297.448 214.544C296.984 214.632 296.552 214.728 296.416 215.008C296.352 215.152 296.216 215.232 296.064 215.232Z" fill="#000001"/>
<path d="M252.897 229.824C252.721 229.824 252.561 229.712 252.513 229.536C252.449 229.32 252.577 229.104 252.785 229.04C266.161 225.152 279.657 221.048 292.905 216.848C293.121 216.784 293.337 216.896 293.409 217.112C293.473 217.32 293.361 217.544 293.145 217.616C279.889 221.816 266.385 225.92 253.001 229.816C252.977 229.824 252.937 229.824 252.897 229.824Z" fill="#000001"/>
<path d="M250.56 244.111C250.368 244.111 250.2 243.975 250.168 243.783C249.928 242.439 250.04 241.047 250.472 239.759L250.512 239.647C250.616 239.359 250.712 239.079 250.672 238.839C250.616 238.455 250.256 238.183 249.84 237.871C249.56 237.663 249.272 237.439 249.04 237.167C248.408 236.399 248.312 235.207 248.808 234.127C249.224 233.207 249.96 232.487 250.608 231.855C250.768 231.703 251.024 231.703 251.176 231.863C251.328 232.023 251.328 232.271 251.168 232.431C250.544 233.047 249.888 233.679 249.536 234.463C249.24 235.119 249.16 236.055 249.664 236.663C249.832 236.871 250.072 237.047 250.328 237.239C250.816 237.607 251.36 238.023 251.464 238.727C251.528 239.159 251.392 239.559 251.264 239.911L251.224 240.023C250.832 241.191 250.736 242.439 250.944 243.655C250.984 243.871 250.84 244.079 250.616 244.119C250.6 244.103 250.584 244.111 250.56 244.111Z" fill="#000001"/>
<path d="M273.504 325.96C273.32 325.96 273.152 325.832 273.112 325.648C271.92 320.336 270.688 314.848 269.32 309.464C267.384 301.88 265.112 294.256 262.912 286.888L251.496 248.64C251.432 248.432 251.552 248.208 251.768 248.144C251.976 248.08 252.2 248.2 252.264 248.416L263.68 286.664C265.88 294.04 268.16 301.672 270.096 309.272C271.472 314.672 272.704 320.168 273.896 325.48C273.944 325.696 273.808 325.912 273.592 325.96C273.56 325.96 273.528 325.96 273.504 325.96Z" fill="#000001"/>
<path d="M333.361 220.328C330.401 220.328 327.337 220.072 324.177 219.56C316.217 218.28 308.617 215.52 302.889 213.256C302.681 213.176 302.585 212.944 302.665 212.736C302.745 212.528 302.977 212.424 303.185 212.512C308.881 214.76 316.425 217.496 324.313 218.768C332.281 220.048 339.601 219.696 346.073 217.712C346.281 217.648 346.505 217.768 346.569 217.976C346.633 218.184 346.513 218.408 346.305 218.472C342.289 219.712 337.961 220.328 333.361 220.328Z" fill="#000001"/>
<path d="M317.689 235.768C317.577 235.768 317.457 235.72 317.377 235.624C317.233 235.456 317.257 235.2 317.433 235.064C322.121 231.2 325.657 225.864 327.385 220.04C327.449 219.832 327.673 219.712 327.881 219.768C328.089 219.832 328.217 220.056 328.153 220.264C326.377 226.24 322.753 231.712 317.945 235.672C317.865 235.744 317.777 235.768 317.689 235.768Z" fill="#000001"/>
<path d="M319.72 223.376C313.736 223.376 307.792 222.008 302.4 219.384C302.2 219.288 302.12 219.048 302.216 218.848C302.312 218.648 302.552 218.568 302.752 218.664C308.672 221.552 315.272 222.88 321.856 222.52C322.08 222.504 322.264 222.68 322.28 222.896C322.296 223.12 322.12 223.304 321.904 223.32C321.168 223.36 320.44 223.376 319.72 223.376Z" fill="#000001"/>
<path d="M310.776 235.264C310.64 235.264 310.512 235.2 310.44 235.08C310.32 234.896 310.376 234.648 310.568 234.528C314.232 232.232 317.416 229.112 319.776 225.496C319.896 225.312 320.144 225.264 320.328 225.376C320.512 225.496 320.568 225.744 320.448 225.928C318.024 229.64 314.752 232.84 310.992 235.2C310.92 235.248 310.848 235.264 310.776 235.264Z" fill="#000001"/>
<path d="M324.057 234.912C323.953 234.912 323.857 234.872 323.777 234.8C323.617 234.648 323.617 234.392 323.769 234.232C326.321 231.648 328.529 228.736 330.345 225.592C330.457 225.4 330.697 225.336 330.889 225.448C331.081 225.56 331.145 225.8 331.033 225.992C329.185 229.2 326.929 232.16 324.337 234.792C324.265 234.872 324.161 234.912 324.057 234.912Z" fill="#000001"/>
<path d="M335.905 224.351C334.569 224.351 333.225 224.271 331.905 224.103C331.689 224.079 331.529 223.879 331.561 223.655C331.585 223.439 331.793 223.279 332.009 223.311C336.241 223.847 340.641 223.495 344.745 222.311C344.953 222.247 345.177 222.375 345.241 222.583C345.305 222.791 345.177 223.015 344.969 223.079C342.041 223.919 338.961 224.351 335.905 224.351Z" fill="#000001"/>
<path d="M289.256 326.544C289.048 326.544 288.872 326.384 288.856 326.168C288.84 325.944 289.008 325.76 289.232 325.744C295.824 325.312 302.192 324.672 307.64 321.56C308.096 321.304 308.56 321.016 308.864 320.592C309.096 320.264 309.24 319.76 309.024 319.384C309.008 319.36 309 319.336 308.992 319.312C308.928 319.112 286.736 249.968 285.792 247.024C285.512 245.736 285.16 244.488 284.728 243.28C284.56 242.808 284.384 242.352 284.064 242.04C283.96 241.936 283.832 241.848 283.712 241.76C283.552 241.648 283.4 241.528 283.264 241.392C282.504 240.64 282.432 239.544 282.424 238.488C282.424 238.264 282.6 238.088 282.824 238.088C283.04 238.088 283.224 238.264 283.224 238.488C283.232 239.376 283.288 240.296 283.824 240.832C283.936 240.944 284.056 241.032 284.184 241.128C284.336 241.24 284.488 241.352 284.616 241.48C285.056 241.912 285.288 242.48 285.48 243.024C285.92 244.264 286.288 245.544 286.56 246.832C286.776 247.504 309.16 317.232 309.736 319.04C310.056 319.64 309.968 320.432 309.512 321.072C309.12 321.624 308.544 321.976 308.04 322.264C302.44 325.456 295.976 326.112 289.288 326.544C289.28 326.544 289.264 326.544 289.256 326.544Z" fill="#000001"/>
<path d="M274.32 343.96C274.144 343.96 273.984 343.848 273.936 343.664L270.336 330.832C270.28 330.616 270.4 330.4 270.616 330.336C270.824 330.28 271.048 330.4 271.112 330.616L274.712 343.448C274.768 343.664 274.648 343.88 274.432 343.944C274.392 343.96 274.352 343.96 274.32 343.96Z" fill="#000001"/>
<path d="M287.841 341.168C287.665 341.168 287.497 341.048 287.449 340.864L284.249 328.032C284.193 327.816 284.329 327.6 284.537 327.544C284.753 327.488 284.969 327.624 285.025 327.832L288.225 340.664C288.281 340.88 288.145 341.096 287.937 341.152C287.905 341.16 287.873 341.168 287.841 341.168Z" fill="#000001"/>
<path d="M291.569 358.167H249.017C248.817 358.167 248.649 358.015 248.617 357.815L248.537 357.183C248.041 355.159 249.257 353.111 250.689 351.999C252.225 350.799 254.129 350.303 255.945 349.943C257.201 349.695 258.489 349.495 259.729 349.303C261.705 348.999 263.753 348.679 265.705 348.151C269.401 347.159 272.161 345.519 273.905 343.287C273.953 343.231 274.009 343.183 274.081 343.159C274.793 342.895 275.913 342.719 276.929 342.999C277.161 343.063 277.393 343.159 277.617 343.247C277.793 343.319 277.961 343.383 278.145 343.439C279.353 343.815 280.657 343.535 282.113 343.167C283.561 342.799 284.841 342.423 285.769 341.567C285.865 341.479 285.953 341.391 286.041 341.303C286.369 340.983 286.737 340.615 287.233 340.447C288.169 340.143 289.241 340.639 290.097 341.775C291.033 343.015 291.609 344.479 291.769 346.023H291.745C291.873 346.687 291.921 348.991 291.945 357.759C291.945 357.863 291.905 357.967 291.825 358.039C291.777 358.127 291.673 358.167 291.569 358.167ZM249.369 357.367H291.169C291.153 353.039 291.097 346.823 291.017 346.199C291.009 346.167 291.001 346.143 291.001 346.111C290.857 344.711 290.329 343.383 289.481 342.263C288.985 341.607 288.209 340.991 287.505 341.215C287.185 341.319 286.913 341.591 286.633 341.871C286.537 341.967 286.433 342.071 286.329 342.159C285.257 343.135 283.881 343.543 282.329 343.943C281.113 344.255 279.449 344.679 277.929 344.207C277.729 344.143 277.537 344.071 277.345 343.991C277.145 343.911 276.945 343.831 276.729 343.775C275.945 343.551 275.073 343.679 274.473 343.879C272.617 346.207 269.745 347.903 265.929 348.935C263.929 349.471 261.865 349.791 259.865 350.103C258.633 350.295 257.353 350.495 256.113 350.735C254.385 351.079 252.601 351.543 251.185 352.639C249.961 353.591 248.905 355.327 249.329 357.047L249.369 357.367Z" fill="#000001"/>
<path d="M273.033 349.446C272.929 349.446 272.825 349.43 272.713 349.406C272.641 349.39 272.441 349.334 272.305 349.15C272.129 348.91 272.201 348.622 272.233 348.518C272.577 347.222 273.033 345.942 273.593 344.734C273.689 344.534 273.921 344.446 274.121 344.542C274.321 344.638 274.409 344.87 274.313 345.07C273.785 346.214 273.345 347.422 273.025 348.646C273.337 348.646 273.673 348.39 273.969 348.142C275.353 346.974 276.681 345.718 277.921 344.406C278.073 344.246 278.329 344.238 278.489 344.39C278.649 344.542 278.657 344.798 278.505 344.958C277.241 346.294 275.889 347.566 274.481 348.758C274.073 349.094 273.585 349.446 273.033 349.446Z" fill="#000001"/>
<path d="M289.584 356.271H250.64C250.416 356.271 250.24 356.095 250.24 355.871C250.24 355.647 250.416 355.471 250.64 355.471H289.584C289.808 355.471 289.984 355.647 289.984 355.871C289.984 356.095 289.8 356.271 289.584 356.271Z" fill="#000001"/>
<path d="M313.881 346.352C313.697 346.352 313.529 346.224 313.489 346.032C312.913 343.168 312.265 340.424 310.593 338.328C310.193 337.824 309.825 337.584 309.497 337.624C309.153 337.664 308.865 338.024 308.585 338.36L308.497 338.464C306.721 340.592 303.817 341.656 301.081 341.16C300.625 341.08 300.177 340.952 299.737 340.84C298.825 340.592 297.961 340.36 297.129 340.472C296.385 342.872 294.209 344.752 291.745 345.072C291.529 345.104 291.329 344.944 291.297 344.728C291.265 344.512 291.425 344.312 291.641 344.28C293.873 343.992 295.841 342.24 296.425 340.024C296.465 339.88 296.577 339.768 296.729 339.736C297.833 339.496 298.905 339.792 299.945 340.072C300.369 340.184 300.801 340.304 301.225 340.384C303.681 340.824 306.289 339.872 307.881 337.96L307.961 337.856C308.305 337.44 308.737 336.912 309.393 336.832C310.009 336.76 310.625 337.096 311.209 337.832C312.985 340.072 313.665 342.92 314.257 345.88C314.297 346.096 314.161 346.304 313.945 346.352C313.929 346.352 313.905 346.352 313.881 346.352Z" fill="#000001"/>
<path d="M297.584 340.336C297.416 340.336 297.264 340.232 297.208 340.072L292.376 326.416C292.304 326.208 292.408 325.976 292.616 325.904C292.824 325.832 293.056 325.936 293.128 326.144L297.96 339.8C298.032 340.008 297.928 340.24 297.72 340.312C297.672 340.328 297.624 340.336 297.584 340.336Z" fill="#000001"/>
<path d="M308.984 337.336C308.8 337.336 308.632 337.208 308.592 337.024L305.512 323.392C305.464 323.176 305.6 322.96 305.816 322.912C306.032 322.864 306.248 323 306.296 323.216L309.376 336.848C309.424 337.064 309.288 337.28 309.072 337.328C309.04 337.336 309.016 337.336 308.984 337.336Z" fill="#000001"/>
<path d="M289.736 41.6953H199.336V132.095H289.736V41.6953Z" fill="#00396D"/>
<path d="M257.992 117.463C252.704 117.463 247.728 114.231 246.12 109.623C245.376 107.487 245.336 105.191 245.296 102.975C245.248 100.455 245.208 98.0706 244.232 95.8946C243.152 93.4866 240.96 91.4466 237.52 89.6626C236.464 89.1106 235.352 88.6066 234.28 88.1186C232.472 87.2946 230.608 86.4466 228.904 85.3426C222.816 81.3906 219.36 73.9826 220.496 67.3106C220.512 67.2386 220.544 67.1666 220.592 67.1106C221.24 66.3746 221.856 65.6466 222.448 64.9506C225.408 61.4786 227.968 58.4786 231.44 56.9426C236.448 54.7266 242.16 55.9746 247.112 57.3186C256.048 59.7426 265.96 63.2866 271.704 71.2146C276.936 78.4386 277.368 87.5266 276.816 93.8786C276.28 100.079 274.76 105.015 272.168 108.975C268.992 113.831 264.104 116.983 259.08 117.415C258.72 117.447 258.352 117.463 257.992 117.463ZM221.264 67.5586C220.24 73.8946 223.544 80.9186 229.344 84.6706C231 85.7426 232.84 86.5826 234.616 87.3906C235.696 87.8786 236.816 88.3906 237.896 88.9506C241.504 90.8306 243.816 92.9906 244.968 95.5666C246.008 97.8866 246.056 100.471 246.104 102.959C246.144 105.119 246.184 107.351 246.888 109.359C248.48 113.951 253.696 117.071 259.024 116.615C263.8 116.207 268.472 113.191 271.512 108.535C274.024 104.687 275.504 99.8706 276.032 93.8066C276.576 87.5906 276.152 78.7026 271.064 71.6786C265.464 63.9506 255.712 60.4706 246.912 58.0866C242.088 56.7826 236.544 55.5666 231.768 57.6706C228.464 59.1346 226.08 61.9266 223.064 65.4626C222.48 66.1506 221.888 66.8466 221.264 67.5586Z" fill="white"/>
<path d="M245.4 88.832C245.296 88.832 245.192 88.792 245.12 88.712C244.056 87.648 242.528 86.952 240.32 86.52C239.664 86.392 239 86.296 238.344 86.2C237.168 86.024 235.96 85.848 234.784 85.504C231.808 84.624 229.136 82.624 227.464 80.008C227.344 79.824 227.4 79.576 227.584 79.456C227.768 79.336 228.016 79.392 228.136 79.576C229.712 82.032 232.216 83.912 235.008 84.736C236.12 85.064 237.312 85.24 238.456 85.408C239.128 85.504 239.8 85.608 240.472 85.736C242.84 86.192 244.504 86.96 245.688 88.144C245.848 88.304 245.848 88.552 245.688 88.712C245.6 88.792 245.496 88.832 245.4 88.832Z" fill="white"/>
<path d="M254.895 110.494C254.887 110.494 254.871 110.494 254.863 110.494C254.639 110.478 254.479 110.286 254.495 110.062C254.591 108.934 254.327 107.782 253.759 106.814C253.471 106.326 253.111 105.878 252.735 105.414C252.423 105.03 252.103 104.638 251.823 104.214C249.991 101.43 250.199 97.7265 250.351 95.0225C250.367 94.8065 250.559 94.6465 250.775 94.6465C250.999 94.6625 251.167 94.8465 251.151 95.0705C250.967 98.4305 250.935 101.414 252.495 103.782C252.751 104.174 253.047 104.534 253.359 104.918C253.743 105.39 254.135 105.878 254.455 106.422C255.111 107.534 255.407 108.854 255.303 110.142C255.279 110.342 255.103 110.494 254.895 110.494Z" fill="white"/>
<path d="M267.007 106.207C266.951 106.207 266.887 106.191 266.831 106.167C266.631 106.071 266.551 105.831 266.647 105.631C268.175 102.495 268.943 99.4235 268.935 96.5115C268.927 93.1755 267.863 90.0875 265.943 87.8075C265.359 87.1195 264.679 86.4795 264.015 85.8635C263.383 85.2715 262.727 84.6555 262.143 83.9835C260.567 82.1675 259.527 79.9595 259.135 77.5915C259.095 77.3755 259.247 77.1675 259.463 77.1275C259.671 77.0875 259.887 77.2395 259.927 77.4555C260.295 79.6795 261.271 81.7515 262.751 83.4555C263.311 84.0955 263.951 84.6955 264.567 85.2715C265.247 85.9035 265.943 86.5595 266.559 87.2875C268.599 89.7035 269.727 92.9755 269.743 96.5035C269.751 99.5435 268.959 102.735 267.375 105.975C267.295 106.127 267.151 106.207 267.007 106.207Z" fill="white"/>
<path d="M257.791 71.2224C257.623 71.2224 257.471 71.1184 257.415 70.9504C256.583 68.4384 254.383 66.3984 251.815 65.7424C250.287 65.3504 248.639 65.4224 247.047 65.4944C246.719 65.5104 246.383 65.5264 246.055 65.5344C241.623 65.6784 238.479 64.6304 236.743 62.4144C236.607 62.2384 236.639 61.9904 236.807 61.8544C236.975 61.7184 237.231 61.7504 237.367 61.9184C238.935 63.9184 241.847 64.8544 246.023 64.7344C246.351 64.7264 246.679 64.7104 247.007 64.6944C248.655 64.6224 250.367 64.5504 252.007 64.9664C254.831 65.6864 257.247 67.9344 258.167 70.6944C258.239 70.9024 258.127 71.1264 257.911 71.1984C257.879 71.2144 257.831 71.2224 257.791 71.2224Z" fill="white"/>
<path d="M220.84 67.6224C220.792 67.6224 220.744 67.6144 220.696 67.5984C218.4 66.7024 216.376 64.8704 215.008 62.4544C213.856 60.4224 213.136 57.9424 212.872 55.1024C212.704 53.2464 212.76 51.7424 213.072 50.3664C213.12 50.1504 213.336 50.0144 213.552 50.0624C213.768 50.1104 213.904 50.3264 213.856 50.5424C213.568 51.8384 213.512 53.2624 213.672 55.0304C213.928 57.7584 214.608 60.1264 215.704 62.0624C216.984 64.3184 218.856 66.0224 220.984 66.8544C221.192 66.9344 221.288 67.1664 221.208 67.3744C221.152 67.5264 221 67.6224 220.84 67.6224Z" fill="white"/>
<path d="M222.184 68.1759C222.16 68.1759 222.144 68.1759 222.12 68.1759C221.616 68.1679 221.208 68.0239 220.928 67.7599C220.768 67.6079 220.76 67.3519 220.912 67.1919C221.064 67.0319 221.312 67.0239 221.48 67.1759C221.648 67.3359 221.936 67.3759 222.144 67.3759C222.16 67.3759 222.176 67.3759 222.184 67.3759C223.08 67.3759 223.976 66.8319 224.384 66.0399C224.784 65.2559 224.712 64.2159 224.2 63.4879C223.824 63.2399 223.432 63.0159 223.048 62.7999C222.632 62.5679 222.208 62.3199 221.808 62.0479C220.104 60.8799 218.76 59.0799 218.032 56.9759C217.368 55.0719 217.192 52.9039 217.52 50.6879C217.552 50.4719 217.76 50.3119 217.976 50.3519C218.192 50.3839 218.344 50.5839 218.312 50.8079C218.008 52.8959 218.176 54.9359 218.792 56.7199C219.464 58.6639 220.696 60.3279 222.264 61.3919C222.64 61.6479 223.032 61.8719 223.448 62.1119C223.864 62.3519 224.288 62.5919 224.704 62.8719C224.744 62.8959 224.776 62.9279 224.8 62.9599C225.536 63.9359 225.656 65.3199 225.096 66.4079C224.544 67.4719 223.384 68.1759 222.184 68.1759Z" fill="white"/>
<path d="M220.376 118.295C220.272 118.295 220.16 118.255 220.08 118.167C219.928 118.007 219.944 117.751 220.104 117.599C223.072 114.871 227.28 114.423 230.312 114.535C232.272 114.607 234.232 114.895 236.136 115.391C236.928 115.599 237.72 115.839 238.488 116.079C240.12 116.583 241.816 117.111 243.528 117.255C245.736 117.439 248.576 116.879 249.952 114.719C250.072 114.535 250.32 114.479 250.504 114.599C250.688 114.719 250.744 114.967 250.624 115.151C249.056 117.607 245.896 118.263 243.456 118.055C241.664 117.903 239.928 117.367 238.248 116.847C237.488 116.615 236.704 116.367 235.928 116.167C234.08 115.687 232.184 115.407 230.272 115.335C227.416 115.239 223.4 115.639 220.64 118.191C220.568 118.263 220.472 118.295 220.376 118.295Z" fill="white"/>
<path d="M220.087 123.304C219.991 123.304 219.903 123.272 219.823 123.208C219.655 123.064 219.639 122.808 219.783 122.64C221.671 120.448 224.535 119.024 227.839 118.64C230.511 118.328 233.431 118.672 236.791 119.68C237.479 119.888 238.159 120.112 238.831 120.336C240.071 120.752 241.359 121.176 242.647 121.464C244.911 121.968 246.879 121.936 248.511 121.368C250.711 120.6 252.423 118.848 254.127 116.968C254.279 116.8 254.527 116.792 254.695 116.944C254.855 117.096 254.871 117.344 254.719 117.512C252.943 119.472 251.151 121.296 248.775 122.128C247.007 122.744 244.887 122.792 242.479 122.248C241.151 121.952 239.847 121.52 238.583 121.096C237.911 120.872 237.239 120.648 236.559 120.44C233.311 119.464 230.495 119.128 227.935 119.424C224.871 119.784 222.119 121.136 220.391 123.152C220.311 123.256 220.199 123.304 220.087 123.304Z" fill="white"/>
<path d="M269.095 51.1112C268.239 51.1112 267.367 50.8952 266.823 50.1272C266.767 50.0472 266.719 49.9672 266.663 49.8792C266.575 49.7272 266.495 49.5992 266.399 49.5352C266.255 49.4392 265.991 49.4552 265.743 49.4792C263.863 49.6632 261.975 49.9352 260.119 50.2792C259.903 50.3192 259.695 50.1752 259.655 49.9592C259.615 49.7432 259.759 49.5352 259.975 49.4952C261.855 49.1432 263.767 48.8712 265.671 48.6872C265.959 48.6552 266.455 48.6072 266.855 48.8792C267.103 49.0472 267.239 49.2712 267.359 49.4792C267.399 49.5432 267.439 49.6152 267.487 49.6792C268.111 50.5672 269.559 50.3752 270.887 50.0712C275.351 49.0552 280.095 48.9672 284.591 49.8072C284.807 49.8472 284.951 50.0552 284.911 50.2712C284.871 50.4872 284.655 50.6312 284.447 50.5912C280.055 49.7672 275.423 49.8552 271.063 50.8472C270.575 50.9432 269.847 51.1112 269.095 51.1112Z" fill="#FFDC32"/>
<path d="M282.569 57.1111C282.529 57.1111 282.481 57.1031 282.441 57.0871C279.625 56.1111 276.561 55.7191 273.585 55.9351C272.737 55.9991 271.865 56.1111 271.033 56.2231C270.089 56.3431 269.113 56.4711 268.137 56.5351C267.649 56.5591 267.081 56.5751 266.577 56.3271C266.297 56.1911 266.081 55.9991 265.873 55.8151C265.793 55.7431 265.713 55.6791 265.633 55.6151C264.065 54.3831 261.697 54.9591 259.577 55.6791C259.369 55.7511 259.145 55.6391 259.073 55.4311C259.001 55.2231 259.113 54.9911 259.321 54.9191C261.641 54.1191 264.265 53.5031 266.129 54.9831C266.225 55.0551 266.313 55.1351 266.401 55.2151C266.577 55.3671 266.745 55.5191 266.929 55.6071C267.265 55.7671 267.689 55.7591 268.097 55.7351C269.041 55.6791 270.001 55.5511 270.937 55.4311C271.785 55.3191 272.665 55.2071 273.537 55.1431C276.617 54.9191 279.785 55.3271 282.705 56.3351C282.913 56.4071 283.025 56.6391 282.953 56.8471C282.889 57.0071 282.729 57.1111 282.569 57.1111Z" fill="#FFDC32"/>
<path d="M275.752 61.5505C274.784 61.5505 273.816 61.5105 272.856 61.4385C272.2 61.3905 271.512 61.3025 270.928 60.9265C270.792 60.8385 270.664 60.7265 270.528 60.6225C270.36 60.4865 270.2 60.3505 270.032 60.2785C269.728 60.1505 269.328 60.2145 268.976 60.2625L265.32 60.8065C265.112 60.8385 264.896 60.6865 264.864 60.4705C264.832 60.2545 264.984 60.0465 265.2 60.0145L268.856 59.4705C269.288 59.4065 269.824 59.3265 270.336 59.5345C270.616 59.6465 270.84 59.8385 271.04 59.9985C271.144 60.0865 271.248 60.1745 271.36 60.2465C271.784 60.5265 272.336 60.5905 272.92 60.6305C275.056 60.7985 277.224 60.7745 279.352 60.5585C279.552 60.5425 279.768 60.6945 279.792 60.9185C279.816 61.1345 279.656 61.3345 279.432 61.3585C278.208 61.4865 276.984 61.5505 275.752 61.5505Z" fill="#FFDC32"/>
<path d="M215.113 95.8479C214.729 95.8479 214.345 95.7999 213.961 95.6879C213.537 95.5679 213.153 95.3679 212.785 95.1839C212.553 95.0639 212.321 94.9519 212.081 94.8479C209.945 93.9839 207.457 94.8239 205.097 95.7519C204.889 95.8319 204.657 95.7279 204.577 95.5279C204.497 95.3199 204.593 95.0879 204.801 95.0079C207.313 94.0159 209.969 93.1359 212.377 94.1119C212.641 94.2159 212.889 94.3439 213.145 94.4719C213.497 94.6479 213.833 94.8159 214.185 94.9199C215.393 95.2719 216.633 94.8399 217.945 94.3839C218.561 94.1679 219.193 93.9519 219.825 93.8159C221.985 93.3519 224.169 93.8319 226.289 94.2959C228.441 94.7679 230.473 95.2159 232.481 94.7519C232.697 94.6959 232.913 94.8399 232.961 95.0559C233.009 95.2719 232.873 95.4879 232.657 95.5359C230.473 96.0319 228.257 95.5519 226.113 95.0799C223.985 94.6159 221.977 94.1759 219.985 94.5999C219.393 94.7279 218.785 94.9359 218.193 95.1439C217.193 95.4879 216.161 95.8479 215.113 95.8479Z" fill="#FFDC32"/>
<path d="M217.736 101.295C217.664 101.295 217.592 101.295 217.52 101.287C216.68 101.255 215.872 101.039 215.088 100.831C214.704 100.727 214.32 100.623 213.936 100.543C211.448 100.031 208.872 100.447 206.384 100.855C206.168 100.895 205.96 100.743 205.928 100.527C205.896 100.311 206.04 100.103 206.256 100.071C208.696 99.6714 211.464 99.2154 214.104 99.7594C214.504 99.8394 214.904 99.9514 215.304 100.055C216.08 100.263 216.808 100.455 217.56 100.487C218.528 100.527 219.536 100.263 220.496 100.015L220.696 99.9674C224.256 99.0554 228.424 98.2954 232.32 99.5274C232.528 99.5914 232.648 99.8154 232.584 100.031C232.52 100.239 232.296 100.359 232.08 100.295C228.376 99.1274 224.344 99.8714 220.896 100.751L220.696 100.799C219.736 101.039 218.752 101.295 217.736 101.295Z" fill="#FFDC32"/>
<path d="M206.784 107.064C206.6 107.064 206.432 106.936 206.392 106.744C206.344 106.528 206.488 106.312 206.704 106.272C210.224 105.536 213.816 105.376 217.392 105.792C217.688 105.824 217.992 105.864 218.288 105.904C219.208 106.024 220.184 106.144 221.072 106.144C222.336 106.136 223.624 105.88 224.864 105.64C225.432 105.528 226 105.416 226.568 105.328C229 104.936 230.832 105.104 232.32 105.856C232.52 105.952 232.6 106.2 232.496 106.392C232.392 106.584 232.152 106.664 231.96 106.568C230.632 105.896 228.952 105.752 226.696 106.112C226.136 106.2 225.576 106.312 225.024 106.424C223.744 106.68 222.424 106.936 221.088 106.944C220.08 106.936 219.136 106.824 218.192 106.696C217.896 106.656 217.6 106.616 217.304 106.584C213.816 106.176 210.304 106.336 206.872 107.056C206.832 107.056 206.808 107.064 206.784 107.064Z" fill="#FFDC32"/>
</svg>
