<svg width="218" height="133" viewBox="0 0 218 133" fill="none" xmlns="http://www.w3.org/2000/svg">
<path d="M207.75 20.5115L196.06 10L151.9 54.6741L106.44 10L94.75 20.5115L140.21 66.5L94.75 112.489L106.44 123L151.9 78.3259L196.06 123L207.75 112.489L162.29 66.5L207.75 20.5115Z" fill="url(#paint0_linear_192_2314)"/>
<path d="M10 120.201V10H39.9885C51.7231 10 60.8501 12.6238 69.977 16.5596C77.8001 20.4954 84.3192 27.0545 88.2308 34.926C92.1423 42.7975 94.75 53.2932 94.75 66.4124C94.75 78.2197 92.1423 87.4033 88.2308 95.2748C84.3192 103.146 77.8001 109.706 69.977 114.954C62.1539 118.889 53.027 121.513 41.2924 121.513H10V120.201ZM41.2924 105.77C49.1155 105.77 55.6347 104.458 60.8501 101.834C66.0655 99.2105 69.977 93.9629 73.8886 88.7152C76.4963 82.1556 77.8002 74.2842 77.8002 65.1008C77.8002 51.9816 75.1923 41.4856 68.6731 34.926C62.1539 28.3664 53.027 24.4308 39.9885 24.4308H25.6463V105.77H41.2924Z" fill="#00396D"/>
<defs>
<linearGradient id="paint0_linear_192_2314" x1="247.895" y1="-31.6316" x2="114.962" y2="133.652" gradientUnits="userSpaceOnUse">
<stop stop-color="#001BE2"/>
<stop offset="1" stop-color="#00FF85"/>
</linearGradient>
</defs>
</svg>
