<?xml version="1.0" encoding="utf-8" standalone="yes"?>
<!DOCTYPE svg PUBLIC "-//W3C//DTD SVG 1.1//EN" "http://www.w3.org/Graphics/SVG/1.1/DTD/svg11.dtd">
<svg width="786" height="445" viewBox="0 0 786 445" style="fill:none;stroke:none;fill-rule:evenodd;clip-rule:evenodd;stroke-linecap:round;stroke-linejoin:round;stroke-miterlimit:1.5;" version="1.1" xmlns="http://www.w3.org/2000/svg" xmlns:xlink="http://www.w3.org/1999/xlink"><style id="fontImports">@import url("https://fonts.googleapis.com/css2?family=Roboto:wght@400;700&amp;display=block");</style><g id="items" style="isolation: isolate"><g id="blend" style="mix-blend-mode:normal"><g id="g-root-5.cu_sy_1ut1y0mqo7dvs-fill" data-item-order="999928551" data-item-id="5.cu_sy_1ut1y0mqo7dvs" data-item-class="Part Indexed Fill Stroke" data-item-index="5" data-renderer-id="0" transform="translate(457.24951171875, 295.755859375)"><g id="5.cu_sy_1ut1y0mqo7dvs-fill" stroke="none" fill="#7fb0ff"><g><path d="M 21.3646 112.332C 20.3601 99.7068 16.3302 87.9343 10 77.7392L 103.3361 10C 123.34 39.3254 135.429 74.4805 136.529 112.391L 21.3646 112.332Z"></path></g></g></g><g id="g-root-4.cu_sy_1hhlfnaqo7fgp-fill" data-item-order="999928555" data-item-id="4.cu_sy_1hhlfnaqo7fgp" data-item-class="Part Indexed Fill Stroke" data-item-index="4" data-renderer-id="0" transform="translate(421, 223)"><g id="4.cu_sy_1hhlfnaqo7fgp-fill" stroke="none" fill="#6e99e0"><g><path d="M 39.4485 141.169C 31.5362 131.856 21.4613 124.437 10 119.689L 45.5779 10C 80.4046 22.4662 110.58 44.7084 132.798 73.42L 39.4485 141.169Z"></path></g></g></g><g id="g-root-3.cu_sy_146red2qo7dvu-fill" data-item-order="999928559" data-item-id="3.cu_sy_146red2qo7dvu" data-item-class="Part Indexed Fill Stroke" data-item-index="3" data-renderer-id="0" transform="translate(337.9873046875, 212)"><g id="3.cu_sy_146red2qo7dvu-fill" stroke="none" fill="#5d83c1"><g><path d="M 82.0987 127.265C 76.1178 125.785 69.8631 125 63.425 125C 57.2918 125 51.3251 125.712 45.6029 127.059L 10 17.6761C 27.1074 12.6796 45.2033 10 63.925 10C 82.578 10 100.6097 12.6599 117.662 17.6212L 82.0987 127.265Z"></path></g></g></g><g id="g-root-2.cu_sy_mfhdvaqo7g8z-fill" data-item-order="999928563" data-item-id="2.cu_sy_mfhdvaqo7g8z" data-item-class="Part Indexed Fill Stroke" data-item-index="2" data-renderer-id="0" transform="translate(239.9755859375, 223.24609375)"><g id="2.cu_sy_mfhdvaqo7g8z-fill" stroke="none" fill="#4b6ca2"><g><path d="M 132.608 119.293C 120.996 123.949 110.773 131.333 102.7324 140.654L 10 73.3525C 32.1782 44.6923 62.2858 22.4785 97.034 10L 132.608 119.293Z"></path></g></g></g><g id="g-root-1.cu_sy_dkgupiqo7dvw-fill" data-item-order="999928567" data-item-id="1.cu_sy_dkgupiqo7dvw" data-item-class="Part Indexed Indexed_1 Fill Stroke" data-item-index="1" data-renderer-id="0" transform="translate(200, 295.935546875)"><g id="1.cu_sy_dkgupiqo7dvw-fill" stroke="none" fill="#3a5683"><g><path d="M 135.837 77.2402C 129.34 87.5284 125.197 99.4516 124.165 112.253L 10 112.195C 11.1361 74.3591 23.2184 39.2747 43.1883 10L 135.837 77.2402Z"></path></g></g></g><g id="g-root-tx_financia_1cz8w3aqy9u6i-fill" data-item-order="1000000000" data-item-id="tx_financia_1cz8w3aqy9u6i" data-item-class="Label Stroke Title ColorFillGray ColorStrokeGray" data-item-index="none" data-renderer-id="0" transform="translate(278, 2)"><g id="tx_financia_1cz8w3aqy9u6i-fill" stroke="none" fill="#00396D"><g><text style="font: bold 25px Roboto, sans-serif; white-space: pre;" font-weight="bold" font-size="25" font-family="Roboto, sans-serif"><tspan x="14.79" y="42.5" dominant-baseline="ideographic">Financial Reporting</tspan></text></g></g></g><g id="g-root-tx_efficien_908vw6qy9tlb-fill" data-item-order="1000000000" data-item-id="tx_efficien_908vw6qy9tlb" data-item-class="Label Stroke Indexed" data-item-index="3" data-renderer-id="0" transform="translate(344.076171875, 86)"><g id="tx_efficien_908vw6qy9tlb-fill" stroke="none" fill="#00396D"><g><text style="font: bold 20px Roboto, sans-serif; white-space: pre;" font-weight="bold" font-size="20" font-family="Roboto, sans-serif"><tspan x="13.98" y="33.5" dominant-baseline="ideographic">Efficiency</tspan></text></g></g></g><g id="g-root-tx_practice_58cqeqy9s00-fill" data-item-order="1000000000" data-item-id="tx_practice_58cqeqy9s00" data-item-class="Label Stroke Indexed" data-item-index="2" data-renderer-id="0" transform="translate(116, 134)"><g id="tx_practice_58cqeqy9s00-fill" stroke="none" fill="#00396D"><g><text style="font: bold 20px Roboto, sans-serif; white-space: pre;" font-weight="bold" font-size="20" font-family="Roboto, sans-serif"><tspan x="15.68" y="33.5" dominant-baseline="ideographic">Practices</tspan></text></g></g></g><g id="g-root-tx_streamli_de6yraqy9uki-fill" data-item-order="1000000000" data-item-id="tx_streamli_de6yraqy9uki" data-item-class="Label Stroke Indexed ColorFillGray ColorStrokeGray" data-item-index="3" data-renderer-id="0" transform="translate(308, 122)"><g id="tx_streamli_de6yraqy9uki-fill" stroke="none" fill="#00396D"><g><text style="font: 15px Roboto, sans-serif; white-space: pre;" font-weight="15px" font-size="Roboto," font-family="sans-serif"><tspan x="14.53" y="30.5" dominant-baseline="ideographic">Streamlining processes </tspan><tspan x="13.25" y="48.5" dominant-baseline="ideographic">to save time and reduce </tspan><tspan x="71.12" y="66.5" dominant-baseline="ideographic">errors.</tspan></text></g></g></g><g id="g-root-tx_accuracy_mbpe9iqy9s0e-fill" data-item-order="1000000000" data-item-id="tx_accuracy_mbpe9iqy9s0e" data-item-class="Label Stroke Indexed" data-item-index="4" data-renderer-id="0" transform="translate(572, 134)"><g id="tx_accuracy_mbpe9iqy9s0e-fill" stroke="none" fill="#00396D"><g><text style="font: bold 20px Roboto, sans-serif; white-space: pre;" font-weight="bold" font-size="20" font-family="Roboto, sans-serif"><tspan x="16.15" y="33.5" dominant-baseline="ideographic">Accuracy</tspan></text></g></g></g><g id="g-root-tx_establis_1q8tz7aqy9tl7-fill" data-item-order="1000000000" data-item-id="tx_establis_1q8tz7aqy9tl7" data-item-class="Label Stroke Indexed ColorFillGray ColorStrokeGray" data-item-index="2" data-renderer-id="0" transform="translate(80, 170)"><g id="tx_establis_1q8tz7aqy9tl7-fill" stroke="none" fill="#00396D"><g><text style="font: 15px Roboto, sans-serif; white-space: pre;" font-weight="15px" font-size="Roboto," font-family="sans-serif"><tspan x="13.71" y="30.5" dominant-baseline="ideographic">Established methods to </tspan><tspan x="31.8" y="48.5" dominant-baseline="ideographic">enhance reporting </tspan><tspan x="21.7" y="66.5" dominant-baseline="ideographic">accuracy and insight.</tspan></text></g></g></g><g id="g-root-tx_ensuring_qpnh4mqy9szl-fill" data-item-order="1000000000" data-item-id="tx_ensuring_qpnh4mqy9szl" data-item-class="Label Stroke Indexed ColorFillGray ColorStrokeGray" data-item-index="4" data-renderer-id="0" transform="translate(536, 170)"><g id="tx_ensuring_qpnh4mqy9szl-fill" stroke="none" fill="#00396D"><g><text style="font: 15px Roboto, sans-serif; white-space: pre;" font-weight="15px" font-size="Roboto," font-family="sans-serif"><tspan x="13.98" y="27.5" dominant-baseline="ideographic">Ensuring data precision </tspan><tspan x="37.12" y="45.5" dominant-baseline="ideographic">and compliance.</tspan></text></g></g></g><g id="g-root-cloc_1d2zng6qye0i3-fill" data-item-order="1000000000" data-item-id="cloc_1d2zng6qye0i3" data-item-class="Icon Stroke Indexed InsideFill InsideColorFill" data-item-index="3" data-renderer-id="0" transform="translate(368, 242)"></g><g id="g-root-chec_1d1qp9yqy711r-fill" data-item-order="1000000000" data-item-id="chec_1d1qp9yqy711r" data-item-class="Icon Stroke Indexed InsideFill InsideColorFill" data-item-index="2" data-renderer-id="0" transform="translate(284, 266)"></g><g id="g-root-grap_1cvhyeuqyl2is-fill" data-item-order="1000000000" data-item-id="grap_1cvhyeuqyl2is" data-item-class="Icon Stroke Indexed InsideFill InsideColorFill" data-item-index="4" data-renderer-id="0" transform="translate(452, 266)"></g><g id="g-root-tx_tools_1qapegmqy9sll-fill" data-item-order="1000000000" data-item-id="tx_tools_1qapegmqy9sll" data-item-class="Label Stroke Indexed Indexed_1" data-item-index="1" data-renderer-id="0" transform="translate(62, 290)"><g id="tx_tools_1qapegmqy9sll-fill" stroke="none" fill="#00396D"><g><text style="font: bold 20px Roboto, sans-serif; white-space: pre;" font-weight="bold" font-size="20" font-family="Roboto, sans-serif"><tspan x="15.73" y="33.5" dominant-baseline="ideographic">Tools</tspan></text></g></g></g><g id="g-root-tx_insightf_zmjfjqqy9tl9-fill" data-item-order="1000000000" data-item-id="tx_insightf_zmjfjqqy9tl9" data-item-class="Label Stroke Indexed" data-item-index="5" data-renderer-id="0" transform="translate(626, 290)"><g id="tx_insightf_zmjfjqqy9tl9-fill" stroke="none" fill="#00396D"><g><text style="font: bold 20px Roboto, sans-serif; white-space: pre;" font-weight="bold" font-size="20" font-family="Roboto, sans-serif"><tspan x="11.89" y="33.5" dominant-baseline="ideographic">Insightfulness</tspan></text></g></g></g><g id="g-root-tx_essentia_1cxzxx2qy9s0c-fill" data-item-order="1000000000" data-item-id="tx_essentia_1cxzxx2qy9s0c" data-item-class="Label Stroke Indexed Indexed_1 ColorFillGray ColorStrokeGray" data-item-index="1" data-renderer-id="0" transform="translate(2, 326)"><g id="tx_essentia_1cxzxx2qy9s0c-fill" stroke="none" fill="#00396D"><g><text style="font: 15px Roboto, sans-serif; white-space: pre;" font-weight="15px" font-size="Roboto," font-family="sans-serif"><tspan x="12.55" y="30.5" dominant-baseline="ideographic">Essential instruments and </tspan><tspan x="29.77" y="48.5" dominant-baseline="ideographic">software for efficient </tspan><tspan x="66.7" y="66.5" dominant-baseline="ideographic">reporting.</tspan></text></g></g></g><g id="g-root-tx_providin_140hieuqy9ukg-fill" data-item-order="1000000000" data-item-id="tx_providin_140hieuqy9ukg" data-item-class="Label Stroke Indexed ColorFillGray ColorStrokeGray" data-item-index="5" data-renderer-id="0" transform="translate(620, 325.607421875)"><g id="tx_providin_140hieuqy9ukg-fill" stroke="none" fill="#00396D"><g><text style="font: 15px Roboto, sans-serif; white-space: pre;" font-weight="15px" font-size="Roboto," font-family="sans-serif"><tspan x="21.18" y="30.5" dominant-baseline="ideographic">Providing valuable </tspan><tspan x="12.45" y="48.5" dominant-baseline="ideographic">insights for decision-</tspan><tspan x="55.4" y="66.5" dominant-baseline="ideographic">making.</tspan></text></g></g></g><g id="g-root-2_1q7m99yqok35y-fill" data-item-order="1000000000" data-item-id="2_1q7m99yqok35y" data-item-class="Icon Stroke Indexed Indexed_1 InsideFill InsideColorFill" data-item-index="1" data-renderer-id="0" transform="translate(236, 338)"></g><g id="g-root-cash_1upxkl2qomtxn-fill" data-item-order="1000000000" data-item-id="cash_1upxkl2qomtxn" data-item-class="Icon Stroke Title" data-item-index="none" data-renderer-id="0" transform="translate(356, 350)"></g><g id="g-root-on_18gb0jaqy9ts7-fill" data-item-order="1000000000" data-item-id="on_18gb0jaqy9ts7" data-item-class="Icon Stroke Indexed InsideFill InsideColorFill" data-item-index="5" data-renderer-id="0" transform="translate(500, 338)"></g><g id="g-root-5.cu_sy_1ut1y0mqo7dvs-stroke" data-item-order="999928551" data-item-id="5.cu_sy_1ut1y0mqo7dvs" data-item-class="Part Indexed Fill Stroke" data-item-index="5" data-renderer-id="0" transform="translate(457.24951171875, 295.755859375)"><g id="5.cu_sy_1ut1y0mqo7dvs-stroke" fill="none" stroke-linecap="butt" stroke-linejoin="miter" stroke-miterlimit="4" stroke="#7fb0ff" stroke-width="1"><g><path d="M 21.3646 112.3316C 20.3601 99.7068 16.3302 87.9343 10 77.7392L 103.3361 10C 123.3401 39.3254 135.4294 74.4805 136.5293 112.3908L 21.3646 112.3316Z"></path></g></g></g><g id="g-root-4.cu_sy_1hhlfnaqo7fgp-stroke" data-item-order="999928555" data-item-id="4.cu_sy_1hhlfnaqo7fgp" data-item-class="Part Indexed Fill Stroke" data-item-index="4" data-renderer-id="0" transform="translate(421, 223)"><g id="4.cu_sy_1hhlfnaqo7fgp-stroke" fill="none" stroke-linecap="butt" stroke-linejoin="miter" stroke-miterlimit="4" stroke="#6e99e0" stroke-width="1"><g><path d="M 39.4485 141.1687C 31.5362 131.8557 21.4613 124.4372 10 119.6894L 45.5779 10C 80.4046 22.4662 110.58 44.7084 132.7976 73.42L 39.4485 141.1687Z"></path></g></g></g><g id="g-root-3.cu_sy_146red2qo7dvu-stroke" data-item-order="999928559" data-item-id="3.cu_sy_146red2qo7dvu" data-item-class="Part Indexed Fill Stroke" data-item-index="3" data-renderer-id="0" transform="translate(337.9873046875, 212)"><g id="3.cu_sy_146red2qo7dvu-stroke" fill="none" stroke-linecap="butt" stroke-linejoin="miter" stroke-miterlimit="4" stroke="#5d83c1" stroke-width="1"><g><path d="M 82.0987 127.2646C 76.1178 125.785 69.8631 125 63.425 125C 57.2918 125 51.3251 125.7124 45.6029 127.0591L 10 17.6761C 27.1074 12.6796 45.2033 10 63.925 10C 82.578 10 100.6097 12.6599 117.6616 17.6212L 82.0987 127.2646Z"></path></g></g></g><g id="g-root-2.cu_sy_mfhdvaqo7g8z-stroke" data-item-order="999928563" data-item-id="2.cu_sy_mfhdvaqo7g8z" data-item-class="Part Indexed Fill Stroke" data-item-index="2" data-renderer-id="0" transform="translate(239.9755859375, 223.24609375)"><g id="2.cu_sy_mfhdvaqo7g8z-stroke" fill="none" stroke-linecap="butt" stroke-linejoin="miter" stroke-miterlimit="4" stroke="#4b6ca2" stroke-width="1"><g><path d="M 132.6076 119.2926C 120.9962 123.9486 110.7733 131.3334 102.7324 140.6537L 10 73.3525C 32.1782 44.6923 62.2858 22.4785 97.034 10L 132.6076 119.2926Z"></path></g></g></g><g id="g-root-1.cu_sy_dkgupiqo7dvw-stroke" data-item-order="999928567" data-item-id="1.cu_sy_dkgupiqo7dvw" data-item-class="Part Indexed Indexed_1 Fill Stroke" data-item-index="1" data-renderer-id="0" transform="translate(200, 295.935546875)"><g id="1.cu_sy_dkgupiqo7dvw-stroke" fill="none" stroke-linecap="butt" stroke-linejoin="miter" stroke-miterlimit="4" stroke="#3a5683" stroke-width="1"><g><path d="M 135.8367 77.2402C 129.3397 87.5284 125.197 99.4516 124.1653 112.2533L 10 112.1946C 11.1361 74.3591 23.2184 39.2747 43.1883 10L 135.8367 77.2402Z"></path></g></g></g><g id="g-root-tx_financia_1cz8w3aqy9u6i-stroke" data-item-order="1000000000" data-item-id="tx_financia_1cz8w3aqy9u6i" data-item-class="Label Stroke Title ColorFillGray ColorStrokeGray" data-item-index="none" data-renderer-id="0" transform="translate(278, 2)"></g><g id="g-root-tx_efficien_908vw6qy9tlb-stroke" data-item-order="1000000000" data-item-id="tx_efficien_908vw6qy9tlb" data-item-class="Label Stroke Indexed" data-item-index="3" data-renderer-id="0" transform="translate(344.076171875, 86)"></g><g id="g-root-tx_practice_58cqeqy9s00-stroke" data-item-order="1000000000" data-item-id="tx_practice_58cqeqy9s00" data-item-class="Label Stroke Indexed" data-item-index="2" data-renderer-id="0" transform="translate(116, 134)"></g><g id="g-root-tx_streamli_de6yraqy9uki-stroke" data-item-order="1000000000" data-item-id="tx_streamli_de6yraqy9uki" data-item-class="Label Stroke Indexed ColorFillGray ColorStrokeGray" data-item-index="3" data-renderer-id="0" transform="translate(308, 122)"></g><g id="g-root-tx_accuracy_mbpe9iqy9s0e-stroke" data-item-order="1000000000" data-item-id="tx_accuracy_mbpe9iqy9s0e" data-item-class="Label Stroke Indexed" data-item-index="4" data-renderer-id="0" transform="translate(572, 134)"></g><g id="g-root-tx_establis_1q8tz7aqy9tl7-stroke" data-item-order="1000000000" data-item-id="tx_establis_1q8tz7aqy9tl7" data-item-class="Label Stroke Indexed ColorFillGray ColorStrokeGray" data-item-index="2" data-renderer-id="0" transform="translate(80, 170)"></g><g id="g-root-tx_ensuring_qpnh4mqy9szl-stroke" data-item-order="1000000000" data-item-id="tx_ensuring_qpnh4mqy9szl" data-item-class="Label Stroke Indexed ColorFillGray ColorStrokeGray" data-item-index="4" data-renderer-id="0" transform="translate(536, 170)"></g><g id="g-root-cloc_1d2zng6qye0i3-stroke" data-item-order="1000000000" data-item-id="cloc_1d2zng6qye0i3" data-item-class="Icon Stroke Indexed InsideFill InsideColorFill" data-item-index="3" data-renderer-id="0" transform="translate(368, 242)"><g id="cloc_1d2zng6qye0i3-stroke" fill="none" stroke-linecap="butt" stroke-linejoin="miter" stroke-miterlimit="4" stroke="#2C2C2C" stroke-width="1"><g><path d="M 11 19L 51 19M 16.5 14.5C 16.223858 14.5 16 14.723858 16 15C 16 15.276142 16.223858 15.5 16.5 15.5C 16.776142 15.5 17 15.276142 17 15C 17 14.723858 16.776142 14.5 16.5 14.5L 16.5 14.5M 21.5 14.5C 21.223858 14.5 21 14.723858 21 15C 21 15.276142 21.223858 15.5 21.5 15.5C 21.776142 15.5 22 15.276142 22 15C 22 14.723858 21.776142 14.5 21.5 14.5L 21.5 14.5M 26.5 14.5C 26.223858 14.5 26 14.723858 26 15C 26 15.276142 26.223858 15.5 26.5 15.5C 26.776142 15.5 27 15.276142 27 15C 27 14.723858 26.776142 14.5 26.5 14.5L 26.5 14.5M 25 41L 15 41C 12.790861 41 11 39.209137 11 37L 11 15C 11 12.790861 12.790861 11 15 11L 47 11C 49.209141 11 51 12.790861 51 15L 51 25M 31 45C 31.000002 51.627419 36.372581 57 43 57C 49.627419 57 55 51.627419 55 45C 55 38.372581 49.627419 33 43 33C 36.372581 33 31.000002 38.372581 31.000002 45ZM 43 37L 43 45L 49 45M 34 30L 29 35M 57 35L 52 30"></path></g></g></g><g id="g-root-chec_1d1qp9yqy711r-stroke" data-item-order="1000000000" data-item-id="chec_1d1qp9yqy711r" data-item-class="Icon Stroke Indexed InsideFill InsideColorFill" data-item-index="2" data-renderer-id="0" transform="translate(284, 266)"><g id="chec_1d1qp9yqy711r-stroke" fill="none" stroke-linecap="butt" stroke-linejoin="miter" stroke-miterlimit="4" stroke="#2C2C2C" stroke-width="1"><g><path d="M 42.57143 15.142858L 47.714287 15.142858C 49.607834 15.142858 51.142857 16.677881 51.142857 18.571428L 51.142857 52.857143C 51.142857 54.750694 49.607834 56.285713 47.714287 56.285713L 20.285715 56.285713C 18.392166 56.285713 16.857143 54.750694 16.857143 52.857143L 16.857143 18.571428C 16.857143 16.677881 18.392166 15.142858 20.285715 15.142858L 25.428572 15.142858M 28.857143 11.714286L 39.142857 11.714286C 39.142857 11.714286 42.57143 11.714286 42.57143 15.142858L 42.57143 16.857143C 42.57143 16.857143 42.57143 20.285715 39.142857 20.285715L 28.857143 20.285715C 28.857143 20.285715 25.428572 20.285715 25.428572 16.857143L 25.428572 15.142858C 25.428572 15.142858 25.428572 11.714286 28.857143 11.714286M 25.428572 39.142857L 32.285713 44.285713L 40.857143 30.571428"></path></g></g></g><g id="g-root-grap_1cvhyeuqyl2is-stroke" data-item-order="1000000000" data-item-id="grap_1cvhyeuqyl2is" data-item-class="Icon Stroke Indexed InsideFill InsideColorFill" data-item-index="4" data-renderer-id="0" transform="translate(452, 266)"><g id="grap_1cvhyeuqyl2is-stroke" fill="none" stroke-linecap="butt" stroke-linejoin="miter" stroke-miterlimit="4" stroke="#2C2C2C" stroke-width="1"><g><path d="M 57 57L 12 57C 11.447716 57 11 56.552284 11 56L 11 11M 22.007999 43C 22.007999 44.656857 23.351147 46 25.007999 46C 26.664854 46 28.008001 44.656857 28.008001 43C 28.008001 41.343147 26.664854 40 25.007999 40C 23.351147 40 22.007999 41.343147 22.007999 43ZM 43.84 26.629999L 51.992001 16.216M 29.874001 24.924L 39.110001 28.219999M 11.008 33.562L 24.445999 25.552M 42.605999 41.503998L 51.416 36.512001M 28.007999 43L 37.007999 43M 11.008 52L 22.431999 44.532001M 24.007999 24C 24.007999 25.656855 25.351147 27 27.008001 27C 28.664854 27 30.008001 25.656855 30.008001 24C 30.008001 22.343147 28.664854 21 27.008001 21C 25.351147 21 24.007999 22.343147 24.007999 24ZM 39.007999 29C 39.008003 30.656855 40.351147 32 42.007999 32C 43.664856 32 45.007999 30.656855 45.007999 29C 45.007999 27.343145 43.664856 26 42.007999 26C 40.351147 26 39.008003 27.343145 39.008003 29ZM 51.007999 14C 51.007999 15.656855 52.351147 17 54.007999 17C 55.664856 17 57.007999 15.656855 57.007999 14C 57.007999 12.343145 55.664856 11 54.007999 11C 52.351147 11 51.007999 12.343145 51.007999 14ZM 51.007999 35C 51.007999 36.656853 52.351147 38 54.007999 38C 55.664856 38 57.007999 36.656853 57.007999 35C 57.007999 33.343147 55.664856 32 54.007999 32C 52.351147 32 51.007999 33.343147 51.007999 35ZM 37.007999 43C 37.008003 44.656857 38.351147 46 40.008003 46C 41.664856 46 43.007999 44.656857 43.007999 43C 43.007999 41.343147 41.664856 40 40.008003 40C 38.351147 40 37.008003 41.343147 37.008003 43Z"></path></g></g></g><g id="g-root-tx_tools_1qapegmqy9sll-stroke" data-item-order="1000000000" data-item-id="tx_tools_1qapegmqy9sll" data-item-class="Label Stroke Indexed Indexed_1" data-item-index="1" data-renderer-id="0" transform="translate(62, 290)"></g><g id="g-root-tx_insightf_zmjfjqqy9tl9-stroke" data-item-order="1000000000" data-item-id="tx_insightf_zmjfjqqy9tl9" data-item-class="Label Stroke Indexed" data-item-index="5" data-renderer-id="0" transform="translate(626, 290)"></g><g id="g-root-tx_essentia_1cxzxx2qy9s0c-stroke" data-item-order="1000000000" data-item-id="tx_essentia_1cxzxx2qy9s0c" data-item-class="Label Stroke Indexed Indexed_1 ColorFillGray ColorStrokeGray" data-item-index="1" data-renderer-id="0" transform="translate(2, 326)"></g><g id="g-root-tx_providin_140hieuqy9ukg-stroke" data-item-order="1000000000" data-item-id="tx_providin_140hieuqy9ukg" data-item-class="Label Stroke Indexed ColorFillGray ColorStrokeGray" data-item-index="5" data-renderer-id="0" transform="translate(620, 325.607421875)"></g><g id="g-root-2_1q7m99yqok35y-stroke" data-item-order="1000000000" data-item-id="2_1q7m99yqok35y" data-item-class="Icon Stroke Indexed Indexed_1 InsideFill InsideColorFill" data-item-index="1" data-renderer-id="0" transform="translate(236, 338)"><g id="2_1q7m99yqok35y-stroke" fill="none" stroke-linecap="butt" stroke-linejoin="miter" stroke-miterlimit="4" stroke="#2C2C2C" stroke-width="1"><g><path d="M 29.059999 25.307999C 28.356613 26.903687 27.183916 28.247301 25.697998 29.159998L 27.677999 39.48L 21.49 39.48L 19.734001 30.302C 16.215942 29.690422 13.443654 26.96526 12.771853 23.458204C 12.100054 19.951149 13.668999 16.394394 16.712 14.526L 17.938 20.92L 21.49 23.33L 23.9 19.779999L 22.674 13.384C 25.276871 13.835477 27.526892 15.460291 28.774094 17.78908C 30.021297 20.11787 30.126753 22.891222 29.059999 25.307999ZM 43.051998 14.592C 42.453999 17.282 39.290001 19.076 34.954002 18.112L 34.108002 21.914L 54.388 26.422001L 56.360001 17.549999L 43.051998 14.592ZM 39.015999 39.48L 42.504002 23.788L 48.278 25.071999L 44.911999 39.482002L 39.015999 39.482002ZM 56.5 52.66L 56.5 39.48L 11.5 39.48L 11.5 52.66C 11.5 53.740002 12.375999 54.618 13.456 54.618L 54.543999 54.618C 55.624001 54.618 56.5 53.740002 56.5 52.66ZM 36.933998 42.416C 36.933998 44.036404 35.620403 45.350002 34 45.350002C 32.379597 45.350002 31.066 44.036404 31.066 42.416L 31.066 39.482002L 36.933998 39.482002L 36.933998 42.416Z"></path></g></g></g><g id="g-root-cash_1upxkl2qomtxn-stroke" data-item-order="1000000000" data-item-id="cash_1upxkl2qomtxn" data-item-class="Icon Stroke Title" data-item-index="none" data-renderer-id="0" transform="translate(356, 350)"><g id="cash_1upxkl2qomtxn-stroke" fill="none" stroke-linecap="butt" stroke-linejoin="miter" stroke-miterlimit="4" stroke="#00396D" stroke-width="1"><g><path d="M 41.470001 80.542L 14.47 80.542C 12.813146 80.542 11.47 79.198853 11.47 77.542L 11.47 14.542C 11.47 12.885145 12.813146 11.542 14.47 11.542L 54.348999 11.542C 55.144585 11.54217 55.907524 11.858352 56.470001 12.421L 67.600006 23.542C 68.162643 24.104479 68.478828 24.867416 68.479004 25.663L 68.479004 35.542M 20.469999 56.542L 38.470001 56.542M 24.969999 41.542L 27.969999 41.542C 28.798428 41.542 29.469999 42.213573 29.469999 43.042L 29.469999 56.542L 29.469999 56.542L 23.469999 56.542L 23.469999 56.542L 23.469999 43.042C 23.469999 42.213573 24.141573 41.542 24.969999 41.542ZM 41.470001 47.542L 41.470001 34.042C 41.470001 33.213573 40.798428 32.542 39.970001 32.542L 36.970001 32.542C 36.141571 32.542 35.470001 33.213573 35.470001 34.042L 35.470001 56.542M 66.970001 53.542L 60.871002 53.542C 58.940208 53.539761 57.279678 54.908562 56.913425 56.804298C 56.547173 58.700035 57.578323 60.588867 59.370995 61.306L 65.559998 63.780998C 67.348518 64.500626 68.37587 66.387146 68.010033 68.279984C 67.644196 70.172821 65.987869 71.540657 64.059998 71.542L 57.970001 71.542M 62.470001 74.542L 62.470001 71.542M 62.470001 53.542L 62.470001 50.542M 44.470001 62.542C 44.470001 72.483124 52.528877 80.542 62.470001 80.542C 72.411125 80.542 80.470001 72.483124 80.470001 62.542C 80.470001 52.600876 72.411125 44.542004 62.470001 44.542004C 52.528877 44.542004 44.470001 52.600876 44.470001 62.542Z"></path></g></g></g><g id="g-root-on_18gb0jaqy9ts7-stroke" data-item-order="1000000000" data-item-id="on_18gb0jaqy9ts7" data-item-class="Icon Stroke Indexed InsideFill InsideColorFill" data-item-index="5" data-renderer-id="0" transform="translate(500, 338)"><g id="on_18gb0jaqy9ts7-stroke" fill="none" stroke-linecap="butt" stroke-linejoin="miter" stroke-miterlimit="4" stroke="#2C2C2C" stroke-width="1"><g><path d="M 46 37.428574C 46.022171 31.506199 41.720341 26.453302 35.870296 25.530289C 30.020248 24.607275 24.371649 28.090206 22.569283 33.731705C 20.766918 39.373199 23.34985 45.48597 28.651428 48.125717L 28.651428 54.022858C 28.670025 54.747917 29.263273 55.325954 29.988571 55.325714L 38.011429 55.325714C 38.736725 55.325954 39.329975 54.747917 39.348572 54.022858L 39.348572 48.022858C 43.376583 46.017712 45.944405 41.927727 46 37.428574ZM 34 12.777143L 34 17.92M 47.714287 17.68L 44.079998 21.348572M 55.531429 28.308573L 50.388573 28.308573M 20.285715 17.68L 23.92 21.348572M 12.468572 28.308573L 17.611429 28.308573"></path></g></g></g></g></g></svg>