<svg width="133" height="133" viewBox="0 0 133 133" fill="none" xmlns="http://www.w3.org/2000/svg">
<path d="M20.7578 76.5022V29.5851C20.7578 27.7391 22.2527 26.2441 24.0988 26.2441H110.517C112.363 26.2441 113.858 27.7391 113.858 29.5851V76.5022C113.858 78.3482 112.363 79.8431 110.517 79.8431H24.0988C22.2527 79.8431 20.7578 78.3482 20.7578 76.5022Z" fill="#00396D"/>
<path d="M60.0376 79.8379L60.0987 92.9783L55.1937 93.0075L55.1777 94.7339L79.4476 94.7685L79.4369 93.0581L74.609 92.9676L74.6011 79.8778L60.0376 79.8379Z" fill="#00396D"/>
<path d="M60.0488 79.8131V81.6405L74.5911 83.9175L74.623 79.7998L60.0488 79.8131Z" fill="#000001"/>
<path d="M22.0938 68.993V29.5851C22.0938 28.5796 22.9077 27.7656 23.9132 27.7656H110.712C111.717 27.7656 112.531 28.5796 112.531 29.5851V68.9956H22.0938V68.993Z" fill="white"/>
<path d="M72.8638 41.172C74.0259 41.172 74.9679 40.23 74.9679 39.0679C74.9679 37.9059 74.0259 36.9639 72.8638 36.9639C71.7018 36.9639 70.7598 37.9059 70.7598 39.0679C70.7598 40.23 71.7018 41.172 72.8638 41.172Z" fill="#FFDC32"/>
<path d="M73.0396 50.8536C74.2016 50.8536 75.1437 49.9116 75.1437 48.7496C75.1437 47.5875 74.2016 46.6455 73.0396 46.6455C71.8776 46.6455 70.9355 47.5875 70.9355 48.7496C70.9355 49.9116 71.8776 50.8536 73.0396 50.8536Z" fill="#006400"/>
<path d="M31.3716 54.5566H26.8496V65.3988H31.3716V54.5566Z" fill="#FFDC32"/>
<path d="M39.4849 50.3701H34.9629V65.3991H39.4849V50.3701Z" fill="#FFDC32"/>
<path d="M47.6021 44.917H43.0801V65.399H47.6021V44.917Z" fill="#FFDC32"/>
<path d="M55.981 47.71H51.459V65.399H55.981V47.71Z" fill="#FFDC32"/>
<path d="M64.4927 41.3262H59.9707V65.3992H64.4927V41.3262Z" fill="#FFDC32"/>
<path d="M94.5996 35.7744C94.5996 35.7744 94.5996 39.9532 94.7246 40.0091C95.3976 39.9586 96.0786 40.0064 96.8606 40.1235C99.5711 40.6608 101.928 42.6159 103.077 45.1269C104.226 47.638 104.189 50.6358 103.096 53.1734C103.096 53.1734 106.753 54.6285 106.905 54.6178C107.415 53.4235 107.666 52.1387 107.913 50.8646C108.043 50.1942 108.174 49.5213 108.192 48.8403C108.216 48.0237 108.08 47.2097 107.886 46.4144C107.165 43.4698 105.601 40.7034 103.298 38.7323C100.994 36.7586 97.9406 35.6281 94.5996 35.7744Z" fill="#FFDC32"/>
<path d="M105.917 41.9004C104.893 42.7915 103.55 43.2437 102.561 44.2598C103.444 45.5233 103.899 47.0661 103.944 48.6062C103.989 50.1464 103.635 51.6865 103.021 53.1017C103.021 53.1017 106.862 54.6737 106.942 54.5114C107.234 53.8704 107.396 53.1814 107.559 52.4978C107.724 51.7982 107.889 51.0987 107.982 50.3858C108.349 47.4944 107.463 44.5551 105.917 41.9004Z" fill="#006400"/>
<path d="M110.517 79.9754H24.099C22.1838 79.9754 20.625 78.4166 20.625 76.5014V29.5843C20.625 27.6691 22.1838 26.1104 24.099 26.1104H110.517C112.432 26.1104 113.991 27.6691 113.991 29.5843V76.5014C113.991 78.4166 112.432 79.9754 110.517 79.9754ZM24.099 26.3764C22.3301 26.3764 20.891 27.8154 20.891 29.5843V76.5014C20.891 78.2703 22.3301 79.7094 24.099 79.7094H110.517C112.286 79.7094 113.725 78.2703 113.725 76.5014V29.5843C113.725 27.8154 112.286 26.3764 110.517 26.3764H24.099Z" fill="#000001"/>
<path d="M112.534 69.1278H22.0939C22.0195 69.1278 21.9609 69.0693 21.9609 68.9948V29.5843C21.9609 28.507 22.8361 27.6318 23.9134 27.6318H110.712C111.789 27.6318 112.664 28.507 112.664 29.5843V68.9948C112.667 69.0667 112.608 69.1278 112.534 69.1278ZM22.2269 68.8618H112.401V29.5843C112.401 28.6533 111.643 27.8978 110.715 27.8978H23.9134C22.9824 27.8978 22.2269 28.6559 22.2269 29.5843V68.8618Z" fill="#000001"/>
<path d="M74.5891 93.143H60.0256C59.9511 93.143 59.8926 93.0844 59.8926 93.01V79.843C59.8926 79.7685 59.9511 79.71 60.0256 79.71H74.5891C74.6636 79.71 74.7221 79.7685 74.7221 79.843V93.01C74.7221 93.0818 74.6636 93.143 74.5891 93.143ZM60.1586 92.877H74.4561V79.976H60.1586V92.877Z" fill="#000001"/>
<path d="M79.4426 94.872H55.1701C55.0956 94.872 55.0371 94.8134 55.0371 94.739V93.01C55.0371 92.9355 55.0956 92.877 55.1701 92.877H79.4426C79.5171 92.877 79.5756 92.9355 79.5756 93.01V94.739C79.5756 94.8108 79.5171 94.872 79.4426 94.872ZM55.3031 94.606H79.3096V93.143H55.3031V94.606Z" fill="#000001"/>
<path d="M67.3074 76.9888C66.0066 76.9888 64.9453 75.9301 64.9453 74.6267C64.9453 73.3233 66.004 72.2646 67.3074 72.2646C68.6081 72.2646 69.6695 73.3233 69.6695 74.6267C69.6695 75.9301 68.6081 76.9888 67.3074 76.9888ZM67.3074 72.5333C66.1529 72.5333 65.2113 73.4723 65.2113 74.6294C65.2113 75.7865 66.1503 76.7255 67.3074 76.7255C68.4645 76.7255 69.4035 75.7865 69.4035 74.6294C69.4035 73.4723 68.4618 72.5333 67.3074 72.5333Z" fill="#000001"/>
<path d="M94.8196 62.4381C87.4488 62.4381 81.4531 56.4424 81.4531 49.0716C81.4531 41.7007 87.4488 35.7051 94.8196 35.7051C102.19 35.7051 108.186 41.7007 108.186 49.0716C108.186 56.4424 102.19 62.4381 94.8196 62.4381ZM94.8196 35.9711C87.5951 35.9711 81.7191 41.847 81.7191 49.0716C81.7191 56.2961 87.5951 62.1721 94.8196 62.1721C102.044 62.1721 107.92 56.2961 107.92 49.0716C107.92 41.847 102.044 35.9711 94.8196 35.9711Z" fill="#000001"/>
<path d="M94.8207 58.363C89.6975 58.363 85.5293 54.1948 85.5293 49.0717C85.5293 43.9485 89.6975 39.7803 94.8207 39.7803C99.9438 39.7803 104.112 43.9485 104.112 49.0717C104.109 54.1948 99.9438 58.363 94.8207 58.363ZM94.8207 40.0463C89.8438 40.0463 85.7953 44.0948 85.7953 49.0717C85.7953 54.0485 89.8438 58.097 94.8207 58.097C99.7975 58.097 103.846 54.0485 103.846 49.0717C103.846 44.0948 99.7975 40.0463 94.8207 40.0463Z" fill="#000001"/>
<path d="M72.864 41.3042C71.6324 41.3042 70.627 40.3014 70.627 39.0671C70.627 37.8329 71.6298 36.8301 72.864 36.8301C74.0983 36.8301 75.1011 37.8329 75.1011 39.0671C75.1011 40.3014 74.0956 41.3042 72.864 41.3042ZM72.864 37.0961C71.7787 37.0961 70.893 37.9792 70.893 39.0671C70.893 40.1551 71.7761 41.0382 72.864 41.0382C73.9493 41.0382 74.8351 40.1551 74.8351 39.0671C74.8351 37.9792 73.9493 37.0961 72.864 37.0961Z" fill="#000001"/>
<path d="M73.0398 62.186C71.8082 62.186 70.8027 61.1832 70.8027 59.949C70.8027 58.7147 71.8056 57.7119 73.0398 57.7119C74.274 57.7119 75.2769 58.7147 75.2769 59.949C75.2769 61.1832 74.2714 62.186 73.0398 62.186ZM73.0398 57.9779C71.9545 57.9779 71.0687 58.861 71.0687 59.949C71.0687 61.0369 71.9519 61.92 73.0398 61.92C74.1251 61.92 75.0109 61.0369 75.0109 59.949C75.0109 58.861 74.1251 57.9779 73.0398 57.9779Z" fill="#000001"/>
<path d="M73.0398 50.9849C71.8082 50.9849 70.8027 49.982 70.8027 48.7478C70.8027 47.5136 71.8056 46.5107 73.0398 46.5107C74.274 46.5107 75.2769 47.5136 75.2769 48.7478C75.2769 49.982 74.2714 50.9849 73.0398 50.9849ZM73.0398 46.7794C71.9545 46.7794 71.0687 47.6625 71.0687 48.7505C71.0687 49.8384 71.9519 50.7215 73.0398 50.7215C74.1251 50.7215 75.0109 49.8384 75.0109 48.7505C75.0109 47.6625 74.1251 46.7794 73.0398 46.7794Z" fill="#000001"/>
<path d="M67.7525 65.6146H25.0568C24.9823 65.6146 24.9238 65.5561 24.9238 65.4816C24.9238 65.4072 24.9823 65.3486 25.0568 65.3486H67.7525C67.827 65.3486 67.8855 65.4072 67.8855 65.4816C67.8855 65.5561 67.8243 65.6146 67.7525 65.6146Z" fill="#000001"/>
<path d="M59.8221 89.9164H47.4611C47.3866 89.9164 47.3281 89.8579 47.3281 89.7834C47.3281 89.7089 47.3866 89.6504 47.4611 89.6504H59.8221C59.8966 89.6504 59.9551 89.7089 59.9551 89.7834C59.9551 89.8579 59.8966 89.9164 59.8221 89.9164Z" fill="#000001"/>
<path d="M16.7705 89.9613H12.2033C12.1288 89.9613 12.0703 89.9028 12.0703 89.8283C12.0703 89.7538 12.1288 89.6953 12.2033 89.6953H16.7705C16.845 89.6953 16.9035 89.7538 16.9035 89.8283C16.9035 89.9028 16.845 89.9613 16.7705 89.9613Z" fill="#000001"/>
<path d="M94.5393 39.9188C94.4648 39.9188 94.4062 39.8603 94.4062 39.7858V35.8703C94.4062 35.7958 94.4648 35.7373 94.5393 35.7373C94.6137 35.7373 94.6723 35.7958 94.6723 35.8703V39.7858C94.6723 39.8603 94.6111 39.9188 94.5393 39.9188Z" fill="#000001"/>
<path d="M102.705 44.1485C102.66 44.1485 102.617 44.1272 102.593 44.0873C102.553 44.0261 102.572 43.9437 102.633 43.9038L105.769 41.9088C105.831 41.8689 105.913 41.8875 105.953 41.9487C105.993 42.0099 105.974 42.0923 105.913 42.1322L102.777 44.1272C102.753 44.1432 102.729 44.1485 102.705 44.1485Z" fill="#000001"/>
<path d="M106.859 54.7243C106.843 54.7243 106.827 54.7217 106.808 54.7137L103.193 53.2587C103.124 53.2321 103.092 53.1549 103.119 53.0858C103.145 53.0166 103.222 52.9847 103.292 53.0113L106.907 54.4663C106.976 54.4929 107.008 54.5701 106.981 54.6392C106.962 54.6951 106.912 54.7243 106.859 54.7243Z" fill="#000001"/>
<path d="M122.062 90.0062H74.8146C74.7402 90.0062 74.6816 89.9477 74.6816 89.8732C74.6816 89.7988 74.7402 89.7402 74.8146 89.7402H122.062C122.136 89.7402 122.195 89.7988 122.195 89.8732C122.195 89.9477 122.136 90.0062 122.062 90.0062Z" fill="#000001"/>
<path d="M99.8671 39.0014H77.2678C77.1933 39.0014 77.1348 38.9428 77.1348 38.8684C77.1348 38.7939 77.1933 38.7354 77.2678 38.7354H99.8671C99.9416 38.7354 100 38.7939 100 38.8684C100 38.9428 99.9389 39.0014 99.8671 39.0014Z" fill="#00396D"/>
<path d="M105.096 48.9203H76.7853C76.7109 48.9203 76.6523 48.8618 76.6523 48.7873C76.6523 48.7128 76.7109 48.6543 76.7853 48.6543H105.096C105.17 48.6543 105.229 48.7128 105.229 48.7873C105.229 48.8618 105.168 48.9203 105.096 48.9203Z" fill="#00396D"/>
<path d="M93.1917 60.0394H76.9631C76.8886 60.0394 76.8301 59.9809 76.8301 59.9064C76.8301 59.832 76.8886 59.7734 76.9631 59.7734H93.1917C93.2662 59.7734 93.3247 59.832 93.3247 59.9064C93.3247 59.9809 93.2662 60.0394 93.1917 60.0394Z" fill="#00396D"/>
<path d="M29.4793 39.5998C29.2585 39.5998 29.0537 39.4615 28.9766 39.2407C28.8808 38.9641 29.0271 38.6608 29.3064 38.5651L69.7491 24.5628C69.9273 24.5016 70.1268 24.5389 70.2704 24.6639C70.4141 24.7889 70.4806 24.9804 70.4433 25.1666L68.7595 33.8622L99.6634 20.0435C99.9294 19.9238 100.246 20.0435 100.366 20.3121C100.485 20.5808 100.366 20.8947 100.097 21.0144L68.2595 35.2507C68.0786 35.3332 67.8684 35.3066 67.7115 35.1815C67.5572 35.0592 67.4827 34.8597 67.52 34.6628L69.2224 25.8689L29.6496 39.5705C29.5964 39.5892 29.5378 39.5998 29.4793 39.5998Z" fill="#006400"/>
<path d="M100.327 24.3232C100.186 24.3232 100.043 24.2673 99.9388 24.1556C99.7393 23.9402 99.75 23.605 99.9628 23.4028L105.751 17.9818L97.7895 18.825C97.5023 18.8569 97.2363 18.6441 97.2043 18.3515C97.1724 18.0589 97.3852 17.7982 97.6778 17.7663L107.217 16.7555C107.443 16.7289 107.661 16.8539 107.757 17.0641C107.852 17.2715 107.804 17.5163 107.637 17.6732L100.692 24.1796C100.591 24.2753 100.458 24.3232 100.327 24.3232Z" fill="#006400"/>
<path d="M93.7934 96.7446C90.0588 97.0851 86.4306 98.5055 83.4567 100.788C82.6135 101.434 81.741 102.408 82.0469 103.424C82.1426 103.738 82.3421 104.009 82.5603 104.256C83.8796 105.743 85.8507 106.451 87.7632 106.98C89.9178 107.576 92.1123 108.018 94.2749 108.582C95.7485 108.967 97.294 109.462 98.2809 110.624C98.9379 111.399 99.2784 112.399 99.9008 113.202C101.188 114.865 103.431 115.41 105.508 115.726C110.41 116.474 115.491 116.532 120.255 115.149C120.872 114.971 121.513 114.747 121.936 114.266C122.295 113.859 122.455 113.314 122.559 112.779C123.085 110.119 122.521 107.26 121.021 105.001C120.295 103.908 119.361 102.95 118.752 101.788C118.186 100.708 117.917 99.4817 117.281 98.439C116.441 97.0638 115.028 96.1275 113.549 95.4864C110.996 94.3799 108.179 94.042 105.399 93.9011C102.888 93.776 100.369 93.8053 97.8553 93.8319C96.5093 93.8479 95.1288 93.8691 93.8786 94.3719C93.7163 94.4357 93.5461 94.5235 93.4796 94.6858C93.3625 94.9837 93.6711 95.255 93.8626 95.513C94.0515 95.7737 93.9424 96.3084 93.7934 96.7446Z" fill="#FFDC32"/>
<path d="M98.0312 99.8861C99.5395 97.5932 102.077 96.0105 104.798 95.662C107.519 95.3136 110.376 96.2073 112.411 98.0481C114.446 99.8861 115.627 102.637 115.497 105.443C114.183 106.635 112.393 107.222 110.621 107.3C108.849 107.377 107.083 106.983 105.405 106.406C103.846 105.871 102.33 105.172 101.016 104.177C99.7044 103.179 98.6005 101.873 98.0312 99.8861Z" fill="white"/>
<path d="M99.9548 103.185C100.777 101.184 102.123 99.4049 103.825 98.0723C105.166 97.0216 106.743 96.2422 108.427 95.9709C108.427 95.9709 107.908 95.7634 107.842 95.782C105.996 95.4309 104.049 95.6277 102.309 96.3433C100.572 97.0588 99.0477 98.2904 98.0449 99.9183C98.3402 101.105 98.9892 102.203 99.9548 103.185Z" fill="#00396D"/>
<path d="M110.172 107.441C108.722 107.441 107.142 107.14 105.362 106.531C103.57 105.917 102.123 105.18 100.939 104.281C99.3827 103.1 98.4171 101.716 97.9038 99.9209C97.8931 99.8837 97.8984 99.8438 97.9197 99.8119C99.4519 97.4844 102.016 95.8804 104.783 95.5266C107.549 95.1728 110.432 96.0772 112.502 97.9446C114.593 99.8332 115.763 102.637 115.63 105.446C115.627 105.48 115.614 105.515 115.587 105.539C114.34 106.672 112.576 107.345 110.629 107.43C110.478 107.438 110.326 107.441 110.172 107.441ZM98.1751 99.9076C98.6752 101.615 99.6062 102.937 101.098 104.068C102.261 104.948 103.684 105.672 105.45 106.278C107.387 106.943 109.078 107.233 110.616 107.164C112.481 107.082 114.167 106.449 115.367 105.379C115.476 102.669 114.34 99.9662 112.324 98.1441C110.313 96.3273 107.504 95.4495 104.817 95.7926C102.146 96.1331 99.67 97.6706 98.1751 99.9076Z" fill="#000001"/>
<path d="M100.045 103.179C100.029 103.179 100.01 103.176 99.9944 103.168C99.9279 103.139 99.8933 103.062 99.9226 102.996C100.822 100.844 102.282 98.971 104.152 97.5798C105.642 96.4706 107.091 95.9279 108.485 95.9572C108.56 95.9598 108.618 96.021 108.615 96.0928C108.613 96.1647 108.552 96.2232 108.48 96.2232C107.147 96.1833 105.753 96.7206 104.312 97.7926C102.479 99.1572 101.048 100.99 100.167 103.097C100.146 103.15 100.095 103.179 100.045 103.179Z" fill="#000001"/>
<path d="M104.285 97.6859C104.272 97.6859 104.261 97.6832 104.248 97.6805C103.474 97.4518 102.673 97.2975 101.867 97.2204C101.561 97.1911 101.21 97.1725 100.923 97.3055C100.856 97.3347 100.777 97.3055 100.747 97.239C100.715 97.1725 100.745 97.0927 100.814 97.0634C101.162 96.9038 101.556 96.9251 101.894 96.957C102.716 97.0342 103.535 97.1911 104.325 97.4252C104.394 97.4465 104.437 97.5209 104.415 97.5901C104.397 97.6486 104.344 97.6859 104.285 97.6859Z" fill="#000001"/>
<path d="M46.954 81.167H27.0545C27.0545 81.167 10.6157 95.2623 10.5519 95.6001C11.0014 95.9247 11.4829 96.2944 11.6052 96.8344C11.6505 97.0259 11.6425 97.2281 11.6505 97.4249C11.6664 97.9277 11.7648 98.4251 11.8313 98.9251C12.0122 100.242 11.9883 101.575 11.967 102.905C11.9564 103.562 11.7914 104.41 11.1424 104.514C10.8737 104.559 10.5093 104.49 10.4029 104.74C10.2646 105.059 10.7594 105.248 10.9775 105.517C11.1344 105.708 11.1477 105.977 11.153 106.224C11.1743 107.094 11.1983 107.964 11.2195 108.834C11.2435 109.813 11.2328 110.898 10.5758 111.624C10.895 111.698 10.8817 112.159 10.7727 112.47C10.6636 112.778 10.8684 113.361 10.8684 113.361H42.3043C42.3043 113.361 47.063 99.1167 47.0843 99.2231C46.8822 98.0207 46.7784 96.8025 46.7758 95.5842C46.7731 95.2038 46.7837 94.8181 46.8822 94.451C47.1322 93.5227 47.9063 92.8471 48.6404 92.2299C47.9541 92.1448 47.2838 91.916 46.688 91.5623C46.9354 91.3601 47.1801 91.1579 47.4275 90.9531C47.1428 90.6499 47.1322 90.1871 47.1375 89.7694C47.1561 88.3357 47.1748 86.8993 47.196 85.4655C47.1987 85.2581 47.2067 85.0346 47.3344 84.8724C47.5844 84.5532 48.1749 84.6143 48.3478 84.2446C47.5418 83.5397 47.0205 82.5236 46.954 81.167Z" fill="white"/>
<path d="M46.8081 81.0957C46.8081 81.0957 42.4723 95.0873 42.4803 95.0235C42.5362 95.5688 42.9139 96.0662 43.4219 96.2683C42.7224 96.2976 42.3313 97.0637 42.084 97.718C41.7834 98.5134 41.5094 99.4976 42.0653 100.144C42.1664 100.261 42.2914 100.362 42.3473 100.506C42.4165 100.681 42.3659 100.878 42.3154 101.059C42.0893 101.873 41.8499 102.706 41.919 103.546C41.9882 104.387 42.4351 105.254 43.2171 105.57C42.9644 105.757 42.7117 105.94 42.4564 106.126C42.6399 106.557 42.5122 107.071 42.2462 107.456C41.9802 107.842 41.5945 108.127 41.2168 108.406C41.4881 108.321 41.786 108.488 41.9456 108.725C42.1026 108.962 42.1531 109.252 42.1957 109.534C42.3526 110.507 42.5069 111.484 42.6638 112.457L46.989 99.2369C46.989 99.2369 46.7443 95.5767 46.7842 95.5448C46.8347 94.1962 47.6327 92.8981 48.8138 92.2438C48.037 92.2118 47.2683 91.9964 46.5873 91.624C46.8613 91.6665 47.114 91.4271 47.1912 91.1611C47.2683 90.8951 47.2178 90.6105 47.1779 90.3365C46.9571 88.7964 47.0874 87.2323 47.2204 85.6842C47.255 85.2666 47.3534 84.7612 47.7471 84.6175C47.9892 84.5298 48.3642 84.5271 48.3695 84.2691C47.5795 83.6041 47.0608 82.6199 46.8081 81.0957Z" fill="#000001"/>
<path d="M42.3048 113.497H10.8689C10.8131 113.497 10.7625 113.462 10.7439 113.409C10.7226 113.345 10.5258 112.773 10.6482 112.43C10.7253 112.212 10.7306 111.973 10.6641 111.85C10.6375 111.8 10.6003 111.77 10.5471 111.76C10.5019 111.749 10.4646 111.715 10.4513 111.669C10.438 111.624 10.4487 111.576 10.4806 111.542C11.0897 110.869 11.1163 109.839 11.0897 108.844L11.0232 106.235C11.0179 105.982 11.0019 105.759 10.8769 105.607C10.8157 105.533 10.7226 105.458 10.6322 105.386C10.4167 105.216 10.1507 105.003 10.2837 104.692C10.3955 104.432 10.6854 104.416 10.9168 104.405C10.9886 104.402 11.0605 104.397 11.1243 104.386C11.7467 104.285 11.8292 103.317 11.8372 102.905C11.8585 101.601 11.8824 100.255 11.7042 98.9466C11.6856 98.8163 11.6669 98.6833 11.6457 98.5529C11.5898 98.1885 11.5339 97.8108 11.5206 97.4331L11.518 97.3134C11.5153 97.1564 11.5127 97.0101 11.4781 96.8665C11.369 96.3877 10.9408 96.0446 10.4753 95.7094C10.4327 95.6801 10.4141 95.6269 10.4221 95.5764C10.4859 95.2412 20.8173 86.3409 26.9699 81.0661C26.9939 81.0448 27.0258 81.0342 27.0577 81.0342H46.9572C47.029 81.0342 47.0875 81.09 47.0902 81.1619C47.1513 82.4094 47.6035 83.4149 48.4335 84.1544C48.4787 84.1943 48.4893 84.2554 48.4654 84.3086C48.3483 84.556 48.0956 84.6465 47.8695 84.7236C47.694 84.7848 47.5291 84.8433 47.436 84.9603C47.3375 85.0854 47.3296 85.2662 47.3242 85.4737L47.2657 89.7776C47.2604 90.1872 47.2764 90.6075 47.5211 90.8682C47.545 90.8948 47.5583 90.932 47.5557 90.9666C47.553 91.0012 47.537 91.0384 47.5078 91.0597L46.9173 91.5438C47.4546 91.8338 48.0478 92.0253 48.6516 92.0971C48.7048 92.1024 48.7473 92.1397 48.7633 92.1902C48.7793 92.2408 48.7606 92.2966 48.7207 92.3285C47.9174 93.0042 47.2338 93.6319 47.005 94.4831C46.9093 94.8396 46.9013 95.2226 46.904 95.5817C46.9093 96.7894 47.013 98.0076 47.2125 99.1993C47.2178 99.2339 47.2099 99.2685 47.1912 99.2951C47.005 99.7287 44.0046 108.682 42.4272 113.401C42.4139 113.46 42.3633 113.497 42.3048 113.497ZM10.9674 113.231H42.2091C42.4006 112.656 43.4726 109.454 44.5472 106.251C46.2762 101.104 46.763 99.6542 46.9518 99.2472C46.7497 98.0422 46.6459 96.8106 46.6406 95.587C46.638 95.2093 46.6459 94.8077 46.7523 94.4193C46.9917 93.5255 47.6966 92.8605 48.3297 92.3206C47.7286 92.2115 47.1434 91.9934 46.6193 91.6822C46.5821 91.6609 46.5582 91.621 46.5555 91.5784C46.5528 91.5359 46.5715 91.4933 46.6034 91.4667L47.2391 90.9427C47.0104 90.6182 46.9971 90.1899 47.0024 89.7776L47.0609 85.4737C47.0636 85.2769 47.0662 85.0056 47.2285 84.8007C47.3695 84.6225 47.5876 84.5454 47.7818 84.4762C47.9414 84.4204 48.085 84.3698 48.1701 84.2767C47.3668 83.5213 46.9146 82.5211 46.8295 81.3028H27.1056C22.7591 85.0295 11.776 94.4938 10.7439 95.5791C11.2068 95.9195 11.6164 96.2813 11.7361 96.8106C11.776 96.9782 11.7787 97.1485 11.7813 97.3107L11.784 97.4251C11.7946 97.7869 11.8531 98.1566 11.9063 98.513C11.9276 98.646 11.9462 98.779 11.9649 98.912C12.1457 100.239 12.1245 101.599 12.1005 102.91C12.0899 103.503 11.9569 104.519 11.1642 104.65C11.0897 104.663 11.0073 104.666 10.9275 104.671C10.7067 104.682 10.5684 104.695 10.5258 104.799C10.4779 104.91 10.5763 105.003 10.7945 105.179C10.8955 105.259 11.0019 105.344 11.0791 105.44C11.2706 105.676 11.2786 105.996 11.2839 106.23L11.3504 108.839C11.3743 109.829 11.3504 110.85 10.7812 111.59C10.8264 111.627 10.8636 111.672 10.8929 111.725C11.0206 111.957 10.9727 112.3 10.8929 112.521C10.8344 112.699 10.9088 113.039 10.9674 113.231Z" fill="#000001"/>
<path d="M10.9064 95.6486C10.8346 95.6486 10.7734 95.59 10.7734 95.5182C10.7734 95.4437 10.832 95.3852 10.9038 95.3826L42.2785 94.9516L46.4307 81.7048C46.452 81.6357 46.5265 81.5958 46.5983 81.6171C46.6675 81.6383 46.7074 81.7128 46.6861 81.7846L42.5046 95.1219C42.4886 95.1777 42.4381 95.215 42.3796 95.215L10.9064 95.6486Z" fill="#000001"/>
<path d="M27.8868 97.7869C27.2085 97.7869 26.5302 97.779 25.8519 97.7603C24.7187 97.7284 23.5669 97.6673 22.4524 97.6061C19.4519 97.4465 16.3504 97.2789 13.3339 97.6806C13.2594 97.6912 13.1929 97.638 13.185 97.5662C13.1743 97.4944 13.2275 97.4279 13.2993 97.4172C16.3397 97.0156 19.4546 97.1805 22.4684 97.3427C23.5802 97.4013 24.732 97.4651 25.8599 97.4943C29.9589 97.6087 34.1192 97.3427 38.1411 97.0847C38.2156 97.0767 38.2767 97.1353 38.2821 97.2097C38.2874 97.2842 38.2315 97.3454 38.157 97.3507C34.7921 97.5635 31.3315 97.7869 27.8868 97.7869Z" fill="#000001"/>
<path d="M29.8007 100.641C28.5824 100.641 27.3588 100.54 26.1698 100.441C25.3213 100.372 24.4461 100.298 23.5843 100.263C21.6372 100.183 19.7672 100.303 17.7828 100.425L16.9343 100.479C16.8625 100.489 16.7986 100.428 16.7933 100.354C16.788 100.279 16.8439 100.218 16.9183 100.213L17.7669 100.159C19.6688 100.04 21.6345 99.9174 23.5949 99.9972C24.4621 100.032 25.3399 100.106 26.1911 100.175C27.5956 100.292 29.0479 100.412 30.4764 100.364C31.0403 100.346 31.6148 100.3 32.1681 100.255C32.6842 100.215 33.2188 100.173 33.7482 100.151C34.9877 100.101 36.3151 100.056 37.6238 100.069C37.6983 100.069 37.7568 100.13 37.7541 100.205C37.7541 100.276 37.6929 100.324 37.6185 100.335C36.3177 100.322 34.993 100.367 33.7561 100.417C33.2321 100.439 32.7028 100.481 32.1867 100.521C31.6281 100.566 31.0536 100.612 30.4817 100.63C30.2556 100.638 30.0295 100.641 29.8007 100.641Z" fill="#000001"/>
<path d="M13.0077 104.152C12.9518 104.152 12.8986 104.118 12.88 104.062C12.8561 103.993 12.896 103.918 12.9651 103.894C15.3086 103.128 17.8329 103.37 20.2722 103.604C20.5275 103.628 20.7829 103.652 21.0382 103.676C23.1503 103.87 25.39 103.974 27.4754 103.437C27.5473 103.418 27.6191 103.461 27.6377 103.533C27.6563 103.604 27.6138 103.676 27.5419 103.695C25.4193 104.243 23.1503 104.136 21.0143 103.942C20.7589 103.918 20.5036 103.894 20.2482 103.87C17.8356 103.639 15.3405 103.4 13.0476 104.15C13.0343 104.15 13.021 104.152 13.0077 104.152Z" fill="#000001"/>
<path d="M19.2127 107.07C19.1515 107.07 19.0983 107.03 19.0823 106.969C19.0637 106.897 19.1089 106.826 19.1807 106.81C22.7983 105.926 26.5835 106.129 30.2463 106.325C32.7521 106.458 35.3429 106.597 37.8619 106.389C37.9337 106.384 38.0002 106.437 38.0056 106.512C38.0109 106.586 37.9577 106.65 37.8832 106.655C35.3456 106.865 32.7467 106.727 30.233 106.591C26.5888 106.397 22.8223 106.195 19.2446 107.068C19.2339 107.068 19.2233 107.07 19.2127 107.07Z" fill="#000001"/>
<path d="M34.3406 110.296C33.5718 110.296 32.7765 110.209 31.928 110.033C30.8666 109.812 29.9037 109.634 28.861 109.685C28.2625 109.714 27.6613 109.794 27.0814 109.874C26.8713 109.903 26.6585 109.929 26.4457 109.956C25.3205 110.097 24.2007 110.171 22.9558 110.249C22.8866 110.257 22.8201 110.198 22.8148 110.124C22.8095 110.049 22.8653 109.988 22.9398 109.983C24.1794 109.905 25.2966 109.831 26.4138 109.693C26.6266 109.666 26.8367 109.637 27.0469 109.61C27.6321 109.53 28.2385 109.448 28.8503 109.419C29.9223 109.368 30.9065 109.549 31.9838 109.772C33.0531 109.996 34.0373 110.073 34.9896 110.009C35.4179 109.98 35.8488 109.935 36.2691 109.89C36.708 109.842 37.1628 109.794 37.615 109.767C37.6869 109.759 37.7507 109.818 37.756 109.892C37.7613 109.967 37.7055 110.028 37.631 110.033C37.1841 110.062 36.7346 110.11 36.2957 110.156C35.8727 110.201 35.4392 110.246 35.0056 110.275C34.7848 110.289 34.5614 110.296 34.3406 110.296Z" fill="#000001"/>
<path d="M42.603 113.074C42.5365 113.074 42.478 113.023 42.47 112.957C42.3104 111.563 42.1242 110.153 41.9114 108.762C41.7066 108.632 41.4619 108.557 41.2198 108.552C41.1852 108.552 41.1507 108.536 41.1267 108.509C41.1028 108.483 41.0895 108.448 41.0921 108.411C41.1081 108.1 41.3049 107.812 41.6933 107.538C41.7412 107.504 41.7891 107.472 41.8369 107.44C42.0577 107.291 42.2652 107.15 42.3849 106.945C42.462 106.812 42.4807 106.629 42.4301 106.488C42.4062 106.424 42.3583 106.339 42.2599 106.304C42.212 106.286 42.1774 106.243 42.1721 106.193C42.1668 106.142 42.1934 106.091 42.2359 106.065L42.9595 105.631C42.2359 105.264 41.8423 104.413 41.7731 103.668C41.7039 102.95 41.8582 102.234 42.0045 101.543C42.0338 101.41 42.0604 101.277 42.087 101.141C42.1189 100.979 42.1428 100.833 42.1109 100.702C42.0843 100.601 42.0258 100.505 41.962 100.404C41.9327 100.359 41.9061 100.317 41.8795 100.271C41.4672 99.5478 41.672 98.6807 41.9141 97.8561C42.0178 97.5076 42.3051 96.5341 43.0073 96.2494C42.6775 95.9994 42.4009 95.6802 42.1987 95.3184C42.1641 95.2546 42.1854 95.1721 42.2492 95.1376C42.3131 95.103 42.3955 95.1243 42.4301 95.1881C42.6615 95.6004 42.994 95.9489 43.3984 96.1936C43.4462 96.2228 43.4702 96.2814 43.4595 96.3372C43.4462 96.3931 43.3984 96.4356 43.3425 96.4383C42.8398 96.4835 42.4567 96.9703 42.1721 97.9279C41.9433 98.6993 41.7518 99.5026 42.1136 100.136C42.1375 100.178 42.1641 100.218 42.1881 100.258C42.2599 100.372 42.337 100.489 42.3716 100.633C42.4168 100.817 42.3876 101 42.3503 101.189C42.3237 101.322 42.2945 101.458 42.2652 101.593C42.1216 102.264 41.9753 102.958 42.0391 103.636C42.1083 104.376 42.5259 105.232 43.2973 105.474C43.3478 105.49 43.3824 105.533 43.3904 105.586C43.3984 105.639 43.3718 105.69 43.3265 105.716L42.5525 106.182C42.6083 106.24 42.6509 106.312 42.6802 106.395C42.7573 106.61 42.7307 106.876 42.6137 107.076C42.462 107.334 42.22 107.496 41.9859 107.656C41.938 107.687 41.8928 107.719 41.8449 107.751C41.5896 107.932 41.4353 108.11 41.3794 108.291C41.6401 108.323 41.8955 108.419 42.1109 108.571C42.1402 108.592 42.1615 108.624 42.1668 108.658C42.3849 110.071 42.5764 111.507 42.736 112.922C42.744 112.994 42.6908 113.061 42.619 113.069C42.6137 113.074 42.6083 113.074 42.603 113.074Z" fill="#000001"/>
<path d="M43.5239 94.347C43.5079 94.347 43.492 94.3444 43.4787 94.339C43.4095 94.3124 43.3749 94.238 43.4015 94.1688L46.2956 86.383C46.3222 86.3138 46.3967 86.2792 46.4659 86.3058C46.535 86.3324 46.5696 86.4069 46.543 86.4761L43.6489 94.2619C43.6303 94.3124 43.5798 94.347 43.5239 94.347Z" fill="white"/>
<path d="M42.7435 99.5796C42.7249 99.5796 42.7063 99.5769 42.6903 99.569C42.6238 99.5397 42.5919 99.4599 42.6238 99.3934C43.7756 96.7919 44.8635 94.1186 45.8584 91.4533C45.885 91.3841 45.9594 91.3496 46.0286 91.3762C46.0978 91.4028 46.1323 91.4772 46.1057 91.5464C45.1082 94.217 44.0176 96.893 42.8659 99.5025C42.8446 99.5503 42.794 99.5796 42.7435 99.5796Z" fill="white"/>
<path d="M44.0208 103.285C44.0022 103.285 43.9836 103.282 43.9676 103.274C43.9011 103.245 43.8692 103.165 43.9011 103.098L45.9387 98.494C45.968 98.4275 46.0478 98.3956 46.1143 98.4275C46.1808 98.4568 46.2127 98.5366 46.1808 98.6031L44.1432 103.208C44.1193 103.255 44.0714 103.285 44.0208 103.285Z" fill="white"/>
<path d="M43.0582 108.249C43.0422 108.249 43.0236 108.246 43.0076 108.238C42.9385 108.212 42.9066 108.132 42.9332 108.066C43.7179 106.129 44.4573 104.145 45.1303 102.163C45.1543 102.094 45.2287 102.057 45.2979 102.081C45.3671 102.104 45.4043 102.179 45.3804 102.248C44.7047 104.235 43.9652 106.225 43.1779 108.164C43.1593 108.217 43.1114 108.249 43.0582 108.249Z" fill="white"/>
<path d="M36.9103 103.945C36.5778 103.945 36.2479 103.916 35.9207 103.884L35.7611 103.871C34.1518 103.727 32.4122 103.703 30.4411 103.791C30.3693 103.801 30.3055 103.738 30.3028 103.663C30.3002 103.589 30.356 103.527 30.4305 103.525C32.4149 103.434 34.1651 103.461 35.7851 103.605L35.9447 103.618C36.5006 103.668 37.0752 103.722 37.6178 103.615C37.7934 103.581 37.9769 103.527 38.1551 103.479C38.6605 103.336 39.1846 103.187 39.6873 103.384C39.7565 103.41 39.7884 103.487 39.7618 103.557C39.7352 103.626 39.658 103.658 39.5889 103.631C39.1686 103.466 38.7111 103.597 38.2243 103.735C38.0408 103.788 37.8519 103.841 37.6657 103.878C37.4183 103.926 37.1656 103.945 36.9103 103.945Z" fill="#000001"/>
<path d="M33.8238 92.4458C33.0445 92.4458 32.2757 92.3448 31.5283 92.0655C31.3766 92.0096 31.225 91.9431 31.0761 91.8793C30.7781 91.7516 30.4935 91.6292 30.1929 91.5627C29.7221 91.459 29.222 91.4962 28.7406 91.5308L19.3002 92.2357C19.2284 92.2437 19.1646 92.1852 19.1566 92.1133C19.1513 92.0389 19.2071 91.9777 19.279 91.9697L28.7193 91.2648C29.2194 91.2276 29.7381 91.1877 30.2488 91.302C30.576 91.3739 30.8845 91.5069 31.1798 91.6345C31.3261 91.6984 31.4724 91.7596 31.6214 91.8154C33.2972 92.4432 35.0554 92.1426 36.9148 91.8261C38.1783 91.6106 39.4843 91.3872 40.7611 91.4829C40.8356 91.4882 40.8888 91.5521 40.8835 91.6266C40.8782 91.701 40.8117 91.7542 40.7398 91.7489C39.495 91.6558 38.2049 91.8766 36.96 92.0894C35.9226 92.265 34.8639 92.4458 33.8238 92.4458Z" fill="#000001"/>
<path d="M35.8227 87.8706C34.9794 87.8706 34.1415 87.7988 33.3223 87.586C33.0403 87.5142 32.7637 87.4237 32.4923 87.336C32.237 87.2535 31.9736 87.1684 31.713 87.0992C29.6541 86.5539 27.4171 86.8891 25.446 87.187C25.3715 87.1976 25.305 87.1471 25.2944 87.0753C25.2837 87.0035 25.3343 86.9343 25.4061 86.9237C27.4038 86.6231 29.6701 86.2853 31.7795 86.8439C32.0481 86.9157 32.3141 87.0008 32.5721 87.0833C32.8381 87.1684 33.1148 87.2562 33.3861 87.328C35.0459 87.7589 36.8095 87.5966 38.5119 87.4397C39.3179 87.3652 40.1478 87.2881 40.9671 87.2748C41.0496 87.2774 41.1001 87.3306 41.1028 87.4051C41.1028 87.4796 41.0469 87.5381 40.9724 87.5408C40.1664 87.5541 39.3392 87.6312 38.5385 87.7057C37.6448 87.7855 36.7297 87.868 35.8227 87.8706Z" fill="#000001"/>
<path d="M38.9722 83.5238C38.4588 83.5238 37.9427 83.4866 37.4347 83.3775C37.2511 83.3376 37.0703 83.2897 36.8867 83.2419C36.634 83.1754 36.3733 83.1035 36.1153 83.0636C35.5807 82.9785 35.0274 83.0158 34.4901 83.0503L27.739 83.4839C27.6672 83.4892 27.6033 83.4334 27.598 83.3589C27.5927 83.2844 27.6485 83.2232 27.723 83.2179L34.4741 82.7843C35.0247 82.7498 35.594 82.7125 36.1579 82.8003C36.4292 82.8429 36.6979 82.9147 36.9559 82.9838C37.1341 83.0317 37.3097 83.0796 37.4905 83.1168C38.496 83.3323 39.5467 83.2525 40.5602 83.178C40.6347 83.1754 40.6985 83.2286 40.7038 83.3004C40.7091 83.3722 40.6533 83.436 40.5815 83.444C40.0521 83.4813 39.5121 83.5238 38.9722 83.5238Z" fill="#000001"/>
</svg>
