<svg width="400" height="400" viewBox="0 0 400 400" fill="none" xmlns="http://www.w3.org/2000/svg">
<path d="M89.3935 194.248C89.5215 196.824 89.7855 199.416 90.5615 201.872C91.3375 204.328 92.6575 206.664 94.6335 208.328C93.6575 208.712 92.6415 208.976 91.6095 209.128C91.2415 209.184 90.8495 209.216 90.5055 209.072C90.0095 208.856 89.7535 208.328 89.5455 207.832C89.1455 206.856 88.7935 205.864 88.5135 204.848C88.4095 206.304 88.5055 207.776 88.8095 209.2C87.2255 208.424 85.6255 207.68 83.7855 207.016C83.0575 207.488 82.0975 207.392 81.2895 207.072C80.4815 206.752 79.7695 206.24 78.9775 205.896C78.1855 205.544 77.2495 205.368 76.4735 205.752C75.5935 206.184 75.1695 207.184 74.8495 208.104C74.5375 209.032 74.2015 210.04 73.4015 210.6C72.8575 210.976 72.1775 211.088 71.5135 211.16C70.7935 211.24 70.0575 211.28 69.3535 211.112C68.4015 210.88 67.5775 210.264 66.6495 209.936C65.6015 209.568 64.3455 209.52 63.6335 208.296C61.5295 207.44 59.5455 206.288 57.7615 204.888C58.9135 204.112 59.5375 202.784 60.1135 201.528C59.2415 202.456 58.1135 203.144 56.9455 203.376C56.4815 203.136 56.0175 202.888 55.6095 202.56C55.2015 202.232 54.8575 201.808 54.9295 201.184C61.7935 197.16 66.4815 189.632 67.0655 181.696C67.0815 181.488 67.0975 181.272 67.2015 181.096C67.4175 180.736 67.9775 180.584 68.0015 180.168C68.0175 179.936 67.8495 179.736 67.7375 179.528C67.3695 178.84 67.6335 177.992 67.9215 177.264C68.2895 176.312 68.7135 175.336 69.5055 174.696C70.2095 174.136 71.1215 173.912 72.0095 173.792C75.2255 173.344 78.7535 173.896 81.5215 172.2C81.9375 171.944 82.3375 171.64 82.8175 171.512C83.2655 171.392 83.7455 171.456 84.2015 171.56C85.4415 171.84 86.6095 172.424 87.6095 173.456C88.6015 173.52 89.5135 172.848 90.5055 172.88C91.3775 172.904 92.1615 173.488 92.6255 174.224C93.0895 174.96 93.2735 175.84 93.3855 176.704C93.9775 181.44 92.3215 186.408 89.0095 189.84L89.3935 194.248Z" fill="#00396D"/>
<path d="M59.697 210.6C59.913 209.672 59.185 208.648 57.353 208.496C51.545 209.104 45.585 209.704 39.945 208.192C39.385 208.04 38.801 207.864 38.225 207.968C37.649 208.072 37.089 208.544 36.777 209.464C35.497 238.16 36.849 267.832 48.753 293.976C49.961 296.624 51.409 299.376 53.929 300.816C55.889 301.936 58.233 302.104 60.489 302.192C66.233 302.416 71.985 302.272 77.713 301.76C77.713 301.76 103.881 299.896 103.761 299.432C106.593 299.072 109.465 298.576 111.993 297.256C114.521 295.936 116.697 293.656 117.233 290.856C117.761 288.08 116.513 285.048 114.177 283.456C112.105 282.048 109.489 281.8 106.993 281.592C95.809 280.672 84.625 279.744 73.441 278.824C69.977 278.536 66.329 278.192 63.465 276.216C60.961 274.488 59.393 271.728 58.057 269C52.657 257.944 49.753 245.68 49.633 233.376C49.593 229.264 49.873 225.088 51.217 221.2C52.569 217.312 55.097 213.712 59.697 210.6Z" fill="#00396D"/>
<path d="M72.1528 335.833C71.7128 335.745 71.2648 336.073 71.0808 336.481C70.8968 336.889 70.9128 337.361 70.9848 337.809C71.1528 338.913 71.5768 339.969 71.6248 341.089C71.6888 342.649 70.9928 344.153 70.0728 345.417C69.1528 346.681 68.0168 347.769 67.0248 348.977C66.6728 349.409 66.3288 349.857 66.1448 350.385C65.8488 351.201 65.9448 352.105 66.1048 352.953C66.2728 353.841 66.5208 354.721 66.8328 355.577C67.0808 356.257 67.4008 356.953 67.9768 357.401C68.2808 357.641 68.6408 357.801 69.0168 357.913C70.0488 358.233 71.1448 358.257 72.2248 358.241C74.6088 358.209 76.9848 358.033 79.3448 357.697C80.0088 357.601 80.6808 357.497 81.2888 357.217C81.5608 357.097 81.8168 356.937 82.0248 356.721C82.6728 356.057 82.6968 354.905 82.1288 354.169C81.5208 353.377 80.4408 353.121 79.4488 353.121C78.4568 353.121 77.4568 353.313 76.4648 353.209C78.6248 349.857 80.9608 346.609 83.4648 343.505C81.5368 343.201 79.7848 342.249 78.0808 341.289C77.1848 340.785 76.2808 340.265 75.5288 339.561C74.8728 338.953 74.3448 338.225 73.8248 337.505C73.4488 336.993 73.2808 336.049 72.1528 335.833Z" fill="#00396D"/>
<path d="M135.665 342.016C136.209 342.928 136.289 344.056 136.129 345.104C135.969 346.152 135.585 347.152 135.241 348.16C134.721 349.688 134.281 351.28 134.409 352.888C134.537 354.496 135.321 356.128 136.729 356.904C136.729 356.904 148.649 356.768 148.921 356.528C150.641 354.96 152.553 353.616 154.609 352.52C155.417 352.088 156.273 351.672 156.809 350.928C157.193 350.392 157.361 349.744 157.665 349.16C158.017 348.48 158.545 347.896 158.921 347.232C159.297 346.56 159.505 345.72 159.177 345.032C158.953 344.56 158.513 344.232 158.177 343.824C157.697 343.248 157.441 342.496 157.449 341.744C157.465 341.032 157.673 340.208 157.177 339.696C156.857 339.368 156.337 339.32 155.897 339.448C155.457 339.576 155.089 339.856 154.721 340.136C152.249 341.992 149.737 343.792 147.177 345.528C146.713 345.84 146.201 346.16 145.649 346.096C145.537 346.08 145.425 346.048 145.353 345.96C145.289 345.872 145.281 345.76 145.281 345.648C145.225 343.56 145.369 341.464 145.729 339.4C144.521 340.48 142.977 341.128 141.393 341.48C139.817 341.824 138.185 341.896 135.665 342.016Z" fill="#00396D"/>
<path d="M49.832 288.497C51.448 280.505 57.032 273.641 64.016 269.433C65.464 268.561 67.16 267.769 68.784 268.233C69.416 268.417 70.032 268.785 70.688 268.721C71.76 268.609 72.328 267.449 73.008 266.609C73.736 265.705 74.84 265.057 76 265.073C77.32 265.089 78.8 265.897 80.192 265.049C85.176 261.897 90.816 259.937 96.456 258.209C98.632 257.545 100.856 256.897 103.136 256.921C105.416 256.945 107.784 257.729 109.24 259.481C109.696 260.025 110.08 260.681 110.72 260.985C111.4 261.305 112.2 261.153 112.928 260.993C115.816 260.369 118.76 259.697 121.704 259.993C124.648 260.297 127.64 261.761 129.088 264.689C130.016 265.529 130.6 266.737 130.688 267.985C130.688 267.985 150.368 334.489 150.272 334.753C149.92 336.481 148.672 337.929 147.184 338.881C145.696 339.833 143.976 340.353 142.272 340.817C140.528 341.289 138.752 341.713 136.944 341.817C135.136 341.921 133.28 341.697 131.648 340.913C131.304 340.753 130.968 340.561 130.736 340.257C130.296 339.689 130.336 338.881 130.496 338.177C130.656 337.473 130.912 336.769 130.824 336.057C130.704 335.129 130.024 334.377 129.328 333.737C129.328 333.737 114.816 284.705 114.832 284.849C112.872 286.337 110.352 287.057 107.904 286.825C107.904 286.825 89.816 341.681 89.8 342.105C86.616 343.697 82.728 343.633 79.448 342.257C76.168 340.881 73.48 338.265 71.704 335.185C71.224 334.345 70.8 333.465 70.592 332.521C70.176 330.641 70.696 328.585 71.952 327.121C71.952 327.121 80.744 290.041 80.736 290.105C77.328 291.057 73.672 291.121 70.224 290.289C69.944 290.225 69.656 290.153 69.376 290.225C69.16 290.281 68.976 290.425 68.8 290.569C67.432 291.681 66.2 292.953 64.848 294.081C63.488 295.209 61.96 296.193 60.24 296.577C58.52 296.961 56.576 296.665 55.264 295.481L49.832 288.497Z" fill="white"/>
<path d="M58.3762 211.536C58.2322 211.232 57.8962 211.064 57.5682 211.024C57.2402 210.992 56.9042 211.072 56.5842 211.152C54.7922 211.624 53.0482 212.24 51.3202 212.904C50.9202 213.056 50.5122 213.224 49.9682 213.488C46.5042 218.808 45.4642 225.648 47.0562 232.104C46.2322 239.528 46.6642 247.032 47.1202 254.488C47.3762 258.712 47.6402 262.944 48.3842 267.112C48.8082 269.488 49.3842 271.856 50.4322 273.888C51.3282 275.376 50.0562 277.224 50.0802 278.96C50.0882 279.808 50.4242 280.624 50.5442 281.464C50.8642 283.656 49.7682 285.872 50.1122 288.064C52.8002 282.272 56.7122 277.048 61.5122 272.832C63.6322 270.976 66.2482 269.216 69.0322 269.632C69.9522 269.768 70.8322 270.136 71.7602 270.224C72.6882 270.304 73.7522 270 74.1602 269.168C74.3282 268.832 74.3682 268.448 74.4322 268.08C74.5682 267.248 74.8082 266.432 75.0482 265.624C76.0242 262.344 77.0002 259.072 77.9762 255.792C77.9762 255.792 86.8242 228.784 86.8722 228.68C87.4482 227.864 88.4322 227.416 89.4162 227.264C90.4002 227.104 91.4082 227.2 92.4002 227.256C94.0242 227.344 95.6562 227.32 97.0722 226.896C96.5122 223.784 95.8882 220.52 93.8962 218.064C92.8082 216.72 91.3682 215.696 89.8402 214.872C84.7682 212.144 78.8482 211.608 73.1042 211.184C68.8882 210.856 64.6162 210.584 58.3762 211.536Z" fill="#005596"/>
<path d="M56.6333 301.944C56.6333 301.944 39.1453 357.256 39.4813 357.232C39.6733 357.616 40.1133 357.824 40.5373 357.856C40.9693 357.888 41.3853 357.768 41.8013 357.648C42.3533 357.488 42.9053 357.328 43.4653 357.168L63.0653 304.92L63.0173 306.056C63.0173 306.056 55.5453 357.112 55.7453 357.248C56.3533 357.36 56.9773 357.472 57.5933 357.384C58.2093 357.296 58.8173 356.968 59.0893 356.408C59.0893 356.408 71.0093 302.032 70.8813 301.992C66.3213 302.816 61.6573 302.312 56.6333 301.944Z" fill="#005596"/>
<path d="M102.753 302.88C101.129 306.568 99.9685 310.464 99.3125 314.44C99.3125 314.44 110.912 356.912 111.272 356.992C111.88 357.232 112.529 357.472 113.169 357.376C113.817 357.272 114.432 356.688 114.32 356.048L102.753 302.88Z" fill="#005596"/>
<path d="M129.105 264.104C129.601 262.776 130.097 261.44 130.593 260.112C130.593 260.112 142.561 231.696 142.561 231.592C142.921 230.832 143.249 229.856 142.697 229.232C142.313 228.8 141.665 228.744 141.089 228.72C124.169 228.048 107.241 227.616 90.305 227.424C89.201 227.408 88.009 227.432 87.129 228.096C86.425 228.632 86.049 229.488 85.753 230.32C84.697 233.224 84.105 236.28 83.337 239.272C81.017 248.368 77.137 257.032 75.137 266.208C74.833 267.592 74.897 269.52 76.273 269.848C76.273 269.848 90.273 263.24 90.641 263.224C93.321 262.016 96.041 260.792 98.961 260.416C101.881 260.04 105.057 260.648 107.169 262.696C108.809 264.28 109.625 266.52 110.313 268.696C112.497 265.88 115.321 263.424 118.729 262.376C122.145 261.328 126.177 261.912 129.105 264.104Z" fill="#00FF85"/>
<path d="M73.2329 184.888C76.0649 185.168 78.9769 184.664 81.5529 183.432C84.1209 182.208 86.3529 180.264 88.2168 177.88C88.9848 178.232 89.7929 178.616 90.2889 179.304C90.6729 179.832 90.8249 180.488 90.9369 181.136C91.7209 185.696 90.6409 190.376 89.1369 194.76C88.4809 196.672 87.7369 198.68 88.1209 200.664C87.8489 200.592 87.5609 200.536 87.2969 200.64C87.0409 200.744 86.8489 201.072 86.9369 201.592C85.9049 203.512 84.8809 205.432 83.8489 207.344C83.5369 207.928 83.1929 208.544 82.6169 208.88C81.8089 209.352 80.7609 209.128 79.9369 208.68C79.1129 208.232 78.4089 207.592 77.5689 207.168C77.3449 207.056 77.0649 206.96 76.8489 207.096C76.7209 207.176 76.6489 207.328 76.5929 207.472C76.1609 208.496 75.8809 209.576 75.7449 210.68C75.7449 210.68 81.8969 211.728 82.2409 212.112C82.7369 212.032 83.0809 212.688 82.9129 213.16C82.7369 213.632 82.2729 213.92 81.8409 214.168C81.2409 214.512 80.6409 214.856 80.0489 215.208C79.2809 215.656 78.5049 216.096 77.6809 216.424C75.9049 217.112 73.9449 217.184 72.0489 217.08C68.1449 216.856 64.2489 215.872 60.8889 213.872C59.7049 213.168 58.5689 212.32 57.8089 211.168C57.7529 211.08 57.7529 210.904 57.8569 210.936C57.8569 210.936 63.7129 208.624 64.0009 208.744C64.8489 209.168 65.7529 209.48 66.6809 209.672C66.5609 208.264 66.5529 206.84 66.6649 205.432C66.7769 206.248 67.1209 207.032 67.5849 207.712C67.8649 208.128 68.2009 208.504 68.5769 208.832C69.6409 209.752 71.0889 210.208 72.4249 210.112C69.8649 204.928 69.0569 198.904 70.1529 193.232C70.3369 192.264 70.6249 191.232 71.6329 190.488C71.0569 189.088 71.0329 187.464 71.5689 186.048C71.6969 185.712 71.8649 185.376 72.1209 185.12C72.3689 184.88 72.7129 184.832 73.2329 184.888Z" fill="#00FF85"/>
<path d="M87.7203 199.184C87.6803 199.184 87.6323 199.176 87.5843 199.16C87.3763 199.088 87.2643 198.856 87.3363 198.648C88.7363 194.664 90.1443 190.408 90.7203 186.008C90.8963 184.648 91.0243 183.056 90.6323 181.56C90.2323 180.04 89.2963 178.816 88.1123 178.288C87.9123 178.2 87.8163 177.96 87.9123 177.76C88.0003 177.56 88.2403 177.464 88.4403 177.56C89.8403 178.184 90.9523 179.608 91.4083 181.36C91.8323 182.984 91.6963 184.672 91.5123 186.112C90.9283 190.584 89.5043 194.888 88.0883 198.912C88.0403 199.08 87.8883 199.184 87.7203 199.184Z" fill="#000001"/>
<path d="M89.9681 202.256C89.8961 202.256 89.8321 202.24 89.7681 202.2L82.16 197.792C81.968 197.68 81.904 197.44 82.016 197.248C82.128 197.056 82.368 196.992 82.56 197.104L87.7281 200.096C85.6721 197.344 84.8081 193.704 85.5441 190.336C85.5921 190.12 85.8081 189.984 86.0241 190.032C86.2401 190.08 86.3761 190.296 86.3281 190.512C85.4481 194.536 87.0161 198.968 90.2241 201.552C90.3841 201.68 90.424 201.92 90.304 202.088C90.216 202.192 90.0961 202.256 89.9681 202.256Z" fill="#000001"/>
<path d="M81.3051 209.52C80.5931 209.52 79.8011 209.264 78.9851 208.768C77.3771 207.784 76.1371 206.344 75.2331 205.208C73.3851 202.864 72.2491 200.784 71.6811 198.664C71.6251 198.448 71.7531 198.232 71.9611 198.176C72.1771 198.12 72.3931 198.248 72.4491 198.456C72.9931 200.464 74.0731 202.456 75.8571 204.712C76.7131 205.8 77.8971 207.168 79.3931 208.088C79.9931 208.456 81.1451 209.008 82.0731 208.552C82.5291 208.328 82.8731 207.88 83.1931 207.44C84.6651 205.384 85.8091 203.12 86.5931 200.72C86.6651 200.512 86.8811 200.392 87.0971 200.464C87.3051 200.536 87.4251 200.76 87.3531 200.968C86.5451 203.448 85.3611 205.784 83.8411 207.904C83.4811 208.4 83.0491 208.96 82.4251 209.264C82.0891 209.432 81.7131 209.52 81.3051 209.52Z" fill="#000001"/>
<path d="M75.401 213.665C75.185 213.665 75.001 213.489 75.001 213.273C74.977 211.097 75.393 208.873 76.201 206.849C76.281 206.641 76.513 206.545 76.721 206.625C76.929 206.705 77.025 206.937 76.945 207.145C76.169 209.073 75.777 211.185 75.801 213.257C75.801 213.481 75.625 213.665 75.401 213.665Z" fill="#000001"/>
<path d="M89.3681 185.136C89.3521 185.136 89.3441 185.136 89.3281 185.136C89.1121 185.112 88.9441 184.92 88.9681 184.696C89.0721 183.64 89.1441 182.504 89.0081 181.392C88.9041 180.56 88.6881 179.872 88.3521 179.312C88.1041 180.888 87.4001 182.4 86.3441 183.584C86.2001 183.752 85.9441 183.76 85.7761 183.616C85.6081 183.472 85.6001 183.216 85.7441 183.048C86.9041 181.752 87.5921 180.008 87.6401 178.264C87.6481 178.104 87.7441 177.968 87.8881 177.904C88.0321 177.848 88.2001 177.88 88.3201 177.984C89.1281 178.768 89.6081 179.848 89.7921 181.28C89.9441 182.48 89.8641 183.664 89.7601 184.768C89.7521 184.976 89.5761 185.136 89.3681 185.136Z" fill="#000001"/>
<path d="M74.4162 189.552C74.4002 189.552 74.3762 189.552 74.3602 189.544C74.1442 189.512 73.9922 189.312 74.0242 189.088C74.1362 188.328 73.8642 187.52 73.3202 186.984C73.1602 186.832 73.1602 186.576 73.3122 186.416C73.4642 186.256 73.7202 186.256 73.8802 186.408C74.6082 187.12 74.9682 188.192 74.8162 189.2C74.7842 189.416 74.6082 189.552 74.4162 189.552Z" fill="#000001"/>
<path d="M73.2964 190.768C73.1524 190.768 73.0164 190.688 72.9444 190.56C72.5364 189.808 72.5924 188.816 73.0724 188.112C73.2004 187.928 73.4484 187.88 73.6244 188.008C73.8084 188.136 73.8564 188.384 73.7284 188.56C73.4084 189.024 73.3764 189.68 73.6404 190.176C73.7444 190.368 73.6724 190.616 73.4804 190.72C73.4324 190.752 73.3604 190.768 73.2964 190.768Z" fill="#000001"/>
<path d="M73.6098 193.209C73.2578 193.209 72.9058 193.137 72.5778 192.993C71.8578 192.673 71.3138 191.993 71.1538 191.217C71.1058 191.001 71.2498 190.785 71.4658 190.745C71.6818 190.697 71.8978 190.841 71.9378 191.057C72.0498 191.585 72.4258 192.041 72.9138 192.265C73.4018 192.481 73.9938 192.457 74.4658 192.193C74.6578 192.081 74.9058 192.153 75.0098 192.345C75.1218 192.537 75.0498 192.785 74.8578 192.889C74.4738 193.105 74.0418 193.209 73.6098 193.209Z" fill="#000001"/>
<path d="M72.7697 195.416C72.7537 195.416 72.7297 195.416 72.7137 195.416C72.4337 195.4 72.1857 195.28 72.0177 195.08C71.8817 194.912 71.9057 194.656 72.0737 194.52C72.2417 194.376 72.4977 194.408 72.6337 194.576C72.6657 194.608 72.7137 194.616 72.7537 194.624C72.8577 194.64 72.9697 194.584 73.0337 194.52C73.1777 194.376 73.2657 194.12 73.2817 193.76C73.3057 193.192 73.1937 192.608 72.9617 192.088C72.8657 191.888 72.9537 191.648 73.1617 191.56C73.3617 191.464 73.6017 191.552 73.6897 191.76C73.9857 192.4 74.1217 193.104 74.0897 193.8C74.0657 194.376 73.9057 194.8 73.6097 195.088C73.3777 195.296 73.0737 195.416 72.7697 195.416Z" fill="#000001"/>
<path d="M84.8972 187.761C84.7932 187.761 84.6892 187.721 84.6092 187.633C83.7692 186.753 82.4252 186.401 81.2652 186.761C81.0572 186.825 80.8332 186.705 80.7692 186.497C80.7052 186.289 80.8252 186.065 81.0332 186.001C82.4812 185.553 84.1532 185.993 85.1932 187.089C85.3452 187.249 85.3372 187.505 85.1772 187.657C85.0892 187.721 84.9932 187.761 84.8972 187.761Z" fill="#000001"/>
<path d="M90.2173 188.624C90.1213 188.624 90.0173 188.592 89.9453 188.52C89.6733 188.264 89.2893 188.176 89.0173 188.144C88.6333 188.104 88.2253 188.152 87.8253 188.2C87.6093 188.232 87.4093 188.072 87.3853 187.848C87.3613 187.624 87.5133 187.432 87.7373 187.408C88.1773 187.36 88.6333 187.304 89.0973 187.352C89.6653 187.408 90.1453 187.608 90.4893 187.936C90.6493 188.088 90.6573 188.336 90.5053 188.504C90.4253 188.576 90.3213 188.624 90.2173 188.624Z" fill="#000001"/>
<path d="M81.5292 200.816C81.0972 200.816 80.6652 200.792 80.2412 200.752C78.6972 200.6 77.6572 200.072 77.1452 199.176C76.8412 198.632 76.7372 197.96 76.8732 197.272C76.9772 196.728 77.2172 196.176 77.6092 195.6C77.6732 195.504 77.7852 195.44 77.8972 195.424C78.0172 195.408 78.1292 195.456 78.2172 195.536L82.8892 200.088C83.0012 200.2 83.0412 200.36 82.9852 200.512C82.9292 200.656 82.8012 200.76 82.6412 200.776C82.2732 200.8 81.9052 200.816 81.5292 200.816ZM78.0172 196.456C77.8332 196.792 77.7132 197.112 77.6572 197.424C77.5612 197.928 77.6252 198.408 77.8412 198.784C78.2092 199.432 79.0492 199.832 80.3212 199.96C80.7692 200.008 81.2172 200.024 81.6812 200.016L78.0172 196.456Z" fill="#000001"/>
<path d="M82.3201 190.705C82.2401 190.705 82.1681 190.689 82.1121 190.665C82.0081 190.625 81.8641 190.537 81.7761 190.337C81.6401 190.041 81.6801 189.561 81.8641 189.073C81.9761 188.777 82.1361 188.513 82.3041 188.321C82.6481 187.945 82.9601 187.985 83.1121 188.041C83.2161 188.081 83.3601 188.169 83.4481 188.369C83.5841 188.665 83.5441 189.145 83.3601 189.633C83.2481 189.929 83.0881 190.193 82.9201 190.385C82.6881 190.633 82.4801 190.705 82.3201 190.705Z" fill="#000001"/>
<path d="M87.9442 191.768C87.8642 191.768 87.7922 191.752 87.7362 191.728C87.2882 191.56 87.1922 190.912 87.4882 190.128C87.6002 189.832 87.7602 189.568 87.9282 189.376C88.2722 189 88.5842 189.04 88.7362 189.096C89.1842 189.264 89.2802 189.912 88.9842 190.696C88.8722 190.992 88.7122 191.256 88.5442 191.448C88.3202 191.704 88.1042 191.768 87.9442 191.768Z" fill="#000001"/>
<path d="M94.2015 203.672C94.1055 203.672 94.0015 203.632 93.9215 203.56C91.2335 200.984 89.5215 197.376 89.2335 193.672C89.2175 193.448 89.3775 193.256 89.6015 193.24C89.8335 193.224 90.0175 193.392 90.0335 193.608C90.3055 197.128 91.9215 200.544 94.4735 202.984C94.6335 203.136 94.6415 203.392 94.4895 203.552C94.4175 203.632 94.3055 203.672 94.2015 203.672Z" fill="#000001"/>
<path d="M72.0729 217.608C66.5369 217.608 61.3289 215.624 57.8249 212.112C57.6729 211.952 57.6729 211.704 57.8249 211.544C57.9849 211.384 58.2329 211.384 58.3929 211.544C62.1929 215.36 68.1049 217.288 74.2089 216.704C75.6809 216.568 76.9209 216.304 78.0009 215.92C79.5529 215.36 81.0729 214.448 82.9209 212.968C83.0969 212.832 83.3449 212.856 83.4809 213.032C83.6169 213.2 83.5929 213.456 83.4169 213.592C81.4969 215.136 79.9049 216.088 78.2649 216.672C77.1129 217.088 75.8089 217.36 74.2729 217.504C73.5449 217.568 72.8009 217.608 72.0729 217.608Z" fill="#000001"/>
<path d="M63.7764 248.736C63.6084 248.736 63.4484 248.624 63.3924 248.456C60.9764 240.768 58.7764 232.896 56.8564 225.056C56.8004 224.84 56.9364 224.624 57.1524 224.576C57.3684 224.528 57.5844 224.656 57.6324 224.872C59.5524 232.688 61.7444 240.544 64.1604 248.224C64.2244 248.432 64.1124 248.656 63.8964 248.728C63.8564 248.728 63.8164 248.736 63.7764 248.736Z" fill="#000001"/>
<path d="M54.6169 256.68C54.5209 256.68 54.4249 256.648 54.3449 256.576C53.2409 255.552 52.8729 254.024 52.5769 252.792L47.3929 231.36C47.3449 231.144 47.4729 230.928 47.6889 230.88C47.9049 230.832 48.1209 230.96 48.1689 231.176L53.3529 252.608C53.6249 253.736 53.9689 255.136 54.8889 255.992C55.0489 256.144 55.0569 256.392 54.9129 256.56C54.8329 256.64 54.7289 256.68 54.6169 256.68Z" fill="#000001"/>
<path d="M67.2659 264.984C67.1939 264.984 67.1139 264.96 67.0499 264.92C64.5859 263.344 62.1459 261.672 59.8019 259.936C59.6259 259.8 59.5859 259.552 59.7219 259.376C59.8499 259.2 60.1059 259.16 60.2819 259.296C62.6099 261.024 65.0339 262.688 67.4899 264.248C67.6739 264.368 67.7299 264.616 67.6099 264.8C67.5299 264.912 67.4019 264.984 67.2659 264.984Z" fill="#000001"/>
<path d="M74.1041 257.216C74.0321 257.216 73.9601 257.2 73.8961 257.16C72.7521 256.472 71.6721 255.672 70.6881 254.776C70.5281 254.624 70.5121 254.376 70.6641 254.208C70.8161 254.04 71.0641 254.032 71.2321 254.184C72.1761 255.048 73.2161 255.816 74.3121 256.48C74.5041 256.592 74.5601 256.84 74.4481 257.032C74.3681 257.144 74.2401 257.216 74.1041 257.216Z" fill="#000001"/>
<path d="M74.4242 267.896C74.2242 267.896 74.0482 267.744 74.0242 267.536C73.9442 266.768 74.1602 265.976 74.6162 265.352C78.5122 252.872 85.8722 229.296 86.0802 228.552C86.0962 228.488 86.1202 228.424 86.1682 228.376C86.9202 227.488 88.0242 226.912 89.1842 226.792C107.008 227.248 140.768 228.144 141.792 228.08C141.856 228.072 141.928 228.08 142 228.112C142.696 228.416 143.24 229.064 143.416 229.808C143.584 230.528 143.4 231.328 142.944 231.904L130.168 262.752C130.08 262.952 129.848 263.056 129.648 262.968C129.448 262.88 129.344 262.648 129.432 262.448L142.232 231.552C142.248 231.512 142.272 231.48 142.296 231.448C142.624 231.056 142.76 230.496 142.64 230C142.52 229.496 142.16 229.056 141.688 228.856C140.136 228.896 132.176 228.72 89.2242 227.608C88.3202 227.704 87.4082 228.176 86.7842 228.912L86.7602 228.888C86.5042 229.992 85.3442 233.728 81.1282 247.232C78.2482 256.456 75.3682 265.672 75.3682 265.672C75.3522 265.72 75.3362 265.76 75.3042 265.8C74.9442 266.272 74.7682 266.88 74.8322 267.472C74.8562 267.688 74.6962 267.888 74.4722 267.912C74.4562 267.896 74.4402 267.896 74.4242 267.896Z" fill="#000001"/>
<path d="M51.5447 285.648C51.4887 285.648 51.4327 285.64 51.3767 285.616C51.1767 285.528 51.0887 285.288 51.1767 285.088C54.1847 278.464 59.4006 272.968 65.8486 269.608C66.0486 269.504 66.2887 269.584 66.3847 269.776C66.4887 269.976 66.4086 270.216 66.2166 270.312C59.9206 273.592 54.8406 278.952 51.9047 285.416C51.8487 285.56 51.6967 285.648 51.5447 285.648Z" fill="#000001"/>
<path d="M84.8005 343.761C83.6485 343.761 82.4325 343.585 81.2085 343.225C75.7125 341.609 71.2725 336.969 69.9045 331.401C69.8965 331.369 69.8965 331.337 69.8965 331.305C69.8965 331.129 69.9045 330.225 69.9525 329.969C70.2325 329.177 70.5605 328.465 70.9285 327.785C71.3765 326.017 82.9285 280.769 83.0725 280.097C83.0805 280.057 83.0965 280.009 83.1205 279.977C83.4085 279.473 83.7605 278.849 83.7205 278.257C83.7045 278.017 83.6245 277.769 83.5365 277.505L83.4725 277.297C83.1285 276.193 83.1845 275.233 83.6245 274.521C83.8325 274.193 84.1045 273.937 84.3685 273.697C84.5605 273.521 84.7445 273.353 84.8885 273.161C85.3845 272.513 85.4405 271.625 85.4565 270.609C85.4645 270.393 85.6405 270.217 85.8565 270.217H85.8645C86.0885 270.225 86.2645 270.401 86.2565 270.625C86.2405 271.521 86.2165 272.745 85.5205 273.649C85.3365 273.889 85.1205 274.089 84.9045 274.281C84.6725 274.497 84.4485 274.697 84.3045 274.937C83.9045 275.577 84.0485 276.441 84.2405 277.049L84.3045 277.249C84.4005 277.545 84.5045 277.849 84.5285 278.193C84.5845 279.009 84.1685 279.761 83.8485 280.321C83.3525 282.385 72.9125 323.281 71.6965 328.025C71.6885 328.057 71.6725 328.089 71.6565 328.121C71.2965 328.777 70.9765 329.473 70.7205 330.177C70.7125 330.233 70.6965 330.793 70.6965 331.257C72.0165 336.529 76.2245 340.921 81.4405 342.457C84.6805 343.409 87.7845 343.001 89.7765 341.369C90.2005 339.761 92.9045 331.113 108.832 281.745C111.016 276.521 110.92 270.369 108.584 265.257C107.856 263.657 107.08 262.561 106.136 261.793C104.896 260.777 103.152 260.201 101.216 260.225C99.2805 260.233 97.3685 260.777 95.9205 261.257C93.4485 262.065 91.0405 263.113 88.7525 264.361C82.8485 267.377 77.5925 269.833 72.6645 271.873C72.4645 271.961 72.2245 271.857 72.1445 271.657C72.0565 271.457 72.1605 271.217 72.3605 271.137C77.2645 269.105 82.5045 266.657 88.3765 263.657C90.6965 262.393 93.1525 261.329 95.6725 260.505C97.1765 260.009 99.1685 259.441 101.216 259.433C101.224 259.433 101.232 259.433 101.24 259.433C103.344 259.433 105.264 260.049 106.64 261.177C107.68 262.025 108.528 263.217 109.312 264.929C111.744 270.249 111.84 276.641 109.584 282.025C103.104 302.121 90.7845 340.385 90.4805 341.681C90.4725 341.777 90.4245 341.873 90.3445 341.945C88.9045 343.137 86.9525 343.761 84.8005 343.761Z" fill="#000001"/>
<path d="M136.392 342.184C135.576 342.184 134.76 342.136 133.96 342.04C133.112 341.936 132.136 341.76 131.312 341.232C130.384 340.64 129.832 339.64 129.904 338.704C129.928 338.36 130.032 338.056 130.128 337.752C130.176 337.608 130.224 337.464 130.256 337.32C130.528 336.232 130.144 335.008 129.304 334.272C129.248 334.224 129.208 334.16 129.184 334.08C125.48 321.416 116.024 289.232 114.672 285.376C113.112 286.224 111.376 286.768 109.616 286.968C109.392 286.992 109.2 286.832 109.176 286.616C109.152 286.4 109.312 286.2 109.528 286.176C111.328 285.976 113.104 285.384 114.672 284.464C114.712 284.44 114.76 284.424 114.808 284.416C115.312 284.328 115.36 284.328 122.728 309.256C126.168 320.88 129.568 332.512 129.928 333.752C130.928 334.688 131.376 336.184 131.04 337.512C131 337.672 130.944 337.84 130.896 338C130.808 338.264 130.728 338.52 130.712 338.768C130.664 339.424 131.072 340.128 131.752 340.56C132.44 341 133.304 341.152 134.064 341.248C138.28 341.768 142.76 340.856 146.68 338.68C147.44 338.256 148.304 337.728 148.944 336.976C149.584 336.232 149.912 335.344 149.84 334.544C149.56 333.24 137.032 290.528 130.424 268.048C130.008 265.528 128.072 263.336 125.48 262.424C123.136 261.6 120.328 261.8 117.768 262.984C115.552 264.008 113.504 265.736 111.664 268.112C111.528 268.288 111.28 268.32 111.104 268.184C110.928 268.048 110.896 267.8 111.032 267.624C112.944 265.144 115.104 263.336 117.432 262.256C120.176 260.984 123.208 260.768 125.752 261.664C128.608 262.672 130.752 265.112 131.208 267.872C148.704 327.36 150.472 333.696 150.624 334.464H150.64C150.728 335.48 150.336 336.584 149.552 337.496C148.824 338.344 147.888 338.92 147.064 339.376C143.736 341.216 140.024 342.184 136.392 342.184Z" fill="#000001"/>
<path d="M145.361 346.088C145.201 346.088 145.049 345.992 144.985 345.824C144.313 344.008 144.769 342 145.137 340.392C145.185 340.176 145.401 340.04 145.617 340.088C145.833 340.136 145.969 340.352 145.921 340.568C145.577 342.072 145.153 343.952 145.737 345.544C145.817 345.752 145.705 345.984 145.497 346.056C145.457 346.08 145.409 346.088 145.361 346.088Z" fill="#000001"/>
<path d="M148.553 356.912C148.441 356.912 148.329 356.864 148.249 356.776C148.105 356.608 148.121 356.36 148.289 356.208C149.801 354.888 151.545 353.848 153.233 352.84C153.825 352.488 154.425 352.128 155.009 351.76C155.689 351.336 156.329 350.896 156.713 350.272C156.841 350.064 156.937 349.848 157.033 349.624C157.105 349.464 157.169 349.304 157.249 349.152C157.465 348.72 157.745 348.328 158.017 347.952C158.233 347.648 158.441 347.36 158.617 347.056C158.817 346.704 159.249 345.8 158.881 345.064C158.729 344.768 158.457 344.512 158.169 344.248C157.769 343.88 157.353 343.496 157.185 342.928C157.033 342.432 157.121 341.92 157.201 341.472C157.217 341.368 157.233 341.264 157.249 341.168C157.297 340.856 157.321 340.304 157.017 340.056C156.761 339.848 156.313 339.88 155.689 340.152C153.761 340.968 152.009 342.272 150.321 343.528C148.121 345.16 145.857 346.856 143.137 347.536C142.921 347.592 142.705 347.456 142.649 347.248C142.593 347.032 142.729 346.816 142.937 346.76C145.497 346.12 147.609 344.552 149.841 342.888C151.569 341.6 153.361 340.264 155.377 339.416C156.297 339.024 157.017 339.04 157.521 339.44C157.985 339.816 158.169 340.456 158.041 341.288C158.025 341.4 158.009 341.504 157.985 341.616C157.921 342.008 157.849 342.384 157.953 342.704C158.065 343.072 158.377 343.36 158.713 343.672C159.041 343.976 159.377 344.288 159.593 344.72C159.977 345.48 159.873 346.488 159.313 347.472C159.113 347.816 158.889 348.136 158.665 348.44C158.401 348.808 158.153 349.152 157.961 349.536C157.889 349.68 157.825 349.824 157.761 349.968C157.657 350.216 157.545 350.464 157.393 350.712C156.921 351.488 156.169 352 155.433 352.456C154.841 352.824 154.241 353.184 153.641 353.544C151.985 354.528 150.273 355.552 148.817 356.824C148.737 356.88 148.641 356.912 148.553 356.912Z" fill="#000001"/>
<path d="M136.352 356.912C136.288 356.912 136.216 356.896 136.16 356.864C134.512 355.936 133.976 353.968 134.024 352.424C134.064 351.104 134.456 349.832 134.832 348.608C134.928 348.312 135.016 348.008 135.104 347.712C135.48 346.424 135.848 344.752 135.384 343.272C135.32 343.064 135.432 342.84 135.648 342.768C135.856 342.704 136.08 342.816 136.152 343.032C136.68 344.712 136.288 346.536 135.88 347.936C135.792 348.24 135.696 348.544 135.608 348.848C135.248 350.024 134.872 351.24 134.84 352.456C134.8 353.704 135.232 355.424 136.568 356.176C136.76 356.28 136.832 356.528 136.72 356.72C136.632 356.84 136.496 356.912 136.352 356.912Z" fill="#000001"/>
<path d="M76.2331 353.472C76.1611 353.472 76.0891 353.456 76.0251 353.408C75.8411 353.288 75.7771 353.048 75.8971 352.856C77.9531 349.56 80.3451 346.448 83.0091 343.616C83.1611 343.456 83.4171 343.448 83.5771 343.6C83.7371 343.752 83.7451 344.008 83.5931 344.168C80.9691 346.96 78.6011 350.032 76.5771 353.288C76.4971 353.408 76.3691 353.472 76.2331 353.472Z" fill="#000001"/>
<path d="M73.2093 358.672C72.2013 358.672 71.1933 358.632 70.1853 358.552C69.4093 358.488 68.6013 358.384 67.9373 357.904C67.3133 357.456 66.9613 356.768 66.6733 356.088C66.1373 354.816 65.7373 353.488 65.4893 352.128C65.4013 351.664 65.3213 351.12 65.4093 350.56C65.6173 349.256 66.6573 348.352 67.5693 347.544L67.7133 347.416C68.4813 346.744 69.4493 345.816 70.1053 344.68C71.0173 343.112 71.2973 341.2 70.8653 339.44C70.8253 339.272 70.7773 339.096 70.7293 338.928C70.5933 338.456 70.4573 337.968 70.4413 337.456C70.4173 336.552 70.8253 335.76 71.4973 335.432C71.6973 335.336 71.9373 335.416 72.0333 335.616C72.1293 335.816 72.0493 336.056 71.8493 336.152C71.4173 336.36 71.2333 336.944 71.2493 337.432C71.2653 337.856 71.3773 338.272 71.5053 338.712C71.5533 338.888 71.6093 339.072 71.6493 339.248C72.1293 341.208 71.8173 343.336 70.8013 345.08C70.0813 346.312 69.0573 347.296 68.2413 348.008L68.0973 348.136C67.2413 348.888 66.3613 349.656 66.2013 350.672C66.1373 351.104 66.2093 351.568 66.2813 351.968C66.5213 353.264 66.8973 354.544 67.4173 355.76C67.6573 356.328 67.9453 356.904 68.4093 357.24C68.9053 357.6 69.5933 357.68 70.2493 357.736C73.0813 357.968 75.9373 357.864 78.7453 357.432C79.5693 357.304 80.5133 357.128 81.2013 356.6C81.7853 356.152 82.2013 355.288 81.8893 354.608C81.6973 354.2 81.2493 353.872 80.6893 353.736C80.1293 353.6 79.5133 353.632 78.9213 353.672L73.2733 354C73.0573 354.016 72.8653 353.848 72.8493 353.624C72.8333 353.4 73.0013 353.216 73.2253 353.2L78.8733 352.872C79.4973 352.84 80.2013 352.792 80.8813 352.96C81.6893 353.16 82.3293 353.64 82.6173 354.272C83.1213 355.352 82.5133 356.608 81.6893 357.24C80.8573 357.88 79.7933 358.08 78.8733 358.224C76.9933 358.536 75.0973 358.672 73.2093 358.672Z" fill="#000001"/>
<path d="M58.7928 297.001C58.4808 297.001 58.1768 296.977 57.8808 296.921C55.7368 296.537 54.2168 294.889 52.3048 292.593C46.5368 286.105 44.5448 277.137 43.1368 269.233C39.5528 249.161 38.0008 228.641 38.5048 208.257C38.5128 208.033 38.6888 207.857 38.9128 207.865C39.1368 207.873 39.3048 208.057 39.3048 208.273C38.7928 228.609 40.3448 249.065 43.9208 269.089C45.3128 276.881 47.2648 285.729 52.9128 292.065C54.7288 294.233 56.1448 295.793 58.0248 296.129C59.4408 296.377 61.0088 295.929 62.9688 294.713C65.1208 293.369 67.0248 291.697 68.6408 289.737C68.7368 289.617 68.8888 289.569 69.0408 289.601C72.4648 290.369 76.0008 291.161 79.1848 290.089C79.3928 290.017 79.6248 290.129 79.6888 290.337C79.7608 290.545 79.6488 290.777 79.4408 290.841C76.1128 291.961 72.5528 291.201 69.1048 290.433C67.4728 292.377 65.5528 294.041 63.4008 295.385C61.6408 296.481 60.1608 297.001 58.7928 297.001Z" fill="#000001"/>
<path d="M41.2647 358.312C40.5287 358.312 39.7847 358.112 39.1527 357.712C39.1207 357.696 39.0887 357.672 39.0567 357.64C38.8167 357.384 38.7607 357.328 47.5287 329.36C51.8807 315.488 56.2567 301.648 56.2567 301.648C56.3127 301.464 56.4887 301.36 56.6727 301.368C56.7767 301.376 67.4647 302.36 72.6327 301.168C72.8487 301.12 73.0647 301.256 73.1127 301.472C73.1607 301.688 73.0247 301.904 72.8087 301.952C72.2647 302.08 71.6727 302.176 71.0407 302.264C71.0887 302.344 71.1127 302.448 71.0887 302.552L59.4327 356.84C59.4247 356.888 59.4007 356.928 59.3767 356.968C58.9847 357.584 58.2327 357.976 57.3607 358.016C56.6327 358.056 55.9207 357.856 55.2887 357.68C55.2167 357.656 55.1447 357.616 55.0967 357.56C54.9367 357.376 54.7367 357.16 62.6247 306.944L43.7607 357.368C43.7367 357.44 43.6887 357.504 43.6247 357.552C42.9447 358.056 42.1047 358.312 41.2647 358.312ZM39.7927 357.16C40.8007 357.68 42.1207 357.608 43.0567 356.976L63.2647 302.96C63.3367 302.768 63.5367 302.656 63.7447 302.712C63.9447 302.768 64.0727 302.96 64.0407 303.16C61.2807 320.68 56.1607 353.56 55.8167 356.984C56.3207 357.12 56.8327 357.232 57.3287 357.208C57.7767 357.184 58.3607 357.008 58.6647 356.584L70.3047 302.376C70.3047 302.36 70.3127 302.352 70.3127 302.344C65.3207 302.856 58.4967 302.336 56.9207 302.2C51.1847 320.328 40.6247 353.896 39.7927 357.16Z" fill="#000001"/>
<path d="M112.664 358.097C111.952 358.097 111.248 357.769 110.8 357.209C110.768 357.169 110.736 357.121 110.728 357.065L98.9922 314.801C98.9362 314.585 99.0562 314.369 99.2722 314.305C99.4882 314.249 99.7042 314.369 99.7682 314.585L111.48 356.769C111.8 357.129 112.28 357.329 112.768 357.297C113.232 357.265 113.68 357.017 113.952 356.641C113.64 354.321 106.72 321.193 103.032 303.673C102.984 303.457 103.128 303.241 103.344 303.201C103.56 303.153 103.776 303.297 103.816 303.513C114.264 353.145 114.808 356.561 114.696 356.961H114.704C114.304 357.609 113.584 358.041 112.824 358.089C112.76 358.097 112.712 358.097 112.664 358.097Z" fill="#000001"/>
<path d="M108.618 254.328C107.898 254.328 107.186 254.16 106.53 253.8C104.21 252.528 103.474 249.376 104.906 246.76C105.594 245.504 106.674 244.552 107.946 244.088C109.242 243.616 110.57 243.696 111.706 244.32C112.842 244.944 113.634 246.016 113.93 247.36C114.226 248.68 114.018 250.104 113.33 251.36C112.306 253.24 110.45 254.328 108.618 254.328ZM109.61 244.592C109.154 244.592 108.682 244.68 108.218 244.848C107.13 245.248 106.202 246.064 105.61 247.152C104.394 249.376 104.978 252.048 106.914 253.104C108.85 254.16 111.41 253.208 112.626 250.984C113.218 249.896 113.402 248.672 113.146 247.544C112.898 246.432 112.242 245.536 111.314 245.032C110.794 244.736 110.21 244.592 109.61 244.592Z" fill="#000001"/>
<path d="M363.609 233.072H238.809V325.072H363.609V233.072Z" fill="#005596"/>
<path d="M185.631 180.032C189.497 180.032 192.631 176.898 192.631 173.032C192.631 169.166 189.497 166.032 185.631 166.032C181.765 166.032 178.631 169.166 178.631 173.032C178.631 176.898 181.765 180.032 185.631 180.032Z" fill="#00396D"/>
<path d="M185.631 204.232C189.497 204.232 192.631 201.098 192.631 197.232C192.631 193.366 189.497 190.232 185.631 190.232C181.765 190.232 178.631 193.366 178.631 197.232C178.631 201.098 181.765 204.232 185.631 204.232Z" fill="#005596"/>
<path d="M185.631 227.632C189.497 227.632 192.631 224.498 192.631 220.632C192.631 216.766 189.497 213.632 185.631 213.632C181.765 213.632 178.631 216.766 178.631 220.632C178.631 224.498 181.765 227.632 185.631 227.632Z" fill="#00FF85"/>
<path d="M193.776 153.825C192.72 141.433 191.256 129.073 189.368 116.777C188.064 108.265 186.544 99.7045 183.264 91.7445C183.264 91.7445 194.176 91.1765 194.4 91.5125C200.12 112.089 204.008 133.169 206.016 154.425L193.776 153.825Z" fill="#00FF85"/>
<path d="M218.216 153.792C216.144 134.6 214.048 115.272 208.496 96.784C208.496 96.784 219 96.224 219.4 96.344C223.208 115.472 226.384 134.728 228.912 154.072L218.216 153.792Z" fill="#005596"/>
<path d="M239.888 153.32C237.296 136.92 234.616 120.536 231.864 104.168C230.832 98.0319 229.776 91.8479 227.6 86.0159C227.6 86.0159 236.928 85.4879 237.424 85.9119C238.984 88.3119 239.664 91.1679 240.28 93.9679C244.6 113.648 247.28 133.648 249.944 153.624L239.888 153.32Z" fill="#005596"/>
<path d="M260.407 153.384C256.927 128.408 253.431 103.368 247.215 78.9279C247.215 78.9279 257.439 78.8799 257.439 79.1599C263.119 103.576 267.567 128.272 270.751 153.136L260.407 153.384Z" fill="#00FF85"/>
<path d="M284.12 152.608C281.448 132.992 277.432 113.56 272.104 94.4958C272.104 94.4958 280.608 94.4798 281.056 94.5998C282.992 99.4158 284.2 104.488 285.344 109.552C288.576 123.816 291.368 138.176 293.72 152.6L284.12 152.608Z" fill="#00396D"/>
<path d="M305.152 152.008C303.056 140.184 300.416 128.472 297.784 116.76C296.152 109.52 294.528 102.272 292.44 95.1522C290.632 88.9682 288.48 82.8802 286 76.9282C286 76.9282 294.224 76.7522 294.84 77.0402C301.168 97.1602 306.728 117.52 311.512 138.064C312.624 142.856 313.704 147.688 313.952 152.608L305.152 152.008Z" fill="#005596"/>
<path d="M122.384 50.9277C129.76 54.7037 135.512 61.1517 139.744 68.2797C143.976 75.4077 146.832 83.2557 149.64 91.0557C149.64 91.0557 147.976 88.8237 147.832 88.8317C143.648 84.1997 139.216 79.3997 133.344 77.2797C131.568 76.6397 129.704 76.2637 127.84 75.9197C123.616 75.1437 119.336 74.5117 115.048 74.7117C110.76 74.9117 106.432 75.9837 103.32 78.1277C106.288 67.6397 112.752 58.1917 122.384 50.9277Z" fill="#000001"/>
<path d="M237.632 287.816C237.624 287.816 237.608 287.816 237.6 287.816C224.2 287.28 210.344 286.72 196.808 284.936C181.512 282.928 168.544 279.592 157.168 274.752C156.824 274.608 156.632 274.24 156.696 273.88C160.88 250.288 163.36 228.312 164.28 206.704C163.968 170.808 161.752 128.824 147.672 89.8562C142.632 83.3522 135.424 78.7362 127.36 76.8642C119.44 75.0242 110.984 75.8242 103.544 79.1122C103.264 79.2402 102.936 79.1842 102.696 78.9842C102.464 78.7842 102.368 78.4642 102.448 78.1682C105.368 67.4722 112.392 57.4642 122.224 49.9922C122.312 49.9282 122.408 49.8802 122.512 49.8562C156.992 40.9922 195.688 39.0882 244.288 43.8882C257.888 45.2322 272.456 47.0562 286.896 51.3042C291.872 52.9282 296.584 56.3122 300.544 61.0962C304.32 65.6402 307.016 70.8882 309.152 75.4162C311.456 80.2882 313.648 85.5122 316.064 91.8562C328.672 137.512 333.504 184.56 330.456 231.76C330.424 232.2 330.064 232.528 329.608 232.504C329.168 232.472 328.832 232.096 328.864 231.656C331.896 184.64 327.08 137.768 314.552 92.3522C312.184 86.1282 310 80.9362 307.712 76.1042C305.616 71.6642 302.976 66.5362 299.32 62.1282C295.544 57.5762 291.088 54.3682 286.424 52.8482C272.136 48.6482 257.656 46.8322 244.136 45.4962C195.8 40.7282 157.328 42.5922 123.072 51.3762C114.072 58.2562 107.52 67.2962 104.464 77.0082C111.824 74.1362 120.016 73.5282 127.72 75.3202C136.184 77.2882 143.744 82.1362 149.016 88.9922C149.064 89.0562 149.104 89.1282 149.136 89.2082C163.336 128.432 165.576 170.632 165.88 206.744C164.968 228.272 162.512 250.12 158.384 273.544C169.488 278.192 182.136 281.408 197.024 283.368C210.496 285.136 224.312 285.696 237.672 286.232C238.112 286.248 238.456 286.624 238.44 287.064C238.416 287.48 238.064 287.816 237.632 287.816Z" fill="#000001"/>
<path d="M180.927 155.76C180.527 155.76 180.191 155.464 180.135 155.072C175.735 124.328 168.839 95.3041 159.647 68.7921C159.503 68.3761 159.727 67.9201 160.143 67.7761C160.559 67.6321 161.015 67.8561 161.159 68.2721C170.311 94.6801 177.199 123.568 181.615 154.152C225.335 153.496 269.679 152.728 313.447 151.872C313.455 151.872 313.455 151.872 313.463 151.872C313.895 151.872 314.255 152.224 314.263 152.656C314.271 153.096 313.919 153.464 313.479 153.472C269.479 154.336 224.887 155.104 180.935 155.76H180.927Z" fill="#000001"/>
<path d="M196.336 174.96C195.952 174.96 195.608 174.68 195.544 174.288C195.472 173.856 195.768 173.44 196.208 173.368C204.48 172.04 212.52 169.744 220.216 166.536C222.768 164.888 225.544 163.584 228.448 162.688C228.84 162.568 229.264 162.768 229.424 163.152C229.584 163.536 229.416 163.976 229.056 164.168C226.408 165.544 223.712 166.808 220.968 167.96C219.44 168.96 218 170.096 216.664 171.344C217.4 171.976 219.096 171.744 219.664 171.64C226.08 170.504 232.568 169.24 238.928 167.864C240.216 167.584 241.576 167.376 242.744 168.096C243.536 168.584 244 169.608 243.872 170.584C243.864 170.624 243.856 170.664 243.856 170.704C246.952 170.784 250.024 170.056 253.24 169.288C256.008 168.632 258.872 167.944 261.776 167.824C262.224 167.808 263.272 167.76 263.928 168.52C264.224 168.856 264.336 169.24 264.424 169.552C264.472 169.72 264.52 169.88 264.576 169.968C264.792 170.304 265.608 170.312 265.872 170.32C268.52 170.352 271.256 170.032 273.896 169.72C277.88 169.248 282 168.768 286.056 169.464C286.488 169.536 286.784 169.952 286.712 170.384C286.64 170.816 286.224 171.12 285.792 171.04C281.96 170.384 278.136 170.832 274.088 171.312C271.4 171.632 268.616 171.952 265.856 171.92C265.328 171.912 263.92 171.896 263.232 170.84C263.048 170.552 262.96 170.248 262.88 170C262.832 169.824 262.776 169.64 262.712 169.568C262.616 169.456 262.312 169.408 261.832 169.424C259.08 169.536 256.296 170.2 253.6 170.84C249.928 171.712 246.12 172.624 242.256 172.2C241.88 172.16 241.584 171.856 241.544 171.48C241.512 171.104 241.752 170.752 242.112 170.64C242.144 170.632 242.24 170.6 242.272 170.376C242.32 170.032 242.152 169.616 241.896 169.464C241.232 169.056 240.264 169.216 239.256 169.432C232.872 170.808 226.368 172.08 219.928 173.216C217.264 173.688 215.464 173.08 214.872 171.504C214.76 171.208 214.832 170.872 215.064 170.648C215.296 170.416 215.536 170.192 215.776 169.968C209.52 172.216 203.056 173.888 196.448 174.944C196.424 174.952 196.376 174.96 196.336 174.96Z" fill="#000001"/>
<path d="M199.031 197.384C198.679 197.384 198.351 197.144 198.255 196.784C198.143 196.36 198.399 195.92 198.823 195.808L218.687 190.616C220.439 190.16 222.287 189.784 223.887 190.68C224.183 190.848 224.343 191.184 224.287 191.52L223.695 194.872C225.695 195.488 227.967 195.16 229.991 194.872L244.975 192.72C246.079 192.56 247.455 192.36 248.735 192.888C249.327 193.136 249.807 193.496 250.279 193.848C250.503 194.016 250.735 194.192 250.975 194.344C253.167 195.736 256.071 195.232 258.887 194.744L259.119 194.704C271.719 192.536 284.607 193.48 297.063 194.384C297.503 194.416 297.831 194.8 297.799 195.24C297.767 195.68 297.399 196 296.943 195.976C284.575 195.072 271.791 194.136 259.383 196.272L259.151 196.312C256.183 196.824 252.815 197.408 250.103 195.68C249.831 195.504 249.567 195.312 249.303 195.112C248.903 194.808 248.519 194.52 248.119 194.352C247.247 193.992 246.159 194.152 245.199 194.288L230.215 196.44C227.903 196.776 225.023 197.184 222.479 196.112C222.135 195.968 221.935 195.6 221.999 195.232L222.599 191.84C221.591 191.544 220.359 191.808 219.087 192.144L199.223 197.336C199.167 197.376 199.095 197.384 199.031 197.384Z" fill="#000001"/>
<path d="M237.863 220.744C235.759 220.744 233.663 220.496 231.591 219.888C231.359 219.824 231.175 219.656 231.079 219.432C230.983 219.208 230.999 218.96 231.111 218.744C231.495 218.016 231.367 217.264 231.191 216.76C230.839 215.76 229.975 214.832 228.983 214.416C227.151 213.632 225.007 213.912 222.791 214.296C216.055 215.472 209.319 217.072 202.767 219.048C202.343 219.176 201.895 218.936 201.767 218.512C201.639 218.088 201.879 217.64 202.303 217.512C208.911 215.512 215.711 213.896 222.519 212.712C224.887 212.304 227.375 211.976 229.615 212.936C231.015 213.536 232.191 214.792 232.695 216.224C232.975 217.016 233.031 217.824 232.863 218.568C238.639 219.984 244.519 218.544 250.727 217.032C255.807 215.792 261.063 214.504 266.311 214.912C267.855 215.032 269.391 215.296 270.879 215.56C271.943 215.744 273.039 215.936 274.119 216.072C279.439 216.72 284.919 216.008 290.215 215.312C293.583 214.872 297.055 214.416 300.511 214.304C300.519 214.304 300.527 214.304 300.535 214.304C300.967 214.304 301.319 214.648 301.335 215.08C301.351 215.52 301.007 215.888 300.559 215.904C297.191 216.016 293.751 216.464 290.423 216.896C285.031 217.6 279.447 218.328 273.927 217.656C272.807 217.52 271.687 217.328 270.607 217.136C269.159 216.88 267.663 216.624 266.191 216.512C261.199 216.128 256.071 217.376 251.103 218.592C246.751 219.656 242.295 220.744 237.863 220.744Z" fill="#000001"/>
<path d="M210.335 96.4003C206.847 96.4003 203.471 95.3443 200.919 94.3923C199.943 94.0243 198.967 93.6403 197.991 93.2483C194.559 91.8803 191.007 90.4643 187.351 90.2243C182.583 89.9123 177.295 91.6723 172.463 95.1763C172.103 95.4323 171.607 95.3603 171.343 95.0003C171.087 94.6403 171.167 94.1443 171.519 93.8803C175.151 91.2483 180.863 88.2003 187.447 88.6243C191.359 88.8803 195.031 90.3443 198.575 91.7603C199.535 92.1443 200.503 92.5283 201.471 92.8883C207.191 95.0163 211.487 95.3603 215.007 93.9523C217.655 92.8963 219.823 90.8003 221.927 88.7843C222.359 88.3683 222.783 87.9603 223.215 87.5603C226.231 84.7443 229.559 82.2403 233.103 80.1283C239.511 76.3043 245.135 75.1923 249.823 76.8163C253.703 78.1603 256.519 81.2163 259.247 84.1763C259.623 84.5843 259.999 84.9923 260.375 85.3923C262.831 88.0083 266.583 91.4563 270.919 91.4563C270.975 91.4563 271.031 91.4563 271.087 91.4563C273.999 91.3923 277.087 89.6723 279.559 86.7283C281.183 84.8003 282.463 82.5363 283.711 80.3443C284.191 79.4963 284.679 78.6403 285.175 77.8083C286.175 76.1443 287.335 74.4403 289.007 73.3043C290.967 71.9683 293.375 71.7283 295.143 72.6883C295.535 72.8963 295.679 73.3843 295.463 73.7763C295.255 74.1603 294.767 74.3123 294.375 74.0963C293.119 73.4163 291.367 73.6243 289.903 74.6243C288.487 75.5923 287.455 77.1203 286.543 78.6323C286.047 79.4563 285.575 80.2963 285.095 81.1363C283.815 83.3923 282.495 85.7203 280.775 87.7603C279.143 89.6963 275.727 92.9603 271.111 93.0563C271.047 93.0563 270.975 93.0563 270.903 93.0563C265.943 93.0563 261.855 89.3203 259.191 86.4883C258.815 86.0883 258.431 85.6723 258.055 85.2643C255.463 82.4563 252.783 79.5443 249.287 78.3363C245.063 76.8723 239.895 77.9443 233.911 81.5123C230.463 83.5683 227.231 86.0003 224.295 88.7363C223.871 89.1363 223.447 89.5443 223.023 89.9443C220.807 92.0723 218.519 94.2723 215.583 95.4483C213.887 96.1363 212.095 96.4003 210.335 96.4003Z" fill="#00396D"/>
<path d="M301.208 309.872C284.224 309.872 270.408 296.056 270.408 279.072C270.408 262.088 284.224 248.272 301.208 248.272C318.192 248.272 332.008 262.088 332.008 279.072C332.008 296.056 318.192 309.872 301.208 309.872ZM301.208 249.872C285.104 249.872 272.008 262.968 272.008 279.072C272.008 295.176 285.104 308.272 301.208 308.272C317.312 308.272 330.408 295.176 330.408 279.072C330.408 262.968 317.312 249.872 301.208 249.872Z" fill="#00396D"/>
<path d="M331.169 279.832H271.361C270.921 279.832 270.561 279.472 270.561 279.032C270.561 278.592 270.921 278.232 271.361 278.232H331.169C331.609 278.232 331.969 278.592 331.969 279.032C331.969 279.472 331.609 279.832 331.169 279.832Z" fill="#00396D"/>
<path d="M301.12 309.4C300.68 309.4 300.32 309.04 300.32 308.6V249.368C300.32 248.928 300.68 248.568 301.12 248.568C301.56 248.568 301.92 248.928 301.92 249.368V308.6C301.92 309.04 301.56 309.4 301.12 309.4Z" fill="#00396D"/>
<path d="M293.088 308.448C292.88 308.448 292.664 308.368 292.504 308.2C286.792 302.176 283.088 293.96 282.088 285.064C281.176 276.976 282.448 268.272 285.784 259.896C286.92 257.048 288.792 252.912 292.024 249.896C292.344 249.592 292.856 249.608 293.152 249.936C293.456 250.256 293.44 250.768 293.112 251.064C290.112 253.864 288.336 257.784 287.264 260.488C284.032 268.624 282.784 277.056 283.672 284.888C284.64 293.44 288.184 301.336 293.664 307.104C293.968 307.424 293.952 307.928 293.632 308.232C293.48 308.376 293.288 308.448 293.088 308.448Z" fill="#00396D"/>
<path d="M308.519 308.84C308.375 308.84 308.231 308.8 308.095 308.72C307.719 308.488 307.607 307.992 307.839 307.616C310.799 302.864 313.295 297.784 315.263 292.536C316.807 288.432 317.711 285.016 318.111 281.792C319.375 271.712 315.767 260.44 308.231 250.864C307.959 250.52 308.015 250.016 308.367 249.744C308.711 249.472 309.215 249.528 309.487 249.88C317.287 259.784 321.015 271.488 319.695 281.992C319.279 285.344 318.343 288.88 316.759 293.104C314.751 298.448 312.207 303.616 309.191 308.464C309.047 308.712 308.783 308.84 308.519 308.84Z" fill="#00396D"/>
<path d="M277.719 298.352C277.423 298.352 277.135 298.184 276.999 297.896C276.807 297.496 276.975 297.016 277.375 296.832C292.263 289.672 310.055 289.648 324.975 296.76C325.375 296.952 325.543 297.424 325.351 297.824C325.159 298.224 324.687 298.392 324.287 298.2C309.807 291.296 292.527 291.328 278.071 298.272C277.959 298.328 277.839 298.352 277.719 298.352Z" fill="#00396D"/>
<path d="M299.879 264.32C297.671 264.32 295.807 264.184 294.095 263.904C289.103 263.088 284.543 260.904 280.127 258.792C279.727 258.6 279.559 258.128 279.751 257.728C279.943 257.328 280.415 257.16 280.815 257.352C285.127 259.416 289.591 261.552 294.351 262.328C296.247 262.64 298.343 262.76 300.943 262.712C309.391 262.56 316.039 260.592 320.711 256.872C321.055 256.6 321.559 256.656 321.839 257C322.111 257.344 322.055 257.848 321.711 258.128C316.759 262.072 309.783 264.16 300.975 264.32C300.599 264.32 300.231 264.32 299.879 264.32Z" fill="#00396D"/>
</svg>
