<svg width="400" height="400" viewBox="0 0 400 400" fill="none" xmlns="http://www.w3.org/2000/svg">
<path d="M62.4336 230.079V88.9748C62.4336 83.4228 66.9296 78.9268 72.4816 78.9268H332.386C337.938 78.9268 342.434 83.4228 342.434 88.9748V230.079C342.434 235.631 337.938 240.127 332.386 240.127H72.4816C66.9296 240.127 62.4336 235.631 62.4336 230.079Z" fill="#00396D"/>
<path d="M180.569 240.11L180.753 279.63L166.001 279.718L165.953 284.91L238.945 285.014L238.913 279.87L224.393 279.598L224.369 240.23L180.569 240.11Z" fill="#00396D"/>
<path d="M180.602 240.039V245.535L224.338 252.383L224.434 239.999L180.602 240.039Z" fill="#000001"/>
<path d="M66.4492 207.495V88.9749C66.4492 85.9509 68.8972 83.5029 71.9212 83.5029H332.969C335.993 83.5029 338.441 85.9509 338.441 88.9749V207.503H66.4492V207.495Z" fill="white"/>
<path d="M219.144 123.823C222.639 123.823 225.472 120.99 225.472 117.495C225.472 114 222.639 111.167 219.144 111.167C215.65 111.167 212.816 114 212.816 117.495C212.816 120.99 215.65 123.823 219.144 123.823Z" fill="#006400"/>
<path d="M219.672 152.942C223.167 152.942 226 150.109 226 146.614C226 143.119 223.167 140.286 219.672 140.286C216.177 140.286 213.344 143.119 213.344 146.614C213.344 150.109 216.177 152.942 219.672 152.942Z" fill="#006400"/>
<path d="M94.352 164.078H80.752V196.686H94.352V164.078Z" fill="#006400"/>
<path d="M118.752 151.486H105.152V196.686H118.752V151.486Z" fill="#006400"/>
<path d="M143.168 135.087H129.568V196.687H143.168V135.087Z" fill="#006400"/>
<path d="M168.37 143.486H154.77V196.686H168.37V143.486Z" fill="#006400"/>
<path d="M193.969 124.286H180.369V196.686H193.969V124.286Z" fill="#006400"/>
<path d="M284.512 107.591C284.512 107.591 284.512 120.159 284.888 120.327C286.912 120.175 288.96 120.319 291.312 120.671C299.464 122.287 306.552 128.167 310.008 135.719C313.464 143.271 313.352 152.287 310.064 159.919C310.064 159.919 321.064 164.295 321.52 164.263C323.056 160.671 323.808 156.807 324.552 152.975C324.944 150.959 325.336 148.935 325.392 146.887C325.464 144.431 325.056 141.983 324.472 139.591C322.304 130.735 317.6 122.415 310.672 116.487C303.744 110.551 294.56 107.151 284.512 107.591Z" fill="#006400"/>
<path d="M318.553 126.015C315.473 128.695 311.433 130.055 308.457 133.111C311.113 136.911 312.481 141.551 312.617 146.183C312.753 150.815 311.689 155.447 309.841 159.703C309.841 159.703 321.393 164.431 321.633 163.943C322.513 162.015 323.001 159.943 323.489 157.887C323.985 155.783 324.481 153.679 324.761 151.535C325.865 142.839 323.201 133.999 318.553 126.015Z" fill="#006400"/>
<path d="M332.385 240.526H72.4812C66.7212 240.526 62.0332 235.838 62.0332 230.078V88.9744C62.0332 83.2144 66.7212 78.5264 72.4812 78.5264H332.385C338.145 78.5264 342.833 83.2144 342.833 88.9744V230.078C342.833 235.838 338.145 240.526 332.385 240.526ZM72.4812 79.3264C67.1612 79.3264 62.8332 83.6544 62.8332 88.9744V230.078C62.8332 235.398 67.1612 239.726 72.4812 239.726H332.385C337.705 239.726 342.033 235.398 342.033 230.078V88.9744C342.033 83.6544 337.705 79.3264 332.385 79.3264H72.4812Z" fill="#000001"/>
<path d="M338.449 207.903H66.4488C66.2248 207.903 66.0488 207.727 66.0488 207.503V88.9745C66.0488 85.7345 68.6808 83.1025 71.9208 83.1025H332.969C336.209 83.1025 338.841 85.7345 338.841 88.9745V207.503C338.849 207.719 338.673 207.903 338.449 207.903ZM66.8488 207.103H338.049V88.9745C338.049 86.1745 335.769 83.9025 332.977 83.9025H71.9208C69.1208 83.9025 66.8488 86.1825 66.8488 88.9745V207.103Z" fill="#000001"/>
<path d="M224.329 280.127H180.529C180.305 280.127 180.129 279.951 180.129 279.727V240.127C180.129 239.903 180.305 239.727 180.529 239.727H224.329C224.553 239.727 224.729 239.903 224.729 240.127V279.727C224.729 279.943 224.553 280.127 224.329 280.127ZM180.929 279.327H223.929V240.527H180.929V279.327Z" fill="#000001"/>
<path d="M238.929 285.326H165.929C165.705 285.326 165.529 285.15 165.529 284.926V279.726C165.529 279.502 165.705 279.326 165.929 279.326H238.929C239.153 279.326 239.329 279.502 239.329 279.726V284.926C239.329 285.142 239.153 285.326 238.929 285.326ZM166.329 284.526H238.529V280.126H166.329V284.526Z" fill="#000001"/>
<path d="M202.432 231.543C198.52 231.543 195.328 228.359 195.328 224.439C195.328 220.519 198.512 217.335 202.432 217.335C206.344 217.335 209.536 220.519 209.536 224.439C209.536 228.359 206.344 231.543 202.432 231.543ZM202.432 218.143C198.96 218.143 196.128 220.967 196.128 224.447C196.128 227.927 198.952 230.751 202.432 230.751C205.912 230.751 208.736 227.927 208.736 224.447C208.736 220.967 205.904 218.143 202.432 218.143Z" fill="#000001"/>
<path d="M285.177 187.783C263.009 187.783 244.977 169.751 244.977 147.583C244.977 125.415 263.009 107.383 285.177 107.383C307.345 107.383 325.377 125.415 325.377 147.583C325.377 169.751 307.345 187.783 285.177 187.783ZM285.177 108.183C263.449 108.183 245.777 125.855 245.777 147.583C245.777 169.311 263.449 186.983 285.177 186.983C306.905 186.983 324.577 169.311 324.577 147.583C324.577 125.855 306.905 108.183 285.177 108.183Z" fill="#000001"/>
<path d="M285.176 175.527C269.768 175.527 257.232 162.991 257.232 147.583C257.232 132.175 269.768 119.639 285.176 119.639C300.584 119.639 313.12 132.175 313.12 147.583C313.112 162.991 300.584 175.527 285.176 175.527ZM285.176 120.439C270.208 120.439 258.032 132.615 258.032 147.583C258.032 162.551 270.208 174.727 285.176 174.727C300.144 174.727 312.32 162.551 312.32 147.583C312.32 132.615 300.144 120.439 285.176 120.439Z" fill="#000001"/>
<path d="M219.144 124.223C215.44 124.223 212.416 121.207 212.416 117.495C212.416 113.783 215.432 110.767 219.144 110.767C222.856 110.767 225.872 113.783 225.872 117.495C225.872 121.207 222.848 124.223 219.144 124.223ZM219.144 111.567C215.88 111.567 213.216 114.223 213.216 117.495C213.216 120.767 215.872 123.423 219.144 123.423C222.408 123.423 225.072 120.767 225.072 117.495C225.072 114.223 222.408 111.567 219.144 111.567Z" fill="#000001"/>
<path d="M219.673 187.022C215.969 187.022 212.945 184.006 212.945 180.294C212.945 176.582 215.961 173.566 219.673 173.566C223.385 173.566 226.401 176.582 226.401 180.294C226.401 184.006 223.377 187.022 219.673 187.022ZM219.673 174.366C216.409 174.366 213.745 177.022 213.745 180.294C213.745 183.566 216.401 186.222 219.673 186.222C222.937 186.222 225.601 183.566 225.601 180.294C225.601 177.022 222.937 174.366 219.673 174.366Z" fill="#000001"/>
<path d="M219.673 153.335C215.969 153.335 212.945 150.319 212.945 146.607C212.945 142.895 215.961 139.879 219.673 139.879C223.385 139.879 226.401 142.895 226.401 146.607C226.401 150.319 223.377 153.335 219.673 153.335ZM219.673 140.687C216.409 140.687 213.745 143.343 213.745 146.615C213.745 149.887 216.401 152.543 219.673 152.543C222.937 152.543 225.601 149.887 225.601 146.615C225.601 143.343 222.937 140.687 219.673 140.687Z" fill="#000001"/>
<path d="M203.769 197.334H75.3609C75.1369 197.334 74.9609 197.158 74.9609 196.934C74.9609 196.71 75.1369 196.534 75.3609 196.534H203.769C203.993 196.534 204.169 196.71 204.169 196.934C204.169 197.158 203.985 197.334 203.769 197.334Z" fill="#000001"/>
<path d="M179.92 270.423H142.744C142.52 270.423 142.344 270.247 142.344 270.023C142.344 269.799 142.52 269.623 142.744 269.623H179.92C180.144 269.623 180.32 269.799 180.32 270.023C180.32 270.247 180.144 270.423 179.92 270.423Z" fill="#000001"/>
<path d="M50.4407 270.559H36.7047C36.4807 270.559 36.3047 270.383 36.3047 270.159C36.3047 269.935 36.4807 269.759 36.7047 269.759H50.4407C50.6647 269.759 50.8407 269.935 50.8407 270.159C50.8407 270.383 50.6647 270.559 50.4407 270.559Z" fill="#000001"/>
<path d="M284.328 120.055C284.104 120.055 283.928 119.879 283.928 119.655V107.879C283.928 107.655 284.104 107.479 284.328 107.479C284.552 107.479 284.728 107.655 284.728 107.879V119.655C284.728 119.879 284.544 120.055 284.328 120.055Z" fill="#000001"/>
<path d="M308.89 132.775C308.754 132.775 308.626 132.711 308.554 132.591C308.434 132.407 308.49 132.159 308.674 132.039L318.106 126.039C318.29 125.919 318.538 125.975 318.658 126.159C318.778 126.343 318.722 126.591 318.538 126.711L309.106 132.711C309.034 132.759 308.962 132.775 308.89 132.775Z" fill="#000001"/>
<path d="M321.385 164.582C321.337 164.582 321.289 164.574 321.233 164.55L310.361 160.174C310.153 160.094 310.057 159.862 310.137 159.654C310.217 159.446 310.449 159.35 310.657 159.43L321.529 163.806C321.737 163.886 321.833 164.118 321.753 164.326C321.697 164.494 321.545 164.582 321.385 164.582Z" fill="#000001"/>
<path d="M367.105 270.695H225.009C224.785 270.695 224.609 270.519 224.609 270.295C224.609 270.071 224.785 269.895 225.009 269.895H367.105C367.329 269.895 367.505 270.071 367.505 270.295C367.505 270.519 367.329 270.695 367.105 270.695Z" fill="#000001"/>
<path d="M300.352 117.294H232.384C232.16 117.294 231.984 117.118 231.984 116.894C231.984 116.67 232.16 116.494 232.384 116.494H300.352C300.576 116.494 300.752 116.67 300.752 116.894C300.752 117.118 300.568 117.294 300.352 117.294Z" fill="#00396D"/>
<path d="M316.081 147.126H230.937C230.713 147.126 230.537 146.95 230.537 146.726C230.537 146.502 230.713 146.326 230.937 146.326H316.081C316.305 146.326 316.481 146.502 316.481 146.726C316.481 146.95 316.297 147.126 316.081 147.126Z" fill="#00396D"/>
<path d="M280.28 180.567H231.472C231.248 180.567 231.072 180.391 231.072 180.167C231.072 179.943 231.248 179.767 231.472 179.767H280.28C280.504 179.767 280.68 179.943 280.68 180.167C280.68 180.391 280.504 180.567 280.28 180.567Z" fill="#00396D"/>
<path d="M88.6646 119.094C88.0006 119.094 87.3846 118.678 87.1526 118.014C86.8646 117.182 87.3046 116.27 88.1446 115.982L209.777 73.8703C210.313 73.6863 210.913 73.7983 211.345 74.1743C211.777 74.5503 211.977 75.1263 211.865 75.6863L206.801 101.838L299.745 60.2783C300.545 59.9183 301.497 60.2783 301.857 61.0863C302.217 61.8943 301.857 62.8383 301.049 63.1983L205.297 106.014C204.753 106.262 204.121 106.182 203.649 105.806C203.185 105.438 202.961 104.838 203.073 104.246L208.193 77.7983L89.1766 119.006C89.0166 119.062 88.8406 119.094 88.6646 119.094Z" fill="#FFDC32"/>
<path d="M301.737 73.1505C301.313 73.1505 300.881 72.9825 300.569 72.6465C299.969 71.9985 300.001 70.9906 300.641 70.3826L318.049 54.0785L294.105 56.6145C293.241 56.7105 292.441 56.0705 292.345 55.1905C292.249 54.3105 292.889 53.5265 293.769 53.4305L322.457 50.3905C323.137 50.3105 323.793 50.6865 324.081 51.3185C324.369 51.9425 324.225 52.6785 323.721 53.1505L302.833 72.7185C302.529 73.0065 302.129 73.1505 301.737 73.1505Z" fill="#FFDC32"/>
<path d="M282.088 290.959C270.856 291.983 259.944 296.255 251 303.119C248.464 305.063 245.84 307.991 246.76 311.047C247.048 311.991 247.648 312.807 248.304 313.551C252.272 318.023 258.2 320.151 263.952 321.743C270.432 323.535 277.032 324.863 283.536 326.559C287.968 327.719 292.616 329.207 295.584 332.703C297.56 335.031 298.584 338.039 300.456 340.455C304.328 345.455 311.072 347.095 317.32 348.047C332.064 350.295 347.344 350.471 361.672 346.311C363.528 345.775 365.456 345.103 366.728 343.655C367.808 342.431 368.288 340.791 368.6 339.183C370.184 331.183 368.488 322.583 363.976 315.791C361.792 312.503 358.984 309.623 357.152 306.127C355.448 302.879 354.64 299.191 352.728 296.055C350.2 291.919 345.952 289.103 341.504 287.175C333.824 283.847 325.352 282.831 316.992 282.407C309.44 282.031 301.864 282.119 294.304 282.199C290.256 282.247 286.104 282.311 282.344 283.823C281.856 284.015 281.344 284.279 281.144 284.767C280.792 285.663 281.72 286.479 282.296 287.255C282.864 288.039 282.536 289.647 282.088 290.959Z" fill="#006400"/>
<path d="M294.832 300.407C299.368 293.511 307 288.751 315.184 287.703C323.368 286.655 331.96 289.343 338.08 294.879C344.2 300.407 347.752 308.679 347.36 317.119C343.408 320.703 338.024 322.471 332.696 322.703C327.368 322.935 322.056 321.751 317.008 320.015C312.32 318.407 307.76 316.303 303.808 313.311C299.864 310.311 296.544 306.383 294.832 300.407Z" fill="white"/>
<path d="M300.617 310.327C303.089 304.311 307.137 298.959 312.257 294.951C316.289 291.791 321.033 289.447 326.097 288.631C326.097 288.631 324.537 288.007 324.337 288.063C318.785 287.007 312.929 287.599 307.697 289.751C302.473 291.903 297.889 295.607 294.873 300.503C295.761 304.071 297.713 307.375 300.617 310.327Z" fill="#00396D"/>
<path d="M331.344 323.127C326.984 323.127 322.232 322.223 316.88 320.391C311.488 318.543 307.136 316.327 303.576 313.623C298.896 310.071 295.992 305.911 294.448 300.511C294.416 300.399 294.432 300.279 294.496 300.183C299.104 293.183 306.816 288.359 315.136 287.295C323.456 286.231 332.128 288.951 338.352 294.567C344.64 300.247 348.16 308.679 347.76 317.127C347.752 317.231 347.712 317.335 347.632 317.407C343.88 320.815 338.576 322.839 332.72 323.095C332.264 323.119 331.808 323.127 331.344 323.127ZM295.264 300.471C296.768 305.607 299.568 309.583 304.056 312.983C307.552 315.631 311.832 317.807 317.144 319.631C322.968 321.631 328.056 322.503 332.68 322.295C338.288 322.047 343.36 320.143 346.968 316.927C347.296 308.775 343.88 300.647 337.816 295.167C331.768 289.703 323.32 287.063 315.24 288.095C307.208 289.119 299.76 293.743 295.264 300.471Z" fill="#000001"/>
<path d="M300.888 310.311C300.84 310.311 300.784 310.303 300.736 310.279C300.536 310.191 300.432 309.959 300.52 309.759C303.224 303.287 307.616 297.655 313.24 293.471C317.72 290.135 322.08 288.503 326.272 288.591C326.496 288.599 326.672 288.783 326.664 288.999C326.656 289.215 326.472 289.391 326.256 289.391C322.248 289.271 318.056 290.887 313.72 294.111C308.208 298.215 303.904 303.727 301.256 310.063C301.192 310.223 301.04 310.311 300.888 310.311Z" fill="#000001"/>
<path d="M313.64 293.791C313.6 293.791 313.568 293.783 313.528 293.775C311.2 293.087 308.792 292.623 306.368 292.391C305.448 292.303 304.392 292.247 303.528 292.647C303.328 292.735 303.088 292.647 303 292.447C302.904 292.247 302.992 292.007 303.2 291.919C304.248 291.439 305.432 291.503 306.448 291.599C308.92 291.831 311.384 292.303 313.76 293.007C313.968 293.071 314.096 293.295 314.032 293.503C313.976 293.679 313.816 293.791 313.64 293.791Z" fill="#000001"/>
<path d="M141.215 244.111H81.3671C81.3671 244.111 31.9271 286.503 31.7351 287.519C33.0871 288.495 34.5351 289.607 34.9031 291.231C35.0391 291.807 35.0151 292.415 35.0391 293.007C35.0871 294.519 35.3831 296.015 35.5831 297.519C36.1271 301.479 36.0551 305.487 35.9911 309.487C35.9591 311.463 35.4631 314.015 33.5111 314.327C32.7031 314.463 31.6071 314.255 31.2871 315.007C30.8711 315.967 32.3591 316.535 33.0151 317.343C33.4871 317.919 33.5271 318.727 33.5431 319.471C33.6071 322.087 33.6791 324.703 33.7431 327.319C33.8151 330.263 33.7831 333.527 31.8071 335.711C32.7671 335.935 32.7271 337.319 32.3991 338.255C32.0711 339.183 32.6871 340.935 32.6871 340.935H127.231C127.231 340.935 141.543 298.095 141.607 298.415C140.999 294.799 140.687 291.135 140.679 287.471C140.671 286.327 140.703 285.167 140.999 284.063C141.751 281.271 144.079 279.239 146.287 277.383C144.223 277.127 142.207 276.439 140.415 275.375C141.159 274.767 141.895 274.159 142.639 273.543C141.783 272.631 141.751 271.239 141.767 269.983C141.823 265.671 141.879 261.351 141.943 257.039C141.951 256.415 141.975 255.743 142.359 255.255C143.111 254.295 144.887 254.479 145.407 253.367C142.983 251.247 141.415 248.191 141.215 244.111Z" fill="white"/>
<path d="M140.775 243.895C140.775 243.895 127.735 285.975 127.759 285.783C127.927 287.423 129.063 288.919 130.591 289.527C128.487 289.615 127.311 291.919 126.567 293.887C125.663 296.279 124.839 299.239 126.511 301.183C126.815 301.535 127.191 301.839 127.359 302.271C127.567 302.799 127.415 303.391 127.263 303.935C126.583 306.383 125.863 308.887 126.071 311.415C126.279 313.943 127.623 316.551 129.975 317.503C129.215 318.063 128.455 318.615 127.687 319.175C128.239 320.471 127.855 322.015 127.055 323.175C126.255 324.335 125.095 325.191 123.959 326.031C124.775 325.775 125.671 326.279 126.151 326.991C126.623 327.703 126.775 328.575 126.903 329.423C127.375 332.351 127.839 335.287 128.311 338.215L141.319 298.455C141.319 298.455 140.583 287.447 140.703 287.351C140.855 283.295 143.255 279.391 146.807 277.423C144.471 277.327 142.159 276.679 140.111 275.559C140.935 275.687 141.695 274.967 141.927 274.167C142.159 273.367 142.007 272.511 141.887 271.687C141.223 267.055 141.615 262.351 142.015 257.695C142.119 256.439 142.415 254.919 143.599 254.487C144.327 254.223 145.455 254.215 145.471 253.439C143.095 251.439 141.535 248.479 140.775 243.895Z" fill="#000001"/>
<path d="M127.232 341.343H32.6877C32.5197 341.343 32.3677 341.239 32.3117 341.079C32.2477 340.887 31.6557 339.167 32.0237 338.135C32.2557 337.479 32.2717 336.759 32.0717 336.391C31.9917 336.239 31.8797 336.151 31.7197 336.119C31.5837 336.087 31.4717 335.983 31.4317 335.847C31.3917 335.711 31.4237 335.567 31.5197 335.463C33.3517 333.439 33.4317 330.343 33.3517 327.351L33.1517 319.503C33.1357 318.743 33.0877 318.071 32.7117 317.615C32.5277 317.391 32.2477 317.167 31.9757 316.951C31.3277 316.439 30.5277 315.799 30.9277 314.863C31.2637 314.079 32.1357 314.031 32.8317 313.999C33.0477 313.991 33.2637 313.975 33.4557 313.943C35.3277 313.639 35.5757 310.727 35.5997 309.487C35.6637 305.567 35.7357 301.519 35.1997 297.583C35.1437 297.191 35.0877 296.791 35.0237 296.399C34.8557 295.303 34.6877 294.167 34.6477 293.031L34.6397 292.671C34.6317 292.199 34.6237 291.759 34.5197 291.327C34.1917 289.887 32.9037 288.855 31.5037 287.847C31.3757 287.759 31.3197 287.599 31.3437 287.447C31.5357 286.439 62.6077 259.671 81.1117 243.807C81.1837 243.743 81.2797 243.711 81.3757 243.711H141.224C141.44 243.711 141.616 243.879 141.624 244.095C141.808 247.847 143.168 250.871 145.664 253.095C145.8 253.215 145.832 253.399 145.76 253.559C145.408 254.303 144.648 254.575 143.968 254.807C143.44 254.991 142.944 255.167 142.664 255.519C142.368 255.895 142.344 256.439 142.328 257.063L142.152 270.007C142.136 271.239 142.184 272.503 142.92 273.287C142.992 273.367 143.032 273.479 143.024 273.583C143.016 273.687 142.968 273.799 142.88 273.863L141.104 275.319C142.72 276.191 144.504 276.767 146.32 276.983C146.48 276.999 146.608 277.111 146.656 277.263C146.704 277.415 146.648 277.583 146.528 277.679C144.112 279.711 142.056 281.599 141.368 284.159C141.08 285.231 141.056 286.383 141.064 287.463C141.08 291.095 141.392 294.759 141.992 298.343C142.008 298.447 141.984 298.551 141.928 298.631C141.368 299.935 132.344 326.863 127.6 341.055C127.56 341.231 127.408 341.343 127.232 341.343ZM32.9837 340.543H126.944C127.52 338.815 130.744 329.183 133.976 319.551C139.176 304.071 140.64 299.711 141.208 298.487C140.6 294.863 140.288 291.159 140.272 287.479C140.264 286.343 140.288 285.135 140.608 283.967C141.328 281.279 143.448 279.279 145.352 277.655C143.544 277.327 141.784 276.671 140.208 275.735C140.096 275.671 140.024 275.551 140.016 275.423C140.008 275.295 140.064 275.167 140.16 275.087L142.072 273.511C141.384 272.535 141.344 271.247 141.36 270.007L141.536 257.063C141.544 256.471 141.552 255.655 142.04 255.039C142.464 254.503 143.12 254.271 143.704 254.063C144.184 253.895 144.616 253.743 144.872 253.463C142.456 251.191 141.096 248.183 140.84 244.519H81.5197C68.4477 255.727 35.4157 284.191 32.3117 287.455C33.7037 288.479 34.9357 289.567 35.2957 291.159C35.4157 291.663 35.4237 292.175 35.4317 292.663L35.4397 293.007C35.4717 294.095 35.6477 295.207 35.8077 296.279C35.8717 296.679 35.9277 297.079 35.9837 297.479C36.5277 301.471 36.4637 305.559 36.3917 309.503C36.3597 311.287 35.9597 314.343 33.5757 314.735C33.3517 314.775 33.1037 314.783 32.8637 314.799C32.1997 314.831 31.7837 314.871 31.6557 315.183C31.5117 315.519 31.8077 315.799 32.4637 316.327C32.7677 316.567 33.0877 316.823 33.3197 317.111C33.8957 317.823 33.9197 318.783 33.9357 319.487L34.1357 327.335C34.2077 330.311 34.1357 333.383 32.4237 335.607C32.5597 335.719 32.6717 335.855 32.7597 336.015C33.1437 336.711 32.9997 337.743 32.7597 338.407C32.5837 338.943 32.8077 339.967 32.9837 340.543Z" fill="#000001"/>
<path d="M32.8004 287.663C32.5844 287.663 32.4004 287.487 32.4004 287.271C32.4004 287.047 32.5764 286.871 32.7924 286.863L127.152 285.567L139.64 245.727C139.704 245.519 139.928 245.399 140.144 245.463C140.352 245.527 140.472 245.751 140.408 245.967L127.832 286.079C127.784 286.247 127.632 286.359 127.456 286.359L32.8004 287.663Z" fill="#000001"/>
<path d="M83.8724 294.095C81.8324 294.095 79.7924 294.071 77.7524 294.015C74.3444 293.919 70.8804 293.735 67.5284 293.551C58.5044 293.071 49.1764 292.567 40.1044 293.775C39.8804 293.807 39.6804 293.647 39.6564 293.431C39.6244 293.215 39.7844 293.015 40.0004 292.983C49.1444 291.775 58.5124 292.271 67.5764 292.759C70.9204 292.935 74.3844 293.127 77.7764 293.215C90.1044 293.559 102.616 292.759 114.712 291.983C114.936 291.959 115.12 292.135 115.136 292.359C115.152 292.583 114.984 292.767 114.76 292.783C104.64 293.423 94.2324 294.095 83.8724 294.095Z" fill="#000001"/>
<path d="M89.623 302.679C85.959 302.679 82.279 302.375 78.703 302.079C76.151 301.871 73.519 301.647 70.927 301.543C65.071 301.303 59.447 301.663 53.479 302.031L50.927 302.191C50.711 302.223 50.519 302.039 50.503 301.815C50.487 301.591 50.655 301.407 50.879 301.391L53.431 301.231C59.151 300.871 65.063 300.503 70.959 300.743C73.567 300.847 76.207 301.071 78.767 301.279C82.991 301.631 87.359 301.991 91.655 301.847C93.351 301.791 95.079 301.655 96.743 301.519C98.295 301.399 99.903 301.271 101.495 301.207C105.223 301.055 109.215 300.919 113.151 300.959C113.375 300.959 113.551 301.143 113.543 301.367C113.543 301.583 113.359 301.727 113.135 301.759C109.223 301.719 105.239 301.855 101.519 302.007C99.943 302.071 98.351 302.199 96.799 302.319C95.119 302.455 93.391 302.591 91.671 302.647C90.991 302.671 90.311 302.679 89.623 302.679Z" fill="#000001"/>
<path d="M39.1198 313.239C38.9518 313.239 38.7918 313.135 38.7358 312.967C38.6638 312.759 38.7838 312.535 38.9918 312.463C46.0398 310.159 53.6318 310.887 60.9678 311.591C61.7358 311.663 62.5038 311.735 63.2718 311.807C69.6238 312.391 76.3598 312.703 82.6318 311.087C82.8478 311.031 83.0638 311.159 83.1198 311.375C83.1758 311.591 83.0478 311.807 82.8318 311.863C76.4478 313.511 69.6238 313.191 63.1998 312.607C62.4318 312.535 61.6638 312.463 60.8958 312.391C53.6398 311.695 46.1358 310.975 39.2398 313.231C39.1998 313.231 39.1598 313.239 39.1198 313.239Z" fill="#000001"/>
<path d="M57.7835 322.014C57.5995 322.014 57.4395 321.894 57.3915 321.71C57.3355 321.494 57.4715 321.278 57.6875 321.23C68.5675 318.574 79.9515 319.182 90.9675 319.774C98.5035 320.174 106.296 320.59 113.872 319.966C114.088 319.95 114.288 320.11 114.304 320.334C114.32 320.558 114.16 320.75 113.936 320.766C106.304 321.398 98.4875 320.982 90.9275 320.574C79.9675 319.99 68.6395 319.382 57.8795 322.006C57.8475 322.006 57.8155 322.014 57.7835 322.014Z" fill="#000001"/>
<path d="M103.28 331.719C100.968 331.719 98.5763 331.455 96.0243 330.927C92.8323 330.263 89.9363 329.727 86.8003 329.879C85.0003 329.967 83.1923 330.207 81.4483 330.447C80.8163 330.535 80.1763 330.615 79.5363 330.695C76.1523 331.119 72.7843 331.343 69.0403 331.575C68.8323 331.599 68.6323 331.423 68.6163 331.199C68.6003 330.975 68.7683 330.791 68.9923 330.775C72.7203 330.543 76.0803 330.319 79.4403 329.903C80.0803 329.823 80.7123 329.735 81.3443 329.655C83.1043 329.415 84.9283 329.167 86.7683 329.079C89.9923 328.927 92.9523 329.471 96.1923 330.143C99.4083 330.815 102.368 331.047 105.232 330.855C106.52 330.767 107.816 330.631 109.08 330.495C110.4 330.351 111.768 330.207 113.128 330.127C113.344 330.103 113.536 330.279 113.552 330.503C113.568 330.727 113.4 330.911 113.176 330.927C111.832 331.015 110.48 331.159 109.16 331.295C107.888 331.431 106.584 331.567 105.28 331.655C104.616 331.695 103.944 331.719 103.28 331.719Z" fill="#000001"/>
<path d="M128.127 340.071C127.927 340.071 127.751 339.919 127.727 339.719C127.247 335.527 126.687 331.287 126.047 327.103C125.431 326.711 124.695 326.487 123.967 326.471C123.863 326.471 123.759 326.423 123.687 326.343C123.615 326.263 123.575 326.159 123.583 326.047C123.631 325.111 124.223 324.247 125.391 323.423C125.535 323.319 125.679 323.223 125.823 323.127C126.487 322.679 127.111 322.255 127.471 321.639C127.703 321.239 127.759 320.687 127.607 320.263C127.535 320.071 127.391 319.815 127.095 319.711C126.951 319.655 126.847 319.527 126.831 319.375C126.815 319.223 126.895 319.071 127.023 318.991L129.199 317.687C127.023 316.583 125.839 314.023 125.631 311.783C125.423 309.623 125.887 307.471 126.327 305.391C126.415 304.991 126.495 304.591 126.575 304.183C126.671 303.695 126.743 303.255 126.647 302.863C126.567 302.559 126.391 302.271 126.199 301.967C126.111 301.831 126.031 301.703 125.951 301.567C124.711 299.391 125.327 296.783 126.055 294.303C126.367 293.255 127.231 290.327 129.343 289.471C128.351 288.719 127.519 287.759 126.911 286.671C126.807 286.479 126.871 286.231 127.063 286.127C127.255 286.023 127.503 286.087 127.607 286.279C128.303 287.519 129.303 288.567 130.519 289.303C130.663 289.391 130.735 289.567 130.703 289.735C130.663 289.903 130.519 290.031 130.351 290.039C128.839 290.175 127.687 291.639 126.831 294.519C126.143 296.839 125.567 299.255 126.655 301.159C126.727 301.287 126.807 301.407 126.879 301.527C127.095 301.871 127.327 302.223 127.431 302.655C127.567 303.207 127.479 303.759 127.367 304.327C127.287 304.727 127.199 305.135 127.111 305.543C126.679 307.559 126.239 309.647 126.431 311.687C126.639 313.911 127.895 316.487 130.215 317.215C130.367 317.263 130.471 317.391 130.495 317.551C130.519 317.711 130.439 317.863 130.303 317.943L127.975 319.343C128.143 319.519 128.271 319.735 128.359 319.983C128.591 320.631 128.511 321.431 128.159 322.031C127.703 322.807 126.975 323.295 126.271 323.775C126.127 323.871 125.991 323.967 125.847 324.063C125.079 324.607 124.615 325.143 124.447 325.687C125.231 325.783 125.999 326.071 126.647 326.527C126.735 326.591 126.799 326.687 126.815 326.791C127.471 331.039 128.047 335.359 128.527 339.615C128.551 339.831 128.391 340.031 128.175 340.055C128.159 340.071 128.143 340.071 128.127 340.071Z" fill="#000001"/>
<path d="M130.895 283.751C130.847 283.751 130.799 283.743 130.759 283.727C130.551 283.647 130.447 283.423 130.527 283.215L139.231 259.799C139.311 259.591 139.535 259.487 139.743 259.567C139.951 259.647 140.055 259.871 139.975 260.079L131.271 283.495C131.215 283.647 131.063 283.751 130.895 283.751Z" fill="white"/>
<path d="M128.552 299.487C128.496 299.487 128.44 299.479 128.392 299.455C128.192 299.367 128.096 299.127 128.192 298.927C131.656 291.103 134.928 283.063 137.92 275.047C138 274.839 138.224 274.735 138.432 274.815C138.64 274.895 138.744 275.119 138.664 275.327C135.664 283.359 132.384 291.407 128.92 299.255C128.856 299.399 128.704 299.487 128.552 299.487Z" fill="white"/>
<path d="M132.392 310.631C132.336 310.631 132.28 310.623 132.232 310.599C132.032 310.511 131.936 310.271 132.032 310.071L138.16 296.223C138.248 296.023 138.488 295.927 138.688 296.023C138.888 296.111 138.984 296.351 138.888 296.551L132.76 310.399C132.688 310.543 132.544 310.631 132.392 310.631Z" fill="white"/>
<path d="M129.496 325.559C129.448 325.559 129.392 325.551 129.344 325.527C129.136 325.447 129.04 325.207 129.12 325.007C131.48 319.183 133.704 313.215 135.728 307.255C135.8 307.047 136.024 306.935 136.232 307.007C136.44 307.079 136.552 307.303 136.48 307.511C134.448 313.487 132.224 319.471 129.856 325.303C129.8 325.463 129.656 325.559 129.496 325.559Z" fill="white"/>
<path d="M111.007 312.615C110.007 312.615 109.015 312.527 108.031 312.431L107.551 312.391C102.711 311.959 97.479 311.887 91.551 312.151C91.335 312.183 91.143 311.991 91.135 311.767C91.127 311.543 91.295 311.359 91.519 311.351C97.487 311.079 102.751 311.159 107.623 311.591L108.103 311.631C109.775 311.783 111.503 311.943 113.135 311.623C113.663 311.519 114.215 311.359 114.751 311.215C116.271 310.783 117.847 310.335 119.359 310.927C119.567 311.007 119.663 311.239 119.583 311.447C119.503 311.655 119.271 311.751 119.063 311.671C117.799 311.175 116.423 311.567 114.959 311.983C114.407 312.143 113.839 312.303 113.279 312.415C112.535 312.559 111.775 312.615 111.007 312.615Z" fill="#000001"/>
<path d="M101.728 278.031C99.3843 278.031 97.0723 277.727 94.8243 276.887C94.3683 276.719 93.9123 276.519 93.4643 276.327C92.5683 275.943 91.7123 275.575 90.8083 275.375C89.3923 275.063 87.8883 275.175 86.4403 275.279L58.0483 277.399C57.8323 277.423 57.6403 277.247 57.6163 277.031C57.6003 276.807 57.7683 276.623 57.9843 276.599L86.3763 274.479C87.8803 274.367 89.4403 274.247 90.9763 274.591C91.9603 274.807 92.8883 275.207 93.7763 275.591C94.2163 275.783 94.6563 275.967 95.1043 276.135C100.144 278.023 105.432 277.119 111.024 276.167C114.824 275.519 118.752 274.847 122.592 275.135C122.816 275.151 122.976 275.343 122.96 275.567C122.944 275.791 122.744 275.951 122.528 275.935C118.784 275.655 114.904 276.319 111.16 276.959C108.04 277.487 104.856 278.031 101.728 278.031Z" fill="#000001"/>
<path d="M107.737 264.271C105.201 264.271 102.681 264.055 100.217 263.415C99.3686 263.199 98.5366 262.927 97.7206 262.663C96.9526 262.415 96.1606 262.159 95.3766 261.951C89.1846 260.311 82.4566 261.319 76.5286 262.215C76.3046 262.247 76.1046 262.095 76.0726 261.879C76.0406 261.663 76.1926 261.455 76.4086 261.423C82.4166 260.519 89.2326 259.503 95.5766 261.183C96.3846 261.399 97.1846 261.655 97.9606 261.903C98.7606 262.159 99.5926 262.423 100.409 262.639C105.401 263.935 110.705 263.447 115.825 262.975C118.249 262.751 120.745 262.519 123.209 262.479C123.457 262.487 123.609 262.647 123.617 262.871C123.617 263.095 123.449 263.271 123.225 263.279C120.801 263.319 118.313 263.551 115.905 263.775C113.217 264.015 110.465 264.263 107.737 264.271Z" fill="#000001"/>
<path d="M117.207 251.199C115.663 251.199 114.111 251.087 112.583 250.759C112.031 250.639 111.487 250.495 110.935 250.351C110.175 250.151 109.391 249.935 108.615 249.815C107.007 249.559 105.343 249.671 103.727 249.775L83.4231 251.079C83.2071 251.095 83.0151 250.927 82.9991 250.703C82.9831 250.479 83.1511 250.295 83.3751 250.279L103.679 248.975C105.335 248.871 107.047 248.759 108.743 249.023C109.559 249.151 110.367 249.367 111.143 249.575C111.679 249.719 112.207 249.863 112.751 249.975C115.775 250.623 118.935 250.383 121.983 250.159C122.207 250.151 122.399 250.311 122.415 250.527C122.431 250.743 122.263 250.935 122.047 250.959C120.455 251.071 118.831 251.199 117.207 251.199Z" fill="#000001"/>
</svg>
