<svg width="133" height="133" viewBox="0 0 133 133" fill="none" xmlns="http://www.w3.org/2000/svg">
<path d="M29.7222 64.5872C29.7648 65.4437 29.8526 66.3055 30.1106 67.1222C30.3686 67.9388 30.8075 68.7155 31.4645 69.2688C31.14 69.3965 30.8022 69.4843 30.4591 69.5348C30.3367 69.5534 30.2064 69.564 30.092 69.5162C29.9271 69.4443 29.8419 69.2688 29.7728 69.1039C29.6398 68.7794 29.5227 68.4495 29.4296 68.1117C29.3951 68.5958 29.427 69.0853 29.5281 69.5587C29.0014 69.3007 28.4694 69.0533 27.8576 68.8325C27.6155 68.9895 27.2963 68.9576 27.0277 68.8512C26.759 68.7448 26.5223 68.5745 26.2589 68.4601C25.9956 68.3431 25.6844 68.2846 25.4263 68.4123C25.1337 68.5559 24.9928 68.8884 24.8864 69.1943C24.7826 69.5029 24.6709 69.838 24.4049 70.0242C24.224 70.1493 23.9979 70.1865 23.7771 70.2104C23.5377 70.237 23.293 70.2503 23.0589 70.1945C22.7424 70.1173 22.4684 69.9125 22.1599 69.8035C21.8114 69.6811 21.3938 69.6651 21.157 69.2581C20.4575 68.9735 19.7978 68.5905 19.2046 68.125C19.5876 67.867 19.7951 67.4254 19.9866 67.0078C19.6967 67.3164 19.3216 67.5451 18.9333 67.6223C18.779 67.5425 18.6247 67.46 18.4891 67.3509C18.3534 67.2419 18.239 67.1009 18.263 66.8934C20.5452 65.5554 22.104 63.0524 22.2982 60.4137C22.3035 60.3445 22.3088 60.2727 22.3434 60.2141C22.4152 60.0944 22.6014 60.0439 22.6094 59.9056C22.6147 59.8285 22.5589 59.762 22.5216 59.6928C22.3993 59.464 22.487 59.1821 22.5828 58.94C22.7052 58.6235 22.8461 58.299 23.1095 58.0862C23.3436 57.9 23.6468 57.8255 23.9421 57.7856C25.0114 57.6366 26.1844 57.8202 27.1048 57.2562C27.2431 57.1711 27.3761 57.07 27.5357 57.0275C27.6847 56.9876 27.8443 57.0089 27.9959 57.0434C28.4082 57.1365 28.7966 57.3307 29.1291 57.6739C29.4589 57.6951 29.7621 57.4717 30.092 57.4823C30.3819 57.4903 30.6426 57.6845 30.7969 57.9292C30.9512 58.1739 31.0123 58.4665 31.0496 58.7538C31.2464 60.3285 30.6958 61.9804 29.5946 63.1215L29.7222 64.5872Z" fill="#00396D"/>
<path d="M19.8483 70.0242C19.9201 69.7157 19.6781 69.3752 19.0689 69.3246C17.1378 69.5268 15.1561 69.7263 13.2808 69.2236C13.0946 69.173 12.9004 69.1145 12.7089 69.1491C12.5173 69.1837 12.3312 69.3406 12.2274 69.6465C11.8018 79.1879 12.2513 89.0539 16.2094 97.7467C16.6111 98.6272 17.0926 99.5422 17.9305 100.021C18.5822 100.393 19.3615 100.449 20.1117 100.479C22.0215 100.553 23.9341 100.505 25.8386 100.335C25.8386 100.335 34.5395 99.7151 34.4996 99.5609C35.4412 99.4412 36.3962 99.2762 37.2367 98.8373C38.0773 98.3984 38.8008 97.6403 38.979 96.7093C39.1546 95.7863 38.7396 94.7782 37.9629 94.2488C37.274 93.7807 36.4042 93.6982 35.5742 93.6291C31.8556 93.3232 28.1369 93.0146 24.4182 92.7087C23.2664 92.6129 22.0535 92.4986 21.1012 91.8415C20.2686 91.267 19.7472 90.3493 19.303 89.4422C17.5075 85.7661 16.5419 81.6883 16.502 77.5972C16.4887 76.23 16.5818 74.8415 17.0287 73.5487C17.4782 72.256 18.3188 71.059 19.8483 70.0242Z" fill="#00396D"/>
<path d="M23.9891 111.664C23.8428 111.635 23.6939 111.744 23.6327 111.879C23.5715 112.015 23.5768 112.172 23.6008 112.321C23.6566 112.688 23.7976 113.039 23.8136 113.412C23.8348 113.93 23.6034 114.43 23.2975 114.851C22.9916 115.271 22.6139 115.633 22.2841 116.034C22.167 116.178 22.0526 116.327 21.9915 116.503C21.893 116.774 21.925 117.074 21.9782 117.356C22.034 117.652 22.1165 117.944 22.2202 118.229C22.3027 118.455 22.4091 118.686 22.6006 118.835C22.7017 118.915 22.8214 118.968 22.9464 119.006C23.2895 119.112 23.654 119.12 24.0131 119.115C24.8057 119.104 25.5958 119.045 26.3805 118.934C26.6012 118.902 26.8247 118.867 27.0268 118.774C27.1173 118.734 27.2024 118.681 27.2716 118.609C27.487 118.388 27.495 118.005 27.3061 117.761C27.104 117.497 26.7449 117.412 26.415 117.412C26.0852 117.412 25.7527 117.476 25.4229 117.441C26.1411 116.327 26.9178 115.247 27.7504 114.215C27.1093 114.114 26.5268 113.797 25.9602 113.478C25.6623 113.31 25.3617 113.138 25.1116 112.904C24.8935 112.701 24.718 112.459 24.5451 112.22C24.42 112.05 24.3642 111.736 23.9891 111.664Z" fill="#00396D"/>
<path d="M45.1067 113.72C45.2876 114.024 45.3142 114.399 45.261 114.747C45.2078 115.096 45.0801 115.428 44.9657 115.763C44.7928 116.271 44.6465 116.801 44.6891 117.335C44.7316 117.87 44.9923 118.413 45.4605 118.671C45.4605 118.671 49.4239 118.625 49.5143 118.546C50.0862 118.024 50.722 117.577 51.4056 117.213C51.6742 117.069 51.9589 116.931 52.1371 116.684C52.2648 116.505 52.3206 116.29 52.4217 116.096C52.5387 115.87 52.7143 115.675 52.8393 115.455C52.9643 115.231 53.0335 114.952 52.9244 114.723C52.85 114.566 52.7037 114.457 52.5919 114.322C52.4323 114.13 52.3472 113.88 52.3499 113.63C52.3552 113.393 52.4244 113.119 52.2594 112.949C52.153 112.84 51.9801 112.824 51.8338 112.867C51.6875 112.909 51.5652 113.002 51.4428 113.095C50.6209 113.712 49.7856 114.311 48.9344 114.888C48.7802 114.992 48.6099 115.098 48.4264 115.077C48.3891 115.072 48.3519 115.061 48.328 115.032C48.3067 115.002 48.304 114.965 48.304 114.928C48.2854 114.234 48.3333 113.537 48.453 112.851C48.0513 113.21 47.5379 113.425 47.0113 113.542C46.4872 113.657 45.9446 113.68 45.1067 113.72Z" fill="#00396D"/>
<path d="M16.5684 95.925C17.1057 93.2677 18.9624 90.9854 21.2845 89.5862C21.766 89.2963 22.3299 89.033 22.8699 89.1872C23.08 89.2484 23.2849 89.3708 23.503 89.3495C23.8594 89.3123 24.0483 88.9266 24.2744 88.6473C24.5164 88.3467 24.8835 88.1312 25.2692 88.1365C25.7081 88.1419 26.2002 88.4105 26.6631 88.1286C28.3202 87.0805 30.1955 86.4288 32.0708 85.8543C32.7944 85.6335 33.5338 85.418 34.2919 85.426C35.05 85.434 35.8374 85.6947 36.3215 86.2772C36.4731 86.4581 36.6008 86.6762 36.8136 86.7773C37.0397 86.8837 37.3057 86.8331 37.5478 86.7799C38.508 86.5725 39.4869 86.349 40.4658 86.4474C41.4447 86.5485 42.4395 87.0353 42.921 88.0089C43.2295 88.2882 43.4237 88.6898 43.453 89.1048C43.453 89.1048 49.9966 111.217 49.9647 111.305C49.8476 111.88 49.4327 112.361 48.9379 112.678C48.4431 112.994 47.8712 113.167 47.3047 113.321C46.7248 113.478 46.1343 113.619 45.5331 113.654C44.9319 113.688 44.3148 113.614 43.7722 113.353C43.6578 113.3 43.5461 113.236 43.4689 113.135C43.3226 112.946 43.3359 112.678 43.3891 112.444C43.4423 112.21 43.5275 111.975 43.4982 111.739C43.4583 111.43 43.2322 111.18 43.0008 110.967C43.0008 110.967 38.1755 94.6642 38.1809 94.7121C37.5292 95.2068 36.6913 95.4462 35.8773 95.3691C35.8773 95.3691 29.863 113.609 29.8577 113.75C28.799 114.279 27.5063 114.258 26.4157 113.8C25.3251 113.343 24.4313 112.473 23.8408 111.449C23.6812 111.169 23.5402 110.877 23.4711 110.563C23.3327 109.938 23.5056 109.254 23.9233 108.767C23.9233 108.767 26.8466 96.4384 26.8439 96.4597C25.7108 96.7762 24.4952 96.7975 23.3487 96.5209C23.2556 96.4996 23.1598 96.4756 23.0667 96.4996C22.9949 96.5182 22.9337 96.5661 22.8752 96.614C22.4204 96.9837 22.0107 97.4066 21.5612 97.7817C21.109 98.1568 20.6009 98.4839 20.029 98.6116C19.4571 98.7393 18.8107 98.6409 18.3745 98.2472L16.5684 95.925Z" fill="white"/>
<path d="M19.4103 70.3355C19.3624 70.2344 19.2507 70.1785 19.1416 70.1652C19.0326 70.1546 18.9208 70.1812 18.8144 70.2078C18.2186 70.3647 17.6387 70.5695 17.0642 70.7903C16.9312 70.8409 16.7955 70.8967 16.6146 70.9845C15.4628 72.7534 15.117 75.0277 15.6464 77.1743C15.3724 79.6428 15.516 82.1379 15.6677 84.617C15.7528 86.0215 15.8406 87.4286 16.0879 88.8145C16.2289 89.6045 16.4204 90.3919 16.7689 91.0675C17.0668 91.5623 16.6439 92.1767 16.6519 92.7539C16.6545 93.0359 16.7662 93.3072 16.8061 93.5865C16.9125 94.3154 16.5481 95.0522 16.6625 95.781C17.5563 93.8552 18.857 92.1182 20.453 90.7164C21.1579 90.0993 22.0277 89.5141 22.9534 89.6524C23.2593 89.6976 23.5519 89.82 23.8605 89.8492C24.169 89.8758 24.5228 89.7747 24.6585 89.4981C24.7143 89.3864 24.7276 89.2587 24.7489 89.1363C24.7941 88.8597 24.8739 88.5884 24.9537 88.3197C25.2782 87.2291 25.6028 86.1412 25.9273 85.0506C25.9273 85.0506 28.8692 76.0704 28.8852 76.0358C29.0767 75.7645 29.4039 75.6156 29.7311 75.565C30.0583 75.5118 30.3934 75.5437 30.7233 75.5624C31.2632 75.5916 31.8059 75.5836 32.2767 75.4427C32.0905 74.4079 31.883 73.3226 31.2207 72.506C30.8589 72.0591 30.3801 71.7187 29.8721 71.4447C28.1856 70.5376 26.2172 70.3594 24.3073 70.2184C22.9055 70.1094 21.4851 70.0189 19.4103 70.3355Z" fill="#005596"/>
<path d="M18.8296 100.396C18.8296 100.396 13.0149 118.788 13.1266 118.78C13.1904 118.907 13.3367 118.977 13.4777 118.987C13.6213 118.998 13.7597 118.958 13.898 118.918C14.0815 118.865 14.2651 118.812 14.4513 118.758L20.9683 101.386L20.9523 101.764C20.9523 101.764 18.4679 118.74 18.5344 118.785C18.7365 118.822 18.944 118.86 19.1488 118.83C19.3536 118.801 19.5558 118.692 19.6463 118.506C19.6463 118.506 23.6096 100.426 23.5671 100.412C22.0509 100.686 20.5001 100.519 18.8296 100.396Z" fill="#005596"/>
<path d="M34.1653 100.707C33.6253 101.933 33.2396 103.229 33.0215 104.551C33.0215 104.551 36.8785 118.673 36.9982 118.699C37.2003 118.779 37.4158 118.859 37.6286 118.827C37.8441 118.792 38.0489 118.598 38.0116 118.385L34.1653 100.707Z" fill="#005596"/>
<path d="M42.9274 87.8143C43.0923 87.3727 43.2573 86.9285 43.4222 86.487C43.4222 86.487 47.4015 77.0386 47.4015 77.0041C47.5212 76.7514 47.6303 76.4268 47.4468 76.2194C47.3191 76.0757 47.1036 76.0571 46.9121 76.0491C41.2862 75.8257 35.6576 75.682 30.0264 75.6182C29.6593 75.6129 29.263 75.6209 28.9704 75.8416C28.7363 76.0199 28.6113 76.3045 28.5129 76.5811C28.1618 77.5467 27.9649 78.5628 27.7096 79.5577C26.9382 82.5821 25.6481 85.4629 24.9831 88.5139C24.882 88.9741 24.9033 89.6151 25.3608 89.7242C25.3608 89.7242 30.0158 87.527 30.1381 87.5217C31.0292 87.12 31.9336 86.7131 32.9045 86.588C33.8754 86.463 34.9315 86.6652 35.6337 87.3461C36.179 87.8728 36.4503 88.6176 36.6791 89.3411C37.4053 88.4048 38.3442 87.5882 39.4774 87.2397C40.6132 86.8913 41.9539 87.0855 42.9274 87.8143Z" fill="#00FF85"/>
<path d="M24.3499 61.4747C25.2915 61.5678 26.2598 61.4002 27.1163 60.9906C27.9701 60.5836 28.7123 59.9372 29.3321 59.1445C29.5874 59.2616 29.8561 59.3893 30.021 59.618C30.1487 59.7936 30.1992 60.0117 30.2365 60.2271C30.4971 61.7433 30.138 63.2994 29.638 64.7571C29.4198 65.3929 29.1725 66.0605 29.3001 66.7202C29.2097 66.6963 29.1139 66.6777 29.0262 66.7122C28.941 66.7468 28.8772 66.8559 28.9065 67.0288C28.5633 67.6672 28.2228 68.3056 27.8797 68.9413C27.776 69.1355 27.6616 69.3403 27.4701 69.452C27.2014 69.609 26.8529 69.5345 26.579 69.3855C26.305 69.2366 26.0709 69.0238 25.7916 68.8828C25.7171 68.8455 25.624 68.8136 25.5522 68.8588C25.5096 68.8854 25.4857 68.936 25.4671 68.9839C25.3234 69.3243 25.2303 69.6835 25.1851 70.0505C25.1851 70.0505 27.2307 70.399 27.345 70.5267C27.51 70.5001 27.6243 70.7182 27.5685 70.8751C27.51 71.0321 27.3557 71.1278 27.212 71.2103C27.0125 71.3247 26.813 71.4391 26.6162 71.5561C26.3608 71.7051 26.1028 71.8513 25.8288 71.9604C25.2383 72.1892 24.5866 72.2131 23.9562 72.1785C22.6581 72.1041 21.3627 71.7769 20.2455 71.1119C19.8518 70.8778 19.4741 70.5958 19.2214 70.2128C19.2028 70.1835 19.2028 70.125 19.2374 70.1357C19.2374 70.1357 21.1845 69.3669 21.2802 69.4068C21.5622 69.5478 21.8628 69.6515 22.1713 69.7154C22.1314 69.2472 22.1288 68.7737 22.166 68.3056C22.2033 68.5769 22.3177 68.8376 22.4719 69.0637C22.565 69.202 22.6767 69.327 22.8018 69.4361C23.1555 69.742 23.637 69.8936 24.0812 69.8617C23.23 68.138 22.9614 66.135 23.3258 64.2491C23.387 63.9272 23.4827 63.5841 23.8179 63.3367C23.6264 62.8712 23.6184 62.3312 23.7966 61.8604C23.8392 61.7487 23.895 61.6369 23.9801 61.5518C24.0626 61.472 24.177 61.4561 24.3499 61.4747Z" fill="#00FF85"/>
<path d="M29.1662 66.2288C29.1529 66.2288 29.1369 66.2262 29.121 66.2208C29.0518 66.1969 29.0146 66.1198 29.0385 66.0506C29.504 64.7259 29.9722 63.3108 30.1637 61.8478C30.2222 61.3956 30.2648 60.8663 30.1344 60.3688C30.0014 59.8634 29.6902 59.4565 29.2965 59.2809C29.23 59.2516 29.1981 59.1718 29.23 59.1053C29.2593 59.0388 29.3391 59.0069 29.4056 59.0388C29.8711 59.2463 30.2408 59.7198 30.3925 60.3023C30.5334 60.8423 30.4882 61.4036 30.427 61.8824C30.2329 63.3693 29.7594 64.8004 29.2886 66.1384C29.2726 66.1942 29.2221 66.2288 29.1662 66.2288Z" fill="#000001"/>
<path d="M29.9143 67.2503C29.8904 67.2503 29.8691 67.245 29.8478 67.2317L27.3182 65.766C27.2543 65.7288 27.233 65.649 27.2703 65.5851C27.3075 65.5213 27.3873 65.5 27.4512 65.5373L29.1695 66.5321C28.4859 65.6171 28.1986 64.4068 28.4433 63.2869C28.4593 63.2151 28.5311 63.1699 28.6029 63.1858C28.6748 63.2018 28.72 63.2736 28.704 63.3454C28.4114 64.6834 28.9328 66.157 29.9994 67.0162C30.0526 67.0588 30.0659 67.1386 30.026 67.1944C29.9968 67.229 29.9569 67.2503 29.9143 67.2503Z" fill="#000001"/>
<path d="M27.0325 69.6649C26.7957 69.6649 26.5324 69.5798 26.2611 69.4149C25.7264 69.0877 25.3141 68.6089 25.0135 68.2312C24.3991 67.4518 24.0214 66.7602 23.8325 66.0553C23.8139 65.9835 23.8564 65.9117 23.9256 65.8931C23.9974 65.8744 24.0692 65.917 24.0879 65.9862C24.2687 66.6538 24.6278 67.3162 25.221 68.0663C25.5056 68.428 25.8993 68.8829 26.3967 69.1888C26.5962 69.3111 26.9793 69.4947 27.2878 69.3431C27.4395 69.2686 27.5538 69.1196 27.6602 68.9733C28.1497 68.2897 28.5301 67.5369 28.7907 66.7389C28.8147 66.6698 28.8865 66.6299 28.9583 66.6538C29.0275 66.6778 29.0674 66.7522 29.0434 66.8214C28.7748 67.646 28.3811 68.4227 27.8757 69.1276C27.756 69.2925 27.6124 69.4787 27.4049 69.5798C27.2932 69.6357 27.1681 69.6649 27.0325 69.6649Z" fill="#000001"/>
<path d="M25.0708 71.0435C24.999 71.0435 24.9378 70.985 24.9378 70.9132C24.9298 70.1896 25.0682 69.4502 25.3368 68.7772C25.3634 68.708 25.4406 68.6761 25.5097 68.7027C25.5789 68.7293 25.6108 68.8064 25.5842 68.8756C25.3262 69.5167 25.1958 70.2189 25.2038 70.9078C25.2038 70.9823 25.1453 71.0435 25.0708 71.0435Z" fill="#000001"/>
<path d="M29.7133 61.5573C29.708 61.5573 29.7054 61.5573 29.7 61.5573C29.6282 61.5493 29.5724 61.4854 29.5803 61.411C29.6149 61.0598 29.6389 60.6821 29.5936 60.3124C29.5591 60.0357 29.4872 59.807 29.3755 59.6208C29.2931 60.1448 29.059 60.6475 28.7079 61.0412C28.66 61.0971 28.5749 61.0997 28.519 61.0519C28.4631 61.004 28.4605 60.9189 28.5084 60.863C28.8941 60.4321 29.1228 59.8522 29.1388 59.2723C29.1414 59.2191 29.1734 59.1739 29.2212 59.1526C29.2691 59.134 29.325 59.1446 29.3649 59.1792C29.6335 59.4399 29.7931 59.799 29.8543 60.2751C29.9049 60.6741 29.8783 61.0678 29.8437 61.4349C29.841 61.5041 29.7825 61.5573 29.7133 61.5573Z" fill="#000001"/>
<path d="M24.7425 63.0253C24.7372 63.0253 24.7292 63.0253 24.7239 63.0227C24.6521 63.012 24.6016 62.9455 24.6122 62.8711C24.6494 62.6184 24.559 62.3497 24.3781 62.1715C24.3249 62.1209 24.3249 62.0358 24.3755 61.9826C24.426 61.9294 24.5111 61.9294 24.5643 61.98C24.8064 62.2167 24.9261 62.5731 24.8755 62.9083C24.8649 62.9801 24.8064 63.0253 24.7425 63.0253Z" fill="#000001"/>
<path d="M24.3698 63.4299C24.3219 63.4299 24.2767 63.4033 24.2527 63.3607C24.1171 63.1107 24.1357 62.7808 24.2953 62.5468C24.3379 62.4856 24.4203 62.4696 24.4788 62.5122C24.54 62.5547 24.556 62.6372 24.5134 62.6957C24.407 62.85 24.3964 63.0681 24.4842 63.233C24.5187 63.2969 24.4948 63.3793 24.431 63.4139C24.415 63.4246 24.3911 63.4299 24.3698 63.4299Z" fill="#000001"/>
<path d="M24.474 64.2413C24.357 64.2413 24.2399 64.2174 24.1309 64.1695C23.8915 64.0631 23.7106 63.837 23.6574 63.579C23.6414 63.5071 23.6893 63.4353 23.7611 63.422C23.8329 63.4061 23.9048 63.4539 23.9181 63.5258C23.9553 63.7013 24.0803 63.8529 24.2426 63.9274C24.4048 63.9992 24.6017 63.9913 24.7586 63.9035C24.8225 63.8662 24.9049 63.8902 24.9395 63.954C24.9767 64.0179 24.9528 64.1003 24.889 64.1349C24.7613 64.2067 24.6176 64.2413 24.474 64.2413Z" fill="#000001"/>
<path d="M24.1953 64.9757C24.19 64.9757 24.182 64.9757 24.1767 64.9757C24.0836 64.9704 24.0011 64.9305 23.9453 64.864C23.9 64.8081 23.908 64.723 23.9639 64.6778C24.0197 64.6299 24.1049 64.6405 24.1501 64.6964C24.1607 64.707 24.1767 64.7097 24.19 64.7123C24.2246 64.7177 24.2618 64.699 24.2831 64.6778C24.331 64.6299 24.3602 64.5448 24.3655 64.4251C24.3735 64.2362 24.3363 64.042 24.2591 63.8691C24.2272 63.8026 24.2565 63.7228 24.3256 63.6936C24.3921 63.6616 24.4719 63.6909 24.5012 63.7601C24.5996 63.9729 24.6448 64.2069 24.6342 64.4384C24.6262 64.6299 24.573 64.7709 24.4746 64.8666C24.3975 64.9358 24.2964 64.9757 24.1953 64.9757Z" fill="#000001"/>
<path d="M28.2279 62.43C28.1933 62.43 28.1587 62.4167 28.1321 62.3874C27.8528 62.0948 27.406 61.9778 27.0203 62.0975C26.9511 62.1188 26.8766 62.0789 26.8553 62.0097C26.8341 61.9405 26.874 61.8661 26.9431 61.8448C27.4246 61.6958 27.9805 61.8421 28.3263 62.2065C28.3769 62.2597 28.3742 62.3449 28.321 62.3954C28.2917 62.4167 28.2598 62.43 28.2279 62.43Z" fill="#000001"/>
<path d="M29.9972 62.7171C29.9652 62.7171 29.9307 62.7065 29.9067 62.6825C29.8163 62.5974 29.6886 62.5682 29.5982 62.5575C29.4705 62.5442 29.3348 62.5602 29.2018 62.5761C29.13 62.5868 29.0635 62.5336 29.0555 62.4591C29.0475 62.3846 29.0981 62.3208 29.1726 62.3128C29.3189 62.2968 29.4705 62.2782 29.6248 62.2942C29.8136 62.3128 29.9732 62.3793 30.0876 62.4884C30.1408 62.5389 30.1435 62.6214 30.0929 62.6772C30.0663 62.7012 30.0317 62.7171 29.9972 62.7171Z" fill="#000001"/>
<path d="M27.1067 66.7714C26.9631 66.7714 26.8194 66.7634 26.6785 66.7501C26.1651 66.6996 25.8193 66.524 25.649 66.2261C25.548 66.0452 25.5134 65.8218 25.5586 65.593C25.5932 65.4121 25.673 65.2286 25.8033 65.0371C25.8246 65.0052 25.8618 64.9839 25.8991 64.9786C25.939 64.9732 25.9762 64.9892 26.0055 65.0158L27.5589 66.5293C27.5962 66.5666 27.6095 66.6198 27.5908 66.6703C27.5722 66.7182 27.5297 66.7528 27.4765 66.7581C27.3541 66.7661 27.2317 66.7714 27.1067 66.7714ZM25.939 65.3217C25.8778 65.4334 25.8379 65.5398 25.8193 65.6436C25.7874 65.8111 25.8086 65.9707 25.8805 66.0958C26.0028 66.3112 26.2821 66.4442 26.7051 66.4868C26.854 66.5027 27.003 66.5081 27.1573 66.5054L25.939 65.3217Z" fill="#000001"/>
<path d="M27.3698 63.4084C27.3432 63.4084 27.3193 63.4031 27.3007 63.3951C27.2661 63.3818 27.2182 63.3526 27.189 63.2861C27.1437 63.1877 27.157 63.0281 27.2182 62.8658C27.2555 62.7674 27.3087 62.6796 27.3645 62.6158C27.4789 62.4907 27.5826 62.504 27.6332 62.5227C27.6678 62.536 27.7156 62.5652 27.7449 62.6317C27.7901 62.7301 27.7768 62.8897 27.7156 63.052C27.6784 63.1504 27.6252 63.2382 27.5693 63.302C27.4922 63.3845 27.423 63.4084 27.3698 63.4084Z" fill="#000001"/>
<path d="M29.2413 63.7627C29.2147 63.7627 29.1908 63.7573 29.1721 63.7494C29.0232 63.6935 28.9913 63.478 29.0897 63.2174C29.1269 63.1189 29.1801 63.0312 29.236 62.9673C29.3504 62.8423 29.4541 62.8556 29.5046 62.8742C29.6536 62.9301 29.6855 63.1455 29.5871 63.4062C29.5499 63.5046 29.4967 63.5924 29.4408 63.6563C29.3663 63.7414 29.2945 63.7627 29.2413 63.7627Z" fill="#000001"/>
<path d="M31.3202 67.7209C31.2883 67.7209 31.2537 67.7076 31.2271 67.6837C30.3333 66.8272 29.7641 65.6275 29.6683 64.3959C29.663 64.3215 29.7162 64.2576 29.7907 64.2523C29.8678 64.247 29.929 64.3028 29.9343 64.3747C30.0248 65.5451 30.5621 66.6809 31.4106 67.4922C31.4638 67.5427 31.4665 67.6278 31.416 67.681C31.392 67.7076 31.3548 67.7209 31.3202 67.7209Z" fill="#000001"/>
<path d="M23.9629 72.354C22.1221 72.354 20.3905 71.6944 19.2254 70.5266C19.1749 70.4734 19.1749 70.391 19.2254 70.3378C19.2786 70.2846 19.3611 70.2846 19.4143 70.3378C20.6778 71.6066 22.6435 72.2476 24.6731 72.0535C25.1625 72.0082 25.5748 71.9205 25.9339 71.7928C26.45 71.6066 26.9554 71.3033 27.5698 70.8112C27.6283 70.766 27.7108 70.774 27.756 70.8325C27.8012 70.8884 27.7933 70.9735 27.7347 71.0187C27.0963 71.5321 26.567 71.8486 26.0217 72.0428C25.6387 72.1811 25.2051 72.2716 24.6944 72.3195C24.4523 72.3407 24.2049 72.354 23.9629 72.354Z" fill="#000001"/>
<path d="M21.2055 82.7045C21.1496 82.7045 21.0964 82.6673 21.0778 82.6114C20.2745 80.0552 19.543 77.4377 18.9046 74.8309C18.886 74.7591 18.9312 74.6873 19.003 74.6713C19.0748 74.6554 19.1466 74.6979 19.1626 74.7697C19.801 77.3686 20.5298 79.9807 21.3332 82.5343C21.3544 82.6034 21.3172 82.6779 21.2454 82.7019C21.2321 82.7019 21.2188 82.7045 21.2055 82.7045Z" fill="#000001"/>
<path d="M18.1592 85.3455C18.1273 85.3455 18.0954 85.3349 18.0688 85.3109C17.7017 84.9705 17.5793 84.4624 17.4809 84.0528L15.7572 76.9266C15.7413 76.8548 15.7838 76.783 15.8557 76.767C15.9275 76.7511 15.9993 76.7936 16.0153 76.8654L17.7389 83.9916C17.8294 84.3666 17.9438 84.8321 18.2497 85.1168C18.3029 85.1673 18.3055 85.2498 18.2576 85.3056C18.231 85.3322 18.1965 85.3455 18.1592 85.3455Z" fill="#000001"/>
<path d="M22.3655 88.1068C22.3415 88.1068 22.3149 88.0988 22.2937 88.0855C21.4744 87.5615 20.6631 87.0055 19.8837 86.4283C19.8252 86.3831 19.8119 86.3006 19.8571 86.2421C19.8997 86.1836 19.9848 86.1703 20.0433 86.2155C20.8174 86.7901 21.6233 87.3433 22.44 87.862C22.5011 87.9019 22.5198 87.9844 22.4799 88.0456C22.4533 88.0828 22.4107 88.1068 22.3655 88.1068Z" fill="#000001"/>
<path d="M24.6398 85.5236C24.6159 85.5236 24.5919 85.5183 24.5707 85.505C24.1903 85.2763 23.8312 85.0103 23.504 84.7123C23.4508 84.6618 23.4455 84.5793 23.496 84.5235C23.5465 84.4676 23.629 84.465 23.6849 84.5155C23.9987 84.8028 24.3445 85.0581 24.709 85.2789C24.7728 85.3162 24.7914 85.3986 24.7542 85.4625C24.7276 85.4997 24.685 85.5236 24.6398 85.5236Z" fill="#000001"/>
<path d="M24.7459 89.0753C24.6794 89.0753 24.6208 89.0247 24.6129 88.9556C24.5863 88.7002 24.6581 88.4369 24.8097 88.2294C26.1051 84.0798 28.5523 76.2408 28.6215 75.9934C28.6268 75.9721 28.6348 75.9508 28.6507 75.9349C28.9008 75.6396 29.2679 75.4481 29.6536 75.4082C35.58 75.5598 46.8052 75.8577 47.1457 75.8365C47.167 75.8338 47.1909 75.8365 47.2149 75.8471C47.4463 75.9482 47.6272 76.1636 47.6857 76.411C47.7416 76.6504 47.6804 76.9164 47.5288 77.1079L43.2807 87.3649C43.2515 87.4314 43.1743 87.466 43.1078 87.4367C43.0413 87.4075 43.0068 87.3303 43.036 87.2638L47.292 76.9909C47.2973 76.9776 47.3053 76.967 47.3133 76.9563C47.4224 76.826 47.4676 76.6398 47.4277 76.4749C47.3878 76.3073 47.2681 76.161 47.1111 76.0945C46.5951 76.1078 43.9484 76.0493 29.6669 75.6795C29.3663 75.7114 29.063 75.8684 28.8556 76.1131L28.8476 76.1051C28.7625 76.4722 28.3768 77.7144 26.9749 82.2045C26.0173 85.2715 25.0597 88.3358 25.0597 88.3358C25.0544 88.3518 25.0491 88.3651 25.0385 88.3784C24.9188 88.5353 24.8602 88.7375 24.8815 88.9343C24.8895 89.0061 24.8363 89.0726 24.7618 89.0806C24.7565 89.0753 24.7512 89.0753 24.7459 89.0753Z" fill="#000001"/>
<path d="M17.1376 94.9775C17.119 94.9775 17.1004 94.9748 17.0817 94.9668C17.0152 94.9376 16.986 94.8577 17.0152 94.7912C18.0154 92.5888 19.7497 90.7614 21.8937 89.6442C21.9602 89.6096 22.04 89.6362 22.0719 89.7C22.1065 89.7665 22.0799 89.8463 22.016 89.8782C19.9226 90.9688 18.2335 92.751 17.2573 94.9003C17.2387 94.9482 17.1881 94.9775 17.1376 94.9775Z" fill="#000001"/>
<path d="M28.1958 114.3C27.8128 114.3 27.4085 114.241 27.0015 114.122C25.1741 113.584 23.6978 112.041 23.2429 110.19C23.2402 110.179 23.2402 110.169 23.2402 110.158C23.2402 110.1 23.2429 109.799 23.2589 109.714C23.352 109.451 23.461 109.214 23.5834 108.988C23.7323 108.4 27.5734 93.355 27.6213 93.1315C27.6239 93.1182 27.6292 93.1023 27.6372 93.0916C27.733 92.924 27.85 92.7166 27.8367 92.5197C27.8314 92.4399 27.8048 92.3575 27.7755 92.2697L27.7543 92.2005C27.6399 91.8334 27.6585 91.5142 27.8048 91.2775C27.874 91.1684 27.9644 91.0833 28.0522 91.0035C28.116 90.945 28.1772 90.8891 28.2251 90.8253C28.39 90.6098 28.4086 90.3146 28.4139 89.9768C28.4166 89.9049 28.4751 89.8464 28.5469 89.8464H28.5496C28.6241 89.8491 28.6826 89.9076 28.6799 89.9821C28.6746 90.28 28.6666 90.687 28.4352 90.9876C28.374 91.0674 28.3022 91.1339 28.2304 91.1977C28.1533 91.2695 28.0788 91.336 28.0309 91.4158C27.8979 91.6286 27.9458 91.9159 28.0096 92.1181L28.0309 92.1846C28.0628 92.283 28.0974 92.3841 28.1054 92.4984C28.124 92.7698 27.9857 93.0198 27.8793 93.206C27.7144 93.8923 24.2431 107.49 23.8387 109.068C23.8361 109.078 23.8308 109.089 23.8254 109.1C23.7057 109.318 23.5993 109.549 23.5142 109.783C23.5116 109.802 23.5062 109.988 23.5062 110.142C23.9451 111.895 25.3443 113.356 27.0786 113.866C28.1559 114.183 29.188 114.047 29.8503 113.504C29.9913 112.97 30.8904 110.094 36.1865 93.6795C36.9126 91.9425 36.8807 89.897 36.104 88.1972C35.8619 87.6652 35.6039 87.3008 35.29 87.0454C34.8777 86.7076 34.2979 86.5161 33.6541 86.5241C33.0104 86.5267 32.3747 86.7076 31.8932 86.8672C31.0713 87.1359 30.2706 87.4843 29.5099 87.8993C27.5468 88.9021 25.7992 89.7187 24.1606 90.397C24.0941 90.4263 24.0143 90.3917 23.9877 90.3252C23.9584 90.2587 23.993 90.1789 24.0595 90.1523C25.6901 89.4767 27.4324 88.6627 29.3848 87.6652C30.1562 87.2449 30.9729 86.8912 31.8108 86.6172C32.3108 86.4523 32.9732 86.2634 33.6541 86.2607C33.6568 86.2607 33.6595 86.2607 33.6621 86.2607C34.3617 86.2607 35.0001 86.4656 35.4576 86.8406C35.8034 87.1226 36.0854 87.5189 36.3461 88.0882C37.1547 89.8571 37.1866 91.9824 36.4365 93.7726C34.2819 100.455 30.1855 113.177 30.0844 113.608C30.0818 113.64 30.0658 113.672 30.0392 113.696C29.5604 114.092 28.9114 114.3 28.1958 114.3Z" fill="#000001"/>
<path d="M45.3489 113.775C45.0776 113.775 44.8063 113.76 44.5403 113.728C44.2583 113.693 43.9338 113.634 43.6598 113.459C43.3513 113.262 43.1677 112.93 43.1917 112.618C43.1997 112.504 43.2342 112.403 43.2662 112.302C43.2821 112.254 43.2981 112.206 43.3087 112.158C43.3992 111.796 43.2715 111.389 42.9922 111.145C42.9736 111.129 42.9603 111.107 42.9523 111.081C41.7207 106.87 38.5766 96.1689 38.127 94.8868C37.6083 95.1688 37.0311 95.3496 36.4459 95.4161C36.3714 95.4241 36.3076 95.3709 36.2996 95.2991C36.2916 95.2273 36.3448 95.1608 36.4167 95.1528C37.0152 95.0863 37.6057 94.8895 38.127 94.5836C38.1403 94.5756 38.1563 94.5703 38.1723 94.5676C38.3398 94.5383 38.3558 94.5383 40.8057 102.827C41.9495 106.692 43.08 110.56 43.1997 110.972C43.5322 111.283 43.6811 111.78 43.5694 112.222C43.5561 112.275 43.5375 112.331 43.5215 112.384C43.4923 112.472 43.4657 112.557 43.4603 112.64C43.4444 112.858 43.58 113.092 43.8061 113.235C44.0349 113.382 44.3222 113.432 44.5749 113.464C45.9767 113.637 47.4663 113.334 48.7697 112.61C49.0224 112.469 49.3097 112.294 49.5225 112.044C49.7353 111.796 49.8443 111.501 49.8204 111.235C49.7273 110.802 45.5617 96.5998 43.3646 89.1252C43.2263 88.2873 42.5825 87.5585 41.7207 87.2553C40.9413 86.9813 40.0077 87.0478 39.1565 87.4415C38.4196 87.7819 37.7387 88.3565 37.1269 89.1465C37.0817 89.205 36.9992 89.2157 36.9407 89.1705C36.8822 89.1252 36.8715 89.0428 36.9167 88.9843C37.5525 88.1597 38.2707 87.5585 39.0447 87.1994C39.9571 86.7765 40.9653 86.7046 41.8111 87.0026C42.7608 87.3377 43.4736 88.149 43.6253 89.0667C49.4427 108.846 50.0305 110.953 50.0811 111.209H50.0864C50.1157 111.546 49.9853 111.913 49.7246 112.217C49.4826 112.499 49.1714 112.69 48.8974 112.842C47.7908 113.454 46.5566 113.775 45.3489 113.775Z" fill="#000001"/>
<path d="M48.3313 115.074C48.2781 115.074 48.2275 115.042 48.2063 114.987C47.9828 114.383 48.1344 113.715 48.2568 113.18C48.2728 113.109 48.3446 113.063 48.4164 113.079C48.4882 113.095 48.5334 113.167 48.5175 113.239C48.4031 113.739 48.2621 114.364 48.4563 114.893C48.4829 114.963 48.4457 115.04 48.3765 115.064C48.3632 115.072 48.3472 115.074 48.3313 115.074Z" fill="#000001"/>
<path d="M49.3931 118.673C49.3558 118.673 49.3186 118.657 49.292 118.628C49.2441 118.572 49.2494 118.489 49.3053 118.439C49.808 118 50.3879 117.654 50.9492 117.319C51.146 117.202 51.3455 117.082 51.5397 116.96C51.7658 116.819 51.9786 116.673 52.1063 116.465C52.1488 116.396 52.1807 116.324 52.2127 116.25C52.2366 116.197 52.2579 116.143 52.2845 116.093C52.3563 115.949 52.4494 115.819 52.5398 115.694C52.6117 115.593 52.6808 115.497 52.7393 115.396C52.8058 115.279 52.9495 114.978 52.8271 114.734C52.7766 114.635 52.6861 114.55 52.5904 114.462C52.4574 114.34 52.3191 114.212 52.2632 114.023C52.2127 113.858 52.2419 113.688 52.2685 113.539C52.2738 113.505 52.2792 113.47 52.2845 113.438C52.3004 113.334 52.3084 113.151 52.2073 113.068C52.1222 112.999 51.9733 113.01 51.7658 113.1C51.1247 113.372 50.5422 113.805 49.9809 114.223C49.2494 114.765 48.4966 115.329 47.5922 115.555C47.5204 115.574 47.4486 115.529 47.43 115.46C47.4114 115.388 47.4566 115.316 47.5257 115.297C48.3769 115.085 49.0792 114.563 49.8213 114.01C50.3959 113.582 50.9917 113.138 51.662 112.856C51.9679 112.725 52.2073 112.731 52.3749 112.864C52.5292 112.989 52.5904 113.201 52.5478 113.478C52.5425 113.515 52.5372 113.55 52.5292 113.587C52.5079 113.717 52.484 113.842 52.5186 113.949C52.5558 114.071 52.6595 114.167 52.7713 114.271C52.8803 114.372 52.992 114.476 53.0639 114.619C53.1915 114.872 53.157 115.207 52.9708 115.534C52.9043 115.649 52.8298 115.755 52.7553 115.856C52.6675 115.978 52.5851 116.093 52.5212 116.22C52.4973 116.268 52.476 116.316 52.4547 116.364C52.4201 116.447 52.3829 116.529 52.3324 116.611C52.1754 116.87 51.9254 117.04 51.6807 117.191C51.4838 117.314 51.2843 117.433 51.0848 117.553C50.5342 117.88 49.965 118.221 49.4808 118.644C49.4542 118.662 49.4223 118.673 49.3931 118.673Z" fill="#000001"/>
<path d="M45.3356 118.673C45.3143 118.673 45.2904 118.667 45.2717 118.657C44.7238 118.348 44.5456 117.694 44.5615 117.18C44.5748 116.742 44.7052 116.319 44.8302 115.912C44.8621 115.813 44.8914 115.712 44.9206 115.614C45.0456 115.185 45.168 114.63 45.0137 114.137C44.9924 114.068 45.0297 113.994 45.1015 113.97C45.1707 113.949 45.2451 113.986 45.2691 114.058C45.4446 114.616 45.3143 115.223 45.1786 115.688C45.1494 115.789 45.1175 115.89 45.0882 115.991C44.9685 116.382 44.8435 116.787 44.8328 117.191C44.8195 117.606 44.9632 118.178 45.4074 118.428C45.4712 118.463 45.4952 118.545 45.4579 118.609C45.4287 118.649 45.3835 118.673 45.3356 118.673Z" fill="#000001"/>
<path d="M25.3469 117.529C25.3229 117.529 25.299 117.523 25.2777 117.507C25.2165 117.468 25.1953 117.388 25.2352 117.324C25.9188 116.228 26.7141 115.193 27.5999 114.252C27.6504 114.198 27.7356 114.196 27.7888 114.246C27.842 114.297 27.8446 114.382 27.7941 114.435C26.9216 115.363 26.1342 116.385 25.4613 117.468C25.4347 117.507 25.3921 117.529 25.3469 117.529Z" fill="#000001"/>
<path d="M24.3406 119.258C24.0054 119.258 23.6702 119.245 23.3351 119.218C23.0771 119.197 22.8084 119.163 22.5876 119.003C22.3801 118.854 22.2631 118.625 22.1673 118.399C21.9891 117.976 21.8561 117.535 21.7737 117.082C21.7444 116.928 21.7178 116.747 21.7471 116.561C21.8162 116.128 22.162 115.827 22.4653 115.558L22.5131 115.516C22.7685 115.292 23.0904 114.984 23.3085 114.606C23.6117 114.085 23.7048 113.449 23.5612 112.864C23.5479 112.808 23.5319 112.749 23.516 112.693C23.4707 112.537 23.4255 112.374 23.4202 112.204C23.4122 111.903 23.5479 111.64 23.7713 111.531C23.8378 111.499 23.9176 111.526 23.9495 111.592C23.9815 111.659 23.9549 111.739 23.8884 111.77C23.7447 111.84 23.6835 112.034 23.6889 112.196C23.6942 112.337 23.7314 112.475 23.774 112.622C23.7899 112.68 23.8086 112.741 23.8219 112.8C23.9815 113.452 23.8777 114.159 23.5399 114.739C23.3005 115.149 22.96 115.476 22.6887 115.713L22.6408 115.755C22.3562 116.005 22.0636 116.261 22.0104 116.598C21.9891 116.742 22.0131 116.896 22.037 117.029C22.1168 117.46 22.2418 117.886 22.4147 118.29C22.4945 118.479 22.5903 118.67 22.7446 118.782C22.9095 118.902 23.1382 118.929 23.3564 118.947C24.298 119.024 25.2476 118.99 26.1813 118.846C26.4553 118.803 26.7691 118.745 26.9979 118.569C27.1921 118.42 27.3304 118.133 27.2267 117.907C27.1628 117.771 27.0139 117.662 26.8277 117.617C26.6415 117.572 26.4366 117.583 26.2398 117.596L24.3618 117.705C24.29 117.71 24.2262 117.654 24.2209 117.58C24.2155 117.505 24.2714 117.444 24.3459 117.439L26.2238 117.33C26.4313 117.319 26.6654 117.303 26.8915 117.359C27.1602 117.426 27.373 117.585 27.4687 117.795C27.6363 118.154 27.4341 118.572 27.1602 118.782C26.8835 118.995 26.5297 119.061 26.2238 119.109C25.5987 119.213 24.9683 119.258 24.3406 119.258Z" fill="#000001"/>
<path d="M19.5481 98.7521C19.4443 98.7521 19.3432 98.7441 19.2448 98.7255C18.5319 98.5978 18.0265 98.0498 17.3908 97.2864C15.4729 95.1291 14.8106 92.1473 14.3424 89.5192C13.1508 82.8453 12.6347 76.0224 12.8023 69.2447C12.805 69.1702 12.8635 69.1117 12.938 69.1143C13.0124 69.117 13.0683 69.1782 13.0683 69.25C12.8981 76.0117 13.4141 82.8133 14.6031 89.4713C15.066 92.0622 15.715 95.0041 17.593 97.1108C18.1968 97.8317 18.6676 98.3504 19.2927 98.4621C19.7635 98.5446 20.2849 98.3956 20.9366 97.9913C21.6521 97.5444 22.2852 96.9885 22.8225 96.3368C22.8544 96.2969 22.905 96.2809 22.9555 96.2916C24.094 96.5469 25.2697 96.8103 26.3284 96.4538C26.3976 96.4299 26.4747 96.4671 26.496 96.5363C26.5199 96.6055 26.4827 96.6826 26.4135 96.7039C25.307 97.0763 24.1233 96.8236 22.9768 96.5682C22.4342 97.2146 21.7958 97.7679 21.0802 98.2148C20.495 98.5792 20.0029 98.7521 19.5481 98.7521Z" fill="#000001"/>
<path d="M13.7192 119.138C13.4744 119.138 13.2271 119.072 13.0169 118.939C13.0063 118.934 12.9956 118.926 12.985 118.915C12.9052 118.83 12.8866 118.811 15.8019 109.512C17.249 104.899 18.704 100.298 18.704 100.298C18.7226 100.236 18.7811 100.202 18.8423 100.204C18.8769 100.207 22.4307 100.534 24.149 100.138C24.2208 100.122 24.2927 100.167 24.3086 100.239C24.3246 100.311 24.2794 100.383 24.2075 100.399C24.0267 100.441 23.8298 100.473 23.6197 100.502C23.6356 100.529 23.6436 100.564 23.6356 100.598L19.76 118.649C19.7574 118.665 19.7494 118.678 19.7414 118.691C19.6111 118.896 19.361 119.027 19.0711 119.04C18.829 119.053 18.5923 118.987 18.3821 118.928C18.3582 118.92 18.3343 118.907 18.3183 118.888C18.2651 118.827 18.1986 118.755 20.8214 102.058L14.5491 118.824C14.5411 118.848 14.5251 118.87 14.5039 118.886C14.2778 119.053 13.9985 119.138 13.7192 119.138ZM13.2297 118.755C13.5649 118.928 14.0038 118.904 14.315 118.694L21.0342 100.734C21.0581 100.67 21.1246 100.633 21.1938 100.651C21.2603 100.67 21.3028 100.734 21.2922 100.8C20.3745 106.626 18.6721 117.558 18.5577 118.697C18.7253 118.742 18.8955 118.779 19.0604 118.771C19.2094 118.763 19.4036 118.705 19.5047 118.564L23.375 100.54C23.375 100.534 23.3776 100.532 23.3776 100.529C21.7178 100.699 19.4488 100.526 18.9248 100.481C17.0176 106.509 13.5064 117.67 13.2297 118.755Z" fill="#000001"/>
<path d="M37.4607 119.067C37.2239 119.067 36.9898 118.957 36.8409 118.771C36.8302 118.758 36.8196 118.742 36.8169 118.723L32.9147 104.671C32.8961 104.599 32.936 104.527 33.0078 104.506C33.0796 104.487 33.1515 104.527 33.1727 104.599L37.067 118.625C37.1734 118.745 37.333 118.811 37.4952 118.801C37.6495 118.79 37.7985 118.707 37.8889 118.582C37.7852 117.811 35.4843 106.796 34.258 100.971C34.2421 100.899 34.2899 100.827 34.3618 100.814C34.4336 100.798 34.5054 100.846 34.5187 100.917C37.9927 117.42 38.1735 118.556 38.1363 118.689H38.139C38.006 118.904 37.7666 119.048 37.5139 119.064C37.4926 119.067 37.4766 119.067 37.4607 119.067Z" fill="#000001"/>
<path d="M36.1143 84.5643C35.8749 84.5643 35.6382 84.5084 35.4201 84.3887C34.6487 83.9658 34.404 82.9177 34.8801 82.0479C35.1089 81.6303 35.468 81.3137 35.8909 81.1594C36.3218 81.0025 36.7634 81.0291 37.1411 81.2366C37.5188 81.4441 37.7822 81.8005 37.8806 82.2474C37.979 82.6863 37.9098 83.1598 37.6811 83.5774C37.3406 84.2025 36.7235 84.5643 36.1143 84.5643ZM36.4442 81.327C36.2926 81.327 36.1356 81.3563 35.9813 81.4122C35.6196 81.5452 35.311 81.8165 35.1142 82.1782C34.7099 82.9177 34.904 83.8062 35.5478 84.1573C36.1915 84.5084 37.0427 84.1919 37.447 83.4524C37.6438 83.0906 37.705 82.6836 37.6199 82.3086C37.5374 81.9388 37.3193 81.6409 37.0108 81.4733C36.8379 81.3749 36.6437 81.327 36.4442 81.327Z" fill="#000001"/>
<path d="M120.9 77.4961H79.4043V108.086H120.9V77.4961Z" fill="#005596"/>
<path d="M61.722 59.8601C63.0075 59.8601 64.0495 58.818 64.0495 57.5326C64.0495 56.2471 63.0075 55.2051 61.722 55.2051C60.4366 55.2051 59.3945 56.2471 59.3945 57.5326C59.3945 58.818 60.4366 59.8601 61.722 59.8601Z" fill="#00396D"/>
<path d="M61.722 67.907C63.0075 67.907 64.0495 66.8649 64.0495 65.5795C64.0495 64.294 63.0075 63.252 61.722 63.252C60.4366 63.252 59.3945 64.294 59.3945 65.5795C59.3945 66.8649 60.4366 67.907 61.722 67.907Z" fill="#005596"/>
<path d="M61.722 75.6872C63.0075 75.6872 64.0495 74.6452 64.0495 73.3597C64.0495 72.0743 63.0075 71.0322 61.722 71.0322C60.4366 71.0322 59.3945 72.0743 59.3945 73.3597C59.3945 74.6452 60.4366 75.6872 61.722 75.6872Z" fill="#00FF85"/>
<path d="M64.4308 51.1457C64.0797 47.0253 63.5929 42.9156 62.9651 38.8272C62.5315 35.997 62.0261 33.1508 60.9355 30.5041C60.9355 30.5041 64.5638 30.3152 64.6383 30.4269C66.5402 37.2685 67.8329 44.2776 68.5006 51.3452L64.4308 51.1457Z" fill="#00FF85"/>
<path d="M72.5561 51.1354C71.8672 44.754 71.1703 38.3275 69.3242 32.1802C69.3242 32.1802 72.8168 31.994 72.9498 32.0339C74.216 38.394 75.272 44.7966 76.1125 51.2285L72.5561 51.1354Z" fill="#005596"/>
<path d="M79.7635 50.9787C78.9017 45.5257 78.0106 40.078 77.0955 34.6357C76.7524 32.5954 76.4013 30.5393 75.6777 28.6001C75.6777 28.6001 78.7793 28.4246 78.9442 28.5655C79.4629 29.3635 79.689 30.3132 79.8938 31.2442C81.3302 37.7878 82.2213 44.4378 83.1071 51.0798L79.7635 50.9787Z" fill="#005596"/>
<path d="M86.5856 50.9998C85.4285 42.6953 84.266 34.3695 82.1992 26.2432C82.1992 26.2432 85.5987 26.2273 85.5987 26.3204C87.4873 34.4387 88.9663 42.6501 90.0249 50.9174L86.5856 50.9998Z" fill="#00FF85"/>
<path d="M94.4699 50.7414C93.5815 44.2191 92.2462 37.758 90.4746 31.4192C90.4746 31.4192 93.3022 31.4139 93.4511 31.4538C94.0949 33.0551 94.4965 34.7415 94.8769 36.4253C95.9515 41.1681 96.8799 45.9428 97.6619 50.7388L94.4699 50.7414Z" fill="#00396D"/>
<path d="M101.464 50.5423C100.767 46.6109 99.889 42.7166 99.0139 38.8224C98.4712 36.4151 97.9313 34.0051 97.237 31.6377C96.6358 29.5815 95.9203 27.5573 95.0957 25.5782C95.0957 25.5782 97.8302 25.5197 98.035 25.6155C100.139 32.3054 101.988 39.0751 103.578 45.906C103.948 47.4993 104.307 49.1059 104.39 50.7418L101.464 50.5423Z" fill="#005596"/>
<path d="M40.6923 16.9336C43.1448 18.1891 45.0574 20.3331 46.4645 22.7031C47.8716 25.0732 48.8213 27.6827 49.7549 30.2762C49.7549 30.2762 49.2016 29.534 49.1538 29.5367C47.7626 27.9965 46.2889 26.4005 44.3365 25.6956C43.746 25.4828 43.1262 25.3578 42.5064 25.2434C41.1019 24.9854 39.6788 24.7753 38.2531 24.8418C36.8273 24.9083 35.3883 25.2647 34.3535 25.9776C35.3404 22.4903 37.4897 19.3489 40.6923 16.9336Z" fill="#000001"/>
<path d="M79.0126 95.6985C79.0099 95.6985 79.0046 95.6985 79.002 95.6985C74.5465 95.5203 69.9393 95.3341 65.4386 94.7409C60.3527 94.0732 56.0408 92.964 52.2583 91.3547C52.1439 91.3068 52.0801 91.1845 52.1014 91.0648C53.4926 83.2204 54.3172 75.9134 54.6231 68.7288C54.5193 56.7933 53.7825 42.8337 49.1009 29.8768C47.4251 27.7142 45.0284 26.1794 42.3472 25.557C39.7138 24.9452 36.9021 25.2112 34.4283 26.3044C34.3352 26.347 34.2262 26.3284 34.1464 26.2619C34.0692 26.1954 34.0373 26.089 34.0639 25.9905C35.0348 22.4341 37.3703 19.1065 40.6394 16.622C40.6687 16.6007 40.7006 16.5848 40.7352 16.5768C52.1998 13.6295 65.0662 12.9964 81.2257 14.5924C85.7477 15.0393 90.5916 15.6458 95.3929 17.0583C97.0474 17.5982 98.6141 18.7234 99.9308 20.3141C101.186 21.825 102.083 23.5699 102.793 25.0755C103.559 26.6954 104.288 28.4324 105.091 30.5418C109.283 45.7224 110.89 61.3659 109.877 77.0599C109.866 77.2062 109.746 77.3152 109.595 77.3073C109.448 77.2966 109.337 77.1716 109.347 77.0253C110.355 61.3925 108.754 45.8075 104.589 30.7067C103.801 28.6372 103.075 26.9109 102.314 25.3043C101.617 23.828 100.739 22.1229 99.5239 20.6572C98.2683 19.1437 96.7867 18.077 95.2359 17.5716C90.4852 16.1751 85.6706 15.5713 81.1752 15.1271C65.1035 13.5417 52.3115 14.1615 40.9214 17.0822C37.9289 19.3698 35.7504 22.3756 34.7342 25.6048C37.1814 24.6499 39.9053 24.4477 42.4669 25.0436C45.2811 25.6979 47.7948 27.3099 49.5478 29.5895C49.5637 29.6108 49.577 29.6347 49.5877 29.6613C54.3092 42.7033 55.054 56.7348 55.1551 68.7421C54.8518 75.9001 54.0352 83.1646 52.6626 90.953C56.3547 92.4985 60.5602 93.5678 65.5104 94.2195C69.9899 94.8074 74.5837 94.9936 79.0259 95.1718C79.1722 95.1771 79.2866 95.3021 79.2813 95.4484C79.2733 95.5868 79.1562 95.6985 79.0126 95.6985Z" fill="#000001"/>
<path d="M60.1585 51.7897C60.0255 51.7897 59.9138 51.6913 59.8951 51.561C58.4321 41.3386 56.1392 31.6881 53.0829 22.8729C53.035 22.7345 53.1095 22.5829 53.2478 22.535C53.3861 22.4872 53.5377 22.5616 53.5856 22.7C56.6287 31.4806 58.9189 41.0859 60.3872 51.2551C74.9241 51.0369 89.6685 50.7816 104.221 50.497C104.224 50.497 104.224 50.497 104.227 50.497C104.37 50.497 104.49 50.614 104.493 50.7576C104.495 50.9039 104.378 51.0263 104.232 51.029C89.602 51.3162 74.7752 51.5716 60.1611 51.7897H60.1585Z" fill="#000001"/>
<path d="M65.2826 58.174C65.1549 58.174 65.0405 58.0809 65.0192 57.9506C64.9953 57.8069 65.0937 57.6686 65.24 57.6447C67.9904 57.2031 70.6637 56.4397 73.2227 55.373C74.0712 54.8251 74.9942 54.3915 75.9598 54.0936C76.0901 54.0537 76.2311 54.1202 76.2843 54.2479C76.3375 54.3755 76.2817 54.5218 76.162 54.5857C75.2815 55.0432 74.3851 55.4635 73.4727 55.8465C72.9646 56.179 72.4858 56.5567 72.0416 56.9717C72.2863 57.1818 72.8502 57.1047 73.0391 57.0701C75.1724 56.6924 77.3297 56.2721 79.4444 55.8146C79.8727 55.7215 80.3249 55.6523 80.7132 55.8917C80.9766 56.054 81.1308 56.3945 81.0883 56.719C81.0856 56.7323 81.083 56.7456 81.083 56.7589C82.1124 56.7855 83.1338 56.5434 84.2031 56.2881C85.1235 56.07 86.0758 55.8412 87.0414 55.8013C87.1903 55.796 87.5388 55.78 87.7569 56.0327C87.8553 56.1444 87.8926 56.2721 87.9218 56.3759C87.9378 56.4317 87.9537 56.4849 87.9724 56.5142C88.0442 56.6259 88.3155 56.6285 88.4033 56.6312C89.2837 56.6418 90.1935 56.5354 91.0713 56.4317C92.3959 56.2748 93.7658 56.1152 95.1145 56.3466C95.2581 56.3705 95.3565 56.5088 95.3326 56.6525C95.3086 56.7961 95.1703 56.8972 95.0267 56.8706C93.7525 56.6525 92.481 56.8015 91.1351 56.961C90.2413 57.0674 89.3157 57.1738 88.398 57.1632C88.2224 57.1605 87.7542 57.1552 87.5255 56.8041C87.4643 56.7084 87.435 56.6073 87.4084 56.5248C87.3925 56.4663 87.3739 56.4051 87.3526 56.3812C87.3207 56.3439 87.2196 56.328 87.06 56.3333C86.1449 56.3705 85.2193 56.5913 84.3228 56.8041C83.1019 57.0941 81.8357 57.3973 80.551 57.2563C80.4259 57.243 80.3275 57.1419 80.3142 57.0169C80.3036 56.8919 80.3834 56.7749 80.5031 56.7376C80.5137 56.735 80.5456 56.7243 80.5563 56.6498C80.5722 56.5355 80.5164 56.3971 80.4313 56.3466C80.2105 56.2109 79.8886 56.2641 79.5535 56.3359C77.4308 56.7935 75.2682 57.2164 73.1269 57.5941C72.2411 57.7511 71.6426 57.5489 71.4458 57.0249C71.4085 56.9265 71.4325 56.8147 71.5096 56.7403C71.5867 56.6631 71.6666 56.5887 71.7464 56.5142C69.6662 57.2616 67.517 57.8176 65.3198 58.1687C65.3118 58.1713 65.2959 58.174 65.2826 58.174Z" fill="#000001"/>
<path d="M66.1789 65.6302C66.0618 65.6302 65.9528 65.5504 65.9209 65.4307C65.8836 65.2897 65.9687 65.1434 66.1097 65.1062L72.7145 63.3798C73.297 63.2282 73.9115 63.1032 74.4435 63.4011C74.5419 63.457 74.5951 63.5687 74.5765 63.6804L74.3797 64.795C75.0447 64.9998 75.8001 64.8907 76.4731 64.795L81.4553 64.0794C81.8223 64.0262 82.2799 63.9597 82.7055 64.1353C82.9023 64.2177 83.0619 64.3374 83.2188 64.4545C83.2933 64.5103 83.3705 64.5689 83.4503 64.6194C84.1791 65.0822 85.1447 64.9147 86.081 64.7524L86.1581 64.7391C90.3476 64.0182 94.6329 64.3321 98.7745 64.6327C98.9208 64.6433 99.0299 64.771 99.0192 64.9173C99.0086 65.0636 98.8862 65.17 98.7346 65.162C94.6223 64.8615 90.3716 64.5502 86.2459 65.2605L86.1688 65.2738C85.1819 65.444 84.0621 65.6382 83.1603 65.0636C83.0699 65.0051 82.9821 64.9413 82.8943 64.8748C82.7613 64.7737 82.6336 64.6779 82.5006 64.6221C82.2107 64.5024 81.8489 64.5556 81.5297 64.6008L76.5476 65.3163C75.7788 65.428 74.8212 65.5637 73.9753 65.2073C73.861 65.1594 73.7945 65.037 73.8157 64.9147L74.0152 63.7868C73.6801 63.6884 73.2704 63.7762 72.8475 63.8879L66.2427 65.6142C66.2241 65.6275 66.2002 65.6302 66.1789 65.6302Z" fill="#000001"/>
<path d="M79.0895 73.397C78.39 73.397 77.693 73.3145 77.0041 73.1124C76.927 73.0911 76.8658 73.0352 76.8339 72.9607C76.8019 72.8863 76.8073 72.8038 76.8445 72.732C76.9722 72.4899 76.9296 72.2399 76.8711 72.0723C76.7541 71.7398 76.4668 71.4312 76.1369 71.2929C75.5278 71.0322 74.8149 71.1253 74.0781 71.253C71.8384 71.644 69.5987 72.176 67.4201 72.8331C67.2791 72.8756 67.1302 72.7958 67.0876 72.6549C67.0451 72.5139 67.1249 72.3649 67.2658 72.3223C69.463 71.6573 71.724 71.12 73.9877 70.7263C74.775 70.5907 75.6023 70.4816 76.3471 70.8008C76.8126 71.0003 77.2036 71.4179 77.3712 71.8941C77.4643 72.1574 77.4829 72.4261 77.427 72.6735C79.3476 73.1443 81.3027 72.6655 83.3668 72.1627C85.0559 71.7504 86.8035 71.3222 88.5485 71.4578C89.0619 71.4977 89.5726 71.5855 90.0674 71.6733C90.4211 71.7345 90.7856 71.7983 91.1447 71.8435C92.9136 72.059 94.7357 71.8223 96.4966 71.5908C97.6164 71.4445 98.7709 71.2929 99.92 71.2557C99.9227 71.2557 99.9253 71.2557 99.928 71.2557C100.072 71.2557 100.189 71.3701 100.194 71.5137C100.199 71.66 100.085 71.7824 99.936 71.7877C98.8161 71.8249 97.6723 71.9739 96.5657 72.1175C94.7729 72.3516 92.9162 72.5937 91.0808 72.3702C90.7084 72.325 90.336 72.2612 89.9769 72.1973C89.4955 72.1122 88.998 72.0271 88.5086 71.9898C86.8488 71.8622 85.1437 72.2771 83.4918 72.6814C82.0448 73.0352 80.5632 73.397 79.0895 73.397Z" fill="#000001"/>
<path d="M69.9366 32.0526C68.7768 32.0526 67.6543 31.7015 66.8058 31.385C66.4813 31.2626 66.1567 31.1349 65.8322 31.0046C64.6911 30.5497 63.51 30.0789 62.2944 29.9991C60.7091 29.8954 58.9508 30.4806 57.3442 31.6457C57.2245 31.7308 57.0595 31.7068 56.9718 31.5871C56.8866 31.4674 56.9132 31.3025 57.0303 31.2147C58.2379 30.3396 60.1372 29.3261 62.3263 29.4671C63.6271 29.5522 64.848 30.039 66.0264 30.5098C66.3456 30.6375 66.6675 30.7652 66.9893 30.8849C68.8912 31.5925 70.3196 31.7068 71.49 31.2387C72.3705 30.8876 73.0914 30.1906 73.7909 29.5203C73.9346 29.382 74.0756 29.2463 74.2192 29.1133C75.222 28.177 76.3286 27.3444 77.507 26.6422C79.6376 25.3707 81.5076 25.001 83.0664 25.541C84.3565 25.9878 85.2928 27.004 86.1998 27.9882C86.3249 28.1238 86.4499 28.2595 86.5749 28.3925C87.3915 29.2623 88.6391 30.4088 90.0808 30.4088C90.0994 30.4088 90.118 30.4088 90.1366 30.4088C91.1049 30.3875 92.1316 29.8156 92.9536 28.8367C93.4936 28.1956 93.9192 27.4429 94.3341 26.714C94.4937 26.4321 94.656 26.1474 94.8209 25.8708C95.1534 25.3175 95.5391 24.7509 96.095 24.3732C96.7467 23.929 97.5474 23.8492 98.1353 24.1684C98.2656 24.2376 98.3135 24.3998 98.2417 24.5302C98.1725 24.6578 98.0102 24.7084 97.8799 24.6366C97.4623 24.4105 96.8797 24.4796 96.393 24.8121C95.9221 25.134 95.579 25.642 95.2758 26.1448C95.1108 26.4188 94.9539 26.6981 94.7943 26.9774C94.3687 27.7275 93.9298 28.5015 93.3579 29.1798C92.8153 29.8236 91.6794 30.9088 90.1446 30.9408C90.1233 30.9408 90.0994 30.9408 90.0755 30.9408C88.4263 30.9408 87.067 29.6985 86.1812 28.7569C86.0562 28.6239 85.9285 28.4856 85.8035 28.3499C84.9417 27.4163 84.0506 26.448 82.8881 26.0464C81.4837 25.5596 79.7653 25.916 77.7756 27.1024C76.6292 27.786 75.5545 28.5946 74.5783 29.5044C74.4373 29.6374 74.2963 29.773 74.1554 29.906C73.4185 30.6136 72.6578 31.3451 71.6816 31.7361C71.1176 31.9649 70.5218 32.0526 69.9366 32.0526Z" fill="#00396D"/>
<path d="M100.151 103.032C94.504 103.032 89.9102 98.438 89.9102 92.7908C89.9102 87.1436 94.504 82.5498 100.151 82.5498C105.798 82.5498 110.392 87.1436 110.392 92.7908C110.392 98.438 105.798 103.032 100.151 103.032ZM100.151 83.0818C94.7966 83.0818 90.4422 87.4362 90.4422 92.7908C90.4422 98.1454 94.7966 102.5 100.151 102.5C105.506 102.5 109.86 98.1454 109.86 92.7908C109.86 87.4362 105.506 83.0818 100.151 83.0818Z" fill="#00396D"/>
<path d="M110.113 93.0437H90.2269C90.0806 93.0437 89.9609 92.924 89.9609 92.7777C89.9609 92.6314 90.0806 92.5117 90.2269 92.5117H110.113C110.259 92.5117 110.379 92.6314 110.379 92.7777C110.379 92.924 110.259 93.0437 110.113 93.0437Z" fill="#00396D"/>
<path d="M100.121 102.875C99.9752 102.875 99.8555 102.755 99.8555 102.609V82.9144C99.8555 82.7681 99.9752 82.6484 100.121 82.6484C100.268 82.6484 100.387 82.7681 100.387 82.9144V102.609C100.387 102.755 100.268 102.875 100.121 102.875Z" fill="#00396D"/>
<path d="M97.4521 102.558C97.3829 102.558 97.3111 102.532 97.2579 102.476C95.3586 100.473 94.1271 97.7412 93.7946 94.7832C93.4913 92.094 93.9143 89.1999 95.0235 86.4149C95.4012 85.4679 96.0236 84.0927 97.0983 83.0899C97.2047 82.9888 97.3749 82.9941 97.4733 83.1032C97.5744 83.2096 97.5691 83.3798 97.46 83.4782C96.4625 84.4092 95.872 85.7126 95.5156 86.6117C94.4409 89.3169 94.026 92.1206 94.3212 94.7247C94.6431 97.5683 95.8215 100.194 97.6436 102.112C97.7447 102.218 97.7393 102.386 97.6329 102.487C97.5824 102.534 97.5186 102.558 97.4521 102.558Z" fill="#00396D"/>
<path d="M102.583 102.689C102.535 102.689 102.487 102.676 102.442 102.649C102.317 102.572 102.279 102.407 102.357 102.282C103.341 100.702 104.171 99.0128 104.825 97.2678C105.338 95.9032 105.639 94.7674 105.772 93.6954C106.192 90.3438 104.993 86.5959 102.487 83.4119C102.396 83.2975 102.415 83.1299 102.532 83.0395C102.646 82.949 102.814 82.9676 102.904 83.0847C105.498 86.3778 106.738 90.2693 106.299 93.7619C106.16 94.8765 105.849 96.0522 105.322 97.4567C104.655 99.2335 103.809 100.952 102.806 102.564C102.758 102.646 102.67 102.689 102.583 102.689Z" fill="#00396D"/>
<path d="M92.342 99.2012C92.2436 99.2012 92.1478 99.1454 92.1026 99.0496C92.0387 98.9166 92.0946 98.757 92.2276 98.6958C97.1779 96.3151 103.094 96.3071 108.055 98.6719C108.188 98.7357 108.243 98.8927 108.18 99.0257C108.116 99.1587 107.959 99.2145 107.826 99.1507C103.011 96.8551 97.2656 96.8657 92.459 99.1746C92.4218 99.1932 92.3819 99.2012 92.342 99.2012Z" fill="#00396D"/>
<path d="M99.7092 87.8862C98.975 87.8862 98.3553 87.841 97.786 87.7479C96.1262 87.4766 94.61 86.7504 93.1417 86.0482C93.0087 85.9843 92.9528 85.8274 93.0166 85.6944C93.0805 85.5614 93.2374 85.5055 93.3704 85.5694C94.8042 86.2557 96.2884 86.9659 97.8711 87.2239C98.5016 87.3276 99.1985 87.3675 100.063 87.3516C102.872 87.301 105.082 86.6467 106.636 85.4098C106.75 85.3193 106.918 85.338 107.011 85.4523C107.101 85.5667 107.083 85.7343 106.968 85.8274C105.322 87.1388 103.002 87.833 100.074 87.8862C99.9486 87.8862 99.8262 87.8862 99.7092 87.8862Z" fill="#00396D"/>
</svg>
