<svg width="1439" height="2057" viewBox="0 0 1439 2057" fill="none" xmlns="http://www.w3.org/2000/svg">
<g clip-path="url(#clip0_9115_1990)">
<rect width="1440" height="2057" transform="translate(-1)" fill="#F8FAFC"/>
<line x1="-33.2949" y1="1255.02" x2="1478.28" y2="1255.02" stroke="#00396D" stroke-width="1.2607"/>
<line x1="-33.2949" y1="609.547" x2="1478.28" y2="609.547" stroke="#00396D" stroke-width="1.2607"/>
<line x1="-33.2949" y1="932.286" x2="1478.28" y2="932.286" stroke="#00396D" stroke-width="1.2607"/>
<line x1="-33.2949" y1="286.809" x2="1478.28" y2="286.809" stroke="#00396D" stroke-width="1.2607"/>
<line x1="-33.2949" y1="1093.66" x2="1478.28" y2="1093.66" stroke="#00396D" stroke-width="1.2607"/>
<line x1="-33.2949" y1="448.177" x2="1478.28" y2="448.177" stroke="#00396D" stroke-width="1.2607"/>
<line x1="-33.2949" y1="770.916" x2="1478.28" y2="770.916" stroke="#00396D" stroke-width="1.2607"/>
<line x1="-33.2949" y1="125.439" x2="1478.28" y2="125.439" stroke="#00396D" stroke-width="1.2607"/>
<line x1="-33.2949" y1="1174.34" x2="1478.28" y2="1174.34" stroke="#00396D" stroke-width="1.2607"/>
<line x1="-33.2949" y1="528.862" x2="1478.28" y2="528.862" stroke="#00396D" stroke-width="1.2607"/>
<line x1="-33.2949" y1="851.6" x2="1478.28" y2="851.6" stroke="#00396D" stroke-width="1.2607"/>
<line x1="-33.2949" y1="206.124" x2="1478.28" y2="206.124" stroke="#00396D" stroke-width="1.2607"/>
<line x1="-33.2949" y1="1012.97" x2="1478.28" y2="1012.97" stroke="#00396D" stroke-width="1.2607"/>
<line x1="-33.2949" y1="367.492" x2="1478.28" y2="367.492" stroke="#00396D" stroke-width="1.2607"/>
<line x1="-33.2949" y1="690.232" x2="1478.28" y2="690.232" stroke="#00396D" stroke-width="1.2607"/>
<line x1="-33.2949" y1="44.7534" x2="1478.28" y2="44.7534" stroke="#00396D" stroke-width="1.2607"/>
<line x1="13.98" y1="-64.2959" x2="13.9799" y2="1103.11" stroke="#00396D" stroke-width="1.2607"/>
<line x1="659.46" y1="-64.2959" x2="659.46" y2="1103.11" stroke="#00396D" stroke-width="1.2607"/>
<line x1="336.72" y1="-64.2959" x2="336.72" y2="1103.11" stroke="#00396D" stroke-width="1.2607"/>
<line x1="982.197" y1="-64.2959" x2="982.197" y2="1103.11" stroke="#00396D" stroke-width="1.2607"/>
<line x1="1304.94" y1="-64.2959" x2="1304.94" y2="1103.11" stroke="#00396D" stroke-width="1.2607"/>
<line x1="175.351" y1="-64.2959" x2="175.351" y2="1103.11" stroke="#00396D" stroke-width="1.2607"/>
<line x1="820.826" y1="-64.2959" x2="820.826" y2="1103.11" stroke="#00396D" stroke-width="1.2607"/>
<line x1="498.091" y1="-64.2959" x2="498.091" y2="1103.11" stroke="#00396D" stroke-width="1.2607"/>
<line x1="1143.57" y1="-64.2959" x2="1143.57" y2="1103.11" stroke="#00396D" stroke-width="1.2607"/>
<line x1="94.6675" y1="-64.2959" x2="94.6674" y2="1103.11" stroke="#00396D" stroke-width="1.2607"/>
<line x1="740.144" y1="-64.2959" x2="740.144" y2="1103.11" stroke="#00396D" stroke-width="1.2607"/>
<line x1="417.404" y1="-64.2959" x2="417.404" y2="1103.11" stroke="#00396D" stroke-width="1.2607"/>
<line x1="1062.88" y1="-64.2959" x2="1062.88" y2="1103.11" stroke="#00396D" stroke-width="1.2607"/>
<line x1="1385.62" y1="-64.2959" x2="1385.62" y2="1103.11" stroke="#00396D" stroke-width="1.2607"/>
<line x1="256.037" y1="-64.2959" x2="256.037" y2="1103.11" stroke="#00396D" stroke-width="1.2607"/>
<line x1="901.513" y1="-64.2959" x2="901.513" y2="1103.11" stroke="#00396D" stroke-width="1.2607"/>
<line x1="578.773" y1="-64.2959" x2="578.773" y2="1103.11" stroke="#00396D" stroke-width="1.2607"/>
<line x1="1224.25" y1="-64.2959" x2="1224.25" y2="1103.11" stroke="#00396D" stroke-width="1.2607"/>
</g>
<defs>
<clipPath id="clip0_9115_1990">
<rect width="1440" height="2057" fill="white" transform="translate(-1)"/>
</clipPath>
</defs>
</svg>
