<svg width="1439" height="2057" viewBox="0 0 1439 2057" fill="none" xmlns="http://www.w3.org/2000/svg">
<g clip-path="url(#clip0_9115_1990)">
<rect width="1440" height="2057" transform="translate(-1)" fill="#F8FAFC"/>
<mask id="mask0_9115_1990" style="mask-type:alpha" maskUnits="userSpaceOnUse" x="-331" y="-238" width="1956" height="1440">
<path d="M757.16 303.828C757.16 451.088 659.795 570.466 539.69 570.466C419.584 570.466 -330.822 53.9684 -330.822 -93.2915C-330.822 -240.551 747.365 -37.8208 867.471 -37.8208C987.576 -37.8208 757.16 156.568 757.16 303.828Z" fill="url(#paint0_linear_9115_1990)"/>
<path d="M841.626 934.852C841.626 1082.11 744.261 1201.49 624.156 1201.49C504.05 1201.49 -165.041 1167.16 -165.041 1019.9C-165.041 872.645 -115.583 523.82 4.52283 523.82C124.628 523.82 841.626 787.593 841.626 934.852Z" fill="url(#paint1_radial_9115_1990)"/>
<path d="M1088.32 304.232C1412.39 596.921 1262.69 449.833 1541.03 442.422C1584.7 450.834 1658.82 451.234 1606.01 385.542C1540 303.428 1561.27 245.429 1478.77 155.965C1396.27 66.5014 1346.02 -24.3924 1221.47 -166.682C1096.91 -308.973 1087.33 -191.679 946.908 -202.798C806.488 -213.917 870.534 -196.259 676.79 10.1976C483.046 216.655 764.255 11.5435 1088.32 304.232Z" fill="#D9D9D9"/>
<path d="M782.375 764.613C348.695 815.672 557.971 799.913 380.212 1014.23C345.123 1041.55 295.998 1097.06 380.212 1100.59C485.48 1105 515.107 1159.21 636.764 1156.06C758.421 1152.91 859.908 1174.97 1049.01 1174.97C1238.12 1174.97 1156.17 1090.5 1257.03 992.169C1357.88 893.835 1302.41 930.395 1274.68 648.629C1246.94 366.863 1216.05 713.555 782.375 764.613Z" fill="#D9D9D9"/>
</mask>
<g mask="url(#mask0_9115_1990)">
<line x1="-33.2949" y1="609.547" x2="1478.28" y2="609.547" stroke="#DEE0E1" stroke-width="1.2607"/>
<line x1="-33.2949" y1="932.286" x2="1478.28" y2="932.286" stroke="#DEE0E1" stroke-width="1.2607"/>
<line x1="-33.2949" y1="286.809" x2="1478.28" y2="286.809" stroke="#DEE0E1" stroke-width="1.2607"/>
<line x1="-33.2949" y1="1093.66" x2="1478.28" y2="1093.66" stroke="#DEE0E1" stroke-width="1.2607"/>
<line x1="-33.2949" y1="448.177" x2="1478.28" y2="448.177" stroke="#DEE0E1" stroke-width="1.2607"/>
<line x1="-33.2949" y1="770.916" x2="1478.28" y2="770.916" stroke="#DEE0E1" stroke-width="1.2607"/>
<line x1="-33.2949" y1="125.439" x2="1478.28" y2="125.439" stroke="#DEE0E1" stroke-width="1.2607"/>
<line x1="-33.2949" y1="1174.34" x2="1478.28" y2="1174.34" stroke="#DEE0E1" stroke-width="1.2607"/>
<line x1="-33.2949" y1="528.862" x2="1478.28" y2="528.862" stroke="#DEE0E1" stroke-width="1.2607"/>
<line x1="-33.2949" y1="851.6" x2="1478.28" y2="851.6" stroke="#DEE0E1" stroke-width="1.2607"/>
<line x1="-33.2949" y1="206.124" x2="1478.28" y2="206.124" stroke="#DEE0E1" stroke-width="1.2607"/>
<line x1="-33.2949" y1="1012.97" x2="1478.28" y2="1012.97" stroke="#DEE0E1" stroke-width="1.2607"/>
<line x1="-33.2949" y1="367.492" x2="1478.28" y2="367.492" stroke="#DEE0E1" stroke-width="1.2607"/>
<line x1="-33.2949" y1="690.232" x2="1478.28" y2="690.232" stroke="#DEE0E1" stroke-width="1.2607"/>
<line x1="-33.2949" y1="44.7534" x2="1478.28" y2="44.7534" stroke="#DEE0E1" stroke-width="1.2607"/>
<line x1="13.98" y1="-64.2959" x2="13.9799" y2="1103.11" stroke="#DEE0E1" stroke-width="1.2607"/>
<line x1="659.46" y1="-64.2959" x2="659.46" y2="1103.11" stroke="#DEE0E1" stroke-width="1.2607"/>
<line x1="336.72" y1="-64.2959" x2="336.72" y2="1103.11" stroke="#DEE0E1" stroke-width="1.2607"/>
<line x1="982.197" y1="-64.2959" x2="982.197" y2="1103.11" stroke="#DEE0E1" stroke-width="1.2607"/>
<line x1="1304.94" y1="-64.2959" x2="1304.94" y2="1103.11" stroke="#DEE0E1" stroke-width="1.2607"/>
<line x1="175.351" y1="-64.2959" x2="175.351" y2="1103.11" stroke="#DEE0E1" stroke-width="1.2607"/>
<line x1="820.826" y1="-64.2959" x2="820.826" y2="1103.11" stroke="#DEE0E1" stroke-width="1.2607"/>
<line x1="498.091" y1="-64.2959" x2="498.091" y2="1103.11" stroke="#DEE0E1" stroke-width="1.2607"/>
<line x1="1143.57" y1="-64.2959" x2="1143.57" y2="1103.11" stroke="#DEE0E1" stroke-width="1.2607"/>
<line x1="94.6675" y1="-64.2959" x2="94.6674" y2="1103.11" stroke="#DEE0E1" stroke-width="1.2607"/>
<line x1="740.144" y1="-64.2959" x2="740.144" y2="1103.11" stroke="#DEE0E1" stroke-width="1.2607"/>
<line x1="417.404" y1="-64.2959" x2="417.404" y2="1103.11" stroke="#DEE0E1" stroke-width="1.2607"/>
<line x1="1062.88" y1="-64.2959" x2="1062.88" y2="1103.11" stroke="#DEE0E1" stroke-width="1.2607"/>
<line x1="1385.62" y1="-64.2959" x2="1385.62" y2="1103.11" stroke="#DEE0E1" stroke-width="1.2607"/>
<line x1="256.037" y1="-64.2959" x2="256.037" y2="1103.11" stroke="#DEE0E1" stroke-width="1.2607"/>
<line x1="901.513" y1="-64.2959" x2="901.513" y2="1103.11" stroke="#DEE0E1" stroke-width="1.2607"/>
<line x1="578.773" y1="-64.2959" x2="578.773" y2="1103.11" stroke="#DEE0E1" stroke-width="1.2607"/>
<line x1="1224.25" y1="-64.2959" x2="1224.25" y2="1103.11" stroke="#DEE0E1" stroke-width="1.2607"/>
</g>
</g>
<defs>
<linearGradient id="paint0_linear_9115_1990" x1="188.585" y1="-19.5406" x2="643.067" y2="222.513" gradientUnits="userSpaceOnUse">
<stop stop-color="white"/>
<stop offset="1" stop-color="white" stop-opacity="0"/>
</linearGradient>
<radialGradient id="paint1_radial_9115_1990" cx="0" cy="0" r="1" gradientUnits="userSpaceOnUse" gradientTransform="translate(153.915 941.111) rotate(-29.3932) scale(777.019 1335.47)">
<stop stop-color="white"/>
<stop offset="1" stop-color="white" stop-opacity="0"/>
</radialGradient>
<clipPath id="clip0_9115_1990">
<rect width="1440" height="2057" fill="white" transform="translate(-1)"/>
</clipPath>
</defs>
</svg>
