<svg width="400" height="400" viewBox="0 0 400 400" fill="none" xmlns="http://www.w3.org/2000/svg">
<path d="M67.6318 142.416L58.7598 169.408L62.4478 169.368L70.8638 142.624L67.6318 142.416Z" fill="#000001"/>
<path d="M89.1992 169.416L108.495 110.68L159.143 110.72L167.943 85.28L277.551 85.168L270.455 108.024L310.903 108.048L290.311 169.56L89.1992 169.416Z" fill="white"/>
<path d="M131.784 121.487C129.24 123.327 126.824 125.335 124.544 127.495C124.16 127.863 123.76 128.271 123.704 128.799C123.64 129.439 124.112 129.999 124.24 130.631C124.464 131.767 123.56 132.791 122.728 133.599C121.552 134.743 120.368 135.887 119.056 136.967C117.688 134.839 117.608 132.095 118.232 129.647C118.832 127.311 120.04 125.111 121.784 123.439C123.528 121.767 125.8 120.639 128.2 120.367C129.392 120.247 130.76 120.399 131.784 121.487Z" fill="#FFDC32"/>
<path d="M120.895 138.864C123.007 137.44 124.903 135.712 126.519 133.744C126.887 133.304 127.255 132.792 127.215 132.216C127.175 131.48 126.487 130.92 126.367 130.192C126.231 129.352 126.879 128.608 127.487 128.008C129.327 126.2 131.295 124.448 133.663 123.512C134.079 125.2 134.503 126.936 134.271 128.656C134.143 129.6 133.815 130.512 133.439 131.392C132.535 133.528 131.319 135.568 129.607 137.128C127.895 138.688 125.647 139.744 123.327 139.712C122.487 139.696 121.599 139.528 120.895 138.864Z" fill="#FFDC32"/>
<path d="M200.08 99.8238C197.688 101.76 195.296 103.704 192.896 105.64C192.512 105.952 192.088 106.336 192.088 106.832C192.088 107.44 192.704 107.84 193 108.368C193.328 108.968 193.208 109.736 192.872 110.328C192.528 110.92 191.992 111.376 191.456 111.8C190.016 112.936 188.488 113.96 186.776 114.76C185.928 113.144 185.76 111.232 186.032 109.424C186.304 107.616 186.992 105.904 187.776 104.256C188.144 103.496 188.536 102.736 189.104 102.112C189.616 101.56 190.248 101.136 190.872 100.72C192.256 99.8158 193.696 98.9358 195.304 98.5758C196.92 98.2158 198.752 98.4558 200.08 99.8238Z" fill="#FFDC32"/>
<path d="M201.728 101.727C199.784 103.319 197.904 104.991 196.096 106.727C195.96 106.863 195.816 107.007 195.768 107.191C195.72 107.383 195.784 107.591 195.848 107.783C196.136 108.663 196.32 109.655 195.928 110.495C195.632 111.119 195.064 111.567 194.52 111.983C192.52 113.511 190.512 115.047 188.6 116.655C189.064 117.351 189.952 117.607 190.776 117.687C193.472 117.943 196.192 116.799 198.176 114.951C200.152 113.103 201.44 110.599 202.176 107.991C202.72 106.087 202.928 103.871 201.728 101.727Z" fill="#FFDC32"/>
<path d="M158.639 110.695L108.807 110.519L141.063 92.8066L158.639 110.695Z" fill="#00396D"/>
<path d="M173.263 68.7353L167.943 85.1753L277.383 85.3273L276.903 84.8153L198.071 49.1113L173.263 68.7353Z" fill="#00396D"/>
<path d="M249.6 169.527L270.28 108.039L310.84 108.191L290.256 169.527H249.6Z" fill="#00396D"/>
<path d="M273.919 117.774L264.047 147.166L292.551 147.198L302.543 117.646L273.919 117.774Z" fill="#FFDC32"/>
<path d="M243.808 119.279C243.184 119.823 242.584 120.391 242.008 120.983C241.904 121.095 241.792 121.239 241.848 121.383C241.896 121.511 242.064 121.551 242.136 121.671C242.248 121.855 242.088 122.071 241.936 122.223C241.176 122.975 240.416 123.719 239.648 124.471L233.424 124.415L235.344 119.447L243.808 119.279Z" fill="#FFDC32"/>
<path d="M245.703 119.352C245.143 119.88 244.615 120.448 244.127 121.04C244.199 121.216 244.447 121.224 244.591 121.344C244.711 121.448 244.743 121.64 244.703 121.8C244.663 121.96 244.567 122.096 244.471 122.232C243.927 122.968 243.311 123.64 242.631 124.248L252.879 124.504L254.335 119.344L245.703 119.352Z" fill="#FFDC32"/>
<path d="M251.743 127.52L231.959 127.76L217.271 169.592L238.047 169.616L251.743 127.52Z" fill="#00396D"/>
<path d="M273.984 117.776L269.432 131.52L297.72 131.608L302.424 117.592L273.984 117.776Z" fill="#8B4513"/>
<path d="M308.663 169.607C308.239 166.687 307.871 163.727 308.095 160.783C308.319 157.839 309.175 154.871 310.983 152.543C311.839 151.439 313.015 150.439 314.415 150.391C315.407 150.351 316.343 150.799 317.319 150.967C319.095 151.271 320.887 150.663 322.591 150.063C325.503 149.039 328.407 148.007 331.319 146.983C332.999 146.391 334.959 145.823 336.455 146.783C337.279 147.311 337.807 148.223 338.639 148.743C339.183 149.079 339.815 149.231 340.447 149.335C342.799 149.735 345.231 149.631 347.535 150.239C349.839 150.847 352.127 152.431 352.567 154.775C352.855 156.311 352.287 157.895 351.447 159.215C350.607 160.535 349.511 161.663 348.567 162.911C348.263 163.311 347.959 163.783 348.015 164.279C348.055 164.655 348.287 164.967 348.471 165.303C349.183 166.615 349.031 168.343 348.095 169.503L308.663 169.607Z" fill="#8B4513"/>
<path d="M130.359 98.2232C128.391 96.6072 127.135 94.1512 126.983 91.6072C126.831 89.0632 127.783 86.4792 129.543 84.6392C130.295 83.8552 131.239 83.0792 131.287 81.9992C131.311 81.4552 131.095 80.9432 130.895 80.4312C128.839 75.1672 128.895 68.7912 132.231 64.2312C133.215 62.8872 134.559 61.6792 136.207 61.4152C136.783 61.3272 137.391 61.3512 137.935 61.1352C138.375 60.9592 138.743 60.6392 139.087 60.3112C141.263 58.2152 142.871 55.6072 144.703 53.2072C146.535 50.8072 148.727 48.5112 151.559 47.4632C151.807 47.3672 152.079 47.2872 152.335 47.3592C153.135 47.5912 152.919 48.9272 153.599 49.4072C154.015 49.7032 154.583 49.5592 155.063 49.4072C156.911 48.8232 158.783 48.2232 160.391 47.1432C161.719 46.2472 162.815 45.0472 164.079 44.0552C166.535 42.1192 169.631 41.0072 172.759 40.9272C173.407 40.9112 174.087 40.9432 174.663 41.2392C176.071 41.9592 176.327 43.8712 176.079 45.4312C175.839 46.9912 175.279 48.5912 175.735 50.1112C178.311 49.6392 181.095 51.5032 181.639 54.0632C181.823 54.9432 181.815 55.9352 182.407 56.5992C183.247 57.5432 185.135 57.6552 185.207 58.9192L173.311 68.8232L159.047 110.943L141.231 92.7752L130.359 98.2232Z" fill="#8B4513"/>
<path d="M289.472 117.911C286.632 121.975 282.784 125.231 279.792 129.183C279.328 129.799 278.872 130.455 278.744 131.207C278.584 132.191 278.992 133.183 278.952 134.175C278.904 135.231 278.352 136.207 277.728 137.055C274.992 140.783 270.64 143.207 268.408 147.255C268.408 147.255 270.88 147.335 270.96 147.335C273.064 143.303 277.288 140.911 280.408 137.607C280.888 137.095 281.36 136.535 281.552 135.863C281.824 134.903 281.504 133.871 281.576 132.879C281.68 131.431 282.608 130.191 283.576 129.111C285.192 127.311 287.024 125.711 288.672 123.943C290.32 122.175 291.816 120.191 292.576 117.887L289.472 117.911Z" fill="white"/>
<path d="M93.335 116.189C98.9151 98.5746 96.7805 82.1861 88.5672 79.5841C80.3539 76.9822 69.1721 89.1522 63.592 106.767C58.0119 124.381 60.1465 140.769 68.3598 143.371C76.5731 145.973 87.7548 133.803 93.335 116.189Z" fill="#8B4513"/>
<path d="M360.319 170.071H39.6793C39.4553 170.071 39.2793 169.895 39.2793 169.671C39.2793 169.447 39.4553 169.271 39.6793 169.271H360.319C360.543 169.271 360.719 169.447 360.719 169.671C360.719 169.895 360.535 170.071 360.319 170.071Z" fill="#000001"/>
<path d="M321.271 165.023C321.239 165.023 321.199 165.015 321.159 165.007C319.847 164.639 318.583 164.127 318.151 162.919C317.991 162.463 317.991 162.007 317.991 161.559C317.991 161.255 317.991 160.967 317.943 160.703C317.783 159.879 317.127 159.199 316.495 158.543L316.351 158.399C315.631 157.655 314.815 156.639 314.879 155.447C314.895 155.223 315.071 155.055 315.303 155.071C315.527 155.079 315.695 155.271 315.679 155.495C315.631 156.375 316.287 157.183 316.935 157.855L317.079 157.999C317.759 158.703 318.535 159.503 318.743 160.567C318.807 160.911 318.807 161.247 318.807 161.575C318.807 161.967 318.807 162.335 318.919 162.663C319.223 163.527 320.287 163.935 321.391 164.247C321.607 164.303 321.727 164.527 321.671 164.743C321.607 164.911 321.447 165.023 321.271 165.023Z" fill="#000001"/>
<path d="M318.408 161.438C318.184 161.438 318.008 161.254 318.008 161.038C318.016 159.99 318.72 159.166 319.344 158.438L319.456 158.302C320.216 157.406 320.496 156.678 320.304 156.086C320.24 155.878 320.352 155.654 320.56 155.582C320.768 155.518 320.992 155.63 321.064 155.838C321.344 156.718 321.024 157.694 320.064 158.822L319.952 158.958C319.392 159.614 318.816 160.286 318.816 161.046C318.808 161.262 318.624 161.438 318.408 161.438Z" fill="#000001"/>
<path d="M328.686 166.23H328.678C328.454 166.222 328.286 166.038 328.286 165.822C328.294 165.35 328.206 164.87 328.118 164.358C327.982 163.598 327.838 162.822 328.03 162.022C328.302 160.934 329.11 160.182 329.886 159.454C330.262 159.102 330.654 158.742 330.958 158.35C332.03 156.998 332.246 155.054 331.502 153.494C331.406 153.294 331.494 153.054 331.694 152.958C331.894 152.862 332.134 152.942 332.23 153.142C333.102 154.966 332.846 157.254 331.59 158.838C331.246 159.27 330.83 159.654 330.43 160.03C329.702 160.71 329.014 161.35 328.806 162.206C328.654 162.83 328.774 163.502 328.902 164.206C328.998 164.734 329.094 165.278 329.086 165.83C329.078 166.062 328.902 166.23 328.686 166.23Z" fill="#000001"/>
<path d="M329.839 161.303C329.743 161.303 329.639 161.263 329.567 161.191C329.407 161.039 329.399 160.783 329.551 160.623C330.815 159.295 332.191 157.999 333.975 157.935C334.703 157.911 335.367 158.095 336.023 158.279C336.247 158.343 336.463 158.399 336.687 158.455C339.279 159.063 342.063 158.279 343.623 156.503C343.767 156.335 344.023 156.319 344.191 156.463C344.359 156.607 344.375 156.863 344.231 157.031C342.455 159.055 339.415 159.919 336.511 159.239C336.279 159.183 336.047 159.119 335.815 159.055C335.191 158.887 334.599 158.719 334.007 158.743C332.519 158.791 331.279 159.975 330.135 161.183C330.047 161.263 329.943 161.303 329.839 161.303Z" fill="#000001"/>
<path d="M337.72 165.032C337.656 165.032 337.592 165.016 337.536 164.984C337.344 164.88 337.264 164.64 337.368 164.44C337.84 163.544 338.784 163.304 339.688 163.064C340.344 162.896 340.96 162.736 341.376 162.352C341.536 162.2 341.792 162.216 341.944 162.376C342.096 162.536 342.08 162.792 341.92 162.944C341.352 163.464 340.616 163.656 339.896 163.84C339.088 164.048 338.392 164.232 338.08 164.816C338 164.952 337.856 165.032 337.72 165.032Z" fill="#000001"/>
<path d="M290.366 169.816C290.326 169.816 290.278 169.808 290.238 169.792C290.03 169.72 289.918 169.496 289.982 169.288L310.278 108.464H270.55C270.326 108.464 270.15 108.288 270.15 108.064C270.15 107.84 270.326 107.664 270.55 107.664H310.838C310.966 107.664 311.086 107.728 311.166 107.832C311.238 107.936 311.262 108.072 311.222 108.192L290.75 169.544C290.694 169.712 290.534 169.816 290.366 169.816Z" fill="#000001"/>
<path d="M249.831 169.679C249.791 169.679 249.743 169.671 249.703 169.655C249.495 169.583 249.383 169.359 249.447 169.151L277.135 85.6633H168.151L139.815 169.311C139.743 169.519 139.519 169.631 139.311 169.559C139.103 169.487 138.991 169.263 139.063 169.055L167.495 85.1353C167.551 84.9753 167.703 84.8633 167.871 84.8633H277.703C277.831 84.8633 277.951 84.9273 278.031 85.0313C278.103 85.1353 278.127 85.2713 278.087 85.3913L250.223 169.407C250.159 169.567 249.999 169.679 249.831 169.679Z" fill="#000001"/>
<path d="M89.3523 169.52C89.3123 169.52 89.2723 169.512 89.2243 169.504C89.0163 169.432 88.8963 169.208 88.9683 169L108.088 110.584C108.12 110.48 108.2 110.4 108.288 110.352C108.312 110.248 108.384 110.152 108.488 110.096L140.976 92.3836C141.136 92.2956 141.328 92.3276 141.448 92.4556L159.208 110.432C159.32 110.544 159.352 110.72 159.296 110.864C159.24 111.008 159.088 111.112 158.928 111.112H108.76L89.7283 169.248C89.6723 169.408 89.5203 169.52 89.3523 169.52ZM109.768 110.304H157.976L141.104 93.2236L109.768 110.304Z" fill="#000001"/>
<path d="M167.967 85.4784C167.927 85.4784 167.887 85.4704 167.847 85.4624C167.639 85.3904 167.519 85.1664 167.591 84.9584L172.863 68.7344C172.887 68.6624 172.935 68.5904 172.991 68.5424L197.767 48.8384C197.887 48.7424 198.047 48.7264 198.183 48.7904L277.463 84.6224C277.663 84.7104 277.751 84.9504 277.663 85.1504C277.575 85.3504 277.335 85.4384 277.135 85.3504L198.079 49.6224L173.583 69.0944L168.351 85.2064C168.295 85.3664 168.135 85.4784 167.967 85.4784Z" fill="#000001"/>
<path d="M217.392 169.654C217.352 169.654 217.304 169.646 217.256 169.63C217.048 169.558 216.936 169.326 217.008 169.118L231.672 127.494C231.728 127.334 231.88 127.23 232.048 127.23H251.6C251.728 127.23 251.848 127.294 251.92 127.398C251.992 127.502 252.016 127.638 251.976 127.758L238.6 169.382C238.536 169.59 238.304 169.71 238.096 169.638C237.888 169.566 237.768 169.342 237.84 169.134L251.048 128.038H232.328L217.76 169.39C217.712 169.55 217.56 169.654 217.392 169.654Z" fill="#000001"/>
<path d="M252.623 124.799H233.143C233.007 124.799 232.887 124.735 232.815 124.623C232.743 124.511 232.727 124.375 232.775 124.255L234.799 119.055C234.855 118.903 235.007 118.799 235.175 118.799H254.399C254.527 118.799 254.647 118.863 254.727 118.967C254.799 119.071 254.823 119.207 254.783 119.327L253.015 124.527C252.951 124.687 252.799 124.799 252.623 124.799ZM233.727 123.999H252.335L253.831 119.599H235.439L233.727 123.999Z" fill="#000001"/>
<path d="M292.526 147.71H263.934C263.806 147.71 263.686 147.646 263.606 147.542C263.526 147.438 263.51 147.302 263.55 147.182L273.518 117.67C273.574 117.51 273.726 117.398 273.894 117.398L302.478 117.238C302.598 117.246 302.726 117.302 302.806 117.406C302.878 117.51 302.902 117.646 302.862 117.766L292.894 147.438C292.846 147.606 292.694 147.71 292.526 147.71ZM264.486 146.91H292.238L301.934 118.038L274.19 118.19L264.486 146.91Z" fill="#000001"/>
<path d="M297.416 131.943H269.568C269.344 131.943 269.168 131.767 269.168 131.543C269.168 131.319 269.344 131.143 269.568 131.143H297.416C297.64 131.143 297.816 131.319 297.816 131.543C297.816 131.767 297.632 131.943 297.416 131.943Z" fill="#000001"/>
<path d="M279.911 142.63C279.871 142.63 279.831 142.622 279.791 142.614C279.583 142.55 279.463 142.326 279.527 142.118L282.759 131.646C282.823 131.438 283.047 131.318 283.255 131.382C283.463 131.446 283.583 131.67 283.519 131.878L280.287 142.35C280.239 142.518 280.079 142.63 279.911 142.63Z" fill="#000001"/>
<path d="M191.607 118.224C190.503 118.224 189.455 117.96 188.527 117.392C184.903 115.176 184.479 109.24 187.583 104.16C190.687 99.0797 196.159 96.7437 199.783 98.9517C203.407 101.168 203.831 107.096 200.727 112.184C198.415 115.968 194.799 118.224 191.607 118.224ZM196.679 98.9117C193.767 98.9117 190.423 101.04 188.263 104.576C185.391 109.28 185.695 114.72 188.943 116.704C192.191 118.688 197.167 116.472 200.047 111.768C202.927 107.064 202.615 101.616 199.367 99.6397C198.559 99.1437 197.639 98.9117 196.679 98.9117Z" fill="#000001"/>
<path d="M123.607 140.023C122.503 140.023 121.455 139.759 120.527 139.191C116.903 136.975 116.479 131.039 119.583 125.959C122.687 120.879 128.159 118.543 131.783 120.751C133.559 121.839 134.631 123.831 134.791 126.359C134.951 128.839 134.215 131.543 132.727 133.983C130.415 137.767 126.799 140.023 123.607 140.023ZM128.679 120.711C125.767 120.711 122.423 122.839 120.263 126.375C117.391 131.079 117.695 136.519 120.943 138.503C124.191 140.487 129.167 138.271 132.047 133.567C133.455 131.263 134.143 128.727 133.999 126.407C133.855 124.143 132.919 122.383 131.375 121.431C130.559 120.943 129.639 120.711 128.679 120.711Z" fill="#000001"/>
<path d="M159.4 97.7743C159.376 97.7743 159.352 97.7743 159.328 97.7663C159.112 97.7263 158.968 97.5183 159.008 97.3023C159.44 94.9903 158.488 92.6303 157.616 90.8383C157.4 90.3903 157.168 89.9503 156.944 89.5023C156.104 87.8703 155.24 86.1743 154.864 84.3263C154.512 82.5743 154.616 80.7663 154.72 79.0143C154.848 76.8623 154.96 74.8223 154.296 72.9023C153.816 71.5023 152.96 70.2943 152.056 69.0223C151.272 67.9183 150.464 66.7743 149.92 65.4863C148.968 63.2463 148.912 60.6463 149.744 58.3663C149.824 58.1583 150.048 58.0543 150.256 58.1263C150.464 58.1983 150.568 58.4303 150.496 58.6383C149.728 60.7343 149.784 63.1183 150.656 65.1743C151.168 66.3743 151.952 67.4863 152.712 68.5583C153.608 69.8223 154.536 71.1343 155.056 72.6463C155.776 74.7263 155.64 76.9343 155.52 79.0703C155.424 80.7663 155.32 82.5263 155.656 84.1743C156.008 85.9103 156.848 87.5583 157.664 89.1423C157.896 89.5903 158.128 90.0383 158.344 90.4943C159.272 92.3983 160.28 94.9183 159.808 97.4623C159.76 97.6383 159.592 97.7743 159.4 97.7743Z" fill="#000001"/>
<path d="M154.951 81.088C154.911 81.088 154.863 81.08 154.823 81.064C154.615 80.992 154.503 80.768 154.567 80.56C155.063 79.088 155.911 77.744 156.727 76.44C157.879 74.608 158.967 72.88 159.119 70.856C159.239 69.216 158.679 67.568 158.143 65.976C157.975 65.488 157.815 64.992 157.663 64.504C157.063 62.488 156.679 59.68 158.287 57.728C158.431 57.56 158.679 57.536 158.847 57.672C159.015 57.816 159.039 58.064 158.903 58.232C157.519 59.912 157.879 62.44 158.431 64.272C158.575 64.752 158.735 65.24 158.903 65.72C159.463 67.384 160.047 69.112 159.911 70.912C159.751 73.136 158.559 75.032 157.399 76.864C156.607 78.12 155.783 79.424 155.319 80.808C155.279 80.976 155.119 81.088 154.951 81.088Z" fill="#000001"/>
<path d="M167.887 73.4943C167.855 73.4943 167.823 73.4943 167.799 73.4863C167.583 73.4383 167.447 73.2223 167.503 73.0063C167.839 71.5583 167.887 70.0143 167.647 68.5423C167.615 68.3343 167.575 68.1343 167.535 67.9343C167.423 67.3423 167.303 66.7343 167.311 66.1023C167.343 64.1903 168.511 62.6463 169.647 61.1503C170.679 59.7823 171.655 58.4863 171.831 56.9423C171.855 56.7263 172.055 56.5663 172.271 56.5903C172.487 56.6143 172.647 56.8143 172.623 57.0303C172.423 58.7903 171.335 60.2303 170.279 61.6303C169.175 63.0863 168.135 64.4623 168.111 66.1183C168.103 66.6703 168.207 67.2143 168.319 67.7903C168.359 67.9983 168.399 68.2143 168.439 68.4223C168.703 69.9903 168.647 71.6463 168.287 73.1983C168.231 73.3663 168.071 73.4943 167.887 73.4943Z" fill="#000001"/>
<path d="M153.607 99.6303C153.487 99.6303 153.367 99.5743 153.287 99.4703C152.463 98.3903 151.919 97.1263 151.399 95.9023C150.687 94.2463 150.015 92.6783 148.727 91.6063C147.383 90.4863 145.559 90.0943 143.799 89.7183C143.327 89.6143 142.855 89.5183 142.391 89.3983C140.607 88.9583 137.519 87.8063 136.887 85.0463C136.839 84.8303 136.975 84.6143 137.191 84.5663C137.407 84.5183 137.623 84.6543 137.671 84.8703C138.231 87.3023 141.295 88.3103 142.591 88.6223C143.047 88.7343 143.511 88.8383 143.975 88.9343C145.831 89.3343 147.751 89.7503 149.247 90.9903C150.687 92.1903 151.423 93.9183 152.143 95.5903C152.647 96.7663 153.175 97.9903 153.935 98.9903C154.071 99.1663 154.039 99.4143 153.863 99.5503C153.775 99.5983 153.687 99.6303 153.607 99.6303Z" fill="#000001"/>
<path d="M142.951 88.0063C142.791 88.0063 142.639 87.9103 142.583 87.7503C142.143 86.6463 142.103 85.4543 142.071 84.3023C142.039 83.1983 141.999 82.1663 141.647 81.2063C141.487 80.7823 141.255 80.3423 141.031 79.9263C140.519 78.9663 139.983 77.9743 140.151 76.8383C140.183 76.6223 140.383 76.4703 140.607 76.5023C140.823 76.5343 140.975 76.7343 140.943 76.9583C140.815 77.8303 141.263 78.6703 141.735 79.5503C141.975 79.9983 142.215 80.4543 142.399 80.9343C142.799 82.0143 142.839 83.1743 142.879 84.2863C142.919 85.4143 142.951 86.4863 143.335 87.4623C143.415 87.6703 143.319 87.9023 143.111 87.9823C143.047 87.9983 142.999 88.0063 142.951 88.0063Z" fill="#000001"/>
<path d="M67.6473 131.118C67.6073 131.118 67.5753 131.11 67.5353 131.102C67.3193 131.038 67.1993 130.822 67.2633 130.606C67.8713 128.526 68.4953 126.374 68.3433 124.198C68.2553 122.926 67.8953 121.654 67.5433 120.422C67.4153 119.974 67.2873 119.534 67.1753 119.086C66.5433 116.622 66.2473 114.086 66.3113 111.542C66.3193 111.318 66.4873 111.15 66.7193 111.15C66.9433 111.158 67.1113 111.342 67.1113 111.558C67.0553 114.03 67.3353 116.494 67.9513 118.886C68.0633 119.326 68.1913 119.766 68.3113 120.206C68.6713 121.478 69.0473 122.79 69.1433 124.142C69.3033 126.462 68.6313 128.782 68.0313 130.83C67.9753 131.006 67.8153 131.118 67.6473 131.118Z" fill="#000001"/>
<path d="M68.0385 120.047C67.9585 120.047 67.8865 120.023 67.8145 119.983C67.6305 119.863 67.5825 119.615 67.7025 119.431C68.2865 118.551 68.6145 117.439 68.6785 116.111C68.7345 114.903 68.5745 113.671 68.4225 112.479C68.3905 112.263 68.5505 112.063 68.7665 112.031C68.9905 111.999 69.1825 112.159 69.2145 112.375C69.3745 113.599 69.5425 114.871 69.4785 116.151C69.4065 117.623 69.0305 118.879 68.3665 119.879C68.3025 119.983 68.1745 120.047 68.0385 120.047Z" fill="#000001"/>
<path d="M73.9119 122.871C73.8479 122.871 73.7919 122.855 73.7279 122.831C73.5279 122.735 73.4559 122.487 73.5519 122.295C74.9759 119.479 76.7279 116.831 78.7519 114.415C79.6479 113.351 80.6559 112.295 81.9599 111.759C82.6479 111.479 83.3759 111.367 84.0719 111.255C84.3999 111.207 84.7199 111.151 85.0399 111.087C87.0079 110.671 88.8079 109.599 90.1119 108.071C90.2559 107.903 90.5119 107.887 90.6719 108.023C90.8399 108.167 90.8559 108.415 90.7199 108.583C89.3039 110.247 87.3439 111.407 85.2079 111.863C84.8719 111.935 84.5359 111.991 84.1999 112.039C83.5119 112.151 82.8639 112.255 82.2639 112.495C81.0639 112.983 80.1359 114.007 79.3679 114.919C77.3759 117.287 75.6639 119.887 74.2639 122.639C74.1999 122.791 74.0559 122.871 73.9119 122.871Z" fill="#000001"/>
<path d="M80.5907 115.36C80.4547 115.36 80.3267 115.288 80.2467 115.168C80.1347 114.976 80.1907 114.736 80.3827 114.616C81.1747 114.136 82.1667 113.576 83.2787 113.552C83.7587 113.56 84.2147 113.68 84.6467 113.792C84.8467 113.848 85.0467 113.896 85.2547 113.936C86.6067 114.208 88.0707 113.864 89.1667 113.024C89.3427 112.888 89.5907 112.92 89.7267 113.096C89.8627 113.272 89.8307 113.52 89.6547 113.656C88.3747 114.64 86.6707 115.032 85.0947 114.72C84.8787 114.68 84.6547 114.616 84.4387 114.56C84.0307 114.456 83.6467 114.352 83.2627 114.344C82.4627 114.344 81.6867 114.752 80.7907 115.296C80.7267 115.336 80.6547 115.36 80.5907 115.36Z" fill="#000001"/>
<path d="M79.936 103.687C79.896 103.687 79.848 103.679 79.808 103.663C79.6 103.591 79.488 103.359 79.56 103.151C79.952 102.039 80.28 100.887 80.536 99.7346C80.616 99.3826 80.672 99.0626 80.616 98.7826C80.56 98.4786 80.36 98.1986 80.16 97.8946L80.008 97.6626C78.416 95.2146 78.664 91.9906 78.848 89.6386C78.864 89.4226 79.056 89.2546 79.28 89.2706C79.504 89.2866 79.664 89.4786 79.648 89.7026C79.424 92.6066 79.352 95.1746 80.68 97.2306L80.824 97.4466C81.056 97.7826 81.312 98.1666 81.408 98.6306C81.496 99.0706 81.416 99.4866 81.32 99.9106C81.056 101.095 80.72 102.271 80.32 103.415C80.256 103.583 80.096 103.687 79.936 103.687Z" fill="#000001"/>
<path d="M80.2787 95.3757C80.2467 95.3757 80.2068 95.3676 80.1668 95.3596C79.9508 95.3036 79.8308 95.0797 79.8868 94.8637C80.0948 94.1117 80.4868 93.4556 80.8628 92.8156C81.1268 92.3676 81.3748 91.9516 81.5668 91.5036C82.0468 90.3916 82.1507 89.1357 82.2467 87.9277C82.2627 87.7117 82.4547 87.5436 82.6787 87.5596C82.9027 87.5756 83.0627 87.7676 83.0467 87.9916C82.9427 89.2076 82.8307 90.5836 82.3027 91.8156C82.0867 92.3116 81.8148 92.7756 81.5508 93.2156C81.1828 93.8396 80.8308 94.4236 80.6548 95.0716C80.6148 95.2636 80.4547 95.3757 80.2787 95.3757Z" fill="#000001"/>
<path d="M85.8966 206.392H57.6406L59.1126 201.344H61.3446L64.6326 191.416H59.1126L62.3446 180.96H70.5046L73.7366 171.144H71.9766L75.3206 160.808H78.9046L85.6086 140.832H113.569L106.873 161.28H103.289L100.177 170.968H102.113L98.7606 181.072H90.5366L87.3126 191.184H92.9446L89.6726 201.504H87.3846L85.8966 206.392Z" fill="#FFDC32"/>
<path d="M91.7441 206.127H118.848L122.36 196.575H125.536L128.896 186.527H101.376L98.0961 196.311H94.7681L91.7441 206.127Z" fill="#FFDC32"/>
<path d="M101.688 169.679L117.031 185.679L127.207 178.303L111.743 162.215L101.688 169.679Z" fill="#FFDC32"/>
<path d="M100.88 141.031C98.0804 143.887 95.2884 146.751 92.4884 149.607C91.9844 150.119 91.4564 150.671 91.2884 151.375C91.1284 152.015 91.2964 152.687 91.2884 153.351C91.2724 155.471 89.5844 157.143 88.4564 158.943C87.0484 161.207 86.4884 163.887 85.5524 166.383C84.2724 169.815 82.2644 172.975 79.6964 175.591C79.0164 176.279 78.2484 177.039 78.2164 178.007C78.1844 178.743 78.6004 179.423 78.7364 180.151C79.1284 182.287 77.1684 184.031 76.0484 185.895C75.3044 187.127 74.9124 188.527 74.3524 189.847C73.4964 191.871 72.2564 193.711 71.0324 195.535C68.6244 199.103 66.2244 202.679 63.8164 206.247C63.8164 206.247 67.2724 206.239 67.5364 205.895C69.8644 202.863 72.2004 199.823 74.5284 196.791C75.9364 194.959 77.3684 193.087 78.1604 190.911C78.5924 189.727 78.8324 188.463 79.3844 187.327C80.2564 185.535 81.9044 184.103 82.2964 182.143C82.5044 181.079 82.3204 179.983 82.4324 178.903C82.6324 177.039 83.7284 175.407 84.7764 173.847C86.6324 171.071 88.4484 168.223 89.5124 165.055C89.9844 163.639 90.3124 162.143 91.1444 160.911C92.4404 158.991 94.9364 157.647 95.0484 155.327C95.0964 154.431 94.7444 153.543 94.8484 152.647C94.9604 151.703 95.5684 150.903 96.1604 150.159C98.7684 146.911 101.616 143.847 100.88 141.031Z" fill="white"/>
<path d="M118.68 169.551C117.912 169.807 117.192 170.175 116.528 170.639C116.112 170.927 115.728 171.255 115.288 171.503C114.16 172.135 112.816 172.191 111.528 172.231C110.736 172.255 109.944 172.279 109.16 172.303C108.664 172.319 108.056 172.415 107.888 172.879C107.792 173.143 107.888 173.431 107.888 173.719C107.88 174.311 107.36 174.847 106.76 175.023C107.112 175.647 107.648 176.215 108.336 176.399C109.024 176.591 109.872 176.311 110.168 175.655C110.272 175.423 110.304 175.151 110.464 174.943C110.6 174.767 110.824 174.671 111.032 174.591C113.28 173.775 116 174.423 117.976 173.079C118.296 172.863 118.576 172.599 118.904 172.391C119.488 172.039 120.2 171.879 118.68 169.551Z" fill="white"/>
<path d="M105.745 206.071C104.521 206.191 103.281 206.215 102.049 206.143C104.185 203.591 106.457 201.095 108.729 198.599C109.217 198.063 109.729 197.463 109.729 196.735C109.729 196.071 109.281 195.463 109.305 194.799C109.321 194.375 109.529 193.975 109.745 193.607C111.217 191.151 113.489 189.167 114.705 186.495C115.665 186.399 116.633 186.479 117.561 186.727C116.329 188.039 115.337 189.583 114.657 191.247C114.361 191.975 114.129 192.815 114.473 193.519C114.649 193.871 114.945 194.143 115.121 194.495C115.441 195.119 115.329 195.895 114.993 196.519C114.665 197.135 114.145 197.631 113.633 198.111C112.513 199.167 111.393 200.223 110.273 201.279C109.393 202.103 108.513 202.943 107.825 203.935C107.329 204.679 106.945 205.959 105.745 206.071Z" fill="white"/>
<path d="M85.8961 206.791H57.6401C57.5121 206.791 57.3921 206.735 57.3201 206.631C57.2481 206.535 57.2241 206.399 57.2561 206.279L58.7281 201.231C58.7761 201.063 58.9361 200.943 59.1121 200.943H61.0561L64.0801 191.815H59.1121C58.9841 191.815 58.8641 191.751 58.7921 191.655C58.7201 191.559 58.6961 191.423 58.7281 191.303L61.9601 180.847C62.0081 180.679 62.1681 180.567 62.3441 180.567H70.2241L73.1921 171.559H71.9841C71.8561 171.559 71.7361 171.495 71.6641 171.391C71.5921 171.287 71.5681 171.151 71.6081 171.031L74.9601 160.695C75.0161 160.527 75.1681 160.415 75.3441 160.415H78.6401L85.2481 140.711C85.3041 140.551 85.4561 140.439 85.6241 140.439H113.584C113.712 140.439 113.832 140.503 113.904 140.607C113.976 140.711 114 140.847 113.96 140.967L107.264 161.407C107.208 161.575 107.056 161.679 106.88 161.679H103.592L100.736 170.575H102.128C102.256 170.575 102.376 170.639 102.456 170.743C102.528 170.847 102.552 170.983 102.512 171.103L99.1601 181.207C99.1041 181.367 98.9521 181.479 98.7841 181.479H90.8481L87.8721 190.783H92.9601C93.0881 190.783 93.2081 190.847 93.2801 190.943C93.3521 191.039 93.3761 191.175 93.3361 191.303L90.0641 201.631C90.0081 201.799 89.8561 201.911 89.6801 201.911H87.6881L86.2881 206.519C86.2321 206.679 86.0721 206.791 85.8961 206.791ZM58.1761 205.991H85.6001L87.0001 201.383C87.0481 201.215 87.2081 201.103 87.3841 201.103H89.3761L92.3921 191.575H87.2961C87.1681 191.575 87.0481 191.511 86.9761 191.407C86.9041 191.303 86.8801 191.175 86.9201 191.047L90.1521 180.943C90.2081 180.775 90.3601 180.663 90.5361 180.663H98.4721L101.552 171.359H100.168C100.04 171.359 99.9201 171.295 99.8481 171.191C99.7761 171.087 99.7521 170.951 99.7921 170.831L102.904 161.135C102.96 160.967 103.112 160.855 103.288 160.855H106.584L113.016 141.215H85.8961L79.2881 160.919C79.2321 161.079 79.0801 161.191 78.9121 161.191H75.6161L72.5281 170.727H73.7441C73.8721 170.727 73.9921 170.791 74.0721 170.895C74.1441 170.999 74.1681 171.135 74.1281 171.255L70.8961 181.063C70.8401 181.231 70.6881 181.335 70.5121 181.335H62.6401L59.6561 190.991H64.6321C64.7601 190.991 64.8801 191.055 64.9601 191.159C65.0321 191.263 65.0561 191.399 65.0161 191.519L61.7281 201.447C61.6721 201.607 61.5201 201.719 61.3521 201.719H59.4241L58.1761 205.991Z" fill="#000001"/>
<path d="M85.6714 201.8H62.4234C62.1994 201.8 62.0234 201.624 62.0234 201.4C62.0234 201.176 62.1994 201 62.4234 201H85.6794C85.9034 201 86.0794 201.176 86.0794 201.4C86.0794 201.624 85.8954 201.8 85.6714 201.8Z" fill="#000001"/>
<path d="M90.2394 196.695H64.0074C63.7834 196.695 63.6074 196.519 63.6074 196.295C63.6074 196.071 63.7834 195.895 64.0074 195.895H90.2394C90.4634 195.895 90.6394 196.071 90.6394 196.295C90.6394 196.519 90.4634 196.695 90.2394 196.695Z" fill="#000001"/>
<path d="M85.8002 191.72H65.6402C65.4162 191.72 65.2402 191.544 65.2402 191.32C65.2402 191.096 65.4162 190.92 65.6402 190.92H85.7922C86.0162 190.92 86.1922 191.096 86.1922 191.32C86.1922 191.544 86.0162 191.72 85.8002 191.72Z" fill="#000001"/>
<path d="M87.5513 186.335H61.9273C61.7033 186.335 61.5273 186.159 61.5273 185.935C61.5273 185.711 61.7033 185.535 61.9273 185.535H87.5433C87.7673 185.535 87.9433 185.711 87.9433 185.935C87.9433 186.159 87.7753 186.335 87.5513 186.335Z" fill="#000001"/>
<path d="M89.5114 181.191H71.7594C71.5354 181.191 71.3594 181.015 71.3594 180.791C71.3594 180.567 71.5354 180.391 71.7594 180.391H89.5034C89.7274 180.391 89.9034 180.567 89.9034 180.791C89.9034 181.015 89.7274 181.191 89.5114 181.191Z" fill="#000001"/>
<path d="M99.384 176.544H73.232C73.008 176.544 72.832 176.368 72.832 176.144C72.832 175.92 73.008 175.744 73.232 175.744H99.384C99.608 175.744 99.784 175.92 99.784 176.144C99.784 176.368 99.6 176.544 99.384 176.544Z" fill="#000001"/>
<path d="M99.0159 171.527H74.9039C74.6799 171.527 74.5039 171.351 74.5039 171.127C74.5039 170.903 74.6799 170.727 74.9039 170.727H99.0159C99.2399 170.727 99.4159 170.903 99.4159 171.127C99.4159 171.351 99.2319 171.527 99.0159 171.527Z" fill="#000001"/>
<path d="M100.319 166.343H74.4312C74.2072 166.343 74.0312 166.167 74.0312 165.943C74.0312 165.719 74.2072 165.543 74.4312 165.543H100.319C100.543 165.543 100.719 165.719 100.719 165.943C100.719 166.167 100.543 166.343 100.319 166.343Z" fill="#000001"/>
<path d="M102.353 161.216H80.025C79.801 161.216 79.625 161.04 79.625 160.816C79.625 160.592 79.801 160.416 80.025 160.416H102.353C102.577 160.416 102.753 160.592 102.753 160.816C102.753 161.04 102.569 161.216 102.353 161.216Z" fill="#000001"/>
<path d="M107.519 156.464H82.0152C81.7912 156.464 81.6152 156.288 81.6152 156.064C81.6152 155.84 81.7912 155.664 82.0152 155.664H107.519C107.743 155.664 107.919 155.84 107.919 156.064C107.919 156.288 107.743 156.464 107.519 156.464Z" fill="#000001"/>
<path d="M108.441 151.368H83.6969C83.4729 151.368 83.2969 151.192 83.2969 150.968C83.2969 150.744 83.4729 150.568 83.6969 150.568H108.441C108.665 150.568 108.841 150.744 108.841 150.968C108.841 151.192 108.665 151.368 108.441 151.368Z" fill="#000001"/>
<path d="M110.392 146.128H85.3043C85.0803 146.128 84.9043 145.952 84.9043 145.728C84.9043 145.504 85.0803 145.328 85.3043 145.328H110.392C110.616 145.328 110.792 145.504 110.792 145.728C110.792 145.952 110.616 146.128 110.392 146.128Z" fill="#000001"/>
<path d="M118.848 206.527H91.7436C91.6156 206.527 91.4956 206.463 91.4236 206.367C91.3516 206.271 91.3276 206.135 91.3596 206.015L94.3836 196.199C94.4316 196.031 94.5916 195.919 94.7676 195.919H97.7996L100.992 186.407C101.048 186.247 101.2 186.135 101.368 186.135H128.88C129.008 186.135 129.128 186.199 129.208 186.303C129.28 186.407 129.304 186.543 129.264 186.663L125.904 196.703C125.848 196.863 125.696 196.975 125.528 196.975H122.632L119.216 206.271C119.168 206.423 119.016 206.527 118.848 206.527ZM92.2876 205.727H118.568L121.984 196.431C122.04 196.271 122.192 196.167 122.36 196.167H125.248L128.344 186.927H101.672L98.4796 196.439C98.4236 196.599 98.2716 196.711 98.1036 196.711H95.0796L92.2876 205.727Z" fill="#000001"/>
<path d="M118.896 201.847H93.9996C93.7756 201.847 93.5996 201.671 93.5996 201.447C93.5996 201.223 93.7756 201.047 93.9996 201.047H118.896C119.12 201.047 119.296 201.223 119.296 201.447C119.296 201.671 119.12 201.847 118.896 201.847Z" fill="#000001"/>
<path d="M121.184 196.591H99.2965C99.0725 196.591 98.8965 196.415 98.8965 196.191C98.8965 195.967 99.0725 195.791 99.2965 195.791H121.184C121.408 195.791 121.584 195.967 121.584 196.191C121.584 196.415 121.4 196.591 121.184 196.591Z" fill="#000001"/>
<path d="M126.256 191.736H101.072C100.848 191.736 100.672 191.56 100.672 191.336C100.672 191.112 100.848 190.936 101.072 190.936H126.256C126.48 190.936 126.656 191.112 126.656 191.336C126.656 191.56 126.472 191.736 126.256 191.736Z" fill="#000001"/>
<path d="M117.032 186.079C116.928 186.079 116.824 186.039 116.744 185.959L101.4 169.959C101.32 169.879 101.28 169.759 101.288 169.647C101.296 169.535 101.352 169.431 101.448 169.359L111.504 161.895C111.664 161.775 111.888 161.791 112.032 161.935L127.496 178.023C127.576 178.103 127.616 178.223 127.608 178.335C127.6 178.447 127.536 178.559 127.448 178.623L117.272 185.999C117.192 186.047 117.112 186.079 117.032 186.079ZM102.288 169.727L117.072 185.151L126.6 178.255L111.704 162.751L102.288 169.727Z" fill="#000001"/>
<path d="M121.032 181.512C120.928 181.512 120.816 181.472 120.744 181.384L107.312 167.056C107.16 166.896 107.168 166.64 107.328 166.488C107.488 166.336 107.744 166.344 107.896 166.504L121.328 180.832C121.48 180.992 121.472 181.248 121.312 181.4C121.224 181.472 121.128 181.512 121.032 181.512Z" fill="#000001"/>
<path d="M229.28 181.04C228.52 179.592 228.32 177.88 228.672 176.28C228.808 175.664 229.032 175.048 229.416 174.544C229.944 173.864 230.736 173.432 231.536 173.096C234.184 171.984 237.168 171.672 239.984 172.216C240.384 172.296 240.8 172.4 241.088 172.688C241.584 173.192 241.488 174.032 241.76 174.688C242.032 175.336 242.648 175.76 243.248 176.136C244.288 176.792 245.36 177.4 246.456 177.968C247.024 178.256 247.6 178.544 248.056 178.992C248.512 179.44 248.824 180.08 248.704 180.704C248.6 181.264 248.16 181.728 248.112 182.296C248.04 183.128 248.808 183.84 248.776 184.672C248.752 185.28 248.304 185.776 247.984 186.296C247.504 187.064 247.256 187.976 247.296 188.88C247.296 188.88 242 198.776 241.912 198.776C241.872 199.048 241.816 199.328 241.664 199.552C241.512 199.776 241.24 199.944 240.968 199.896C240.712 199.848 240.52 199.64 240.272 199.576C240.04 199.512 239.792 199.584 239.568 199.528C239.384 199.48 239.24 199.352 239.104 199.224C238.112 198.248 237.6 196.8 237.76 195.424C237.872 194.48 238.272 193.552 238.128 192.616C238.048 192.08 237.792 191.584 237.656 191.064C237.296 189.632 237.904 188.136 237.904 186.656C237.904 184.92 237.072 183.296 236.144 181.832C235.808 181.296 235.44 180.76 234.92 180.408C234.208 179.92 233.28 179.816 232.44 179.992C231.584 180.152 230.808 180.568 229.28 181.04Z" fill="#000001"/>
<path d="M152.568 339.664C151.272 343 148.904 345.872 146.008 347.976C143.112 350.08 139.712 351.432 136.2 352.128C134.904 352.384 133.56 352.56 132.392 353.184C131.224 353.808 130.248 355.008 130.336 356.328L130.44 356.624H158.728C158.728 356.624 160.48 352.632 160.456 352.512C161.216 351.448 161.216 350.024 161.008 348.728C160.792 347.44 160.392 346.16 160.464 344.848C160.56 343.072 161.496 341.464 162.456 339.968L152.568 339.664Z" fill="#000001"/>
<path d="M213.448 343.072C214.352 344.448 214.872 346.224 214.248 347.744C213.656 349.2 212.192 350.08 210.808 350.824C207.4 352.664 203.856 354.328 200.08 355.16C199.336 355.328 198.552 355.464 197.92 355.888C196.968 356.52 196.512 357.656 196.104 358.72L196.112 359H224.296C224.296 359 226.368 354.2 226.376 354.168C226.672 353.296 226.968 352.408 226.936 351.488C226.872 349.952 225.904 348.632 225.024 347.376C224.136 346.12 223.264 344.688 223.448 343.168L213.448 343.072Z" fill="#000001"/>
<path d="M215.232 229.776C216.728 226.28 217.008 222.4 217.272 218.6C217.504 215.296 217.696 211.808 216.224 208.84C214.76 205.888 211.76 203.872 208.56 203.12C205.352 202.368 201.96 202.768 198.808 203.736C196.072 204.576 193.464 205.84 191.104 207.472C186.64 210.56 183.144 214.912 180.52 219.672C178.328 223.64 176.68 227.992 176.448 232.52C176.216 237.048 177.512 241.76 180.576 245.096C183.648 248.432 188.608 250.128 192.92 248.744C197.568 247.248 200.496 242.816 204.04 239.456C206.064 237.536 208.376 235.912 210.872 234.656C212.792 233.688 214.024 232.608 215.232 229.776Z" fill="#FFDC32"/>
<path d="M210.696 203.976C211.512 202.024 212.624 200.128 214.304 198.848C217 196.792 220.976 196.696 223.872 198.456C225.328 199.336 226.592 200.656 228.264 200.992C228.264 200.992 237.576 202.816 237.6 202.944C240.224 202.64 242.976 202.672 245.392 203.752C247.808 204.832 249.808 207.136 249.896 209.776C249.928 210.824 249.672 211.864 249.288 212.84C248.432 215.032 246.968 216.936 245.376 218.672C243.784 220.408 242.032 221.992 240.464 223.744L225.848 259.248C225.848 259.248 212.928 297.568 212.864 297.712C213.056 298.264 213.24 298.872 213.032 299.416C212.952 299.624 212.816 299.808 212.752 300.016C212.688 300.224 212.712 300.496 212.896 300.616C212.896 300.616 224.464 340.744 224.448 340.904C224.856 341.392 225.136 342.056 224.96 342.664C224.8 343.216 224.28 343.608 223.728 343.768C223.176 343.928 222.592 343.912 222.016 343.896C218.464 343.768 214.92 343.632 211.368 343.504C211.192 343.496 210.976 343.456 210.928 343.288C210.928 343.288 196.872 303.288 196.848 303.28C196.52 302.496 196.448 301.616 196.64 300.792L200.536 279.296C200.536 279.296 166.144 338.832 166.016 339.08C165.84 339.368 165.904 339.728 165.864 340.064C165.824 340.4 165.552 340.776 165.232 340.68L147.904 339.984C147.904 339.984 193.4 249.992 193.728 249.64C194.024 248.592 193.84 247.464 193.496 246.432C193.16 245.4 192.672 244.416 192.344 243.384C192.224 243.008 192.128 242.608 192.224 242.224C192.4 241.568 193.096 241.216 194.16 240.616C201.296 237.472 208.168 233.744 214.608 229.528C214.952 227.384 215.712 225.328 216.288 223.232C217.224 219.824 217.656 216.2 216.92 212.744C216.192 209.272 214.176 205.984 210.696 203.976Z" fill="#00396D"/>
<path d="M239.44 198.768C238.656 200.128 237.856 201.504 237.376 203.232C234.52 204.936 230.896 205.288 227.768 204.168C227.304 204 226.784 203.704 226.776 203.216C226.768 202.8 227.144 202.488 227.456 202.208C228.024 201.688 228.456 201.024 228.664 199.984C227.56 200.28 226.376 199.568 225.8 198.584C225.224 197.6 225.136 196.408 225.168 195.264C225.216 193.544 225.504 191.84 226.032 190.2L226.08 189.904C226.08 189.904 223.064 189.584 223.112 189.352C223.944 189.056 224.784 188.752 225.528 188.272C226.272 187.792 226.92 187.112 227.168 186.312C227.792 184.424 228.6 182.6 229.592 180.872C230.248 179.728 230.992 178.608 231.968 177.712C232.944 176.816 234.16 176.144 235.504 176.096C235.168 177.056 235.312 178.144 235.72 179.08C236.128 180.016 236.776 180.824 237.464 181.584C238.472 182.688 239.576 183.704 240.648 184.744C240.824 186.4 240.08 187.992 239.376 189.504C240.024 189.92 240.248 190.76 240.312 191.52C240.424 192.92 240.168 194.352 239.576 195.624C239.328 196.152 239.016 196.672 238.912 197.248C238.808 197.824 238.968 198.496 239.44 198.768Z" fill="#FFDC32"/>
<path d="M192.423 241.824C192.919 244.296 194.119 246.616 195.855 248.432C194.615 249.128 193.343 249.792 192.063 250.408C191.711 250.576 191.319 250.752 190.935 250.672C190.687 250.624 190.463 250.472 190.207 250.424C189.711 250.336 189.255 250.656 188.791 250.856C188.335 251.064 187.679 251.096 187.447 250.648C187.351 250.464 187.335 250.208 187.143 250.128C187.039 250.08 186.919 250.112 186.799 250.144C186.055 250.328 185.207 250.232 184.631 249.736C183.911 249.112 183.783 248.072 183.695 247.128C185.927 246.944 188.127 246.328 190.135 245.336C190.519 245.144 190.903 244.936 191.183 244.616C190.231 244.416 189.327 244.008 188.551 243.416C188.463 243.344 188.367 243.264 188.335 243.152C188.279 242.912 188.551 242.744 188.783 242.656C189.855 242.272 190.951 242 192.423 241.824Z" fill="#FFDC32"/>
<path d="M175.864 238.199C176.976 238.703 178.208 238.927 179.424 238.847C179.704 238.831 180.024 238.815 180.208 239.023C180.44 239.295 180.248 239.711 180.04 240.015C179.832 240.311 179.616 240.711 179.824 241.007C179.888 241.103 179.984 241.167 180.08 241.239C180.464 241.543 180.704 242.023 180.72 242.511C180.728 242.743 180.696 242.975 180.744 243.207C180.888 243.855 181.704 244.311 181.568 244.967C181.464 245.479 180.84 245.679 180.328 245.775C179.792 245.879 179.24 245.975 178.696 245.951C178.408 245.935 178.12 245.887 177.88 245.727C177.68 245.591 177.536 245.399 177.392 245.207C176.504 243.975 175.768 242.639 175.184 241.231C175 240.775 174.824 240.303 174.824 239.815C174.816 239.303 175.024 238.791 175.864 238.199Z" fill="#FFDC32"/>
<path d="M226.84 187.081C226.792 187.081 226.744 187.073 226.688 187.049C226.48 186.969 226.384 186.737 226.464 186.529C227.432 184.097 228.6 181.721 229.928 179.473C230.448 178.593 231.024 177.673 231.872 176.985C232.904 176.145 234.176 175.777 235.16 175.553C235.376 175.505 235.592 175.641 235.64 175.857C235.688 176.073 235.552 176.289 235.336 176.337C233.992 176.641 233.08 177.033 232.376 177.609C231.632 178.217 231.104 179.065 230.616 179.881C229.304 182.097 228.16 184.433 227.2 186.825C227.152 186.985 227 187.081 226.84 187.081Z" fill="#000001"/>
<path d="M230.032 190.304C230.024 190.304 230.024 190.304 230.016 190.304L221.28 189.92C221.08 189.912 220.912 189.752 220.896 189.544C220.88 189.336 221.024 189.16 221.224 189.12C224.912 188.448 228.408 186.624 231.064 183.976C231.224 183.816 231.472 183.824 231.632 183.976C231.792 184.136 231.784 184.384 231.632 184.544C229.504 186.664 226.856 188.28 224 189.232L230.056 189.496C230.28 189.504 230.448 189.696 230.44 189.912C230.424 190.136 230.24 190.304 230.032 190.304Z" fill="#000001"/>
<path d="M228.008 200.351C227.752 200.351 227.496 200.327 227.24 200.255C226.376 200.023 225.648 199.287 225.288 198.287C224.984 197.447 224.96 196.575 224.968 195.687C224.976 193.871 225.064 191.951 225.72 190.151C225.792 189.943 226.024 189.839 226.232 189.911C226.44 189.983 226.544 190.215 226.472 190.423C225.864 192.103 225.776 193.951 225.768 195.687C225.768 196.503 225.784 197.303 226.04 198.015C226.304 198.759 226.848 199.319 227.448 199.479C227.832 199.583 228.256 199.543 228.696 199.495C230.176 199.327 231.664 199.039 233.112 198.647C233.328 198.591 233.544 198.719 233.6 198.927C233.656 199.143 233.536 199.359 233.32 199.415C231.84 199.815 230.312 200.111 228.792 200.287C228.536 200.327 228.272 200.351 228.008 200.351Z" fill="#000001"/>
<path d="M227.536 202.929C227.464 202.929 227.392 202.905 227.32 202.865C227.136 202.745 227.08 202.497 227.2 202.313L228.64 200.049C228.76 199.865 229.008 199.809 229.192 199.929C229.376 200.049 229.432 200.297 229.312 200.481L227.872 202.745C227.8 202.857 227.672 202.929 227.536 202.929Z" fill="#000001"/>
<path d="M231.296 181.897C231.184 181.897 231.072 181.849 230.992 181.753C230.712 181.417 230.28 181.193 229.84 181.153C229.616 181.137 229.456 180.937 229.472 180.721C229.488 180.497 229.688 180.337 229.904 180.353C230.56 180.409 231.176 180.729 231.6 181.233C231.744 181.401 231.72 181.657 231.552 181.793C231.48 181.865 231.392 181.897 231.296 181.897Z" fill="#000001"/>
<path d="M235.816 183.048C235.704 183.048 235.6 183 235.52 182.92C235.048 182.4 234.328 182.12 233.624 182.192C233.408 182.208 233.208 182.056 233.184 181.832C233.16 181.616 233.32 181.416 233.544 181.392C234.488 181.296 235.48 181.672 236.112 182.376C236.256 182.544 236.248 182.792 236.08 182.944C236 183.016 235.912 183.048 235.816 183.048Z" fill="#000001"/>
<path d="M233.423 193.873C233.287 193.873 233.159 193.801 233.079 193.681C232.967 193.489 233.023 193.249 233.215 193.129C233.479 192.969 233.663 192.753 233.719 192.529C233.775 192.321 233.695 192.089 233.551 192.001C233.399 191.913 233.167 191.929 232.951 191.961C232.591 192.009 232.239 192.089 231.895 192.201C231.775 192.241 231.655 192.281 231.535 192.321C230.911 192.529 230.207 192.769 229.487 192.577C229.271 192.521 229.151 192.297 229.207 192.089C229.263 191.873 229.479 191.753 229.703 191.809C230.183 191.937 230.719 191.761 231.287 191.569C231.415 191.529 231.543 191.481 231.663 191.441C232.047 191.321 232.447 191.233 232.847 191.177C233.199 191.129 233.607 191.105 233.967 191.321C234.415 191.593 234.639 192.185 234.495 192.737C234.383 193.161 234.079 193.545 233.631 193.817C233.567 193.849 233.495 193.873 233.423 193.873Z" fill="#000001"/>
<path d="M238.335 190.273C238.031 190.273 237.719 190.217 237.431 190.113C237.223 190.041 237.119 189.809 237.191 189.601C237.271 189.393 237.495 189.289 237.703 189.361C238.151 189.529 238.679 189.505 239.111 189.305C239.311 189.217 239.551 189.297 239.639 189.497C239.735 189.697 239.647 189.937 239.447 190.025C239.103 190.193 238.719 190.273 238.335 190.273Z" fill="#000001"/>
<path d="M237.584 203.055C237.536 203.055 237.488 203.047 237.44 203.031C237.232 202.951 237.136 202.719 237.216 202.511C237.672 201.351 238.264 200.239 238.984 199.223C239.112 199.039 239.36 198.999 239.544 199.127C239.728 199.255 239.768 199.503 239.64 199.687C238.96 200.655 238.4 201.703 237.968 202.807C237.896 202.959 237.744 203.055 237.584 203.055Z" fill="#000001"/>
<path d="M233.415 185.976C233.287 185.976 233.191 185.936 233.119 185.896C233.007 185.832 232.751 185.624 232.815 185.112C232.847 184.864 232.951 184.584 233.103 184.312C233.511 183.608 234.063 183.288 234.479 183.528C234.575 183.584 234.703 183.696 234.759 183.912C234.839 184.224 234.743 184.672 234.487 185.112C234.231 185.552 233.895 185.864 233.583 185.952C233.535 185.968 233.471 185.976 233.415 185.976Z" fill="#000001"/>
<path d="M229.2 184.336C229.096 184.336 229 184.312 228.904 184.256C228.792 184.192 228.536 183.984 228.6 183.472C228.632 183.224 228.736 182.944 228.888 182.672C229.144 182.232 229.48 181.92 229.792 181.832C230.008 181.776 230.168 181.832 230.264 181.888C230.376 181.952 230.632 182.16 230.568 182.672C230.536 182.92 230.432 183.2 230.28 183.472C229.968 184.024 229.56 184.336 229.2 184.336Z" fill="#000001"/>
<path d="M193.191 241.367C193.031 241.367 192.879 241.271 192.815 241.103C192.735 240.895 192.847 240.663 193.047 240.591C200.919 237.671 208.367 232.911 214.359 229.087C216.863 227.487 219.367 225.879 221.871 224.263C227.279 220.775 233.407 216.815 238.439 211.727C238.591 211.567 238.847 211.567 239.007 211.727C239.167 211.879 239.167 212.135 239.007 212.295C233.911 217.447 227.743 221.423 222.303 224.935C219.799 226.551 217.295 228.159 214.791 229.759C208.767 233.599 201.279 238.383 193.327 241.335C193.279 241.359 193.239 241.367 193.191 241.367Z" fill="#000001"/>
<path d="M197.48 249.681C196.616 249.681 196.096 249.217 195.784 248.857C195.64 248.689 195.656 248.441 195.816 248.289C195.984 248.145 196.232 248.153 196.384 248.321C196.728 248.705 197.04 248.873 197.456 248.881C211.384 241.113 225.144 232.641 238.368 223.705C238.552 223.577 238.8 223.633 238.92 223.809C239.04 223.985 238.992 224.241 238.816 224.361C225.552 233.329 211.736 241.833 197.76 249.625C197.704 249.657 197.64 249.673 197.584 249.673C197.552 249.681 197.512 249.681 197.48 249.681Z" fill="#000001"/>
<path d="M214.792 207.257C214.744 207.257 214.688 207.249 214.64 207.225C214.44 207.137 214.336 206.905 214.424 206.705C215.216 204.809 216.136 202.945 217.152 201.153C217.264 200.961 217.512 200.897 217.696 201.001C217.888 201.113 217.952 201.353 217.848 201.545C216.84 203.305 215.936 205.145 215.16 207.009C215.096 207.169 214.952 207.257 214.792 207.257Z" fill="#000001"/>
<path d="M214.696 229.048C214.656 229.048 214.616 229.04 214.584 229.032C214.376 228.968 214.256 228.744 214.32 228.536C215.168 225.712 216.048 222.8 216.456 219.84C216.912 216.552 216.712 213.608 215.864 211.096C214.872 208.152 212.904 205.752 210.48 204.512C210.28 204.416 210.208 204.168 210.304 203.976C210.4 203.776 210.648 203.704 210.84 203.8C213.448 205.128 215.552 207.696 216.616 210.84C217.504 213.472 217.712 216.536 217.24 219.944C216.824 222.96 215.936 225.912 215.072 228.76C215.032 228.936 214.872 229.048 214.696 229.048Z" fill="#000001"/>
<path d="M200.471 279.52C200.447 279.52 200.423 279.52 200.399 279.512C200.183 279.472 200.039 279.264 200.071 279.048L203.775 257.856C203.815 257.64 204.023 257.488 204.239 257.528C204.455 257.568 204.599 257.776 204.567 257.992L200.863 279.184C200.831 279.376 200.663 279.52 200.471 279.52Z" fill="#000001"/>
<path d="M188.072 251.456C187.592 251.456 187.104 251.248 186.896 250.784C186.872 250.72 186.848 250.664 186.832 250.6C186.816 250.56 186.8 250.504 186.792 250.488C186.744 250.488 186.528 250.568 186.416 250.608L186.232 250.672C185.208 251 184.168 250.312 183.712 249.488C183.256 248.672 183.216 247.736 183.176 246.92C183.168 246.704 183.336 246.512 183.552 246.504C186.128 246.344 188.568 245.704 190.672 244.632C190.592 244.608 190.504 244.592 190.424 244.568C190.144 244.496 189.872 244.432 189.608 244.352C189.144 244.208 188.552 243.992 188.096 243.552C188 243.456 187.864 243.304 187.824 243.088C187.8 242.912 187.808 242.472 188.472 242.192C189.608 241.72 190.808 241.464 192.04 241.416C192.264 241.424 192.448 241.584 192.456 241.8C192.464 242.024 192.288 242.208 192.072 242.216C190.936 242.256 189.832 242.496 188.784 242.928C188.728 242.952 188.688 242.976 188.656 242.992C189.024 243.304 189.48 243.472 189.848 243.584C190.104 243.664 190.36 243.728 190.624 243.792C191 243.888 191.4 243.992 191.84 244.136C191.992 244.184 192.096 244.32 192.112 244.472C192.128 244.624 192.056 244.776 191.92 244.856C189.64 246.208 186.912 247.04 184 247.272C184.04 247.904 184.12 248.568 184.416 249.104C184.72 249.656 185.4 250.112 185.992 249.92L186.144 249.864C186.472 249.744 187.024 249.544 187.4 249.968C187.52 250.104 187.568 250.256 187.6 250.368C187.608 250.4 187.624 250.432 187.632 250.464C187.712 250.648 188.048 250.704 188.296 250.64C188.504 250.584 188.712 250.472 188.936 250.352C189.096 250.264 189.256 250.184 189.424 250.112C189.56 250.056 189.72 250 189.904 250.016C190.08 250.032 190.216 250.112 190.32 250.168C190.696 250.368 191.144 250.408 191.616 250.288C192.088 250.168 192.544 249.92 192.944 249.688C193.648 249.28 194.336 248.832 195 248.36C195.184 248.232 195.432 248.272 195.56 248.456C195.688 248.64 195.648 248.888 195.464 249.016C194.784 249.504 194.064 249.96 193.344 250.384C192.904 250.64 192.384 250.928 191.808 251.064C191.144 251.224 190.504 251.168 189.992 250.896C189.904 250.848 189.848 250.816 189.824 250.816C189.824 250.816 189.8 250.824 189.736 250.848C189.592 250.912 189.456 250.984 189.32 251.056C189.072 251.192 188.808 251.328 188.504 251.408C188.36 251.44 188.216 251.456 188.072 251.456Z" fill="#000001"/>
<path d="M178.72 246.281C178.44 246.281 178.072 246.257 177.752 246.065C177.504 245.921 177.328 245.713 177.168 245.513C175.984 244.009 175.088 242.321 174.504 240.505C174.4 240.185 174.296 239.809 174.312 239.409C174.344 238.825 174.712 238.401 175.672 237.841C175.8 237.769 175.952 237.769 176.08 237.841C176.928 238.353 178.032 238.305 179.096 238.257L179.352 238.249C180.352 238.217 180.712 238.601 180.848 238.929C181.096 239.537 180.64 240.097 180.416 240.369C180.2 240.633 180.104 240.865 180.16 240.969C180.192 241.025 180.296 241.089 180.4 241.153L180.488 241.209C180.984 241.521 181.472 242.097 181.368 242.793C181.352 242.929 181.304 243.057 181.256 243.193C181.216 243.321 181.168 243.433 181.184 243.505C181.2 243.601 181.336 243.713 181.48 243.833C181.696 244.017 181.976 244.249 182.048 244.617C182.128 245.025 181.92 245.473 181.528 245.737C181.224 245.937 180.88 246.001 180.6 246.057C180 246.169 179.384 246.289 178.736 246.289C178.736 246.281 178.728 246.281 178.72 246.281ZM175.88 238.649C175.128 239.121 175.12 239.337 175.112 239.449C175.096 239.713 175.184 239.993 175.264 240.257C175.816 241.985 176.672 243.585 177.792 245.017C177.912 245.169 178.024 245.297 178.144 245.377C178.312 245.473 178.544 245.481 178.736 245.481C179.304 245.481 179.888 245.369 180.448 245.265C180.68 245.225 180.92 245.177 181.088 245.065C181.2 244.993 181.28 244.865 181.264 244.777C181.24 244.681 181.112 244.569 180.968 244.449C180.744 244.265 180.464 244.033 180.4 243.649C180.352 243.369 180.432 243.129 180.504 242.929C180.536 242.849 180.568 242.761 180.576 242.681C180.616 242.385 180.352 242.073 180.064 241.889L179.992 241.841C179.824 241.737 179.608 241.609 179.472 241.369C179.304 241.081 179.224 240.585 179.8 239.865C179.904 239.737 180.176 239.401 180.112 239.225C180.056 239.097 179.792 239.025 179.392 239.041L179.144 239.049C178.072 239.105 176.888 239.161 175.88 238.649Z" fill="#000001"/>
<path d="M191.832 234.569C191.592 234.569 191.368 234.561 191.152 234.561C190.552 234.545 189.944 234.505 189.344 234.465C188.176 234.393 186.976 234.321 185.8 234.401C185.584 234.425 185.392 234.249 185.376 234.033C185.36 233.809 185.528 233.625 185.744 233.609C186.968 233.521 188.2 233.601 189.392 233.673C189.984 233.713 190.584 233.745 191.176 233.769C193.384 233.841 194.952 233.577 196.256 232.929C197.888 232.121 198.976 230.617 199.024 229.097C199.064 227.833 198.392 226.449 197.168 225.305C196.336 224.529 195.344 223.905 194.384 223.305C194.048 223.097 193.712 222.889 193.384 222.673C192.544 222.121 191.432 221.241 191.408 219.977C191.392 219.145 191.872 218.321 192.8 217.585C194.64 216.121 197.2 215.457 200.616 215.529C201.936 215.561 203.896 215.689 205.672 216.473C205.872 216.561 205.968 216.801 205.88 217.001C205.792 217.201 205.552 217.297 205.352 217.209C203.704 216.481 201.848 216.361 200.6 216.337C197.36 216.265 194.992 216.873 193.304 218.217C192.8 218.617 192.208 219.241 192.216 219.969C192.232 220.857 193.144 221.553 193.832 222.009C194.16 222.225 194.488 222.433 194.816 222.633C195.808 223.257 196.84 223.905 197.728 224.729C198.544 225.489 199.904 227.081 199.84 229.129C199.784 230.937 198.52 232.713 196.624 233.649C195.024 234.417 193.232 234.569 191.832 234.569Z" fill="#000001"/>
<path d="M187.304 239.513C187.232 239.513 187.16 239.497 187.096 239.457C186.904 239.345 186.848 239.097 186.96 238.905C187.96 237.273 189.008 235.633 190.072 234.041C190.192 233.857 190.44 233.809 190.624 233.929C190.808 234.049 190.856 234.297 190.736 234.481C189.68 236.065 188.64 237.689 187.64 239.313C187.568 239.449 187.44 239.513 187.304 239.513Z" fill="#000001"/>
<path d="M201.271 216.232C201.175 216.232 201.071 216.192 200.991 216.12C200.831 215.968 200.823 215.712 200.983 215.552C202.039 214.456 203.015 213.256 203.871 212C203.999 211.816 204.247 211.768 204.423 211.896C204.607 212.024 204.655 212.272 204.527 212.448C203.647 213.744 202.647 214.976 201.559 216.104C201.479 216.192 201.375 216.232 201.271 216.232Z" fill="#000001"/>
<path d="M183.632 219.633C183.56 219.633 183.48 219.609 183.416 219.569C183.232 219.449 183.176 219.201 183.296 219.017C186.64 213.881 191.6 209.753 197.256 207.393C200.736 205.945 203.752 205.481 206.48 206.001C206.696 206.041 206.84 206.249 206.8 206.465C206.76 206.681 206.544 206.825 206.336 206.785C203.768 206.297 200.896 206.737 197.568 208.129C192.056 210.425 187.224 214.449 183.968 219.449C183.888 219.569 183.76 219.633 183.632 219.633Z" fill="white"/>
<path d="M179.047 235.879C178.831 235.879 178.647 235.703 178.647 235.479C178.631 232.607 179.175 229.679 180.215 227.007C180.295 226.799 180.527 226.695 180.735 226.783C180.943 226.863 181.039 227.095 180.959 227.303C179.951 229.887 179.431 232.711 179.447 235.479C179.447 235.703 179.271 235.879 179.047 235.879Z" fill="white"/>
<path d="M316.183 243.634C315.879 242.97 316.063 242.138 316.551 241.586C317.039 241.042 317.783 240.762 318.687 240.818C319.511 241.458 320.591 241.658 321.623 241.826C323.015 242.066 324.407 242.298 325.799 242.538C326.047 242.578 326.303 242.626 326.487 242.802C326.775 243.074 326.751 243.53 326.751 243.93C326.751 244.49 326.847 245.05 327.031 245.586C327.159 245.946 327.319 246.298 327.303 246.674C327.271 247.386 326.607 247.938 326.511 248.642C326.463 249.018 326.583 249.402 326.655 249.778C326.831 250.634 326.767 251.546 326.415 252.41C325.527 253.666 324.631 254.914 323.743 256.17C322.615 257.754 321.463 259.37 319.871 260.482C319.679 260.618 319.447 260.754 319.223 260.69C319.039 260.642 318.911 260.466 318.815 260.298C318.223 259.242 318.335 257.946 318.567 256.762C319.007 254.49 319.807 252.306 320.247 250.034C320.359 249.458 320.447 248.874 320.399 248.282C320.351 247.706 320.175 247.146 319.959 246.61C319.759 246.09 319.503 245.554 319.039 245.258C318.647 245.01 318.167 244.962 317.711 244.866C317.255 244.77 316.647 244.658 316.183 243.634Z" fill="#000001"/>
<path d="M266.647 345.945C266.559 347.545 265.727 349.041 264.583 350.161C263.447 351.289 262.015 352.081 260.559 352.737C259.095 353.393 257.583 353.921 256.135 354.609C255.455 354.929 254.767 355.305 254.279 355.873C253.655 356.593 253.615 358.545 253.615 358.545C253.615 358.545 271.455 358.545 271.359 358.385C272.391 357.857 273.215 356.929 273.615 355.841C274.015 354.753 273.991 353.513 273.543 352.441C273.343 351.961 273.055 351.513 272.911 351.009C272.655 350.105 272.871 349.137 273.215 348.265C273.559 347.393 274.047 346.577 274.335 345.689C273.575 346.009 272.719 345.921 271.903 345.873C270.407 345.793 268.895 345.849 266.647 345.945Z" fill="#000001"/>
<path d="M305.728 346.632C306.84 348.08 306.744 350.232 305.776 351.784C304.808 353.336 303.128 354.336 301.36 354.816C300.304 355.104 299.04 355.352 298.584 356.344C298.288 356.984 298.488 357.808 299.032 358.248C299.672 358.76 301.336 359.064 301.336 359.064H307.528C307.528 359.064 315.008 352.904 314.904 352.904C315.424 352.464 315.832 351.888 316 351.232C316.168 350.576 316.072 349.84 315.68 349.288C315.192 348.6 314.304 348.224 313.992 347.448C313.768 346.888 313.816 346.12 313.28 345.848C313.088 345.752 312.856 345.752 312.64 345.752C310.752 345.784 308.864 345.968 305.728 346.632Z" fill="#000001"/>
<path d="M330.919 233.521C331.095 237.297 330.359 241.057 329.511 244.745C329.239 245.929 328.959 247.121 328.551 248.265C327.183 252.177 324.503 255.481 321.775 258.609C320.911 259.601 320.023 260.601 318.927 261.329C317.927 262.001 316.759 262.425 315.559 262.569C314.967 262.641 314.351 262.641 313.791 262.425C313.191 262.201 312.703 261.753 312.311 261.241C311.191 259.801 310.799 257.905 310.823 256.073C310.847 254.249 311.255 252.449 311.575 250.649C311.951 248.545 312.215 246.417 312.759 244.345C313.303 242.281 314.151 240.249 315.591 238.553C314.735 237.713 314.343 236.529 313.983 235.385C313.671 234.409 313.367 233.441 312.927 232.873C310.143 237.289 307.703 241.937 305.991 246.873C304.287 251.801 303.319 257.025 303.527 262.241L262.471 346.289C262.471 346.289 276.031 346.289 276.239 346.289C276.575 345.793 276.911 345.289 277.247 344.793L294.607 313.873L304.447 347.121C304.447 347.121 315.175 347.121 315.167 346.921C315.543 346.857 315.879 346.601 316.047 346.265C316.215 345.929 316.215 345.505 316.047 345.169C315.951 344.977 315.799 344.809 315.711 344.609C315.447 344.001 315.807 343.233 315.471 342.657C315.471 342.657 308.303 313.641 308.375 313.401C308.255 313.169 308.191 312.913 308.175 312.649C308.887 312.369 309.367 311.577 309.279 310.817C309.247 310.513 309.143 310.153 309.359 309.937C309.359 309.937 325.647 266.297 326.103 266.201C332.407 258.553 336.303 248.945 337.103 239.073C337.287 236.833 337.295 234.497 336.351 232.321C334.615 231.777 332.623 232.065 330.919 233.521Z" fill="#8B4513"/>
<path d="M311.52 260.009C310.92 260.329 310.376 260.745 309.92 261.249C309.864 261.313 309.808 261.377 309.784 261.457C309.768 261.529 309.776 261.609 309.792 261.681C309.864 262.081 310 262.481 310.248 262.809C310.496 263.129 310.88 263.369 311.448 263.345C313 263.625 314.592 263.673 316.152 263.473C316.472 263.433 316.808 263.377 317.088 263.217C317.904 262.769 318.088 261.649 318.792 261.033C318.92 260.921 319.072 260.817 319.128 260.657C319.168 260.537 319.152 260.401 319.168 260.273C319.2 259.945 319.456 259.689 319.648 259.417C320.176 258.673 320.288 257.657 319.904 256.593C321.208 255.185 322.272 253.497 322.656 251.617C322.776 251.025 322.776 250.297 322.272 249.961C322.04 249.809 321.704 249.737 321.632 249.465C321.576 249.273 321.696 249.073 321.792 248.897C322.24 248.041 322.112 246.985 321.728 246.097C321.504 245.569 321.184 245.073 320.712 244.745C320.208 244.393 319.584 244.281 318.976 244.177C318.04 244.017 317.112 243.857 316.176 243.697C316.176 243.697 314.488 245.721 314.488 245.769C313.784 246.897 313.176 248.081 312.68 249.313C312.504 249.753 312.328 250.225 311.976 250.553C311.72 250.793 311.392 250.937 311.104 251.129C311.064 251.161 311.016 251.193 311.008 251.241C311 251.289 311.032 251.337 311.064 251.369C311.192 251.521 311.376 251.609 311.52 251.737C311.672 251.865 311.8 252.049 311.768 252.249C311.744 252.369 311.672 252.465 311.6 252.561C311.048 253.313 310.816 254.249 310.64 255.161C310.488 255.953 310.36 256.753 310.424 257.553C310.488 258.361 310.768 259.169 311.52 260.009Z" fill="#FFDC32"/>
<path d="M330.168 241.457C328.32 242.489 326.12 242.889 324.032 242.569C322.608 242.353 321.256 241.825 319.92 241.289C319.336 241.057 318.76 240.817 318.2 240.529C315.472 239.105 313.504 236.321 313.136 233.025C312.48 229.233 313.176 225.281 314.696 221.737C316.216 218.201 318.528 215.049 321.12 212.201C322.16 211.057 323.248 209.961 324.448 209.001C327.184 206.817 330.464 205.409 333.808 204.361C336.408 203.545 339.184 202.929 341.848 203.505C346.232 204.457 349.44 208.601 350.248 213.017C351.056 217.425 349.816 222.001 347.816 226.017C345.248 231.193 341.408 235.729 336.864 238.929C337.216 236.705 337.04 234.393 336.264 232.281C334.808 231.865 333.208 232.017 331.856 232.697C331.528 232.865 331.192 233.081 331.032 233.417C330.872 233.761 330.92 234.153 330.96 234.529C331.2 236.737 330.976 238.977 330.168 241.457Z" fill="#FFDC32"/>
<path d="M312.279 250.458C312.223 250.458 312.167 250.45 312.111 250.426C311.911 250.338 311.823 250.098 311.911 249.898C312.935 247.634 314.207 245.482 315.687 243.482C315.823 243.306 316.071 243.266 316.247 243.402C316.423 243.538 316.463 243.786 316.327 243.962C314.879 245.914 313.639 248.018 312.639 250.226C312.575 250.37 312.431 250.458 312.279 250.458Z" fill="#000001"/>
<path d="M312.935 252.809C312.871 252.809 312.815 252.793 312.759 252.769L309.767 251.265C309.607 251.185 309.519 251.009 309.551 250.825C309.583 250.649 309.735 250.521 309.919 250.505C311.959 250.369 313.463 249.849 314.527 248.913C314.695 248.769 314.943 248.785 315.095 248.945C315.239 249.113 315.223 249.361 315.063 249.513C314.119 250.345 312.895 250.881 311.327 251.145L313.119 252.049C313.319 252.145 313.399 252.385 313.295 252.585C313.223 252.729 313.079 252.809 312.935 252.809Z" fill="#000001"/>
<path d="M313.59 261.217C313.574 261.217 313.551 261.217 313.535 261.217C312.303 261.049 311.439 260.641 310.895 259.985C310.351 259.329 310.191 258.465 310.119 257.881C309.887 255.993 310.222 254.009 311.062 252.297C311.158 252.097 311.399 252.017 311.599 252.113C311.799 252.209 311.879 252.449 311.783 252.649C311.007 254.225 310.703 256.049 310.911 257.785C310.975 258.273 311.095 258.985 311.511 259.481C311.919 259.977 312.623 260.289 313.647 260.433C313.863 260.465 314.014 260.665 313.99 260.881C313.958 261.073 313.79 261.217 313.59 261.217Z" fill="#000001"/>
<path d="M315.782 246.64C315.694 246.64 315.598 246.608 315.526 246.544C315.31 246.368 315.054 246.24 314.782 246.176C314.566 246.128 314.43 245.912 314.478 245.696C314.526 245.48 314.742 245.352 314.958 245.392C315.35 245.48 315.726 245.672 316.038 245.928C316.206 246.072 316.23 246.32 316.086 246.496C316.006 246.592 315.894 246.64 315.782 246.64Z" fill="#000001"/>
<path d="M318.623 248.048C318.495 248.048 318.375 247.992 318.295 247.88C318.039 247.52 317.615 247.28 317.175 247.248C316.951 247.232 316.791 247.04 316.799 246.824C316.815 246.6 317.031 246.432 317.223 246.448C317.911 246.496 318.551 246.856 318.951 247.424C319.079 247.608 319.031 247.856 318.855 247.984C318.783 248.024 318.703 248.048 318.623 248.048Z" fill="#000001"/>
<path d="M315.75 256.953C315.71 256.953 315.67 256.953 315.622 256.945C315.406 256.921 315.238 256.729 315.262 256.505C315.286 256.289 315.486 256.137 315.702 256.145C316.03 256.177 316.35 255.833 316.478 255.489C316.614 255.129 316.598 254.649 316.318 254.409C316.07 254.193 315.63 254.177 315.022 254.361L314.814 254.425C314.294 254.585 313.702 254.769 313.102 254.609C312.886 254.553 312.766 254.329 312.822 254.121C312.878 253.905 313.094 253.785 313.31 253.841C313.686 253.945 314.118 253.809 314.574 253.665L314.798 253.601C315.678 253.337 316.366 253.409 316.838 253.809C317.422 254.313 317.454 255.161 317.23 255.777C317.014 256.361 316.462 256.953 315.75 256.953Z" fill="#000001"/>
<path d="M316.727 249.648C316.655 249.648 316.583 249.632 316.519 249.6C316.191 249.432 316.151 248.992 316.431 248.44C316.703 247.888 317.079 247.648 317.415 247.816C317.511 247.864 317.623 248 317.655 248.104C317.759 248.408 317.583 248.816 317.503 248.976C317.279 249.4 316.999 249.648 316.727 249.648Z" fill="#000001"/>
<path d="M314.231 248.377C314.159 248.377 314.087 248.361 314.023 248.329C313.695 248.161 313.655 247.721 313.935 247.169C314.207 246.617 314.583 246.377 314.919 246.545C315.015 246.593 315.127 246.729 315.159 246.833C315.263 247.137 315.087 247.545 315.007 247.705C314.791 248.137 314.503 248.377 314.231 248.377Z" fill="#000001"/>
<path d="M318.248 262.16C318.12 262.16 318 262.104 317.92 261.992C317.792 261.808 317.84 261.56 318.016 261.432C322.192 258.504 325.528 254.28 327.68 249.208C329.656 244.544 330.576 239.248 330.416 233.472C330.416 233.36 330.456 233.256 330.536 233.176C331.448 232.272 332.712 231.704 333.992 231.632C334.832 231.584 335.64 231.736 336.424 231.88C336.64 231.92 336.784 232.128 336.744 232.344C336.704 232.56 336.496 232.696 336.28 232.664C335.544 232.528 334.784 232.392 334.04 232.432C333.008 232.488 331.984 232.928 331.224 233.624C331.36 239.448 330.424 244.792 328.424 249.52C326.216 254.728 322.784 259.072 318.488 262.088C318.408 262.136 318.328 262.16 318.248 262.16Z" fill="#000001"/>
<path d="M314.512 264.144C313.24 264.144 312.096 263.968 311.04 263.624C310.52 263.448 309.872 263.176 309.496 262.6C309.272 262.248 309.192 261.784 309.304 261.376C309.392 261.032 309.608 260.76 309.896 260.608C310.088 260.504 310.336 260.584 310.432 260.776C310.536 260.976 310.456 261.216 310.264 261.312C310.152 261.368 310.104 261.488 310.08 261.568C310.032 261.76 310.064 261.992 310.168 262.152C310.408 262.52 310.896 262.72 311.288 262.856C313.232 263.496 315.52 263.496 318.48 262.856C318.696 262.808 318.912 262.944 318.952 263.16C319 263.376 318.864 263.592 318.648 263.632C317.12 263.984 315.76 264.144 314.512 264.144Z" fill="#000001"/>
<path d="M294.511 314.248C294.479 314.248 294.439 314.24 294.407 314.232C294.191 314.168 294.071 313.952 294.127 313.736L300.599 290.688C300.663 290.472 300.879 290.352 301.095 290.408C301.311 290.472 301.431 290.688 301.375 290.904L294.903 313.952C294.847 314.136 294.687 314.248 294.511 314.248Z" fill="#000001"/>
<path d="M315.054 238.345C314.926 238.345 314.798 238.281 314.718 238.161C313.694 236.593 312.982 234.793 312.67 232.945C312.63 232.729 312.782 232.521 312.998 232.481C313.214 232.441 313.422 232.593 313.462 232.809C313.758 234.545 314.422 236.249 315.39 237.721C315.51 237.905 315.462 238.153 315.27 238.273C315.206 238.329 315.126 238.345 315.054 238.345Z" fill="#000001"/>
<path d="M325.688 242.929C323.072 242.929 320.48 242.313 318.144 241.137C317.944 241.041 317.864 240.801 317.968 240.601C318.064 240.401 318.304 240.329 318.504 240.425C321.016 241.689 323.84 242.265 326.64 242.105C326.88 242.081 327.048 242.257 327.064 242.481C327.08 242.705 326.912 242.889 326.688 242.905C326.36 242.921 326.024 242.929 325.688 242.929Z" fill="#000001"/>
<path d="M332.352 225.545C332.168 225.545 332 225.409 331.96 225.217C331.688 223.793 330.488 222.721 329.328 221.681L328.976 221.369C327.096 219.665 326.32 218.089 326.592 216.545C326.72 215.841 327.08 215.169 327.64 214.593C328.552 213.657 329.896 213.097 331.424 213.001C332.88 212.913 334.312 213.249 335.4 213.553C336.928 213.985 338.864 214.657 340.28 216.073C340.44 216.233 340.44 216.481 340.28 216.641C340.12 216.801 339.872 216.801 339.712 216.641C338.424 215.353 336.616 214.729 335.184 214.329C334.16 214.041 332.808 213.721 331.472 213.801C330.144 213.881 328.984 214.361 328.216 215.153C327.776 215.601 327.48 216.153 327.384 216.689C327.16 217.937 327.856 219.273 329.512 220.777L329.856 221.089C331.056 222.161 332.416 223.385 332.744 225.073C332.784 225.289 332.648 225.497 332.424 225.545C332.4 225.545 332.376 225.545 332.352 225.545Z" fill="#000001"/>
<path d="M327.504 232.872C326.168 232.872 324.76 232.44 323.52 231.632C322.224 230.784 321.08 229.536 320.112 227.904C320 227.712 320.064 227.472 320.248 227.352C320.432 227.24 320.68 227.296 320.8 227.488C321.704 229.008 322.768 230.176 323.96 230.952C325.336 231.848 326.928 232.224 328.352 231.992C328.576 231.952 328.776 232.104 328.816 232.32C328.856 232.536 328.704 232.744 328.488 232.784C328.16 232.848 327.832 232.872 327.504 232.872Z" fill="#000001"/>
<path d="M321.904 235.136C321.84 235.136 321.768 235.12 321.712 235.088C321.52 234.984 321.448 234.736 321.552 234.544C322.176 233.416 322.88 232.312 323.656 231.28C323.792 231.104 324.04 231.064 324.216 231.2C324.392 231.336 324.432 231.584 324.296 231.76C323.544 232.768 322.856 233.84 322.256 234.936C322.184 235.064 322.048 235.136 321.904 235.136Z" fill="#000001"/>
<path d="M336.072 214.457C335.976 214.457 335.888 214.425 335.808 214.361C335.64 214.217 335.624 213.961 335.768 213.793C336.72 212.681 337.656 211.529 338.56 210.361C338.696 210.185 338.944 210.153 339.12 210.289C339.296 210.425 339.328 210.673 339.192 210.849C338.288 212.025 337.336 213.193 336.376 214.313C336.296 214.409 336.184 214.457 336.072 214.457Z" fill="#000001"/>
<path d="M330.232 232.745C330.112 232.745 329.992 232.689 329.912 232.585C329.616 232.185 329.288 231.737 329.096 231.217C328.864 230.585 328.88 229.937 329.152 229.441C329.24 229.281 329.344 229.137 329.456 228.993C329.568 228.849 329.68 228.713 329.728 228.577C329.768 228.473 329.784 228.353 329.8 228.241C329.856 227.921 329.928 227.473 330.336 227.241C330.608 227.081 330.896 227.105 331.12 227.121C331.176 227.121 331.232 227.129 331.296 227.129C331.96 227.129 332.52 226.473 332.752 225.857L332.784 225.777C332.912 225.441 333.088 224.985 333.544 224.801C334.232 224.529 334.864 225.089 335.192 225.769C335.376 226.153 335.592 226.561 335.848 226.561C335.944 226.561 336.08 226.513 336.216 226.465C336.512 226.361 336.952 226.209 337.328 226.521C337.472 226.641 337.552 226.793 337.6 226.905C337.912 227.609 337.864 228.473 337.472 229.545C337.408 229.721 337.336 229.889 337.272 230.065C337.048 230.633 336.832 231.169 336.792 231.721C336.776 231.945 336.568 232.113 336.368 232.097C336.144 232.081 335.984 231.889 335.992 231.673C336.04 230.993 336.288 230.369 336.528 229.769C336.592 229.601 336.664 229.441 336.72 229.273C337.04 228.409 337.088 227.737 336.872 227.233C336.84 227.161 336.824 227.145 336.816 227.137C336.768 227.113 336.584 227.185 336.48 227.217C336.288 227.281 336.04 227.353 335.832 227.353C335.064 227.337 334.688 226.569 334.464 226.105C334.304 225.769 334.016 225.465 333.84 225.529C333.712 225.585 333.616 225.825 333.536 226.041L333.504 226.129C333.16 227.025 332.344 227.913 331.296 227.913C331.288 227.913 331.272 227.913 331.264 227.913C331.192 227.913 331.128 227.905 331.056 227.905C330.928 227.897 330.792 227.881 330.728 227.921C330.648 227.969 330.616 228.169 330.584 228.361C330.56 228.521 330.528 228.689 330.472 228.833C330.376 229.089 330.216 229.297 330.08 229.473C330 229.577 329.912 229.681 329.848 229.801C329.688 230.097 329.688 230.505 329.84 230.921C329.992 231.337 330.28 231.721 330.552 232.097C330.68 232.273 330.648 232.529 330.464 232.657C330.392 232.721 330.312 232.745 330.232 232.745Z" fill="#000001"/>
<path d="M315.751 228.624C315.711 228.624 315.671 228.616 315.631 228.608C315.423 228.544 315.303 228.32 315.367 228.104C317.007 222.816 319.287 218.36 322.151 214.848C325.511 210.72 329.871 207.752 334.415 206.496C334.631 206.44 334.847 206.56 334.911 206.776C334.967 206.992 334.847 207.208 334.631 207.272C330.247 208.488 326.031 211.36 322.775 215.36C319.975 218.792 317.743 223.16 316.135 228.352C316.079 228.512 315.919 228.624 315.751 228.624Z" fill="white"/>
<path d="M344.895 210.025C344.783 210.025 344.671 209.977 344.591 209.889C342.887 207.961 340.239 206.945 337.687 207.233C337.471 207.249 337.271 207.097 337.247 206.881C337.223 206.665 337.383 206.465 337.599 206.441C340.407 206.121 343.319 207.241 345.199 209.361C345.343 209.529 345.327 209.777 345.167 209.929C345.087 209.993 344.991 210.025 344.895 210.025Z" fill="white"/>
</svg>
