<svg width="133" height="133" viewBox="0 0 133 133" fill="none" xmlns="http://www.w3.org/2000/svg">
<path d="M22.4871 47.3535L19.5371 56.3284L20.7634 56.3151L23.5617 47.4227L22.4871 47.3535Z" fill="#000001"/>
<path d="M29.6582 56.3308L36.0741 36.8011L52.9146 36.8144L55.8406 28.3556L92.2852 28.3184L89.9258 35.918L103.375 35.926L96.5279 56.3787L29.6582 56.3308Z" fill="white"/>
<path d="M43.818 40.3946C42.9721 41.0064 42.1688 41.6741 41.4107 42.3923C41.283 42.5146 41.15 42.6503 41.1314 42.8258C41.1101 43.0386 41.2671 43.2248 41.3096 43.435C41.3841 43.8127 41.0835 44.1532 40.8069 44.4218C40.4159 44.8022 40.0222 45.1826 39.586 45.5417C39.1311 44.8341 39.1045 43.9218 39.312 43.1078C39.5115 42.3311 39.9131 41.5996 40.493 41.0436C41.0729 40.4877 41.8283 40.1127 42.6263 40.0222C43.0227 39.9823 43.4775 40.0328 43.818 40.3946Z" fill="#FFDC32"/>
<path d="M40.1973 46.1719C40.8995 45.6984 41.5299 45.1239 42.0672 44.4695C42.1896 44.3232 42.312 44.153 42.2987 43.9615C42.2854 43.7167 42.0566 43.5305 42.0167 43.2885C41.9715 43.0092 42.1869 42.7618 42.3891 42.5623C43.0009 41.9611 43.6553 41.3786 44.4426 41.0674C44.5809 41.6286 44.7219 42.2059 44.6448 42.7778C44.6022 43.0916 44.4932 43.3949 44.3681 43.6875C44.0676 44.3977 43.6632 45.076 43.094 45.5947C42.5248 46.1134 41.7773 46.4645 41.0059 46.4539C40.7266 46.4486 40.4313 46.3927 40.1973 46.1719Z" fill="#FFDC32"/>
<path d="M66.5272 33.1914C65.7319 33.8351 64.9365 34.4815 64.1385 35.1252C64.0108 35.229 63.8699 35.3566 63.8699 35.5216C63.8699 35.7237 64.0747 35.8567 64.1731 36.0323C64.2822 36.2318 64.2423 36.4871 64.1305 36.684C64.0162 36.8808 63.8379 37.0324 63.6597 37.1734C63.1809 37.5511 62.6729 37.8916 62.1036 38.1576C61.8217 37.6203 61.7658 36.9846 61.8562 36.3834C61.9467 35.7822 62.1754 35.213 62.4361 34.665C62.5585 34.4123 62.6888 34.1596 62.8777 33.9522C63.0479 33.7686 63.2581 33.6276 63.4655 33.4893C63.9257 33.1887 64.4045 32.8961 64.9392 32.7764C65.4765 32.6567 66.0856 32.7365 66.5272 33.1914Z" fill="#FFDC32"/>
<path d="M67.074 33.8242C66.4277 34.3536 65.8026 34.9095 65.2014 35.4867C65.1562 35.5319 65.1083 35.5798 65.0923 35.641C65.0764 35.7048 65.0977 35.774 65.1189 35.8378C65.2147 36.1304 65.2759 36.4603 65.1455 36.7396C65.0471 36.9471 64.8583 37.096 64.6774 37.2343C64.0124 37.7424 63.3447 38.2531 62.709 38.7878C62.8633 39.0192 63.1585 39.1043 63.4325 39.1309C64.3289 39.216 65.2333 38.8357 65.893 38.2212C66.55 37.6067 66.9783 36.7742 67.223 35.907C67.4039 35.2739 67.473 34.5371 67.074 33.8242Z" fill="#FFDC32"/>
<path d="M52.7469 36.8062L36.1777 36.7476L46.9029 30.8584L52.7469 36.8062Z" fill="#00396D"/>
<path d="M57.6107 22.8551L55.8418 28.3214L92.2306 28.3719L92.071 28.2017L65.8594 16.3301L57.6107 22.8551Z" fill="#00396D"/>
<path d="M82.9922 56.3676L89.8683 35.9229L103.354 35.9734L96.5103 56.3676H82.9922Z" fill="#00396D"/>
<path d="M91.0793 39.1607L87.7969 48.9336L97.2745 48.9442L100.597 39.1182L91.0793 39.1607Z" fill="#FFDC32"/>
<path d="M81.066 39.6602C80.8585 39.841 80.659 40.0299 80.4675 40.2267C80.4329 40.264 80.3956 40.3119 80.4143 40.3597C80.4302 40.4023 80.4861 40.4156 80.51 40.4555C80.5473 40.5167 80.4941 40.5885 80.4435 40.639C80.1908 40.8891 79.9381 41.1365 79.6828 41.3865L77.6133 41.3679L78.2517 39.716L81.066 39.6602Z" fill="#FFDC32"/>
<path d="M81.6972 39.6843C81.511 39.8599 81.3355 40.0487 81.1732 40.2456C81.1971 40.3041 81.2796 40.3067 81.3275 40.3466C81.3674 40.3812 81.378 40.4451 81.3647 40.4983C81.3514 40.5515 81.3195 40.5967 81.2876 40.6419C81.1067 40.8866 80.9019 41.1101 80.6758 41.3122L84.0832 41.3973L84.5674 39.6816L81.6972 39.6843Z" fill="#FFDC32"/>
<path d="M83.7041 42.4004L77.126 42.4802L72.2422 56.3893L79.1502 56.3973L83.7041 42.4004Z" fill="#00396D"/>
<path d="M91.0995 39.1608L89.5859 43.7307L98.9917 43.7599L100.556 39.0996L91.0995 39.1608Z" fill="#8B4513"/>
<path d="M102.631 56.395C102.49 55.4241 102.368 54.4399 102.442 53.4611C102.517 52.4822 102.802 51.4953 103.403 50.7213C103.687 50.3542 104.078 50.0217 104.544 50.0057C104.874 49.9924 105.185 50.1414 105.509 50.1973C106.1 50.2983 106.696 50.0962 107.262 49.8967C108.231 49.5562 109.196 49.213 110.164 48.8726C110.723 48.6757 111.375 48.4869 111.872 48.8061C112.146 48.9816 112.322 49.2849 112.598 49.4578C112.779 49.5695 112.989 49.62 113.199 49.6546C113.982 49.7876 114.79 49.753 115.556 49.9552C116.322 50.1574 117.083 50.684 117.229 51.4634C117.325 51.9741 117.136 52.5008 116.857 52.9397C116.578 53.3786 116.213 53.7537 115.899 54.1686C115.798 54.3016 115.697 54.4586 115.716 54.6235C115.729 54.7485 115.806 54.8523 115.867 54.964C116.104 55.4002 116.054 55.9748 115.742 56.3605L102.631 56.395Z" fill="#8B4513"/>
<path d="M43.3446 32.6594C42.6902 32.1221 42.2726 31.3055 42.222 30.4596C42.1715 29.6138 42.488 28.7546 43.0732 28.1428C43.3233 27.8821 43.6372 27.6241 43.6531 27.265C43.6611 27.0841 43.5893 26.9139 43.5228 26.7436C42.8392 24.9933 42.8578 22.8733 43.967 21.3571C44.2942 20.9102 44.7411 20.5086 45.289 20.4208C45.4805 20.3915 45.6827 20.3995 45.8636 20.3277C46.0099 20.2692 46.1322 20.1628 46.2466 20.0537C46.9701 19.3568 47.5048 18.4896 48.114 17.6916C48.7231 16.8936 49.4519 16.1302 50.3936 15.7818C50.476 15.7498 50.5665 15.7232 50.6516 15.7472C50.9176 15.8243 50.8458 16.2685 51.0719 16.4281C51.2102 16.5265 51.399 16.4787 51.5587 16.4281C52.1731 16.2339 52.7956 16.0345 53.3302 15.6753C53.7718 15.3774 54.1362 14.9784 54.5565 14.6486C55.3731 14.0049 56.4025 13.6351 57.4426 13.6085C57.658 13.6032 57.8841 13.6138 58.0757 13.7123C58.5438 13.9517 58.6289 14.5874 58.5465 15.1061C58.4667 15.6248 58.2805 16.1568 58.4321 16.6622C59.2886 16.5053 60.2143 17.1251 60.3952 17.9763C60.4564 18.2689 60.4537 18.5987 60.6505 18.8195C60.9298 19.1333 61.5576 19.1706 61.5815 19.5909L57.6261 22.8839L52.8833 36.8888L46.9595 30.848L43.3446 32.6594Z" fill="#8B4513"/>
<path d="M96.2499 39.2052C95.3056 40.5565 94.0261 41.6391 93.0313 42.9532C92.877 43.158 92.7254 43.3761 92.6828 43.6262C92.6296 43.9533 92.7653 44.2832 92.752 44.613C92.736 44.9641 92.5525 45.2887 92.345 45.5706C91.4353 46.8102 89.9882 47.6162 89.2461 48.9621C89.2461 48.9621 90.068 48.9887 90.0946 48.9887C90.7942 47.6481 92.1987 46.8527 93.2361 45.7542C93.3957 45.5839 93.5526 45.3977 93.6165 45.1743C93.7069 44.8551 93.6005 44.5119 93.6245 44.1821C93.659 43.7006 93.9676 43.2883 94.2895 42.9292C94.8268 42.3307 95.4359 41.7987 95.9839 41.2109C96.5318 40.623 97.0293 39.9633 97.282 39.1973L96.2499 39.2052Z" fill="white"/>
<path d="M31.0342 38.6328C32.8896 32.776 32.1798 27.3269 29.4489 26.4617C26.718 25.5966 23 29.6431 21.1446 35.4999C19.2892 41.3566 19.999 46.8058 22.7299 47.671C25.4608 48.5361 29.1788 44.4896 31.0342 38.6328Z" fill="#8B4513"/>
<path d="M119.806 56.5492H13.1935C13.1191 56.5492 13.0605 56.4907 13.0605 56.4162C13.0605 56.3417 13.1191 56.2832 13.1935 56.2832H119.806C119.881 56.2832 119.939 56.3417 119.939 56.4162C119.939 56.4907 119.878 56.5492 119.806 56.5492Z" fill="#000001"/>
<path d="M106.824 54.8709C106.813 54.8709 106.8 54.8683 106.787 54.8656C106.35 54.7432 105.93 54.573 105.786 54.1713C105.733 54.0197 105.733 53.8681 105.733 53.7191C105.733 53.6181 105.733 53.5223 105.717 53.4345C105.664 53.1605 105.446 52.9344 105.236 52.7163L105.188 52.6684C104.948 52.4211 104.677 52.0832 104.698 51.6869C104.704 51.6124 104.762 51.5566 104.839 51.5619C104.914 51.5645 104.97 51.6284 104.964 51.7029C104.948 51.9955 105.167 52.2641 105.382 52.4876L105.43 52.5354C105.656 52.7695 105.914 53.0355 105.983 53.3893C106.004 53.5037 106.005 53.6154 106.005 53.7245C106.005 53.8548 106.004 53.9772 106.042 54.0862C106.143 54.3735 106.497 54.5092 106.864 54.6129C106.935 54.6315 106.975 54.706 106.957 54.7778C106.935 54.8337 106.882 54.8709 106.824 54.8709Z" fill="#000001"/>
<path d="M105.871 53.6787C105.797 53.6787 105.738 53.6175 105.738 53.5457C105.741 53.1972 105.975 52.9232 106.182 52.6812L106.22 52.636C106.472 52.338 106.566 52.096 106.502 51.8991C106.48 51.83 106.518 51.7555 106.587 51.7316C106.656 51.7103 106.73 51.7475 106.754 51.8167C106.847 52.1093 106.741 52.4338 106.422 52.8089L106.385 52.8541C106.198 53.0722 106.007 53.2956 106.007 53.5483C106.004 53.6202 105.943 53.6787 105.871 53.6787Z" fill="#000001"/>
<path d="M109.288 55.2721H109.285C109.211 55.2694 109.155 55.2083 109.155 55.1364C109.158 54.9795 109.128 54.8199 109.099 54.6497C109.054 54.397 109.006 54.1389 109.07 53.8729C109.16 53.5112 109.429 53.2611 109.687 53.0191C109.812 52.902 109.942 52.7823 110.044 52.652C110.4 52.2025 110.472 51.5561 110.224 51.0374C110.192 50.9709 110.222 50.8911 110.288 50.8592C110.355 50.8272 110.435 50.8538 110.466 50.9203C110.756 51.5268 110.671 52.2876 110.254 52.8143C110.139 52.9579 110.001 53.0856 109.868 53.2106C109.626 53.4367 109.397 53.6495 109.328 53.9341C109.277 54.1416 109.317 54.365 109.36 54.5991C109.392 54.7747 109.424 54.9556 109.421 55.1391C109.418 55.2162 109.36 55.2721 109.288 55.2721Z" fill="#000001"/>
<path d="M109.671 53.6331C109.639 53.6331 109.605 53.6198 109.581 53.5958C109.527 53.5453 109.525 53.4602 109.575 53.407C109.996 52.9654 110.453 52.5345 111.046 52.5132C111.288 52.5052 111.509 52.5664 111.727 52.6276C111.802 52.6489 111.874 52.6675 111.948 52.6861C112.81 52.8883 113.736 52.6276 114.254 52.0371C114.302 51.9812 114.387 51.9759 114.443 52.0238C114.499 52.0717 114.504 52.1568 114.456 52.2126C113.866 52.8856 112.855 53.1729 111.89 52.9468C111.812 52.9282 111.735 52.9069 111.658 52.8856C111.451 52.8298 111.254 52.7739 111.057 52.7819C110.562 52.7978 110.15 53.1915 109.77 53.5932C109.74 53.6198 109.706 53.6331 109.671 53.6331Z" fill="#000001"/>
<path d="M112.292 54.8734C112.271 54.8734 112.25 54.8681 112.231 54.8575C112.167 54.8229 112.141 54.7431 112.175 54.6766C112.332 54.3787 112.646 54.2989 112.947 54.2191C113.165 54.1632 113.37 54.11 113.508 53.9823C113.561 53.9318 113.646 53.9371 113.697 53.9903C113.747 54.0435 113.742 54.1286 113.689 54.1792C113.5 54.3521 113.255 54.4159 113.016 54.4771C112.747 54.5463 112.516 54.6074 112.412 54.8016C112.386 54.8468 112.338 54.8734 112.292 54.8734Z" fill="#000001"/>
<path d="M96.548 56.4634C96.5347 56.4634 96.5187 56.4607 96.5054 56.4554C96.4363 56.4315 96.399 56.357 96.4203 56.2878L103.169 36.0639H89.9592C89.8847 36.0639 89.8262 36.0053 89.8262 35.9309C89.8262 35.8564 89.8847 35.7979 89.9592 35.7979H103.355C103.397 35.7979 103.437 35.8191 103.464 35.8537C103.488 35.8883 103.496 35.9335 103.483 35.9734L96.6757 56.3729C96.6571 56.4288 96.6038 56.4634 96.548 56.4634Z" fill="#000001"/>
<path d="M83.07 56.4181C83.0567 56.4181 83.0408 56.4155 83.0275 56.4101C82.9583 56.3862 82.9211 56.3117 82.9424 56.2426L92.1486 28.4828H55.9114L46.4897 56.2958C46.4658 56.3649 46.3913 56.4022 46.3221 56.3782C46.253 56.3543 46.2157 56.2798 46.2397 56.2106L55.6933 28.3072C55.7119 28.254 55.7625 28.2168 55.8183 28.2168H92.3375C92.38 28.2168 92.4199 28.2381 92.4465 28.2727C92.4705 28.3072 92.4785 28.3525 92.4652 28.3924L83.2004 56.3277C83.1791 56.3809 83.1259 56.4181 83.07 56.4181Z" fill="#000001"/>
<path d="M29.7089 56.3654C29.6956 56.3654 29.6823 56.3627 29.6663 56.3601C29.5972 56.3361 29.5573 56.2617 29.5812 56.1925L35.9386 36.7692C35.9492 36.7346 35.9758 36.708 36.0051 36.692C36.0131 36.6575 36.037 36.6255 36.0716 36.6069L46.8739 30.7177C46.9271 30.6884 46.9909 30.6991 47.0308 30.7416L52.936 36.7186C52.9732 36.7559 52.9839 36.8144 52.9653 36.8623C52.9466 36.9102 52.8961 36.9447 52.8429 36.9447H36.162L29.8339 56.275C29.8153 56.3282 29.7647 56.3654 29.7089 56.3654ZM36.4972 36.6761H52.5264L46.9164 30.997L36.4972 36.6761Z" fill="#000001"/>
<path d="M55.8488 28.4225C55.8355 28.4225 55.8222 28.4198 55.8089 28.4171C55.7397 28.3932 55.6998 28.3187 55.7238 28.2496L57.4767 22.8551C57.4847 22.8311 57.5007 22.8072 57.5193 22.7912L65.7573 16.2397C65.7972 16.2077 65.8504 16.2024 65.8956 16.2237L92.2562 28.1378C92.3227 28.1671 92.352 28.2469 92.3227 28.3134C92.2935 28.3799 92.2137 28.4092 92.1472 28.3799L65.861 16.5003L57.7161 22.9748L55.9765 28.332C55.9579 28.3852 55.9047 28.4225 55.8488 28.4225Z" fill="#000001"/>
<path d="M72.2834 56.4107C72.2701 56.4107 72.2541 56.408 72.2382 56.4027C72.169 56.3787 72.1318 56.3016 72.1557 56.2324L77.0315 42.3925C77.0501 42.3393 77.1006 42.3047 77.1565 42.3047H83.6575C83.7001 42.3047 83.74 42.326 83.7639 42.3605C83.7879 42.3951 83.7959 42.4403 83.7826 42.4802L79.335 56.3202C79.3138 56.3894 79.2366 56.4293 79.1675 56.4054C79.0983 56.3814 79.0584 56.3069 79.0823 56.2378L83.474 42.5734H77.2496L72.4057 56.3229C72.3898 56.3761 72.3392 56.4107 72.2834 56.4107Z" fill="#000001"/>
<path d="M83.9973 41.496H77.5202C77.4749 41.496 77.435 41.4747 77.4111 41.4375C77.3872 41.4002 77.3818 41.355 77.3978 41.3151L78.0708 39.5861C78.0894 39.5356 78.1399 39.501 78.1958 39.501H84.5878C84.6303 39.501 84.6702 39.5223 84.6968 39.5568C84.7208 39.5914 84.7288 39.6366 84.7155 39.6765L84.1276 41.4055C84.1063 41.4587 84.0558 41.496 83.9973 41.496ZM77.7143 41.23H83.9015L84.3989 39.767H78.2836L77.7143 41.23Z" fill="#000001"/>
<path d="M97.2646 49.1144H87.7577C87.7152 49.1144 87.6753 49.0931 87.6487 49.0585C87.6221 49.0239 87.6168 48.9787 87.6301 48.9388L90.9444 39.1261C90.963 39.0729 91.0136 39.0356 91.0694 39.0356L100.574 38.9824C100.614 38.9851 100.656 39.0037 100.683 39.0383C100.707 39.0729 100.715 39.1181 100.701 39.158L97.3869 49.0239C97.371 49.0798 97.3204 49.1144 97.2646 49.1144ZM87.9413 48.8484H97.1688L100.393 39.2484L91.1679 39.299L87.9413 48.8484Z" fill="#000001"/>
<path d="M98.8905 43.8715H89.631C89.5566 43.8715 89.498 43.8129 89.498 43.7385C89.498 43.664 89.5566 43.6055 89.631 43.6055H98.8905C98.965 43.6055 99.0235 43.664 99.0235 43.7385C99.0235 43.8129 98.9623 43.8715 98.8905 43.8715Z" fill="#000001"/>
<path d="M93.0709 47.4254C93.0576 47.4254 93.0443 47.4227 93.031 47.4201C92.9618 47.3988 92.922 47.3243 92.9432 47.2551L94.0179 43.7732C94.0392 43.704 94.1136 43.6641 94.1828 43.6854C94.252 43.7067 94.2918 43.7812 94.2706 43.8503L93.1959 47.3323C93.18 47.3881 93.1268 47.4254 93.0709 47.4254Z" fill="#000001"/>
<path d="M63.7102 39.3098C63.3432 39.3098 62.9947 39.222 62.6861 39.0331C61.4812 38.2963 61.3402 36.3226 62.3723 34.6335C63.4043 32.9444 65.2238 32.1677 66.4288 32.9018C67.6337 33.6386 67.7747 35.6097 66.7426 37.3015C65.9739 38.5596 64.7716 39.3098 63.7102 39.3098ZM65.3967 32.8885C64.4284 32.8885 63.3166 33.5961 62.5984 34.7718C61.6434 36.3359 61.7445 38.1447 62.8245 38.8044C63.9044 39.464 65.5589 38.7272 66.5165 37.1631C67.4741 35.5991 67.3704 33.7876 66.2904 33.1306C66.0218 32.9657 65.7159 32.8885 65.3967 32.8885Z" fill="#000001"/>
<path d="M41.0989 46.5578C40.7318 46.5578 40.3834 46.47 40.0748 46.2812C38.8698 45.5444 38.7288 43.5706 39.7609 41.8815C40.793 40.1924 42.6124 39.4157 43.8174 40.1499C44.4079 40.5116 44.7644 41.174 44.8176 42.0145C44.8708 42.8391 44.6261 43.7382 44.1313 44.5495C43.3626 45.8077 42.1602 46.5578 41.0989 46.5578ZM42.7853 40.1366C41.8171 40.1366 40.7052 40.8441 39.987 42.0199C39.0321 43.5839 39.1332 45.3927 40.2131 46.0524C41.2931 46.7121 42.9476 45.9753 43.9052 44.4112C44.3734 43.6451 44.6021 42.8019 44.5542 42.0305C44.5064 41.2777 44.1951 40.6925 43.6818 40.376C43.4104 40.2137 43.1045 40.1366 42.7853 40.1366Z" fill="#000001"/>
<path d="M53.0004 32.5108C52.9925 32.5108 52.9845 32.5108 52.9765 32.5082C52.9047 32.4949 52.8568 32.4257 52.8701 32.3539C53.0137 31.5852 52.6972 30.8005 52.4073 30.2046C52.3354 30.0557 52.2583 29.9094 52.1838 29.7604C51.9045 29.2178 51.6172 28.6538 51.4922 28.0394C51.3752 27.4568 51.4098 26.8557 51.4443 26.2731C51.4869 25.5576 51.5241 24.8793 51.3034 24.2409C51.1438 23.7754 50.8591 23.3737 50.5586 22.9508C50.2979 22.5837 50.0292 22.2033 49.8483 21.7751C49.5318 21.0303 49.5132 20.1658 49.7898 19.4077C49.8164 19.3385 49.8909 19.3039 49.9601 19.3279C50.0292 19.3518 50.0638 19.429 50.0399 19.4981C49.7845 20.195 49.8031 20.9877 50.0931 21.6713C50.2633 22.0703 50.524 22.4401 50.7767 22.7965C51.0746 23.2168 51.3832 23.653 51.5561 24.1558C51.7955 24.8474 51.7502 25.5815 51.7103 26.2918C51.6784 26.8557 51.6438 27.4409 51.7556 27.9888C51.8726 28.5661 52.1519 29.114 52.4232 29.6407C52.5004 29.7897 52.5775 29.9386 52.6493 30.0902C52.9579 30.7233 53.293 31.5612 53.1361 32.4071C53.1201 32.4656 53.0643 32.5108 53.0004 32.5108Z" fill="#000001"/>
<path d="M51.5223 26.9616C51.509 26.9616 51.4931 26.9589 51.4798 26.9536C51.4106 26.9296 51.3734 26.8552 51.3946 26.786C51.5596 26.2966 51.8415 25.8497 52.1128 25.4161C52.4959 24.807 52.8576 24.2324 52.9082 23.5594C52.9481 23.0141 52.7619 22.4662 52.5837 21.9368C52.5278 21.7746 52.4746 21.6096 52.4241 21.4474C52.2246 20.7771 52.0969 19.8434 52.6315 19.1944C52.6794 19.1385 52.7619 19.1305 52.8177 19.1757C52.8736 19.2236 52.8816 19.3061 52.8364 19.3619C52.3762 19.9205 52.4959 20.7611 52.6794 21.3702C52.7273 21.5298 52.7805 21.6921 52.8364 21.8517C53.0226 22.405 53.2167 22.9795 53.1715 23.578C53.1183 24.3175 52.722 24.9479 52.3363 25.5571C52.0729 25.9747 51.799 26.4083 51.6447 26.8685C51.6314 26.9243 51.5782 26.9616 51.5223 26.9616Z" fill="#000001"/>
<path d="M55.8225 24.4378C55.8119 24.4378 55.8012 24.4378 55.7932 24.4351C55.7214 24.4192 55.6762 24.3473 55.6948 24.2755C55.8065 23.7941 55.8225 23.2807 55.7427 22.7912C55.7321 22.7221 55.7188 22.6556 55.7055 22.5891C55.6682 22.3922 55.6283 22.1901 55.631 21.9799C55.6416 21.3442 56.03 20.8308 56.4077 20.3334C56.7508 19.8785 57.0754 19.4476 57.1339 18.9342C57.1419 18.8624 57.2084 18.8092 57.2802 18.8172C57.352 18.8252 57.4052 18.8917 57.3972 18.9635C57.3307 19.5487 56.969 20.0275 56.6178 20.493C56.2508 20.9771 55.905 21.4346 55.897 21.9853C55.8943 22.1688 55.9289 22.3497 55.9661 22.5412C55.9794 22.6104 55.9927 22.6822 56.006 22.7513C56.0938 23.2727 56.0752 23.8233 55.9555 24.3394C55.9369 24.3952 55.8837 24.4378 55.8225 24.4378Z" fill="#000001"/>
<path d="M51.0743 33.1272C51.0344 33.1272 50.9945 33.1086 50.9679 33.074C50.6939 32.7149 50.5131 32.2946 50.3402 31.8877C50.1034 31.337 49.88 30.8157 49.4517 30.4592C49.0048 30.0868 48.3984 29.9565 47.8132 29.8315C47.6562 29.7969 47.4993 29.765 47.345 29.7251C46.7518 29.5788 45.7251 29.1957 45.5149 28.278C45.499 28.2062 45.5442 28.1344 45.616 28.1184C45.6878 28.1025 45.7596 28.1477 45.7756 28.2195C45.9618 29.0282 46.9806 29.3633 47.4115 29.4671C47.5631 29.5043 47.7174 29.5389 47.8717 29.5708C48.4888 29.7038 49.1272 29.8421 49.6246 30.2544C50.1034 30.6534 50.3481 31.228 50.5875 31.7839C50.7551 32.1749 50.9307 32.5819 51.1834 32.9144C51.2286 32.9729 51.218 33.0554 51.1594 33.1006C51.1302 33.1166 51.1009 33.1272 51.0743 33.1272Z" fill="#000001"/>
<path d="M47.5313 29.263C47.4781 29.263 47.4276 29.2311 47.4089 29.1779C47.2626 28.8108 47.2493 28.4145 47.2387 28.0314C47.2281 27.6644 47.2148 27.3212 47.0977 27.002C47.0445 26.861 46.9674 26.7147 46.8929 26.5764C46.7227 26.2572 46.5444 25.9274 46.6003 25.5497C46.6109 25.4778 46.6774 25.4273 46.7519 25.4379C46.8237 25.4486 46.8743 25.5151 46.8636 25.5896C46.8211 25.8795 46.97 26.1588 47.127 26.4514C47.2068 26.6004 47.2866 26.752 47.3478 26.9116C47.4808 27.2707 47.4941 27.6564 47.5074 28.0261C47.5207 28.4012 47.5313 28.7576 47.659 29.0821C47.6856 29.1513 47.6537 29.2284 47.5845 29.255C47.5632 29.2604 47.5473 29.263 47.5313 29.263Z" fill="#000001"/>
<path d="M22.492 43.5974C22.4787 43.5974 22.468 43.5947 22.4547 43.592C22.3829 43.5708 22.343 43.4989 22.3643 43.4271C22.5665 42.7355 22.7739 42.02 22.7234 41.2965C22.6941 40.8735 22.5744 40.4506 22.4574 40.0409C22.4148 39.892 22.3723 39.7457 22.335 39.5967C22.1249 38.7774 22.0265 37.9342 22.0478 37.0883C22.0504 37.0139 22.1063 36.958 22.1834 36.958C22.2579 36.9607 22.3138 37.0218 22.3138 37.0937C22.2951 37.9156 22.3882 38.7349 22.5931 39.5302C22.6303 39.6765 22.6729 39.8228 22.7128 39.9691C22.8325 40.3921 22.9575 40.8283 22.9894 41.2778C23.0426 42.0492 22.8192 42.8206 22.6197 43.5016C22.601 43.5601 22.5478 43.5974 22.492 43.5974Z" fill="#000001"/>
<path d="M22.6238 39.9157C22.5972 39.9157 22.5733 39.9077 22.5494 39.8944C22.4882 39.8545 22.4722 39.7721 22.5121 39.7109C22.7063 39.4183 22.8154 39.0485 22.8366 38.607C22.8553 38.2053 22.8021 37.7957 22.7515 37.3993C22.7409 37.3275 22.7941 37.261 22.8659 37.2504C22.9404 37.2397 23.0042 37.2929 23.0149 37.3648C23.0681 37.7717 23.1239 38.1947 23.1026 38.6203C23.0787 39.1097 22.9537 39.5273 22.7329 39.8598C22.7116 39.8944 22.6691 39.9157 22.6238 39.9157Z" fill="#000001"/>
<path d="M24.5751 40.855C24.5538 40.855 24.5352 40.8497 24.5139 40.8417C24.4474 40.8098 24.4235 40.7273 24.4554 40.6635C24.9289 39.7272 25.5114 38.8467 26.1844 38.0434C26.4823 37.6896 26.8175 37.3385 27.2511 37.1603C27.4798 37.0672 27.7219 37.0299 27.9533 36.9927C28.0624 36.9767 28.1688 36.9581 28.2752 36.9368C28.9295 36.7985 29.528 36.4421 29.9616 35.934C30.0095 35.8781 30.0946 35.8728 30.1478 35.918C30.2037 35.9659 30.209 36.0484 30.1638 36.1042C29.693 36.6575 29.0413 37.0432 28.331 37.1948C28.2193 37.2188 28.1076 37.2374 27.9959 37.2534C27.7671 37.2906 27.5517 37.3252 27.3522 37.405C26.9532 37.5672 26.6446 37.9077 26.3892 38.211C25.7269 38.9983 25.1577 39.8628 24.6922 40.7779C24.6709 40.8284 24.623 40.855 24.5751 40.855Z" fill="#000001"/>
<path d="M26.7975 38.3575C26.7523 38.3575 26.7097 38.3335 26.6831 38.2936C26.6459 38.2298 26.6645 38.15 26.7283 38.1101C26.9917 37.9505 27.3215 37.7643 27.6912 37.7563C27.8508 37.759 28.0025 37.7989 28.1461 37.8361C28.2126 37.8547 28.2791 37.8707 28.3483 37.884C28.7978 37.9744 29.2846 37.86 29.649 37.5807C29.7075 37.5355 29.79 37.5462 29.8352 37.6047C29.8804 37.6632 29.8698 37.7457 29.8113 37.7909C29.3857 38.1181 28.8191 38.2484 28.2951 38.1447C28.2232 38.1314 28.1488 38.1101 28.0769 38.0915C27.9413 38.0569 27.8136 38.0223 27.6859 38.0196C27.4199 38.0196 27.1619 38.1553 26.864 38.3362C26.8427 38.3495 26.8188 38.3575 26.7975 38.3575Z" fill="#000001"/>
<path d="M26.5786 34.4763C26.5653 34.4763 26.5493 34.4736 26.536 34.4683C26.4668 34.4444 26.4296 34.3672 26.4535 34.2981C26.5839 33.9283 26.6929 33.5453 26.7781 33.1622C26.8047 33.0452 26.8233 32.9388 26.8047 32.8457C26.786 32.7446 26.7195 32.6515 26.653 32.5504L26.6025 32.4733C26.0732 31.6593 26.1556 30.5874 26.2168 29.8053C26.2221 29.7335 26.286 29.6776 26.3604 29.683C26.4349 29.6883 26.4881 29.7521 26.4828 29.8266C26.4083 30.7922 26.3844 31.646 26.8259 32.3297L26.8738 32.4015C26.951 32.5132 27.0361 32.6409 27.068 32.7952C27.0973 32.9415 27.0707 33.0798 27.0387 33.2208C26.951 33.6144 26.8392 34.0055 26.7062 34.3858C26.685 34.4417 26.6318 34.4763 26.5786 34.4763Z" fill="#000001"/>
<path d="M26.6935 31.7125C26.6828 31.7125 26.6696 31.7098 26.6563 31.7071C26.5844 31.6885 26.5445 31.614 26.5632 31.5422C26.6323 31.2922 26.7627 31.0741 26.8877 30.8613C26.9755 30.7123 27.0579 30.574 27.1218 30.425C27.2814 30.0553 27.3159 29.6377 27.3478 29.236C27.3532 29.1642 27.417 29.1083 27.4915 29.1136C27.566 29.119 27.6192 29.1828 27.6138 29.2573C27.5793 29.6616 27.542 30.1191 27.3665 30.5288C27.2946 30.6937 27.2042 30.848 27.1164 30.9943C26.9941 31.2017 26.877 31.3959 26.8185 31.6114C26.8052 31.6752 26.752 31.7125 26.6935 31.7125Z" fill="#000001"/>
<path d="M28.5611 68.6249H19.166L19.6555 66.9464H20.3976L21.4909 63.6454H19.6555L20.7301 60.1687H23.4433L24.5179 56.9049H23.9327L25.0446 53.4682H26.2363L28.4654 46.8262H37.7621L35.5357 53.6251H34.344L33.3092 56.8464H33.953L32.8384 60.206H30.1039L29.032 63.5682H30.9046L29.8167 66.9996H29.0559L28.5611 68.6249Z" fill="#FFDC32"/>
<path d="M30.5059 68.5375H39.5179L40.6857 65.3615H41.7417L42.8589 62.0205H33.7085L32.6179 65.2737H31.5113L30.5059 68.5375Z" fill="#FFDC32"/>
<path d="M33.8105 56.4183L38.9124 61.7383L42.2959 59.2858L37.1542 53.9365L33.8105 56.4183Z" fill="#FFDC32"/>
<path d="M33.5425 46.8936C32.6115 47.8432 31.6832 48.7955 30.7522 49.7451C30.5846 49.9153 30.4091 50.0989 30.3532 50.3329C30.3 50.5457 30.3559 50.7692 30.3532 50.99C30.3479 51.6949 29.7866 52.2508 29.4116 52.8493C28.9434 53.6021 28.7572 54.4932 28.446 55.3231C28.0204 56.4642 27.3527 57.5149 26.4989 58.3848C26.2728 58.6135 26.0174 58.8662 26.0068 59.1881C25.9961 59.4328 26.1344 59.6589 26.1797 59.901C26.31 60.6112 25.6583 61.1911 25.2859 61.8108C25.0385 62.2205 24.9082 62.686 24.722 63.1249C24.4374 63.7979 24.0251 64.4097 23.6181 65.0161C22.8174 66.2025 22.0194 67.3915 21.2188 68.5779C21.2188 68.5779 22.3679 68.5752 22.4557 68.4608C23.2297 67.4527 24.0064 66.4419 24.7805 65.4338C25.2487 64.8246 25.7248 64.2022 25.9881 63.4787C26.1318 63.085 26.2116 62.6647 26.3951 62.287C26.6851 61.6911 27.233 61.215 27.3634 60.5633C27.4325 60.2095 27.3713 59.8451 27.4086 59.486C27.4751 58.8662 27.8395 58.3236 28.188 57.8049C28.8051 56.8819 29.4089 55.9349 29.7627 54.8815C29.9196 54.4107 30.0287 53.9133 30.3053 53.5037C30.7362 52.8653 31.5662 52.4184 31.6034 51.647C31.6194 51.3491 31.5023 51.0538 31.5369 50.7559C31.5741 50.442 31.7763 50.176 31.9731 49.9286C32.8403 48.8487 33.7873 47.8299 33.5425 46.8936Z" fill="white"/>
<path d="M39.4614 56.376C39.2061 56.4611 38.9667 56.5835 38.7459 56.7377C38.6076 56.8335 38.4799 56.9426 38.3336 57.025C37.9585 57.2352 37.5117 57.2538 37.0834 57.2671C36.8201 57.2751 36.5567 57.283 36.296 57.291C36.1311 57.2963 35.929 57.3283 35.8731 57.4825C35.8412 57.5703 35.8731 57.6661 35.8731 57.7618C35.8704 57.9587 35.6975 58.1369 35.498 58.1954C35.6151 58.4029 35.7933 58.5918 36.0221 58.6529C36.2508 58.7168 36.5328 58.6237 36.6312 58.4056C36.6658 58.3284 36.6764 58.238 36.7296 58.1688C36.7748 58.1103 36.8493 58.0784 36.9185 58.0518C37.6659 57.7805 38.5703 57.9959 39.2274 57.549C39.3338 57.4772 39.4269 57.3894 39.5359 57.3203C39.7301 57.2032 39.9668 57.15 39.4614 56.376Z" fill="white"/>
<path d="M35.1606 68.5192C34.7536 68.5591 34.3413 68.5671 33.9316 68.5431C34.6419 67.6946 35.3973 66.8647 36.1527 66.0348C36.315 65.8565 36.4852 65.657 36.4852 65.415C36.4852 65.1942 36.3363 64.992 36.3443 64.7713C36.3496 64.6303 36.4187 64.4973 36.4906 64.3749C36.98 63.5583 37.7354 62.8986 38.1398 62.0102C38.459 61.9783 38.7808 62.0049 39.0894 62.0873C38.6797 62.5236 38.3499 63.0369 38.1238 63.5902C38.0254 63.8323 37.9482 64.1116 38.0626 64.3457C38.1211 64.4627 38.2196 64.5531 38.2781 64.6702C38.3845 64.8777 38.3472 65.1357 38.2355 65.3432C38.1265 65.548 37.9536 65.7129 37.7833 65.8725C37.4109 66.2236 37.0385 66.5747 36.6661 66.9259C36.3735 67.1998 36.0809 67.4791 35.8522 67.809C35.6872 68.0564 35.5596 68.482 35.1606 68.5192Z" fill="white"/>
<path d="M28.5606 68.7583H19.1655C19.1229 68.7583 19.083 68.7397 19.0591 68.7051C19.0352 68.6732 19.0272 68.628 19.0378 68.5881L19.5273 66.9096C19.5432 66.8538 19.5964 66.8139 19.6549 66.8139H20.3013L21.3068 63.7788H19.6549C19.6124 63.7788 19.5725 63.7575 19.5485 63.7256C19.5246 63.6937 19.5166 63.6485 19.5273 63.6086L20.6019 60.1319C20.6179 60.0761 20.6711 60.0388 20.7296 60.0388H23.3497L24.3365 57.0437H23.9349C23.8923 57.0437 23.8524 57.0224 23.8285 56.9878C23.8045 56.9532 23.7966 56.908 23.8099 56.8681L24.9244 53.4314C24.943 53.3755 24.9936 53.3383 25.0521 53.3383H26.148L28.3452 46.7867C28.3638 46.7335 28.4143 46.6963 28.4702 46.6963H37.7669C37.8094 46.6963 37.8493 46.7176 37.8733 46.7521C37.8972 46.7867 37.9052 46.832 37.8919 46.8719L35.6655 53.6681C35.6469 53.724 35.5963 53.7586 35.5378 53.7586H34.4445L33.4949 56.7165H33.9578C34.0003 56.7165 34.0402 56.7378 34.0668 56.7724C34.0908 56.8069 34.0987 56.8522 34.0854 56.8921L32.9709 60.2516C32.9523 60.3048 32.9017 60.3421 32.8459 60.3421H30.2072L29.2176 63.4357H30.9094C30.952 63.4357 30.9919 63.4569 31.0158 63.4889C31.0397 63.5208 31.0477 63.566 31.0344 63.6086L29.9465 67.0426C29.9279 67.0985 29.8773 67.1357 29.8188 67.1357H29.1565L28.691 68.6679C28.6723 68.7211 28.6191 68.7583 28.5606 68.7583ZM19.3437 68.4923H28.4622L28.9277 66.9602C28.9437 66.9043 28.9969 66.8671 29.0554 66.8671H29.7177L30.7205 63.699H29.0261C28.9836 63.699 28.9437 63.6777 28.9197 63.6431C28.8958 63.6086 28.8878 63.566 28.9011 63.5234L29.9757 60.1639C29.9944 60.108 30.0449 60.0708 30.1034 60.0708H32.7421L33.7662 56.9772H33.3061C33.2635 56.9772 33.2236 56.9559 33.1997 56.9213C33.1757 56.8868 33.1677 56.8415 33.181 56.8016L34.2158 53.5777C34.2344 53.5218 34.2849 53.4846 34.3435 53.4846H35.4394L37.578 46.9543H28.5606L26.3635 53.5059C26.3448 53.5591 26.2943 53.5963 26.2384 53.5963H25.1425L24.1158 56.767H24.5201C24.5626 56.767 24.6025 56.7883 24.6291 56.8229C24.6531 56.8575 24.6611 56.9027 24.6478 56.9426L23.5731 60.2038C23.5545 60.2596 23.504 60.2942 23.4454 60.2942H20.828L19.8358 63.5048H21.4903C21.5329 63.5048 21.5728 63.5261 21.5994 63.5607C21.6233 63.5953 21.6313 63.6405 21.618 63.6804L20.5248 66.9814C20.5061 67.0346 20.4556 67.0719 20.3997 67.0719H19.7587L19.3437 68.4923Z" fill="#000001"/>
<path d="M28.486 67.098H20.756C20.6816 67.098 20.623 67.0395 20.623 66.965C20.623 66.8906 20.6816 66.832 20.756 66.832H28.4887C28.5631 66.832 28.6217 66.8906 28.6217 66.965C28.6217 67.0395 28.5605 67.098 28.486 67.098Z" fill="#000001"/>
<path d="M30.0055 65.4017H21.2834C21.2089 65.4017 21.1504 65.3432 21.1504 65.2687C21.1504 65.1943 21.2089 65.1357 21.2834 65.1357H30.0055C30.08 65.1357 30.1385 65.1943 30.1385 65.2687C30.1385 65.3432 30.08 65.4017 30.0055 65.4017Z" fill="#000001"/>
<path d="M28.5296 63.7465H21.8264C21.7519 63.7465 21.6934 63.6879 21.6934 63.6135C21.6934 63.539 21.7519 63.4805 21.8264 63.4805H28.5269C28.6014 63.4805 28.6599 63.539 28.6599 63.6135C28.6599 63.6879 28.6014 63.7465 28.5296 63.7465Z" fill="#000001"/>
<path d="M29.112 61.9564H20.592C20.5175 61.9564 20.459 61.8979 20.459 61.8234C20.459 61.7489 20.5175 61.6904 20.592 61.6904H29.1093C29.1838 61.6904 29.2423 61.7489 29.2423 61.8234C29.2423 61.8979 29.1864 61.9564 29.112 61.9564Z" fill="#000001"/>
<path d="M29.7621 60.2465H23.8596C23.7851 60.2465 23.7266 60.1879 23.7266 60.1135C23.7266 60.039 23.7851 59.9805 23.8596 59.9805H29.7594C29.8339 59.9805 29.8924 60.039 29.8924 60.1135C29.8924 60.1879 29.8339 60.2465 29.7621 60.2465Z" fill="#000001"/>
<path d="M33.0453 58.7006H24.3498C24.2753 58.7006 24.2168 58.6421 24.2168 58.5676C24.2168 58.4931 24.2753 58.4346 24.3498 58.4346H33.0453C33.1198 58.4346 33.1783 58.4931 33.1783 58.5676C33.1783 58.6421 33.1172 58.7006 33.0453 58.7006Z" fill="#000001"/>
<path d="M32.9237 57.0326H24.9064C24.832 57.0326 24.7734 56.9741 24.7734 56.8996C24.7734 56.8251 24.832 56.7666 24.9064 56.7666H32.9237C32.9982 56.7666 33.0567 56.8251 33.0567 56.8996C33.0567 56.9741 32.9955 57.0326 32.9237 57.0326Z" fill="#000001"/>
<path d="M33.356 55.309H24.7482C24.6738 55.309 24.6152 55.2504 24.6152 55.176C24.6152 55.1015 24.6738 55.043 24.7482 55.043H33.356C33.4305 55.043 33.489 55.1015 33.489 55.176C33.489 55.2504 33.4305 55.309 33.356 55.309Z" fill="#000001"/>
<path d="M34.0317 53.6039H26.6076C26.5331 53.6039 26.4746 53.5454 26.4746 53.4709C26.4746 53.3964 26.5331 53.3379 26.6076 53.3379H34.0317C34.1062 53.3379 34.1647 53.3964 34.1647 53.4709C34.1647 53.5454 34.1035 53.6039 34.0317 53.6039Z" fill="#000001"/>
<path d="M35.7498 52.0238H27.2697C27.1952 52.0238 27.1367 51.9653 27.1367 51.8908C27.1367 51.8163 27.1952 51.7578 27.2697 51.7578H35.7498C35.8243 51.7578 35.8828 51.8163 35.8828 51.8908C35.8828 51.9653 35.8243 52.0238 35.7498 52.0238Z" fill="#000001"/>
<path d="M36.0557 50.3295H27.8283C27.7538 50.3295 27.6953 50.271 27.6953 50.1965C27.6953 50.122 27.7538 50.0635 27.8283 50.0635H36.0557C36.1302 50.0635 36.1887 50.122 36.1887 50.1965C36.1887 50.271 36.1302 50.3295 36.0557 50.3295Z" fill="#000001"/>
<path d="M36.7052 48.5873H28.3635C28.289 48.5873 28.2305 48.5288 28.2305 48.4543C28.2305 48.3798 28.289 48.3213 28.3635 48.3213H36.7052C36.7797 48.3213 36.8382 48.3798 36.8382 48.4543C36.8382 48.5288 36.7797 48.5873 36.7052 48.5873Z" fill="#000001"/>
<path d="M39.5174 68.671H30.5054C30.4628 68.671 30.4229 68.6497 30.399 68.6178C30.375 68.5858 30.367 68.5406 30.3777 68.5007L31.3832 65.2369C31.3991 65.181 31.4523 65.1438 31.5108 65.1438H32.519L33.5803 61.9811C33.5989 61.9279 33.6495 61.8906 33.7053 61.8906H42.8531C42.8956 61.8906 42.9355 61.9119 42.9621 61.9465C42.9861 61.9811 42.9941 62.0263 42.9808 62.0662L41.8636 65.4045C41.8449 65.4577 41.7944 65.4949 41.7385 65.4949H40.7756L39.6398 68.5858C39.6238 68.6364 39.5733 68.671 39.5174 68.671ZM30.6862 68.405H39.4243L40.5602 65.314C40.5788 65.2608 40.6293 65.2263 40.6852 65.2263H41.6454L42.6748 62.154H33.8064L32.7451 65.3167C32.7265 65.3699 32.6759 65.4071 32.6201 65.4071H31.6146L30.6862 68.405Z" fill="#000001"/>
<path d="M39.534 67.1146H31.256C31.1816 67.1146 31.123 67.0561 31.123 66.9816C31.123 66.9072 31.1816 66.8486 31.256 66.8486H39.534C39.6084 66.8486 39.667 66.9072 39.667 66.9816C39.667 67.0561 39.6084 67.1146 39.534 67.1146Z" fill="#000001"/>
<path d="M40.2936 65.3666H33.0158C32.9413 65.3666 32.8828 65.3081 32.8828 65.2336C32.8828 65.1591 32.9413 65.1006 33.0158 65.1006H40.2936C40.3681 65.1006 40.4266 65.1591 40.4266 65.2336C40.4266 65.3081 40.3654 65.3666 40.2936 65.3666Z" fill="#000001"/>
<path d="M41.9813 63.7523H33.6076C33.5331 63.7523 33.4746 63.6938 33.4746 63.6193C33.4746 63.5448 33.5331 63.4863 33.6076 63.4863H41.9813C42.0558 63.4863 42.1143 63.5448 42.1143 63.6193C42.1143 63.6938 42.0531 63.7523 41.9813 63.7523Z" fill="#000001"/>
<path d="M38.9129 61.8715C38.8784 61.8715 38.8438 61.8582 38.8172 61.8316L33.7153 56.5116C33.6887 56.485 33.6754 56.4451 33.6781 56.4079C33.6807 56.3706 33.6993 56.3361 33.7313 56.3121L37.0749 53.8303C37.1281 53.7904 37.2026 53.7958 37.2504 53.8436L42.3922 59.1929C42.4188 59.2195 42.4321 59.2594 42.4295 59.2966C42.4268 59.3339 42.4055 59.3711 42.3763 59.3924L38.9927 61.8449C38.9661 61.8609 38.9395 61.8715 38.9129 61.8715ZM34.0106 56.4345L38.9262 61.563L42.0943 59.2701L37.1414 54.115L34.0106 56.4345Z" fill="#000001"/>
<path d="M40.2427 60.3531C40.2081 60.3531 40.1709 60.3398 40.147 60.3105L35.6808 55.5465C35.6303 55.4933 35.633 55.4081 35.6862 55.3576C35.7394 55.307 35.8245 55.3097 35.875 55.3629L40.3412 60.127C40.3917 60.1802 40.389 60.2653 40.3358 60.3158C40.3066 60.3398 40.2746 60.3531 40.2427 60.3531Z" fill="#000001"/>
<path d="M76.2346 60.1956C75.9819 59.7141 75.9154 59.1449 76.0325 58.6129C76.0777 58.4081 76.1521 58.2033 76.2798 58.0357C76.4554 57.8096 76.7187 57.6659 76.9847 57.5542C77.8652 57.1845 78.8574 57.0807 79.7937 57.2616C79.9267 57.2882 80.065 57.3228 80.1608 57.4186C80.3257 57.5861 80.2938 57.8654 80.3842 58.0836C80.4747 58.299 80.6795 58.44 80.879 58.565C81.2248 58.7831 81.5812 58.9853 81.9456 59.1742C82.1345 59.2699 82.326 59.3657 82.4776 59.5146C82.6293 59.6636 82.733 59.8764 82.6931 60.0839C82.6585 60.2701 82.5122 60.4244 82.4963 60.6132C82.4723 60.8899 82.7277 61.1266 82.717 61.4032C82.7091 61.6054 82.5601 61.7703 82.4537 61.9432C82.2941 62.1986 82.2116 62.5018 82.2249 62.8024C82.2249 62.8024 80.464 66.0928 80.4348 66.0928C80.4215 66.1833 80.4028 66.2764 80.3523 66.3508C80.3017 66.4253 80.2113 66.4812 80.1209 66.4652C80.0358 66.4493 79.9719 66.3801 79.8895 66.3588C79.8123 66.3375 79.7299 66.3615 79.6554 66.3429C79.5942 66.3269 79.5463 66.2843 79.5011 66.2418C79.1713 65.9173 79.001 65.4358 79.0542 64.9783C79.0915 64.6644 79.2245 64.3558 79.1766 64.0446C79.15 63.8664 79.0649 63.7015 79.0196 63.5286C78.8999 63.0524 79.1021 62.555 79.1021 62.0629C79.1021 61.4857 78.8255 60.9457 78.5169 60.4589C78.4052 60.2807 78.2828 60.1025 78.1099 59.9855C77.8732 59.8232 77.5646 59.7886 77.2853 59.8471C77.0007 59.9003 76.7427 60.0387 76.2346 60.1956Z" fill="#000001"/>
<path d="M50.728 112.938C50.297 114.048 49.5097 115.003 48.5468 115.702C47.5838 116.402 46.4533 116.851 45.2856 117.083C44.8547 117.168 44.4078 117.226 44.0194 117.434C43.6311 117.641 43.3066 118.04 43.3358 118.479L43.3704 118.578H52.7762C52.7762 118.578 53.3587 117.25 53.3507 117.21C53.6034 116.857 53.6034 116.383 53.5343 115.952C53.4624 115.524 53.3294 115.098 53.3534 114.662C53.3853 114.072 53.6965 113.537 54.0157 113.04L50.728 112.938Z" fill="#000001"/>
<path d="M70.97 114.071C71.2706 114.529 71.4435 115.119 71.236 115.625C71.0392 116.109 70.5524 116.401 70.0922 116.649C68.959 117.261 67.7807 117.814 66.5251 118.091C66.2778 118.146 66.0171 118.192 65.8069 118.333C65.4904 118.543 65.3388 118.92 65.2031 119.274L65.2058 119.367H74.577C74.577 119.367 75.2659 117.771 75.2686 117.761C75.367 117.471 75.4654 117.176 75.4548 116.87C75.4335 116.359 75.1116 115.92 74.819 115.502C74.5238 115.085 74.2338 114.609 74.295 114.103L70.97 114.071Z" fill="#000001"/>
<path d="M71.5646 76.4005C72.062 75.2381 72.1551 73.948 72.2429 72.6845C72.32 71.5859 72.3839 70.4262 71.8944 69.4393C71.4076 68.4578 70.4102 67.7874 69.3462 67.5374C68.2795 67.2874 67.1516 67.4204 66.1036 67.7422C65.1939 68.0215 64.3267 68.4418 63.542 68.9844C62.0577 70.0112 60.8953 71.4582 60.0228 73.0409C59.294 74.3603 58.746 75.8073 58.6689 77.3129C58.5918 78.8185 59.0227 80.3852 60.0415 81.4944C61.0629 82.6036 62.7121 83.1676 64.1458 82.7074C65.6913 82.21 66.6649 80.7363 67.8432 79.6191C68.5162 78.9807 69.285 78.4407 70.1149 78.0231C70.7533 77.7013 71.1629 77.3422 71.5646 76.4005Z" fill="#FFDC32"/>
<path d="M70.0561 67.8222C70.3274 67.1732 70.6971 66.5427 71.2557 66.1171C72.1522 65.4335 73.4742 65.4016 74.4371 65.9868C74.9212 66.2794 75.3415 66.7183 75.8974 66.83C75.8974 66.83 78.9937 67.4365 79.0017 67.4791C79.8741 67.378 80.7892 67.3886 81.5925 67.7477C82.3958 68.1068 83.0608 68.8729 83.0901 69.7507C83.1007 70.0992 83.0156 70.445 82.8879 70.7695C82.6033 71.4983 82.1165 72.1314 81.5872 72.7086C81.0578 73.2858 80.4753 73.8125 79.9539 74.3951L75.0941 86.2001C75.0941 86.2001 70.7982 98.9415 70.7769 98.9894C70.8408 99.173 70.902 99.3751 70.8328 99.556C70.8062 99.6252 70.761 99.6863 70.7397 99.7555C70.7184 99.8247 70.7264 99.9151 70.7876 99.955C70.7876 99.955 74.6339 113.298 74.6286 113.351C74.7643 113.513 74.8574 113.734 74.7989 113.936C74.7457 114.119 74.5728 114.25 74.3892 114.303C74.2057 114.356 74.0115 114.351 73.82 114.346C72.6389 114.303 71.4606 114.258 70.2795 114.215C70.221 114.213 70.1492 114.199 70.1332 114.143C70.1332 114.143 65.4596 100.843 65.4516 100.841C65.3426 100.58 65.3186 100.287 65.3825 100.014L66.6779 92.8661C66.6779 92.8661 55.2425 112.662 55.2 112.744C55.1415 112.84 55.1627 112.96 55.1494 113.071C55.1361 113.183 55.0457 113.308 54.9393 113.276L49.1777 113.045C49.1777 113.045 64.3052 83.1225 64.4142 83.0055C64.5126 82.657 64.4515 82.282 64.3371 81.9388C64.2254 81.5957 64.0631 81.2685 63.954 80.9254C63.9141 80.8003 63.8822 80.6673 63.9141 80.5397C63.9727 80.3215 64.2041 80.2045 64.5579 80.005C66.9306 78.9596 69.2155 77.7201 71.3568 76.3182C71.4712 75.6054 71.7239 74.9217 71.9154 74.2248C72.2266 73.0917 72.3703 71.8867 72.1256 70.7376C71.8835 69.5831 71.2132 68.4899 70.0561 67.8222Z" fill="#00396D"/>
<path d="M79.6128 66.0902C79.3522 66.5424 79.0862 66.9999 78.9266 67.5745C77.9769 68.1411 76.772 68.2581 75.7319 67.8857C75.5776 67.8298 75.4047 67.7314 75.4021 67.5692C75.3994 67.4308 75.5244 67.3271 75.6282 67.234C75.817 67.0611 75.9607 66.8403 76.0298 66.4945C75.6627 66.5929 75.2691 66.3562 75.0775 66.029C74.886 65.7018 74.8568 65.3055 74.8674 64.9251C74.8834 64.3532 74.9791 63.7866 75.1547 63.2413L75.1706 63.1429C75.1706 63.1429 74.1678 63.0365 74.1838 62.9594C74.4604 62.861 74.7397 62.7599 74.9871 62.6003C75.2345 62.4407 75.4499 62.2146 75.5324 61.9486C75.7399 61.3208 76.0085 60.7143 76.3384 60.1398C76.5565 59.7594 76.8039 59.387 77.1284 59.0891C77.4529 58.7912 77.8572 58.5677 78.3041 58.5518C78.1924 58.871 78.2403 59.2327 78.3759 59.5439C78.5116 59.8552 78.7271 60.1238 78.9558 60.3765C79.291 60.7436 79.6581 61.0814 80.0145 61.4272C80.073 61.9778 79.8256 62.5072 79.5916 63.0099C79.807 63.1482 79.8815 63.4275 79.9028 63.6802C79.94 64.1457 79.8549 64.6219 79.6581 65.0448C79.5756 65.2204 79.4719 65.3933 79.4373 65.5848C79.4027 65.7763 79.4559 65.9998 79.6128 66.0902Z" fill="#FFDC32"/>
<path d="M63.9802 80.4062C64.1451 81.2282 64.5441 81.9996 65.1213 82.6034C64.709 82.8348 64.2861 83.0556 63.8605 83.2604C63.7434 83.3163 63.6131 83.3748 63.4854 83.3482C63.403 83.3322 63.3285 83.2817 63.2434 83.2657C63.0784 83.2365 62.9268 83.3429 62.7725 83.4094C62.6209 83.4786 62.4028 83.4892 62.3257 83.3402C62.2937 83.279 62.2884 83.1939 62.2246 83.1673C62.19 83.1514 62.1501 83.162 62.1102 83.1726C61.8628 83.2338 61.5809 83.2019 61.3893 83.037C61.1499 82.8295 61.1074 82.4837 61.0781 82.1698C61.8203 82.1087 62.5518 81.9038 63.2194 81.574C63.3471 81.5102 63.4748 81.441 63.5679 81.3346C63.2513 81.2681 62.9508 81.1324 62.6927 80.9356C62.6635 80.9116 62.6316 80.8851 62.6209 80.8478C62.6023 80.768 62.6927 80.7122 62.7699 80.6829C63.1263 80.5552 63.4907 80.4648 63.9802 80.4062Z" fill="#FFDC32"/>
<path d="M58.4748 79.2012C58.8445 79.3688 59.2542 79.4432 59.6585 79.4166C59.7516 79.4113 59.858 79.406 59.9192 79.4752C59.9963 79.5656 59.9325 79.7039 59.8633 79.805C59.7941 79.9034 59.7223 80.0364 59.7915 80.1348C59.8128 80.1668 59.8447 80.188 59.8766 80.212C60.0043 80.313 60.0841 80.4727 60.0894 80.6349C60.0921 80.7121 60.0814 80.7892 60.0974 80.8663C60.1453 81.0818 60.4166 81.2334 60.3714 81.4515C60.3368 81.6218 60.1293 81.6883 59.9591 81.7202C59.7808 81.7548 59.5973 81.7867 59.4164 81.7787C59.3207 81.7734 59.2249 81.7574 59.1451 81.7042C59.0786 81.659 59.0307 81.5952 58.9828 81.5313C58.6876 81.1217 58.4429 80.6775 58.2487 80.2093C58.1875 80.0577 58.129 79.9007 58.129 79.7385C58.1263 79.5682 58.1955 79.398 58.4748 79.2012Z" fill="#FFDC32"/>
<path d="M75.4234 62.2035C75.4075 62.2035 75.3915 62.2008 75.3729 62.1928C75.3037 62.1662 75.2718 62.0891 75.2984 62.0199C75.6203 61.2113 76.0086 60.4212 76.4502 59.6738C76.6231 59.3812 76.8146 59.0753 77.0966 58.8465C77.4397 58.5672 77.8626 58.4449 78.1898 58.3704C78.2616 58.3544 78.3335 58.3997 78.3494 58.4715C78.3654 58.5433 78.3202 58.6151 78.2483 58.6311C77.8015 58.7322 77.4982 58.8625 77.2641 59.054C77.0168 59.2562 76.8412 59.5381 76.6789 59.8095C76.2427 60.5463 75.8623 61.323 75.5431 62.1183C75.5272 62.1715 75.4766 62.2035 75.4234 62.2035Z" fill="#000001"/>
<path d="M76.4854 63.2758C76.4827 63.2758 76.4827 63.2758 76.4801 63.2758L73.5754 63.1481C73.5089 63.1454 73.453 63.0922 73.4477 63.0231C73.4423 62.9539 73.4902 62.8954 73.5567 62.8821C74.783 62.6587 75.9454 62.0522 76.8285 61.1717C76.8817 61.1185 76.9642 61.1212 77.0174 61.1717C77.0706 61.2249 77.0679 61.3074 77.0174 61.3606C76.3098 62.0655 75.4294 62.6028 74.4798 62.9193L76.4934 63.0071C76.5679 63.0098 76.6237 63.0736 76.621 63.1454C76.6157 63.2199 76.5546 63.2758 76.4854 63.2758Z" fill="#000001"/>
<path d="M75.812 66.6166C75.7269 66.6166 75.6417 66.6086 75.5566 66.5846C75.2693 66.5075 75.0273 66.2628 74.9076 65.9303C74.8065 65.651 74.7985 65.361 74.8012 65.0658C74.8038 64.462 74.8331 63.8236 75.0512 63.2251C75.0752 63.1559 75.1523 63.1213 75.2215 63.1453C75.2906 63.1692 75.3252 63.2463 75.3013 63.3155C75.0991 63.8741 75.0698 64.4886 75.0672 65.0658C75.0672 65.3371 75.0725 65.6031 75.1576 65.8398C75.2454 66.0872 75.4263 66.2734 75.6258 66.3266C75.7535 66.3612 75.8944 66.3479 76.0407 66.3319C76.5328 66.2761 77.0276 66.1803 77.5091 66.05C77.5809 66.0314 77.6527 66.0739 77.6713 66.1431C77.6899 66.2149 77.65 66.2867 77.5782 66.3053C77.0861 66.4383 76.5781 66.5368 76.0727 66.5953C75.9875 66.6086 75.8998 66.6166 75.812 66.6166Z" fill="#000001"/>
<path d="M75.6543 67.4737C75.6304 67.4737 75.6064 67.4657 75.5825 67.4524C75.5213 67.4125 75.5027 67.33 75.5426 67.2688L76.0214 66.5161C76.0613 66.4549 76.1437 66.4363 76.2049 66.4762C76.2661 66.5161 76.2847 66.5985 76.2448 66.6597L75.766 67.4125C75.7421 67.4497 75.6995 67.4737 75.6543 67.4737Z" fill="#000001"/>
<path d="M76.9057 60.4805C76.8684 60.4805 76.8312 60.4646 76.8046 60.4327C76.7115 60.3209 76.5679 60.2465 76.4216 60.2332C76.3471 60.2278 76.2939 60.1613 76.2992 60.0895C76.3045 60.015 76.371 59.9618 76.4428 59.9672C76.661 59.9858 76.8658 60.0922 77.0068 60.2598C77.0546 60.3156 77.0467 60.4007 76.9908 60.446C76.9669 60.4699 76.9376 60.4805 76.9057 60.4805Z" fill="#000001"/>
<path d="M78.4072 60.8632C78.3699 60.8632 78.3354 60.8472 78.3088 60.8206C78.1518 60.6477 77.9124 60.5546 77.6783 60.5785C77.6065 60.5839 77.54 60.5333 77.532 60.4588C77.5241 60.387 77.5773 60.3205 77.6517 60.3125C77.9656 60.2806 78.2955 60.4056 78.5056 60.6397C78.5535 60.6956 78.5508 60.778 78.495 60.8286C78.4684 60.8525 78.4391 60.8632 78.4072 60.8632Z" fill="#000001"/>
<path d="M77.6134 64.4619C77.5682 64.4619 77.5256 64.438 77.499 64.3981C77.4618 64.3342 77.4804 64.2544 77.5442 64.2145C77.632 64.1613 77.6932 64.0895 77.7118 64.015C77.7304 63.9459 77.7038 63.8687 77.656 63.8395C77.6054 63.8102 77.5283 63.8155 77.4565 63.8262C77.3368 63.8421 77.2197 63.8687 77.1053 63.906C77.0654 63.9193 77.0255 63.9326 76.9856 63.9459C76.7782 64.015 76.5441 64.0948 76.3047 64.031C76.2329 64.0124 76.193 63.9379 76.2116 63.8687C76.2302 63.7969 76.302 63.757 76.3765 63.7756C76.5361 63.8182 76.7143 63.7597 76.9032 63.6958C76.9457 63.6825 76.9883 63.6666 77.0282 63.6533C77.1559 63.6134 77.2889 63.5841 77.4219 63.5655C77.5389 63.5495 77.6746 63.5415 77.7943 63.6134C77.9432 63.7038 78.0177 63.9006 77.9698 64.0842C77.9326 64.2252 77.8315 64.3529 77.6826 64.4433C77.6613 64.4539 77.6373 64.4619 77.6134 64.4619Z" fill="#000001"/>
<path d="M79.2454 63.2653C79.1443 63.2653 79.0406 63.2467 78.9448 63.2121C78.8756 63.1882 78.841 63.111 78.865 63.0419C78.8916 62.9727 78.9661 62.9381 79.0352 62.9621C79.1842 63.0179 79.3598 63.0099 79.5034 62.9434C79.5699 62.9142 79.6497 62.9408 79.6789 63.0073C79.7109 63.0738 79.6816 63.1536 79.6151 63.1828C79.5007 63.2387 79.3731 63.2653 79.2454 63.2653Z" fill="#000001"/>
<path d="M78.995 67.5164C78.979 67.5164 78.9631 67.5137 78.9471 67.5084C78.8779 67.4818 78.846 67.4047 78.8726 67.3355C79.0242 66.9498 79.2211 66.5801 79.4605 66.2422C79.503 66.1811 79.5855 66.1678 79.6467 66.2103C79.7079 66.2529 79.7212 66.3353 79.6786 66.3965C79.4525 66.7184 79.2663 67.0668 79.1227 67.4339C79.0987 67.4845 79.0482 67.5164 78.995 67.5164Z" fill="#000001"/>
<path d="M77.6091 61.8373C77.5666 61.8373 77.5346 61.824 77.5107 61.8107C77.4735 61.7894 77.3883 61.7202 77.4096 61.55C77.4203 61.4675 77.4548 61.3744 77.5054 61.284C77.641 61.0499 77.8246 60.9435 77.9629 61.0233C77.9948 61.0419 78.0374 61.0792 78.056 61.151C78.0826 61.2547 78.0507 61.4037 77.9656 61.55C77.8804 61.6963 77.7687 61.8 77.665 61.8293C77.649 61.8346 77.6277 61.8373 77.6091 61.8373Z" fill="#000001"/>
<path d="M76.2087 61.2915C76.1741 61.2915 76.1422 61.2835 76.1103 61.2649C76.0731 61.2436 75.9879 61.1744 76.0092 61.0042C76.0199 60.9217 76.0544 60.8286 76.105 60.7382C76.1901 60.5919 76.3018 60.4881 76.4056 60.4589C76.4774 60.4403 76.5306 60.4589 76.5625 60.4775C76.5997 60.4988 76.6849 60.5679 76.6636 60.7382C76.6529 60.8206 76.6184 60.9137 76.5678 61.0042C76.4641 61.1877 76.3284 61.2915 76.2087 61.2915Z" fill="#000001"/>
<path d="M64.2352 80.2546C64.182 80.2546 64.1315 80.2227 64.1102 80.1668C64.0836 80.0976 64.1209 80.0205 64.1874 79.9966C66.8048 79.0257 69.2813 77.443 71.2736 76.1715C72.1062 75.6395 72.9388 75.1048 73.7713 74.5675C75.5695 73.4077 77.6071 72.091 79.2802 70.3993C79.3307 70.3461 79.4159 70.3461 79.4691 70.3993C79.5223 70.4498 79.5223 70.5349 79.4691 70.5881C77.7746 72.3012 75.7238 73.6232 73.915 74.7909C73.0824 75.3283 72.2498 75.8629 71.4172 76.3949C69.4143 77.6717 66.9245 79.2624 64.2805 80.2439C64.2645 80.2519 64.2512 80.2546 64.2352 80.2546Z" fill="#000001"/>
<path d="M65.6612 83.0186C65.3739 83.0186 65.201 82.8643 65.0973 82.7446C65.0494 82.6888 65.0547 82.6063 65.1079 82.5558C65.1638 82.5079 65.2462 82.5105 65.2968 82.5664C65.4112 82.6941 65.5149 82.75 65.6532 82.7526C70.2843 80.1698 74.8595 77.3528 79.2565 74.3816C79.3176 74.339 79.4001 74.3577 79.44 74.4162C79.4799 74.4747 79.4639 74.5598 79.4054 74.5997C74.9951 77.5816 70.4013 80.4092 65.7543 83C65.7357 83.0106 65.7144 83.0159 65.6958 83.0159C65.6851 83.0186 65.6718 83.0186 65.6612 83.0186Z" fill="#000001"/>
<path d="M71.418 68.912C71.402 68.912 71.3834 68.9094 71.3675 68.9014C71.301 68.8721 71.2664 68.795 71.2956 68.7285C71.559 68.0981 71.8649 67.4783 72.2027 66.8824C72.2399 66.8186 72.3224 66.7973 72.3836 66.8319C72.4474 66.8691 72.4687 66.9489 72.4341 67.0128C72.099 67.598 71.7984 68.2098 71.5404 68.8296C71.5191 68.8828 71.4712 68.912 71.418 68.912Z" fill="#000001"/>
<path d="M71.3865 76.158C71.3732 76.158 71.3599 76.1553 71.3492 76.1527C71.2801 76.1314 71.2402 76.0569 71.2614 75.9878C71.5434 75.0488 71.836 74.0805 71.9717 73.0963C72.1233 72.0031 72.0568 71.0242 71.7748 70.1889C71.445 69.2101 70.7906 68.4121 69.9846 67.9998C69.9181 67.9679 69.8942 67.8854 69.9261 67.8216C69.958 67.7551 70.0405 67.7311 70.1043 67.763C70.9715 68.2046 71.6711 69.0584 72.0249 70.1038C72.3201 70.979 72.3893 71.9977 72.2323 73.1309C72.094 74.1337 71.7988 75.1153 71.5115 76.0622C71.4982 76.1208 71.445 76.158 71.3865 76.158Z" fill="#000001"/>
<path d="M66.656 92.9404C66.648 92.9404 66.64 92.9404 66.632 92.9378C66.5602 92.9245 66.5123 92.8553 66.523 92.7835L67.7545 85.7372C67.7678 85.6653 67.837 85.6148 67.9088 85.6281C67.9806 85.6414 68.0285 85.7106 68.0179 85.7824L66.7863 92.8287C66.7757 92.8926 66.7198 92.9404 66.656 92.9404Z" fill="#000001"/>
<path d="M62.5323 83.6088C62.3727 83.6088 62.2104 83.5397 62.1413 83.3854C62.1333 83.3641 62.1253 83.3455 62.12 83.3242C62.1147 83.3109 62.1094 83.2923 62.1067 83.2869C62.0907 83.2869 62.0189 83.3136 61.9817 83.3269L61.9205 83.3481C61.58 83.4572 61.2342 83.2284 61.0826 82.9544C60.931 82.6831 60.9177 82.3719 60.9044 82.1006C60.9017 82.0288 60.9576 81.9649 61.0294 81.9623C61.8859 81.9091 62.6972 81.6963 63.3968 81.3398C63.3702 81.3319 63.3409 81.3265 63.3143 81.3185C63.2212 81.2946 63.1308 81.2733 63.043 81.2467C62.8887 81.1989 62.6919 81.127 62.5403 80.9807C62.5084 80.9488 62.4631 80.8983 62.4498 80.8264C62.4419 80.7679 62.4445 80.6216 62.6653 80.5285C63.043 80.3716 63.442 80.2865 63.8517 80.2705C63.9261 80.2732 63.9873 80.3264 63.99 80.3982C63.9926 80.4727 63.9341 80.5338 63.8623 80.5365C63.4846 80.5498 63.1175 80.6296 62.769 80.7733C62.7504 80.7812 62.7371 80.7892 62.7265 80.7945C62.8488 80.8983 63.0005 80.9541 63.1228 80.9914C63.2079 81.018 63.2931 81.0392 63.3808 81.0605C63.5059 81.0924 63.6389 81.127 63.7852 81.1749C63.8357 81.1909 63.8703 81.2361 63.8756 81.2866C63.8809 81.3372 63.857 81.3877 63.8118 81.4143C63.0537 81.8639 62.1466 82.1405 61.1784 82.2176C61.1917 82.4278 61.2183 82.6486 61.3167 82.8268C61.4178 83.0103 61.6439 83.1619 61.8407 83.0981L61.8912 83.0795C62.0003 83.0396 62.1838 82.9731 62.3089 83.114C62.3488 83.1593 62.3647 83.2098 62.3754 83.247C62.378 83.2577 62.3833 83.2683 62.386 83.279C62.4126 83.3401 62.5243 83.3588 62.6068 83.3375C62.6759 83.3189 62.7451 83.2816 62.8196 83.2417C62.8728 83.2125 62.926 83.1859 62.9818 83.1619C63.0271 83.1433 63.0803 83.1247 63.1414 83.13C63.2 83.1353 63.2452 83.1619 63.2798 83.1805C63.4048 83.247 63.5537 83.2603 63.7107 83.2204C63.8676 83.1805 64.0192 83.0981 64.1522 83.0209C64.3863 82.8853 64.6151 82.7363 64.8359 82.5794C64.897 82.5368 64.9795 82.5501 65.0221 82.6113C65.0646 82.6725 65.0513 82.7549 64.9901 82.7975C64.764 82.9598 64.5246 83.1114 64.2852 83.2524C64.1389 83.3375 63.966 83.4332 63.7745 83.4785C63.5537 83.5317 63.3409 83.513 63.1707 83.4226C63.1414 83.4066 63.1228 83.396 63.1148 83.396C63.1148 83.396 63.1069 83.3987 63.0856 83.4067C63.0377 83.4279 62.9925 83.4519 62.9473 83.4758C62.8648 83.521 62.777 83.5663 62.6759 83.5929C62.6281 83.6035 62.5802 83.6088 62.5323 83.6088Z" fill="#000001"/>
<path d="M59.4232 81.8877C59.3301 81.8877 59.2078 81.8798 59.1014 81.8159C59.0189 81.768 58.9604 81.6989 58.9072 81.6324C58.5135 81.1323 58.2156 80.571 58.0214 79.9672C57.9868 79.8608 57.9523 79.7358 57.9576 79.6028C57.9682 79.4086 58.0906 79.2676 58.4098 79.0814C58.4523 79.0575 58.5029 79.0575 58.5454 79.0814C58.8274 79.2517 59.1945 79.2357 59.5483 79.2198L59.6334 79.2171C59.9659 79.2065 60.0856 79.3341 60.1308 79.4432C60.2133 79.6454 60.0616 79.8316 59.9872 79.922C59.9153 80.0098 59.8834 80.0869 59.902 80.1215C59.9127 80.1401 59.9473 80.1614 59.9818 80.1827L60.0111 80.2013C60.176 80.305 60.3383 80.4966 60.3037 80.728C60.2984 80.7732 60.2824 80.8158 60.2665 80.861C60.2532 80.9035 60.2372 80.9408 60.2425 80.9647C60.2478 80.9966 60.2931 81.0339 60.3409 81.0738C60.4128 81.135 60.5059 81.2121 60.5298 81.3345C60.5564 81.4701 60.4872 81.6191 60.3569 81.7069C60.2558 81.7734 60.1414 81.7946 60.0483 81.8133C59.8488 81.8505 59.644 81.8904 59.4286 81.8904C59.4286 81.8877 59.4259 81.8877 59.4232 81.8877ZM58.4789 79.3501C58.2289 79.507 58.2262 79.5789 58.2236 79.6161C58.2183 79.7039 58.2475 79.797 58.2741 79.8848C58.4577 80.4593 58.7423 80.9913 59.1147 81.4675C59.1546 81.518 59.1918 81.5606 59.2317 81.5872C59.2876 81.6191 59.3647 81.6217 59.4286 81.6217C59.6174 81.6217 59.8116 81.5845 59.9978 81.5499C60.0749 81.5366 60.1547 81.5207 60.2106 81.4834C60.2478 81.4595 60.2744 81.4169 60.2691 81.3877C60.2611 81.3557 60.2186 81.3185 60.1707 81.2786C60.0962 81.2174 60.0031 81.1403 59.9818 81.0126C59.9659 80.9195 59.9925 80.8397 60.0164 80.7732C60.0271 80.7466 60.0377 80.7173 60.0404 80.6907C60.0537 80.5923 59.9659 80.4886 59.8701 80.4274L59.8462 80.4114C59.7903 80.3769 59.7185 80.3343 59.6733 80.2545C59.6174 80.1587 59.5908 79.9938 59.7823 79.7544C59.8169 79.7119 59.9074 79.6001 59.8861 79.5416C59.8675 79.4991 59.7797 79.4751 59.6467 79.4804L59.5642 79.4831C59.2078 79.5017 58.8141 79.5203 58.4789 79.3501Z" fill="#000001"/>
<path d="M63.7837 77.9937C63.7039 77.9937 63.6294 77.991 63.5576 77.991C63.3581 77.9857 63.1559 77.9724 62.9564 77.9591C62.5681 77.9352 62.1691 77.9112 61.778 77.9378C61.7062 77.9458 61.6424 77.8873 61.6371 77.8155C61.6317 77.741 61.6876 77.6798 61.7594 77.6745C62.1664 77.6452 62.5761 77.6718 62.9724 77.6958C63.1692 77.7091 63.3687 77.7197 63.5656 77.7277C64.2997 77.7516 64.8211 77.6638 65.2547 77.4484C65.7973 77.1797 66.1591 76.6796 66.175 76.1742C66.1883 75.754 65.9649 75.2938 65.5579 74.9134C65.2813 74.6554 64.9514 74.4479 64.6322 74.2484C64.5205 74.1792 64.4088 74.1101 64.2997 74.0383C64.0204 73.8547 63.6507 73.5621 63.6427 73.1418C63.6374 72.8652 63.797 72.5912 64.1055 72.3465C64.7173 71.8597 65.5686 71.6389 66.7044 71.6629C67.1433 71.6735 67.795 71.7161 68.3855 71.9768C68.452 72.006 68.4839 72.0858 68.4547 72.1523C68.4254 72.2188 68.3456 72.2507 68.2791 72.2215C67.7311 71.9794 67.114 71.9395 66.699 71.9315C65.6217 71.9076 64.8344 72.1098 64.2731 72.5566C64.1056 72.6896 63.9087 72.8971 63.9114 73.1392C63.9167 73.4344 64.2199 73.6659 64.4487 73.8175C64.5577 73.8893 64.6668 73.9585 64.7759 74.025C65.1057 74.2324 65.4489 74.4479 65.7441 74.7219C66.0154 74.9746 66.4676 75.5039 66.4464 76.1849C66.4277 76.786 66.0074 77.3766 65.377 77.6878C64.845 77.9431 64.2492 77.9937 63.7837 77.9937Z" fill="#000001"/>
<path d="M62.2779 79.6374C62.254 79.6374 62.2301 79.632 62.2088 79.6187C62.1449 79.5815 62.1263 79.499 62.1636 79.4352C62.4961 78.8926 62.8445 78.3473 63.1983 77.8179C63.2382 77.7567 63.3207 77.7408 63.3818 77.7807C63.443 77.8206 63.459 77.903 63.4191 77.9642C63.068 78.4909 62.7222 79.0309 62.3897 79.5709C62.3657 79.6161 62.3232 79.6374 62.2779 79.6374Z" fill="#000001"/>
<path d="M66.9215 71.8973C66.8895 71.8973 66.855 71.884 66.8284 71.86C66.7752 71.8095 66.7725 71.7244 66.8257 71.6712C67.1768 71.3067 67.5013 70.9077 67.786 70.4901C67.8285 70.4289 67.911 70.413 67.9695 70.4555C68.0307 70.4981 68.0466 70.5806 68.0041 70.6391C67.7115 71.07 67.379 71.4796 67.0172 71.8547C66.9906 71.884 66.956 71.8973 66.9215 71.8973Z" fill="#000001"/>
<path d="M61.0566 73.0279C61.0327 73.0279 61.0061 73.0199 60.9848 73.0066C60.9236 72.9667 60.905 72.8843 60.9449 72.8231C62.0568 71.1154 63.706 69.7428 65.5866 68.9581C66.7437 68.4767 67.7465 68.3224 68.6536 68.4953C68.7254 68.5086 68.7733 68.5777 68.76 68.6496C68.7467 68.7214 68.6749 68.7693 68.6057 68.756C67.7519 68.5937 66.7969 68.74 65.6904 69.2028C63.8576 69.9663 62.251 71.3042 61.1684 72.9667C61.1418 73.0066 61.0992 73.0279 61.0566 73.0279Z" fill="white"/>
<path d="M59.5335 78.4304C59.4617 78.4304 59.4005 78.3718 59.4005 78.2974C59.3952 77.3424 59.5761 76.3689 59.9219 75.4804C59.9485 75.4113 60.0256 75.3767 60.0948 75.4059C60.1639 75.4325 60.1958 75.5097 60.1692 75.5788C59.8341 76.438 59.6612 77.377 59.6665 78.2974C59.6665 78.3718 59.608 78.4304 59.5335 78.4304Z" fill="white"/>
<path d="M105.131 81.007C105.03 80.7862 105.091 80.5096 105.254 80.3261C105.416 80.1452 105.663 80.0521 105.964 80.0707C106.238 80.2835 106.597 80.35 106.94 80.4059C107.403 80.4857 107.866 80.5628 108.329 80.6426C108.411 80.6559 108.496 80.6719 108.557 80.7304C108.653 80.8208 108.645 80.9724 108.645 81.1054C108.645 81.2916 108.677 81.4778 108.738 81.6561C108.781 81.7758 108.834 81.8928 108.829 82.0178C108.818 82.2546 108.597 82.4381 108.565 82.6722C108.549 82.7972 108.589 82.9249 108.613 83.0499C108.672 83.3345 108.65 83.6378 108.533 83.925C108.238 84.3427 107.94 84.7576 107.645 85.1752C107.27 85.7019 106.887 86.2392 106.358 86.609C106.294 86.6542 106.217 86.6994 106.142 86.6781C106.081 86.6622 106.038 86.6037 106.006 86.5478C105.81 86.1967 105.847 85.7658 105.924 85.3721C106.07 84.6166 106.336 83.8905 106.483 83.135C106.52 82.9435 106.549 82.7493 106.533 82.5525C106.517 82.361 106.459 82.1748 106.387 81.9965C106.32 81.8236 106.235 81.6454 106.081 81.547C105.951 81.4645 105.791 81.4486 105.639 81.4167C105.488 81.3847 105.286 81.3475 105.131 81.007Z" fill="#000001"/>
<path d="M88.6613 115.027C88.632 115.559 88.3554 116.056 87.975 116.428C87.5973 116.803 87.1211 117.067 86.637 117.285C86.1502 117.503 85.6475 117.679 85.166 117.907C84.9399 118.014 84.7112 118.139 84.5489 118.328C84.3414 118.567 84.3281 119.216 84.3281 119.216C84.3281 119.216 90.2599 119.216 90.228 119.163C90.5712 118.987 90.8451 118.679 90.9781 118.317C91.1111 117.955 91.1031 117.543 90.9542 117.186C90.8877 117.027 90.7919 116.878 90.7441 116.71C90.6589 116.41 90.7307 116.088 90.8451 115.798C90.9595 115.508 91.1218 115.237 91.2175 114.941C90.9648 115.048 90.6802 115.019 90.4089 115.003C89.9115 114.976 89.4087 114.995 88.6613 115.027Z" fill="#000001"/>
<path d="M101.655 115.255C102.025 115.736 101.993 116.452 101.671 116.968C101.349 117.484 100.791 117.816 100.203 117.976C99.8518 118.071 99.4315 118.154 99.2799 118.484C99.1815 118.697 99.2479 118.971 99.4288 119.117C99.6416 119.287 100.195 119.388 100.195 119.388H102.254C102.254 119.388 104.741 117.34 104.706 117.34C104.879 117.194 105.015 117.002 105.071 116.784C105.127 116.566 105.095 116.321 104.964 116.138C104.802 115.909 104.507 115.784 104.403 115.526C104.329 115.34 104.345 115.084 104.166 114.994C104.102 114.962 104.025 114.962 103.953 114.962C103.326 114.973 102.698 115.034 101.655 115.255Z" fill="#000001"/>
<path d="M110.032 77.6453C110.091 78.9008 109.846 80.151 109.564 81.3773C109.474 81.7709 109.381 82.1673 109.245 82.5477C108.79 83.8484 107.899 84.947 106.992 85.987C106.705 86.3169 106.409 86.6494 106.045 86.8914C105.713 87.1149 105.324 87.2559 104.925 87.3037C104.728 87.3277 104.524 87.3277 104.337 87.2559C104.138 87.1814 103.976 87.0324 103.845 86.8622C103.473 86.3834 103.342 85.753 103.35 85.1438C103.358 84.5373 103.494 83.9388 103.601 83.3403C103.726 82.6408 103.813 81.9332 103.994 81.2443C104.175 80.558 104.457 79.8823 104.936 79.3184C104.651 79.0391 104.521 78.6454 104.401 78.2651C104.297 77.9405 104.196 77.6187 104.05 77.4298C103.124 78.8981 102.313 80.4436 101.744 82.0848C101.177 83.7234 100.855 85.4604 100.925 87.1947L87.2734 115.141C87.2734 115.141 91.7821 115.141 91.8513 115.141C91.963 114.976 92.0747 114.808 92.1865 114.643L97.9587 104.362L101.23 115.417C101.23 115.417 104.798 115.417 104.795 115.351C104.92 115.329 105.032 115.244 105.087 115.133C105.143 115.021 105.143 114.88 105.087 114.768C105.056 114.704 105.005 114.649 104.976 114.582C104.888 114.38 105.008 114.125 104.896 113.933C104.896 113.933 102.513 104.285 102.537 104.205C102.497 104.128 102.475 104.043 102.47 103.955C102.707 103.862 102.866 103.599 102.837 103.346C102.826 103.245 102.792 103.125 102.864 103.054C102.864 103.054 108.279 88.5433 108.431 88.5114C110.527 85.9684 111.823 82.7738 112.089 79.4913C112.15 78.7465 112.152 77.9698 111.839 77.2463C111.261 77.0654 110.599 77.1612 110.032 77.6453Z" fill="#8B4513"/>
<path d="M103.582 86.4521C103.383 86.5585 103.202 86.6968 103.05 86.8644C103.031 86.8856 103.013 86.9069 103.005 86.9335C103 86.9575 103.002 86.9841 103.008 87.008C103.031 87.141 103.077 87.274 103.159 87.3831C103.242 87.4895 103.369 87.5693 103.558 87.5613C104.074 87.6544 104.604 87.6703 105.122 87.6038C105.229 87.5905 105.34 87.5719 105.433 87.5187C105.705 87.3698 105.766 86.9974 106 86.7925C106.043 86.7553 106.093 86.7207 106.112 86.6675C106.125 86.6276 106.12 86.5824 106.125 86.5398C106.136 86.4308 106.221 86.3457 106.285 86.2552C106.46 86.0078 106.497 85.67 106.37 85.3162C106.803 84.8481 107.157 84.2868 107.285 83.6617C107.325 83.4649 107.325 83.2228 107.157 83.1111C107.08 83.0606 106.968 83.0366 106.944 82.9462C106.926 82.8823 106.966 82.8158 106.998 82.7573C107.146 82.4727 107.104 82.1216 106.976 81.8263C106.902 81.6508 106.795 81.4858 106.638 81.3768C106.471 81.2597 106.263 81.2225 106.061 81.1879C105.75 81.1347 105.441 81.0815 105.13 81.0283C105.13 81.0283 104.569 81.7013 104.569 81.7173C104.335 82.0923 104.133 82.486 103.968 82.8956C103.909 83.0419 103.851 83.1989 103.734 83.3079C103.649 83.3877 103.54 83.4356 103.444 83.4995C103.43 83.5101 103.414 83.5207 103.412 83.5367C103.409 83.5527 103.42 83.5686 103.43 83.5793C103.473 83.6298 103.534 83.6591 103.582 83.7016C103.633 83.7442 103.675 83.8054 103.665 83.8719C103.657 83.9118 103.633 83.9437 103.609 83.9756C103.425 84.2256 103.348 84.5369 103.289 84.8401C103.239 85.1034 103.196 85.3694 103.218 85.6354C103.239 85.9041 103.332 86.1728 103.582 86.4521Z" fill="#FFDC32"/>
<path d="M109.782 80.2838C109.168 80.627 108.436 80.76 107.742 80.6536C107.269 80.5818 106.819 80.4062 106.375 80.228C106.181 80.1508 105.989 80.071 105.803 79.9753C104.896 79.5018 104.242 78.5761 104.119 77.4802C103.901 76.2194 104.132 74.9053 104.638 73.7269C105.143 72.5512 105.912 71.5032 106.774 70.5562C107.12 70.1758 107.481 69.8114 107.88 69.4922C108.79 68.766 109.881 68.2979 110.993 67.9494C111.857 67.6781 112.78 67.4733 113.666 67.6648C115.124 67.9813 116.19 69.3592 116.459 70.8275C116.728 72.2932 116.315 73.8147 115.65 75.15C114.796 76.871 113.52 78.3793 112.009 79.4433C112.126 78.7038 112.067 77.9351 111.809 77.2328C111.325 77.0945 110.793 77.145 110.344 77.3711C110.235 77.427 110.123 77.4988 110.07 77.6105C110.016 77.7249 110.032 77.8553 110.046 77.9803C110.125 78.7144 110.051 79.4592 109.782 80.2838Z" fill="#FFDC32"/>
<path d="M103.835 83.2765C103.816 83.2765 103.798 83.2738 103.779 83.2658C103.713 83.2366 103.683 83.1568 103.713 83.0903C104.053 82.3375 104.476 81.622 104.968 80.957C105.013 80.8984 105.096 80.8851 105.154 80.9303C105.213 80.9756 105.226 81.058 105.181 81.1166C104.699 81.7656 104.287 82.4652 103.955 83.1993C103.933 83.2472 103.885 83.2765 103.835 83.2765Z" fill="#000001"/>
<path d="M104.051 84.0587C104.03 84.0587 104.011 84.0534 103.993 84.0454L102.998 83.5453C102.945 83.5187 102.915 83.4602 102.926 83.399C102.937 83.3405 102.987 83.2979 103.048 83.2926C103.727 83.2474 104.227 83.0745 104.581 82.7633C104.636 82.7154 104.719 82.7207 104.769 82.7739C104.817 82.8298 104.812 82.9123 104.759 82.9628C104.445 83.2394 104.038 83.4176 103.517 83.5054L104.112 83.806C104.179 83.8379 104.205 83.9177 104.171 83.9842C104.147 84.0321 104.099 84.0587 104.051 84.0587Z" fill="#000001"/>
<path d="M104.27 86.854C104.265 86.854 104.257 86.854 104.251 86.854C103.842 86.7982 103.555 86.6625 103.374 86.4444C103.193 86.2263 103.14 85.939 103.116 85.7448C103.038 85.117 103.15 84.4574 103.429 83.8881C103.461 83.8216 103.541 83.795 103.608 83.8269C103.674 83.8589 103.701 83.9387 103.669 84.0052C103.411 84.5292 103.31 85.1357 103.379 85.7129C103.4 85.8751 103.44 86.1119 103.578 86.2768C103.714 86.4417 103.948 86.5455 104.289 86.5933C104.36 86.604 104.411 86.6705 104.403 86.7423C104.392 86.8061 104.337 86.854 104.27 86.854Z" fill="#000001"/>
<path d="M104.999 82.0072C104.97 82.0072 104.938 81.9966 104.914 81.9753C104.842 81.9168 104.757 81.8742 104.667 81.8529C104.595 81.837 104.55 81.7652 104.566 81.6933C104.582 81.6215 104.653 81.579 104.725 81.5923C104.856 81.6215 104.981 81.6854 105.084 81.7705C105.14 81.8184 105.148 81.9008 105.1 81.9593C105.074 81.9913 105.037 82.0072 104.999 82.0072Z" fill="#000001"/>
<path d="M105.943 82.4757C105.9 82.4757 105.86 82.4571 105.833 82.4199C105.748 82.3002 105.607 82.2203 105.461 82.2097C105.387 82.2044 105.333 82.1406 105.336 82.0687C105.341 81.9943 105.413 81.9384 105.477 81.9437C105.706 81.9597 105.919 82.0794 106.052 82.2682C106.094 82.3294 106.078 82.4119 106.02 82.4544C105.996 82.4677 105.969 82.4757 105.943 82.4757Z" fill="#000001"/>
<path d="M104.988 85.436C104.975 85.436 104.961 85.436 104.945 85.4333C104.874 85.4253 104.818 85.3615 104.826 85.287C104.834 85.2152 104.9 85.1646 104.972 85.1673C105.081 85.1779 105.187 85.0636 105.23 84.9492C105.275 84.8295 105.27 84.6699 105.177 84.5901C105.094 84.5183 104.948 84.5129 104.746 84.5741L104.677 84.5954C104.504 84.6486 104.307 84.7098 104.107 84.6566C104.036 84.638 103.996 84.5635 104.014 84.4943C104.033 84.4225 104.105 84.3826 104.177 84.4012C104.302 84.4358 104.445 84.3906 104.597 84.3427L104.671 84.3214C104.964 84.2336 105.193 84.2576 105.35 84.3906C105.544 84.5582 105.554 84.8401 105.48 85.0449C105.408 85.2391 105.225 85.436 104.988 85.436Z" fill="#000001"/>
<path d="M105.313 83.0075C105.289 83.0075 105.265 83.0022 105.244 82.9916C105.135 82.9357 105.121 82.7894 105.214 82.6059C105.305 82.4223 105.43 82.3425 105.542 82.3984C105.573 82.4144 105.611 82.4596 105.621 82.4942C105.656 82.5952 105.597 82.7309 105.571 82.7841C105.496 82.9251 105.403 83.0075 105.313 83.0075Z" fill="#000001"/>
<path d="M104.483 82.5847C104.459 82.5847 104.435 82.5794 104.414 82.5687C104.304 82.5129 104.291 82.3666 104.384 82.183C104.475 81.9995 104.6 81.9197 104.711 81.9755C104.743 81.9915 104.781 82.0367 104.791 82.0713C104.826 82.1724 104.767 82.3081 104.741 82.3613C104.669 82.5049 104.573 82.5847 104.483 82.5847Z" fill="#000001"/>
<path d="M105.819 87.1682C105.776 87.1682 105.736 87.1496 105.71 87.1123C105.667 87.0512 105.683 86.9687 105.742 86.9262C107.13 85.9526 108.239 84.5481 108.955 82.8617C109.612 81.3109 109.918 79.55 109.865 77.6295C109.865 77.5922 109.878 77.5576 109.904 77.531C110.208 77.2305 110.628 77.0416 111.054 77.0177C111.333 77.0017 111.601 77.0522 111.862 77.1001C111.934 77.1134 111.982 77.1826 111.969 77.2544C111.955 77.3262 111.886 77.3714 111.814 77.3608C111.57 77.3156 111.317 77.2704 111.069 77.2837C110.726 77.3023 110.386 77.4486 110.133 77.68C110.178 79.6165 109.867 81.3933 109.202 82.9654C108.468 84.6971 107.327 86.1414 105.898 87.1443C105.872 87.1602 105.845 87.1682 105.819 87.1682Z" fill="#000001"/>
<path d="M104.577 87.8277C104.154 87.8277 103.773 87.7692 103.422 87.6548C103.249 87.5963 103.034 87.5058 102.909 87.3143C102.834 87.1973 102.808 87.043 102.845 86.9073C102.874 86.7929 102.946 86.7025 103.042 86.652C103.106 86.6174 103.188 86.644 103.22 86.7078C103.254 86.7743 103.228 86.8541 103.164 86.8861C103.127 86.9047 103.111 86.9446 103.103 86.9712C103.087 87.035 103.098 87.1121 103.132 87.1653C103.212 87.2877 103.374 87.3542 103.505 87.3994C104.151 87.6122 104.912 87.6122 105.896 87.3994C105.968 87.3835 106.039 87.4287 106.053 87.5005C106.069 87.5723 106.024 87.6441 105.952 87.6574C105.444 87.7745 104.991 87.8277 104.577 87.8277Z" fill="#000001"/>
<path d="M97.9252 104.487C97.9146 104.487 97.9013 104.484 97.8906 104.482C97.8188 104.46 97.7789 104.389 97.7975 104.317L99.9495 96.6533C99.9707 96.5815 100.043 96.5416 100.114 96.5602C100.186 96.5815 100.226 96.6533 100.207 96.7251L98.0555 104.389C98.0369 104.45 97.9837 104.487 97.9252 104.487Z" fill="#000001"/>
<path d="M104.758 79.2488C104.715 79.2488 104.673 79.2275 104.646 79.1876C104.305 78.6662 104.069 78.0677 103.965 77.4533C103.952 77.3815 104.002 77.3123 104.074 77.299C104.146 77.2857 104.215 77.3362 104.228 77.4081C104.327 77.9853 104.548 78.5519 104.869 79.0413C104.909 79.1025 104.893 79.1849 104.83 79.2248C104.808 79.2435 104.782 79.2488 104.758 79.2488Z" fill="#000001"/>
<path d="M108.293 80.7733C107.423 80.7733 106.561 80.5685 105.785 80.1775C105.718 80.1456 105.692 80.0658 105.726 79.9993C105.758 79.9328 105.838 79.9088 105.904 79.9408C106.74 80.361 107.679 80.5526 108.61 80.4994C108.689 80.4914 108.745 80.5499 108.751 80.6244C108.756 80.6989 108.7 80.76 108.626 80.7654C108.516 80.7707 108.405 80.7733 108.293 80.7733Z" fill="#000001"/>
<path d="M110.507 74.993C110.446 74.993 110.39 74.9478 110.377 74.8839C110.286 74.4105 109.887 74.054 109.502 73.7082L109.384 73.6045C108.759 73.0379 108.501 72.5139 108.592 72.0005C108.634 71.7664 108.754 71.543 108.94 71.3515C109.243 71.0402 109.69 70.854 110.198 70.8221C110.683 70.7929 111.159 70.9046 111.52 71.0057C112.029 71.1493 112.672 71.3727 113.143 71.8436C113.196 71.8968 113.196 71.9792 113.143 72.0324C113.09 72.0856 113.007 72.0856 112.954 72.0324C112.526 71.6042 111.925 71.3967 111.449 71.2637C111.108 71.1679 110.659 71.0615 110.214 71.0881C109.773 71.1147 109.387 71.2743 109.132 71.5377C108.985 71.6866 108.887 71.8702 108.855 72.0484C108.781 72.4633 109.012 72.9076 109.563 73.4076L109.677 73.5114C110.076 73.8678 110.528 74.2748 110.637 74.8361C110.651 74.9079 110.605 74.977 110.531 74.993C110.523 74.993 110.515 74.993 110.507 74.993Z" fill="#000001"/>
<path d="M108.896 77.4296C108.452 77.4296 107.984 77.286 107.572 77.0173C107.141 76.7354 106.76 76.3204 106.438 75.7778C106.401 75.7139 106.422 75.6341 106.484 75.5942C106.545 75.557 106.627 75.5756 106.667 75.6394C106.968 76.1448 107.321 76.5332 107.718 76.7912C108.175 77.0892 108.705 77.2142 109.178 77.137C109.253 77.1237 109.319 77.1743 109.332 77.2461C109.346 77.3179 109.295 77.3871 109.223 77.4004C109.114 77.4217 109.005 77.4296 108.896 77.4296Z" fill="#000001"/>
<path d="M107.033 78.1824C107.012 78.1824 106.988 78.1771 106.969 78.1665C106.906 78.1319 106.882 78.0494 106.916 77.9856C107.124 77.6105 107.358 77.2435 107.616 76.9003C107.661 76.8418 107.743 76.8285 107.802 76.8737C107.861 76.9189 107.874 77.0014 107.829 77.0599C107.579 77.3951 107.35 77.7515 107.15 78.1159C107.126 78.1585 107.081 78.1824 107.033 78.1824Z" fill="#000001"/>
<path d="M111.745 71.3064C111.713 71.3064 111.684 71.2958 111.657 71.2745C111.601 71.2267 111.596 71.1415 111.644 71.0857C111.96 70.7159 112.272 70.3329 112.572 69.9445C112.617 69.886 112.7 69.8754 112.758 69.9206C112.817 69.9658 112.828 70.0483 112.782 70.1068C112.482 70.4978 112.165 70.8862 111.846 71.2586C111.819 71.2905 111.782 71.3064 111.745 71.3064Z" fill="#000001"/>
<path d="M109.803 77.3874C109.763 77.3874 109.723 77.3688 109.696 77.3342C109.598 77.2012 109.489 77.0522 109.425 76.8793C109.348 76.6692 109.353 76.4537 109.444 76.2888C109.473 76.2356 109.507 76.1877 109.545 76.1398C109.582 76.0919 109.619 76.0467 109.635 76.0015C109.648 75.9669 109.654 75.927 109.659 75.8898C109.678 75.7834 109.702 75.6344 109.837 75.5573C109.928 75.5041 110.023 75.5121 110.098 75.5174C110.117 75.5174 110.135 75.5201 110.156 75.5201C110.377 75.5201 110.563 75.3019 110.641 75.0971L110.651 75.0705C110.694 74.9588 110.752 74.8072 110.904 74.746C111.133 74.6556 111.343 74.8418 111.452 75.0679C111.513 75.1955 111.585 75.3312 111.67 75.3312C111.702 75.3312 111.747 75.3152 111.792 75.2993C111.891 75.2647 112.037 75.2142 112.162 75.3179C112.21 75.3578 112.237 75.4083 112.253 75.4456C112.356 75.6797 112.34 75.9669 112.21 76.3234C112.189 76.3819 112.165 76.4377 112.143 76.4963C112.069 76.6851 111.997 76.8634 111.984 77.0469C111.979 77.1214 111.909 77.1772 111.843 77.1719C111.768 77.1666 111.715 77.1028 111.718 77.0309C111.734 76.8048 111.816 76.5974 111.896 76.3979C111.917 76.342 111.941 76.2888 111.96 76.2329C112.066 75.9457 112.082 75.7222 112.01 75.5546C112 75.5307 111.995 75.5254 111.992 75.5227C111.976 75.5147 111.915 75.5387 111.88 75.5493C111.816 75.5706 111.734 75.5945 111.665 75.5945C111.409 75.5892 111.284 75.3339 111.21 75.1796C111.157 75.0679 111.061 74.9668 111.002 74.9881C110.96 75.0067 110.928 75.0865 110.901 75.1583L110.891 75.1876C110.776 75.4855 110.505 75.7807 110.156 75.7807C110.154 75.7807 110.148 75.7807 110.146 75.7807C110.122 75.7807 110.101 75.7781 110.077 75.7781C110.034 75.7754 109.989 75.7701 109.968 75.7834C109.941 75.7994 109.93 75.8659 109.92 75.9297C109.912 75.9829 109.901 76.0388 109.882 76.0866C109.851 76.1718 109.797 76.2409 109.752 76.2994C109.726 76.334 109.696 76.3686 109.675 76.4085C109.622 76.5069 109.622 76.6426 109.672 76.7809C109.723 76.9192 109.819 77.0469 109.909 77.1719C109.952 77.2304 109.941 77.3156 109.88 77.3581C109.856 77.3794 109.829 77.3874 109.803 77.3874Z" fill="#000001"/>
<path d="M104.989 76.0174C104.976 76.0174 104.962 76.0147 104.949 76.0121C104.88 75.9908 104.84 75.9163 104.861 75.8445C105.407 74.0862 106.165 72.6046 107.117 71.4369C108.234 70.0643 109.684 69.0775 111.195 68.6598C111.266 68.6412 111.338 68.6811 111.36 68.7529C111.378 68.8248 111.338 68.8966 111.266 68.9179C109.809 69.3222 108.407 70.2771 107.324 71.6071C106.393 72.7483 105.651 74.2006 105.117 75.927C105.098 75.9802 105.045 76.0174 104.989 76.0174Z" fill="white"/>
<path d="M114.679 69.8327C114.641 69.8327 114.604 69.8167 114.577 69.7874C114.011 69.1464 113.13 68.8086 112.282 68.9043C112.21 68.9097 112.144 68.8591 112.136 68.7873C112.128 68.7155 112.181 68.649 112.253 68.641C113.186 68.5346 114.154 68.907 114.78 69.6119C114.827 69.6678 114.822 69.7502 114.769 69.8008C114.742 69.822 114.71 69.8327 114.679 69.8327Z" fill="white"/>
</svg>
