<svg width="505" height="61" viewBox="0 0 505 61" fill="none" xmlns="http://www.w3.org/2000/svg">
<path d="M0.34775 47V0.919998H5.59575V47H0.34775ZM16.2138 47V14.36H21.0138V22.04H21.3338V47H16.2138ZM39.5738 47V25.624C39.5738 23.1493 38.9551 21.2933 37.7178 20.056C36.4804 18.8187 34.6458 18.2 32.2138 18.2C30.0804 18.2 28.1818 18.6693 26.5178 19.608C24.8964 20.5467 23.6164 21.848 22.6778 23.512C21.7818 25.176 21.3338 27.1173 21.3338 29.336L20.5017 21.592C21.6111 19.16 23.2964 17.24 25.5578 15.832C27.8618 14.424 30.4644 13.72 33.3658 13.72C36.7791 13.72 39.5098 14.7013 41.5578 16.664C43.6484 18.584 44.6938 21.1227 44.6938 24.28V47H39.5738ZM65.4733 47.64C61.4626 47.64 58.2626 46.7227 55.8733 44.888C53.4839 43.0107 52.1186 40.3653 51.7773 36.952H56.7053C57.0039 39.0427 57.9213 40.6427 59.4573 41.752C60.9933 42.8613 63.0413 43.416 65.6013 43.416C67.8626 43.416 69.6333 42.9893 70.9133 42.136C72.1933 41.2827 72.8333 40.0667 72.8333 38.488C72.8333 37.3787 72.4706 36.4187 71.7453 35.608C71.0199 34.7547 69.5693 34.0507 67.3933 33.496L62.1453 32.152C59.1586 31.384 56.9186 30.2107 55.4253 28.632C53.9319 27.0107 53.1853 25.0907 53.1853 22.872C53.1853 20.056 54.2306 17.8373 56.3213 16.216C58.4119 14.552 61.2493 13.72 64.8333 13.72C68.3746 13.72 71.2546 14.5733 73.4733 16.28C75.6919 17.9867 76.9506 20.3547 77.2493 23.384H72.3213C72.0226 21.6347 71.2119 20.2907 69.8893 19.352C68.5666 18.4133 66.8173 17.944 64.6413 17.944C62.5506 17.944 60.9293 18.3493 59.7773 19.16C58.6253 19.928 58.0493 21.0373 58.0493 22.488C58.0493 23.5973 58.4546 24.5573 59.2653 25.368C60.1186 26.1787 61.5266 26.8613 63.4893 27.416L68.6093 28.824C71.6386 29.6347 73.9213 30.872 75.4573 32.536C76.9933 34.2 77.7613 36.2053 77.7613 38.552C77.7613 41.4107 76.6733 43.6507 74.4973 45.272C72.3213 46.8507 69.3133 47.64 65.4733 47.64ZM85.1513 47V14.36H90.2713V47H85.1513ZM84.7673 6.936V0.919998H90.6553V6.936H84.7673ZM113.393 60.76C109.511 60.76 106.268 59.8427 103.665 58.008C101.105 56.216 99.5479 53.8267 98.9933 50.84H103.857C104.327 52.5467 105.372 53.8907 106.993 54.872C108.657 55.896 110.897 56.408 113.713 56.408C117.041 56.408 119.559 55.4907 121.265 53.656C122.972 51.864 123.825 49.2187 123.825 45.72V38.744L124.465 38.872C123.74 41.3467 122.289 43.3307 120.113 44.824C117.937 46.2747 115.356 47 112.369 47C109.511 47 106.993 46.3173 104.817 44.952C102.641 43.544 100.956 41.6027 99.7613 39.128C98.5666 36.6533 97.9693 33.7733 97.9693 30.488C97.9693 27.16 98.5879 24.2373 99.8253 21.72C101.063 19.2027 102.791 17.2613 105.009 15.896C107.271 14.488 109.895 13.784 112.881 13.784C115.953 13.784 118.513 14.5307 120.561 16.024C122.652 17.5173 124.039 19.6507 124.721 22.424L124.145 22.488V14.36H128.945V45.72C128.945 50.3707 127.559 54.04 124.785 56.728C122.012 59.416 118.215 60.76 113.393 60.76ZM113.649 42.584C116.849 42.584 119.388 41.4747 121.265 39.256C123.143 37.0373 124.081 34.0293 124.081 30.232C124.081 26.52 123.143 23.5973 121.265 21.464C119.388 19.288 116.849 18.2 113.649 18.2C110.407 18.2 107.847 19.288 105.969 21.464C104.135 23.64 103.217 26.6267 103.217 30.424C103.217 34.136 104.156 37.1013 106.033 39.32C107.911 41.496 110.449 42.584 113.649 42.584ZM139.214 47V0.919998H144.334V47H139.214ZM162.574 47V25.624C162.574 23.1493 161.955 21.2933 160.718 20.056C159.48 18.8187 157.646 18.2 155.214 18.2C153.08 18.2 151.182 18.6693 149.518 19.608C147.896 20.5467 146.616 21.848 145.678 23.512C144.782 25.176 144.334 27.1173 144.334 29.336L143.502 21.592C144.611 19.16 146.296 17.24 148.558 15.832C150.862 14.424 153.464 13.72 156.366 13.72C159.779 13.72 162.51 14.7013 164.558 16.664C166.648 18.584 167.694 21.1227 167.694 24.28V47H162.574ZM189.707 47.576C186.081 47.576 183.435 46.7653 181.771 45.144C180.15 43.48 179.339 41.0907 179.339 37.976V6.744L184.459 4.824V37.912C184.459 39.7467 184.929 41.0907 185.867 41.944C186.806 42.7973 188.342 43.224 190.475 43.224C191.329 43.224 192.054 43.1813 192.651 43.096C193.291 42.968 193.803 42.8187 194.187 42.648V47C193.761 47.1707 193.142 47.2987 192.331 47.384C191.563 47.512 190.689 47.576 189.707 47.576ZM172.619 18.712V14.36H194.187V18.712H172.619ZM211.723 47.64C207.713 47.64 204.513 46.7227 202.123 44.888C199.734 43.0107 198.369 40.3653 198.027 36.952H202.955C203.254 39.0427 204.171 40.6427 205.707 41.752C207.243 42.8613 209.291 43.416 211.851 43.416C214.113 43.416 215.883 42.9893 217.163 42.136C218.443 41.2827 219.083 40.0667 219.083 38.488C219.083 37.3787 218.721 36.4187 217.995 35.608C217.27 34.7547 215.819 34.0507 213.643 33.496L208.395 32.152C205.409 31.384 203.169 30.2107 201.675 28.632C200.182 27.0107 199.435 25.0907 199.435 22.872C199.435 20.056 200.481 17.8373 202.571 16.216C204.662 14.552 207.499 13.72 211.083 13.72C214.625 13.72 217.505 14.5733 219.723 16.28C221.942 17.9867 223.201 20.3547 223.499 23.384H218.571C218.273 21.6347 217.462 20.2907 216.139 19.352C214.817 18.4133 213.067 17.944 210.891 17.944C208.801 17.944 207.179 18.3493 206.027 19.16C204.875 19.928 204.299 21.0373 204.299 22.488C204.299 23.5973 204.705 24.5573 205.515 25.368C206.369 26.1787 207.777 26.8613 209.739 27.416L214.859 28.824C217.889 29.6347 220.171 30.872 221.707 32.536C223.243 34.2 224.011 36.2053 224.011 38.552C224.011 41.4107 222.923 43.6507 220.747 45.272C218.571 46.8507 215.563 47.64 211.723 47.64ZM278.53 47L253.762 21.592C252.354 20.0987 251.202 18.7333 250.306 17.496C249.41 16.2587 248.748 15.064 248.322 13.912C247.895 12.76 247.682 11.5867 247.682 10.392C247.682 8.42933 248.194 6.70133 249.218 5.208C250.242 3.672 251.628 2.47733 253.378 1.624C255.17 0.727998 257.218 0.279999 259.522 0.279999C261.74 0.279999 263.746 0.706665 265.538 1.56C267.33 2.37066 268.759 3.52266 269.826 5.016C270.892 6.50933 271.426 8.30133 271.426 10.392C271.426 12.9947 270.423 15.2987 268.418 17.304C266.412 19.2667 263.319 20.9307 259.138 22.296L256.45 19.032C259.735 18.2213 262.21 17.112 263.874 15.704C265.58 14.2533 266.434 12.5467 266.434 10.584C266.434 8.70667 265.73 7.23466 264.322 6.168C262.956 5.10133 261.314 4.568 259.394 4.568C257.516 4.568 255.938 5.08 254.658 6.104C253.42 7.128 252.802 8.6 252.802 10.52C252.802 11.3733 252.972 12.2267 253.314 13.08C253.698 13.9333 254.338 14.9147 255.234 16.024C256.13 17.1333 257.41 18.5413 259.074 20.248L285.25 47H278.53ZM258.37 47.64C255.042 47.64 252.119 47.064 249.602 45.912C247.084 44.76 245.122 43.1387 243.714 41.048C242.348 38.9573 241.666 36.5253 241.666 33.752C241.666 30.3387 242.86 27.352 245.25 24.792C247.639 22.232 250.882 20.5253 254.978 19.672L257.794 22.872C255.404 23.384 253.399 24.1307 251.778 25.112C250.156 26.0507 248.919 27.2027 248.066 28.568C247.255 29.9333 246.85 31.512 246.85 33.304C246.85 36.4187 247.895 38.8507 249.986 40.6C252.076 42.3493 254.935 43.224 258.562 43.224C261.25 43.224 263.618 42.7547 265.666 41.816C267.756 40.8773 269.527 39.512 270.978 37.72C272.428 35.8853 273.516 33.6667 274.242 31.064C275.01 28.4613 275.394 25.496 275.394 22.168H280.45C280.45 25.2827 280.108 28.1627 279.426 30.808C278.786 33.4533 277.826 35.8213 276.546 37.912C275.266 40.0027 273.708 41.7733 271.874 43.224C270.082 44.632 268.055 45.72 265.794 46.488C263.532 47.256 261.058 47.64 258.37 47.64ZM305.223 47V0.919998H310.471V47H305.223ZM321.089 47V14.36H325.889V22.04H326.209V47H321.089ZM343.105 47V25.368C343.105 22.8933 342.55 21.08 341.441 19.928C340.331 18.776 338.731 18.2 336.641 18.2C334.678 18.2 332.907 18.6693 331.329 19.608C329.75 20.5467 328.491 21.848 327.553 23.512C326.657 25.176 326.209 27.1173 326.209 29.336L325.377 21.592C326.486 19.16 328.15 17.24 330.369 15.832C332.587 14.424 334.998 13.72 337.601 13.72C340.758 13.72 343.318 14.6587 345.281 16.536C347.243 18.3707 348.225 20.8667 348.225 24.024V47H343.105ZM365.121 47V25.368C365.121 22.8933 364.566 21.08 363.457 19.928C362.347 18.776 360.747 18.2 358.657 18.2C356.694 18.2 354.923 18.6693 353.345 19.608C351.766 20.5467 350.507 21.848 349.569 23.512C348.673 25.176 348.225 27.1173 348.225 29.336L346.945 21.592C348.054 19.16 349.761 17.24 352.065 15.832C354.369 14.424 356.843 13.72 359.489 13.72C362.646 13.72 365.227 14.6587 367.233 16.536C369.238 18.3707 370.241 20.8667 370.241 24.024V47H365.121ZM396.217 47.576C393.145 47.576 390.563 46.8293 388.473 45.336C386.382 43.8427 384.953 41.7307 384.185 39L385.209 38.872V60.12H380.089V14.36H384.889V21.976L384.185 21.784C384.995 19.2667 386.531 17.304 388.793 15.896C391.054 14.4453 393.678 13.72 396.665 13.72C399.566 13.72 402.083 14.424 404.217 15.832C406.393 17.24 408.078 19.2027 409.273 21.72C410.467 24.2373 411.065 27.1813 411.065 30.552C411.065 33.9653 410.446 36.952 409.209 39.512C407.971 42.072 406.243 44.056 404.025 45.464C401.806 46.872 399.203 47.576 396.217 47.576ZM395.449 43.096C398.691 43.096 401.23 41.9867 403.065 39.768C404.899 37.5067 405.817 34.4347 405.817 30.552C405.817 26.712 404.899 23.704 403.065 21.528C401.23 19.3093 398.691 18.2 395.449 18.2C392.206 18.2 389.646 19.3307 387.769 21.592C385.891 23.8107 384.953 26.8613 384.953 30.744C384.953 34.5413 385.891 37.5493 387.769 39.768C389.646 41.9867 392.206 43.096 395.449 43.096ZM439.058 47C438.888 46.2747 438.76 45.4427 438.674 44.504C438.632 43.5653 438.61 42.3707 438.61 40.92H438.29V25.304C438.29 22.8293 437.714 21.016 436.562 19.864C435.453 18.6693 433.64 18.072 431.122 18.072C428.648 18.072 426.664 18.584 425.17 19.608C423.72 20.5893 422.909 21.9973 422.738 23.832H417.81C418.024 20.6747 419.346 18.2 421.778 16.408C424.21 14.616 427.389 13.72 431.314 13.72C435.368 13.72 438.376 14.68 440.338 16.6C442.301 18.52 443.282 21.4 443.282 25.24V40.92C443.282 41.8587 443.346 42.84 443.474 43.864C443.602 44.8453 443.773 45.8907 443.986 47H439.058ZM427.858 47.64C424.488 47.64 421.8 46.8293 419.794 45.208C417.832 43.544 416.85 41.2827 416.85 38.424C416.85 35.5653 417.832 33.3467 419.794 31.768C421.757 30.1893 424.616 29.08 428.37 28.44L439.762 26.52V30.744L429.138 32.408C426.749 32.792 424.936 33.432 423.698 34.328C422.461 35.224 421.842 36.5253 421.842 38.232C421.842 39.896 422.397 41.1547 423.506 42.008C424.658 42.8613 426.344 43.288 428.562 43.288C431.421 43.288 433.746 42.648 435.538 41.368C437.373 40.0453 438.29 38.3387 438.29 36.248L439.122 40.792C438.44 42.968 437.096 44.6533 435.09 45.848C433.128 47.0427 430.717 47.64 427.858 47.64ZM466.079 47.64C463.093 47.64 460.426 46.9147 458.079 45.464C455.775 43.9707 453.941 41.944 452.575 39.384C451.253 36.7813 450.591 33.8373 450.591 30.552C450.591 27.2667 451.253 24.3653 452.575 21.848C453.941 19.3307 455.775 17.3467 458.079 15.896C460.426 14.4453 463.071 13.72 466.015 13.72C468.447 13.72 470.623 14.1893 472.543 15.128C474.506 16.0667 476.106 17.4107 477.343 19.16C478.623 20.8667 479.434 22.872 479.775 25.176H475.039C474.613 23.0853 473.631 21.3787 472.095 20.056C470.559 18.7333 468.575 18.072 466.143 18.072C464.053 18.072 462.239 18.584 460.703 19.608C459.167 20.632 457.973 22.0827 457.119 23.96C456.266 25.8373 455.839 28.0347 455.839 30.552C455.839 33.0693 456.266 35.288 457.119 37.208C457.973 39.128 459.167 40.6213 460.703 41.688C462.282 42.7547 464.117 43.288 466.207 43.288C468.554 43.288 470.517 42.648 472.095 41.368C473.674 40.0453 474.677 38.3387 475.103 36.248H479.839C479.455 38.5093 478.602 40.5147 477.279 42.264C475.999 43.9707 474.399 45.2933 472.479 46.232C470.559 47.1707 468.426 47.64 466.079 47.64ZM500.207 47.576C496.581 47.576 493.935 46.7653 492.271 45.144C490.65 43.48 489.839 41.0907 489.839 37.976V6.744L494.959 4.824V37.912C494.959 39.7467 495.429 41.0907 496.367 41.944C497.306 42.7973 498.842 43.224 500.975 43.224C501.829 43.224 502.554 43.1813 503.151 43.096C503.791 42.968 504.303 42.8187 504.687 42.648V47C504.261 47.1707 503.642 47.2987 502.831 47.384C502.063 47.512 501.189 47.576 500.207 47.576ZM483.119 18.712V14.36H504.687V18.712H483.119Z" fill="black"/>
</svg>
