<svg width="251" height="122" viewBox="0 0 251 122" fill="none" xmlns="http://www.w3.org/2000/svg">
<path d="M8.129 47V0.919998H13.377V47H8.129ZM23.995 47V14.36H28.795V22.04H29.115V47H23.995ZM47.355 47V25.624C47.355 23.1493 46.7363 21.2933 45.499 20.056C44.2617 18.8187 42.427 18.2 39.995 18.2C37.8617 18.2 35.963 18.6693 34.299 19.608C32.6777 20.5467 31.3977 21.848 30.459 23.512C29.563 25.176 29.115 27.1173 29.115 29.336L28.283 21.592C29.3923 19.16 31.0777 17.24 33.339 15.832C35.643 14.424 38.2457 13.72 41.147 13.72C44.5603 13.72 47.291 14.7013 49.339 16.664C51.4297 18.584 52.475 21.1227 52.475 24.28V47H47.355ZM73.2545 47.64C69.2438 47.64 66.0438 46.7227 63.6545 44.888C61.2652 43.0107 59.8998 40.3653 59.5585 36.952H64.4865C64.7852 39.0427 65.7025 40.6427 67.2385 41.752C68.7745 42.8613 70.8225 43.416 73.3825 43.416C75.6438 43.416 77.4145 42.9893 78.6945 42.136C79.9745 41.2827 80.6145 40.0667 80.6145 38.488C80.6145 37.3787 80.2518 36.4187 79.5265 35.608C78.8012 34.7547 77.3505 34.0507 75.1745 33.496L69.9265 32.152C66.9398 31.384 64.6998 30.2107 63.2065 28.632C61.7132 27.0107 60.9665 25.0907 60.9665 22.872C60.9665 20.056 62.0118 17.8373 64.1025 16.216C66.1932 14.552 69.0305 13.72 72.6145 13.72C76.1558 13.72 79.0358 14.5733 81.2545 16.28C83.4732 17.9867 84.7318 20.3547 85.0305 23.384H80.1025C79.8038 21.6347 78.9932 20.2907 77.6705 19.352C76.3478 18.4133 74.5985 17.944 72.4225 17.944C70.3318 17.944 68.7105 18.3493 67.5585 19.16C66.4065 19.928 65.8305 21.0373 65.8305 22.488C65.8305 23.5973 66.2358 24.5573 67.0465 25.368C67.8998 26.1787 69.3078 26.8613 71.2705 27.416L76.3905 28.824C79.4198 29.6347 81.7025 30.872 83.2385 32.536C84.7745 34.2 85.5425 36.2053 85.5425 38.552C85.5425 41.4107 84.4545 43.6507 82.2785 45.272C80.1025 46.8507 77.0945 47.64 73.2545 47.64ZM92.9325 47V14.36H98.0525V47H92.9325ZM92.5485 6.936V0.919998H98.4365V6.936H92.5485ZM121.175 60.76C117.292 60.76 114.049 59.8427 111.447 58.008C108.887 56.216 107.329 53.8267 106.775 50.84H111.639C112.108 52.5467 113.153 53.8907 114.775 54.872C116.439 55.896 118.679 56.408 121.495 56.408C124.823 56.408 127.34 55.4907 129.047 53.656C130.753 51.864 131.607 49.2187 131.607 45.72V38.744L132.247 38.872C131.521 41.3467 130.071 43.3307 127.895 44.824C125.719 46.2747 123.137 47 120.151 47C117.292 47 114.775 46.3173 112.599 44.952C110.423 43.544 108.737 41.6027 107.543 39.128C106.348 36.6533 105.751 33.7733 105.751 30.488C105.751 27.16 106.369 24.2373 107.607 21.72C108.844 19.2027 110.572 17.2613 112.791 15.896C115.052 14.488 117.676 13.784 120.663 13.784C123.735 13.784 126.295 14.5307 128.343 16.024C130.433 17.5173 131.82 19.6507 132.503 22.424L131.927 22.488V14.36H136.727V45.72C136.727 50.3707 135.34 54.04 132.567 56.728C129.793 59.416 125.996 60.76 121.175 60.76ZM121.431 42.584C124.631 42.584 127.169 41.4747 129.047 39.256C130.924 37.0373 131.863 34.0293 131.863 30.232C131.863 26.52 130.924 23.5973 129.047 21.464C127.169 19.288 124.631 18.2 121.431 18.2C118.188 18.2 115.628 19.288 113.751 21.464C111.916 23.64 110.999 26.6267 110.999 30.424C110.999 34.136 111.937 37.1013 113.815 39.32C115.692 41.496 118.231 42.584 121.431 42.584ZM146.995 47V0.919998H152.115V47H146.995ZM170.355 47V25.624C170.355 23.1493 169.736 21.2933 168.499 20.056C167.262 18.8187 165.427 18.2 162.995 18.2C160.862 18.2 158.963 18.6693 157.299 19.608C155.678 20.5467 154.398 21.848 153.459 23.512C152.563 25.176 152.115 27.1173 152.115 29.336L151.283 21.592C152.392 19.16 154.078 17.24 156.339 15.832C158.643 14.424 161.246 13.72 164.147 13.72C167.56 13.72 170.291 14.7013 172.339 16.664C174.43 18.584 175.475 21.1227 175.475 24.28V47H170.355ZM197.489 47.576C193.862 47.576 191.217 46.7653 189.553 45.144C187.931 43.48 187.121 41.0907 187.121 37.976V6.744L192.241 4.824V37.912C192.241 39.7467 192.71 41.0907 193.649 41.944C194.587 42.7973 196.123 43.224 198.257 43.224C199.11 43.224 199.835 43.1813 200.433 43.096C201.073 42.968 201.585 42.8187 201.969 42.648V47C201.542 47.1707 200.923 47.2987 200.113 47.384C199.345 47.512 198.47 47.576 197.489 47.576ZM180.401 18.712V14.36H201.969V18.712H180.401ZM219.505 47.64C215.494 47.64 212.294 46.7227 209.905 44.888C207.515 43.0107 206.15 40.3653 205.809 36.952H210.737C211.035 39.0427 211.953 40.6427 213.489 41.752C215.025 42.8613 217.073 43.416 219.633 43.416C221.894 43.416 223.665 42.9893 224.945 42.136C226.225 41.2827 226.865 40.0667 226.865 38.488C226.865 37.3787 226.502 36.4187 225.777 35.608C225.051 34.7547 223.601 34.0507 221.425 33.496L216.177 32.152C213.19 31.384 210.95 30.2107 209.457 28.632C207.963 27.0107 207.217 25.0907 207.217 22.872C207.217 20.056 208.262 17.8373 210.353 16.216C212.443 14.552 215.281 13.72 218.865 13.72C222.406 13.72 225.286 14.5733 227.505 16.28C229.723 17.9867 230.982 20.3547 231.281 23.384H226.353C226.054 21.6347 225.243 20.2907 223.921 19.352C222.598 18.4133 220.849 17.944 218.673 17.944C216.582 17.944 214.961 18.3493 213.809 19.16C212.657 19.928 212.081 21.0373 212.081 22.488C212.081 23.5973 212.486 24.5573 213.297 25.368C214.15 26.1787 215.558 26.8613 217.521 27.416L222.641 28.824C225.67 29.6347 227.953 30.872 229.489 32.536C231.025 34.2 231.793 36.2053 231.793 38.552C231.793 41.4107 230.705 43.6507 228.529 45.272C226.353 46.8507 223.345 47.64 219.505 47.64ZM37.061 108L12.293 82.592C10.885 81.0987 9.733 79.7333 8.837 78.496C7.941 77.2587 7.27967 76.064 6.853 74.912C6.42633 73.76 6.213 72.5867 6.213 71.392C6.213 69.4293 6.725 67.7013 7.749 66.208C8.773 64.672 10.1597 63.4773 11.909 62.624C13.701 61.728 15.749 61.28 18.053 61.28C20.2717 61.28 22.277 61.7067 24.069 62.56C25.861 63.3707 27.2903 64.5227 28.357 66.016C29.4237 67.5093 29.957 69.3013 29.957 71.392C29.957 73.9947 28.9543 76.2987 26.949 78.304C24.9437 80.2667 21.8503 81.9307 17.669 83.296L14.981 80.032C18.2663 79.2213 20.741 78.112 22.405 76.704C24.1117 75.2533 24.965 73.5467 24.965 71.584C24.965 69.7067 24.261 68.2347 22.853 67.168C21.4877 66.1013 19.845 65.568 17.925 65.568C16.0477 65.568 14.469 66.08 13.189 67.104C11.9517 68.128 11.333 69.6 11.333 71.52C11.333 72.3733 11.5037 73.2267 11.845 74.08C12.229 74.9333 12.869 75.9147 13.765 77.024C14.661 78.1333 15.941 79.5413 17.605 81.248L43.781 108H37.061ZM16.901 108.64C13.573 108.64 10.6503 108.064 8.133 106.912C5.61567 105.76 3.653 104.139 2.245 102.048C0.879667 99.9573 0.197 97.5253 0.197 94.752C0.197 91.3387 1.39167 88.352 3.781 85.792C6.17033 83.232 9.413 81.5253 13.509 80.672L16.325 83.872C13.9357 84.384 11.9303 85.1307 10.309 86.112C8.68767 87.0507 7.45033 88.2027 6.597 89.568C5.78633 90.9333 5.381 92.512 5.381 94.304C5.381 97.4187 6.42633 99.8507 8.517 101.6C10.6077 103.349 13.4663 104.224 17.093 104.224C19.781 104.224 22.149 103.755 24.197 102.816C26.2877 101.877 28.0583 100.512 29.509 98.72C30.9597 96.8853 32.0477 94.6667 32.773 92.064C33.541 89.4613 33.925 86.496 33.925 83.168H38.981C38.981 86.2827 38.6397 89.1627 37.957 91.808C37.317 94.4533 36.357 96.8213 35.077 98.912C33.797 101.003 32.2397 102.773 30.405 104.224C28.613 105.632 26.5863 106.72 24.325 107.488C22.0637 108.256 19.589 108.64 16.901 108.64ZM50.9415 108V61.92H56.1895V108H50.9415ZM66.8075 108V75.36H71.6075V83.04H71.9275V108H66.8075ZM88.8235 108V86.368C88.8235 83.8933 88.2688 82.08 87.1595 80.928C86.0502 79.776 84.4502 79.2 82.3595 79.2C80.3968 79.2 78.6262 79.6693 77.0475 80.608C75.4688 81.5467 74.2102 82.848 73.2715 84.512C72.3755 86.176 71.9275 88.1173 71.9275 90.336L71.0955 82.592C72.2048 80.16 73.8688 78.24 76.0875 76.832C78.3062 75.424 80.7168 74.72 83.3195 74.72C86.4768 74.72 89.0368 75.6587 90.9995 77.536C92.9622 79.3707 93.9435 81.8667 93.9435 85.024V108H88.8235ZM110.84 108V86.368C110.84 83.8933 110.285 82.08 109.176 80.928C108.066 79.776 106.466 79.2 104.376 79.2C102.413 79.2 100.642 79.6693 99.0635 80.608C97.4848 81.5467 96.2262 82.848 95.2875 84.512C94.3915 86.176 93.9435 88.1173 93.9435 90.336L92.6635 82.592C93.7728 80.16 95.4795 78.24 97.7835 76.832C100.088 75.424 102.562 74.72 105.208 74.72C108.365 74.72 110.946 75.6587 112.952 77.536C114.957 79.3707 115.96 81.8667 115.96 85.024V108H110.84ZM141.936 108.576C138.864 108.576 136.282 107.829 134.192 106.336C132.101 104.843 130.672 102.731 129.904 100L130.928 99.872V121.12H125.808V75.36H130.608V82.976L129.904 82.784C130.714 80.2667 132.25 78.304 134.512 76.896C136.773 75.4453 139.397 74.72 142.384 74.72C145.285 74.72 147.802 75.424 149.936 76.832C152.112 78.24 153.797 80.2027 154.992 82.72C156.186 85.2373 156.784 88.1813 156.784 91.552C156.784 94.9653 156.165 97.952 154.928 100.512C153.69 103.072 151.962 105.056 149.744 106.464C147.525 107.872 144.922 108.576 141.936 108.576ZM141.168 104.096C144.41 104.096 146.949 102.987 148.784 100.768C150.618 98.5067 151.536 95.4347 151.536 91.552C151.536 87.712 150.618 84.704 148.784 82.528C146.949 80.3093 144.41 79.2 141.168 79.2C137.925 79.2 135.365 80.3307 133.488 82.592C131.61 84.8107 130.672 87.8613 130.672 91.744C130.672 95.5413 131.61 98.5493 133.488 100.768C135.365 102.987 137.925 104.096 141.168 104.096ZM184.777 108C184.606 107.275 184.478 106.443 184.393 105.504C184.35 104.565 184.329 103.371 184.329 101.92H184.009V86.304C184.009 83.8293 183.433 82.016 182.281 80.864C181.172 79.6693 179.358 79.072 176.841 79.072C174.366 79.072 172.382 79.584 170.889 80.608C169.438 81.5893 168.628 82.9973 168.457 84.832H163.529C163.742 81.6747 165.065 79.2 167.497 77.408C169.929 75.616 173.108 74.72 177.033 74.72C181.086 74.72 184.094 75.68 186.057 77.6C188.02 79.52 189.001 82.4 189.001 86.24V101.92C189.001 102.859 189.065 103.84 189.193 104.864C189.321 105.845 189.492 106.891 189.705 108H184.777ZM173.577 108.64C170.206 108.64 167.518 107.829 165.513 106.208C163.55 104.544 162.569 102.283 162.569 99.424C162.569 96.5653 163.55 94.3467 165.513 92.768C167.476 91.1893 170.334 90.08 174.089 89.44L185.481 87.52V91.744L174.857 93.408C172.468 93.792 170.654 94.432 169.417 95.328C168.18 96.224 167.561 97.5253 167.561 99.232C167.561 100.896 168.116 102.155 169.225 103.008C170.377 103.861 172.062 104.288 174.281 104.288C177.14 104.288 179.465 103.648 181.257 102.368C183.092 101.045 184.009 99.3387 184.009 97.248L184.841 101.792C184.158 103.968 182.814 105.653 180.809 106.848C178.846 108.043 176.436 108.64 173.577 108.64ZM211.798 108.64C208.811 108.64 206.145 107.915 203.798 106.464C201.494 104.971 199.659 102.944 198.294 100.384C196.971 97.7813 196.31 94.8373 196.31 91.552C196.31 88.2667 196.971 85.3653 198.294 82.848C199.659 80.3307 201.494 78.3467 203.798 76.896C206.145 75.4453 208.79 74.72 211.734 74.72C214.166 74.72 216.342 75.1893 218.262 76.128C220.225 77.0667 221.825 78.4107 223.062 80.16C224.342 81.8667 225.153 83.872 225.494 86.176H220.758C220.331 84.0853 219.35 82.3787 217.814 81.056C216.278 79.7333 214.294 79.072 211.862 79.072C209.771 79.072 207.958 79.584 206.422 80.608C204.886 81.632 203.691 83.0827 202.838 84.96C201.985 86.8373 201.558 89.0347 201.558 91.552C201.558 94.0693 201.985 96.288 202.838 98.208C203.691 100.128 204.886 101.621 206.422 102.688C208.001 103.755 209.835 104.288 211.926 104.288C214.273 104.288 216.235 103.648 217.814 102.368C219.393 101.045 220.395 99.3387 220.822 97.248H225.558C225.174 99.5093 224.321 101.515 222.998 103.264C221.718 104.971 220.118 106.293 218.198 107.232C216.278 108.171 214.145 108.64 211.798 108.64ZM245.926 108.576C242.299 108.576 239.654 107.765 237.99 106.144C236.369 104.48 235.558 102.091 235.558 98.976V67.744L240.678 65.824V98.912C240.678 100.747 241.147 102.091 242.086 102.944C243.025 103.797 244.561 104.224 246.694 104.224C247.547 104.224 248.273 104.181 248.87 104.096C249.51 103.968 250.022 103.819 250.406 103.648V108C249.979 108.171 249.361 108.299 248.55 108.384C247.782 108.512 246.907 108.576 245.926 108.576ZM228.838 79.712V75.36H250.406V79.712H228.838Z" fill="black"/>
</svg>
