<svg width="501" height="222" viewBox="0 0 501 222" fill="none" xmlns="http://www.w3.org/2000/svg">
<path d="M16.258 93V0.839996H26.754V93H16.258ZM47.99 93V27.72H57.59V43.08H58.23V93H47.99ZM94.71 93V50.248C94.71 45.2987 93.4727 41.5867 90.998 39.112C88.5233 36.6373 84.854 35.4 79.99 35.4C75.7233 35.4 71.926 36.3387 68.598 38.216C65.3553 40.0933 62.7953 42.696 60.918 46.024C59.126 49.352 58.23 53.2347 58.23 57.672L56.566 42.184C58.7847 37.32 62.1553 33.48 66.678 30.664C71.286 27.848 76.4913 26.44 82.294 26.44C89.1207 26.44 94.582 28.4027 98.678 32.328C102.859 36.168 104.95 41.2453 104.95 47.56V93H94.71ZM146.509 94.28C138.488 94.28 132.088 92.4453 127.309 88.776C122.53 85.0213 119.8 79.7307 119.117 72.904H128.973C129.57 77.0853 131.405 80.2853 134.477 82.504C137.549 84.7227 141.645 85.832 146.765 85.832C151.288 85.832 154.829 84.9787 157.389 83.272C159.949 81.5653 161.229 79.1333 161.229 75.976C161.229 73.7573 160.504 71.8373 159.053 70.216C157.602 68.5093 154.701 67.1013 150.349 65.992L139.853 63.304C133.88 61.768 129.4 59.4213 126.413 56.264C123.426 53.0213 121.933 49.1813 121.933 44.744C121.933 39.112 124.024 34.6747 128.205 31.432C132.386 28.104 138.061 26.44 145.229 26.44C152.312 26.44 158.072 28.1467 162.509 31.56C166.946 34.9733 169.464 39.7093 170.061 45.768H160.205C159.608 42.2693 157.986 39.5813 155.341 37.704C152.696 35.8267 149.197 34.888 144.845 34.888C140.664 34.888 137.421 35.6987 135.117 37.32C132.813 38.856 131.661 41.0747 131.661 43.976C131.661 46.1947 132.472 48.1147 134.093 49.736C135.8 51.3573 138.616 52.7227 142.541 53.832L152.781 56.648C158.84 58.2693 163.405 60.744 166.477 64.072C169.549 67.4 171.085 71.4107 171.085 76.104C171.085 81.8213 168.909 86.3013 164.557 89.544C160.205 92.7013 154.189 94.28 146.509 94.28ZM185.865 93V27.72H196.105V93H185.865ZM185.097 12.872V0.839996H196.873V12.872H185.097ZM242.349 120.52C234.584 120.52 228.098 118.685 222.893 115.016C217.773 111.432 214.658 106.653 213.549 100.68H223.277C224.216 104.093 226.306 106.781 229.549 108.744C232.877 110.792 237.357 111.816 242.989 111.816C249.645 111.816 254.68 109.981 258.093 106.312C261.506 102.728 263.213 97.4373 263.213 90.44V76.488L264.493 76.744C263.042 81.6933 260.141 85.6613 255.789 88.648C251.437 91.5493 246.274 93 240.301 93C234.584 93 229.549 91.6347 225.197 88.904C220.845 86.088 217.474 82.2053 215.085 77.256C212.696 72.3067 211.501 66.5467 211.501 59.976C211.501 53.32 212.738 47.4747 215.213 42.44C217.688 37.4053 221.144 33.5227 225.581 30.792C230.104 27.976 235.352 26.568 241.325 26.568C247.469 26.568 252.589 28.0613 256.685 31.048C260.866 34.0347 263.64 38.3013 265.005 43.848L263.853 43.976V27.72H273.453V90.44C273.453 99.7413 270.68 107.08 265.133 112.456C259.586 117.832 251.992 120.52 242.349 120.52ZM242.861 84.168C249.261 84.168 254.338 81.9493 258.093 77.512C261.848 73.0747 263.725 67.0587 263.725 59.464C263.725 52.04 261.848 46.1947 258.093 41.928C254.338 37.576 249.261 35.4 242.861 35.4C236.376 35.4 231.256 37.576 227.501 41.928C223.832 46.28 221.997 52.2533 221.997 59.848C221.997 67.272 223.874 73.2027 227.629 77.64C231.384 81.992 236.461 84.168 242.861 84.168ZM293.99 93V0.839996H304.23V93H293.99ZM340.71 93V50.248C340.71 45.2987 339.473 41.5867 336.998 39.112C334.523 36.6373 330.854 35.4 325.99 35.4C321.723 35.4 317.926 36.3387 314.598 38.216C311.355 40.0933 308.795 42.696 306.918 46.024C305.126 49.352 304.23 53.2347 304.23 57.672L302.566 42.184C304.785 37.32 308.155 33.48 312.678 30.664C317.286 27.848 322.491 26.44 328.294 26.44C335.121 26.44 340.582 28.4027 344.678 32.328C348.859 36.168 350.95 41.2453 350.95 47.56V93H340.71ZM394.977 94.152C387.724 94.152 382.433 92.5307 379.105 89.288C375.862 85.96 374.241 81.1813 374.241 74.952V12.488L384.481 8.64799V74.824C384.481 78.4933 385.42 81.1813 387.297 82.888C389.174 84.5947 392.246 85.448 396.513 85.448C398.22 85.448 399.67 85.3627 400.865 85.192C402.145 84.936 403.169 84.6373 403.937 84.296V93C403.084 93.3413 401.846 93.5973 400.225 93.768C398.689 94.024 396.94 94.152 394.977 94.152ZM360.801 36.424V27.72H403.937V36.424H360.801ZM439.009 94.28C430.988 94.28 424.588 92.4453 419.809 88.776C415.03 85.0213 412.3 79.7307 411.617 72.904H421.473C422.07 77.0853 423.905 80.2853 426.977 82.504C430.049 84.7227 434.145 85.832 439.265 85.832C443.788 85.832 447.329 84.9787 449.889 83.272C452.449 81.5653 453.729 79.1333 453.729 75.976C453.729 73.7573 453.004 71.8373 451.553 70.216C450.102 68.5093 447.201 67.1013 442.849 65.992L432.353 63.304C426.38 61.768 421.9 59.4213 418.913 56.264C415.926 53.0213 414.433 49.1813 414.433 44.744C414.433 39.112 416.524 34.6747 420.705 31.432C424.886 28.104 430.561 26.44 437.729 26.44C444.812 26.44 450.572 28.1467 455.009 31.56C459.446 34.9733 461.964 39.7093 462.561 45.768H452.705C452.108 42.2693 450.486 39.5813 447.841 37.704C445.196 35.8267 441.697 34.888 437.345 34.888C433.164 34.888 429.921 35.6987 427.617 37.32C425.313 38.856 424.161 41.0747 424.161 43.976C424.161 46.1947 424.972 48.1147 426.593 49.736C428.3 51.3573 431.116 52.7227 435.041 53.832L445.281 56.648C451.34 58.2693 455.905 60.744 458.977 64.072C462.049 67.4 463.585 71.4107 463.585 76.104C463.585 81.8213 461.409 86.3013 457.057 89.544C452.705 92.7013 446.689 94.28 439.009 94.28ZM74.122 195L24.586 144.184C21.77 141.197 19.466 138.467 17.674 135.992C15.882 133.517 14.5593 131.128 13.706 128.824C12.8527 126.52 12.426 124.173 12.426 121.784C12.426 117.859 13.45 114.403 15.498 111.416C17.546 108.344 20.3193 105.955 23.818 104.248C27.402 102.456 31.498 101.56 36.106 101.56C40.5433 101.56 44.554 102.413 48.138 104.12C51.722 105.741 54.5807 108.045 56.714 111.032C58.8473 114.019 59.914 117.603 59.914 121.784C59.914 126.989 57.9087 131.597 53.898 135.608C49.8873 139.533 43.7007 142.861 35.338 145.592L29.962 139.064C36.5327 137.443 41.482 135.224 44.81 132.408C48.2233 129.507 49.93 126.093 49.93 122.168C49.93 118.413 48.522 115.469 45.706 113.336C42.9753 111.203 39.69 110.136 35.85 110.136C32.0953 110.136 28.938 111.16 26.378 113.208C23.9033 115.256 22.666 118.2 22.666 122.04C22.666 123.747 23.0073 125.453 23.69 127.16C24.458 128.867 25.738 130.829 27.53 133.048C29.322 135.267 31.882 138.083 35.21 141.496L87.562 195H74.122ZM33.802 196.28C27.146 196.28 21.3007 195.128 16.266 192.824C11.2313 190.52 7.306 187.277 4.49 183.096C1.75933 178.915 0.394 174.051 0.394 168.504C0.394 161.677 2.78333 155.704 7.562 150.584C12.3407 145.464 18.826 142.051 27.018 140.344L32.65 146.744C27.8713 147.768 23.8607 149.261 20.618 151.224C17.3753 153.101 14.9007 155.405 13.194 158.136C11.5727 160.867 10.762 164.024 10.762 167.608C10.762 173.837 12.8527 178.701 17.034 182.2C21.2153 185.699 26.9327 187.448 34.186 187.448C39.562 187.448 44.298 186.509 48.394 184.632C52.5753 182.755 56.1167 180.024 59.018 176.44C61.9193 172.771 64.0953 168.333 65.546 163.128C67.082 157.923 67.85 151.992 67.85 145.336H77.962C77.962 151.565 77.2793 157.325 75.914 162.616C74.634 167.907 72.714 172.643 70.154 176.824C67.594 181.005 64.4793 184.547 60.81 187.448C57.226 190.264 53.1727 192.44 48.65 193.976C44.1273 195.512 39.178 196.28 33.802 196.28ZM101.883 195V102.84H112.379V195H101.883ZM133.615 195V129.72H143.215V145.08H143.855V195H133.615ZM177.647 195V151.736C177.647 146.787 176.538 143.16 174.319 140.856C172.1 138.552 168.9 137.4 164.719 137.4C160.794 137.4 157.252 138.339 154.095 140.216C150.938 142.093 148.42 144.696 146.543 148.024C144.751 151.352 143.855 155.235 143.855 159.672L142.191 144.184C144.41 139.32 147.738 135.48 152.175 132.664C156.612 129.848 161.434 128.44 166.639 128.44C172.954 128.44 178.074 130.317 181.999 134.072C185.924 137.741 187.887 142.733 187.887 149.048V195H177.647ZM221.679 195V151.736C221.679 146.787 220.57 143.16 218.351 140.856C216.132 138.552 212.932 137.4 208.751 137.4C204.826 137.4 201.284 138.339 198.127 140.216C194.97 142.093 192.452 144.696 190.575 148.024C188.783 151.352 187.887 155.235 187.887 159.672L185.327 144.184C187.546 139.32 190.959 135.48 195.567 132.664C200.175 129.848 205.124 128.44 210.415 128.44C216.73 128.44 221.892 130.317 225.903 134.072C229.914 137.741 231.919 142.733 231.919 149.048V195H221.679ZM283.871 196.152C277.727 196.152 272.564 194.659 268.383 191.672C264.202 188.685 261.343 184.461 259.807 179L261.855 178.744V221.24H251.615V129.72H261.215V144.952L259.807 144.568C261.428 139.533 264.5 135.608 269.023 132.792C273.546 129.891 278.794 128.44 284.767 128.44C290.57 128.44 295.604 129.848 299.871 132.664C304.223 135.48 307.594 139.405 309.983 144.44C312.372 149.475 313.567 155.363 313.567 162.104C313.567 168.931 312.33 174.904 309.855 180.024C307.38 185.144 303.924 189.112 299.487 191.928C295.05 194.744 289.844 196.152 283.871 196.152ZM282.335 187.192C288.82 187.192 293.898 184.973 297.567 180.536C301.236 176.013 303.071 169.869 303.071 162.104C303.071 154.424 301.236 148.408 297.567 144.056C293.898 139.619 288.82 137.4 282.335 137.4C275.85 137.4 270.73 139.661 266.975 144.184C263.22 148.621 261.343 154.723 261.343 162.488C261.343 170.083 263.22 176.099 266.975 180.536C270.73 184.973 275.85 187.192 282.335 187.192ZM369.554 195C369.213 193.549 368.957 191.885 368.786 190.008C368.701 188.131 368.658 185.741 368.658 182.84H368.018V151.608C368.018 146.659 366.866 143.032 364.562 140.728C362.343 138.339 358.717 137.144 353.682 137.144C348.733 137.144 344.765 138.168 341.778 140.216C338.877 142.179 337.255 144.995 336.914 148.664H327.058C327.485 142.349 330.13 137.4 334.994 133.816C339.858 130.232 346.215 128.44 354.066 128.44C362.173 128.44 368.189 130.36 372.114 134.2C376.039 138.04 378.002 143.8 378.002 151.48V182.84C378.002 184.717 378.13 186.68 378.386 188.728C378.642 190.691 378.983 192.781 379.41 195H369.554ZM347.154 196.28C340.413 196.28 335.037 194.659 331.026 191.416C327.101 188.088 325.138 183.565 325.138 177.848C325.138 172.131 327.101 167.693 331.026 164.536C334.951 161.379 340.669 159.16 348.178 157.88L370.962 154.04V162.488L349.714 165.816C344.935 166.584 341.309 167.864 338.834 169.656C336.359 171.448 335.122 174.051 335.122 177.464C335.122 180.792 336.231 183.309 338.45 185.016C340.754 186.723 344.125 187.576 348.562 187.576C354.279 187.576 358.93 186.296 362.514 183.736C366.183 181.091 368.018 177.677 368.018 173.496L369.682 182.584C368.317 186.936 365.629 190.307 361.618 192.696C357.693 195.085 352.871 196.28 347.154 196.28ZM423.596 196.28C417.623 196.28 412.289 194.829 407.596 191.928C402.988 188.941 399.319 184.888 396.588 179.768C393.943 174.563 392.62 168.675 392.62 162.104C392.62 155.533 393.943 149.731 396.588 144.696C399.319 139.661 402.988 135.693 407.596 132.792C412.289 129.891 417.58 128.44 423.468 128.44C428.332 128.44 432.684 129.379 436.524 131.256C440.449 133.133 443.649 135.821 446.124 139.32C448.684 142.733 450.305 146.744 450.988 151.352H441.516C440.663 147.171 438.7 143.757 435.628 141.112C432.556 138.467 428.588 137.144 423.724 137.144C419.543 137.144 415.916 138.168 412.844 140.216C409.772 142.264 407.383 145.165 405.676 148.92C403.969 152.675 403.116 157.069 403.116 162.104C403.116 167.139 403.969 171.576 405.676 175.416C407.383 179.256 409.772 182.243 412.844 184.376C416.001 186.509 419.671 187.576 423.852 187.576C428.545 187.576 432.471 186.296 435.628 183.736C438.785 181.091 440.791 177.677 441.644 173.496H451.116C450.348 178.019 448.641 182.029 445.996 185.528C443.436 188.941 440.236 191.587 436.396 193.464C432.556 195.341 428.289 196.28 423.596 196.28ZM491.852 196.152C484.599 196.152 479.308 194.531 475.98 191.288C472.737 187.96 471.116 183.181 471.116 176.952V114.488L481.356 110.648V176.824C481.356 180.493 482.295 183.181 484.172 184.888C486.049 186.595 489.121 187.448 493.388 187.448C495.095 187.448 496.545 187.363 497.74 187.192C499.02 186.936 500.044 186.637 500.812 186.296V195C499.959 195.341 498.721 195.597 497.1 195.768C495.564 196.024 493.815 196.152 491.852 196.152ZM457.676 138.424V129.72H500.812V138.424H457.676Z" fill="black"/>
</svg>
