<svg width="1196" height="600" viewBox="0 0 1196 600" fill="none" xmlns="http://www.w3.org/2000/svg">
<rect x="0.5" y="0.5" width="537" height="537" rx="29.5" fill="#00396D" stroke="#2085E2"/>
<rect x="57.5" y="486.5" width="427" height="106" rx="29.5" fill="#00396D" stroke="#2085E2"/>
<g clip-path="url(#clip0_9104_3031)">
<path d="M219.422 517.654H234.546L234.65 551.934H224.434V527.209H219.422V517.654Z" fill="#B1C2D2"/>
<path d="M217.336 543.398V515H185.002V527.113H204.434L217.336 543.398Z" fill="#014372"/>
<path d="M202.578 563.346H187.454L187.35 529.066H197.569V553.791H202.578V563.346Z" fill="#B1C2D2"/>
<path d="M204.664 537.602V566H236.998V553.887H217.566L204.664 537.602Z" fill="#014372"/>
</g>
<path fill-rule="evenodd" clip-rule="evenodd" d="M314.934 513C301.181 513 290 524.176 290 537.934C290 551.693 301.181 562.869 314.934 562.869H339.869V537.934C339.869 524.176 328.74 513 314.934 513ZM324.803 547.792H314.934C309.475 547.792 305.066 543.364 305.066 537.934C305.066 532.505 309.475 528.077 314.934 528.077C320.394 528.077 324.803 532.505 324.803 537.934V547.792Z" fill="#49C8F5"/>
<g clip-path="url(#clip1_9104_3031)">
<path d="M106.511 565.914C120.6 565.914 132.022 554.492 132.022 540.403C132.022 526.314 120.6 514.893 106.511 514.893C92.4217 514.893 81 526.314 81 540.403C81 554.492 92.4217 565.914 106.511 565.914Z" fill="#2CA01C"/>
<path d="M88.0863 540.403C88.0863 543.034 89.1316 545.558 90.9921 547.418C92.8526 549.279 95.3761 550.324 98.0072 550.324H99.4243V546.639H98.0072C97.1841 546.646 96.3678 546.489 95.6055 546.179C94.8431 545.868 94.1498 545.41 93.5654 544.83C92.981 544.251 92.5172 543.561 92.2007 542.801C91.8842 542.041 91.7212 541.226 91.7212 540.403C91.7212 539.58 91.8842 538.765 92.2007 538.005C92.5172 537.245 92.981 536.555 93.5654 535.976C94.1498 535.396 94.8431 534.938 95.6055 534.627C96.3678 534.317 97.1841 534.16 98.0072 534.167H101.409V553.442C101.409 554.419 101.797 555.356 102.488 556.047C103.179 556.738 104.116 557.127 105.093 557.127V530.482H98.0072C96.7044 530.482 95.4143 530.739 94.2106 531.237C93.0068 531.736 91.9131 532.467 90.9918 533.388C90.0706 534.309 89.3398 535.403 88.8412 536.607C88.3426 537.81 88.0863 539.1 88.0863 540.403ZM115.014 530.482H113.597V534.167H115.014C116.656 534.186 118.224 534.851 119.378 536.019C120.532 537.186 121.18 538.761 121.18 540.403C121.18 542.045 120.532 543.62 119.378 544.788C118.224 545.955 116.656 546.62 115.014 546.639H111.613V527.365C111.613 526.881 111.518 526.402 111.332 525.955C111.147 525.508 110.876 525.101 110.534 524.759C110.192 524.417 109.785 524.145 109.338 523.96C108.891 523.775 108.412 523.68 107.928 523.68V550.325H115.014C117.645 550.325 120.169 549.279 122.029 547.419C123.89 545.558 124.935 543.035 124.935 540.404C124.935 537.772 123.89 535.249 122.029 533.388C120.169 531.528 117.645 530.482 115.014 530.482Z" fill="white"/>
</g>
<path d="M434.292 536.701L412.312 532.801V561.618C412.312 562.934 413.374 564.001 414.682 564.001H452.608C453.917 564.001 454.978 562.934 454.978 561.618V551.001L434.292 536.701Z" fill="#185C37"/>
<path d="M434.292 512H414.682C413.374 512 412.312 513.067 412.312 514.383V525L434.292 538L445.928 541.9L454.978 538V525L434.292 512Z" fill="#21A366"/>
<path d="M412.312 525H434.292V538H412.312V525Z" fill="#107C41"/>
<path opacity="0.1" d="M428.043 522.4H412.312V554.9H428.043C429.35 554.896 430.409 553.832 430.413 552.517V524.783C430.409 523.469 429.35 522.405 428.043 522.4Z" fill="black"/>
<path opacity="0.2" d="M426.75 523.699H412.312V556.199H426.75C428.057 556.195 429.116 555.131 429.12 553.816V526.082C429.116 524.768 428.057 523.703 426.75 523.699Z" fill="black"/>
<path opacity="0.2" d="M426.75 523.699H412.312V553.599H426.75C428.057 553.595 429.116 552.531 429.12 551.216V526.082C429.116 524.768 428.057 523.703 426.75 523.699Z" fill="black"/>
<path opacity="0.2" d="M425.457 523.699H412.312V553.599H425.457C426.764 553.595 427.823 552.531 427.827 551.216V526.082C427.823 524.768 426.764 523.703 425.457 523.699Z" fill="black"/>
<path d="M401.753 523.699H425.457C426.765 523.699 427.827 524.766 427.827 526.082V549.916C427.827 551.232 426.765 552.299 425.457 552.299H401.753C400.444 552.299 399.383 551.232 399.383 549.916V526.082C399.383 524.766 400.444 523.699 401.753 523.699Z" fill="url(#paint0_linear_9104_3031)"/>
<path d="M406.723 545.746L411.708 537.979L407.14 530.254H410.815L413.307 535.194C413.538 535.663 413.695 536.012 413.781 536.242H413.813C413.974 535.873 414.147 535.509 414.33 535.151L416.995 530.257H420.368L415.684 537.936L420.487 545.746H416.898L414.018 540.324C413.883 540.093 413.768 539.851 413.675 539.6H413.632C413.548 539.846 413.436 540.081 413.298 540.302L410.334 545.746H406.723Z" fill="white"/>
<path d="M452.607 512H434.291V525H454.977V514.383C454.977 513.067 453.916 512 452.607 512Z" fill="#33C481"/>
<path d="M434.291 538H454.977V551H434.291V538Z" fill="#107C41"/>
<path d="M81 258C81 255.239 83.2386 253 86 253H117C119.761 253 122 255.239 122 258V286C122 288.761 119.761 291 117 291H86C83.2386 291 81 288.761 81 286V258Z" fill="#01E98F"/>
<path d="M165 398C165 395.239 167.239 393 170 393H201C203.761 393 206 395.239 206 398V426C206 428.761 203.761 431 201 431H170C167.239 431 165 428.761 165 426V398Z" fill="#01E98F"/>
<path d="M81 398C81 395.239 83.2386 393 86 393H117C119.761 393 122 395.239 122 398V426C122 428.761 119.761 431 117 431H86C83.2386 431 81 428.761 81 426V398Z" fill="#01E98F"/>
<path d="M165 258C165 255.239 167.239 253 170 253H201C203.761 253 206 255.239 206 258V286C206 288.761 203.761 291 201 291H170C167.239 291 165 288.761 165 286V258Z" fill="#01E98F"/>
<path d="M165 188C165 185.239 167.239 183 170 183H201C203.761 183 206 185.239 206 188V216C206 218.761 203.761 221 201 221H170C167.239 221 165 218.761 165 216V188Z" fill="#01E98F"/>
<path d="M81 188C81 185.239 83.2386 183 86 183H117C119.761 183 122 185.239 122 188V216C122 218.761 119.761 221 117 221H86C83.2386 221 81 218.761 81 216V188Z" fill="#01E98F"/>
<path d="M249 398C249 395.239 251.239 393 254 393H285C287.761 393 290 395.239 290 398V426C290 428.761 287.761 431 285 431H254C251.239 431 249 428.761 249 426V398Z" fill="#01E98F"/>
<path d="M249 258C249 255.239 251.239 253 254 253H285C287.761 253 290 255.239 290 258V286C290 288.761 287.761 291 285 291H254C251.239 291 249 288.761 249 286V258Z" fill="#01E98F"/>
<path d="M333 258C333 255.239 335.239 253 338 253H369C371.761 253 374 255.239 374 258V286C374 288.761 371.761 291 369 291H338C335.239 291 333 288.761 333 286V258Z" fill="#01E98F"/>
<path d="M333 188C333 185.239 335.239 183 338 183H369C371.761 183 374 185.239 374 188V216C374 218.761 371.761 221 369 221H338C335.239 221 333 218.761 333 216V188Z" fill="#01E98F"/>
<path d="M249 188C249 185.239 251.239 183 254 183H285C287.761 183 290 185.239 290 188V216C290 218.761 287.761 221 285 221H254C251.239 221 249 218.761 249 216V188Z" fill="#01E98F"/>
<path d="M417 398C417 395.239 419.239 393 422 393H453C455.761 393 458 395.239 458 398V426C458 428.761 455.761 431 453 431H422C419.239 431 417 428.761 417 426V398Z" fill="#01E98F"/>
<path d="M333 398C333 395.239 335.239 393 338 393H369C371.761 393 374 395.239 374 398V426C374 428.761 371.761 431 369 431H338C335.239 431 333 428.761 333 426V398Z" fill="#01E98F"/>
<path d="M165 328C165 325.239 167.239 323 170 323H201C203.761 323 206 325.239 206 328V356C206 358.761 203.761 361 201 361H170C167.239 361 165 358.761 165 356V328Z" fill="#01E98F"/>
<path d="M81 328C81 325.239 83.2386 323 86 323H117C119.761 323 122 325.239 122 328V356C122 358.761 119.761 361 117 361H86C83.2386 361 81 358.761 81 356V328Z" fill="#01E98F"/>
<path d="M249 328C249 325.239 251.239 323 254 323H285C287.761 323 290 325.239 290 328V356C290 358.761 287.761 361 285 361H254C251.239 361 249 358.761 249 356V328Z" fill="#01E98F"/>
<path d="M417 328C417 325.239 419.239 323 422 323H453C455.761 323 458 325.239 458 328V356C458 358.761 455.761 361 453 361H422C419.239 361 417 358.761 417 356V328Z" fill="#01E98F"/>
<path d="M333 328C333 325.239 335.239 323 338 323H369C371.761 323 374 325.239 374 328V356C374 358.761 371.761 361 369 361H338C335.239 361 333 358.761 333 356V328Z" fill="#01E98F"/>
<path d="M249 118C249 115.239 251.239 113 254 113H285C287.761 113 290 115.239 290 118V146C290 148.761 287.761 151 285 151H254C251.239 151 249 148.761 249 146V118Z" fill="#01E98F"/>
<path d="M333 118C333 115.239 335.239 113 338 113H369C371.761 113 374 115.239 374 118V146C374 148.761 371.761 151 369 151H338C335.239 151 333 148.761 333 146V118Z" fill="#01E98F"/>
<path d="M417 118C417 115.239 419.239 113 422 113H453C455.761 113 458 115.239 458 118V146C458 148.761 455.761 151 453 151H422C419.239 151 417 148.761 417 146V118Z" fill="#01E98F"/>
<path d="M81 118C81 115.239 83.2386 113 86 113H117C119.761 113 122 115.239 122 118V146C122 148.761 119.761 151 117 151H86C83.2386 151 81 148.761 81 146V118Z" fill="#01E98F"/>
<path d="M165 118C165 115.239 167.239 113 170 113H201C203.761 113 206 115.239 206 118V146C206 148.761 203.761 151 201 151H170C167.239 151 165 148.761 165 146V118Z" fill="#01E98F"/>
<path d="M417 258C417 255.239 419.239 253 422 253H453C455.761 253 458 255.239 458 258V286C458 288.761 455.761 291 453 291H422C419.239 291 417 288.761 417 286V258Z" fill="#01E98F"/>
<path d="M417 188C417 185.239 419.239 183 422 183H453C455.761 183 458 185.239 458 188V216C458 218.761 455.761 221 453 221H422C419.239 221 417 218.761 417 216V188Z" fill="#01E98F"/>
<rect x="658.5" y="0.5" width="537" height="537" rx="29.5" fill="#00396D" stroke="#2085E2"/>
<rect x="862" y="478" width="130" height="122" rx="20" fill="url(#paint1_linear_9104_3031)"/>
<path d="M740 398C740 395.239 742.239 393 745 393H776C778.761 393 781 395.239 781 398V426C781 428.761 778.761 431 776 431H745C742.239 431 740 428.761 740 426V398Z" fill="#01E98F"/>
<path d="M740 351C740 348.239 742.239 346 745 346H776C778.761 346 781 348.239 781 351V379C781 381.761 778.761 384 776 384H745C742.239 384 740 381.761 740 379V351Z" fill="#01E98F"/>
<path d="M740 304C740 301.239 742.239 299 745 299H776C778.761 299 781 301.239 781 304V332C781 334.761 778.761 337 776 337H745C742.239 337 740 334.761 740 332V304Z" fill="#01E98F"/>
<path d="M824 398C824 395.239 826.239 393 829 393H860C862.761 393 865 395.239 865 398V426C865 428.761 862.761 431 860 431H829C826.239 431 824 428.761 824 426V398Z" fill="#01E98F"/>
<path d="M824 351C824 348.239 826.239 346 829 346H860C862.761 346 865 348.239 865 351V379C865 381.761 862.761 384 860 384H829C826.239 384 824 381.761 824 379V351Z" fill="#01E98F"/>
<path d="M824 304C824 301.239 826.239 299 829 299H860C862.761 299 865 301.239 865 304V332C865 334.761 862.761 337 860 337H829C826.239 337 824 334.761 824 332V304Z" fill="#01E98F"/>
<path d="M824 257C824 254.239 826.239 252 829 252H860C862.761 252 865 254.239 865 257V285C865 287.761 862.761 290 860 290H829C826.239 290 824 287.761 824 285V257Z" fill="#01E98F"/>
<path d="M824 210C824 207.239 826.239 205 829 205H860C862.761 205 865 207.239 865 210V238C865 240.761 862.761 243 860 243H829C826.239 243 824 240.761 824 238V210Z" fill="#01E98F"/>
<path d="M908 398C908 395.239 910.239 393 913 393H944C946.761 393 949 395.239 949 398V426C949 428.761 946.761 431 944 431H913C910.239 431 908 428.761 908 426V398Z" fill="#01E98F"/>
<path d="M908 351C908 348.239 910.239 346 913 346H944C946.761 346 949 348.239 949 351V379C949 381.761 946.761 384 944 384H913C910.239 384 908 381.761 908 379V351Z" fill="#01E98F"/>
<path d="M908 304C908 301.239 910.239 299 913 299H944C946.761 299 949 301.239 949 304V332C949 334.761 946.761 337 944 337H913C910.239 337 908 334.761 908 332V304Z" fill="#01E98F"/>
<path d="M992 398C992 395.239 994.239 393 997 393H1028C1030.76 393 1033 395.239 1033 398V426C1033 428.761 1030.76 431 1028 431H997C994.239 431 992 428.761 992 426V398Z" fill="#01E98F"/>
<path d="M992 351C992 348.239 994.239 346 997 346H1028C1030.76 346 1033 348.239 1033 351V379C1033 381.761 1030.76 384 1028 384H997C994.239 384 992 381.761 992 379V351Z" fill="#01E98F"/>
<path d="M992 304C992 301.239 994.239 299 997 299H1028C1030.76 299 1033 301.239 1033 304V332C1033 334.761 1030.76 337 1028 337H997C994.239 337 992 334.761 992 332V304Z" fill="#01E98F"/>
<path d="M992 257C992 254.239 994.239 252 997 252H1028C1030.76 252 1033 254.239 1033 257V285C1033 287.761 1030.76 290 1028 290H997C994.239 290 992 287.761 992 285V257Z" fill="#01E98F"/>
<path d="M992 210C992 207.239 994.239 205 997 205H1028C1030.76 205 1033 207.239 1033 210V238C1033 240.761 1030.76 243 1028 243H997C994.239 243 992 240.761 992 238V210Z" fill="#01E98F"/>
<path d="M992 163C992 160.239 994.239 158 997 158H1028C1030.76 158 1033 160.239 1033 163V191C1033 193.761 1030.76 196 1028 196H997C994.239 196 992 193.761 992 191V163Z" fill="#01E98F"/>
<path d="M1076 398C1076 395.239 1078.24 393 1081 393H1112C1114.76 393 1117 395.239 1117 398V426C1117 428.761 1114.76 431 1112 431H1081C1078.24 431 1076 428.761 1076 426V398Z" fill="#01E98F"/>
<path d="M1076 351C1076 348.239 1078.24 346 1081 346H1112C1114.76 346 1117 348.239 1117 351V379C1117 381.761 1114.76 384 1112 384H1081C1078.24 384 1076 381.761 1076 379V351Z" fill="#01E98F"/>
<path d="M1076 304C1076 301.239 1078.24 299 1081 299H1112C1114.76 299 1117 301.239 1117 304V332C1117 334.761 1114.76 337 1112 337H1081C1078.24 337 1076 334.761 1076 332V304Z" fill="#01E98F"/>
<path d="M1076 257C1076 254.239 1078.24 252 1081 252H1112C1114.76 252 1117 254.239 1117 257V285C1117 287.761 1114.76 290 1112 290H1081C1078.24 290 1076 287.761 1076 285V257Z" fill="#01E98F"/>
<path d="M1076 210C1076 207.239 1078.24 205 1081 205H1112C1114.76 205 1117 207.239 1117 210V238C1117 240.761 1114.76 243 1112 243H1081C1078.24 243 1076 240.761 1076 238V210Z" fill="#01E98F"/>
<path d="M1076 163C1076 160.239 1078.24 158 1081 158H1112C1114.76 158 1117 160.239 1117 163V191C1117 193.761 1114.76 196 1112 196H1081C1078.24 196 1076 193.761 1076 191V163Z" fill="#01E98F"/>
<path d="M1076 116C1076 113.239 1078.24 111 1081 111H1112C1114.76 111 1117 113.239 1117 116V144C1117 146.761 1114.76 149 1112 149H1081C1078.24 149 1076 146.761 1076 144V116Z" fill="#01E98F"/>
<path d="M1076 69C1076 66.2386 1078.24 64 1081 64H1112C1114.76 64 1117 66.2386 1117 69V97C1117 99.7614 1114.76 102 1112 102H1081C1078.24 102 1076 99.7614 1076 97V69Z" fill="#01E98F"/>
<rect x="870" y="485" width="114" height="107" rx="20" fill="white"/>
<path d="M964.001 521.88L959.686 518L943.384 534.492L926.602 518L922.287 521.88L939.069 538.857L922.287 555.834L926.602 559.714L943.384 543.223L959.686 559.714L964.001 555.834L947.22 538.857L964.001 521.88Z" fill="#00FF85"/>
<path d="M891 558.681V518H902.07C906.402 518 909.771 518.969 913.141 520.421C916.029 521.874 918.435 524.296 919.879 527.202C921.323 530.107 922.286 533.982 922.286 538.825C922.286 543.183 921.323 546.574 919.879 549.479C918.435 552.385 916.029 554.807 913.141 556.744C910.253 558.197 906.884 559.165 902.552 559.165H891V558.681ZM902.552 553.354C905.44 553.354 907.846 552.87 909.771 551.901C911.697 550.932 913.141 548.995 914.585 547.058C915.547 544.636 916.029 541.731 916.029 538.341C916.029 533.498 915.066 529.623 912.659 527.202C910.253 524.78 906.884 523.327 902.07 523.327H896.776V553.354H902.552Z" fill="#00FF85"/>
<rect x="578.627" y="241" width="20.5581" height="3.95349" fill="#D9D9D9"/>
<rect x="606.303" y="241" width="6.32558" height="3.95349" fill="#00FF85"/>
<rect x="564.395" y="241" width="9.48837" height="3.95349" fill="#D9D9D9"/>
<rect x="547" y="241" width="10.2791" height="3.95349" fill="#00FF85"/>
<rect x="620.535" y="241" width="20.5581" height="3.95349" fill="#00FF85"/>
<rect x="586.535" y="267.883" width="20.5581" height="3.95349" fill="#D9D9D9"/>
<rect x="615" y="267.883" width="5.53488" height="3.95349" fill="#00FF85"/>
<rect x="571.512" y="267.883" width="10.2791" height="3.95349" fill="#D9D9D9"/>
<rect x="554.906" y="267.883" width="10.2791" height="3.95349" fill="#00FF85"/>
<rect x="628.441" y="267.883" width="20.5581" height="3.95349" fill="#00FF85"/>
<rect x="578.627" y="292.395" width="20.5581" height="3.95349" fill="#D9D9D9"/>
<rect x="608.674" y="292.395" width="6.32558" height="3.95349" fill="#00FF85"/>
<rect x="564.395" y="292.395" width="9.48837" height="3.95349" fill="#D9D9D9"/>
<rect x="547" y="292.395" width="10.2791" height="3.95349" fill="#00FF85"/>
<rect x="620.535" y="292.395" width="20.5581" height="3.95349" fill="#00FF85"/>
<defs>
<linearGradient id="paint0_linear_9104_3031" x1="404.324" y1="521.837" x2="423.038" y2="554.072" gradientUnits="userSpaceOnUse">
<stop stop-color="#18884F"/>
<stop offset="0.5" stop-color="#117E43"/>
<stop offset="1" stop-color="#0B6631"/>
</linearGradient>
<linearGradient id="paint1_linear_9104_3031" x1="883.667" y1="579.667" x2="974.786" y2="497.136" gradientUnits="userSpaceOnUse">
<stop stop-color="#9BFFA5"/>
<stop offset="1" stop-color="#220FFE"/>
</linearGradient>
<clipPath id="clip0_9104_3031">
<rect width="52" height="51" fill="white" transform="translate(185 515)"/>
</clipPath>
<clipPath id="clip1_9104_3031">
<rect width="51.0216" height="51.0216" fill="white" transform="translate(81 514.893)"/>
</clipPath>
</defs>
</svg>
