<?xml version="1.0" encoding="utf-8" standalone="yes"?>
<!DOCTYPE svg PUBLIC "-//W3C//DTD SVG 1.1//EN" "http://www.w3.org/Graphics/SVG/1.1/DTD/svg11.dtd">
<svg width="794" height="684" viewBox="0 0 794 684" style="fill:none;stroke:none;fill-rule:evenodd;clip-rule:evenodd;stroke-linecap:round;stroke-linejoin:round;stroke-miterlimit:1.5;" version="1.1" xmlns="http://www.w3.org/2000/svg" xmlns:xlink="http://www.w3.org/1999/xlink"><style id="fontImports">@import url("https://fonts.googleapis.com/css2?family=Roboto:wght@400;700&amp;display=block");</style><g id="items" style="isolation: isolate"><g id="blend" style="mix-blend-mode:normal"><g id="g-root-1.cu_sy_1lxdpjqtq4dfl-fill" data-item-order="999774214" data-item-id="1.cu_sy_1lxdpjqtq4dfl" data-item-class="Part Indexed Indexed_1 Fill Stroke" data-item-index="1" data-renderer-id="0" transform="translate(315, 278)"><g id="1.cu_sy_1lxdpjqtq4dfl-fill" stroke="none" fill="url(#gradient-3bc382-226276808)"><g><path d="M 153.971 84.0587C 153.99 83.3748 154 82.6885 154 82C 154 42.2355 121.765 10 82 10C 42.2355 10 10 42.2355 10 82C 10 121.765 42.2355 154 82 154C 101.9917 154 120.08 145.852 133.126 132.696C 131.117 128.209 130 123.235 130 118C 130 102.3362 140.004 89.0089 153.971 84.0587Z"></path></g></g></g><g id="g-root-8.cu_sy_1d1qpautq4e8a-fill" data-item-order="999774218" data-item-id="8.cu_sy_1d1qpautq4e8a" data-item-class="Part Indexed Fill Stroke" data-item-index="8" data-renderer-id="0" transform="translate(567, 368)"><g id="8.cu_sy_1d1qpautq4e8a-fill" stroke="none" fill="url(#gradient-dc8433-135949021)"><g><path d="M 94 52C 94 75.196 75.196 94 52 94C 28.804 94 10 75.196 10 52C 10 28.804 28.804 10 52 10C 75.196 10 94 28.804 94 52Z"></path></g></g></g><g id="g-root-7.cu_sy_18mjo9itq4bur-fill" data-item-order="999774222" data-item-id="7.cu_sy_18mjo9itq4bur" data-item-class="Part Indexed Fill Stroke" data-item-index="7" data-renderer-id="0" transform="translate(435, 350)"><g id="7.cu_sy_18mjo9itq4bur-fill" stroke="none" fill="url(#gradient-e05e5a-419626624)"><g><path d="M 82 46C 82 65.8823 65.8823 82 46 82C 26.1177 82 10 65.8823 10 46C 10 26.1177 26.1177 10 46 10C 65.8823 10 82 26.1177 82 46Z"></path></g></g></g><g id="g-root-6.cu_sy_vb35w6tq4dfo-fill" data-item-order="999774226" data-item-id="6.cu_sy_vb35w6tq4dfo" data-item-class="Part Indexed Fill Stroke" data-item-index="6" data-renderer-id="0" transform="translate(261, 422)"><g id="6.cu_sy_vb35w6tq4dfo-fill" stroke="none" fill="url(#gradient-d95da8-390987769)"><g><path d="M 94 52C 94 75.196 75.196 94 52 94C 28.804 94 10 75.196 10 52C 10 28.804 28.804 10 52 10C 75.196 10 94 28.804 94 52Z"></path></g></g></g><g id="g-root-5.cu_sy_mfg5natq4e8d-fill" data-item-order="999774230" data-item-id="5.cu_sy_mfg5natq4e8d" data-item-class="Part Indexed Fill Stroke" data-item-index="5" data-renderer-id="0" transform="translate(105, 362)"><g id="5.cu_sy_mfg5natq4e8d-fill" stroke="none" fill="url(#gradient-b55ede-387201868)"><g><path d="M 82 46C 82 65.8823 65.8823 82 46 82C 26.1177 82 10 65.8823 10 46C 10 26.1177 26.1177 10 46 10C 65.8823 10 82 26.1177 82 46Z"></path></g></g></g><g id="g-root-4.cu_sy_i094lytq4buu-fill" data-item-order="999774234" data-item-id="4.cu_sy_i094lytq4buu" data-item-class="Part Indexed Fill Stroke" data-item-index="4" data-renderer-id="0" transform="translate(687, 260)"><g id="4.cu_sy_i094lytq4buu-fill" stroke="none" fill="url(#gradient-795ee2-184371946)"><g><path d="M 70 40C 70 56.5685 56.5685 70 40 70C 23.4315 70 10 56.5685 10 40C 10 23.4315 23.4315 10 40 10C 56.5685 10 70 23.4315 70 40Z"></path></g></g></g><g id="g-root-3.cu_sy_4osm8mtq4dfr-fill" data-item-order="999774238" data-item-id="3.cu_sy_4osm8mtq4dfr" data-item-class="Part Indexed Fill Stroke" data-item-index="3" data-renderer-id="0" transform="translate(459, 212)"><g id="3.cu_sy_4osm8mtq4dfr-fill" stroke="none" fill="url(#gradient-17afe2-38714328)"><g><path d="M 58 34C 58 47.2548 47.2548 58 34 58C 20.7452 58 10 47.2548 10 34C 10 20.7452 20.7452 10 34 10C 47.2548 10 58 20.7452 58 34Z"></path></g></g></g><g id="g-root-2.cu_sy_8z446tq4e80-fill" data-item-order="999774242" data-item-id="2.cu_sy_8z446tq4e80" data-item-class="Part Indexed Fill Stroke" data-item-index="2" data-renderer-id="0" transform="translate(243, 260)"><g id="2.cu_sy_8z446tq4e80-fill" stroke="none" fill="url(#gradient-92c031-119406507)"><g><path d="M 70 40C 70 56.5685 56.5685 70 40 70C 23.4315 70 10 56.5685 10 40C 10 23.4315 23.4315 10 40 10C 56.5685 10 70 23.4315 70 40Z"></path></g></g></g><g id="g-root-1.cu_1_sy_1qf2mxitq4bnt-fill" data-item-order="999774246" data-item-id="1.cu_1_sy_1qf2mxitq4bnt" data-item-class="Part Indexed Indexed_1 Fill Stroke" data-item-index="1" data-renderer-id="0" transform="translate(75, 248)"><defs><linearGradient id="gradient-3bc382-226276808" x2="0" y2="1"><stop offset="0" stop-color="#44E095"></stop><stop offset="1" stop-color="#32a56e"></stop></linearGradient><linearGradient id="gradient-dc8433-135949021" x2="0" y2="1"><stop offset="0" stop-color="#F99539"></stop><stop offset="1" stop-color="#be722c"></stop></linearGradient><linearGradient id="gradient-e05e5a-419626624" x2="0" y2="1"><stop offset="0" stop-color="#FD6A65"></stop><stop offset="1" stop-color="#c2514e"></stop></linearGradient><linearGradient id="gradient-d95da8-390987769" x2="0" y2="1"><stop offset="0" stop-color="#F669BE"></stop><stop offset="1" stop-color="#bb5091"></stop></linearGradient><linearGradient id="gradient-b55ede-387201868" x2="0" y2="1"><stop offset="0" stop-color="#CD6AFB"></stop><stop offset="1" stop-color="#9d51c0"></stop></linearGradient><linearGradient id="gradient-795ee2-184371946" x2="0" y2="1"><stop offset="0" stop-color="#886AFF"></stop><stop offset="1" stop-color="#6952c4"></stop></linearGradient><linearGradient id="gradient-17afe2-38714328" x2="0" y2="1"><stop offset="0" stop-color="#1AC6FF"></stop><stop offset="1" stop-color="#1498c4"></stop></linearGradient><linearGradient id="gradient-92c031-119406507" x2="0" y2="1"><stop offset="0" stop-color="#A8DD38"></stop><stop offset="1" stop-color="#7ba229"></stop></linearGradient></defs><g id="1.cu_1_sy_1qf2mxitq4bnt-fill" stroke="none" fill="url(#gradient-3bc382-226276808)"><g><path d="M 58 34C 58 47.2548 47.2548 58 34 58C 20.7452 58 10 47.2548 10 34C 10 20.7452 20.7452 10 34 10C 47.2548 10 58 20.7452 58 34Z"></path></g></g></g><g id="g-root--1.cu_sy_1d3m4k6tq4d8q-fill" data-item-order="999774251" data-item-id="-1.cu_sy_1d3m4k6tq4d8q" data-item-class="Curve Stroke Part ColorStrokeBlack" data-item-index="-1" data-renderer-id="0" transform="translate(3, 230)"></g><g id="g-root-subt_zjf5autql7nr-fill" data-item-order="1000000000" data-item-id="subt_zjf5autql7nr" data-item-class="Icon Stroke Indexed InsideFill InsideColorFill" data-item-index="3" data-renderer-id="0" transform="translate(468, 221)"></g><g id="g-root-tx_aidriven_1cvhyfqtq5qtk-fill" data-item-order="1000000000" data-item-id="tx_aidriven_1cvhyfqtq5qtk" data-item-class="Label Stroke Indexed ColorStrokeGray" data-item-index="4" data-renderer-id="0" transform="translate(585, 134)"><g id="tx_aidriven_1cvhyfqtq5qtk-fill" stroke="none" fill="#A3A3A3"><g><text style="font: 20px Roboto, sans-serif; white-space: pre;" font-weight="20px" font-size="Roboto," font-family="sans-serif"><tspan x="17.42" y="33.5" dominant-baseline="ideographic">AI-driven analytics </tspan><tspan x="25.09" y="57.5" dominant-baseline="ideographic">and compliance-</tspan><tspan x="39.75" y="81.5" dominant-baseline="ideographic">ready reports</tspan></text></g></g></g><g id="g-root-1_1uontzqtq775x-fill" data-item-order="1000000000" data-item-id="1_1uontzqtq775x" data-item-class="Icon Stroke Indexed Indexed_1 InsideFill InsideColorFill" data-item-index="1" data-renderer-id="0" transform="translate(84, 257)"></g><g id="g-root-tx_automati_8xqweutq5sej-fill" data-item-order="1000000000" data-item-id="tx_automati_8xqweutq5sej" data-item-class="Label Stroke Indexed Indexed_1 ColorStrokeGray" data-item-index="1" data-renderer-id="0" transform="translate(21, 134)"><g id="tx_automati_8xqweutq5sej-fill" stroke="none" fill="#A3A3A3"><g><text style="font: 20px Roboto, sans-serif; white-space: pre;" font-weight="20px" font-size="Roboto," font-family="sans-serif"><tspan x="24.38" y="33.5" dominant-baseline="ideographic">Automation of </tspan><tspan x="29.29" y="57.5" dominant-baseline="ideographic">invoicing and </tspan><tspan x="12.64" y="81.5" dominant-baseline="ideographic">expense tracking</tspan></text></g></g></g><g id="g-root-smar_142zo9itqcs1t-fill" data-item-order="1000000000" data-item-id="smar_142zo9itqcs1t" data-item-class="Icon Stroke Indexed InsideFill InsideColorFill" data-item-index="2" data-renderer-id="0" transform="translate(255, 272)"></g><g id="g-root-tx_datatrix_mbpqxitqmmti-fill" data-item-order="1000000000" data-item-id="tx_datatrix_mbpqxitqmmti" data-item-class="Label Stroke Indexed" data-item-index="4" data-renderer-id="0" transform="translate(627, 98)"><g id="tx_datatrix_mbpqxitqmmti-fill" stroke="none" fill="#886AFF"><g><text style="font: bold 20px Roboto, sans-serif; white-space: pre;" font-weight="bold" font-size="20" font-family="Roboto, sans-serif"><tspan x="17.49" y="33.5" dominant-baseline="ideographic">Datatrixs</tspan></text></g></g></g><g id="g-root-tx_xero_1hdtspitqmm18-fill" data-item-order="1000000000" data-item-id="tx_xero_1hdtspitqmm18" data-item-class="Label Stroke Indexed" data-item-index="2" data-renderer-id="0" transform="translate(267, 62)"><g id="tx_xero_1hdtspitqmm18-fill" stroke="none" fill="#A8DD38"><g><text style="font: bold 20px Roboto, sans-serif; white-space: pre;" font-weight="bold" font-size="20" font-family="Roboto, sans-serif"><tspan x="13.24" y="33.5" dominant-baseline="ideographic">Xero</tspan></text></g></g></g><g id="g-root-line_vb391ytq5s7a-fill" data-item-order="1000000000" data-item-id="line_vb391ytq5s7a" data-item-class="Icon Stroke Indexed InsideFill InsideColorFill" data-item-index="4" data-renderer-id="0" transform="translate(699, 272)"></g><g id="g-root-docu_8z0adytqmm8a-fill" data-item-order="1000000000" data-item-id="docu_8z0adytqmm8a" data-item-class="Icon Stroke Indexed Indexed_0 InsideFill InsideColorFill" data-item-index="0" data-renderer-id="0" transform="translate(351, 314)"></g><g id="g-root-tx_advanced_zk1g2etq5seh-fill" data-item-order="1000000000" data-item-id="tx_advanced_zk1g2etq5seh" data-item-class="Label Stroke Indexed ColorStrokeGray" data-item-index="3" data-renderer-id="0" transform="translate(417, 98)"><g id="tx_advanced_zk1g2etq5seh-fill" stroke="none" fill="#A3A3A3"><g><text style="font: 20px Roboto, sans-serif; white-space: pre;" font-weight="20px" font-size="Roboto," font-family="sans-serif"><tspan x="29.46" y="33.5" dominant-baseline="ideographic">Advanced </tspan><tspan x="14.1" y="57.5" dominant-baseline="ideographic">reporting and </tspan><tspan x="28.94" y="81.5" dominant-baseline="ideographic">scalability</tspan></text></g></g></g><g id="g-root-tx_complian_hriheetq5slh-fill" data-item-order="1000000000" data-item-id="tx_complian_hriheetq5slh" data-item-class="Label Stroke Indexed ColorStrokeGray" data-item-index="7" data-renderer-id="0" transform="translate(417, 566)"><g id="tx_complian_hriheetq5slh-fill" stroke="none" fill="#A3A3A3"><g><text style="font: 20px Roboto, sans-serif; white-space: pre;" font-weight="20px" font-size="Roboto," font-family="sans-serif"><tspan x="17.83" y="33.5" dominant-baseline="ideographic">Compliance-</tspan><tspan x="18.43" y="57.5" dominant-baseline="ideographic">focused and </tspan><tspan x="16.58" y="81.5" dominant-baseline="ideographic">collaborative </tspan><tspan x="27.8" y="105.5" dominant-baseline="ideographic">workflows</tspan></text></g></g></g><g id="g-root-2_zpo2hitqjswd-fill" data-item-order="1000000000" data-item-id="2_zpo2hitqjswd" data-item-class="Icon Stroke Indexed InsideFill InsideColorFill" data-item-index="5" data-renderer-id="0" transform="translate(120, 377)"></g><g id="g-root-lock_1unephytqbc3y-fill" data-item-order="1000000000" data-item-id="lock_1unephytqbc3y" data-item-class="Icon Stroke Indexed InsideFill InsideColorFill" data-item-index="7" data-renderer-id="0" transform="translate(450, 365)"></g><g id="g-root-tx_overview_18nsmfqtq4e0z-fill" data-item-order="1000000000" data-item-id="tx_overview_18nsmfqtq4e0z" data-item-class="Label Stroke Title ColorStrokeGray" data-item-index="none" data-renderer-id="0" transform="translate(213, 2)"><g id="tx_overview_18nsmfqtq4e0z-fill" stroke="none" fill="#A3A3A3"><g><text style="font: 20px Roboto, sans-serif; white-space: pre;" font-weight="20px" font-size="Roboto," font-family="sans-serif"><tspan x="16.96" y="33.5" dominant-baseline="ideographic">Overview of Financial Reporting Tools</tspan></text></g></g></g><g id="g-root-1_1d2zqmutqid52-fill" data-item-order="1000000000" data-item-id="1_1d2zqmutqid52" data-item-class="Icon Stroke Indexed InsideFill InsideColorFill" data-item-index="8" data-renderer-id="0" transform="translate(585, 386)"></g><g id="g-root-tx_customiz_m97es6tq5qtm-fill" data-item-order="1000000000" data-item-id="tx_customiz_m97es6tq5qtm" data-item-class="Label Stroke Indexed ColorStrokeGray" data-item-index="2" data-renderer-id="0" transform="translate(207, 98)"><g id="tx_customiz_m97es6tq5qtm-fill" stroke="none" fill="#A3A3A3"><g><text style="font: 20px Roboto, sans-serif; white-space: pre;" font-weight="20px" font-size="Roboto," font-family="sans-serif"><tspan x="33.02" y="33.5" dominant-baseline="ideographic">Customizable </tspan><tspan x="21.28" y="57.5" dominant-baseline="ideographic">reports and real-</tspan><tspan x="15.31" y="81.5" dominant-baseline="ideographic">time data syncing</tspan></text></g></g></g><g id="g-root-sear_8x4ryutq4bns-fill" data-item-order="1000000000" data-item-id="sear_8x4ryutq4bns" data-item-class="Icon Stroke Indexed InsideFill InsideColorFill" data-item-index="6" data-renderer-id="0" transform="translate(279, 440)"></g><g id="g-root-tx_zohobook_58peetqmm1b-fill" data-item-order="1000000000" data-item-id="tx_zohobook_58peetqmm1b" data-item-class="Label Stroke Indexed" data-item-index="5" data-renderer-id="0" transform="translate(39, 494)"><g id="tx_zohobook_58peetqmm1b-fill" stroke="none" fill="#CD6AFB"><g><text style="font: bold 20px Roboto, sans-serif; white-space: pre;" font-weight="bold" font-size="20" font-family="Roboto, sans-serif"><tspan x="16.47" y="33.5" dominant-baseline="ideographic">Zoho Books</tspan></text></g></g></g><g id="g-root-tx_float_dhy5xytqmmmi-fill" data-item-order="1000000000" data-item-id="tx_float_dhy5xytqmmmi" data-item-class="Label Stroke Indexed" data-item-index="8" data-renderer-id="0" transform="translate(645, 494)"><g id="tx_float_dhy5xytqmmmi-fill" stroke="none" fill="#F99539"><g><text style="font: bold 20px Roboto, sans-serif; white-space: pre;" font-weight="bold" font-size="20" font-family="Roboto, sans-serif"><tspan x="17.47" y="33.5" dominant-baseline="ideographic">Float</tspan></text></g></g></g><g id="g-root-tx_affordab_1q6bzpytq5sef-fill" data-item-order="1000000000" data-item-id="tx_affordab_1q6bzpytq5sef" data-item-class="Label Stroke Indexed ColorStrokeGray" data-item-index="5" data-renderer-id="0" transform="translate(27, 530)"><g id="tx_affordab_1q6bzpytq5sef-fill" stroke="none" fill="#A3A3A3"><g><text style="font: 20px Roboto, sans-serif; white-space: pre;" font-weight="20px" font-size="Roboto," font-family="sans-serif"><tspan x="13.57" y="33.5" dominant-baseline="ideographic">Affordable and </tspan><tspan x="28.54" y="57.5" dominant-baseline="ideographic">easy-to-use </tspan><tspan x="28.58" y="81.5" dominant-baseline="ideographic">automation</tspan></text></g></g></g><g id="g-root-tx_fathom_1hfp7yutqml1k-fill" data-item-order="1000000000" data-item-id="tx_fathom_1hfp7yutqml1k" data-item-class="Label Stroke Indexed" data-item-index="6" data-renderer-id="0" transform="translate(255, 530)"><g id="tx_fathom_1hfp7yutqml1k-fill" stroke="none" fill="#F669BE"><g><text style="font: bold 20px Roboto, sans-serif; white-space: pre;" font-weight="bold" font-size="20" font-family="Roboto, sans-serif"><tspan x="12.04" y="33.5" dominant-baseline="ideographic">Fathom</tspan></text></g></g></g><g id="g-root-tx_workiva_zof7h2tqmnep-fill" data-item-order="1000000000" data-item-id="tx_workiva_zof7h2tqmnep" data-item-class="Label Stroke Indexed" data-item-index="7" data-renderer-id="0" transform="translate(441, 530)"><g id="tx_workiva_zof7h2tqmnep-fill" stroke="none" fill="#FD6A65"><g><text style="font: bold 20px Roboto, sans-serif; white-space: pre;" font-weight="bold" font-size="20" font-family="Roboto, sans-serif"><tspan x="15.77" y="33.5" dominant-baseline="ideographic">Workiva</tspan></text></g></g></g><g id="g-root-tx_realtime_v2yzrqtq5r0k-fill" data-item-order="1000000000" data-item-id="tx_realtime_v2yzrqtq5r0k" data-item-class="Label Stroke Indexed ColorStrokeGray" data-item-index="8" data-renderer-id="0" transform="translate(591, 530)"><g id="tx_realtime_v2yzrqtq5r0k-fill" stroke="none" fill="#A3A3A3"><g><text style="font: 20px Roboto, sans-serif; white-space: pre;" font-weight="20px" font-size="Roboto," font-family="sans-serif"><tspan x="28.34" y="33.5" dominant-baseline="ideographic">Real-time cash </tspan><tspan x="13.71" y="57.5" dominant-baseline="ideographic">flow management</tspan></text></g></g></g><g id="g-root-tx_datavisu_4gog46tq5r0m-fill" data-item-order="1000000000" data-item-id="tx_datavisu_4gog46tq5r0m" data-item-class="Label Stroke Indexed ColorStrokeGray" data-item-index="6" data-renderer-id="0" transform="translate(207, 566)"><g id="tx_datavisu_4gog46tq5r0m-fill" stroke="none" fill="#A3A3A3"><g><text style="font: 20px Roboto, sans-serif; white-space: pre;" font-weight="20px" font-size="Roboto," font-family="sans-serif"><tspan x="71.93" y="33.5" dominant-baseline="ideographic">Data </tspan><tspan x="12.86" y="57.5" dominant-baseline="ideographic">visualizations and </tspan><tspan x="39.11" y="81.5" dominant-baseline="ideographic">KPI tracking</tspan></text></g></g></g><g id="g-root-tx_quickboo_4j6s9itqmn0j-fill" data-item-order="1000000000" data-item-id="tx_quickboo_4j6s9itqmn0j" data-item-class="Label Stroke Indexed Indexed_1" data-item-index="1" data-renderer-id="0" transform="translate(39, 98)"><g id="tx_quickboo_4j6s9itqmn0j-fill" stroke="none" fill="#44E095"><g><text style="font: bold 20px Roboto, sans-serif; white-space: pre;" font-weight="bold" font-size="20" font-family="Roboto, sans-serif"><tspan x="16.12" y="33.5" dominant-baseline="ideographic">QuickBooks</tspan></text></g></g></g><g id="g-root-tx_netsuite_zn69autqml8l-fill" data-item-order="1000000000" data-item-id="tx_netsuite_zn69autqml8l" data-item-class="Label Stroke Indexed" data-item-index="3" data-renderer-id="0" transform="translate(441, 62)"><g id="tx_netsuite_zn69autqml8l-fill" stroke="none" fill="#1AC6FF"><g><text style="font: bold 20px Roboto, sans-serif; white-space: pre;" font-weight="bold" font-size="20" font-family="Roboto, sans-serif"><tspan x="12.98" y="33.5" dominant-baseline="ideographic">NetSuite</tspan></text></g></g></g><g id="g-root-1.cu_sy_1lxdpjqtq4dfl-stroke" data-item-order="999774214" data-item-id="1.cu_sy_1lxdpjqtq4dfl" data-item-class="Part Indexed Indexed_1 Fill Stroke" data-item-index="1" data-renderer-id="0" transform="translate(315, 278)"><g id="1.cu_sy_1lxdpjqtq4dfl-stroke" fill="none" stroke-linecap="round" stroke-linejoin="round" stroke-miterlimit="4" stroke="#ffffff" stroke-width="2"><g><path d="M 153.9711 84.0587C 153.9903 83.3748 154 82.6885 154 82C 154 42.2355 121.7645 10 82 10C 42.2355 10 10 42.2355 10 82C 10 121.7645 42.2355 154 82 154C 101.9917 154 120.0804 145.8521 133.1264 132.696C 131.1173 128.2086 130 123.2348 130 118C 130 102.3362 140.0039 89.0089 153.9711 84.0587Z"></path></g></g></g><g id="g-root-8.cu_sy_1d1qpautq4e8a-stroke" data-item-order="999774218" data-item-id="8.cu_sy_1d1qpautq4e8a" data-item-class="Part Indexed Fill Stroke" data-item-index="8" data-renderer-id="0" transform="translate(567, 368)"><g id="8.cu_sy_1d1qpautq4e8a-stroke" fill="none" stroke-linecap="round" stroke-linejoin="round" stroke-miterlimit="4" stroke="#ffffff" stroke-width="2"><g><path d="M 94 52C 94 75.196 75.196 94 52 94C 28.804 94 10 75.196 10 52C 10 28.804 28.804 10 52 10C 75.196 10 94 28.804 94 52Z"></path></g></g></g><g id="g-root-7.cu_sy_18mjo9itq4bur-stroke" data-item-order="999774222" data-item-id="7.cu_sy_18mjo9itq4bur" data-item-class="Part Indexed Fill Stroke" data-item-index="7" data-renderer-id="0" transform="translate(435, 350)"><g id="7.cu_sy_18mjo9itq4bur-stroke" fill="none" stroke-linecap="round" stroke-linejoin="round" stroke-miterlimit="4" stroke="#ffffff" stroke-width="2"><g><path d="M 82 46C 82 65.8823 65.8823 82 46 82C 26.1177 82 10 65.8823 10 46C 10 26.1177 26.1177 10 46 10C 65.8823 10 82 26.1177 82 46Z"></path></g></g></g><g id="g-root-6.cu_sy_vb35w6tq4dfo-stroke" data-item-order="999774226" data-item-id="6.cu_sy_vb35w6tq4dfo" data-item-class="Part Indexed Fill Stroke" data-item-index="6" data-renderer-id="0" transform="translate(261, 422)"><g id="6.cu_sy_vb35w6tq4dfo-stroke" fill="none" stroke-linecap="round" stroke-linejoin="round" stroke-miterlimit="4" stroke="#ffffff" stroke-width="2"><g><path d="M 94 52C 94 75.196 75.196 94 52 94C 28.804 94 10 75.196 10 52C 10 28.804 28.804 10 52 10C 75.196 10 94 28.804 94 52Z"></path></g></g></g><g id="g-root-5.cu_sy_mfg5natq4e8d-stroke" data-item-order="999774230" data-item-id="5.cu_sy_mfg5natq4e8d" data-item-class="Part Indexed Fill Stroke" data-item-index="5" data-renderer-id="0" transform="translate(105, 362)"><g id="5.cu_sy_mfg5natq4e8d-stroke" fill="none" stroke-linecap="round" stroke-linejoin="round" stroke-miterlimit="4" stroke="#ffffff" stroke-width="2"><g><path d="M 82 46C 82 65.8823 65.8823 82 46 82C 26.1177 82 10 65.8823 10 46C 10 26.1177 26.1177 10 46 10C 65.8823 10 82 26.1177 82 46Z"></path></g></g></g><g id="g-root-4.cu_sy_i094lytq4buu-stroke" data-item-order="999774234" data-item-id="4.cu_sy_i094lytq4buu" data-item-class="Part Indexed Fill Stroke" data-item-index="4" data-renderer-id="0" transform="translate(687, 260)"><g id="4.cu_sy_i094lytq4buu-stroke" fill="none" stroke-linecap="round" stroke-linejoin="round" stroke-miterlimit="4" stroke="#ffffff" stroke-width="2"><g><path d="M 70 40C 70 56.5685 56.5685 70 40 70C 23.4315 70 10 56.5685 10 40C 10 23.4315 23.4315 10 40 10C 56.5685 10 70 23.4315 70 40Z"></path></g></g></g><g id="g-root-3.cu_sy_4osm8mtq4dfr-stroke" data-item-order="999774238" data-item-id="3.cu_sy_4osm8mtq4dfr" data-item-class="Part Indexed Fill Stroke" data-item-index="3" data-renderer-id="0" transform="translate(459, 212)"><g id="3.cu_sy_4osm8mtq4dfr-stroke" fill="none" stroke-linecap="round" stroke-linejoin="round" stroke-miterlimit="4" stroke="#ffffff" stroke-width="2"><g><path d="M 58 34C 58 47.2548 47.2548 58 34 58C 20.7452 58 10 47.2548 10 34C 10 20.7452 20.7452 10 34 10C 47.2548 10 58 20.7452 58 34Z"></path></g></g></g><g id="g-root-2.cu_sy_8z446tq4e80-stroke" data-item-order="999774242" data-item-id="2.cu_sy_8z446tq4e80" data-item-class="Part Indexed Fill Stroke" data-item-index="2" data-renderer-id="0" transform="translate(243, 260)"><g id="2.cu_sy_8z446tq4e80-stroke" fill="none" stroke-linecap="round" stroke-linejoin="round" stroke-miterlimit="4" stroke="#ffffff" stroke-width="2"><g><path d="M 70 40C 70 56.5685 56.5685 70 40 70C 23.4315 70 10 56.5685 10 40C 10 23.4315 23.4315 10 40 10C 56.5685 10 70 23.4315 70 40Z"></path></g></g></g><g id="g-root-1.cu_1_sy_1qf2mxitq4bnt-stroke" data-item-order="999774246" data-item-id="1.cu_1_sy_1qf2mxitq4bnt" data-item-class="Part Indexed Indexed_1 Fill Stroke" data-item-index="1" data-renderer-id="0" transform="translate(75, 248)"><g id="1.cu_1_sy_1qf2mxitq4bnt-stroke" fill="none" stroke-linecap="round" stroke-linejoin="round" stroke-miterlimit="4" stroke="#ffffff" stroke-width="2"><g><path d="M 58 34C 58 47.2548 47.2548 58 34 58C 20.7452 58 10 47.2548 10 34C 10 20.7452 20.7452 10 34 10C 47.2548 10 58 20.7452 58 34Z"></path></g></g></g><g id="g-root--1.cu_sy_1d3m4k6tq4d8q-stroke" data-item-order="999774251" data-item-id="-1.cu_sy_1d3m4k6tq4d8q" data-item-class="Curve Stroke Part ColorStrokeBlack" data-item-index="-1" data-renderer-id="0" transform="translate(3, 230)"><g id="-1.cu_sy_1d3m4k6tq4d8q-stroke" fill="none" stroke-linecap="round" stroke-linejoin="round" stroke-miterlimit="4" stroke="#FFFFFF" stroke-width="2" stroke-dasharray="5.0, 7.0"><g><path d="M 353.5534 249.3423C 366.8455 249.7771 380.3395 250 394 250C 465.7321 250 532.8704 243.8536 590.3161 233.1541C 608.5066 229.7661 626.4583 225.702 644.342 220.996C 726.1787 198.9892 778 166.3858 778 130C 778 114.4928 768.5874 99.6726 751.4501 86.0669M 349.4054 224.8561C 363.9393 225.6092 378.8327 226 394 226C 462.4661 226 525.3523 218.0363 574.7764 204.7363M 266.0394 243.1761C 116.8742 226.7061 10 182.2534 10 130C 10 103.9903 36.4799 79.9132 81.4748 60.258M 274.9966 217.447C 239.5162 212.0736 207.8828 204.3714 181.8529 194.9261M 441.2187 174.6388C 426.9768 176.4861 409.8369 178.1689 394 178.1689C 378.057 178.1689 348.9537 174.8564 336.3949 173.2002C 292.3567 165.4209 262 148.9996 262 130C 262 111.3824 291.1484 95.2404 333.7557 87.2794M 512.8427 150.9158C 521.2727 144.5938 526 137.4976 526 130C 526 111.3962 496.8949 95.2644 454.3394 87.2971M 655.1953 170.4978C 672.3954 158.1928 682 144.4703 682 130C 682 89.2672 605.8949 54.4596 498.4973 40.5145L 476.1651 37.9635C 450.1279 35.3847 422.5491 34 394 34C 357.8595 34 323.2737 36.219 291.4021 40.2705M 695.4458 55.6549C 649.6195 37.534 587.4186 23.6435 515.8227 16.1645M 411.0136 58.2468C 515.7191 61.298 598 92.2576 598 130C 598 155.4214 560.6716 177.7656 504.3052 190.5774C 489.2845 194.5778 472.4959 196.8958 461.4386 197.9728C 440.3285 200.5816 417.6336 202 394 202C 281.3339 202 190 169.7645 190 130C 190 110.184 212.6816 92.2377 249.3818 79.2187M 376.9865 58.2468C 353.7419 58.9242 331.6024 60.977 311.2231 64.1741M 260.2463 44.9591C 168.5439 61.0178 106 93.0742 106 130C 106 139.1193 109.8146 147.9416 116.9409 156.2993M 464.4268 12.0137C 441.596 10.6913 418.0564 10 394 10C 291.8269 10 198.9738 22.47 130.1755 42.8056"></path></g></g></g><g id="g-root-subt_zjf5autql7nr-stroke" data-item-order="1000000000" data-item-id="subt_zjf5autql7nr" data-item-class="Icon Stroke Indexed InsideFill InsideColorFill" data-item-index="3" data-renderer-id="0" transform="translate(468, 221)"><g id="subt_zjf5autql7nr-stroke" fill="none" stroke-linecap="round" stroke-linejoin="round" stroke-miterlimit="4" stroke="#FFFFFF" stroke-width="2"><g><path d="M 31.776249 39.365002C 35.972923 39.365002 39.375 35.962925 39.375 31.766251C 39.375 27.569576 35.972923 24.167501 31.776249 24.167501C 27.579576 24.167501 24.1775 27.569576 24.1775 31.766251C 24.1775 35.962925 27.579576 39.365002 31.776249 39.365002ZM 28.125 31.766251L 35.420002 31.766251M 10.625 15.684999L 35.235001 15.684999M 10.625 26.434999L 22.502501 26.434999M 10.625 21.068748L 35.228752 21.068748M 20.6775 15.684999L 20.6775 31.997499M 27.883751 15.684999L 27.883751 22.436251M 21.56625 32L 13.22125 32C 12.533689 32 11.874344 31.726612 11.388516 31.240082C 10.902689 30.753551 10.630255 30.093811 10.63125 29.40625L 10.63125 13.22375C 10.63194 11.79382 11.791321 10.635 13.221251 10.635L 32.639999 10.635C 34.069725 10.635 35.228752 11.794023 35.228752 13.22375L 35.228752 22.52125"></path></g></g></g><g id="g-root-tx_aidriven_1cvhyfqtq5qtk-stroke" data-item-order="1000000000" data-item-id="tx_aidriven_1cvhyfqtq5qtk" data-item-class="Label Stroke Indexed ColorStrokeGray" data-item-index="4" data-renderer-id="0" transform="translate(585, 134)"></g><g id="g-root-1_1uontzqtq775x-stroke" data-item-order="1000000000" data-item-id="1_1uontzqtq775x" data-item-class="Icon Stroke Indexed Indexed_1 InsideFill InsideColorFill" data-item-index="1" data-renderer-id="0" transform="translate(84, 257)"><g id="1_1uontzqtq775x-stroke" fill="none" stroke-linecap="round" stroke-linejoin="round" stroke-miterlimit="4" stroke="#FFFFFF" stroke-width="2"><g><path d="M 18.55875 27.58625L 20.0525 30.366249M 27.13875 16.932501L 33.028751 27.893749M 32.393753 26.7125L 19.692501 29.695L 18.9 28.221249L 27.905001 18.3575L 32.393753 26.7125ZM 22.436251 29.05125L 23.137501 30.32C 23.369761 30.771175 23.777817 31.106585 24.265419 31.247116C 24.753019 31.387646 25.276993 31.320858 25.713749 31.062498C 26.632231 30.497723 26.950771 29.314577 26.439999 28.365L 26.315001 28.141249M 23.1425 12.78125C 23.616581 13.307542 24.291666 13.608022 25 13.608022C 25.708334 13.608022 26.383419 13.307542 26.8575 12.78125L 28.059999 11.45125C 28.768265 10.661479 29.89785 10.404702 30.877934 10.81068C 31.858015 11.216658 32.475159 12.19698 32.4175 13.25625L 32.326248 15.04625C 32.289936 15.752952 32.554817 16.441938 33.055187 16.94231C 33.555561 17.442684 34.244549 17.707563 34.951252 17.671249L 36.75 17.5825C 37.809269 17.524839 38.789593 18.141985 39.195572 19.122066C 39.601547 20.10215 39.344772 21.231735 38.555 21.940001L 37.225002 23.1425C 36.698708 23.616581 36.398232 24.291666 36.398232 25C 36.398232 25.708334 36.698708 26.383419 37.225002 26.8575L 38.555 28.059999C 39.344772 28.768265 39.601547 29.89785 39.195572 30.877934C 38.789593 31.858015 37.809269 32.475159 36.75 32.4175L 34.959999 32.326248C 34.2533 32.289936 33.564312 32.554817 33.063938 33.055187C 32.563568 33.555561 32.298687 34.244549 32.334999 34.951252L 32.42625 36.741249C 32.48391 37.800518 31.866764 38.780842 30.886684 39.186821C 29.906601 39.592796 28.777016 39.336021 28.06875 38.546249L 26.866249 37.216251C 26.39217 36.689957 25.717083 36.389481 25.008751 36.389481C 24.300417 36.389481 23.625332 36.689957 23.151249 37.216251L 21.94875 38.546249C 21.242926 39.341732 20.111101 39.603615 19.127602 39.199009C 18.144098 38.794399 17.524218 37.811878 17.5825 36.75L 17.67375 34.959999C 17.710064 34.2533 17.445183 33.564312 16.944811 33.063938C 16.444439 32.563568 15.755451 32.298687 15.04875 32.334999L 13.25875 32.42625C 12.199479 32.48391 11.219158 31.866764 10.81318 30.886684C 10.407203 29.906601 10.663979 28.777016 11.45375 28.06875L 12.78375 26.866249C 13.310041 26.39217 13.610521 25.717083 13.610521 25.008751C 13.610521 24.300417 13.310041 23.625332 12.78375 23.151249L 11.45125 21.940001C 10.661479 21.231735 10.404702 20.10215 10.81068 19.122066C 11.216658 18.141985 12.19698 17.524839 13.25625 17.5825L 15.04625 17.67375C 15.752952 17.710064 16.441938 17.445183 16.94231 16.944811C 17.442684 16.444439 17.707563 15.755451 17.671249 15.04875L 17.5825 13.25625C 17.524839 12.19698 18.141985 11.216658 19.122066 10.81068C 20.10215 10.404702 21.231735 10.661479 21.940001 11.45125Z"></path></g></g></g><g id="g-root-tx_automati_8xqweutq5sej-stroke" data-item-order="1000000000" data-item-id="tx_automati_8xqweutq5sej" data-item-class="Label Stroke Indexed Indexed_1 ColorStrokeGray" data-item-index="1" data-renderer-id="0" transform="translate(21, 134)"></g><g id="g-root-smar_142zo9itqcs1t-stroke" data-item-order="1000000000" data-item-id="smar_142zo9itqcs1t" data-item-class="Icon Stroke Indexed InsideFill InsideColorFill" data-item-index="2" data-renderer-id="0" transform="translate(255, 272)"><g id="smar_142zo9itqcs1t-stroke" fill="none" stroke-linecap="round" stroke-linejoin="round" stroke-miterlimit="4" stroke="#FFFFFF" stroke-width="2"><g><path d="M 20.519501 31.888L 18.8785 31.888C 17.671482 31.888 16.693001 30.909519 16.693001 29.702499L 16.693001 29.702499L 16.693001 29.155001M 25.2145 44.650002L 15.3475 44.650002C 12.850277 44.650826 10.825671 42.626221 10.8265 40.129002L 10.8265 15.2695C 10.8265 12.772863 12.850863 10.749171 15.3475 10.75L 28.900002 10.75C 31.396637 10.749171 33.420998 12.772863 33.420998 15.2695L 33.421001 19.790501M 10.8265 37.869999L 22.337502 37.869999M 17.2915 29.155001L 16.661499 29.155001C 15.363388 29.241896 14.237636 28.266735 14.1385 26.9695L 14.1385 24.782499C 14.239189 23.486465 15.364471 22.51305 16.661499 22.599998L 17.2915 22.599998C 17.614298 22.582567 17.892876 22.824001 17.921501 23.146L 17.921501 28.612C 17.891367 28.9328 17.613235 29.172523 17.2915 29.155001ZM 27.908501 29.155001L 27.25 29.155001C 26.918669 29.182871 26.626225 28.939837 26.592999 28.608999L 26.593 23.143C 26.627741 22.813368 26.919722 22.572048 27.25 22.599998L 27.907 22.599998C 29.232592 22.489384 30.402086 23.46196 30.535 24.7855L 30.535 26.9725C 30.400564 28.294205 29.232475 29.264832 27.908501 29.155001ZM 16.323999 22.599998C 16.322342 19.277664 19.015163 16.5835 22.3375 16.5835L 22.337502 16.5835C 25.65925 16.584328 28.351156 19.27825 28.349499 22.599998M 30.849998 45.25L 27.078999 41.008003C 26.289095 40.138153 26.353901 38.792656 27.223751 38.00275C 28.093597 37.212845 29.439096 37.277653 30.229 38.147503L 30.262001 38.185001L 32.9035 41.157997L 32.9035 28.879002C 32.933517 27.770185 33.84103 26.886913 34.950253 26.886913C 36.059471 26.886913 36.96698 27.770185 36.997002 28.879002L 36.996998 38.087502L 39.042999 38.087502C 42.433411 38.088326 45.181671 40.83659 45.182499 44.226997L 45.182499 45.25"></path></g></g></g><g id="g-root-tx_datatrix_mbpqxitqmmti-stroke" data-item-order="1000000000" data-item-id="tx_datatrix_mbpqxitqmmti" data-item-class="Label Stroke Indexed" data-item-index="4" data-renderer-id="0" transform="translate(627, 98)"></g><g id="g-root-tx_xero_1hdtspitqmm18-stroke" data-item-order="1000000000" data-item-id="tx_xero_1hdtspitqmm18" data-item-class="Label Stroke Indexed" data-item-index="2" data-renderer-id="0" transform="translate(267, 62)"></g><g id="g-root-line_vb391ytq5s7a-stroke" data-item-order="1000000000" data-item-id="line_vb391ytq5s7a" data-item-class="Icon Stroke Indexed InsideFill InsideColorFill" data-item-index="4" data-renderer-id="0" transform="translate(699, 272)"><g id="line_vb391ytq5s7a-stroke" fill="none" stroke-linecap="round" stroke-linejoin="round" stroke-miterlimit="4" stroke="#FFFFFF" stroke-width="2"><g><path d="M 12.256 15.25L 43.756001 15.25C 43.756001 15.25 45.256001 15.25 45.256001 16.75L 45.256001 39.25C 45.256001 39.25 45.256001 40.75 43.756001 40.75L 12.256 40.75C 12.256 40.75 10.756 40.75 10.756 39.25L 10.756 16.75C 10.756 16.75 10.756 15.25 12.256 15.25M 16.75 33.25L 20.606501 26.8225C 20.741955 26.596237 20.986288 26.457737 21.25 26.457737C 21.513712 26.457737 21.758045 26.596237 21.893499 26.8225L 25.213001 32.349998C 25.337925 32.558418 25.556082 32.693398 25.798347 32.712173C 26.040611 32.730946 26.276958 32.631184 26.432499 32.4445L 28.93 29.4445C 29.072496 29.273624 29.283506 29.174837 29.506001 29.174837C 29.728495 29.174837 29.939503 29.273624 30.081999 29.4445L 32.564499 32.4235C 32.721825 32.612133 32.961548 32.711777 33.20623 32.690239C 33.450916 32.668701 33.669548 32.528717 33.7915 32.315498L 39.25 22.75"></path></g></g></g><g id="g-root-docu_8z0adytqmm8a-stroke" data-item-order="1000000000" data-item-id="docu_8z0adytqmm8a" data-item-class="Icon Stroke Indexed Indexed_0 InsideFill InsideColorFill" data-item-index="0" data-renderer-id="0" transform="translate(351, 314)"><g id="docu_8z0adytqmm8a-stroke" fill="none" stroke-linecap="round" stroke-linejoin="round" stroke-miterlimit="4" stroke="#FFFFFF" stroke-width="2"><g><path d="M 34 64L 58.75 64M 34 52L 34 37M 31 37L 37 37M 43 52L 43 40C 43 38.343143 44.343143 37 46 37C 47.656857 37 49 38.343143 49 40L 49 52M 43 46L 49 46M 55 37L 61 52M 61 37L 55 52M 71.5 80.5C 73.156853 80.5 74.5 79.156853 74.5 77.5L 74.5 29.424999C 74.5 19.525295 66.474701 11.5 56.574997 11.5L 20.5 11.5C 18.843145 11.5 17.5 12.843145 17.5 14.5L 17.5 77.5C 17.5 79.156853 18.843145 80.5 20.5 80.5ZM 59.5 11.74L 59.5 23.5C 59.5 25.156855 60.843147 26.5 62.5 26.5L 74.260002 26.5"></path></g></g></g><g id="g-root-tx_advanced_zk1g2etq5seh-stroke" data-item-order="1000000000" data-item-id="tx_advanced_zk1g2etq5seh" data-item-class="Label Stroke Indexed ColorStrokeGray" data-item-index="3" data-renderer-id="0" transform="translate(417, 98)"></g><g id="g-root-tx_complian_hriheetq5slh-stroke" data-item-order="1000000000" data-item-id="tx_complian_hriheetq5slh" data-item-class="Label Stroke Indexed ColorStrokeGray" data-item-index="7" data-renderer-id="0" transform="translate(417, 566)"></g><g id="g-root-2_zpo2hitqjswd-stroke" data-item-order="1000000000" data-item-id="2_zpo2hitqjswd" data-item-class="Icon Stroke Indexed InsideFill InsideColorFill" data-item-index="5" data-renderer-id="0" transform="translate(120, 377)"><g id="2_zpo2hitqjswd-stroke" fill="none" stroke-linecap="round" stroke-linejoin="round" stroke-miterlimit="4" stroke="#FFFFFF" stroke-width="2"><g><path d="M 28.556999 10.875C 27.590502 10.875 26.806999 11.658502 26.806999 12.625L 26.806999 20.878L 20.9725 15.04175C 20.289125 14.358582 19.181376 14.358582 18.497999 15.04175L 15.04175 18.49625C 14.358582 19.179625 14.358582 20.287374 15.04175 20.970751L 20.878 26.806999L 12.625 26.806999C 11.658502 26.806999 10.875 27.590502 10.875 28.556999L 10.875 33.443001C 10.875 34.4095 11.658502 35.193001 12.625 35.193001L 20.878 35.193001L 15.04175 41.0275C 14.358582 41.710876 14.358582 42.818626 15.04175 43.501999L 18.49625 46.956501C 19.179625 47.639671 20.287374 47.639671 20.970751 46.956501L 26.806999 41.120251L 26.806999 49.375C 26.806999 50.341499 27.590502 51.125 28.556999 51.125L 33.443001 51.125C 34.4095 51.125 35.193001 50.341499 35.193001 49.375L 35.193001 41.122002L 41.0275 46.958248C 41.355743 47.286861 41.801159 47.4715 42.265625 47.4715C 42.730091 47.4715 43.175507 47.286861 43.50375 46.958248L 46.958248 43.50375C 47.286861 43.175507 47.4715 42.730091 47.4715 42.265625C 47.4715 41.801159 47.286861 41.355743 46.958248 41.0275L 41.122002 35.193001L 49.375 35.193001C 50.341499 35.193001 51.125 34.4095 51.125 33.443001L 51.125 28.556999C 51.125 27.590502 50.341499 26.806999 49.375 26.806999L 41.122002 26.806999L 46.960003 20.9725C 47.288612 20.644257 47.473251 20.198841 47.473251 19.734375C 47.473251 19.269909 47.288612 18.824493 46.960003 18.49625L 43.505501 15.04175C 43.177254 14.71314 42.731842 14.528498 42.267372 14.528498C 41.802906 14.528498 41.357494 14.71314 41.029251 15.04175L 35.194752 20.878L 35.194752 12.625C 35.194752 11.658502 34.411247 10.875 33.444752 10.875L 28.55875 10.875ZM 31 25.96875C 28.12475 25.96875 26.688 26.686249 26.688 26.686249C 26.688 26.686249 25.96875 28.12475 25.96875 31C 25.96875 33.875248 26.686249 35.312 26.686249 35.312C 26.686249 35.312 28.844 36.03125 31 36.03125C 33.156002 36.03125 35.312 35.313751 35.312 35.313751C 35.312 35.313751 36.03125 33.875248 36.03125 31C 36.03125 28.12475 35.313751 26.688 35.313751 26.688C 35.313751 26.688 33.875248 25.96875 31 25.96875Z"></path></g></g></g><g id="g-root-lock_1unephytqbc3y-stroke" data-item-order="1000000000" data-item-id="lock_1unephytqbc3y" data-item-class="Icon Stroke Indexed InsideFill InsideColorFill" data-item-index="7" data-renderer-id="0" transform="translate(450, 365)"><g id="lock_1unephytqbc3y-stroke" fill="none" stroke-linecap="round" stroke-linejoin="round" stroke-miterlimit="4" stroke="#FFFFFF" stroke-width="2"><g><path d="M 32.335251 41.058998L 14.70575 41.058998C 12.686169 41.057068 11.049999 39.419331 11.05 37.39975L 11.05 14.53425C 11.049999 12.514668 12.686169 10.876932 14.70575 10.875L 42.145748 10.875C 44.166016 10.875966 45.803253 12.513986 45.803253 14.53425L 45.803249 25.62225M 11.0465 18.02025L 45.803249 18.02025M 11.0465 33.2015L 32.335251 33.2015M 11.0465 25.62225L 45.803249 25.62225M 25.2425 18.02025L 25.2425 41.058998M 35.420502 18.02025L 35.420502 30.30525M 35.963001 40.716C 35.962997 39.278816 37.128067 38.11375 38.56525 38.11375L 48.35125 38.11375C 49.787064 38.115681 50.950001 39.280182 50.950001 40.716L 50.950001 48.522751C 50.950001 49.958569 49.787064 51.123066 48.35125 51.125L 38.56525 51.125C 37.128067 51.125 35.962997 49.959934 35.962997 48.522751ZM 43.458248 30.300001L 43.458248 30.300001C 40.641766 30.358362 38.405365 32.687981 38.461998 35.504498L 38.461998 38.108501L 48.454502 38.108501L 48.454502 35.50975C 48.51408 32.6912 46.276825 30.358345 43.458248 30.299999ZM 43.458248 42.796749C 42.689552 42.76532 41.978912 43.204254 41.662872 43.905682C 41.346832 44.607113 41.488838 45.430222 42.021641 45.985203C 42.554447 46.540184 43.371082 46.715626 44.084808 46.428436C 44.798538 46.141251 45.266075 45.449093 45.265999 44.679752C 45.286503 43.660679 44.477303 42.817799 43.458248 42.796749L 43.458248 42.796749"></path></g></g></g><g id="g-root-tx_overview_18nsmfqtq4e0z-stroke" data-item-order="1000000000" data-item-id="tx_overview_18nsmfqtq4e0z" data-item-class="Label Stroke Title ColorStrokeGray" data-item-index="none" data-renderer-id="0" transform="translate(213, 2)"></g><g id="g-root-1_1d2zqmutqid52-stroke" data-item-order="1000000000" data-item-id="1_1d2zqmutqid52" data-item-class="Icon Stroke Indexed InsideFill InsideColorFill" data-item-index="8" data-renderer-id="0" transform="translate(585, 386)"><g id="1_1d2zqmutqid52-stroke" fill="none" stroke-linecap="round" stroke-linejoin="round" stroke-miterlimit="4" stroke="#FFFFFF" stroke-width="2"><g><path d="M 21.007999 11L 47.007999 11C 47.007999 11 52.007999 11 52.007999 16L 52.007999 52C 52.007999 52 52.007999 57 47.007999 57L 21.007999 57C 21.007999 57 16.007999 57 16.007999 52L 16.007999 16C 16.007999 16 16.007999 11 21.007999 11M 16.007999 41L 52.007999 41M 16.007999 27L 52.007999 27M 34.007999 27L 34.007999 57M 21.007999 35L 27.007999 35M 40.007999 35L 46.007999 35M 40.007999 51L 46.007999 51M 40.007999 47L 46.007999 47M 24.007999 32L 24.007999 38M 21.007999 46L 27.007999 52M 27.007999 46L 21.007999 52M 44.009998 21L 44.009998 17"></path></g></g></g><g id="g-root-tx_customiz_m97es6tq5qtm-stroke" data-item-order="1000000000" data-item-id="tx_customiz_m97es6tq5qtm" data-item-class="Label Stroke Indexed ColorStrokeGray" data-item-index="2" data-renderer-id="0" transform="translate(207, 98)"></g><g id="g-root-sear_8x4ryutq4bns-stroke" data-item-order="1000000000" data-item-id="sear_8x4ryutq4bns" data-item-class="Icon Stroke Indexed InsideFill InsideColorFill" data-item-index="6" data-renderer-id="0" transform="translate(279, 440)"><g id="sear_8x4ryutq4bns-stroke" fill="none" stroke-linecap="round" stroke-linejoin="round" stroke-miterlimit="4" stroke="#FFFFFF" stroke-width="2"><g><path d="M 31.042 57.021999L 13.042 57.021999C 11.93743 57.021999 11.042 56.126568 11.042 55.021999L 11.042 13.022C 11.042 11.917431 11.93743 11.022 13.042 11.022L 39.627998 11.022C 40.157242 11.019989 40.66571 11.227833 41.042 11.6L 48.456001 19.014C 48.8311 19.388985 49.041885 19.89761 49.042 20.428001L 49.042 27.021999M 19.042 37.84L 24.950001 31.931999C 25.532717 31.350485 26.4445 31.260143 27.130001 31.716002L 29.916 33.573997C 30.618618 34.041878 31.556442 33.93364 32.134003 33.318001L 37.610001 27.476M 19.042 23.021999L 19.042 43.021999L 29.042 43.021999M 35.043999 44.080002C 35.043999 49.082596 39.099403 53.138 44.101997 53.138C 49.104595 53.138 53.16 49.082596 53.16 44.079998C 53.16 39.077404 49.104595 35.021999 44.101997 35.021999C 39.099403 35.021999 35.043999 39.077404 35.043999 44.079998ZM 57.042 57.021999L 50.548 50.526001"></path></g></g></g><g id="g-root-tx_zohobook_58peetqmm1b-stroke" data-item-order="1000000000" data-item-id="tx_zohobook_58peetqmm1b" data-item-class="Label Stroke Indexed" data-item-index="5" data-renderer-id="0" transform="translate(39, 494)"></g><g id="g-root-tx_float_dhy5xytqmmmi-stroke" data-item-order="1000000000" data-item-id="tx_float_dhy5xytqmmmi" data-item-class="Label Stroke Indexed" data-item-index="8" data-renderer-id="0" transform="translate(645, 494)"></g><g id="g-root-tx_affordab_1q6bzpytq5sef-stroke" data-item-order="1000000000" data-item-id="tx_affordab_1q6bzpytq5sef" data-item-class="Label Stroke Indexed ColorStrokeGray" data-item-index="5" data-renderer-id="0" transform="translate(27, 530)"></g><g id="g-root-tx_fathom_1hfp7yutqml1k-stroke" data-item-order="1000000000" data-item-id="tx_fathom_1hfp7yutqml1k" data-item-class="Label Stroke Indexed" data-item-index="6" data-renderer-id="0" transform="translate(255, 530)"></g><g id="g-root-tx_workiva_zof7h2tqmnep-stroke" data-item-order="1000000000" data-item-id="tx_workiva_zof7h2tqmnep" data-item-class="Label Stroke Indexed" data-item-index="7" data-renderer-id="0" transform="translate(441, 530)"></g><g id="g-root-tx_realtime_v2yzrqtq5r0k-stroke" data-item-order="1000000000" data-item-id="tx_realtime_v2yzrqtq5r0k" data-item-class="Label Stroke Indexed ColorStrokeGray" data-item-index="8" data-renderer-id="0" transform="translate(591, 530)"></g><g id="g-root-tx_datavisu_4gog46tq5r0m-stroke" data-item-order="1000000000" data-item-id="tx_datavisu_4gog46tq5r0m" data-item-class="Label Stroke Indexed ColorStrokeGray" data-item-index="6" data-renderer-id="0" transform="translate(207, 566)"></g><g id="g-root-tx_quickboo_4j6s9itqmn0j-stroke" data-item-order="1000000000" data-item-id="tx_quickboo_4j6s9itqmn0j" data-item-class="Label Stroke Indexed Indexed_1" data-item-index="1" data-renderer-id="0" transform="translate(39, 98)"></g><g id="g-root-tx_netsuite_zn69autqml8l-stroke" data-item-order="1000000000" data-item-id="tx_netsuite_zn69autqml8l" data-item-class="Label Stroke Indexed" data-item-index="3" data-renderer-id="0" transform="translate(441, 62)"></g></g></g></svg>