<svg width="400" height="400" viewBox="0 0 400 400" fill="none" xmlns="http://www.w3.org/2000/svg">
<path d="M133.841 74.543C123.737 77.343 115.233 85.367 111.841 95.287C108.449 105.207 110.273 116.759 117.465 125.623C125.841 133.655 135.649 140.023 145.393 146.335C151.185 150.095 156.993 153.855 163.489 157.639C182.465 169.503 202.305 179.975 223.041 188.895C231.209 193.351 239.737 197.167 248.649 200.103C252.001 198.351 254.433 195.271 256.761 192.279C258.865 189.583 260.961 186.879 262.809 183.999C266.289 178.583 268.841 172.551 270.153 166.071C267.937 163.479 265.601 160.983 263.177 158.575C255.593 151.079 247.065 144.591 239.145 137.127C235.673 134.895 232.417 132.343 229.505 129.175C224.561 125.951 219.865 122.383 215.153 118.831C207.561 113.111 199.913 107.431 191.777 102.271C188.225 99.855 184.489 97.719 180.761 95.591C178.153 94.103 175.553 92.615 172.937 91.127C171.209 90.143 169.489 89.167 167.681 88.367C164.945 87.143 162.025 86.335 159.057 85.983L133.841 74.543Z" fill="white"/>
<path d="M71.2808 64.2234C71.3128 63.6874 71.5288 63.1594 71.8728 62.7514C71.9608 62.6474 72.0728 62.5114 72.0168 62.3914C71.9848 62.3194 71.9208 62.2794 71.8648 62.2394C70.9128 61.6314 69.9688 61.0394 69.0168 60.4314L46.0568 45.9834L45.4648 47.5034L71.2808 64.2234Z" fill="white"/>
<path d="M252.225 196.903C253.977 198.783 255.257 201.151 257.385 202.599L261.969 199.695L267.585 207.936L271.265 206.055C271.265 206.055 277.481 213.799 277.833 213.943C287.305 207.575 293.833 197.015 295.297 185.695L285.985 183.143L286.185 179.223L276.265 176.847L276.897 172.247C276.897 172.247 269.457 169.735 269.361 169.887C265.713 179.807 259.985 188.951 252.225 196.903Z" fill="#434343"/>
<path d="M133.266 137.895C141.954 132.007 148.45 123.399 153.986 114.479C159.186 106.103 163.754 97.1749 165.714 87.4389C154.562 79.3909 141.45 74.5589 128.122 70.2629C120.954 67.3269 113.498 65.0149 105.834 63.8549C98.1699 62.6949 90.2899 62.7349 82.6339 64.5349C81.1859 67.4469 79.4659 70.2389 77.5859 72.7669C79.1059 77.5669 80.7299 82.3509 82.9619 86.8629C87.7939 96.6469 95.3299 104.799 103.17 113.119C109.226 118.879 115.634 124.255 122.05 129.631C125.538 132.575 129.034 135.511 133.266 137.895Z" fill="#434343"/>
<path d="M247.849 200.031C235.185 195.039 222.801 189.359 210.905 183.271C207.705 189.023 206.337 195.783 207.465 202.519C208.417 208.671 211.649 214.303 215.801 218.943C219.953 223.575 225.017 227.303 230.425 230.959C242.385 238.687 255.873 244.079 269.857 246.719C273.177 247.343 276.529 247.807 279.601 247.455C266.449 240.303 255.545 229.095 248.769 215.743C247.561 213.351 246.457 210.871 246.025 208.223C245.593 205.575 245.841 202.743 247.849 200.031Z" fill="#434343"/>
<path d="M270.336 165.679C260.672 155.871 250.472 146.591 240.24 137.655C244.728 130.871 252.888 127.079 261.008 126.575C269.12 126.063 277.192 128.487 284.52 132.047C292.728 136.039 300.24 141.471 307.192 148.535C314.52 155.831 321.072 163.919 326.376 172.799C319.44 168.439 312.176 164.543 304.456 161.847C296.72 159.151 288.496 157.687 280.328 158.231C278.496 158.351 276.608 158.607 274.992 159.479C272.736 160.687 271.288 162.967 270.336 165.679Z" fill="#434343"/>
<path d="M129.706 113.007C137.036 113.007 142.978 107.065 142.978 99.7349C142.978 92.405 137.036 86.4629 129.706 86.4629C122.376 86.4629 116.434 92.405 116.434 99.7349C116.434 107.065 122.376 113.007 129.706 113.007Z" fill="#00FF85"/>
<path d="M129.706 110.503C135.653 110.503 140.473 105.682 140.473 99.7348C140.473 93.7878 135.653 88.9668 129.706 88.9668C123.759 88.9668 118.938 93.7878 118.938 99.7348C118.938 105.682 123.759 110.503 129.706 110.503Z" fill="white"/>
<path d="M82.8018 64.3994C81.5698 66.9514 80.1057 69.4154 78.4497 71.7194C78.2097 72.0394 77.9297 72.3914 77.5377 72.4554C77.1697 72.5114 76.8338 72.3114 76.5298 72.1114C74.3618 70.6554 72.6898 68.4794 71.8257 66.0234C71.5537 65.2634 71.3698 64.4474 71.4578 63.6554C71.5378 62.8474 71.9377 62.0474 72.6257 61.6234C73.5858 61.0394 74.7937 61.3034 75.8737 61.5754C78.2257 62.1674 80.6018 62.7914 82.8018 64.3994Z" fill="#00FF85"/>
<path d="M42.0172 43.3592C41.4252 43.9112 40.8652 44.6312 40.9452 45.4552C40.9772 45.8072 41.1292 46.1272 41.3292 46.4152C41.8892 47.2392 42.8732 47.7832 43.8572 47.7192C44.8492 47.6552 45.7932 46.9352 46.0172 45.9672C46.1052 45.5832 46.0972 45.1912 46.0572 44.7912C46.0412 44.4552 45.9932 44.1192 45.8412 43.8312C45.6892 43.5432 45.4172 43.3352 45.1372 43.1672C44.2012 42.6072 42.8972 42.5432 42.0172 43.3592Z" fill="#00FF85"/>
<path d="M119.289 99.9035C120.529 98.5435 121.905 97.3035 123.393 96.2075C124.009 95.7595 124.777 95.3115 125.489 95.5755C126.129 95.8155 126.449 96.5435 127.033 96.9195C127.929 97.5035 129.113 97.0555 130.177 96.9435C131.489 96.8075 132.857 97.2475 133.857 98.1275C135.001 99.1435 135.617 100.664 136.793 101.632C137.713 102.384 138.961 102.744 140.129 102.496C140.953 98.8395 139.777 94.7995 137.137 92.1515C134.497 89.4955 130.465 88.3115 126.809 89.1115C125.897 89.3115 124.993 89.6315 124.185 90.0955C120.953 91.9115 119.305 95.7435 119.289 99.9035Z" fill="#000001"/>
<path d="M257.762 190.784C261.69 188.656 264.474 184.928 266.77 181.104C267.698 179.56 268.562 177.96 269.738 176.584C270.89 175.208 272.402 174.04 274.154 173.616C274.962 173.424 275.794 173.4 276.546 173.064C276.546 173.064 276.882 172.008 276.77 171.896C274.218 171.336 271.69 170.672 269.186 169.936C266.586 177.112 262.898 183.92 257.762 190.784Z" fill="#000001"/>
<path d="M266.25 195.872C267.346 195.816 268.362 195.336 269.282 194.744C272.778 192.496 275.042 188.824 277.474 185.456C278.618 183.864 279.97 182.232 281.866 181.736C283.274 181.368 284.786 181.712 286.178 181.288C286.178 181.288 286.162 179.136 285.978 179.048C282.682 178.72 279.418 178.104 276.154 177.224C274.362 183.88 271.058 190.104 266.25 195.872Z" fill="#000001"/>
<path d="M276.354 201.791C279.266 200.615 281.33 198.031 283.146 195.487C284.954 192.927 286.722 190.199 289.378 188.527C290.026 188.119 290.714 187.775 291.458 187.623C292.578 187.375 293.754 187.535 294.882 187.783C294.882 187.783 295.234 185.639 295.138 185.543C292.074 184.871 289.034 184.111 285.882 183.271C284.77 185.503 284.426 188.039 283.434 190.319C282.946 191.431 282.314 192.479 281.674 193.519C280.026 196.167 278.306 198.799 276.354 201.791Z" fill="#000001"/>
<path d="M178.593 146.287C188.052 146.287 195.721 138.619 195.721 129.159C195.721 119.7 188.052 112.031 178.593 112.031C169.133 112.031 161.465 119.7 161.465 129.159C161.465 138.619 169.133 146.287 178.593 146.287Z" fill="#434343"/>
<path d="M189.44 135.015C190.944 132.655 191.104 129.695 190.968 126.903C190.904 125.519 190.768 124.111 190.264 122.815C188.984 119.495 185.4 117.447 181.848 117.239C180.728 117.175 179.6 117.263 178.528 117.575C174.984 118.607 172.464 122.159 172.232 125.839C172 129.519 173.864 133.175 176.728 135.495C174.928 135.263 173.024 136.167 172.08 137.719C171.728 138.295 171.496 138.951 171.112 139.511C170.248 140.767 168.744 141.391 167.32 141.943C169.8 143.991 172.712 145.591 175.864 146.247C179.016 146.903 182.424 146.559 185.232 144.991C186.496 144.287 187.64 143.343 188.912 142.527C190.224 141.551 191.44 140.447 192.424 139.183C192.336 137.463 191.256 135.831 189.44 135.015Z" fill="#00396D"/>
<path d="M182.777 136.007C184.809 132.583 184.753 128.279 183.777 124.415C183.521 123.383 183.193 122.359 182.665 121.439C181.529 119.463 179.433 118.079 177.137 118.031C174.817 119.327 173.041 121.543 172.281 124.087C171.521 126.631 171.793 129.463 173.017 131.815C173.489 132.719 174.105 133.567 174.889 134.223C176.177 135.295 177.905 135.823 179.569 135.639L182.777 136.007Z" fill="white"/>
<path d="M179.897 146C180.401 144.6 180.641 143.104 180.585 141.616C180.577 141.336 180.553 141.04 180.401 140.8C180.105 140.32 179.441 140.232 179.009 139.872C178.649 139.568 178.481 139.104 178.345 138.664C178.209 138.224 178.057 137.752 177.729 137.424C177.401 137.096 176.817 136.96 176.465 137.272C175.921 137.76 176.313 138.864 175.689 139.248C175.521 139.352 175.313 139.368 175.121 139.416C174.433 139.592 173.905 140.288 173.921 141C173.929 141.224 173.977 141.456 173.905 141.672C173.833 141.872 173.657 142.024 173.569 142.216C173.361 142.688 173.745 143.2 173.817 143.712C173.873 144.144 173.705 144.584 173.817 145C174.001 145.696 174.825 145.984 175.529 146.104C176.937 146.336 178.385 146.352 179.897 146Z" fill="white"/>
<path d="M262.376 185.112C259.424 189.752 255.952 194.048 252.008 197.912C251.024 198.888 250.08 199.744 248.44 200.424C248.336 200.456 248.232 200.472 248.136 200.432C225.368 190.992 202.88 180.312 181.32 168.688C165.328 159.688 149.496 149.8 132.888 138.448C128.456 135.36 124.408 132 119.96 128.248C110.28 120.08 101.64 112.592 94.0478 103.688C85.2558 93.3755 79.5678 82.8795 77.1678 72.4875C77.1358 72.3355 77.1838 72.1755 77.3118 72.0875C79.7518 70.2075 81.0558 67.1355 82.3198 64.1595L82.3838 64.0075C82.4318 63.8795 82.5518 63.7915 82.6878 63.7675C94.1358 61.9195 106.12 62.7355 117.392 66.1595C132.968 70.8635 150.896 76.7835 166.616 87.4395C180.464 94.6875 192.976 102.488 204.856 111.256C218.576 120.416 231.072 129.824 243.064 140.008C246.144 142.928 249.432 145.728 252.608 148.44C258.856 153.76 265.304 159.256 270.792 166.12C270.872 166.216 270.896 166.352 270.864 166.472C268.912 173.048 266.056 179.336 262.376 185.112ZM248.288 199.64C249.696 199.024 250.56 198.24 251.456 197.352C260.152 188.8 266.568 178.112 270.024 166.424C264.616 159.696 258.24 154.264 252.08 149.016C248.896 146.304 245.6 143.496 242.528 140.568C230.576 130.416 218.096 121.032 204.392 111.88C192.544 103.128 180.056 95.3515 166.2 88.0955C150.536 77.4875 132.672 71.5995 117.152 66.9035C106.072 63.5515 94.2798 62.7195 83.0238 64.5035C81.7678 67.4715 80.4558 70.5275 77.9998 72.5275C80.4078 82.7275 86.0158 93.0235 94.6638 103.152C102.224 112.016 110.832 119.48 120.488 127.624C124.928 131.368 128.952 134.72 133.36 137.776C149.944 149.104 165.752 158.984 181.72 167.976C203.184 179.568 225.584 190.216 248.288 199.64Z" fill="#000001"/>
<path d="M280.345 247.92C280.273 248.04 280.129 248.112 279.985 248.104C259.473 246.664 239.857 239.104 223.273 226.248C216.185 220.752 211.865 215.84 209.257 210.36C205.321 202.072 205.641 191.944 210.065 183.912C210.169 183.704 210.409 183.656 210.601 183.76C210.793 183.864 210.857 184.104 210.753 184.296C206.441 192.112 206.145 201.968 209.969 210.032C212.521 215.416 216.769 220.224 223.753 225.64C239.745 238.048 258.569 245.472 278.289 247.2C265.737 239.792 255.201 228.672 248.521 215.728C247.345 213.448 246.089 210.728 245.649 207.864C245.177 204.736 245.777 201.8 247.305 199.656C247.433 199.472 247.681 199.432 247.849 199.56C248.017 199.688 248.097 199.92 247.945 200.104C246.553 202.08 245.993 204.848 246.417 207.744C246.833 210.496 248.001 213.016 249.201 215.36C256.081 228.688 267.089 240.056 280.177 247.384C280.329 247.472 280.417 247.672 280.361 247.832C280.377 247.848 280.369 247.888 280.345 247.92Z" fill="#000001"/>
<path d="M327.362 173.248C327.346 173.272 327.33 173.296 327.314 173.304C327.186 173.432 326.986 173.456 326.818 173.368C310.018 163.24 295.234 158.432 281.642 158.68C278.89 158.728 275.778 159.024 273.538 160.88C272.202 161.968 271.218 163.552 270.378 165.888C270.306 166.096 270.074 166.208 269.874 166.128C269.666 166.056 269.554 165.824 269.634 165.624C270.506 163.144 271.586 161.44 273.026 160.264C275.458 158.264 278.738 157.944 281.618 157.896C294.97 157.664 309.418 162.208 325.73 171.808C313.074 152.848 299.642 139.976 284.682 132.464C276.346 128.28 268.458 126.376 261.234 126.792C252.522 127.288 244.762 131.344 240.49 137.64C240.362 137.824 240.122 137.872 239.938 137.752C239.754 137.624 239.706 137.392 239.826 137.2C244.242 130.704 252.226 126.528 261.186 126.016C268.562 125.592 276.578 127.528 285.034 131.776C300.49 139.536 314.338 152.96 327.346 172.824C327.45 172.96 327.442 173.12 327.362 173.248Z" fill="#000001"/>
<path d="M271.065 190.144C268.297 194.48 264.721 198.312 260.545 201.32C259.593 202.008 258.553 202.68 257.369 202.992C257.233 203.032 257.081 202.984 256.985 202.88C255.457 201.288 253.865 199.512 252.113 197.432C251.977 197.264 251.985 197.024 252.161 196.872C252.329 196.736 252.569 196.744 252.721 196.92C254.401 198.912 255.929 200.624 257.401 202.152C258.369 201.864 259.265 201.272 260.089 200.672C269.233 194.12 275.353 183.552 276.505 172.368L269.217 170.112C269.009 170.04 268.889 169.824 268.961 169.616C269.025 169.408 269.249 169.288 269.457 169.36L277.065 171.72C277.241 171.776 277.361 171.944 277.345 172.128C276.705 178.528 274.513 184.736 271.065 190.144Z" fill="#000001"/>
<path d="M279.825 197.272C279.593 197.64 279.361 198 279.113 198.368C277.953 200.136 276.793 201.856 275.321 203.312C273.081 205.544 270.289 207.064 267.593 208.536C267.417 208.632 267.193 208.576 267.073 208.416C265.241 205.68 263.601 203.032 261.825 200.12C261.713 199.936 261.769 199.688 261.961 199.576C262.145 199.464 262.393 199.52 262.505 199.712C264.225 202.512 265.793 205.056 267.529 207.68C270.081 206.288 272.681 204.832 274.761 202.76C276.169 201.36 277.305 199.688 278.449 197.944C282.105 192.336 285.521 186.248 285.977 179.52L276.105 177.552C275.889 177.504 275.753 177.296 275.801 177.08C275.841 176.872 276.057 176.728 276.273 176.776L286.489 178.808C286.681 178.84 286.817 179.016 286.809 179.224C286.449 185.816 283.321 191.792 279.825 197.272Z" fill="#000001"/>
<path d="M289.737 201.975C286.625 206.855 282.513 211.087 277.673 214.271C277.505 214.375 277.281 214.351 277.153 214.191C274.817 211.367 273.041 209.087 271.129 206.607C270.993 206.431 271.033 206.191 271.201 206.055C271.369 205.919 271.617 205.959 271.753 206.127C273.601 208.519 275.321 210.727 277.537 213.423C286.833 207.207 293.321 196.967 294.961 185.927L285.937 183.527C285.729 183.471 285.601 183.255 285.657 183.039C285.713 182.831 285.929 182.703 286.145 182.759L295.505 185.239C295.697 185.287 295.817 185.471 295.801 185.679C294.985 191.463 292.873 197.055 289.737 201.975Z" fill="#000001"/>
<path d="M141.24 107.079C137.192 113.431 128.72 115.319 122.36 111.263C116.008 107.215 114.12 98.7512 118.176 92.3832C122.232 86.0152 130.696 84.1432 137.056 88.1992C143.4 92.2472 145.288 100.719 141.24 107.079ZM118.84 92.8152C115.024 98.8072 116.792 106.783 122.784 110.599C128.776 114.415 136.752 112.647 140.568 106.655C144.384 100.663 142.616 92.6872 136.624 88.8712C130.632 85.0552 122.656 86.8232 118.84 92.8152Z" fill="#000001"/>
<path d="M139.113 105.727C135.809 110.919 128.897 112.447 123.713 109.143C118.529 105.839 116.993 98.9272 120.297 93.7432C123.601 88.5512 130.513 87.0232 135.697 90.3272C140.889 93.6232 142.417 100.543 139.113 105.727ZM120.961 94.1672C117.889 98.9832 119.313 105.407 124.137 108.479C128.953 111.551 135.377 110.127 138.449 105.303C141.521 100.487 140.097 94.0632 135.273 90.9912C130.457 87.9192 124.041 89.3432 120.961 94.1672Z" fill="#000001"/>
<path d="M154.936 114.08C153.064 117.024 150.952 120.04 148.616 123.152C144.76 128.264 139.984 134.064 133.8 138.328C133.624 138.448 133.376 138.4 133.248 138.224C133.128 138.048 133.176 137.8 133.344 137.672C139.432 133.496 144.16 127.744 147.96 122.68C157.472 110.072 163 99.0079 165.392 87.8799C165.44 87.6639 165.648 87.5279 165.856 87.5839C166.072 87.6319 166.208 87.8399 166.152 88.0479C164.368 96.5519 160.728 104.984 154.936 114.08Z" fill="#000001"/>
<path d="M77.6011 72.7034C77.5051 72.8554 77.3211 72.9194 77.1371 72.8714C75.2971 72.2554 73.9371 70.8634 73.5691 69.2634C73.2251 67.7834 73.7531 66.3434 74.2491 65.4074C74.7211 64.5114 75.2891 63.8154 75.9291 63.3034C76.8891 62.5594 78.1771 62.1914 79.4171 62.3114C80.6411 62.4234 81.8011 62.9594 82.7051 63.8234C82.8571 63.9754 82.8571 64.2314 82.7131 64.3834C82.5611 64.5354 82.3131 64.5434 82.1531 64.3914C81.3851 63.6474 80.3851 63.1914 79.3451 63.0874C78.2891 62.9994 77.2251 63.2954 76.4091 63.9114C75.8491 64.3514 75.3531 64.9754 74.9451 65.7594C74.5051 66.5834 74.0571 67.8314 74.3291 69.0794C74.6331 70.4074 75.8331 71.5914 77.3851 72.1194C77.5931 72.1914 77.7051 72.4154 77.6411 72.6234C77.6411 72.6394 77.6171 72.6794 77.6011 72.7034Z" fill="#000001"/>
<path d="M79.1359 62.64C79.0399 62.792 78.8559 62.856 78.6879 62.808C77.5839 62.448 76.488 62.184 75.464 62.048C74.568 61.92 73.448 61.848 72.64 62.392C71.984 62.824 71.5759 63.664 71.5679 64.56C71.5599 65.36 71.8239 66.216 72.3759 67.064C72.8559 67.816 73.456 68.456 74.184 69.224C74.336 69.376 74.3359 69.632 74.1759 69.784C74.0159 69.936 73.7679 69.92 73.6159 69.776C73.0159 69.152 72.2719 68.376 71.7119 67.504C71.0879 66.528 70.7599 65.512 70.7759 64.568C70.7919 63.408 71.3359 62.328 72.1999 61.76C73.2319 61.056 74.544 61.144 75.584 61.296C76.664 61.456 77.7999 61.72 78.9439 62.088C79.1519 62.16 79.2639 62.384 79.1999 62.592C79.1759 62.584 79.1519 62.616 79.1359 62.64Z" fill="#000001"/>
<path d="M71.4728 63.9674C71.3528 64.1594 71.1128 64.1994 70.9288 64.0874L45.1448 47.6634C44.9528 47.5434 44.9128 47.3034 45.0248 47.1194C45.1448 46.9274 45.3848 46.8874 45.5688 46.9994L71.3528 63.4234C71.5368 63.5354 71.5848 63.7914 71.4728 63.9674Z" fill="#000001"/>
<path d="M72.3361 62.5678C72.2161 62.7598 71.9761 62.7998 71.7921 62.6878L46.0881 46.3118C45.8961 46.1918 45.8561 45.9518 45.9681 45.7678C46.0801 45.5838 46.3281 45.5358 46.5121 45.6478L72.2161 62.0238C72.4001 62.1278 72.4561 62.3758 72.3361 62.5678Z" fill="#000001"/>
<path d="M46.1926 46.8797C45.3286 48.2397 43.5206 48.6317 42.1686 47.7757C40.8166 46.9117 40.4166 45.1037 41.2726 43.7517C42.1366 42.3917 43.9446 41.9997 45.2966 42.8557C46.6566 43.7037 47.0566 45.5197 46.1926 46.8797ZM41.9286 44.1677C41.2966 45.1597 41.5926 46.4797 42.5846 47.1117C43.5766 47.7437 44.8966 47.4477 45.5286 46.4557C46.1606 45.4637 45.8646 44.1437 44.8726 43.5117C43.8806 42.8797 42.5606 43.1757 41.9286 44.1677Z" fill="#000001"/>
<path d="M153.161 112.064C152.969 111.944 152.913 111.704 153.033 111.52C153.145 111.328 153.385 111.28 153.577 111.392C153.769 111.512 153.809 111.752 153.705 111.936C153.697 111.944 153.697 111.944 153.697 111.944C153.577 112.12 153.329 112.176 153.161 112.064ZM151.553 115.264C151.433 115.456 151.193 115.496 151.001 115.376C150.817 115.264 150.769 115.016 150.889 114.824C151.009 114.648 151.257 114.592 151.441 114.712C151.625 114.848 151.673 115.08 151.553 115.264ZM155.169 108.664C154.977 108.568 154.913 108.32 155.025 108.128C155.121 107.936 155.369 107.872 155.561 107.984C155.761 108.088 155.817 108.328 155.713 108.52C155.705 108.528 155.705 108.536 155.705 108.536C155.585 108.72 155.353 108.776 155.169 108.664ZM149.305 118.528C149.177 118.696 148.937 118.744 148.753 118.616C148.585 118.488 148.537 118.248 148.665 118.064C148.785 117.888 149.041 117.84 149.217 117.976C149.385 118.096 149.433 118.336 149.321 118.504C149.313 118.52 149.305 118.528 149.305 118.528ZM157.049 105.2C156.857 105.104 156.785 104.864 156.881 104.672C156.977 104.472 157.209 104.4 157.417 104.496C157.609 104.592 157.689 104.832 157.593 105.032C157.585 105.048 157.577 105.056 157.569 105.064C157.457 105.224 157.233 105.288 157.049 105.2ZM146.953 121.72C146.817 121.888 146.569 121.928 146.401 121.792C146.225 121.656 146.185 121.416 146.321 121.24C146.457 121.064 146.705 121.016 146.881 121.16C147.041 121.288 147.089 121.512 146.977 121.688C146.961 121.704 146.961 121.704 146.953 121.72ZM144.513 124.84C144.377 125.008 144.121 125.032 143.961 124.896C143.793 124.76 143.769 124.504 143.905 124.344C144.049 124.168 144.297 124.152 144.457 124.288C144.609 124.408 144.649 124.632 144.537 124.8C144.537 124.808 144.521 124.824 144.513 124.84ZM158.785 101.648C158.593 101.56 158.513 101.32 158.593 101.128C158.681 100.936 158.913 100.848 159.113 100.936C159.305 101.024 159.393 101.256 159.305 101.456C159.305 101.48 159.297 101.488 159.289 101.504C159.185 101.672 158.977 101.736 158.785 101.648ZM141.977 127.88C141.833 128.056 141.577 128.072 141.425 127.928C141.257 127.792 141.241 127.536 141.385 127.368C141.521 127.2 141.777 127.184 141.945 127.328C142.097 127.456 142.121 127.672 142.017 127.84C142.001 127.856 142.001 127.864 141.977 127.88ZM160.361 98.0317C160.161 97.9517 160.065 97.7197 160.145 97.5197C160.225 97.3197 160.457 97.2237 160.657 97.3037C160.857 97.3837 160.961 97.6077 160.873 97.8157C160.865 97.8477 160.857 97.8637 160.841 97.8797C160.737 98.0477 160.537 98.1037 160.361 98.0317ZM139.361 130.848C139.217 131.008 138.969 131.016 138.809 130.872C138.649 130.728 138.641 130.48 138.785 130.32C138.929 130.16 139.177 130.152 139.337 130.296C139.473 130.424 139.505 130.648 139.401 130.8C139.393 130.816 139.377 130.84 139.361 130.848ZM161.753 94.3437C161.545 94.2717 161.433 94.0477 161.505 93.8477C161.577 93.6397 161.801 93.5277 162.009 93.5917C162.217 93.6637 162.329 93.8957 162.257 94.0877C162.249 94.1197 162.233 94.1517 162.217 94.1677C162.121 94.3277 161.937 94.3997 161.753 94.3437ZM136.545 133.664C136.385 133.816 136.129 133.8 135.977 133.632C135.841 133.464 135.841 133.216 136.009 133.064C136.169 132.912 136.425 132.928 136.577 133.096C136.705 133.232 136.713 133.424 136.617 133.576C136.593 133.616 136.569 133.648 136.545 133.664ZM162.969 90.5757C162.761 90.5197 162.641 90.2957 162.697 90.0797C162.753 89.8717 162.977 89.7517 163.193 89.8077C163.401 89.8637 163.521 90.0957 163.465 90.3037C163.449 90.3437 163.441 90.3757 163.417 90.4077C163.313 90.5517 163.129 90.6317 162.969 90.5757ZM133.449 136.192C133.265 136.32 133.025 136.272 132.889 136.104C132.769 135.928 132.809 135.68 132.985 135.56C133.161 135.424 133.401 135.472 133.537 135.648C133.625 135.784 133.625 135.96 133.545 136.096C133.521 136.128 133.489 136.16 133.449 136.192Z" fill="#000001"/>
<path d="M244.632 201.416C244.432 201.336 244.336 201.104 244.424 200.912C244.504 200.712 244.736 200.616 244.936 200.696C245.136 200.776 245.232 201.008 245.144 201.216C245.128 201.24 245.128 201.256 245.12 201.28C245.008 201.432 244.816 201.496 244.632 201.416ZM240.984 199.912C240.792 199.824 240.688 199.592 240.776 199.392C240.856 199.192 241.088 199.096 241.296 199.184C241.488 199.272 241.592 199.504 241.496 199.696C241.488 199.728 241.48 199.744 241.464 199.76C241.368 199.912 241.16 199.984 240.984 199.912ZM237.336 198.384C237.136 198.304 237.04 198.064 237.136 197.872C237.216 197.672 237.448 197.576 237.64 197.664C237.84 197.744 237.936 197.976 237.856 198.176C237.84 198.2 237.84 198.224 237.824 198.24C237.72 198.4 237.512 198.464 237.336 198.384ZM233.688 196.872C233.488 196.792 233.392 196.56 233.472 196.36C233.56 196.152 233.792 196.056 233.992 196.152C234.192 196.232 234.288 196.464 234.2 196.656C234.192 196.688 234.184 196.704 234.168 196.72C234.072 196.88 233.872 196.952 233.688 196.872ZM230.048 195.36C229.848 195.28 229.752 195.048 229.832 194.848C229.92 194.656 230.152 194.552 230.352 194.64C230.552 194.72 230.648 194.952 230.568 195.152C230.552 195.176 230.552 195.2 230.536 195.216C230.432 195.368 230.224 195.44 230.048 195.36ZM226.4 193.848C226.2 193.768 226.104 193.528 226.192 193.328C226.272 193.128 226.504 193.032 226.712 193.12C226.912 193.2 227.008 193.44 226.912 193.632C226.904 193.664 226.896 193.68 226.88 193.696C226.776 193.848 226.576 193.92 226.4 193.848ZM222.744 192.328C222.544 192.248 222.448 192.016 222.536 191.808C222.624 191.616 222.856 191.512 223.056 191.6C223.248 191.688 223.352 191.92 223.264 192.12C223.248 192.144 223.248 192.168 223.232 192.184C223.136 192.344 222.936 192.408 222.744 192.328ZM219.104 190.816C218.904 190.736 218.808 190.504 218.896 190.296C218.976 190.096 219.208 190 219.408 190.096C219.608 190.176 219.704 190.408 219.624 190.608C219.608 190.632 219.6 190.648 219.584 190.672C219.488 190.816 219.28 190.888 219.104 190.816ZM215.456 189.288C215.256 189.208 215.16 188.976 215.24 188.776C215.336 188.576 215.56 188.48 215.76 188.568C215.96 188.648 216.056 188.88 215.968 189.088C215.96 189.104 215.952 189.128 215.944 189.152C215.848 189.304 215.648 189.376 215.456 189.288ZM211.816 187.792C211.624 187.704 211.52 187.472 211.608 187.272C211.688 187.072 211.92 186.976 212.12 187.056C212.328 187.144 212.424 187.376 212.328 187.576C212.32 187.608 212.312 187.624 212.304 187.64C212.192 187.784 211.992 187.856 211.816 187.792Z" fill="#000001"/>
<path d="M270.065 161.648C269.921 161.808 269.673 161.816 269.505 161.664C269.353 161.512 269.353 161.264 269.497 161.104C269.641 160.944 269.889 160.936 270.057 161.096C270.201 161.216 270.217 161.432 270.113 161.6C270.097 161.616 270.089 161.632 270.065 161.648ZM267.193 158.936C267.049 159.096 266.801 159.096 266.641 158.952C266.481 158.808 266.473 158.56 266.625 158.392C266.769 158.232 267.025 158.24 267.185 158.384C267.321 158.512 267.345 158.728 267.241 158.888C267.233 158.896 267.225 158.912 267.193 158.936ZM264.345 156.216C264.193 156.368 263.945 156.376 263.785 156.224C263.625 156.08 263.617 155.832 263.761 155.672C263.913 155.52 264.161 155.512 264.321 155.656C264.457 155.784 264.489 156.008 264.385 156.16C264.377 156.168 264.353 156.2 264.345 156.216ZM261.481 153.496C261.337 153.656 261.081 153.656 260.921 153.512C260.761 153.368 260.761 153.112 260.913 152.952C261.057 152.792 261.305 152.792 261.465 152.936C261.609 153.056 261.633 153.28 261.529 153.44C261.513 153.456 261.497 153.472 261.481 153.496ZM258.617 150.776C258.473 150.936 258.217 150.936 258.065 150.792C257.897 150.64 257.897 150.4 258.041 150.24C258.193 150.072 258.433 150.072 258.601 150.224C258.729 150.352 258.761 150.56 258.657 150.728C258.649 150.728 258.633 150.752 258.617 150.776ZM255.745 148.056C255.601 148.216 255.353 148.224 255.185 148.072C255.041 147.92 255.033 147.672 255.177 147.512C255.321 147.352 255.577 147.352 255.737 147.504C255.881 147.624 255.897 147.84 255.793 148.008C255.785 148.016 255.769 148.032 255.745 148.056ZM252.881 145.344C252.737 145.504 252.489 145.504 252.329 145.36C252.169 145.216 252.161 144.968 252.313 144.8C252.457 144.64 252.713 144.648 252.873 144.792C253.009 144.92 253.033 145.136 252.929 145.296C252.913 145.296 252.905 145.312 252.881 145.344ZM250.025 142.616C249.881 142.776 249.625 142.776 249.465 142.632C249.313 142.48 249.305 142.232 249.449 142.072C249.601 141.92 249.849 141.912 250.009 142.056C250.145 142.184 250.177 142.408 250.073 142.56C250.049 142.576 250.041 142.6 250.025 142.616ZM247.161 139.904C247.017 140.064 246.761 140.056 246.601 139.912C246.441 139.768 246.433 139.52 246.593 139.352C246.737 139.192 246.985 139.192 247.145 139.336C247.281 139.464 247.313 139.688 247.209 139.84C247.185 139.856 247.177 139.872 247.161 139.904ZM244.297 137.176C244.153 137.336 243.905 137.344 243.745 137.192C243.585 137.048 243.577 136.8 243.721 136.64C243.865 136.48 244.121 136.48 244.281 136.624C244.409 136.752 244.441 136.968 244.337 137.128C244.329 137.128 244.305 137.16 244.297 137.176Z" fill="#000001"/>
<path d="M268.968 189.664C268.776 189.544 268.736 189.304 268.84 189.12C268.952 188.936 269.2 188.888 269.384 189C269.576 189.12 269.616 189.36 269.504 189.544C269.504 189.544 269.504 189.544 269.496 189.552C269.392 189.72 269.152 189.776 268.968 189.664ZM267.208 192.792C267.072 192.96 266.816 192.984 266.656 192.848C266.488 192.712 266.448 192.464 266.592 192.288C266.728 192.12 266.976 192.088 267.144 192.232C267.304 192.36 267.344 192.576 267.232 192.752C267.224 192.768 267.216 192.776 267.208 192.792ZM270.952 186.248C270.76 186.152 270.68 185.912 270.784 185.72C270.784 185.72 270.784 185.72 270.776 185.712C270.88 185.512 271.112 185.44 271.312 185.536C271.512 185.632 271.584 185.872 271.488 186.072C271.48 186.088 271.472 186.096 271.464 186.104C271.352 186.272 271.136 186.336 270.952 186.248ZM272.608 182.664C272.408 182.584 272.312 182.352 272.392 182.152C272.472 181.952 272.704 181.856 272.904 181.936C273.104 182.016 273.2 182.248 273.12 182.448C273.112 182.48 273.104 182.496 273.088 182.512C273 182.664 272.792 182.736 272.608 182.664ZM264.56 195.784C264.408 195.928 264.16 195.936 264.008 195.784C263.856 195.632 263.856 195.384 264.008 195.232C264.152 195.072 264.408 195.072 264.568 195.224C264.696 195.352 264.728 195.568 264.624 195.728C264.608 195.744 264.584 195.768 264.56 195.784ZM273.976 178.96C273.768 178.888 273.656 178.664 273.72 178.464C273.784 178.264 274.016 178.144 274.216 178.208C274.416 178.272 274.536 178.504 274.472 178.704C274.464 178.736 274.448 178.768 274.432 178.784C274.336 178.944 274.16 179.016 273.976 178.96ZM261.6 198.456C261.424 198.592 261.184 198.568 261.056 198.392C260.912 198.216 260.952 197.968 261.12 197.84C261.296 197.704 261.536 197.728 261.664 197.904C261.776 198.04 261.776 198.232 261.688 198.368C261.664 198.392 261.64 198.416 261.6 198.456ZM275.072 175.168C274.856 175.12 274.72 174.904 274.776 174.696C274.832 174.488 275.04 174.344 275.248 174.408C275.472 174.464 275.6 174.672 275.544 174.88C275.536 174.92 275.52 174.968 275.496 175.008C275.408 175.128 275.24 175.208 275.072 175.168ZM258.32 200.736C258.144 200.84 257.888 200.784 257.776 200.6C257.664 200.416 257.72 200.168 257.912 200.056C258.104 199.944 258.344 200 258.456 200.192C258.536 200.328 258.536 200.488 258.456 200.6C258.416 200.664 258.368 200.704 258.32 200.736Z" fill="#000001"/>
<path d="M278.833 194.728C278.649 194.624 278.601 194.368 278.713 194.184C278.833 193.992 279.073 193.952 279.257 194.056C279.441 194.168 279.489 194.416 279.377 194.6C279.377 194.6 279.377 194.6 279.369 194.608C279.257 194.784 279.017 194.848 278.833 194.728ZM277.113 197.872C276.969 198.048 276.729 198.08 276.553 197.952C276.377 197.808 276.337 197.576 276.473 197.392C276.609 197.216 276.849 197.176 277.033 197.312C277.193 197.44 277.241 197.664 277.129 197.84C277.121 197.856 277.121 197.864 277.113 197.872ZM280.825 191.32C280.633 191.232 280.553 190.984 280.657 190.792C280.753 190.592 280.993 190.52 281.193 190.616C281.393 190.72 281.465 190.952 281.361 191.152C281.353 191.16 281.345 191.176 281.345 191.176C281.225 191.344 281.009 191.416 280.825 191.32ZM274.569 200.944C274.425 201.12 274.177 201.128 274.017 200.976C273.841 200.832 273.833 200.584 273.985 200.424C274.129 200.264 274.377 200.24 274.537 200.392C274.689 200.52 274.713 200.736 274.609 200.904C274.601 200.912 274.593 200.928 274.569 200.944ZM282.513 187.752C282.313 187.672 282.217 187.44 282.313 187.24C282.313 187.24 282.313 187.24 282.305 187.232C282.385 187.032 282.625 186.936 282.825 187.024C283.017 187.112 283.121 187.344 283.033 187.544C283.017 187.568 283.017 187.592 283.001 187.608C282.905 187.76 282.705 187.832 282.513 187.752ZM271.761 203.776C271.601 203.92 271.345 203.912 271.193 203.744C271.057 203.576 271.057 203.328 271.233 203.184C271.393 203.032 271.649 203.048 271.793 203.208C271.921 203.344 271.929 203.536 271.833 203.688C271.817 203.728 271.793 203.744 271.761 203.776ZM283.905 184.056C283.697 183.984 283.585 183.76 283.649 183.552C283.713 183.352 283.937 183.224 284.145 183.296C284.353 183.368 284.465 183.592 284.401 183.792C284.393 183.824 284.385 183.856 284.361 183.888C284.265 184.04 284.081 184.112 283.905 184.056ZM268.537 206.168C268.345 206.28 268.105 206.224 267.985 206.024C267.881 205.84 267.937 205.592 268.129 205.488C268.313 205.376 268.561 205.432 268.673 205.624C268.745 205.76 268.737 205.92 268.665 206.04C268.633 206.088 268.593 206.136 268.537 206.168Z" fill="#000001"/>
<path d="M288.625 200.368C288.441 200.256 288.393 200.008 288.497 199.824C288.617 199.632 288.865 199.584 289.041 199.696C289.225 199.8 289.281 200.048 289.169 200.24L289.161 200.248C289.049 200.424 288.817 200.48 288.625 200.368ZM286.929 203.528C286.793 203.704 286.553 203.744 286.369 203.608C286.201 203.48 286.153 203.232 286.297 203.064C286.433 202.888 286.673 202.848 286.849 202.984C287.017 203.112 287.057 203.336 286.945 203.512C286.937 203.512 286.929 203.52 286.929 203.528ZM290.561 196.928C290.361 196.832 290.289 196.6 290.377 196.4C290.473 196.2 290.705 196.128 290.913 196.224C291.105 196.312 291.185 196.552 291.097 196.752L291.089 196.76C291.081 196.776 291.073 196.784 291.065 196.792C290.953 196.944 290.737 197.016 290.561 196.928ZM284.377 206.592C284.233 206.752 283.993 206.768 283.833 206.616C283.657 206.472 283.649 206.224 283.801 206.064C283.945 205.904 284.193 205.88 284.361 206.032C284.505 206.152 284.529 206.376 284.425 206.536C284.409 206.56 284.393 206.584 284.377 206.592ZM292.153 193.312C291.945 193.24 291.833 193.008 291.921 192.808C291.993 192.6 292.225 192.488 292.425 192.576C292.633 192.648 292.745 192.88 292.657 193.08C292.649 193.112 292.641 193.136 292.625 193.16C292.529 193.312 292.329 193.384 292.153 193.312ZM281.553 209.4C281.393 209.552 281.145 209.536 280.993 209.376C280.841 209.216 280.857 208.96 281.017 208.816C281.185 208.672 281.433 208.68 281.585 208.848C281.713 208.984 281.713 209.168 281.617 209.32C281.601 209.352 281.585 209.384 281.553 209.4ZM293.393 189.568C293.177 189.504 293.049 189.296 293.113 189.08C293.169 188.872 293.385 188.744 293.601 188.8C293.817 188.848 293.937 189.072 293.881 189.28C293.873 189.32 293.865 189.36 293.841 189.4C293.745 189.552 293.569 189.616 293.393 189.568ZM278.465 211.92C278.289 212.056 278.041 212.016 277.905 211.84C277.769 211.664 277.817 211.424 277.993 211.288C278.161 211.16 278.409 211.2 278.537 211.368C278.633 211.512 278.641 211.68 278.553 211.808C278.537 211.856 278.505 211.888 278.465 211.92ZM313.801 209.536C313.273 210.36 312.025 210.696 310.825 210.632C308.081 210.496 305.385 209.864 302.769 209.248C301.441 208.936 300.065 208.608 298.713 208.352C297.033 208.04 295.961 208.232 295.441 208.928C294.825 209.72 295.225 210.8 295.673 212.04C296.121 213.248 296.577 214.504 296.113 215.72C295.785 216.584 294.969 217.272 293.953 217.584C292.801 217.936 291.609 217.776 290.505 217.552C287.697 216.992 285.009 216 282.521 214.592C282.297 214.456 282.217 214.176 282.337 213.96C282.441 213.728 282.753 213.656 282.969 213.776C285.369 215.144 287.969 216.096 290.673 216.64C291.665 216.832 292.721 216.984 293.681 216.688C294.425 216.472 295.009 215.976 295.241 215.384C295.585 214.496 295.209 213.464 294.801 212.36C294.297 211 293.785 209.6 294.697 208.384C295.449 207.376 296.825 207.064 298.889 207.456C300.265 207.712 301.649 208.048 302.993 208.352C305.569 208.96 308.225 209.592 310.881 209.72C311.745 209.76 313.065 209.536 313.137 208.728C313.161 208.392 312.961 208.016 312.753 207.696C311.401 205.616 309.409 204.16 307.305 202.616C306.297 201.872 305.249 201.104 304.289 200.272C303.937 199.968 303.585 199.64 303.377 199.168C303.217 198.808 303.177 198.432 303.137 198.096L303.121 197.92C302.833 195.336 300.993 193 298.561 192.088C298.321 192 298.193 191.72 298.289 191.488C298.385 191.248 298.657 191.12 298.889 191.216C301.633 192.248 303.713 194.896 304.049 197.816L304.073 198.008C304.097 198.296 304.129 198.576 304.233 198.792C304.361 199.08 304.641 199.336 304.897 199.568C305.825 200.384 306.849 201.136 307.857 201.864C309.937 203.384 312.089 204.968 313.537 207.184C313.833 207.64 314.129 208.184 314.065 208.8C314.017 209.088 313.929 209.328 313.801 209.536ZM331.297 229.552C331.233 229.648 331.177 229.728 331.105 229.816C330.097 231.12 328.297 231.584 325.609 231.232C323.185 230.912 320.769 230.36 318.457 229.568C317.833 229.36 317.193 229.12 316.569 228.888C314.241 228.024 311.825 227.136 309.385 227.224C309.081 227.24 308.697 227.272 308.497 227.464C308.257 227.696 308.249 228.184 308.481 228.936C309.321 231.68 310.393 234.384 311.649 236.976C312.337 238.376 313.073 239.896 312.745 241.456C312.393 243.12 310.777 244.48 308.817 244.76C306.937 245.024 305.065 244.352 303.825 243.824C298.473 241.544 294.073 237.376 290.465 233.6C286.153 229.088 282.121 224.24 278.449 219.192C278.297 218.984 278.337 218.688 278.553 218.544C278.761 218.392 279.049 218.44 279.201 218.648C282.849 223.664 286.865 228.48 291.137 232.96C294.665 236.664 298.985 240.752 304.185 242.96C306.017 243.744 307.409 244.008 308.681 243.832C309.969 243.648 311.505 242.768 311.817 241.264C312.081 240.016 311.441 238.712 310.833 237.456C309.513 234.76 308.433 232.008 307.585 229.216C307.369 228.504 307.169 227.48 307.833 226.808C308.257 226.392 308.857 226.32 309.329 226.304C311.953 226.208 314.449 227.128 316.865 228.024C317.481 228.248 318.105 228.488 318.729 228.688C320.993 229.456 323.329 230 325.697 230.312C328.033 230.616 329.545 230.264 330.345 229.248C331.353 227.944 330.921 225.928 329.073 223.248C326.969 220.184 326.553 217.808 327.865 216.136C328.353 215.52 329.017 215.128 329.665 214.752C330.209 214.432 330.729 214.136 331.113 213.712C332.417 212.264 331.769 209.84 330.401 208.32C329.593 207.416 328.625 206.72 327.577 205.984C326.793 205.432 325.993 204.848 325.265 204.184C324.289 203.288 323.809 202.416 323.801 201.528C323.801 201.296 323.825 201.072 323.865 200.84C323.905 200.552 323.937 200.288 323.889 200.072C323.793 199.672 323.409 199.344 322.985 199.024C316.921 194.344 310.217 190.56 303.081 187.768C302.841 187.672 302.721 187.408 302.809 187.168C302.897 186.928 303.169 186.808 303.409 186.896C310.633 189.72 317.401 193.544 323.537 198.28C324.065 198.696 324.617 199.152 324.777 199.856C324.873 200.248 324.817 200.632 324.769 200.968C324.745 201.152 324.713 201.328 324.721 201.512C324.729 202.136 325.113 202.792 325.881 203.504C326.561 204.136 327.345 204.688 328.097 205.224C329.129 205.96 330.193 206.72 331.065 207.688C332.705 209.52 333.409 212.504 331.777 214.328C331.297 214.864 330.689 215.216 330.113 215.552C329.521 215.896 328.961 216.216 328.577 216.712C327.561 218 327.969 220.024 329.817 222.712C331.865 225.608 332.345 227.904 331.297 229.552ZM347.585 241.416C346.505 243.104 344.369 244.144 342.337 244.224C339.881 244.328 337.569 243.416 335.337 242.536L334.697 242.28C332.209 241.304 329.633 240.456 327.057 239.752C325.193 239.248 322.521 238.736 320.969 240.24C320.281 240.896 319.937 241.84 319.577 242.824C319.393 243.328 319.201 243.848 318.969 244.336C318.425 245.432 317.433 246.32 316.417 246.608C315.737 246.808 315.089 246.72 314.529 246.368C314.305 246.224 314.249 245.944 314.385 245.728C314.521 245.512 314.809 245.448 315.025 245.584C315.353 245.792 315.737 245.84 316.169 245.712C316.921 245.496 317.713 244.776 318.137 243.928C318.353 243.48 318.537 243.008 318.705 242.512C319.081 241.472 319.481 240.392 320.321 239.576C322.209 237.752 325.209 238.304 327.305 238.864C329.913 239.576 332.521 240.432 335.041 241.416L335.689 241.68C337.833 242.528 340.057 243.4 342.305 243.296C344.601 243.192 347.201 241.616 347.361 239.256C347.473 237.68 346.521 236.2 345.601 234.776L345.297 234.304C343.809 231.96 343.441 229.984 344.209 228.44C344.833 227.184 346.057 226.512 347.241 225.864C348.233 225.328 349.177 224.808 349.745 223.976C350.945 222.256 350.105 219.832 349.057 218.256C347.889 216.504 346.225 214.992 344.633 213.544C342.161 211.296 339.617 208.968 338.745 205.672C338.577 205.032 338.481 204.376 338.385 203.744C338.265 202.928 338.145 202.144 337.889 201.408C337.073 199.088 334.969 197.472 332.817 196.064C324.233 190.464 314.425 186.912 304.937 183.48C304.697 183.392 304.569 183.12 304.657 182.88C304.745 182.64 305.017 182.512 305.257 182.6C314.793 186.056 324.649 189.616 333.329 195.28C335.625 196.776 337.865 198.512 338.769 201.104C339.057 201.928 339.193 202.784 339.313 203.616C339.409 204.248 339.497 204.848 339.649 205.448C340.449 208.48 342.793 210.608 345.273 212.872C346.905 214.368 348.609 215.912 349.849 217.752C351.105 219.616 351.945 222.312 350.633 224.384C350.601 224.432 350.569 224.48 350.545 224.528C349.841 225.544 348.761 226.136 347.713 226.704C346.609 227.304 345.569 227.88 345.073 228.88C344.457 230.112 344.809 231.784 346.113 233.824L346.417 234.296C347.377 235.776 348.457 237.464 348.329 239.344C348.225 240.096 347.977 240.8 347.585 241.416ZM339.601 252.232C338.401 254.112 335.633 254.304 334.001 254.24L333.721 254.224C331.729 254.136 329.689 254.056 328.433 255.32C328.145 255.624 327.913 255.984 327.657 256.36C327.369 256.808 327.073 257.272 326.657 257.656C325.105 259.104 322.609 259 319.433 257.36C315.097 255.128 310.961 252.464 307.145 249.424C306.937 249.264 306.905 248.968 307.073 248.768C307.233 248.568 307.529 248.536 307.729 248.696C311.489 251.688 315.577 254.336 319.857 256.528C321.817 257.528 324.465 258.424 326.033 256.968C326.361 256.656 326.617 256.264 326.881 255.84C327.145 255.432 327.409 255.016 327.769 254.648C329.305 253.088 331.673 253.192 333.761 253.28L334.041 253.296C335.561 253.36 338.233 253.192 339.009 251.368C339.105 251.128 339.385 251.024 339.625 251.12C339.865 251.216 339.969 251.496 339.873 251.736C339.801 251.904 339.705 252.072 339.601 252.232ZM358.393 226.904C357.489 228.32 355.881 229.16 354.329 228.968C354.073 228.936 353.889 228.704 353.921 228.44C353.953 228.184 354.185 228 354.449 228.032C355.809 228.2 357.297 227.248 357.897 225.84C358.449 224.536 358.345 222.92 357.617 221.384C357.265 220.64 356.761 219.896 356.281 219.184C355.225 217.632 354.137 216.016 354.305 214.08C354.337 213.712 354.417 213.368 354.489 213.024C354.561 212.68 354.633 212.368 354.657 212.048C354.769 210.584 353.873 209.184 352.889 207.88C350.873 205.216 348.601 202.712 346.137 200.44C345.953 200.264 345.937 199.968 346.113 199.784C346.289 199.6 346.585 199.584 346.769 199.76C349.265 202.072 351.577 204.616 353.633 207.32C354.721 208.768 355.721 210.344 355.585 212.112C355.553 212.504 355.465 212.864 355.393 213.224C355.321 213.544 355.249 213.848 355.225 214.152C355.073 215.76 356.033 217.168 357.049 218.648C357.553 219.384 358.073 220.16 358.465 220.976C359.313 222.744 359.417 224.648 358.769 226.192C358.657 226.464 358.529 226.696 358.393 226.904Z" fill="#00FF85"/>
<path d="M176.586 127.328C176.362 127.328 176.186 127.144 176.186 126.928L176.194 124.744C176.194 123.672 176.202 122.568 176.402 121.472C176.642 120.208 177.122 119.176 177.826 118.4C177.978 118.24 178.226 118.224 178.394 118.376C178.554 118.528 178.57 118.776 178.418 118.944C177.81 119.608 177.402 120.512 177.186 121.624C176.994 122.648 176.994 123.712 176.986 124.744L176.978 126.928C176.986 127.152 176.802 127.328 176.586 127.328Z" fill="#000001"/>
<path d="M174.521 130.024C174.361 130.024 174.217 129.928 174.153 129.784C174.081 129.624 174.129 129.44 174.257 129.32C175.905 127.904 177.177 126.08 177.937 124.048C178.017 123.84 178.249 123.736 178.449 123.816C178.657 123.896 178.761 124.128 178.681 124.328C178.009 126.104 176.977 127.736 175.649 129.096L178.201 128.824C178.425 128.8 178.617 128.96 178.641 129.176C178.665 129.392 178.505 129.592 178.289 129.616L174.553 130.016C174.545 130.024 174.537 130.024 174.521 130.024Z" fill="#000001"/>
<path d="M177.712 135.4C177.552 135.4 177.408 135.304 177.344 135.152C176.624 133.384 176.296 131.448 176.408 129.544C176.416 129.32 176.608 129.152 176.832 129.168C177.056 129.184 177.224 129.368 177.208 129.592C177.112 131.376 177.416 133.2 178.088 134.856C178.168 135.064 178.072 135.296 177.872 135.376C177.808 135.392 177.76 135.4 177.712 135.4Z" fill="#000001"/>
<path d="M183.113 135.072C183.057 135.072 183.009 135.064 182.953 135.04C182.753 134.952 182.657 134.72 182.745 134.512C183.649 132.416 184.105 130.104 184.073 127.824C184.041 125.504 183.489 123.424 182.473 121.808C181.313 119.952 179.473 118.68 177.561 118.392C177.345 118.36 177.193 118.152 177.225 117.936C177.257 117.72 177.465 117.568 177.681 117.6C179.825 117.92 181.865 119.336 183.153 121.384C184.241 123.12 184.841 125.344 184.873 127.808C184.905 130.2 184.425 132.624 183.481 134.824C183.409 134.984 183.265 135.072 183.113 135.072Z" fill="#000001"/>
<path d="M182.032 136.2C180.896 136.2 179.768 136.144 178.632 136.032C178.416 136.008 178.248 135.816 178.272 135.592C178.296 135.376 178.496 135.216 178.712 135.232C182.184 135.584 185.68 135.384 189.088 134.632C189.304 134.584 189.52 134.72 189.568 134.936C189.616 135.152 189.48 135.368 189.264 135.416C186.888 135.944 184.464 136.2 182.032 136.2Z" fill="#000001"/>
<path d="M180.121 146.008C180.073 146.008 180.025 146 179.977 145.984C179.769 145.904 179.673 145.672 179.753 145.464C180.369 143.888 180.385 142.104 179.809 140.512C178.985 140.376 178.361 139.896 178.081 139.176C177.977 138.92 177.929 138.656 177.881 138.408C177.857 138.272 177.825 138.128 177.793 137.992C177.737 137.792 177.609 137.448 177.353 137.336C177.057 137.208 176.665 137.464 176.505 137.768C176.289 138.168 176.289 138.704 176.281 139.176C176.281 139.376 176.129 139.544 175.929 139.568C175.505 139.624 175.065 139.68 174.729 139.888C174.465 140.04 174.233 140.352 174.289 140.64C174.297 140.68 174.313 140.72 174.321 140.768C174.353 140.872 174.385 141 174.393 141.152C174.393 141.536 174.169 141.832 173.985 142.064C173.889 142.192 173.745 142.368 173.769 142.432C173.777 142.456 173.817 142.512 173.857 142.552C173.905 142.608 173.953 142.672 173.985 142.736C174.225 143.128 174.161 143.576 174.113 143.928C174.097 144.016 174.089 144.112 174.081 144.2C174.065 144.392 174.137 144.592 174.209 144.664C174.425 144.64 174.641 144.816 174.657 145.04C174.673 145.264 174.529 145.464 174.313 145.48C174.065 145.496 173.825 145.408 173.641 145.224C173.385 144.968 173.249 144.544 173.281 144.128C173.289 144.024 173.305 143.92 173.321 143.816C173.361 143.552 173.393 143.296 173.305 143.144C173.281 143.112 173.257 143.072 173.233 143.04C173.161 142.952 173.073 142.84 173.025 142.688C172.865 142.216 173.153 141.84 173.361 141.568C173.473 141.424 173.601 141.256 173.601 141.152C173.601 141.112 173.585 141.048 173.561 140.984C173.545 140.92 173.521 140.848 173.513 140.784C173.385 140.096 173.833 139.496 174.329 139.2C174.697 138.976 175.105 138.888 175.489 138.824C175.505 138.36 175.553 137.848 175.801 137.392C176.137 136.776 176.945 136.296 177.665 136.608C178.089 136.784 178.401 137.208 178.561 137.792C178.601 137.952 178.633 138.104 178.665 138.264C178.705 138.488 178.745 138.696 178.825 138.888C179.025 139.384 179.497 139.704 180.129 139.752C180.281 139.768 180.409 139.864 180.465 140C181.201 141.824 181.209 143.928 180.489 145.76C180.433 145.912 180.281 146.008 180.121 146.008Z" fill="#000001"/>
<path d="M188.129 143.024C188.089 143.024 188.049 143.016 188.009 143.008C185.705 142.304 183.345 141.648 181.001 141.064C180.785 141.008 180.657 140.792 180.705 140.576C180.761 140.36 180.977 140.232 181.193 140.28C183.553 140.864 185.921 141.52 188.241 142.232C188.449 142.296 188.569 142.52 188.505 142.728C188.457 142.912 188.297 143.024 188.129 143.024Z" fill="#000001"/>
<path d="M168.385 142.031C168.233 142.031 168.081 141.943 168.017 141.783C167.929 141.583 168.025 141.343 168.233 141.263C169.105 140.895 169.977 140.455 170.513 139.711C170.729 139.407 170.889 139.063 171.057 138.695C171.225 138.327 171.401 137.935 171.649 137.583C172.601 136.223 174.289 135.727 175.945 135.327C176.161 135.279 176.377 135.407 176.425 135.623C176.473 135.839 176.345 136.055 176.129 136.103C174.561 136.479 173.089 136.911 172.297 138.039C172.089 138.335 171.937 138.671 171.777 139.023C171.601 139.407 171.417 139.807 171.153 140.175C170.497 141.079 169.465 141.599 168.537 141.991C168.489 142.015 168.433 142.031 168.385 142.031Z" fill="#000001"/>
<path d="M192.169 138.504C192.001 138.504 191.841 138.392 191.785 138.224C191.425 137.096 190.633 136.104 189.617 135.512C189.425 135.4 189.361 135.152 189.473 134.968C189.585 134.776 189.833 134.712 190.017 134.824C191.209 135.52 192.129 136.672 192.545 137.984C192.609 138.192 192.497 138.416 192.289 138.488C192.249 138.496 192.209 138.504 192.169 138.504Z" fill="#000001"/>
<path d="M181.256 133.04C181.144 133.04 181.04 132.992 180.96 132.904C180.816 132.736 180.824 132.488 180.992 132.336C181.256 132.096 181.44 131.72 181.504 131.256C181.544 130.992 181.544 130.72 181.536 130.448C180.672 130.848 179.728 131.104 178.784 131.2C178.568 131.224 178.368 131.064 178.344 130.84C178.32 130.624 178.48 130.424 178.704 130.4C179.744 130.296 180.784 129.976 181.704 129.472C181.824 129.408 181.968 129.408 182.088 129.472C182.208 129.536 182.288 129.656 182.296 129.792C182.336 130.304 182.384 130.832 182.304 131.376C182.24 131.832 182.048 132.472 181.536 132.928C181.44 133.008 181.352 133.04 181.256 133.04Z" fill="#000001"/>
<path d="M177.553 124.863C177.345 124.863 177.169 124.703 177.153 124.487L177.089 123.463C177.073 123.239 177.241 123.055 177.465 123.039C177.681 123.031 177.873 123.191 177.889 123.415L177.953 124.439C177.969 124.663 177.801 124.847 177.577 124.863C177.569 124.863 177.561 124.863 177.553 124.863Z" fill="#000001"/>
<path d="M179.88 124.944L179.48 124.936L179.512 123.816C179.52 123.592 179.736 123.432 179.92 123.424C180.144 123.432 180.312 123.616 180.312 123.832L180.28 124.92L179.88 124.944Z" fill="#000001"/>
<path d="M178.193 122.328C178.153 122.328 178.121 122.32 178.081 122.312C177.793 122.224 177.488 122.208 177.2 122.248C176.976 122.28 176.776 122.128 176.744 121.912C176.712 121.696 176.865 121.488 177.081 121.456C177.489 121.392 177.912 121.424 178.312 121.544C178.52 121.608 178.648 121.832 178.584 122.04C178.528 122.216 178.369 122.328 178.193 122.328Z" fill="#000001"/>
<path d="M181.161 122.92C181.097 122.92 181.025 122.904 180.969 122.872C180.633 122.688 180.257 122.584 179.873 122.568C179.649 122.56 179.481 122.376 179.489 122.152C179.497 121.928 179.697 121.744 179.905 121.768C180.417 121.784 180.913 121.928 181.361 122.168C181.553 122.272 181.625 122.52 181.521 122.712C181.441 122.84 181.297 122.92 181.161 122.92Z" fill="#000001"/>
<path d="M178.592 148.264C168.056 148.264 159.48 139.688 159.48 129.152C159.48 118.616 168.056 110.04 178.592 110.04C189.128 110.04 197.704 118.616 197.704 129.152C197.704 139.696 189.136 148.264 178.592 148.264ZM178.592 110.848C168.496 110.848 160.28 119.064 160.28 129.16C160.28 139.256 168.496 147.472 178.592 147.472C188.688 147.472 196.904 139.256 196.904 129.16C196.904 119.056 188.688 110.848 178.592 110.848Z" fill="#00FF85"/>
<path d="M178.592 146.688C168.928 146.688 161.064 138.824 161.064 129.16C161.064 119.496 168.928 111.632 178.592 111.632C188.256 111.632 196.12 119.496 196.12 129.16C196.12 138.824 188.256 146.688 178.592 146.688ZM178.592 112.424C169.368 112.424 161.864 119.928 161.864 129.152C161.864 138.376 169.368 145.88 178.592 145.88C187.816 145.88 195.32 138.376 195.32 129.152C195.32 119.928 187.816 112.424 178.592 112.424Z" fill="#00FF85"/>
<path d="M118.896 192.048H173.432V279.352H115.944L96.8965 213.928L101.544 198.736L118.896 192.048Z" fill="#00FF85"/>
<path d="M157.753 212.64C160.492 212.64 162.713 209.997 162.713 206.736C162.713 203.475 160.492 200.832 157.753 200.832C155.014 200.832 152.793 203.475 152.793 206.736C152.793 209.997 155.014 212.64 157.753 212.64Z" fill="#434343"/>
<path d="M160.009 228.472C162.748 228.472 164.969 225.829 164.969 222.568C164.969 219.307 162.748 216.664 160.009 216.664C157.269 216.664 155.049 219.307 155.049 222.568C155.049 225.829 157.269 228.472 160.009 228.472Z" fill="#434343"/>
<path d="M161.825 245.751C164.565 245.751 166.785 243.108 166.785 239.847C166.785 236.587 164.565 233.943 161.825 233.943C159.086 233.943 156.865 236.587 156.865 239.847C156.865 243.108 159.086 245.751 161.825 245.751Z" fill="#434343"/>
<path d="M80.801 193.808C83.785 194.136 86.721 192.68 89.713 192.816C92.225 192.928 94.625 194.152 97.129 193.968C97.897 193.912 98.6809 193.712 99.3049 193.256C99.6889 192.976 100.009 192.608 100.265 192.208C101.449 190.368 101.345 188.024 101.329 185.84C101.321 183.808 101.433 181.76 101.969 179.8C102.497 177.84 103.473 175.96 104.977 174.592C105.945 173.712 107.121 173.048 107.889 171.992C108.537 171.096 108.825 170 109.105 168.936C110.113 165.056 111.137 161.088 110.785 157.088C110.785 157.088 108.209 159.168 107.689 159.224C102.833 161.456 97.801 163.312 92.657 164.76C91.753 165.016 90.849 165.256 89.921 165.376C89.441 165.44 88.961 165.472 88.497 165.608C87.913 165.776 87.401 166.112 86.889 166.432C85.601 167.256 84.3049 168.08 83.1609 169.096C81.9049 170.216 80.849 171.544 79.665 172.736C78.945 173.464 78.185 174.136 77.377 174.76L80.009 191.936L80.801 193.808Z" fill="#00396D"/>
<path d="M110.482 158.008C111.37 156.76 112.906 156.144 114.402 155.816C115.898 155.488 117.45 155.368 118.85 154.848C121.346 154.08 123.738 152.952 125.914 151.512C126.586 151.064 127.306 150.48 127.354 149.672C127.354 149.672 116.906 144.976 117.09 144.728C112.874 138.032 105.042 133.832 97.1296 133.84C89.2176 133.848 81.4656 137.992 76.9056 144.456C75.7776 146.048 74.8336 147.776 74.1616 149.616C72.8816 153.104 72.6176 156.88 72.5856 160.6C72.5696 162.568 72.6496 164.648 73.7136 166.304L74.6256 174.888C74.6256 174.888 74.9776 174.968 75.1136 175.24C78.1696 175.272 81.1936 174.216 83.6816 172.44C86.1696 170.664 88.1216 168.192 89.4416 165.44C89.4416 165.44 91.9376 164.68 92.2416 164.64C98.2176 163.192 104.034 161.048 109.522 158.28C109.602 158.528 109.69 158.784 109.77 159.032C109.89 158.776 110.09 158.56 110.482 158.008Z" fill="#00FF85"/>
<path d="M133 223.96L136.072 222.592L165.448 226.928L164.696 228.88L149.056 227.376L135.32 226.144L133 223.96Z" fill="white"/>
<path d="M79.2408 204.888C86.8808 203.696 94.7848 206.08 101.265 210.288C102.129 210.848 102.985 211.448 103.657 212.232C104.217 212.88 104.633 213.64 105.049 214.392C106.033 216.184 107.025 217.968 108.009 219.76L116.665 222.92C116.665 222.92 124.913 227.104 124.993 227.288C125.601 227.32 126.217 227.36 126.809 227.528C127.393 227.696 127.961 228.016 128.313 228.512C128.705 229.064 128.809 229.784 129.209 230.328C129.521 230.76 129.993 231.04 130.393 231.392C130.793 231.736 131.161 232.216 131.129 232.744L141.313 256.208C141.313 256.208 142.337 255.808 142.297 255.776C142.521 254.608 141.633 253.44 141.865 252.272C142.025 251.48 142.665 250.856 142.897 250.08C143.337 248.608 142.225 246.896 142.969 245.552C142.969 245.552 151.617 239.576 151.729 239.552C152.393 239.32 153.089 239.176 153.793 239.12C153.873 239.112 153.961 239.112 154.033 239.144C154.145 239.2 154.185 239.336 154.225 239.456C154.505 240.488 154.761 241.528 155.009 242.576C155.009 242.576 157.185 243.312 157.241 243.28C157.449 243.928 157.609 244.6 157.713 245.272C157.713 245.272 170.865 299.336 170.817 299.44C171.657 303.904 171.505 308.544 170.377 312.944C169.977 314.496 169.457 316.032 168.593 317.384C166.729 320.32 163.361 322.144 159.905 322.464C156.441 322.784 152.937 321.696 150.033 319.784C147.137 317.872 144.809 315.168 143.009 312.2C143.009 312.2 124.337 279.16 123.977 279.336C121.353 292.296 122.761 305.696 124.169 318.848C124.345 320.464 124.545 322.168 125.489 323.496C126.017 324.24 126.745 324.824 127.185 325.624C128.217 327.504 127.305 329.832 127.537 331.968C127.697 333.424 128.385 334.752 128.921 336.112C130.441 339.96 130.769 344.264 129.265 348.4C125.225 352.976 118.761 354.384 112.729 355.32C94.2968 358.168 75.2568 358.888 57.1528 354.408C53.0328 353.384 48.6088 351.832 46.4328 348.184C43.7768 343.744 45.4488 337.968 44.0568 332.16C39.3368 297.088 40.5928 261.224 47.7768 226.576C48.2488 224.28 48.7848 221.92 50.1368 220.008C51.2168 218.48 52.7928 217.304 55.0568 216.648C60.9688 214.808 67.1608 213.848 73.3528 213.816L79.2408 204.888Z" fill="#00396D"/>
<path d="M119.217 154.656C120.545 161 121.321 167.456 121.537 173.928C121.537 173.928 122.065 176.032 122.073 176.272C123.233 179.696 125.137 182.872 127.609 185.504L121.209 184.304C121.209 184.304 120.137 193.072 120.177 193.256C119.713 196.128 119.249 199 118.793 201.872C118.609 202.992 118.417 204.152 117.801 205.104C117.185 206.056 116.025 206.76 114.921 206.488L105.641 205.944C105.641 205.944 104.937 213.816 104.921 213.848C103.585 211.88 101.113 211.12 98.8813 210.312C95.6173 209.136 92.4893 207.592 89.1853 206.544C85.8813 205.496 82.2973 204.96 78.9453 205.856L80.3533 191.88L94.8973 191.216C94.8973 191.216 100.025 174.104 100.105 173.88C100.009 171.032 100.537 168.168 101.649 165.552C101.929 164.88 102.273 164.2 102.849 163.752C103.425 163.304 104.289 163.152 104.873 163.584C105.937 164.376 105.313 166.24 106.193 167.24C106.321 167.384 106.489 167.512 106.681 167.536C107.329 167.632 107.601 166.744 107.649 166.088C107.865 163.256 108.721 160.472 110.129 158.016L112.889 156.112L119.217 154.656Z" fill="#434343"/>
<path d="M143.105 245.52C146.249 242.904 149.737 240.704 153.457 239.008L153.897 227.856C153.897 227.856 149.297 227.44 149.057 227.352C148.361 226.344 147.841 225.208 147.521 224.024C149.017 224.352 150.545 224.544 152.073 224.608C150.009 222.336 148.361 219.616 145.825 217.88C145.553 217.688 145.257 217.512 144.937 217.44C144.065 217.24 143.225 217.832 142.521 218.392L138.953 222.6L141.953 223.312L140.649 225.776L137.561 226.192C137.561 226.192 135.985 229.664 136.065 229.552C135.961 230.128 135.857 230.744 136.113 231.264C136.297 231.648 136.665 231.952 136.729 232.376C136.785 232.768 136.553 233.144 136.401 233.512C136.249 233.88 136.201 234.376 136.529 234.616C136.745 234.776 137.041 234.752 137.297 234.816C137.649 234.904 137.953 235.192 138.057 235.544C138.121 235.76 138.121 235.992 138.193 236.208C138.377 236.744 139.073 237.024 139.793 236.848C139.385 239.992 140.617 243.304 143.105 245.52Z" fill="#434343"/>
<path d="M124.105 168.04C124.393 170.056 124.393 172.12 124.105 174.136C124.017 174.768 123.857 175.456 123.329 175.816C122.705 176.24 121.857 176.008 121.161 175.712C117.881 174.328 115.009 171.88 113.361 168.728C113.057 168.152 112.801 167.456 113.081 166.872C113.289 166.44 113.737 166.192 114.169 165.992C115.465 165.376 116.841 164.944 118.249 164.696L121.993 166.4L124.105 168.04Z" fill="#00FF85"/>
<path d="M114.249 155.135C114.169 155.135 114.081 155.111 114.009 155.055C113.833 154.919 113.801 154.671 113.929 154.495C115.457 152.479 116.641 150.247 117.457 147.847C117.409 147.007 117.217 146.423 117.017 145.799C116.945 145.591 117.065 145.367 117.273 145.295C117.481 145.223 117.705 145.343 117.777 145.551C117.993 146.215 118.217 146.895 118.257 147.879C118.257 147.927 118.249 147.975 118.233 148.023C117.393 150.527 116.161 152.863 114.561 154.975C114.489 155.079 114.369 155.135 114.249 155.135Z" fill="#000001"/>
<path d="M114.665 207.136C114.273 207.136 113.873 207.112 113.481 207.072L105.825 206.416C105.601 206.4 105.441 206.2 105.457 205.984C105.473 205.768 105.665 205.608 105.889 205.616L113.545 206.272C114.737 206.376 115.881 206.416 116.673 205.8C117.361 205.264 117.657 204.312 117.905 203.384C119.273 198.224 120.161 192.912 120.545 187.584C121.737 176.704 121.193 165.776 118.937 155.088C118.169 155.152 115.601 155.808 113.297 156.488C101.705 163.752 87.8086 167.376 74.1446 166.696C73.9206 166.688 73.7526 166.496 73.7686 166.28C73.7766 166.056 73.9686 165.888 74.1846 165.904C87.6966 166.576 101.457 162.984 112.921 155.784C112.953 155.768 112.985 155.752 113.017 155.736C119.417 153.84 119.537 154.224 119.657 154.632C121.985 165.52 122.545 176.616 121.337 187.656C120.953 193.016 120.057 198.376 118.673 203.584C118.393 204.648 118.041 205.744 117.153 206.424C116.457 206.992 115.577 207.136 114.665 207.136Z" fill="#000001"/>
<path d="M104.881 214.664C104.873 214.664 104.857 214.664 104.849 214.664C104.633 214.648 104.465 214.448 104.489 214.232L105.793 199.384C105.809 199.168 106.001 199 106.225 199.024C106.441 199.04 106.609 199.24 106.585 199.456L105.281 214.304C105.265 214.504 105.089 214.664 104.881 214.664Z" fill="#000001"/>
<path d="M114.905 205.52C114.729 205.52 114.561 205.4 114.521 205.216C113.073 199.584 109.433 194.56 104.529 191.424C104.345 191.304 104.289 191.056 104.409 190.872C104.529 190.688 104.777 190.632 104.961 190.752C110.033 193.992 113.801 199.192 115.297 205.016C115.353 205.232 115.225 205.448 115.009 205.504C114.977 205.52 114.937 205.52 114.905 205.52Z" fill="#000001"/>
<path d="M127.712 185.896C127.68 185.896 127.64 185.888 127.608 185.88C127.44 185.848 122.984 185 121.272 184.68C121.056 184.64 120.912 184.432 120.952 184.216C120.992 184 121.2 183.856 121.416 183.896C123.112 184.216 125.008 184.568 126.288 184.816C125.168 183.72 124.184 182.328 123.368 180.648C122.408 178.68 121.768 176.56 121.152 174.512C121.088 174.304 121.208 174.08 121.416 174.016C121.632 173.952 121.848 174.072 121.912 174.28C122.52 176.296 123.152 178.384 124.08 180.296C125.12 182.416 126.416 184.056 127.936 185.168C128.088 185.28 128.144 185.488 128.064 185.664C128.008 185.816 127.864 185.896 127.712 185.896Z" fill="#000001"/>
<path d="M124.129 168.36C124.033 168.36 123.937 168.328 123.865 168.256C120.745 165.448 116.385 164.472 112.529 163.896C109.641 163.464 106.705 163.176 103.785 163.048C103.561 163.04 103.393 162.848 103.401 162.632C103.409 162.408 103.601 162.248 103.817 162.248C106.761 162.376 109.729 162.664 112.649 163.104C116.617 163.704 121.121 164.712 124.401 167.664C124.569 167.808 124.577 168.064 124.433 168.232C124.345 168.312 124.241 168.36 124.129 168.36Z" fill="#000001"/>
<path d="M103.146 179.04C101.802 179.04 100.73 177.976 100.274 176.936C99.7696 175.784 99.7856 174.52 99.8416 173.32C99.9616 170.648 100.274 167.536 101.682 164.784C102.33 163.512 103.194 162.848 104.138 162.904C105.21 162.968 105.874 163.944 106.122 164.76C106.266 165.232 106.314 165.704 106.362 166.168C106.394 166.48 106.426 166.776 106.49 167.064C106.602 167.184 106.69 167.232 106.73 167.24C106.754 167.232 106.794 167.208 106.818 167.192C106.962 167.048 107.034 166.816 107.106 166.584C107.346 165.736 107.514 164.848 107.674 163.992C107.786 163.368 107.906 162.752 108.05 162.136C108.498 160.24 109.13 158.88 110.05 157.864C110.202 157.696 110.45 157.688 110.618 157.832C110.786 157.984 110.794 158.232 110.65 158.4C109.826 159.32 109.242 160.56 108.834 162.32C108.69 162.92 108.578 163.536 108.466 164.144C108.306 165.024 108.13 165.928 107.882 166.808C107.794 167.128 107.674 167.488 107.394 167.76C107.202 167.952 106.946 168.056 106.698 168.04C106.386 168.024 106.09 167.84 105.818 167.496C105.778 167.448 105.754 167.392 105.738 167.336C105.658 166.976 105.618 166.608 105.578 166.256C105.53 165.808 105.482 165.392 105.362 164.992C105.178 164.376 104.714 163.744 104.098 163.704C103.306 163.656 102.698 164.592 102.41 165.152C101.074 167.768 100.778 170.768 100.658 173.36C100.61 174.464 100.594 175.632 101.026 176.624C101.402 177.496 102.322 178.336 103.322 178.24C103.554 178.216 103.738 178.384 103.754 178.6C103.77 178.824 103.61 179.016 103.394 179.032C103.29 179.032 103.218 179.04 103.146 179.04Z" fill="#000001"/>
<path d="M102.873 176.736C102.665 176.736 102.497 176.576 102.473 176.368C102.137 172.592 102.617 168.704 103.873 165.128C103.945 164.92 104.177 164.808 104.385 164.88C104.593 164.952 104.705 165.184 104.633 165.392C103.417 168.864 102.945 172.632 103.273 176.296C103.289 176.52 103.129 176.712 102.913 176.728C102.897 176.736 102.881 176.736 102.873 176.736Z" fill="#000001"/>
<path d="M104.569 174.192C104.529 174.192 104.489 174.184 104.449 174.176C104.241 174.112 104.121 173.888 104.185 173.68C104.233 173.52 104.113 173.32 103.905 173.008C103.681 172.672 103.417 172.296 103.457 171.816C103.473 171.6 103.553 171.416 103.617 171.264L104.273 169.712C104.361 169.512 104.593 169.416 104.793 169.496C104.993 169.584 105.089 169.816 105.009 170.016L104.353 171.568C104.305 171.672 104.265 171.784 104.257 171.872C104.241 172.064 104.401 172.296 104.569 172.544C104.817 172.904 105.121 173.352 104.953 173.896C104.897 174.08 104.737 174.192 104.569 174.192Z" fill="#000001"/>
<path d="M78.8497 206.568C78.8337 206.568 78.8177 206.568 78.8017 206.568C78.5857 206.544 78.4257 206.344 78.4497 206.128L80.0257 192.184C80.0497 191.992 80.2097 191.84 80.4017 191.832L94.7857 191.12L99.6736 174.12C99.7376 173.904 99.9617 173.784 100.17 173.848C100.386 173.912 100.506 174.128 100.442 174.344L95.4736 191.616C95.4256 191.784 95.2816 191.896 95.1056 191.904L80.7777 192.616L79.2417 206.216C79.2257 206.416 79.0497 206.568 78.8497 206.568Z" fill="#000001"/>
<path d="M106.36 219.687C106.32 219.687 106.288 219.679 106.248 219.671C96.328 216.751 86.072 213.735 75.552 214.439C75.336 214.455 75.144 214.287 75.128 214.063C75.112 213.839 75.28 213.655 75.504 213.639C86.168 212.935 96.952 216.104 106.48 218.904C106.688 218.968 106.816 219.191 106.752 219.399C106.696 219.575 106.536 219.687 106.36 219.687Z" fill="#000001"/>
<path d="M115.025 252.512C115.009 252.512 114.993 252.512 114.977 252.512C114.761 252.488 114.601 252.288 114.625 252.072C115.513 244.368 116.889 235.592 121.929 228.976C122.065 228.8 122.313 228.768 122.489 228.904C122.665 229.04 122.697 229.288 122.561 229.464C117.641 235.92 116.289 244.568 115.409 252.168C115.401 252.36 115.225 252.512 115.025 252.512Z" fill="#000001"/>
<path d="M124.977 278.391C124.841 278.391 124.713 278.327 124.633 278.199C121.681 273.423 118.793 268.527 116.049 263.639C115.937 263.447 116.009 263.207 116.201 263.095C116.393 262.991 116.641 263.055 116.745 263.247C119.481 268.127 122.361 273.015 125.313 277.783C125.433 277.967 125.369 278.215 125.185 278.335C125.121 278.375 125.049 278.391 124.977 278.391Z" fill="#000001"/>
<path d="M161.824 304.992C161.672 304.992 161.52 304.904 161.456 304.752L141.368 257.432L130.384 232.288C130.168 232.016 129.208 230.808 129.016 230.528L127.792 228.408C125.432 227.872 123.264 226.72 121.168 225.6C120.8 225.4 120.432 225.208 120.064 225.016C116.096 222.944 111.912 221.224 107.632 219.904C107.536 219.872 107.448 219.808 107.4 219.712C106.208 217.536 104.816 215.096 104.544 214.776C104.464 214.72 104.416 214.632 104.392 214.536C104.136 213.216 102.736 212.4 101.272 211.72C95.2484 208.912 88.4324 205.712 81.3204 205.936C81.1284 205.936 80.9124 205.768 80.9124 205.544C80.9044 205.32 81.0804 205.136 81.3044 205.136C88.5844 204.936 95.5124 208.144 101.616 210.992C103.248 211.752 104.8 212.68 105.168 214.288C105.464 214.656 106.144 215.752 108.032 219.192C112.304 220.512 116.48 222.232 120.44 224.312C120.808 224.504 121.176 224.704 121.552 224.904C123.648 226.024 125.816 227.176 128.136 227.672C128.248 227.696 128.344 227.768 128.4 227.864L129.696 230.12C129.832 230.328 130.712 231.432 131.04 231.84C131.064 231.864 131.08 231.896 131.096 231.928L142.104 257.12L162.192 304.448C162.28 304.648 162.184 304.888 161.976 304.976C161.928 304.984 161.88 304.992 161.824 304.992Z" fill="#000001"/>
<path d="M135.464 226.464C135.368 226.464 135.272 226.432 135.2 226.368L132.72 224.184C132.616 224.096 132.568 223.96 132.592 223.824C132.616 223.688 132.696 223.576 132.824 223.52L135.728 222.216C135.792 222.184 135.872 222.176 135.944 222.184L141.752 222.968C141.968 223 142.128 223.2 142.096 223.416C142.064 223.632 141.864 223.8 141.648 223.76L135.96 222.992L133.728 223.992L135.624 225.664L140.36 225.504C140.568 225.512 140.768 225.672 140.776 225.888C140.784 226.112 140.608 226.296 140.392 226.304L135.504 226.464C135.472 226.464 135.464 226.464 135.464 226.464Z" fill="#000001"/>
<path d="M164.882 229.232C164.866 229.232 164.858 229.232 164.842 229.232L149.386 227.768C149.17 227.744 149.002 227.552 149.026 227.336C149.05 227.12 149.242 226.968 149.458 226.976L164.594 228.416L165.002 227.144L147.53 224.376C147.314 224.344 147.162 224.136 147.194 223.92C147.226 223.704 147.434 223.552 147.65 223.584L165.586 226.424C165.698 226.44 165.802 226.512 165.866 226.608C165.93 226.704 165.938 226.832 165.906 226.944L165.25 228.968C165.21 229.12 165.05 229.232 164.882 229.232Z" fill="#000001"/>
<path d="M133.976 209.176C133.664 209.176 133.296 209.144 133.016 208.896C132.736 208.656 132.648 208.32 132.584 208.048L132.56 207.944C132.152 206.408 130.576 205.512 129.208 205.312C127.544 205.064 125.848 205.608 124.552 206.104C124.136 206.264 123.728 206.432 123.312 206.6C122.192 207.056 121.032 207.536 119.808 207.792C119.592 207.832 119.376 207.704 119.336 207.488C119.288 207.272 119.424 207.056 119.64 207.016C120.792 206.768 121.92 206.312 123.008 205.864C123.424 205.696 123.848 205.52 124.264 205.36C125.648 204.832 127.48 204.264 129.32 204.528C130.952 204.768 132.832 205.848 133.336 207.744L133.368 207.856C133.416 208.04 133.456 208.216 133.544 208.288C133.632 208.368 133.824 208.376 133.984 208.376C135.432 208.376 136.8 207.848 138.248 207.288C139.824 206.68 141.464 206.056 143.192 206.176C144.184 206.248 145.128 206.552 146.04 206.856C147.184 207.232 148.264 207.584 149.376 207.48C149.6 207.464 149.792 207.624 149.808 207.84C149.824 208.056 149.664 208.256 149.448 208.272C148.168 208.384 146.96 207.992 145.792 207.608C144.88 207.312 144.024 207.032 143.136 206.968C141.576 206.856 140.096 207.432 138.536 208.032C137.072 208.592 135.568 209.176 133.976 209.176Z" fill="#000001"/>
<path d="M158.024 208.568C157.92 208.608 157.792 208.512 157.712 208.424C156.928 207.472 156.312 206.4 155.88 205.248C155.8 205.04 155.904 204.808 156.112 204.736C156.32 204.664 156.552 204.768 156.624 204.968C156.968 205.888 157.44 206.752 158.032 207.536C159.848 205.416 161.84 203.408 163.944 201.576C164.568 201.032 165.248 200.464 165.992 199.976C166.176 199.856 166.464 199.88 166.584 200.064C166.704 200.248 166.696 200.472 166.504 200.592L166.424 200.648C165.72 201.112 165.064 201.656 164.464 202.176C162.264 204.088 160.2 206.184 158.32 208.416C158.256 208.52 158.144 208.568 158.024 208.568Z" fill="#000001"/>
<path d="M160.345 223.887C160.281 223.887 160.225 223.879 160.161 223.871C159.857 223.815 159.633 223.631 159.449 223.455C158.673 222.743 157.993 221.927 157.417 221.047C157.297 220.863 157.345 220.615 157.537 220.495C157.721 220.375 157.969 220.423 158.089 220.615C158.633 221.439 159.273 222.199 159.993 222.871C160.105 222.967 160.217 223.071 160.305 223.087C160.393 223.103 160.561 223.063 160.857 222.751C161.393 222.175 161.833 221.511 162.289 220.815L162.593 220.351C164.113 218.087 165.905 216.015 167.921 214.191C168.081 214.039 168.337 214.055 168.489 214.215C168.641 214.383 168.625 214.631 168.465 214.783C166.497 216.567 164.745 218.591 163.265 220.799L162.961 221.255C162.505 221.951 162.033 222.663 161.441 223.295C161.297 223.447 160.889 223.887 160.345 223.887Z" fill="#000001"/>
<path d="M162.305 242.472C162.193 242.472 162.089 242.424 162.017 242.352L158.833 239.032C158.681 238.872 158.689 238.616 158.841 238.464C159.001 238.312 159.257 238.32 159.409 238.472L162.265 241.448C164.489 238.424 166.953 235.544 169.601 232.888C169.761 232.728 170.009 232.728 170.169 232.888C170.329 233.048 170.329 233.296 170.169 233.456C167.433 236.192 164.897 239.168 162.633 242.304C162.561 242.4 162.457 242.464 162.337 242.472C162.329 242.472 162.321 242.472 162.305 242.472Z" fill="#000001"/>
<path d="M88.0328 160.84C87.8248 160.84 87.6568 160.688 87.6328 160.48C87.1208 154.936 90.0008 149.328 94.8008 146.512C99.6008 143.704 105.905 143.936 110.489 147.096C110.673 147.224 110.713 147.472 110.593 147.656C110.473 147.84 110.217 147.88 110.033 147.76C105.769 144.816 99.6728 144.592 95.2008 147.208C90.7288 149.824 87.9448 155.256 88.4248 160.408C88.4488 160.632 88.2808 160.824 88.0648 160.84C88.0568 160.84 88.0408 160.84 88.0328 160.84Z" fill="#000001"/>
<path d="M77.7044 175.456C77.5204 175.456 77.3524 175.328 77.3124 175.136C77.2644 174.92 77.4004 174.704 77.6164 174.664C82.5284 173.608 86.7844 170.072 88.7124 165.432C88.8004 165.224 89.0324 165.128 89.2324 165.216C89.4324 165.304 89.5364 165.536 89.4484 165.736C87.4164 170.616 82.9444 174.336 77.7844 175.448C77.7604 175.448 77.7284 175.456 77.7044 175.456Z" fill="#000001"/>
<path d="M145.176 240.248C145.072 240.248 144.96 240.208 144.88 240.12C143.632 238.776 142.88 236.84 142.768 234.672C142.68 232.992 142.976 231.336 143.312 229.936L142.088 230.72C141.512 231.088 140.856 231.512 140.096 231.656C139.192 231.84 138.296 231.544 137.832 230.92C137.808 230.888 137.784 230.848 137.776 230.808C137.704 230.592 137.68 230.512 142.232 221.944C142.264 221.88 142.312 221.832 142.376 221.792C143.696 220.968 145.368 221.504 146.36 222.352C147.36 223.2 147.952 224.368 148.52 225.496L148.576 225.6C149.152 226.736 149.752 227.816 150.68 228.496C150.856 228.624 150.896 228.88 150.768 229.056C150.64 229.232 150.384 229.272 150.208 229.144C149.136 228.36 148.48 227.192 147.864 225.968L147.808 225.864C147.272 224.808 146.72 223.712 145.84 222.968C145.064 222.304 143.816 221.92 142.888 222.432C141.336 225.352 139.088 229.624 138.624 230.616C138.976 230.92 139.52 230.976 139.952 230.888C140.56 230.768 141.12 230.408 141.664 230.056L143.744 228.72C143.88 228.632 144.064 228.632 144.2 228.736C144.336 228.832 144.392 229.008 144.352 229.168C143.936 230.672 143.472 232.656 143.576 234.64C143.68 236.616 144.352 238.376 145.472 239.584C145.624 239.744 145.616 240 145.448 240.152C145.376 240.208 145.28 240.248 145.176 240.248Z" fill="#000001"/>
<path d="M143.12 245.736C143.04 245.736 142.952 245.712 142.88 245.656C140.256 243.664 138.856 240.272 139.32 237.016C139.352 236.8 139.552 236.648 139.776 236.68C139.992 236.712 140.144 236.912 140.112 237.136C139.696 240.064 141 243.24 143.36 245.032C143.536 245.168 143.568 245.416 143.44 245.592C143.36 245.68 143.248 245.736 143.12 245.736Z" fill="#000001"/>
<path d="M138.697 237.184C138.585 237.184 138.457 237.168 138.337 237.12C137.809 236.904 137.753 236.368 137.705 235.968C137.681 235.736 137.657 235.504 137.561 235.4C137.473 235.312 137.281 235.28 137.073 235.248C136.769 235.2 136.393 235.152 136.121 234.864C135.777 234.504 135.745 233.92 136.025 233.32C136.065 233.232 136.113 233.152 136.153 233.064C136.273 232.832 136.393 232.608 136.393 232.408C136.393 232.168 136.241 231.928 136.065 231.656C135.937 231.448 135.801 231.24 135.705 230.992C135.369 230.112 135.737 229.192 136.097 228.4C136.457 227.624 136.817 226.856 137.193 226.096C137.289 225.896 137.529 225.816 137.729 225.912C137.929 226.008 138.009 226.248 137.913 226.448C137.545 227.208 137.177 227.968 136.825 228.736C136.513 229.408 136.233 230.12 136.457 230.712C136.521 230.88 136.625 231.048 136.745 231.224C136.961 231.56 137.201 231.936 137.201 232.408C137.201 232.808 137.025 233.136 136.873 233.432C136.833 233.504 136.793 233.584 136.761 233.656C136.657 233.88 136.593 234.184 136.713 234.312C136.801 234.4 136.993 234.432 137.201 234.456C137.505 234.504 137.873 234.552 138.153 234.84C138.433 235.136 138.481 235.544 138.521 235.872C138.553 236.144 138.577 236.336 138.657 236.368C138.681 236.376 138.745 236.384 138.881 236.352C139.785 236.144 140.473 235.4 141.209 234.528C141.353 234.36 141.601 234.336 141.769 234.48C141.937 234.624 141.961 234.872 141.817 235.04C141.177 235.8 140.297 236.848 139.057 237.128C138.945 237.16 138.825 237.184 138.697 237.184Z" fill="#000001"/>
<path d="M151.912 224.655C151.8 224.655 151.696 224.615 151.616 224.527L146.04 218.447C145.416 217.831 144.392 217.343 143.64 217.775C143.392 217.911 143.193 218.135 142.969 218.391C141.785 219.751 140.712 221.215 139.776 222.751C139.664 222.943 139.416 222.999 139.224 222.887C139.032 222.775 138.976 222.527 139.088 222.335C140.048 220.767 141.152 219.263 142.36 217.871C142.624 217.567 142.888 217.279 143.24 217.079C144.368 216.447 145.744 217.031 146.608 217.895L152.2 223.991C152.352 224.151 152.336 224.407 152.176 224.559C152.104 224.623 152.008 224.655 151.912 224.655Z" fill="#000001"/>
<path d="M153.514 239.744C153.506 239.744 153.506 239.744 153.498 239.744C153.274 239.736 153.106 239.552 153.114 239.336L153.442 228.488C153.45 228.264 153.642 228.112 153.858 228.096C154.082 228.104 154.25 228.288 154.242 228.504L153.914 239.352C153.906 239.576 153.722 239.744 153.514 239.744Z" fill="#000001"/>
<path d="M143.21 249.696C143.034 249.696 142.866 249.576 142.826 249.392C142.546 248.248 142.378 247.184 142.306 246.128C142.298 246.008 142.346 245.888 142.434 245.808C145.53 243.016 149.378 239.544 154.074 238.6C154.274 238.56 154.482 238.688 154.538 238.888L155.45 242.248C155.506 242.464 155.378 242.68 155.17 242.736C154.962 242.792 154.738 242.672 154.682 242.456L153.874 239.464C149.626 240.448 146.042 243.64 143.13 246.272C143.202 247.224 143.362 248.184 143.618 249.208C143.674 249.424 143.538 249.64 143.322 249.688C143.274 249.688 143.242 249.696 143.21 249.696Z" fill="#000001"/>
<path d="M166.113 279.704C165.937 279.704 165.769 279.584 165.729 279.4L156.905 243.664C156.033 243.072 154.825 242.888 153.569 243.152C152.321 243.416 151.169 244.056 150.113 244.704C146.689 246.816 144.257 249.064 142.689 251.568C142.409 252.416 142.185 253.232 142.449 253.92C142.489 254.032 142.545 254.136 142.601 254.24C142.705 254.44 142.817 254.664 142.873 254.928C142.985 255.448 142.753 256.096 142.185 256.24C141.977 256.296 141.753 256.168 141.697 255.952C141.641 255.736 141.769 255.52 141.985 255.464C142.049 255.448 142.121 255.272 142.089 255.096C142.057 254.944 141.977 254.776 141.889 254.608C141.825 254.48 141.761 254.352 141.705 254.216C141.337 253.272 141.609 252.28 141.945 251.272C141.953 251.24 141.969 251.216 141.985 251.184C143.625 248.552 146.145 246.216 149.697 244.016C150.817 243.328 152.041 242.648 153.409 242.36C154.945 242.04 156.441 242.304 157.505 243.096C157.577 243.152 157.633 243.232 157.657 243.32L166.521 279.2C166.577 279.416 166.441 279.632 166.225 279.688C166.177 279.704 166.145 279.704 166.113 279.704Z" fill="#000001"/>
</svg>
