<svg width="780" height="641" viewBox="0 0 780 641" fill="none" xmlns="http://www.w3.org/2000/svg">
<g clip-path="url(#clip0_9367_1714)">
<rect width="780" height="641" rx="38" fill="white"/>
<rect x="9" y="632" width="623" height="762" rx="30" transform="rotate(-90 9 632)" fill="url(#paint0_linear_9367_1714)" fill-opacity="0.2"/>
<rect x="4.5" y="636.5" width="632" height="771" rx="34.5" transform="rotate(-90 4.5 636.5)" stroke="url(#paint1_linear_9367_1714)" stroke-opacity="0.4" stroke-width="9"/>
<g filter="url(#filter0_d_9367_1714)">
<mask id="path-4-outside-1_9367_1714" maskUnits="userSpaceOnUse" x="52" y="165" width="446" height="453" fill="black">
<rect fill="white" x="52" y="165" width="446" height="453"/>
<path d="M61 204C61 187.431 74.4315 174 91 174H498V609H91C74.4315 609 61 595.569 61 579V204Z"/>
</mask>
<path d="M61 204C61 187.431 74.4315 174 91 174H498V609H91C74.4315 609 61 595.569 61 579V204Z" fill="white"/>
<path d="M52 204C52 182.461 69.4609 165 91 165H498V183H91C79.402 183 70 192.402 70 204H52ZM498 618H91C69.4609 618 52 600.539 52 579H70C70 590.598 79.402 600 91 600H498V618ZM91 618C69.4609 618 52 600.539 52 579V204C52 182.461 69.4609 165 91 165V183C79.402 183 70 192.402 70 204V579C70 590.598 79.402 600 91 600V618ZM498 174V609V174Z" fill="#EBEEF1" mask="url(#path-4-outside-1_9367_1714)"/>
</g>
<path d="M99.54 216.59C99.6867 216.59 99.8167 216.647 99.93 216.76L100.99 217.91C100.403 218.637 99.68 219.193 98.82 219.58C97.9667 219.967 96.94 220.16 95.74 220.16C94.6667 220.16 93.7 219.977 92.84 219.61C91.9867 219.243 91.2567 218.733 90.65 218.08C90.0433 217.427 89.5767 216.647 89.25 215.74C88.93 214.833 88.77 213.843 88.77 212.77C88.77 211.683 88.9433 210.69 89.29 209.79C89.6367 208.883 90.1233 208.103 90.75 207.45C91.3833 206.797 92.1367 206.29 93.01 205.93C93.8833 205.563 94.85 205.38 95.91 205.38C96.9633 205.38 97.8967 205.553 98.71 205.9C99.53 206.247 100.227 206.7 100.8 207.26L99.9 208.51C99.8467 208.59 99.7767 208.66 99.69 208.72C99.61 208.78 99.4967 208.81 99.35 208.81C99.25 208.81 99.1467 208.783 99.04 208.73C98.9333 208.67 98.8167 208.6 98.69 208.52C98.5633 208.433 98.4167 208.34 98.25 208.24C98.0833 208.14 97.89 208.05 97.67 207.97C97.45 207.883 97.1933 207.813 96.9 207.76C96.6133 207.7 96.28 207.67 95.9 207.67C95.2533 207.67 94.66 207.787 94.12 208.02C93.5867 208.247 93.1267 208.58 92.74 209.02C92.3533 209.453 92.0533 209.987 91.84 210.62C91.6267 211.247 91.52 211.963 91.52 212.77C91.52 213.583 91.6333 214.307 91.86 214.94C92.0933 215.573 92.4067 216.107 92.8 216.54C93.1933 216.973 93.6567 217.307 94.19 217.54C94.7233 217.767 95.2967 217.88 95.91 217.88C96.2767 217.88 96.6067 217.86 96.9 217.82C97.2 217.78 97.4733 217.717 97.72 217.63C97.9733 217.543 98.21 217.433 98.43 217.3C98.6567 217.16 98.88 216.99 99.1 216.79C99.1667 216.73 99.2367 216.683 99.31 216.65C99.3833 216.61 99.46 216.59 99.54 216.59ZM106.768 209.58C107.528 209.58 108.218 209.703 108.838 209.95C109.464 210.197 109.998 210.547 110.438 211C110.884 211.453 111.228 212.007 111.468 212.66C111.708 213.313 111.828 214.043 111.828 214.85C111.828 215.663 111.708 216.397 111.468 217.05C111.228 217.703 110.884 218.26 110.438 218.72C109.998 219.18 109.464 219.533 108.838 219.78C108.218 220.027 107.528 220.15 106.768 220.15C106.001 220.15 105.304 220.027 104.678 219.78C104.051 219.533 103.514 219.18 103.068 218.72C102.628 218.26 102.284 217.703 102.038 217.05C101.798 216.397 101.678 215.663 101.678 214.85C101.678 214.043 101.798 213.313 102.038 212.66C102.284 212.007 102.628 211.453 103.068 211C103.514 210.547 104.051 210.197 104.678 209.95C105.304 209.703 106.001 209.58 106.768 209.58ZM106.768 218.25C107.621 218.25 108.251 217.963 108.658 217.39C109.071 216.817 109.278 215.977 109.278 214.87C109.278 213.763 109.071 212.92 108.658 212.34C108.251 211.76 107.621 211.47 106.768 211.47C105.901 211.47 105.258 211.763 104.838 212.35C104.424 212.93 104.218 213.77 104.218 214.87C104.218 215.97 104.424 216.81 104.838 217.39C105.258 217.963 105.901 218.25 106.768 218.25ZM119.972 211.74C119.906 211.847 119.836 211.923 119.762 211.97C119.689 212.01 119.596 212.03 119.482 212.03C119.362 212.03 119.232 211.997 119.092 211.93C118.959 211.863 118.802 211.79 118.622 211.71C118.442 211.623 118.236 211.547 118.002 211.48C117.776 211.413 117.506 211.38 117.192 211.38C116.706 211.38 116.322 211.483 116.042 211.69C115.769 211.897 115.632 212.167 115.632 212.5C115.632 212.72 115.702 212.907 115.842 213.06C115.989 213.207 116.179 213.337 116.412 213.45C116.652 213.563 116.922 213.667 117.222 213.76C117.522 213.847 117.826 213.943 118.132 214.05C118.446 214.157 118.752 214.28 119.052 214.42C119.352 214.553 119.619 214.727 119.852 214.94C120.092 215.147 120.282 215.397 120.422 215.69C120.569 215.983 120.642 216.337 120.642 216.75C120.642 217.243 120.552 217.7 120.372 218.12C120.199 218.533 119.939 218.893 119.592 219.2C119.246 219.5 118.816 219.737 118.302 219.91C117.796 220.077 117.209 220.16 116.542 220.16C116.189 220.16 115.842 220.127 115.502 220.06C115.169 220 114.846 219.913 114.532 219.8C114.226 219.687 113.939 219.553 113.672 219.4C113.412 219.247 113.182 219.08 112.982 218.9L113.552 217.96C113.626 217.847 113.712 217.76 113.812 217.7C113.912 217.64 114.039 217.61 114.192 217.61C114.346 217.61 114.489 217.653 114.622 217.74C114.762 217.827 114.922 217.92 115.102 218.02C115.282 218.12 115.492 218.213 115.732 218.3C115.979 218.387 116.289 218.43 116.662 218.43C116.956 218.43 117.206 218.397 117.412 218.33C117.626 218.257 117.799 218.163 117.932 218.05C118.072 217.937 118.172 217.807 118.232 217.66C118.299 217.507 118.332 217.35 118.332 217.19C118.332 216.95 118.259 216.753 118.112 216.6C117.972 216.447 117.782 216.313 117.542 216.2C117.309 216.087 117.039 215.987 116.732 215.9C116.432 215.807 116.122 215.707 115.802 215.6C115.489 215.493 115.179 215.37 114.872 215.23C114.572 215.083 114.302 214.9 114.062 214.68C113.829 214.46 113.639 214.19 113.492 213.87C113.352 213.55 113.282 213.163 113.282 212.71C113.282 212.29 113.366 211.89 113.532 211.51C113.699 211.13 113.942 210.8 114.262 210.52C114.589 210.233 114.992 210.007 115.472 209.84C115.959 209.667 116.519 209.58 117.152 209.58C117.859 209.58 118.502 209.697 119.082 209.93C119.662 210.163 120.146 210.47 120.532 210.85L119.972 211.74ZM125.921 220.16C125.028 220.16 124.341 219.91 123.861 219.41C123.388 218.903 123.151 218.207 123.151 217.32V211.59H122.101C121.968 211.59 121.855 211.547 121.761 211.46C121.668 211.373 121.621 211.243 121.621 211.07V210.09L123.271 209.82L123.791 207.02C123.825 206.887 123.888 206.783 123.981 206.71C124.075 206.637 124.195 206.6 124.341 206.6H125.621V209.83H128.361V211.59H125.621V217.15C125.621 217.47 125.698 217.72 125.851 217.9C126.011 218.08 126.228 218.17 126.501 218.17C126.655 218.17 126.781 218.153 126.881 218.12C126.988 218.08 127.078 218.04 127.151 218C127.231 217.96 127.301 217.923 127.361 217.89C127.421 217.85 127.481 217.83 127.541 217.83C127.615 217.83 127.675 217.85 127.721 217.89C127.768 217.923 127.818 217.977 127.871 218.05L128.611 219.25C128.251 219.55 127.838 219.777 127.371 219.93C126.905 220.083 126.421 220.16 125.921 220.16ZM145.126 216.59C145.273 216.59 145.403 216.647 145.516 216.76L146.576 217.91C145.989 218.637 145.266 219.193 144.406 219.58C143.553 219.967 142.526 220.16 141.326 220.16C140.253 220.16 139.286 219.977 138.426 219.61C137.573 219.243 136.843 218.733 136.236 218.08C135.629 217.427 135.163 216.647 134.836 215.74C134.516 214.833 134.356 213.843 134.356 212.77C134.356 211.683 134.529 210.69 134.876 209.79C135.223 208.883 135.709 208.103 136.336 207.45C136.969 206.797 137.723 206.29 138.596 205.93C139.469 205.563 140.436 205.38 141.496 205.38C142.549 205.38 143.483 205.553 144.296 205.9C145.116 206.247 145.813 206.7 146.386 207.26L145.486 208.51C145.433 208.59 145.363 208.66 145.276 208.72C145.196 208.78 145.083 208.81 144.936 208.81C144.836 208.81 144.733 208.783 144.626 208.73C144.519 208.67 144.403 208.6 144.276 208.52C144.149 208.433 144.003 208.34 143.836 208.24C143.669 208.14 143.476 208.05 143.256 207.97C143.036 207.883 142.779 207.813 142.486 207.76C142.199 207.7 141.866 207.67 141.486 207.67C140.839 207.67 140.246 207.787 139.706 208.02C139.173 208.247 138.713 208.58 138.326 209.02C137.939 209.453 137.639 209.987 137.426 210.62C137.213 211.247 137.106 211.963 137.106 212.77C137.106 213.583 137.219 214.307 137.446 214.94C137.679 215.573 137.993 216.107 138.386 216.54C138.779 216.973 139.243 217.307 139.776 217.54C140.309 217.767 140.883 217.88 141.496 217.88C141.863 217.88 142.193 217.86 142.486 217.82C142.786 217.78 143.059 217.717 143.306 217.63C143.559 217.543 143.796 217.433 144.016 217.3C144.243 217.16 144.466 216.99 144.686 216.79C144.753 216.73 144.823 216.683 144.896 216.65C144.969 216.61 145.046 216.59 145.126 216.59ZM156.732 209.74V220H155.222C154.895 220 154.689 219.85 154.602 219.55L154.432 218.73C154.012 219.157 153.549 219.503 153.042 219.77C152.535 220.03 151.939 220.16 151.252 220.16C150.692 220.16 150.195 220.067 149.762 219.88C149.335 219.687 148.975 219.417 148.682 219.07C148.389 218.723 148.165 218.313 148.012 217.84C147.865 217.36 147.792 216.833 147.792 216.26V209.74H150.262V216.26C150.262 216.887 150.405 217.373 150.692 217.72C150.985 218.06 151.422 218.23 152.002 218.23C152.429 218.23 152.829 218.137 153.202 217.95C153.575 217.757 153.929 217.493 154.262 217.16V209.74H156.732ZM175.951 220H173.481V211.59H168.921V217.15C168.921 217.47 169.001 217.72 169.161 217.9C169.321 218.08 169.538 218.17 169.811 218.17C169.958 218.17 170.084 218.153 170.191 218.12C170.298 218.08 170.388 218.04 170.461 218C170.541 217.96 170.611 217.923 170.671 217.89C170.731 217.85 170.791 217.83 170.851 217.83C170.924 217.83 170.984 217.85 171.031 217.89C171.078 217.923 171.128 217.977 171.181 218.05L171.921 219.25C171.561 219.55 171.148 219.777 170.681 219.93C170.214 220.083 169.731 220.16 169.231 220.16C168.338 220.16 167.651 219.91 167.171 219.41C166.691 218.903 166.451 218.207 166.451 217.32V211.59H162.301V217.15C162.301 217.47 162.378 217.72 162.531 217.9C162.691 218.08 162.908 218.17 163.181 218.17C163.334 218.17 163.461 218.153 163.561 218.12C163.668 218.08 163.758 218.04 163.831 218C163.911 217.96 163.981 217.923 164.041 217.89C164.101 217.85 164.161 217.83 164.221 217.83C164.294 217.83 164.354 217.85 164.401 217.89C164.448 217.923 164.498 217.977 164.551 218.05L165.291 219.25C164.931 219.55 164.518 219.777 164.051 219.93C163.584 220.083 163.101 220.16 162.601 220.16C161.708 220.16 161.021 219.91 160.541 219.41C160.068 218.903 159.831 218.207 159.831 217.32V211.59H158.781C158.648 211.59 158.534 211.547 158.441 211.46C158.348 211.373 158.301 211.243 158.301 211.07V210.09L159.951 209.81L160.471 207.02C160.504 206.887 160.568 206.783 160.661 206.71C160.754 206.637 160.874 206.6 161.021 206.6H162.301V209.83H166.571L167.101 207.02C167.134 206.887 167.194 206.783 167.281 206.71C167.374 206.637 167.498 206.6 167.651 206.6H168.921V209.83H175.951V220ZM176.341 206.71C176.341 206.923 176.298 207.127 176.211 207.32C176.124 207.507 176.008 207.67 175.861 207.81C175.721 207.95 175.551 208.063 175.351 208.15C175.158 208.23 174.951 208.27 174.731 208.27C174.518 208.27 174.318 208.23 174.131 208.15C173.944 208.063 173.781 207.95 173.641 207.81C173.501 207.67 173.388 207.507 173.301 207.32C173.221 207.127 173.181 206.923 173.181 206.71C173.181 206.49 173.221 206.287 173.301 206.1C173.388 205.907 173.501 205.74 173.641 205.6C173.781 205.453 173.944 205.34 174.131 205.26C174.318 205.173 174.518 205.13 174.731 205.13C174.951 205.13 175.158 205.173 175.351 205.26C175.551 205.34 175.721 205.453 175.861 205.6C176.008 205.74 176.124 205.907 176.211 206.1C176.298 206.287 176.341 206.49 176.341 206.71ZM180.788 211C180.994 210.793 181.211 210.603 181.438 210.43C181.671 210.25 181.914 210.1 182.168 209.98C182.428 209.853 182.704 209.757 182.998 209.69C183.291 209.617 183.611 209.58 183.958 209.58C184.518 209.58 185.014 209.677 185.448 209.87C185.881 210.057 186.241 210.323 186.528 210.67C186.821 211.01 187.041 211.42 187.188 211.9C187.341 212.373 187.418 212.897 187.418 213.47V220H184.948V213.47C184.948 212.843 184.804 212.36 184.518 212.02C184.231 211.673 183.794 211.5 183.208 211.5C182.781 211.5 182.381 211.597 182.008 211.79C181.634 211.983 181.281 212.247 180.948 212.58V220H178.478V209.74H179.988C180.308 209.74 180.518 209.89 180.618 210.19L180.788 211ZM193.517 214.62C193.824 214.62 194.09 214.58 194.317 214.5C194.544 214.413 194.73 214.297 194.877 214.15C195.03 214.003 195.144 213.827 195.217 213.62C195.297 213.413 195.337 213.187 195.337 212.94C195.337 212.433 195.184 212.033 194.877 211.74C194.577 211.44 194.124 211.29 193.517 211.29C192.91 211.29 192.454 211.44 192.147 211.74C191.847 212.033 191.697 212.433 191.697 212.94C191.697 213.18 191.734 213.403 191.807 213.61C191.887 213.817 192 213.997 192.147 214.15C192.3 214.297 192.49 214.413 192.717 214.5C192.95 214.58 193.217 214.62 193.517 214.62ZM196.307 220.46C196.307 220.26 196.247 220.097 196.127 219.97C196.007 219.843 195.844 219.747 195.637 219.68C195.43 219.607 195.187 219.553 194.907 219.52C194.634 219.487 194.34 219.463 194.027 219.45C193.72 219.43 193.4 219.413 193.067 219.4C192.74 219.387 192.42 219.36 192.107 219.32C191.834 219.473 191.61 219.653 191.437 219.86C191.27 220.067 191.187 220.307 191.187 220.58C191.187 220.76 191.23 220.927 191.317 221.08C191.41 221.24 191.554 221.377 191.747 221.49C191.947 221.603 192.204 221.69 192.517 221.75C192.83 221.817 193.214 221.85 193.667 221.85C194.127 221.85 194.524 221.813 194.857 221.74C195.19 221.673 195.464 221.577 195.677 221.45C195.897 221.33 196.057 221.183 196.157 221.01C196.257 220.843 196.307 220.66 196.307 220.46ZM198.767 210.09V211.01C198.767 211.303 198.59 211.483 198.237 211.55L197.317 211.72C197.457 212.073 197.527 212.46 197.527 212.88C197.527 213.387 197.424 213.847 197.217 214.26C197.017 214.667 196.737 215.013 196.377 215.3C196.017 215.587 195.59 215.81 195.097 215.97C194.61 216.123 194.084 216.2 193.517 216.2C193.317 216.2 193.124 216.19 192.937 216.17C192.75 216.15 192.567 216.123 192.387 216.09C192.067 216.283 191.907 216.5 191.907 216.74C191.907 216.947 192 217.1 192.187 217.2C192.38 217.293 192.634 217.36 192.947 217.4C193.26 217.44 193.617 217.467 194.017 217.48C194.417 217.487 194.827 217.507 195.247 217.54C195.667 217.573 196.077 217.633 196.477 217.72C196.877 217.8 197.234 217.93 197.547 218.11C197.86 218.29 198.11 218.537 198.297 218.85C198.49 219.157 198.587 219.553 198.587 220.04C198.587 220.493 198.474 220.933 198.247 221.36C198.027 221.787 197.704 222.167 197.277 222.5C196.857 222.833 196.337 223.1 195.717 223.3C195.104 223.507 194.404 223.61 193.617 223.61C192.844 223.61 192.17 223.533 191.597 223.38C191.024 223.233 190.547 223.033 190.167 222.78C189.787 222.533 189.504 222.247 189.317 221.92C189.13 221.593 189.037 221.253 189.037 220.9C189.037 220.42 189.18 220.02 189.467 219.7C189.76 219.373 190.16 219.113 190.667 218.92C190.394 218.78 190.177 218.593 190.017 218.36C189.857 218.127 189.777 217.82 189.777 217.44C189.777 217.287 189.804 217.13 189.857 216.97C189.917 216.803 190 216.64 190.107 216.48C190.22 216.32 190.36 216.17 190.527 216.03C190.694 215.883 190.89 215.753 191.117 215.64C190.597 215.36 190.187 214.987 189.887 214.52C189.594 214.053 189.447 213.507 189.447 212.88C189.447 212.373 189.547 211.917 189.747 211.51C189.954 211.097 190.237 210.747 190.597 210.46C190.964 210.167 191.394 209.943 191.887 209.79C192.387 209.637 192.93 209.56 193.517 209.56C193.957 209.56 194.37 209.607 194.757 209.7C195.144 209.787 195.497 209.917 195.817 210.09H198.767ZM213.287 208.17C213.207 208.31 213.12 208.413 213.027 208.48C212.94 208.54 212.83 208.57 212.697 208.57C212.557 208.57 212.403 208.52 212.237 208.42C212.077 208.313 211.883 208.197 211.657 208.07C211.43 207.943 211.163 207.83 210.857 207.73C210.557 207.623 210.2 207.57 209.787 207.57C209.413 207.57 209.087 207.617 208.807 207.71C208.527 207.797 208.29 207.92 208.097 208.08C207.91 208.24 207.77 208.433 207.677 208.66C207.583 208.88 207.537 209.123 207.537 209.39C207.537 209.73 207.63 210.013 207.817 210.24C208.01 210.467 208.263 210.66 208.577 210.82C208.89 210.98 209.247 211.123 209.647 211.25C210.047 211.377 210.457 211.513 210.877 211.66C211.297 211.8 211.707 211.967 212.107 212.16C212.507 212.347 212.863 212.587 213.177 212.88C213.49 213.167 213.74 213.52 213.927 213.94C214.12 214.36 214.217 214.87 214.217 215.47C214.217 216.123 214.103 216.737 213.877 217.31C213.657 217.877 213.33 218.373 212.897 218.8C212.47 219.22 211.947 219.553 211.327 219.8C210.707 220.04 209.997 220.16 209.197 220.16C208.737 220.16 208.283 220.113 207.837 220.02C207.39 219.933 206.96 219.807 206.547 219.64C206.14 219.473 205.757 219.273 205.397 219.04C205.037 218.807 204.717 218.547 204.437 218.26L205.227 216.97C205.293 216.877 205.38 216.8 205.487 216.74C205.593 216.673 205.707 216.64 205.827 216.64C205.993 216.64 206.173 216.71 206.367 216.85C206.56 216.983 206.79 217.133 207.057 217.3C207.323 217.467 207.633 217.62 207.987 217.76C208.347 217.893 208.777 217.96 209.277 217.96C210.043 217.96 210.637 217.78 211.057 217.42C211.477 217.053 211.687 216.53 211.687 215.85C211.687 215.47 211.59 215.16 211.397 214.92C211.21 214.68 210.96 214.48 210.647 214.32C210.333 214.153 209.977 214.013 209.577 213.9C209.177 213.787 208.77 213.663 208.357 213.53C207.943 213.397 207.537 213.237 207.137 213.05C206.737 212.863 206.38 212.62 206.067 212.32C205.753 212.02 205.5 211.647 205.307 211.2C205.12 210.747 205.027 210.19 205.027 209.53C205.027 209.003 205.13 208.49 205.337 207.99C205.55 207.49 205.857 207.047 206.257 206.66C206.657 206.273 207.15 205.963 207.737 205.73C208.323 205.497 208.997 205.38 209.757 205.38C210.61 205.38 211.397 205.513 212.117 205.78C212.837 206.047 213.45 206.42 213.957 206.9L213.287 208.17ZM223.484 211.91C223.411 212.003 223.337 212.077 223.264 212.13C223.197 212.183 223.097 212.21 222.964 212.21C222.837 212.21 222.714 212.173 222.594 212.1C222.474 212.02 222.331 211.933 222.164 211.84C221.997 211.74 221.797 211.653 221.564 211.58C221.337 211.5 221.054 211.46 220.714 211.46C220.281 211.46 219.901 211.54 219.574 211.7C219.247 211.853 218.974 212.077 218.754 212.37C218.541 212.663 218.381 213.02 218.274 213.44C218.167 213.853 218.114 214.323 218.114 214.85C218.114 215.397 218.171 215.883 218.284 216.31C218.404 216.737 218.574 217.097 218.794 217.39C219.014 217.677 219.281 217.897 219.594 218.05C219.907 218.197 220.261 218.27 220.654 218.27C221.047 218.27 221.364 218.223 221.604 218.13C221.851 218.03 222.057 217.923 222.224 217.81C222.391 217.69 222.534 217.583 222.654 217.49C222.781 217.39 222.921 217.34 223.074 217.34C223.274 217.34 223.424 217.417 223.524 217.57L224.234 218.47C223.961 218.79 223.664 219.06 223.344 219.28C223.024 219.493 222.691 219.667 222.344 219.8C222.004 219.927 221.651 220.017 221.284 220.07C220.924 220.123 220.564 220.15 220.204 220.15C219.571 220.15 218.974 220.033 218.414 219.8C217.854 219.56 217.364 219.213 216.944 218.76C216.524 218.307 216.191 217.753 215.944 217.1C215.704 216.44 215.584 215.69 215.584 214.85C215.584 214.097 215.691 213.4 215.904 212.76C216.124 212.113 216.444 211.557 216.864 211.09C217.284 210.617 217.804 210.247 218.424 209.98C219.044 209.713 219.757 209.58 220.564 209.58C221.331 209.58 222.001 209.703 222.574 209.95C223.154 210.197 223.674 210.55 224.134 211.01L223.484 211.91ZM232.217 213.69C232.217 213.37 232.17 213.07 232.077 212.79C231.99 212.503 231.857 212.253 231.677 212.04C231.497 211.827 231.267 211.66 230.987 211.54C230.713 211.413 230.393 211.35 230.027 211.35C229.313 211.35 228.75 211.553 228.337 211.96C227.93 212.367 227.67 212.943 227.557 213.69H232.217ZM227.507 215.18C227.547 215.707 227.64 216.163 227.787 216.55C227.933 216.93 228.127 217.247 228.367 217.5C228.607 217.747 228.89 217.933 229.217 218.06C229.55 218.18 229.917 218.24 230.317 218.24C230.717 218.24 231.06 218.193 231.347 218.1C231.64 218.007 231.893 217.903 232.107 217.79C232.327 217.677 232.517 217.573 232.677 217.48C232.843 217.387 233.003 217.34 233.157 217.34C233.363 217.34 233.517 217.417 233.617 217.57L234.327 218.47C234.053 218.79 233.747 219.06 233.407 219.28C233.067 219.493 232.71 219.667 232.337 219.8C231.97 219.927 231.593 220.017 231.207 220.07C230.827 220.123 230.457 220.15 230.097 220.15C229.383 220.15 228.72 220.033 228.107 219.8C227.493 219.56 226.96 219.21 226.507 218.75C226.053 218.283 225.697 217.71 225.437 217.03C225.177 216.343 225.047 215.55 225.047 214.65C225.047 213.95 225.16 213.293 225.387 212.68C225.613 212.06 225.937 211.523 226.357 211.07C226.783 210.61 227.3 210.247 227.907 209.98C228.52 209.713 229.21 209.58 229.977 209.58C230.623 209.58 231.22 209.683 231.767 209.89C232.313 210.097 232.783 210.4 233.177 210.8C233.57 211.193 233.877 211.68 234.097 212.26C234.323 212.833 234.437 213.49 234.437 214.23C234.437 214.603 234.397 214.857 234.317 214.99C234.237 215.117 234.083 215.18 233.857 215.18H227.507ZM238.6 211C238.807 210.793 239.024 210.603 239.25 210.43C239.484 210.25 239.727 210.1 239.98 209.98C240.24 209.853 240.517 209.757 240.81 209.69C241.104 209.617 241.424 209.58 241.77 209.58C242.33 209.58 242.827 209.677 243.26 209.87C243.694 210.057 244.054 210.323 244.34 210.67C244.634 211.01 244.854 211.42 245 211.9C245.154 212.373 245.23 212.897 245.23 213.47V220H242.76V213.47C242.76 212.843 242.617 212.36 242.33 212.02C242.044 211.673 241.607 211.5 241.02 211.5C240.594 211.5 240.194 211.597 239.82 211.79C239.447 211.983 239.094 212.247 238.76 212.58V220H236.29V209.74H237.8C238.12 209.74 238.33 209.89 238.43 210.19L238.6 211ZM252.999 215.62C252.286 215.653 251.686 215.717 251.199 215.81C250.713 215.897 250.323 216.01 250.029 216.15C249.736 216.29 249.526 216.453 249.399 216.64C249.273 216.827 249.209 217.03 249.209 217.25C249.209 217.683 249.336 217.993 249.589 218.18C249.849 218.367 250.186 218.46 250.599 218.46C251.106 218.46 251.543 218.37 251.909 218.19C252.283 218.003 252.646 217.723 252.999 217.35V215.62ZM247.339 211.17C248.519 210.09 249.939 209.55 251.599 209.55C252.199 209.55 252.736 209.65 253.209 209.85C253.683 210.043 254.083 210.317 254.409 210.67C254.736 211.017 254.983 211.433 255.149 211.92C255.323 212.407 255.409 212.94 255.409 213.52V220H254.289C254.056 220 253.876 219.967 253.749 219.9C253.623 219.827 253.523 219.683 253.449 219.47L253.229 218.73C252.969 218.963 252.716 219.17 252.469 219.35C252.223 219.523 251.966 219.67 251.699 219.79C251.433 219.91 251.146 220 250.839 220.06C250.539 220.127 250.206 220.16 249.839 220.16C249.406 220.16 249.006 220.103 248.639 219.99C248.273 219.87 247.956 219.693 247.689 219.46C247.423 219.227 247.216 218.937 247.069 218.59C246.923 218.243 246.849 217.84 246.849 217.38C246.849 217.12 246.893 216.863 246.979 216.61C247.066 216.35 247.206 216.103 247.399 215.87C247.599 215.637 247.856 215.417 248.169 215.21C248.483 215.003 248.866 214.823 249.319 214.67C249.779 214.517 250.313 214.393 250.919 214.3C251.526 214.2 252.219 214.14 252.999 214.12V213.52C252.999 212.833 252.853 212.327 252.559 212C252.266 211.667 251.843 211.5 251.289 211.5C250.889 211.5 250.556 211.547 250.289 211.64C250.029 211.733 249.799 211.84 249.599 211.96C249.399 212.073 249.216 212.177 249.049 212.27C248.889 212.363 248.709 212.41 248.509 212.41C248.336 212.41 248.189 212.367 248.069 212.28C247.949 212.187 247.853 212.08 247.779 211.96L247.339 211.17ZM260.066 211.52C260.386 210.907 260.766 210.427 261.206 210.08C261.646 209.727 262.166 209.55 262.766 209.55C263.239 209.55 263.619 209.653 263.906 209.86L263.746 211.71C263.712 211.83 263.662 211.917 263.596 211.97C263.536 212.017 263.452 212.04 263.346 212.04C263.246 212.04 263.096 212.023 262.896 211.99C262.702 211.957 262.512 211.94 262.326 211.94C262.052 211.94 261.809 211.98 261.596 212.06C261.382 212.14 261.189 212.257 261.016 212.41C260.849 212.557 260.699 212.737 260.566 212.95C260.439 213.163 260.319 213.407 260.206 213.68V220H257.736V209.74H259.186C259.439 209.74 259.616 209.787 259.716 209.88C259.816 209.967 259.882 210.127 259.916 210.36L260.066 211.52ZM267.757 209.74V220H265.277V209.74H267.757ZM268.097 206.75C268.097 206.963 268.053 207.163 267.967 207.35C267.88 207.537 267.763 207.7 267.617 207.84C267.477 207.98 267.31 208.093 267.117 208.18C266.923 208.26 266.717 208.3 266.497 208.3C266.283 208.3 266.08 208.26 265.887 208.18C265.7 208.093 265.537 207.98 265.397 207.84C265.257 207.7 265.143 207.537 265.057 207.35C264.977 207.163 264.937 206.963 264.937 206.75C264.937 206.53 264.977 206.323 265.057 206.13C265.143 205.937 265.257 205.77 265.397 205.63C265.537 205.49 265.7 205.38 265.887 205.3C266.08 205.213 266.283 205.17 266.497 205.17C266.717 205.17 266.923 205.213 267.117 205.3C267.31 205.38 267.477 205.49 267.617 205.63C267.763 205.77 267.88 205.937 267.967 206.13C268.053 206.323 268.097 206.53 268.097 206.75ZM274.815 209.58C275.575 209.58 276.265 209.703 276.885 209.95C277.511 210.197 278.045 210.547 278.485 211C278.931 211.453 279.275 212.007 279.515 212.66C279.755 213.313 279.875 214.043 279.875 214.85C279.875 215.663 279.755 216.397 279.515 217.05C279.275 217.703 278.931 218.26 278.485 218.72C278.045 219.18 277.511 219.533 276.885 219.78C276.265 220.027 275.575 220.15 274.815 220.15C274.048 220.15 273.351 220.027 272.725 219.78C272.098 219.533 271.561 219.18 271.115 218.72C270.675 218.26 270.331 217.703 270.085 217.05C269.845 216.397 269.725 215.663 269.725 214.85C269.725 214.043 269.845 213.313 270.085 212.66C270.331 212.007 270.675 211.453 271.115 211C271.561 210.547 272.098 210.197 272.725 209.95C273.351 209.703 274.048 209.58 274.815 209.58ZM274.815 218.25C275.668 218.25 276.298 217.963 276.705 217.39C277.118 216.817 277.325 215.977 277.325 214.87C277.325 213.763 277.118 212.92 276.705 212.34C276.298 211.76 275.668 211.47 274.815 211.47C273.948 211.47 273.305 211.763 272.885 212.35C272.471 212.93 272.265 213.77 272.265 214.87C272.265 215.97 272.471 216.81 272.885 217.39C273.305 217.963 273.948 218.25 274.815 218.25ZM288.019 211.74C287.952 211.847 287.882 211.923 287.809 211.97C287.736 212.01 287.642 212.03 287.529 212.03C287.409 212.03 287.279 211.997 287.139 211.93C287.006 211.863 286.849 211.79 286.669 211.71C286.489 211.623 286.282 211.547 286.049 211.48C285.822 211.413 285.552 211.38 285.239 211.38C284.752 211.38 284.369 211.483 284.089 211.69C283.816 211.897 283.679 212.167 283.679 212.5C283.679 212.72 283.749 212.907 283.889 213.06C284.036 213.207 284.226 213.337 284.459 213.45C284.699 213.563 284.969 213.667 285.269 213.76C285.569 213.847 285.872 213.943 286.179 214.05C286.492 214.157 286.799 214.28 287.099 214.42C287.399 214.553 287.666 214.727 287.899 214.94C288.139 215.147 288.329 215.397 288.469 215.69C288.616 215.983 288.689 216.337 288.689 216.75C288.689 217.243 288.599 217.7 288.419 218.12C288.246 218.533 287.986 218.893 287.639 219.2C287.292 219.5 286.862 219.737 286.349 219.91C285.842 220.077 285.256 220.16 284.589 220.16C284.236 220.16 283.889 220.127 283.549 220.06C283.216 220 282.892 219.913 282.579 219.8C282.272 219.687 281.986 219.553 281.719 219.4C281.459 219.247 281.229 219.08 281.029 218.9L281.599 217.96C281.672 217.847 281.759 217.76 281.859 217.7C281.959 217.64 282.086 217.61 282.239 217.61C282.392 217.61 282.536 217.653 282.669 217.74C282.809 217.827 282.969 217.92 283.149 218.02C283.329 218.12 283.539 218.213 283.779 218.3C284.026 218.387 284.336 218.43 284.709 218.43C285.002 218.43 285.252 218.397 285.459 218.33C285.672 218.257 285.846 218.163 285.979 218.05C286.119 217.937 286.219 217.807 286.279 217.66C286.346 217.507 286.379 217.35 286.379 217.19C286.379 216.95 286.306 216.753 286.159 216.6C286.019 216.447 285.829 216.313 285.589 216.2C285.356 216.087 285.086 215.987 284.779 215.9C284.479 215.807 284.169 215.707 283.849 215.6C283.536 215.493 283.226 215.37 282.919 215.23C282.619 215.083 282.349 214.9 282.109 214.68C281.876 214.46 281.686 214.19 281.539 213.87C281.399 213.55 281.329 213.163 281.329 212.71C281.329 212.29 281.412 211.89 281.579 211.51C281.746 211.13 281.989 210.8 282.309 210.52C282.636 210.233 283.039 210.007 283.519 209.84C284.006 209.667 284.566 209.58 285.199 209.58C285.906 209.58 286.549 209.697 287.129 209.93C287.709 210.163 288.192 210.47 288.579 210.85L288.019 211.74Z" fill="#1B1C1D"/>
<circle cx="457.662" cy="217.701" r="21.85" transform="rotate(90 457.662 217.701)" fill="#F3F3F3"/>
<circle cx="464.388" cy="217.7" r="1.68077" transform="rotate(90 464.388 217.7)" fill="#1B1C1D"/>
<circle cx="457.665" cy="217.7" r="1.68077" transform="rotate(90 457.665 217.7)" fill="#1B1C1D"/>
<circle cx="450.942" cy="217.7" r="1.68077" transform="rotate(90 450.942 217.7)" fill="#1B1C1D"/>
<path d="M61 250L498 250" stroke="#DEDEDF"/>
<g filter="url(#filter1_d_9367_1714)">
<mask id="path-12-outside-2_9367_1714" maskUnits="userSpaceOnUse" x="325" y="120" width="446" height="496" fill="black">
<rect fill="white" x="325" y="120" width="446" height="496"/>
<path d="M334 159C334 142.431 347.431 129 364 129H771V607H364C347.431 607 334 593.569 334 577V159Z"/>
</mask>
<path d="M334 159C334 142.431 347.431 129 364 129H771V607H364C347.431 607 334 593.569 334 577V159Z" fill="white"/>
<path d="M325 159C325 137.461 342.461 120 364 120H771V138H364C352.402 138 343 147.402 343 159H325ZM771 616H364C342.461 616 325 598.539 325 577H343C343 588.598 352.402 598 364 598H771V616ZM364 616C342.461 616 325 598.539 325 577V159C325 137.461 342.461 120 364 120V138C352.402 138 343 147.402 343 159V577C343 588.598 352.402 598 364 598V616ZM771 129V607V129Z" fill="#EBEEF1" mask="url(#path-12-outside-2_9367_1714)"/>
</g>
<path d="M370.764 157.356C371.676 157.356 372.468 157.242 373.14 157.014C373.824 156.786 374.382 156.474 374.814 156.078C375.258 155.67 375.588 155.19 375.804 154.638C376.02 154.086 376.128 153.48 376.128 152.82C376.128 151.5 375.69 150.486 374.814 149.778C373.95 149.07 372.624 148.716 370.836 148.716H367.74V157.356H370.764ZM383.22 171H378.846C378.018 171 377.418 170.676 377.046 170.028L371.574 161.694C371.37 161.382 371.142 161.16 370.89 161.028C370.65 160.896 370.29 160.83 369.81 160.83H367.74V171H362.898V144.972H370.836C372.6 144.972 374.112 145.158 375.372 145.53C376.644 145.89 377.682 146.4 378.486 147.06C379.302 147.72 379.902 148.512 380.286 149.436C380.67 150.348 380.862 151.356 380.862 152.46C380.862 153.336 380.73 154.164 380.466 154.944C380.214 155.724 379.842 156.432 379.35 157.068C378.87 157.704 378.27 158.262 377.55 158.742C376.842 159.222 376.032 159.6 375.12 159.876C375.432 160.056 375.72 160.272 375.984 160.524C376.248 160.764 376.488 161.052 376.704 161.388L383.22 171ZM396.032 159.642C396.032 159.066 395.948 158.526 395.78 158.022C395.624 157.506 395.384 157.056 395.06 156.672C394.736 156.288 394.322 155.988 393.818 155.772C393.326 155.544 392.75 155.43 392.09 155.43C390.806 155.43 389.792 155.796 389.048 156.528C388.316 157.26 387.848 158.298 387.644 159.642H396.032ZM387.554 162.324C387.626 163.272 387.794 164.094 388.058 164.79C388.322 165.474 388.67 166.044 389.102 166.5C389.534 166.944 390.044 167.28 390.632 167.508C391.232 167.724 391.892 167.832 392.612 167.832C393.332 167.832 393.95 167.748 394.466 167.58C394.994 167.412 395.45 167.226 395.834 167.022C396.23 166.818 396.572 166.632 396.86 166.464C397.16 166.296 397.448 166.212 397.724 166.212C398.096 166.212 398.372 166.35 398.552 166.626L399.83 168.246C399.338 168.822 398.786 169.308 398.174 169.704C397.562 170.088 396.92 170.4 396.248 170.64C395.588 170.868 394.91 171.03 394.214 171.126C393.53 171.222 392.864 171.27 392.216 171.27C390.932 171.27 389.738 171.06 388.634 170.64C387.53 170.208 386.57 169.578 385.754 168.75C384.938 167.91 384.296 166.878 383.828 165.654C383.36 164.418 383.125 162.99 383.125 161.37C383.125 160.11 383.33 158.928 383.738 157.824C384.146 156.708 384.728 155.742 385.484 154.926C386.252 154.098 387.182 153.444 388.274 152.964C389.378 152.484 390.62 152.244 392 152.244C393.164 152.244 394.238 152.43 395.222 152.802C396.206 153.174 397.052 153.72 397.76 154.44C398.468 155.148 399.02 156.024 399.416 157.068C399.824 158.1 400.027 159.282 400.027 160.614C400.027 161.286 399.956 161.742 399.812 161.982C399.668 162.21 399.392 162.324 398.984 162.324H387.554ZM419.557 152.532L412.231 171H408.199L400.873 152.532H404.545C404.881 152.532 405.157 152.61 405.373 152.766C405.601 152.922 405.751 153.12 405.823 153.36L409.387 163.224C409.579 163.8 409.747 164.364 409.891 164.916C410.035 165.468 410.161 166.02 410.269 166.572C410.389 166.02 410.521 165.468 410.665 164.916C410.809 164.364 410.983 163.8 411.187 163.224L414.823 153.36C414.907 153.12 415.057 152.922 415.273 152.766C415.489 152.61 415.747 152.532 416.047 152.532H419.557ZM433.262 159.642C433.262 159.066 433.178 158.526 433.01 158.022C432.854 157.506 432.614 157.056 432.29 156.672C431.966 156.288 431.552 155.988 431.048 155.772C430.556 155.544 429.98 155.43 429.32 155.43C428.036 155.43 427.022 155.796 426.278 156.528C425.546 157.26 425.078 158.298 424.874 159.642H433.262ZM424.784 162.324C424.856 163.272 425.024 164.094 425.288 164.79C425.552 165.474 425.9 166.044 426.332 166.5C426.764 166.944 427.274 167.28 427.862 167.508C428.462 167.724 429.122 167.832 429.842 167.832C430.562 167.832 431.18 167.748 431.696 167.58C432.224 167.412 432.68 167.226 433.064 167.022C433.46 166.818 433.802 166.632 434.09 166.464C434.39 166.296 434.678 166.212 434.954 166.212C435.326 166.212 435.602 166.35 435.782 166.626L437.06 168.246C436.568 168.822 436.016 169.308 435.404 169.704C434.792 170.088 434.15 170.4 433.478 170.64C432.818 170.868 432.14 171.03 431.444 171.126C430.76 171.222 430.094 171.27 429.446 171.27C428.162 171.27 426.968 171.06 425.864 170.64C424.76 170.208 423.8 169.578 422.984 168.75C422.168 167.91 421.526 166.878 421.058 165.654C420.59 164.418 420.356 162.99 420.356 161.37C420.356 160.11 420.56 158.928 420.968 157.824C421.376 156.708 421.958 155.742 422.714 154.926C423.482 154.098 424.412 153.444 425.504 152.964C426.608 152.484 427.85 152.244 429.23 152.244C430.394 152.244 431.468 152.43 432.452 152.802C433.436 153.174 434.282 153.72 434.99 154.44C435.698 155.148 436.25 156.024 436.646 157.068C437.054 158.1 437.258 159.282 437.258 160.614C437.258 161.286 437.186 161.742 437.042 161.982C436.898 162.21 436.622 162.324 436.214 162.324H424.784ZM444.752 154.8C445.124 154.428 445.514 154.086 445.922 153.774C446.342 153.45 446.78 153.18 447.236 152.964C447.704 152.736 448.202 152.562 448.73 152.442C449.258 152.31 449.834 152.244 450.458 152.244C451.466 152.244 452.36 152.418 453.14 152.766C453.92 153.102 454.568 153.582 455.084 154.206C455.612 154.818 456.008 155.556 456.272 156.42C456.548 157.272 456.686 158.214 456.686 159.246V171H452.24V159.246C452.24 158.118 451.982 157.248 451.466 156.636C450.95 156.012 450.164 155.7 449.108 155.7C448.34 155.7 447.62 155.874 446.948 156.222C446.276 156.57 445.64 157.044 445.04 157.644V171H440.594V152.532H443.312C443.888 152.532 444.266 152.802 444.446 153.342L444.752 154.8ZM476.827 152.532V171H474.109C473.521 171 473.149 170.73 472.993 170.19L472.687 168.714C471.931 169.482 471.097 170.106 470.185 170.586C469.273 171.054 468.199 171.288 466.963 171.288C465.955 171.288 465.061 171.12 464.281 170.784C463.513 170.436 462.865 169.95 462.337 169.326C461.809 168.702 461.407 167.964 461.131 167.112C460.867 166.248 460.735 165.3 460.735 164.268V152.532H465.181V164.268C465.181 165.396 465.439 166.272 465.955 166.896C466.483 167.508 467.269 167.814 468.313 167.814C469.081 167.814 469.801 167.646 470.473 167.31C471.145 166.962 471.781 166.488 472.381 165.888V152.532H476.827ZM493.133 159.642C493.133 159.066 493.049 158.526 492.881 158.022C492.725 157.506 492.485 157.056 492.161 156.672C491.837 156.288 491.423 155.988 490.919 155.772C490.427 155.544 489.851 155.43 489.191 155.43C487.907 155.43 486.893 155.796 486.149 156.528C485.417 157.26 484.949 158.298 484.745 159.642H493.133ZM484.655 162.324C484.727 163.272 484.895 164.094 485.159 164.79C485.423 165.474 485.771 166.044 486.203 166.5C486.635 166.944 487.145 167.28 487.733 167.508C488.333 167.724 488.993 167.832 489.713 167.832C490.433 167.832 491.051 167.748 491.567 167.58C492.095 167.412 492.551 167.226 492.935 167.022C493.331 166.818 493.673 166.632 493.961 166.464C494.261 166.296 494.549 166.212 494.825 166.212C495.197 166.212 495.473 166.35 495.653 166.626L496.931 168.246C496.439 168.822 495.887 169.308 495.275 169.704C494.663 170.088 494.021 170.4 493.349 170.64C492.689 170.868 492.011 171.03 491.315 171.126C490.631 171.222 489.965 171.27 489.317 171.27C488.033 171.27 486.839 171.06 485.735 170.64C484.631 170.208 483.671 169.578 482.855 168.75C482.039 167.91 481.397 166.878 480.929 165.654C480.461 164.418 480.227 162.99 480.227 161.37C480.227 160.11 480.431 158.928 480.839 157.824C481.247 156.708 481.829 155.742 482.585 154.926C483.353 154.098 484.283 153.444 485.375 152.964C486.479 152.484 487.721 152.244 489.101 152.244C490.265 152.244 491.339 152.43 492.323 152.802C493.307 153.174 494.153 153.72 494.861 154.44C495.569 155.148 496.121 156.024 496.517 157.068C496.925 158.1 497.129 159.282 497.129 160.614C497.129 161.286 497.057 161.742 496.913 161.982C496.769 162.21 496.493 162.324 496.085 162.324H484.655ZM527.012 148.95H519.164V171H514.322V148.95H506.474V144.972H527.012V148.95ZM530.288 155.736C530.864 154.632 531.548 153.768 532.34 153.144C533.132 152.508 534.068 152.19 535.148 152.19C536 152.19 536.684 152.376 537.2 152.748L536.912 156.078C536.852 156.294 536.762 156.45 536.642 156.546C536.534 156.63 536.384 156.672 536.192 156.672C536.012 156.672 535.742 156.642 535.382 156.582C535.034 156.522 534.692 156.492 534.356 156.492C533.864 156.492 533.426 156.564 533.042 156.708C532.658 156.852 532.31 157.062 531.998 157.338C531.698 157.602 531.428 157.926 531.188 158.31C530.96 158.694 530.744 159.132 530.54 159.624V171H526.094V152.532H528.704C529.16 152.532 529.478 152.616 529.658 152.784C529.838 152.94 529.958 153.228 530.018 153.648L530.288 155.736ZM550.895 159.642C550.895 159.066 550.811 158.526 550.643 158.022C550.487 157.506 550.247 157.056 549.923 156.672C549.599 156.288 549.185 155.988 548.681 155.772C548.189 155.544 547.613 155.43 546.953 155.43C545.669 155.43 544.655 155.796 543.911 156.528C543.179 157.26 542.711 158.298 542.507 159.642H550.895ZM542.417 162.324C542.489 163.272 542.657 164.094 542.921 164.79C543.185 165.474 543.533 166.044 543.965 166.5C544.397 166.944 544.907 167.28 545.495 167.508C546.095 167.724 546.755 167.832 547.475 167.832C548.195 167.832 548.813 167.748 549.329 167.58C549.857 167.412 550.313 167.226 550.697 167.022C551.093 166.818 551.435 166.632 551.723 166.464C552.023 166.296 552.311 166.212 552.587 166.212C552.959 166.212 553.235 166.35 553.415 166.626L554.693 168.246C554.201 168.822 553.649 169.308 553.037 169.704C552.425 170.088 551.783 170.4 551.111 170.64C550.451 170.868 549.773 171.03 549.077 171.126C548.393 171.222 547.727 171.27 547.079 171.27C545.795 171.27 544.601 171.06 543.497 170.64C542.393 170.208 541.433 169.578 540.617 168.75C539.801 167.91 539.159 166.878 538.691 165.654C538.223 164.418 537.989 162.99 537.989 161.37C537.989 160.11 538.193 158.928 538.601 157.824C539.009 156.708 539.591 155.742 540.347 154.926C541.115 154.098 542.045 153.444 543.137 152.964C544.241 152.484 545.483 152.244 546.863 152.244C548.027 152.244 549.101 152.43 550.085 152.802C551.069 153.174 551.915 153.72 552.623 154.44C553.331 155.148 553.883 156.024 554.279 157.068C554.687 158.1 554.891 159.282 554.891 160.614C554.891 161.286 554.819 161.742 554.675 161.982C554.531 162.21 554.255 162.324 553.847 162.324H542.417ZM562.385 154.8C562.757 154.428 563.147 154.086 563.555 153.774C563.975 153.45 564.413 153.18 564.869 152.964C565.337 152.736 565.835 152.562 566.363 152.442C566.891 152.31 567.467 152.244 568.091 152.244C569.099 152.244 569.993 152.418 570.773 152.766C571.553 153.102 572.201 153.582 572.717 154.206C573.245 154.818 573.641 155.556 573.905 156.42C574.181 157.272 574.319 158.214 574.319 159.246V171H569.873V159.246C569.873 158.118 569.615 157.248 569.099 156.636C568.583 156.012 567.797 155.7 566.741 155.7C565.973 155.7 565.253 155.874 564.581 156.222C563.909 156.57 563.273 157.044 562.673 157.644V171H558.227V152.532H560.945C561.521 152.532 561.899 152.802 562.079 153.342L562.385 154.8ZM590.14 157.248C589.636 156.636 589.084 156.204 588.484 155.952C587.896 155.7 587.26 155.574 586.576 155.574C585.904 155.574 585.298 155.7 584.758 155.952C584.218 156.204 583.756 156.588 583.372 157.104C582.988 157.608 582.694 158.256 582.49 159.048C582.286 159.828 582.184 160.752 582.184 161.82C582.184 162.9 582.268 163.818 582.436 164.574C582.616 165.318 582.868 165.93 583.192 166.41C583.516 166.878 583.912 167.22 584.38 167.436C584.848 167.64 585.37 167.742 585.946 167.742C586.87 167.742 587.656 167.55 588.304 167.166C588.952 166.782 589.564 166.236 590.14 165.528V157.248ZM594.586 144.252V171H591.868C591.28 171 590.908 170.73 590.752 170.19L590.374 168.408C589.63 169.26 588.772 169.95 587.8 170.478C586.84 171.006 585.718 171.27 584.434 171.27C583.426 171.27 582.502 171.06 581.662 170.64C580.822 170.22 580.096 169.614 579.484 168.822C578.884 168.018 578.416 167.028 578.08 165.852C577.756 164.676 577.594 163.332 577.594 161.82C577.594 160.452 577.78 159.18 578.152 158.004C578.524 156.828 579.058 155.808 579.754 154.944C580.45 154.08 581.284 153.408 582.256 152.928C583.228 152.436 584.32 152.19 585.532 152.19C586.564 152.19 587.446 152.352 588.178 152.676C588.91 153 589.564 153.438 590.14 153.99V144.252H594.586Z" fill="#1B1C1D"/>
<path d="M366.412 186.537C366.37 186.607 366.323 186.661 366.272 186.698C366.225 186.731 366.167 186.747 366.097 186.747C366.018 186.747 365.924 186.707 365.817 186.628C365.71 186.549 365.574 186.462 365.411 186.369C365.252 186.271 365.059 186.182 364.83 186.103C364.606 186.024 364.333 185.984 364.011 185.984C363.708 185.984 363.439 186.026 363.206 186.11C362.977 186.189 362.784 186.299 362.625 186.439C362.471 186.579 362.354 186.745 362.275 186.936C362.196 187.123 362.156 187.326 362.156 187.545C362.156 187.825 362.224 188.058 362.359 188.245C362.499 188.427 362.681 188.583 362.905 188.714C363.134 188.845 363.39 188.959 363.675 189.057C363.964 189.15 364.258 189.248 364.557 189.351C364.86 189.454 365.154 189.57 365.439 189.701C365.728 189.827 365.985 189.988 366.209 190.184C366.438 190.38 366.62 190.62 366.755 190.905C366.895 191.19 366.965 191.54 366.965 191.955C366.965 192.394 366.89 192.807 366.741 193.194C366.592 193.577 366.372 193.91 366.083 194.195C365.798 194.48 365.446 194.704 365.026 194.867C364.611 195.03 364.137 195.112 363.605 195.112C362.952 195.112 362.359 194.995 361.827 194.762C361.295 194.524 360.84 194.204 360.462 193.803L360.854 193.159C360.891 193.108 360.936 193.066 360.987 193.033C361.043 192.996 361.104 192.977 361.169 192.977C361.23 192.977 361.297 193.003 361.372 193.054C361.451 193.101 361.54 193.161 361.638 193.236C361.736 193.311 361.848 193.392 361.974 193.481C362.1 193.57 362.242 193.651 362.401 193.726C362.564 193.801 362.749 193.864 362.954 193.915C363.159 193.962 363.39 193.985 363.647 193.985C363.969 193.985 364.256 193.941 364.508 193.852C364.76 193.763 364.972 193.64 365.145 193.481C365.322 193.318 365.458 193.124 365.551 192.9C365.644 192.676 365.691 192.426 365.691 192.151C365.691 191.848 365.621 191.6 365.481 191.409C365.346 191.213 365.166 191.05 364.942 190.919C364.718 190.788 364.461 190.679 364.172 190.59C363.883 190.497 363.589 190.403 363.29 190.31C362.991 190.212 362.697 190.1 362.408 189.974C362.119 189.848 361.862 189.685 361.638 189.484C361.414 189.283 361.232 189.034 361.092 188.735C360.957 188.432 360.889 188.058 360.889 187.615C360.889 187.26 360.957 186.917 361.092 186.586C361.232 186.255 361.433 185.961 361.694 185.704C361.96 185.447 362.284 185.242 362.667 185.088C363.054 184.934 363.498 184.857 363.997 184.857C364.557 184.857 365.066 184.946 365.523 185.123C365.985 185.3 366.391 185.557 366.741 185.893L366.412 186.537ZM373.294 190.681C373.294 190.392 373.252 190.128 373.168 189.89C373.088 189.647 372.969 189.44 372.811 189.267C372.657 189.09 372.468 188.954 372.244 188.861C372.02 188.763 371.765 188.714 371.481 188.714C370.883 188.714 370.41 188.889 370.06 189.239C369.714 189.584 369.5 190.065 369.416 190.681H373.294ZM374.302 194.006C374.148 194.193 373.963 194.356 373.749 194.496C373.534 194.631 373.303 194.743 373.056 194.832C372.813 194.921 372.561 194.986 372.3 195.028C372.038 195.075 371.779 195.098 371.523 195.098C371.033 195.098 370.58 195.016 370.165 194.853C369.754 194.685 369.397 194.442 369.094 194.125C368.795 193.803 368.562 193.406 368.394 192.935C368.226 192.464 368.142 191.922 368.142 191.311C368.142 190.816 368.216 190.354 368.366 189.925C368.52 189.496 368.739 189.125 369.024 188.812C369.308 188.495 369.656 188.247 370.067 188.07C370.477 187.888 370.939 187.797 371.453 187.797C371.877 187.797 372.269 187.869 372.629 188.014C372.993 188.154 373.305 188.359 373.567 188.63C373.833 188.896 374.04 189.227 374.19 189.624C374.339 190.016 374.414 190.464 374.414 190.968C374.414 191.164 374.393 191.295 374.351 191.36C374.309 191.425 374.229 191.458 374.113 191.458H369.374C369.388 191.906 369.448 192.296 369.556 192.627C369.668 192.958 369.822 193.236 370.018 193.46C370.214 193.679 370.447 193.845 370.718 193.957C370.988 194.064 371.292 194.118 371.628 194.118C371.94 194.118 372.209 194.083 372.433 194.013C372.661 193.938 372.857 193.859 373.021 193.775C373.184 193.691 373.319 193.614 373.427 193.544C373.539 193.469 373.634 193.432 373.714 193.432C373.816 193.432 373.896 193.472 373.952 193.551L374.302 194.006ZM377.197 193.292C377.426 193.6 377.675 193.817 377.946 193.943C378.217 194.069 378.52 194.132 378.856 194.132C379.519 194.132 380.027 193.896 380.382 193.425C380.737 192.954 380.914 192.282 380.914 191.409C380.914 190.947 380.872 190.55 380.788 190.219C380.709 189.888 380.592 189.617 380.438 189.407C380.284 189.192 380.095 189.036 379.871 188.938C379.647 188.84 379.393 188.791 379.108 188.791C378.702 188.791 378.345 188.884 378.037 189.071C377.734 189.258 377.454 189.521 377.197 189.862V193.292ZM377.134 189.008C377.433 188.639 377.778 188.343 378.17 188.119C378.562 187.895 379.01 187.783 379.514 187.783C379.925 187.783 380.296 187.862 380.627 188.021C380.958 188.175 381.241 188.406 381.474 188.714C381.707 189.017 381.887 189.395 382.013 189.848C382.139 190.301 382.202 190.821 382.202 191.409C382.202 191.932 382.132 192.419 381.992 192.872C381.852 193.32 381.649 193.71 381.383 194.041C381.122 194.368 380.8 194.627 380.417 194.818C380.039 195.005 379.612 195.098 379.136 195.098C378.702 195.098 378.329 195.026 378.016 194.881C377.708 194.732 377.435 194.526 377.197 194.265V197.401H375.944V187.909H376.693C376.87 187.909 376.98 187.995 377.022 188.168L377.134 189.008ZM393.296 193.817C393.431 193.817 393.538 193.857 393.618 193.936C393.697 194.015 393.737 194.118 393.737 194.244V195H387.045V194.573C387.045 194.484 387.063 194.393 387.101 194.3C387.138 194.207 387.196 194.12 387.276 194.041L390.489 190.814C390.755 190.543 390.997 190.284 391.217 190.037C391.436 189.785 391.623 189.533 391.777 189.281C391.931 189.029 392.05 188.775 392.134 188.518C392.218 188.257 392.26 187.979 392.26 187.685C392.26 187.391 392.213 187.134 392.12 186.915C392.026 186.691 391.898 186.507 391.735 186.362C391.576 186.217 391.387 186.11 391.168 186.04C390.948 185.965 390.713 185.928 390.461 185.928C390.204 185.928 389.968 185.965 389.754 186.04C389.539 186.115 389.348 186.22 389.18 186.355C389.016 186.486 388.879 186.642 388.767 186.824C388.655 187.006 388.575 187.207 388.529 187.426C388.473 187.589 388.396 187.699 388.298 187.755C388.204 187.806 388.071 187.82 387.899 187.797L387.248 187.685C387.313 187.228 387.439 186.824 387.626 186.474C387.817 186.119 388.055 185.823 388.34 185.585C388.629 185.347 388.958 185.167 389.327 185.046C389.695 184.92 390.094 184.857 390.524 184.857C390.948 184.857 391.345 184.92 391.714 185.046C392.082 185.172 392.402 185.356 392.673 185.599C392.943 185.837 393.156 186.129 393.31 186.474C393.464 186.819 393.541 187.211 393.541 187.65C393.541 188.023 393.485 188.371 393.373 188.693C393.261 189.01 393.109 189.314 392.918 189.603C392.726 189.892 392.505 190.175 392.253 190.45C392.005 190.725 391.742 191.003 391.462 191.283L388.816 193.985C389.002 193.934 389.191 193.894 389.383 193.866C389.574 193.833 389.758 193.817 389.936 193.817H393.296ZM402.208 189.988C402.208 190.865 402.112 191.626 401.921 192.27C401.734 192.909 401.477 193.439 401.151 193.859C400.824 194.279 400.437 194.592 399.989 194.797C399.545 195.002 399.069 195.105 398.561 195.105C398.047 195.105 397.569 195.002 397.126 194.797C396.687 194.592 396.304 194.279 395.978 193.859C395.651 193.439 395.394 192.909 395.208 192.27C395.021 191.626 394.928 190.865 394.928 189.988C394.928 189.111 395.021 188.35 395.208 187.706C395.394 187.062 395.651 186.53 395.978 186.11C396.304 185.685 396.687 185.37 397.126 185.165C397.569 184.96 398.047 184.857 398.561 184.857C399.069 184.857 399.545 184.96 399.989 185.165C400.437 185.37 400.824 185.685 401.151 186.11C401.477 186.53 401.734 187.062 401.921 187.706C402.112 188.35 402.208 189.111 402.208 189.988ZM400.913 189.988C400.913 189.223 400.847 188.581 400.717 188.063C400.591 187.54 400.418 187.12 400.199 186.803C399.984 186.486 399.734 186.259 399.45 186.124C399.165 185.984 398.869 185.914 398.561 185.914C398.253 185.914 397.956 185.984 397.672 186.124C397.387 186.259 397.137 186.486 396.923 186.803C396.708 187.12 396.535 187.54 396.405 188.063C396.279 188.581 396.216 189.223 396.216 189.988C396.216 190.753 396.279 191.395 396.405 191.913C396.535 192.431 396.708 192.849 396.923 193.166C397.137 193.483 397.387 193.712 397.672 193.852C397.956 193.987 398.253 194.055 398.561 194.055C398.869 194.055 399.165 193.987 399.45 193.852C399.734 193.712 399.984 193.483 400.199 193.166C400.418 192.849 400.591 192.431 400.717 191.913C400.847 191.395 400.913 190.753 400.913 189.988ZM409.538 193.817C409.673 193.817 409.781 193.857 409.86 193.936C409.939 194.015 409.979 194.118 409.979 194.244V195H403.287V194.573C403.287 194.484 403.306 194.393 403.343 194.3C403.38 194.207 403.439 194.12 403.518 194.041L406.731 190.814C406.997 190.543 407.24 190.284 407.459 190.037C407.678 189.785 407.865 189.533 408.019 189.281C408.173 189.029 408.292 188.775 408.376 188.518C408.46 188.257 408.502 187.979 408.502 187.685C408.502 187.391 408.455 187.134 408.362 186.915C408.269 186.691 408.14 186.507 407.977 186.362C407.818 186.217 407.629 186.11 407.41 186.04C407.191 185.965 406.955 185.928 406.703 185.928C406.446 185.928 406.211 185.965 405.996 186.04C405.781 186.115 405.59 186.22 405.422 186.355C405.259 186.486 405.121 186.642 405.009 186.824C404.897 187.006 404.818 187.207 404.771 187.426C404.715 187.589 404.638 187.699 404.54 187.755C404.447 187.806 404.314 187.82 404.141 187.797L403.49 187.685C403.555 187.228 403.681 186.824 403.868 186.474C404.059 186.119 404.297 185.823 404.582 185.585C404.871 185.347 405.2 185.167 405.569 185.046C405.938 184.92 406.337 184.857 406.766 184.857C407.191 184.857 407.587 184.92 407.956 185.046C408.325 185.172 408.644 185.356 408.915 185.599C409.186 185.837 409.398 186.129 409.552 186.474C409.706 186.819 409.783 187.211 409.783 187.65C409.783 188.023 409.727 188.371 409.615 188.693C409.503 189.01 409.351 189.314 409.16 189.603C408.969 189.892 408.747 190.175 408.495 190.45C408.248 190.725 407.984 191.003 407.704 191.283L405.058 193.985C405.245 193.934 405.434 193.894 405.625 193.866C405.816 193.833 406.001 193.817 406.178 193.817H409.538ZM417.876 194.048V195H412.5V194.048H414.649V187.209C414.649 187.004 414.656 186.796 414.67 186.586L412.885 188.119C412.824 188.17 412.764 188.203 412.703 188.217C412.642 188.226 412.586 188.226 412.535 188.217C412.484 188.208 412.435 188.189 412.388 188.161C412.346 188.133 412.313 188.103 412.29 188.07L411.898 187.531L414.887 184.948H415.902V194.048H417.876ZM423.328 190.275H426.786V191.332H423.328V190.275ZM437.374 191.276L435.799 187.195C435.752 187.074 435.703 186.934 435.652 186.775C435.6 186.612 435.551 186.439 435.505 186.257C435.407 186.635 435.306 186.95 435.204 187.202L433.629 191.276H437.374ZM440.202 195H439.152C439.03 195 438.932 194.97 438.858 194.909C438.783 194.848 438.727 194.771 438.69 194.678L437.752 192.256H433.251L432.313 194.678C432.285 194.762 432.231 194.837 432.152 194.902C432.072 194.967 431.974 195 431.858 195H430.808L434.819 184.969H436.191L440.202 195ZM446.881 187.909V195H446.139C445.961 195 445.849 194.914 445.803 194.741L445.705 193.978C445.397 194.319 445.051 194.594 444.669 194.804C444.286 195.009 443.847 195.112 443.353 195.112C442.965 195.112 442.622 195.049 442.324 194.923C442.03 194.792 441.782 194.61 441.582 194.377C441.381 194.144 441.229 193.861 441.127 193.53C441.029 193.199 440.98 192.832 440.98 192.431V187.909H442.226V192.431C442.226 192.968 442.347 193.383 442.59 193.677C442.837 193.971 443.213 194.118 443.717 194.118C444.085 194.118 444.428 194.032 444.746 193.859C445.068 193.682 445.364 193.439 445.635 193.131V187.909H446.881ZM451.327 191.535C451.579 191.535 451.801 191.5 451.992 191.43C452.183 191.36 452.344 191.262 452.475 191.136C452.606 191.01 452.704 190.861 452.769 190.688C452.834 190.511 452.867 190.317 452.867 190.107C452.867 189.673 452.734 189.328 452.468 189.071C452.207 188.814 451.826 188.686 451.327 188.686C450.823 188.686 450.438 188.814 450.172 189.071C449.911 189.328 449.78 189.673 449.78 190.107C449.78 190.317 449.813 190.511 449.878 190.688C449.948 190.861 450.048 191.01 450.179 191.136C450.31 191.262 450.471 191.36 450.662 191.43C450.853 191.5 451.075 191.535 451.327 191.535ZM453.574 195.385C453.574 195.212 453.525 195.072 453.427 194.965C453.329 194.858 453.196 194.774 453.028 194.713C452.865 194.652 452.673 194.61 452.454 194.587C452.235 194.559 452.001 194.538 451.754 194.524C451.511 194.51 451.264 194.496 451.012 194.482C450.76 194.468 450.517 194.445 450.284 194.412C450.023 194.533 449.808 194.687 449.64 194.874C449.477 195.056 449.395 195.271 449.395 195.518C449.395 195.677 449.435 195.824 449.514 195.959C449.598 196.099 449.724 196.218 449.892 196.316C450.06 196.419 450.27 196.498 450.522 196.554C450.779 196.615 451.08 196.645 451.425 196.645C451.761 196.645 452.062 196.615 452.328 196.554C452.594 196.493 452.818 196.407 453 196.295C453.187 196.183 453.329 196.05 453.427 195.896C453.525 195.742 453.574 195.572 453.574 195.385ZM454.841 188.189V188.651C454.841 188.805 454.743 188.903 454.547 188.945L453.742 189.05C453.901 189.358 453.98 189.699 453.98 190.072C453.98 190.417 453.912 190.732 453.777 191.017C453.646 191.297 453.464 191.537 453.231 191.738C452.998 191.939 452.718 192.093 452.391 192.2C452.064 192.307 451.71 192.361 451.327 192.361C450.996 192.361 450.683 192.321 450.389 192.242C450.24 192.335 450.125 192.436 450.046 192.543C449.967 192.646 449.927 192.751 449.927 192.858C449.927 193.026 449.995 193.154 450.13 193.243C450.27 193.327 450.452 193.388 450.676 193.425C450.9 193.462 451.154 193.486 451.439 193.495C451.728 193.504 452.022 193.521 452.321 193.544C452.624 193.563 452.918 193.598 453.203 193.649C453.492 193.7 453.749 193.784 453.973 193.901C454.197 194.018 454.377 194.179 454.512 194.384C454.652 194.589 454.722 194.855 454.722 195.182C454.722 195.485 454.645 195.779 454.491 196.064C454.342 196.349 454.125 196.601 453.84 196.82C453.555 197.044 453.205 197.221 452.79 197.352C452.379 197.487 451.915 197.555 451.397 197.555C450.879 197.555 450.426 197.504 450.039 197.401C449.652 197.298 449.33 197.161 449.073 196.988C448.816 196.815 448.623 196.615 448.492 196.386C448.366 196.162 448.303 195.926 448.303 195.679C448.303 195.329 448.413 195.033 448.632 194.79C448.851 194.547 449.152 194.354 449.535 194.209C449.325 194.116 449.157 193.992 449.031 193.838C448.91 193.679 448.849 193.467 448.849 193.201C448.849 193.098 448.868 192.993 448.905 192.886C448.942 192.774 448.998 192.664 449.073 192.557C449.152 192.445 449.248 192.34 449.36 192.242C449.472 192.144 449.603 192.058 449.752 191.983C449.402 191.787 449.129 191.528 448.933 191.206C448.737 190.879 448.639 190.501 448.639 190.072C448.639 189.727 448.704 189.414 448.835 189.134C448.97 188.849 449.157 188.609 449.395 188.413C449.633 188.212 449.915 188.058 450.242 187.951C450.573 187.844 450.935 187.79 451.327 187.79C451.635 187.79 451.922 187.825 452.188 187.895C452.454 187.96 452.697 188.058 452.916 188.189H454.841ZM465.634 193.817C465.769 193.817 465.876 193.857 465.956 193.936C466.035 194.015 466.075 194.118 466.075 194.244V195H459.383V194.573C459.383 194.484 459.401 194.393 459.439 194.3C459.476 194.207 459.534 194.12 459.614 194.041L462.827 190.814C463.093 190.543 463.335 190.284 463.555 190.037C463.774 189.785 463.961 189.533 464.115 189.281C464.269 189.029 464.388 188.775 464.472 188.518C464.556 188.257 464.598 187.979 464.598 187.685C464.598 187.391 464.551 187.134 464.458 186.915C464.364 186.691 464.236 186.507 464.073 186.362C463.914 186.217 463.725 186.11 463.506 186.04C463.286 185.965 463.051 185.928 462.799 185.928C462.542 185.928 462.306 185.965 462.092 186.04C461.877 186.115 461.686 186.22 461.518 186.355C461.354 186.486 461.217 186.642 461.105 186.824C460.993 187.006 460.913 187.207 460.867 187.426C460.811 187.589 460.734 187.699 460.636 187.755C460.542 187.806 460.409 187.82 460.237 187.797L459.586 187.685C459.651 187.228 459.777 186.824 459.964 186.474C460.155 186.119 460.393 185.823 460.678 185.585C460.967 185.347 461.296 185.167 461.665 185.046C462.033 184.92 462.432 184.857 462.862 184.857C463.286 184.857 463.683 184.92 464.052 185.046C464.42 185.172 464.74 185.356 465.011 185.599C465.281 185.837 465.494 186.129 465.648 186.474C465.802 186.819 465.879 187.211 465.879 187.65C465.879 188.023 465.823 188.371 465.711 188.693C465.599 189.01 465.447 189.314 465.256 189.603C465.064 189.892 464.843 190.175 464.591 190.45C464.343 190.725 464.08 191.003 463.8 191.283L461.154 193.985C461.34 193.934 461.529 193.894 461.721 193.866C461.912 193.833 462.096 193.817 462.274 193.817H465.634ZM474.546 189.988C474.546 190.865 474.45 191.626 474.259 192.27C474.072 192.909 473.815 193.439 473.489 193.859C473.162 194.279 472.775 194.592 472.327 194.797C471.883 195.002 471.407 195.105 470.899 195.105C470.385 195.105 469.907 195.002 469.464 194.797C469.025 194.592 468.642 194.279 468.316 193.859C467.989 193.439 467.732 192.909 467.546 192.27C467.359 191.626 467.266 190.865 467.266 189.988C467.266 189.111 467.359 188.35 467.546 187.706C467.732 187.062 467.989 186.53 468.316 186.11C468.642 185.685 469.025 185.37 469.464 185.165C469.907 184.96 470.385 184.857 470.899 184.857C471.407 184.857 471.883 184.96 472.327 185.165C472.775 185.37 473.162 185.685 473.489 186.11C473.815 186.53 474.072 187.062 474.259 187.706C474.45 188.35 474.546 189.111 474.546 189.988ZM473.251 189.988C473.251 189.223 473.185 188.581 473.055 188.063C472.929 187.54 472.756 187.12 472.537 186.803C472.322 186.486 472.072 186.259 471.788 186.124C471.503 185.984 471.207 185.914 470.899 185.914C470.591 185.914 470.294 185.984 470.01 186.124C469.725 186.259 469.475 186.486 469.261 186.803C469.046 187.12 468.873 187.54 468.743 188.063C468.617 188.581 468.554 189.223 468.554 189.988C468.554 190.753 468.617 191.395 468.743 191.913C468.873 192.431 469.046 192.849 469.261 193.166C469.475 193.483 469.725 193.712 470.01 193.852C470.294 193.987 470.591 194.055 470.899 194.055C471.207 194.055 471.503 193.987 471.788 193.852C472.072 193.712 472.322 193.483 472.537 193.166C472.756 192.849 472.929 192.431 473.055 191.913C473.185 191.395 473.251 190.753 473.251 189.988ZM481.876 193.817C482.011 193.817 482.118 193.857 482.198 193.936C482.277 194.015 482.317 194.118 482.317 194.244V195H475.625V194.573C475.625 194.484 475.643 194.393 475.681 194.3C475.718 194.207 475.776 194.12 475.856 194.041L479.069 190.814C479.335 190.543 479.577 190.284 479.797 190.037C480.016 189.785 480.203 189.533 480.357 189.281C480.511 189.029 480.63 188.775 480.714 188.518C480.798 188.257 480.84 187.979 480.84 187.685C480.84 187.391 480.793 187.134 480.7 186.915C480.606 186.691 480.478 186.507 480.315 186.362C480.156 186.217 479.967 186.11 479.748 186.04C479.528 185.965 479.293 185.928 479.041 185.928C478.784 185.928 478.548 185.965 478.334 186.04C478.119 186.115 477.928 186.22 477.76 186.355C477.596 186.486 477.459 186.642 477.347 186.824C477.235 187.006 477.155 187.207 477.109 187.426C477.053 187.589 476.976 187.699 476.878 187.755C476.784 187.806 476.651 187.82 476.479 187.797L475.828 187.685C475.893 187.228 476.019 186.824 476.206 186.474C476.397 186.119 476.635 185.823 476.92 185.585C477.209 185.347 477.538 185.167 477.907 185.046C478.275 184.92 478.674 184.857 479.104 184.857C479.528 184.857 479.925 184.92 480.294 185.046C480.662 185.172 480.982 185.356 481.253 185.599C481.523 185.837 481.736 186.129 481.89 186.474C482.044 186.819 482.121 187.211 482.121 187.65C482.121 188.023 482.065 188.371 481.953 188.693C481.841 189.01 481.689 189.314 481.498 189.603C481.306 189.892 481.085 190.175 480.833 190.45C480.585 190.725 480.322 191.003 480.042 191.283L477.396 193.985C477.582 193.934 477.771 193.894 477.963 193.866C478.154 193.833 478.338 193.817 478.516 193.817H481.876ZM489.997 193.817C490.132 193.817 490.24 193.857 490.319 193.936C490.398 194.015 490.438 194.118 490.438 194.244V195H483.746V194.573C483.746 194.484 483.765 194.393 483.802 194.3C483.839 194.207 483.898 194.12 483.977 194.041L487.19 190.814C487.456 190.543 487.699 190.284 487.918 190.037C488.137 189.785 488.324 189.533 488.478 189.281C488.632 189.029 488.751 188.775 488.835 188.518C488.919 188.257 488.961 187.979 488.961 187.685C488.961 187.391 488.914 187.134 488.821 186.915C488.728 186.691 488.599 186.507 488.436 186.362C488.277 186.217 488.088 186.11 487.869 186.04C487.65 185.965 487.414 185.928 487.162 185.928C486.905 185.928 486.67 185.965 486.455 186.04C486.24 186.115 486.049 186.22 485.881 186.355C485.718 186.486 485.58 186.642 485.468 186.824C485.356 187.006 485.277 187.207 485.23 187.426C485.174 187.589 485.097 187.699 484.999 187.755C484.906 187.806 484.773 187.82 484.6 187.797L483.949 187.685C484.014 187.228 484.14 186.824 484.327 186.474C484.518 186.119 484.756 185.823 485.041 185.585C485.33 185.347 485.659 185.167 486.028 185.046C486.397 184.92 486.796 184.857 487.225 184.857C487.65 184.857 488.046 184.92 488.415 185.046C488.784 185.172 489.103 185.356 489.374 185.599C489.645 185.837 489.857 186.129 490.011 186.474C490.165 186.819 490.242 187.211 490.242 187.65C490.242 188.023 490.186 188.371 490.074 188.693C489.962 189.01 489.81 189.314 489.619 189.603C489.428 189.892 489.206 190.175 488.954 190.45C488.707 190.725 488.443 191.003 488.163 191.283L485.517 193.985C485.704 193.934 485.893 193.894 486.084 193.866C486.275 193.833 486.46 193.817 486.637 193.817H489.997Z" fill="#666666"/>
<circle cx="730.662" cy="172.701" r="21.85" transform="rotate(90 730.662 172.701)" fill="#F3F3F3"/>
<circle cx="737.388" cy="172.7" r="1.68077" transform="rotate(90 737.388 172.7)" fill="#1B1C1D"/>
<circle cx="730.665" cy="172.7" r="1.68077" transform="rotate(90 730.665 172.7)" fill="#1B1C1D"/>
<circle cx="723.942" cy="172.7" r="1.68077" transform="rotate(90 723.942 172.7)" fill="#1B1C1D"/>
<path d="M334 228.165L771 228.165" stroke="#DEDEDF"/>
</g>
<defs>
<filter id="filter0_d_9367_1714" x="48" y="161" width="454" height="461" filterUnits="userSpaceOnUse" color-interpolation-filters="sRGB">
<feFlood flood-opacity="0" result="BackgroundImageFix"/>
<feColorMatrix in="SourceAlpha" type="matrix" values="0 0 0 0 0 0 0 0 0 0 0 0 0 0 0 0 0 0 127 0" result="hardAlpha"/>
<feOffset/>
<feGaussianBlur stdDeviation="2"/>
<feComposite in2="hardAlpha" operator="out"/>
<feColorMatrix type="matrix" values="0 0 0 0 0 0 0 0 0 0 0 0 0 0 0 0 0 0 0.05 0"/>
<feBlend mode="normal" in2="BackgroundImageFix" result="effect1_dropShadow_9367_1714"/>
<feBlend mode="normal" in="SourceGraphic" in2="effect1_dropShadow_9367_1714" result="shape"/>
</filter>
<filter id="filter1_d_9367_1714" x="321" y="116" width="454" height="504" filterUnits="userSpaceOnUse" color-interpolation-filters="sRGB">
<feFlood flood-opacity="0" result="BackgroundImageFix"/>
<feColorMatrix in="SourceAlpha" type="matrix" values="0 0 0 0 0 0 0 0 0 0 0 0 0 0 0 0 0 0 127 0" result="hardAlpha"/>
<feOffset/>
<feGaussianBlur stdDeviation="2"/>
<feComposite in2="hardAlpha" operator="out"/>
<feColorMatrix type="matrix" values="0 0 0 0 0 0 0 0 0 0 0 0 0 0 0 0 0 0 0.05 0"/>
<feBlend mode="normal" in2="BackgroundImageFix" result="effect1_dropShadow_9367_1714"/>
<feBlend mode="normal" in="SourceGraphic" in2="effect1_dropShadow_9367_1714" result="shape"/>
</filter>
<linearGradient id="paint0_linear_9367_1714" x1="320.5" y1="1394" x2="320.5" y2="632" gradientUnits="userSpaceOnUse">
<stop stop-color="#4D8AFF"/>
<stop offset="1" stop-color="#FF6B6B"/>
</linearGradient>
<linearGradient id="paint1_linear_9367_1714" x1="320.5" y1="632" x2="320.5" y2="1394" gradientUnits="userSpaceOnUse">
<stop stop-color="#FF6B6B"/>
<stop offset="1" stop-color="#4D8AFF"/>
</linearGradient>
<clipPath id="clip0_9367_1714">
<rect width="780" height="641" rx="38" fill="white"/>
</clipPath>
</defs>
</svg>
