<svg width="728" height="528" viewBox="0 0 728 528" fill="none" xmlns="http://www.w3.org/2000/svg">
<rect x="4.5" y="523.5" width="519" height="719" transform="rotate(-90 4.5 523.5)" fill="url(#paint0_linear_9480_1704)" stroke="url(#paint1_linear_9480_1704)" stroke-width="9"/>
<path opacity="0.18" d="M461.977 354.959C451.833 366.225 441.049 376.883 428.254 384.916C402.286 401.235 370.484 405.229 339.818 405.749C292.921 406.529 247.33 393.557 228.316 346.679C222.033 331.172 219.637 314.218 220.474 297.506C221.209 282.962 224.436 268.38 231.556 255.7C233.8 251.75 236.343 247.978 239.177 244.428V333.815C239.177 345.494 248.642 354.959 260.32 354.959C260.333 354.959 260.346 354.959 260.352 354.959H461.97H461.977Z" fill="#F8FAFC"/>
<path opacity="0.18" d="M439.057 166.947H334.162C341.58 163.669 349.321 161.184 357.259 159.523C367.384 157.444 377.75 156.848 388.077 156.283C401.423 155.535 415.333 154.901 427.614 160.163C431.678 161.977 435.513 164.259 439.057 166.947Z" fill="#F8FAFC"/>
<path opacity="0.46" d="M514.37 188.307V334.039C514.37 345.704 504.917 355.164 493.252 355.176H260.358C248.686 355.176 239.227 345.711 239.221 334.039V188.307C239.221 176.636 248.686 167.176 260.358 167.17H493.258C504.924 167.183 514.377 176.642 514.377 188.307H514.37Z" fill="#F8FAFC"/>
<path d="M370.915 305.134L320.671 254.889L275.505 291.129L259.211 290.374L320.671 239.527L370.915 289.766L416.487 242.685L454.508 266.548L485.936 235.121L493.62 242.799L455.643 280.515L418.022 256.962L370.915 305.134Z" fill="#F8FAFC"/>
<path d="M268.081 301.888C274.46 301.888 279.632 296.716 279.632 290.337C279.632 283.957 274.46 278.785 268.081 278.785C261.701 278.785 256.529 283.957 256.529 290.337C256.529 296.716 261.701 301.888 268.081 301.888Z" fill="#F8FAFC"/>
<path d="M267.903 298.262C272.308 298.262 275.879 294.691 275.879 290.286C275.879 285.881 272.308 282.311 267.903 282.311C263.499 282.311 259.928 285.881 259.928 290.286C259.928 294.691 263.499 298.262 267.903 298.262Z" fill="white"/>
<path d="M371.163 309.363C377.543 309.363 382.714 304.191 382.714 297.811C382.714 291.432 377.543 286.26 371.163 286.26C364.783 286.26 359.611 291.432 359.611 297.811C359.611 304.191 364.783 309.363 371.163 309.363Z" fill="#F8FAFC"/>
<path d="M370.991 305.737C375.396 305.737 378.967 302.166 378.967 297.761C378.967 293.356 375.396 289.785 370.991 289.785C366.586 289.785 363.016 293.356 363.016 297.761C363.016 302.166 366.586 305.737 370.991 305.737Z" fill="white"/>
<path d="M417.559 261.445C423.939 261.445 429.111 256.273 429.111 249.893C429.111 243.514 423.939 238.342 417.559 238.342C411.18 238.342 406.008 243.514 406.008 249.893C406.008 256.273 411.18 261.445 417.559 261.445Z" fill="#F8FAFC"/>
<path d="M417.374 257.819C421.779 257.819 425.35 254.248 425.35 249.843C425.35 245.438 421.779 241.867 417.374 241.867C412.969 241.867 409.398 245.438 409.398 249.843C409.398 254.248 412.969 257.819 417.374 257.819Z" fill="white"/>
<path d="M321.952 258.669C328.332 258.669 333.503 253.498 333.503 247.118C333.503 240.738 328.332 235.566 321.952 235.566C315.572 235.566 310.4 240.738 310.4 247.118C310.4 253.498 315.572 258.669 321.952 258.669Z" fill="#F8FAFC"/>
<path d="M321.78 255.035C326.185 255.035 329.756 251.465 329.756 247.06C329.756 242.655 326.185 239.084 321.78 239.084C317.376 239.084 313.805 242.655 313.805 247.06C313.805 251.465 317.376 255.035 321.78 255.035Z" fill="white"/>
<path d="M496.954 264.583L486.088 264.45L486.392 239.959L461.216 241.677L460.48 230.842L497.405 228.318L496.954 264.583Z" fill="#F8FAFC"/>
<path d="M266.882 234.127H262.178V251.169H266.882V234.127Z" fill="#F8FAFC"/>
<path d="M272.607 238.66H267.902V251.163H272.607V238.66Z" fill="#F8FAFC"/>
<path d="M278.706 242.559H274.002V251.168H278.706V242.559Z" fill="#F8FAFC"/>
<path d="M413.101 305.643H408.396V314.164H413.101V305.643Z" fill="#F8FAFC"/>
<path d="M418.833 301.66H414.129V314.163H418.833V301.66Z" fill="#F8FAFC"/>
<path d="M424.933 295.34H420.229V314.163H424.933V295.34Z" fill="#F8FAFC"/>
<path opacity="0.18" d="M360.417 216.489C359.218 213.211 358.965 209.185 361.247 206.548C362.236 205.47 363.485 204.671 364.874 204.214C368.449 202.908 372.437 203.46 375.525 205.685C378.555 207.999 379.912 211.899 378.987 215.595C378.207 218.365 376.07 220.635 375.595 223.463C375.385 224.68 375.468 226.037 374.713 227.007C373.8 228.186 368.843 228.129 367.346 228.116C360.727 228.059 362.401 221.941 360.417 216.489Z" fill="#F8FAFC"/>
<path opacity="0.18" d="M360.417 216.489C359.218 213.211 358.965 209.185 361.247 206.548C362.236 205.47 363.485 204.671 364.874 204.214C368.449 202.908 372.437 203.46 375.525 205.685C378.555 207.999 379.912 211.899 378.987 215.595C378.207 218.365 376.07 220.635 375.595 223.463C375.385 224.68 375.468 226.037 374.713 227.007C373.8 228.186 368.843 228.129 367.346 228.116C360.727 228.059 362.401 221.941 360.417 216.489Z" fill="#F8FAFC"/>
<path opacity="0.18" d="M360.417 216.489C359.218 213.211 358.965 209.185 361.247 206.548C362.236 205.47 363.485 204.671 364.874 204.214C368.449 202.908 372.437 203.46 375.525 205.685C378.555 207.999 379.912 211.899 378.987 215.595C378.207 218.365 376.07 220.635 375.595 223.463C375.385 224.68 375.468 226.037 374.713 227.007C373.8 228.186 368.843 228.129 367.346 228.116C360.727 228.059 362.401 221.941 360.417 216.489Z" fill="#F8FAFC"/>
<path opacity="0.18" d="M360.417 216.489C359.218 213.211 358.965 209.185 361.247 206.548C362.236 205.47 363.485 204.671 364.874 204.214C368.449 202.908 372.437 203.46 375.525 205.685C378.555 207.999 379.912 211.899 378.987 215.595C378.207 218.365 376.07 220.635 375.595 223.463C375.385 224.68 375.468 226.037 374.713 227.007C373.8 228.186 368.843 228.129 367.346 228.116C360.727 228.059 362.401 221.941 360.417 216.489Z" fill="#F8FAFC"/>
<path d="M362.685 231.711C362.787 231.914 362.863 232.13 362.901 232.358C362.888 232.618 362.857 232.878 362.812 233.132C362.8 233.702 363.079 234.247 363.548 234.571C364.011 234.888 364.537 235.103 365.095 235.192C367.7 235.775 370.427 235.484 372.861 234.368C373.305 234.159 373.78 233.867 373.863 233.392V232.865C373.939 232.637 374.047 232.422 374.186 232.231C374.63 231.445 374.529 230.462 373.939 229.778C374.427 229.423 374.56 228.757 374.256 228.243C373.933 227.749 373.413 227.426 372.829 227.35C372.253 227.273 371.669 227.273 371.092 227.35C369.114 227.521 365.925 226.532 364.112 227.248C363.066 227.705 362.248 230.507 362.692 231.718L362.685 231.711Z" fill="#231F20"/>
<path d="M366.522 228.864C365.14 227.609 364.728 225.58 364.582 223.704C364.487 222.442 364.449 221.168 364.487 219.9C364.417 219.38 364.614 218.86 365.007 218.517C365.235 218.397 365.489 218.359 365.743 218.397C366.548 218.543 367.232 219.056 367.6 219.779C367.962 220.496 368.145 221.288 368.145 222.093C368.145 222.689 368.025 223.475 367.454 223.596C367.372 223.627 367.277 223.608 367.207 223.551C367.156 223.501 367.125 223.437 367.112 223.368C366.992 222.239 367.201 221.104 367.721 220.096C367.949 219.525 368.279 218.879 368.887 218.796C369.192 218.771 369.496 218.866 369.73 219.069C370.295 219.583 370.555 220.35 370.421 221.104C370.276 221.833 370.009 222.537 369.629 223.184L369.426 223.564C369.109 221.96 369.521 220.299 370.561 219.037C370.681 218.872 370.846 218.739 371.036 218.657C371.474 218.498 371.943 218.853 372.19 219.247C372.685 220.153 372.856 221.206 372.672 222.226C372.425 224.617 371.518 226.893 370.06 228.801" stroke="white" stroke-width="0.92" stroke-miterlimit="10"/>
<path d="M495.769 327.863H326.694C324.712 327.863 323.105 329.47 323.105 331.452V331.458C323.105 333.44 324.712 335.047 326.694 335.047H495.769C497.751 335.047 499.357 333.44 499.357 331.458V331.452C499.357 329.47 497.751 327.863 495.769 327.863Z" fill="#F8FAFC"/>
<path d="M296.428 294.819L304.587 277.676L323.436 288.695L310.464 315.462L300.346 309.832L296.428 294.819Z" fill="#F8FAFC"/>
<path d="M297.975 293.102L304.834 279.807L320.336 288.86L308.588 312.445L300.587 306.321L297.975 293.102Z" fill="white"/>
<path d="M297.43 335.262L302.876 368.775L297.988 402.599L301.817 404.735L295.477 404.463L295.908 369.834L286.551 345.463L281.637 402.7L284.598 404.647L279.152 404.431L276.102 349.596C276.102 349.596 273.49 335.68 277.18 333.303C280.87 330.919 297.424 335.262 297.424 335.262H297.43Z" fill="#231F20"/>
<path d="M277.63 284.998C277.63 284.998 290.786 286.469 294.057 288.865C297.329 291.262 300.702 295.009 300.702 298.058C300.702 301.108 302.001 316.121 302.001 316.121L307.447 303.505L310.497 305.242C310.497 305.242 307.035 327.115 305.051 327.761C303.073 328.414 297.766 327.001 297.766 327.001L297.437 335.268C297.437 335.268 279.596 337.011 277.193 333.309C274.79 329.606 269.179 291.04 277.637 285.004L277.63 284.998Z" fill="#F8FAFC"/>
<path d="M288.959 280.865C288.959 280.865 287.368 284.219 288.217 286.958C288.217 286.958 283.323 286.267 283.177 285.728C283.031 285.189 283.792 280.015 283.228 278.437C282.657 276.858 288.959 280.865 288.959 280.865Z" fill="#EEA886"/>
<path d="M283.685 267.209C285.606 266.384 290.88 265.231 292.833 273.105C294.786 280.979 291.825 281.359 288.75 281.417C285.675 281.474 280.508 276.459 280.026 274.848C279.544 273.238 278.207 269.573 283.691 267.209H283.685Z" fill="#EEA886"/>
<path d="M285.08 266.645C283.254 266.949 281.662 267.507 280.547 269.117C280.065 269.808 279.767 270.594 279.57 271.412C279.348 272.331 278.962 273.219 278.828 274.176C278.531 276.294 279.05 278.576 278.093 280.573C277.725 281.341 277.142 282 276.432 282.463C275.937 282.786 275.386 283.014 274.923 283.376C273.522 284.492 273.439 286.888 274.758 288.093C275.075 288.378 275.475 288.657 275.513 289.082C275.544 289.411 275.335 289.709 275.126 289.969C274.175 291.142 272.989 292.182 272.431 293.583C272.165 294.255 272.057 294.978 272.051 295.694C272.038 297.21 272.527 298.801 273.674 299.784C274.822 300.766 276.711 300.944 277.827 299.91C277.687 300.525 278.068 301.178 278.607 301.502C279.145 301.825 279.811 301.889 280.439 301.838C282.626 301.654 284.579 300.202 285.739 298.332C286.424 297.229 286.88 295.935 286.76 294.636C286.601 292.873 285.422 291.345 285.181 289.589C284.826 287.015 286.525 284.593 286.652 282C286.715 280.662 286.151 278.995 286.627 277.708C286.982 276.75 288.155 275.755 288.846 275.007C289.106 274.728 292.624 271.913 292.593 271.786C292.593 271.786 291.115 265.624 285.067 266.638L285.08 266.645Z" fill="#FF6B6B"/>
<path d="M307.72 299.848C307.72 299.632 307.739 299.417 307.796 299.214C307.993 298.631 308.608 298.314 308.925 297.794C309.096 297.464 309.204 297.109 309.242 296.741C309.267 296.412 309.356 296.088 309.495 295.79C309.647 295.492 309.971 295.308 310.307 295.328C310.751 295.391 310.998 295.873 311.112 296.304C311.885 298.903 311.778 301.687 310.801 304.21C310.656 304.584 310.396 305.015 309.996 304.983C309.863 304.964 309.73 304.914 309.616 304.844C308.817 304.413 307.688 304.07 307.65 303.119C307.606 302.035 307.701 300.926 307.72 299.842V299.848Z" fill="#EEA886"/>
<path d="M309.564 297.077L305.868 293.615L305.545 294.268L308.93 297.812C308.93 297.812 309.622 297.597 309.564 297.077Z" fill="#F8FAFC"/>
<path d="M297.759 326.996C297.759 326.996 295.857 326.235 295.197 320.688C294.538 315.14 293.727 309.428 293.727 309.428V335.485H298.082L297.759 326.996Z" fill="url(#paint2_linear_9480_1704)"/>
<defs>
<linearGradient id="paint0_linear_9480_1704" x1="264" y1="1229" x2="264" y2="519" gradientUnits="userSpaceOnUse">
<stop stop-color="#4D8AFF"/>
<stop offset="1" stop-color="#FF6B6B"/>
</linearGradient>
<linearGradient id="paint1_linear_9480_1704" x1="264" y1="519" x2="264" y2="1229" gradientUnits="userSpaceOnUse">
<stop stop-color="#FF6B6B"/>
<stop offset="1" stop-color="#4D8AFF"/>
</linearGradient>
<linearGradient id="paint2_linear_9480_1704" x1="308.182" y1="311.786" x2="271.942" y2="343.283" gradientUnits="userSpaceOnUse">
<stop stop-color="#231F20" stop-opacity="0"/>
<stop offset="1" stop-color="#231F20"/>
</linearGradient>
</defs>
</svg>
