<svg width="719" height="517" viewBox="0 0 719 517" fill="none" xmlns="http://www.w3.org/2000/svg">
<rect y="517" width="516.465" height="719" transform="rotate(-90 0 517)" fill="url(#paint0_linear_9480_1704)"/>
<path opacity="0.18" d="M452.977 352.959C442.833 364.225 432.049 374.883 419.254 382.916C393.286 399.235 361.484 403.229 330.818 403.749C283.921 404.529 238.33 391.557 219.316 344.679C213.033 329.172 210.637 312.218 211.474 295.506C212.209 280.962 215.436 266.38 222.556 253.7C224.8 249.75 227.343 245.978 230.177 242.428V331.815C230.177 343.494 239.642 352.959 251.32 352.959C251.333 352.959 251.346 352.959 251.352 352.959H452.971H452.977Z" fill="#F8FAFC"/>
<path opacity="0.18" d="M430.057 164.947H325.162C332.58 161.669 340.321 159.184 348.259 157.523C358.384 155.444 368.75 154.848 379.077 154.283C392.423 153.535 406.333 152.901 418.614 158.163C422.678 159.977 426.513 162.259 430.057 164.947Z" fill="#F8FAFC"/>
<path opacity="0.46" d="M505.37 186.307V332.039C505.37 343.704 495.917 353.164 484.252 353.176H251.358C239.686 353.176 230.227 343.711 230.221 332.039V186.307C230.221 174.636 239.686 165.176 251.358 165.17H484.258C495.924 165.183 505.377 174.642 505.377 186.307H505.37Z" fill="#F8FAFC"/>
<path d="M361.915 303.134L311.671 252.889L266.505 289.129L250.211 288.374L311.671 237.527L361.915 287.766L407.487 240.685L445.508 264.548L476.936 233.121L484.62 240.799L446.643 278.515L409.022 254.962L361.915 303.134Z" fill="#F8FAFC"/>
<path d="M259.081 299.888C265.46 299.888 270.632 294.716 270.632 288.337C270.632 281.957 265.46 276.785 259.081 276.785C252.701 276.785 247.529 281.957 247.529 288.337C247.529 294.716 252.701 299.888 259.081 299.888Z" fill="#F8FAFC"/>
<path d="M258.903 296.262C263.308 296.262 266.879 292.691 266.879 288.286C266.879 283.881 263.308 280.311 258.903 280.311C254.499 280.311 250.928 283.881 250.928 288.286C250.928 292.691 254.499 296.262 258.903 296.262Z" fill="white"/>
<path d="M362.163 307.363C368.543 307.363 373.714 302.191 373.714 295.811C373.714 289.432 368.543 284.26 362.163 284.26C355.783 284.26 350.611 289.432 350.611 295.811C350.611 302.191 355.783 307.363 362.163 307.363Z" fill="#F8FAFC"/>
<path d="M361.991 303.737C366.396 303.737 369.967 300.166 369.967 295.761C369.967 291.356 366.396 287.785 361.991 287.785C357.586 287.785 354.016 291.356 354.016 295.761C354.016 300.166 357.586 303.737 361.991 303.737Z" fill="white"/>
<path d="M408.559 259.445C414.939 259.445 420.111 254.273 420.111 247.893C420.111 241.514 414.939 236.342 408.559 236.342C402.18 236.342 397.008 241.514 397.008 247.893C397.008 254.273 402.18 259.445 408.559 259.445Z" fill="#F8FAFC"/>
<path d="M408.374 255.819C412.779 255.819 416.35 252.248 416.35 247.843C416.35 243.438 412.779 239.867 408.374 239.867C403.969 239.867 400.398 243.438 400.398 247.843C400.398 252.248 403.969 255.819 408.374 255.819Z" fill="white"/>
<path d="M312.952 256.669C319.332 256.669 324.503 251.498 324.503 245.118C324.503 238.738 319.332 233.566 312.952 233.566C306.572 233.566 301.4 238.738 301.4 245.118C301.4 251.498 306.572 256.669 312.952 256.669Z" fill="#F8FAFC"/>
<path d="M312.78 253.035C317.185 253.035 320.756 249.465 320.756 245.06C320.756 240.655 317.185 237.084 312.78 237.084C308.376 237.084 304.805 240.655 304.805 245.06C304.805 249.465 308.376 253.035 312.78 253.035Z" fill="white"/>
<path d="M487.954 262.583L477.088 262.45L477.392 237.959L452.216 239.677L451.48 228.842L488.405 226.318L487.954 262.583Z" fill="#F8FAFC"/>
<path d="M257.882 232.127H253.178V249.169H257.882V232.127Z" fill="#F8FAFC"/>
<path d="M263.607 236.66H258.902V249.163H263.607V236.66Z" fill="#F8FAFC"/>
<path d="M269.706 240.559H265.002V249.168H269.706V240.559Z" fill="#F8FAFC"/>
<path d="M404.101 303.643H399.396V312.164H404.101V303.643Z" fill="#F8FAFC"/>
<path d="M409.833 299.66H405.129V312.163H409.833V299.66Z" fill="#F8FAFC"/>
<path d="M415.933 293.34H411.229V312.163H415.933V293.34Z" fill="#F8FAFC"/>
<path opacity="0.18" d="M351.417 214.489C350.218 211.211 349.965 207.185 352.247 204.548C353.236 203.47 354.485 202.671 355.874 202.214C359.449 200.908 363.437 201.46 366.525 203.685C369.555 205.999 370.912 209.899 369.987 213.595C369.207 216.365 367.07 218.635 366.595 221.463C366.385 222.68 366.468 224.037 365.713 225.007C364.8 226.186 359.843 226.129 358.346 226.116C351.727 226.059 353.401 219.941 351.417 214.489Z" fill="#F8FAFC"/>
<path opacity="0.18" d="M351.417 214.489C350.218 211.211 349.965 207.185 352.247 204.548C353.236 203.47 354.485 202.671 355.874 202.214C359.449 200.908 363.437 201.46 366.525 203.685C369.555 205.999 370.912 209.899 369.987 213.595C369.207 216.365 367.07 218.635 366.595 221.463C366.385 222.68 366.468 224.037 365.713 225.007C364.8 226.186 359.843 226.129 358.346 226.116C351.727 226.059 353.401 219.941 351.417 214.489Z" fill="#F8FAFC"/>
<path opacity="0.18" d="M351.417 214.489C350.218 211.211 349.965 207.185 352.247 204.548C353.236 203.47 354.485 202.671 355.874 202.214C359.449 200.908 363.437 201.46 366.525 203.685C369.555 205.999 370.912 209.899 369.987 213.595C369.207 216.365 367.07 218.635 366.595 221.463C366.385 222.68 366.468 224.037 365.713 225.007C364.8 226.186 359.843 226.129 358.346 226.116C351.727 226.059 353.401 219.941 351.417 214.489Z" fill="#F8FAFC"/>
<path opacity="0.18" d="M351.417 214.489C350.218 211.211 349.965 207.185 352.247 204.548C353.236 203.47 354.485 202.671 355.874 202.214C359.449 200.908 363.437 201.46 366.525 203.685C369.555 205.999 370.912 209.899 369.987 213.595C369.207 216.365 367.07 218.635 366.595 221.463C366.385 222.68 366.468 224.037 365.713 225.007C364.8 226.186 359.843 226.129 358.346 226.116C351.727 226.059 353.401 219.941 351.417 214.489Z" fill="#F8FAFC"/>
<path d="M353.685 229.711C353.787 229.914 353.863 230.13 353.901 230.358C353.888 230.618 353.857 230.878 353.812 231.132C353.8 231.702 354.079 232.247 354.548 232.571C355.011 232.888 355.537 233.103 356.095 233.192C358.7 233.775 361.427 233.484 363.861 232.368C364.305 232.159 364.78 231.867 364.863 231.392V230.865C364.939 230.637 365.047 230.422 365.186 230.231C365.63 229.445 365.529 228.462 364.939 227.778C365.427 227.423 365.56 226.757 365.256 226.243C364.933 225.749 364.413 225.426 363.829 225.35C363.253 225.273 362.669 225.273 362.092 225.35C360.114 225.521 356.925 224.532 355.112 225.248C354.066 225.705 353.248 228.507 353.692 229.718L353.685 229.711Z" fill="#231F20"/>
<path d="M357.522 226.864C356.14 225.609 355.728 223.58 355.582 221.704C355.487 220.442 355.449 219.168 355.487 217.9C355.417 217.38 355.614 216.86 356.007 216.517C356.235 216.397 356.489 216.359 356.743 216.397C357.548 216.543 358.232 217.056 358.6 217.779C358.962 218.496 359.145 219.288 359.145 220.093C359.145 220.689 359.025 221.475 358.454 221.596C358.372 221.627 358.277 221.608 358.207 221.551C358.156 221.501 358.125 221.437 358.112 221.368C357.992 220.239 358.201 219.104 358.721 218.096C358.949 217.525 359.279 216.879 359.887 216.796C360.192 216.771 360.496 216.866 360.73 217.069C361.295 217.583 361.555 218.35 361.421 219.104C361.276 219.833 361.009 220.537 360.629 221.184L360.426 221.564C360.109 219.96 360.521 218.299 361.561 217.037C361.681 216.872 361.846 216.739 362.036 216.657C362.474 216.498 362.943 216.853 363.19 217.247C363.685 218.153 363.856 219.206 363.672 220.226C363.425 222.617 362.518 224.893 361.06 226.801" stroke="white" stroke-width="0.92" stroke-miterlimit="10"/>
<path d="M486.769 325.863H317.694C315.712 325.863 314.105 327.47 314.105 329.452V329.458C314.105 331.44 315.712 333.047 317.694 333.047H486.769C488.751 333.047 490.357 331.44 490.357 329.458V329.452C490.357 327.47 488.751 325.863 486.769 325.863Z" fill="#F8FAFC"/>
<path d="M287.428 292.819L295.587 275.676L314.436 286.695L301.464 313.462L291.346 307.832L287.428 292.819Z" fill="#F8FAFC"/>
<path d="M288.975 291.102L295.834 277.807L311.336 286.86L299.588 310.445L291.587 304.321L288.975 291.102Z" fill="white"/>
<path d="M288.43 333.262L293.876 366.775L288.988 400.599L292.817 402.735L286.477 402.463L286.908 367.834L277.551 343.463L272.637 400.7L275.598 402.647L270.152 402.431L267.102 347.596C267.102 347.596 264.49 333.68 268.18 331.303C271.87 328.919 288.424 333.262 288.424 333.262H288.43Z" fill="#231F20"/>
<path d="M268.63 282.998C268.63 282.998 281.786 284.469 285.057 286.865C288.329 289.262 291.702 293.009 291.702 296.058C291.702 299.108 293.001 314.121 293.001 314.121L298.447 301.505L301.497 303.242C301.497 303.242 298.035 325.115 296.051 325.761C294.073 326.414 288.766 325.001 288.766 325.001L288.437 333.268C288.437 333.268 270.596 335.011 268.193 331.309C265.79 327.606 260.179 289.04 268.637 283.004L268.63 282.998Z" fill="#F8FAFC"/>
<path d="M279.959 278.865C279.959 278.865 278.368 282.219 279.217 284.958C279.217 284.958 274.323 284.267 274.177 283.728C274.031 283.189 274.792 278.015 274.228 276.437C273.657 274.858 279.959 278.865 279.959 278.865Z" fill="#EEA886"/>
<path d="M274.685 265.209C276.606 264.384 281.88 263.231 283.833 271.105C285.786 278.979 282.825 279.359 279.75 279.417C276.675 279.474 271.508 274.459 271.026 272.848C270.544 271.238 269.207 267.573 274.691 265.209H274.685Z" fill="#EEA886"/>
<path d="M276.08 264.645C274.254 264.949 272.662 265.507 271.547 267.117C271.065 267.808 270.767 268.594 270.57 269.412C270.348 270.331 269.962 271.219 269.828 272.176C269.531 274.294 270.05 276.576 269.093 278.573C268.725 279.341 268.142 280 267.432 280.463C266.937 280.786 266.386 281.014 265.923 281.376C264.522 282.492 264.439 284.888 265.758 286.093C266.075 286.378 266.475 286.657 266.513 287.082C266.544 287.411 266.335 287.709 266.126 287.969C265.175 289.142 263.989 290.182 263.431 291.583C263.165 292.255 263.057 292.978 263.051 293.694C263.038 295.21 263.527 296.801 264.674 297.784C265.822 298.766 267.711 298.944 268.827 297.91C268.687 298.525 269.068 299.178 269.607 299.502C270.145 299.825 270.811 299.889 271.439 299.838C273.626 299.654 275.579 298.202 276.739 296.332C277.424 295.229 277.88 293.935 277.76 292.636C277.601 290.873 276.422 289.345 276.181 287.589C275.826 285.015 277.525 282.593 277.652 280C277.715 278.662 277.151 276.995 277.627 275.708C277.982 274.75 279.155 273.755 279.846 273.007C280.106 272.728 283.624 269.913 283.593 269.786C283.593 269.786 282.115 263.624 276.067 264.638L276.08 264.645Z" fill="#FF6B6B"/>
<path d="M298.72 297.848C298.72 297.632 298.739 297.417 298.796 297.214C298.993 296.631 299.608 296.314 299.925 295.794C300.096 295.464 300.204 295.109 300.242 294.741C300.267 294.412 300.356 294.088 300.495 293.79C300.647 293.492 300.971 293.308 301.307 293.328C301.751 293.391 301.998 293.873 302.112 294.304C302.885 296.903 302.778 299.687 301.801 302.21C301.656 302.584 301.396 303.015 300.996 302.983C300.863 302.964 300.73 302.914 300.616 302.844C299.817 302.413 298.688 302.07 298.65 301.119C298.606 300.035 298.701 298.926 298.72 297.842V297.848Z" fill="#EEA886"/>
<path d="M300.564 295.077L296.868 291.615L296.545 292.268L299.93 295.812C299.93 295.812 300.622 295.597 300.564 295.077Z" fill="#F8FAFC"/>
<path d="M288.759 324.996C288.759 324.996 286.857 324.235 286.197 318.688C285.538 313.14 284.727 307.428 284.727 307.428V333.485H289.082L288.759 324.996Z" fill="url(#paint1_linear_9480_1704)"/>
<defs>
<linearGradient id="paint0_linear_9480_1704" x1="258.232" y1="1236" x2="258.232" y2="517" gradientUnits="userSpaceOnUse">
<stop stop-color="#4D8AFF"/>
<stop offset="1" stop-color="#FF6B6B"/>
</linearGradient>
<linearGradient id="paint1_linear_9480_1704" x1="299.182" y1="309.786" x2="262.942" y2="341.283" gradientUnits="userSpaceOnUse">
<stop stop-color="#231F20" stop-opacity="0"/>
<stop offset="1" stop-color="#231F20"/>
</linearGradient>
</defs>
</svg>
