<svg width="1296" height="575" viewBox="0 0 1296 575" fill="none" xmlns="http://www.w3.org/2000/svg">
<rect width="1296" height="575" rx="20" fill="#00396D"/>
<circle cx="693.5" cy="320.5" r="199.5" fill="#2D557A"/>
<rect x="378" y="239" width="26" height="5" fill="#D9D9D9"/>
<rect x="413" y="239" width="8" height="5" fill="#00FF85"/>
<rect x="360" y="239" width="12" height="5" fill="#D9D9D9"/>
<rect x="338" y="239" width="13" height="5" fill="#00FF85"/>
<rect x="431" y="239" width="26" height="5" fill="#00FF85"/>
<rect x="388" y="273" width="26" height="5" fill="#D9D9D9"/>
<rect x="424" y="273" width="7" height="5" fill="#00FF85"/>
<rect x="369" y="273" width="13" height="5" fill="#D9D9D9"/>
<rect x="348" y="273" width="13" height="5" fill="#00FF85"/>
<rect x="441" y="273" width="26" height="5" fill="#00FF85"/>
<rect x="378" y="304" width="26" height="5" fill="#D9D9D9"/>
<rect x="416" y="304" width="8" height="5" fill="#00FF85"/>
<rect x="360" y="304" width="12" height="5" fill="#D9D9D9"/>
<rect x="338" y="304" width="13" height="5" fill="#00FF85"/>
<rect x="431" y="304" width="26" height="5" fill="#00FF85"/>
<rect x="919" y="309" width="26" height="5" transform="rotate(-180 919 309)" fill="#D9D9D9"/>
<rect x="884" y="309" width="8" height="5" transform="rotate(-180 884 309)" fill="#00FF85"/>
<rect x="870" y="309" width="8" height="5" transform="rotate(-180 870 309)" fill="#00FF85"/>
<rect x="937" y="309" width="12" height="5" transform="rotate(-180 937 309)" fill="#D9D9D9"/>
<rect x="959" y="309" width="13" height="5" transform="rotate(-180 959 309)" fill="#00FF85"/>
<rect x="856" y="309" width="16" height="5" transform="rotate(-180 856 309)" fill="#00FF85"/>
<rect x="909" y="275" width="26" height="5" transform="rotate(-180 909 275)" fill="#00FF85"/>
<rect x="873" y="275" width="7" height="5" transform="rotate(-180 873 275)" fill="#00FF85"/>
<rect x="861" y="275" width="7" height="5" transform="rotate(-180 861 275)" fill="#00FF85"/>
<rect x="928" y="275" width="13" height="5" transform="rotate(-180 928 275)" fill="#D9D9D9"/>
<rect x="949" y="275" width="13" height="5" transform="rotate(-180 949 275)" fill="#D9D9D9"/>
<rect x="848" y="275" width="18" height="5" transform="rotate(-180 848 275)" fill="#00FF85"/>
<rect x="919" y="244" width="26" height="5" transform="rotate(-180 919 244)" fill="#00FF85"/>
<rect x="881" y="244" width="8" height="5" transform="rotate(-180 881 244)" fill="#00FF85"/>
<rect x="867" y="244" width="8" height="5" transform="rotate(-180 867 244)" fill="#00FF85"/>
<rect x="937" y="244" width="12" height="5" transform="rotate(-180 937 244)" fill="#D9D9D9"/>
<rect x="959" y="244" width="13" height="5" transform="rotate(-180 959 244)" fill="#D9D9D9"/>
<rect x="854" y="244" width="14" height="5" transform="rotate(-180 854 244)" fill="#00FF85"/>
<circle cx="648.001" cy="135.466" r="96.0129" fill="#D8FEEC" fill-opacity="0.5"/>
<circle cx="647.999" cy="135.466" r="78.556" fill="#96FFCD" fill-opacity="0.8"/>
<circle cx="648" cy="135.466" r="61.0991" fill="#65FFB6" fill-opacity="0.9"/>
<path d="M472.035 151.977C472.035 140.931 480.989 131.977 492.035 131.977H804.315C815.361 131.977 824.315 140.931 824.315 151.977V417.571H472.035V151.977Z" fill="white"/>
<path d="M472 437H824V489C824 500.046 815.046 509 804 509H492C480.954 509 472 500.046 472 489V437Z" fill="white"/>
<path d="M510.128 480V478.2H512.48V465H510.128V463.2H516.68C518.888 463.2 520.592 463.76 521.792 464.88C523.008 466 523.616 467.72 523.616 470.04V473.16C523.616 475.496 523.008 477.224 521.792 478.344C520.592 479.448 518.888 480 516.68 480H510.128ZM514.496 478.176H516.68C518.312 478.176 519.544 477.776 520.376 476.976C521.208 476.176 521.624 474.936 521.624 473.256V469.968C521.624 468.256 521.208 467.008 520.376 466.224C519.544 465.44 518.312 465.048 516.68 465.048H514.496V478.176ZM526.834 480V463.2H537.178V465.024H528.85V470.64H536.506V472.464H528.85V478.176H537.298V480H526.834ZM546.43 480.336C544.43 480.336 542.838 479.76 541.654 478.608C540.47 477.44 539.878 475.744 539.878 473.52V469.68C539.878 467.456 540.47 465.768 541.654 464.616C542.838 463.448 544.43 462.864 546.43 462.864C548.414 462.864 549.934 463.416 550.99 464.52C552.062 465.624 552.598 467.136 552.598 469.056V469.176H550.606V468.984C550.606 467.72 550.262 466.688 549.574 465.888C548.902 465.072 547.854 464.664 546.43 464.664C545.006 464.664 543.894 465.104 543.094 465.984C542.294 466.848 541.894 468.064 541.894 469.632V473.568C541.894 475.136 542.294 476.36 543.094 477.24C543.894 478.104 545.006 478.536 546.43 478.536C547.854 478.536 548.902 478.136 549.574 477.336C550.262 476.52 550.606 475.48 550.606 474.216V473.832H552.598V474.144C552.598 476.064 552.062 477.576 550.99 478.68C549.934 479.784 548.414 480.336 546.43 480.336ZM555.756 480V463.2H557.772V480H555.756ZM567.207 480.336C565.991 480.336 564.903 480.12 563.943 479.688C562.983 479.256 562.223 478.608 561.663 477.744C561.119 476.864 560.847 475.768 560.847 474.456V473.952H562.839V474.456C562.839 475.848 563.247 476.888 564.063 477.576C564.879 478.248 565.927 478.584 567.207 478.584C568.519 478.584 569.519 478.288 570.207 477.696C570.895 477.104 571.239 476.36 571.239 475.464C571.239 474.84 571.079 474.344 570.759 473.976C570.455 473.608 570.023 473.312 569.463 473.088C568.903 472.848 568.247 472.64 567.495 472.464L566.247 472.152C565.271 471.896 564.407 471.584 563.655 471.216C562.903 470.848 562.311 470.368 561.879 469.776C561.463 469.168 561.255 468.392 561.255 467.448C561.255 466.504 561.487 465.688 561.951 465C562.431 464.312 563.095 463.784 563.943 463.416C564.807 463.048 565.799 462.864 566.919 462.864C568.055 462.864 569.071 463.064 569.967 463.464C570.879 463.848 571.591 464.424 572.103 465.192C572.631 465.944 572.895 466.896 572.895 468.048V469.056H570.903V468.048C570.903 467.232 570.727 466.576 570.375 466.08C570.039 465.584 569.567 465.216 568.959 464.976C568.367 464.736 567.687 464.616 566.919 464.616C565.815 464.616 564.927 464.864 564.255 465.36C563.583 465.84 563.247 466.528 563.247 467.424C563.247 468.016 563.391 468.496 563.679 468.864C563.967 469.232 564.375 469.536 564.903 469.776C565.431 470 566.063 470.2 566.799 470.376L568.047 470.688C569.023 470.896 569.895 471.184 570.663 471.552C571.447 471.904 572.071 472.392 572.535 473.016C572.999 473.624 573.231 474.424 573.231 475.416C573.231 476.408 572.983 477.272 572.487 478.008C571.991 478.744 571.287 479.32 570.375 479.736C569.479 480.136 568.423 480.336 567.207 480.336ZM576.334 480V463.2H578.35V480H576.334ZM588.289 480.336C586.289 480.336 584.689 479.76 583.489 478.608C582.305 477.44 581.713 475.744 581.713 473.52V469.68C581.713 467.456 582.305 465.768 583.489 464.616C584.689 463.448 586.289 462.864 588.289 462.864C590.305 462.864 591.905 463.448 593.089 464.616C594.289 465.768 594.889 467.456 594.889 469.68V473.52C594.889 475.744 594.289 477.44 593.089 478.608C591.905 479.76 590.305 480.336 588.289 480.336ZM588.289 478.536C589.745 478.536 590.873 478.104 591.673 477.24C592.473 476.36 592.873 475.144 592.873 473.592V469.608C592.873 468.056 592.473 466.848 591.673 465.984C590.873 465.104 589.745 464.664 588.289 464.664C586.849 464.664 585.729 465.104 584.929 465.984C584.129 466.848 583.729 468.056 583.729 469.608V473.592C583.729 475.144 584.129 476.36 584.929 477.24C585.729 478.104 586.849 478.536 588.289 478.536ZM598.248 480V463.2H602.16L608.016 478.728H608.328V463.2H610.32V480H606.408L600.576 464.448H600.24V480H598.248ZM624.43 480C623.502 480 622.662 479.824 621.91 479.472C621.158 479.12 620.566 478.616 620.134 477.96C619.702 477.304 619.486 476.504 619.486 475.56C619.486 474.856 619.622 474.24 619.894 473.712C620.166 473.184 620.518 472.752 620.95 472.416C621.398 472.064 621.87 471.8 622.366 471.624V471.36C621.63 471.136 620.99 470.728 620.446 470.136C619.902 469.528 619.63 468.704 619.63 467.664C619.63 466.704 619.854 465.888 620.302 465.216C620.75 464.544 621.342 464.04 622.078 463.704C622.814 463.368 623.63 463.2 624.526 463.2H627.55V464.832H624.766C623.87 464.832 623.11 465.08 622.486 465.576C621.878 466.056 621.574 466.792 621.574 467.784C621.574 468.456 621.718 469.008 622.006 469.44C622.31 469.872 622.702 470.192 623.182 470.4C623.662 470.592 624.19 470.688 624.766 470.688H628.078V468.12H629.974V470.688H632.326V472.344H629.974V480H624.43ZM624.67 478.368H628.078V472.344H624.67C623.758 472.344 622.982 472.592 622.342 473.088C621.718 473.568 621.406 474.32 621.406 475.344C621.406 476.368 621.726 477.128 622.366 477.624C623.022 478.12 623.79 478.368 624.67 478.368ZM639.373 480L644.557 463.2H648.109L653.293 480H651.205L649.909 475.752H642.757L641.461 480H639.373ZM643.261 473.928H649.381L646.501 464.424H646.165L643.261 473.928ZM661.648 480.336C659.648 480.336 658.056 479.76 656.872 478.608C655.688 477.44 655.096 475.744 655.096 473.52V469.68C655.096 467.456 655.688 465.768 656.872 464.616C658.056 463.448 659.648 462.864 661.648 462.864C663.632 462.864 665.152 463.416 666.208 464.52C667.28 465.624 667.816 467.136 667.816 469.056V469.176H665.824V468.984C665.824 467.72 665.48 466.688 664.792 465.888C664.12 465.072 663.072 464.664 661.648 464.664C660.224 464.664 659.112 465.104 658.312 465.984C657.512 466.848 657.112 468.064 657.112 469.632V473.568C657.112 475.136 657.512 476.36 658.312 477.24C659.112 478.104 660.224 478.536 661.648 478.536C663.072 478.536 664.12 478.136 664.792 477.336C665.48 476.52 665.824 475.48 665.824 474.216V473.832H667.816V474.144C667.816 476.064 667.28 477.576 666.208 478.68C665.152 479.784 663.632 480.336 661.648 480.336ZM674.704 480V465.024H669.304V463.2H682.12V465.024H676.72V480H674.704ZM684.686 480V463.2H686.702V480H684.686ZM696.641 480.336C694.641 480.336 693.041 479.76 691.841 478.608C690.657 477.44 690.065 475.744 690.065 473.52V469.68C690.065 467.456 690.657 465.768 691.841 464.616C693.041 463.448 694.641 462.864 696.641 462.864C698.657 462.864 700.257 463.448 701.441 464.616C702.641 465.768 703.241 467.456 703.241 469.68V473.52C703.241 475.744 702.641 477.44 701.441 478.608C700.257 479.76 698.657 480.336 696.641 480.336ZM696.641 478.536C698.097 478.536 699.225 478.104 700.025 477.24C700.825 476.36 701.225 475.144 701.225 473.592V469.608C701.225 468.056 700.825 466.848 700.025 465.984C699.225 465.104 698.097 464.664 696.641 464.664C695.201 464.664 694.081 465.104 693.281 465.984C692.481 466.848 692.081 468.056 692.081 469.608V473.592C692.081 475.144 692.481 476.36 693.281 477.24C694.081 478.104 695.201 478.536 696.641 478.536ZM706.6 480V463.2H710.512L716.368 478.728H716.68V463.2H718.672V480H714.76L708.928 464.448H708.592V480H706.6Z" fill="black"/>
<path d="M758.105 451.562C759.371 451.044 760.811 450.467 761.271 450.294C761.732 450.179 764.265 450.006 766.913 450.006C770.367 449.948 772.497 450.294 774.973 451.159C776.757 451.85 779.578 453.349 781.133 454.502C782.745 455.712 784.875 457.96 785.911 459.516C786.947 461.072 788.329 463.781 788.962 465.51C789.941 468.046 790.114 469.717 789.941 473.867C789.768 478.305 789.481 479.63 787.869 482.916C786.89 485.106 784.875 487.987 783.436 489.428C781.996 490.869 779.118 492.886 776.988 493.866C773.649 495.48 772.325 495.768 767.892 495.941C763.747 496.114 762.077 495.941 759.544 494.961C757.817 494.327 755.111 492.944 753.557 491.907C752.002 490.869 749.757 488.737 748.548 487.123C747.397 485.567 745.9 482.743 745.209 480.956C744.345 478.593 744 476.288 744 473.002C744 469.717 744.345 467.469 745.209 465.106C745.9 463.262 747.282 460.611 748.318 459.17C749.354 457.729 751.427 455.654 752.981 454.502C754.535 453.407 756.838 452.081 758.105 451.562Z" fill="#C8E6C9"/>
<path d="M763.574 477.9L771.23 470.292C775.375 466.085 779.06 462.627 779.405 462.627C779.693 462.627 780.442 463.088 781.017 463.664C781.593 464.183 782.054 464.932 781.996 465.221C781.996 465.509 777.851 469.947 763.574 484.24L758.795 479.456C754.765 475.422 754.19 474.557 754.708 473.693C755.053 473.174 755.802 472.482 756.32 472.137C757.011 471.676 757.874 472.194 763.574 477.9Z" fill="#4CAF50"/>
<ellipse cx="648.084" cy="135.33" rx="48.4277" ry="46.1733" fill="#00396D"/>
<path d="M673.177 123.888L670.221 121.23L659.055 132.526L647.561 121.23L644.605 123.888L656.1 135.516L644.605 147.144L647.561 149.802L659.055 138.506L670.221 149.802L673.177 147.144L661.683 135.516L673.177 123.888Z" fill="#00FF85"/>
<path d="M623.176 149.094V121.23H630.758C633.725 121.23 636.033 121.894 638.341 122.889C640.319 123.884 641.967 125.543 642.956 127.533C643.945 129.523 644.604 132.177 644.604 135.494C644.604 138.479 643.945 140.801 642.956 142.792C641.967 144.782 640.319 146.441 638.341 147.767C636.363 148.763 634.055 149.426 631.088 149.426H623.176V149.094ZM631.088 145.445C633.066 145.445 634.714 145.114 636.033 144.45C637.352 143.787 638.341 142.46 639.33 141.133C639.989 139.475 640.319 137.484 640.319 135.162C640.319 131.845 639.659 129.191 638.011 127.533C636.363 125.874 634.055 124.879 630.758 124.879H627.132V145.445H631.088Z" fill="#00FF85"/>
<line x1="472.041" y1="263.346" x2="824.321" y2="264.393" stroke="#F1ECEC" stroke-width="4"/>
<line x1="472.041" y1="326.539" x2="824.321" y2="327.586" stroke="#F1ECEC" stroke-width="4"/>
<path d="M601.92 240V223.2H603.936V240H601.92ZM607.779 240V223.2H611.691L617.547 238.728H617.859V223.2H619.851V240H615.939L610.107 224.448H609.771V240H607.779ZM629.309 240.336C628.093 240.336 627.005 240.12 626.045 239.688C625.085 239.256 624.325 238.608 623.765 237.744C623.221 236.864 622.949 235.768 622.949 234.456V233.952H624.941V234.456C624.941 235.848 625.349 236.888 626.165 237.576C626.981 238.248 628.029 238.584 629.309 238.584C630.621 238.584 631.621 238.288 632.309 237.696C632.997 237.104 633.341 236.36 633.341 235.464C633.341 234.84 633.181 234.344 632.861 233.976C632.557 233.608 632.125 233.312 631.565 233.088C631.005 232.848 630.349 232.64 629.597 232.464L628.349 232.152C627.373 231.896 626.509 231.584 625.757 231.216C625.005 230.848 624.413 230.368 623.981 229.776C623.565 229.168 623.357 228.392 623.357 227.448C623.357 226.504 623.589 225.688 624.053 225C624.533 224.312 625.197 223.784 626.045 223.416C626.909 223.048 627.901 222.864 629.021 222.864C630.157 222.864 631.173 223.064 632.069 223.464C632.981 223.848 633.693 224.424 634.205 225.192C634.733 225.944 634.997 226.896 634.997 228.048V229.056H633.005V228.048C633.005 227.232 632.829 226.576 632.477 226.08C632.141 225.584 631.669 225.216 631.061 224.976C630.469 224.736 629.789 224.616 629.021 224.616C627.917 224.616 627.029 224.864 626.357 225.36C625.685 225.84 625.349 226.528 625.349 227.424C625.349 228.016 625.493 228.496 625.781 228.864C626.069 229.232 626.477 229.536 627.005 229.776C627.533 230 628.165 230.2 628.901 230.376L630.149 230.688C631.125 230.896 631.997 231.184 632.765 231.552C633.549 231.904 634.173 232.392 634.637 233.016C635.101 233.624 635.333 234.424 635.333 235.416C635.333 236.408 635.085 237.272 634.589 238.008C634.093 238.744 633.389 239.32 632.477 239.736C631.581 240.136 630.525 240.336 629.309 240.336ZM638.436 240V223.2H640.452V240H638.436ZM650.151 240.336C648.903 240.336 647.799 240.08 646.839 239.568C645.895 239.04 645.151 238.272 644.607 237.264C644.079 236.256 643.815 235.008 643.815 233.52V229.68C643.815 227.456 644.407 225.768 645.591 224.616C646.775 223.448 648.367 222.864 650.367 222.864C652.351 222.864 653.863 223.408 654.903 224.496C655.943 225.584 656.463 227.04 656.463 228.864V228.984H654.471V228.816C654.471 228.016 654.327 227.304 654.039 226.68C653.751 226.056 653.303 225.568 652.695 225.216C652.087 224.848 651.311 224.664 650.367 224.664C648.943 224.664 647.831 225.104 647.031 225.984C646.231 226.848 645.831 228.064 645.831 229.632V233.568C645.831 235.136 646.231 236.36 647.031 237.24C647.831 238.104 648.951 238.536 650.391 238.536C651.799 238.536 652.831 238.136 653.487 237.336C654.159 236.536 654.495 235.472 654.495 234.144V233.736H649.407V232.008H656.463V240H654.639V238.176H654.303C654.127 238.528 653.879 238.872 653.559 239.208C653.239 239.544 652.807 239.816 652.263 240.024C651.719 240.232 651.015 240.336 650.151 240.336ZM660.139 240V223.2H662.155V230.664H670.027V223.2H672.043V240H670.027V232.488H662.155V240H660.139ZM680.017 240V225.024H674.617V223.2H687.433V225.024H682.033V240H680.017ZM695.145 240.336C693.929 240.336 692.841 240.12 691.881 239.688C690.921 239.256 690.161 238.608 689.601 237.744C689.057 236.864 688.785 235.768 688.785 234.456V233.952H690.777V234.456C690.777 235.848 691.185 236.888 692.001 237.576C692.817 238.248 693.865 238.584 695.145 238.584C696.457 238.584 697.457 238.288 698.145 237.696C698.833 237.104 699.177 236.36 699.177 235.464C699.177 234.84 699.017 234.344 698.697 233.976C698.393 233.608 697.961 233.312 697.401 233.088C696.841 232.848 696.185 232.64 695.433 232.464L694.185 232.152C693.209 231.896 692.345 231.584 691.593 231.216C690.841 230.848 690.249 230.368 689.817 229.776C689.401 229.168 689.193 228.392 689.193 227.448C689.193 226.504 689.425 225.688 689.889 225C690.369 224.312 691.033 223.784 691.881 223.416C692.745 223.048 693.737 222.864 694.857 222.864C695.993 222.864 697.009 223.064 697.905 223.464C698.817 223.848 699.529 224.424 700.041 225.192C700.569 225.944 700.833 226.896 700.833 228.048V229.056H698.841V228.048C698.841 227.232 698.665 226.576 698.313 226.08C697.977 225.584 697.505 225.216 696.897 224.976C696.305 224.736 695.625 224.616 694.857 224.616C693.753 224.616 692.865 224.864 692.193 225.36C691.521 225.84 691.185 226.528 691.185 227.424C691.185 228.016 691.329 228.496 691.617 228.864C691.905 229.232 692.313 229.536 692.841 229.776C693.369 230 694.001 230.2 694.737 230.376L695.985 230.688C696.961 230.896 697.833 231.184 698.601 231.552C699.385 231.904 700.009 232.392 700.473 233.016C700.937 233.624 701.169 234.424 701.169 235.416C701.169 236.408 700.921 237.272 700.425 238.008C699.929 238.744 699.225 239.32 698.313 239.736C697.417 240.136 696.361 240.336 695.145 240.336Z" fill="black"/>
<path d="M607.512 305.336C606.296 305.336 605.208 305.12 604.248 304.688C603.288 304.256 602.528 303.608 601.968 302.744C601.424 301.864 601.152 300.768 601.152 299.456V298.952H603.144V299.456C603.144 300.848 603.552 301.888 604.368 302.576C605.184 303.248 606.232 303.584 607.512 303.584C608.824 303.584 609.824 303.288 610.512 302.696C611.2 302.104 611.544 301.36 611.544 300.464C611.544 299.84 611.384 299.344 611.064 298.976C610.76 298.608 610.328 298.312 609.768 298.088C609.208 297.848 608.552 297.64 607.8 297.464L606.552 297.152C605.576 296.896 604.712 296.584 603.96 296.216C603.208 295.848 602.616 295.368 602.184 294.776C601.768 294.168 601.56 293.392 601.56 292.448C601.56 291.504 601.792 290.688 602.256 290C602.736 289.312 603.4 288.784 604.248 288.416C605.112 288.048 606.104 287.864 607.224 287.864C608.36 287.864 609.376 288.064 610.272 288.464C611.184 288.848 611.896 289.424 612.408 290.192C612.936 290.944 613.2 291.896 613.2 293.048V294.056H611.208V293.048C611.208 292.232 611.032 291.576 610.68 291.08C610.344 290.584 609.872 290.216 609.264 289.976C608.672 289.736 607.992 289.616 607.224 289.616C606.12 289.616 605.232 289.864 604.56 290.36C603.888 290.84 603.552 291.528 603.552 292.424C603.552 293.016 603.696 293.496 603.984 293.864C604.272 294.232 604.68 294.536 605.208 294.776C605.736 295 606.368 295.2 607.104 295.376L608.352 295.688C609.328 295.896 610.2 296.184 610.968 296.552C611.752 296.904 612.376 297.392 612.84 298.016C613.304 298.624 613.536 299.424 613.536 300.416C613.536 301.408 613.288 302.272 612.792 303.008C612.296 303.744 611.592 304.32 610.68 304.736C609.784 305.136 608.728 305.336 607.512 305.336ZM620.04 305V290.024H614.64V288.2H627.456V290.024H622.056V305H620.04ZM630.022 305V288.2H636.814C637.854 288.2 638.766 288.384 639.55 288.752C640.35 289.104 640.974 289.616 641.422 290.288C641.87 290.944 642.094 291.736 642.094 292.664V292.928C642.094 294.032 641.83 294.904 641.302 295.544C640.774 296.184 640.15 296.616 639.43 296.84V297.176C640.006 297.192 640.478 297.384 640.846 297.752C641.23 298.104 641.422 298.64 641.422 299.36V305H639.43V299.6C639.43 299.12 639.294 298.752 639.022 298.496C638.766 298.24 638.374 298.112 637.846 298.112H632.038V305H630.022ZM632.038 296.288H636.622C637.726 296.288 638.574 296.024 639.166 295.496C639.774 294.952 640.078 294.2 640.078 293.24V293.072C640.078 292.112 639.782 291.368 639.19 290.84C638.598 290.296 637.742 290.024 636.622 290.024H632.038V296.288ZM643.842 305L649.026 288.2H652.578L657.762 305H655.674L654.378 300.752H647.226L645.93 305H643.842ZM647.73 298.928H653.85L650.97 289.424H650.634L647.73 298.928ZM662.603 305V290.024H657.203V288.2H670.019V290.024H664.619V305H662.603ZM672.584 305V288.2H682.928V290.024H674.6V295.64H682.256V297.464H674.6V303.176H683.048V305H672.584ZM691.964 305.336C690.716 305.336 689.612 305.08 688.652 304.568C687.708 304.04 686.964 303.272 686.42 302.264C685.892 301.256 685.628 300.008 685.628 298.52V294.68C685.628 292.456 686.22 290.768 687.404 289.616C688.588 288.448 690.18 287.864 692.18 287.864C694.164 287.864 695.676 288.408 696.716 289.496C697.756 290.584 698.276 292.04 698.276 293.864V293.984H696.284V293.816C696.284 293.016 696.14 292.304 695.852 291.68C695.564 291.056 695.116 290.568 694.508 290.216C693.9 289.848 693.124 289.664 692.18 289.664C690.756 289.664 689.644 290.104 688.844 290.984C688.044 291.848 687.644 293.064 687.644 294.632V298.568C687.644 300.136 688.044 301.36 688.844 302.24C689.644 303.104 690.764 303.536 692.204 303.536C693.612 303.536 694.644 303.136 695.3 302.336C695.972 301.536 696.307 300.472 696.307 299.144V298.736H691.22V297.008H698.276V305H696.452V303.176H696.116C695.94 303.528 695.692 303.872 695.372 304.208C695.052 304.544 694.62 304.816 694.076 305.024C693.532 305.232 692.828 305.336 691.964 305.336ZM705.593 305V298.592L699.617 288.2H701.921L706.433 296.264H706.769L711.281 288.2H713.585L707.609 298.592V305H705.593Z" fill="black"/>
<path d="M600.6 372L605.784 355.2H609.336L614.52 372H612.432L611.136 367.752H603.984L602.688 372H600.6ZM604.488 365.928H610.608L607.728 356.424H607.392L604.488 365.928ZM617.037 372V355.2H620.949L626.805 370.728H627.117V355.2H629.109V372H625.197L619.365 356.448H619.029V372H617.037ZM631.655 372L636.839 355.2H640.391L645.575 372H643.487L642.191 367.752H635.039L633.743 372H631.655ZM635.543 365.928H641.663L638.783 356.424H638.447L635.543 365.928ZM648.092 372V355.2H650.108V370.176H658.604V372H648.092ZM662.656 372V365.592L656.68 355.2H658.984L663.496 363.264H663.832L668.344 355.2H670.648L664.672 365.592V372H662.656ZM678.082 372.336C676.866 372.336 675.778 372.12 674.818 371.688C673.858 371.256 673.098 370.608 672.538 369.744C671.994 368.864 671.722 367.768 671.722 366.456V365.952H673.714V366.456C673.714 367.848 674.122 368.888 674.938 369.576C675.754 370.248 676.802 370.584 678.082 370.584C679.394 370.584 680.394 370.288 681.082 369.696C681.77 369.104 682.114 368.36 682.114 367.464C682.114 366.84 681.954 366.344 681.634 365.976C681.33 365.608 680.898 365.312 680.338 365.088C679.778 364.848 679.122 364.64 678.37 364.464L677.122 364.152C676.146 363.896 675.282 363.584 674.53 363.216C673.778 362.848 673.186 362.368 672.754 361.776C672.338 361.168 672.13 360.392 672.13 359.448C672.13 358.504 672.362 357.688 672.826 357C673.306 356.312 673.97 355.784 674.818 355.416C675.682 355.048 676.674 354.864 677.794 354.864C678.93 354.864 679.946 355.064 680.842 355.464C681.754 355.848 682.466 356.424 682.978 357.192C683.506 357.944 683.77 358.896 683.77 360.048V361.056H681.778V360.048C681.778 359.232 681.602 358.576 681.25 358.08C680.914 357.584 680.442 357.216 679.834 356.976C679.242 356.736 678.562 356.616 677.794 356.616C676.69 356.616 675.802 356.864 675.13 357.36C674.458 357.84 674.122 358.528 674.122 359.424C674.122 360.016 674.266 360.496 674.554 360.864C674.842 361.232 675.25 361.536 675.778 361.776C676.306 362 676.938 362.2 677.674 362.376L678.922 362.688C679.898 362.896 680.77 363.184 681.538 363.552C682.322 363.904 682.946 364.392 683.41 365.016C683.874 365.624 684.106 366.424 684.106 367.416C684.106 368.408 683.858 369.272 683.362 370.008C682.866 370.744 682.162 371.32 681.25 371.736C680.354 372.136 679.298 372.336 678.082 372.336ZM687.209 372V355.2H689.225V372H687.209ZM698.66 372.336C697.444 372.336 696.356 372.12 695.396 371.688C694.436 371.256 693.676 370.608 693.116 369.744C692.572 368.864 692.3 367.768 692.3 366.456V365.952H694.292V366.456C694.292 367.848 694.7 368.888 695.516 369.576C696.332 370.248 697.38 370.584 698.66 370.584C699.972 370.584 700.972 370.288 701.66 369.696C702.348 369.104 702.692 368.36 702.692 367.464C702.692 366.84 702.532 366.344 702.212 365.976C701.908 365.608 701.476 365.312 700.916 365.088C700.356 364.848 699.7 364.64 698.948 364.464L697.7 364.152C696.724 363.896 695.86 363.584 695.108 363.216C694.356 362.848 693.764 362.368 693.332 361.776C692.916 361.168 692.708 360.392 692.708 359.448C692.708 358.504 692.94 357.688 693.404 357C693.884 356.312 694.548 355.784 695.396 355.416C696.26 355.048 697.252 354.864 698.372 354.864C699.508 354.864 700.524 355.064 701.42 355.464C702.332 355.848 703.044 356.424 703.556 357.192C704.084 357.944 704.348 358.896 704.348 360.048V361.056H702.356V360.048C702.356 359.232 702.18 358.576 701.828 358.08C701.492 357.584 701.02 357.216 700.412 356.976C699.82 356.736 699.14 356.616 698.372 356.616C697.268 356.616 696.38 356.864 695.708 357.36C695.036 357.84 694.7 358.528 694.7 359.424C694.7 360.016 694.844 360.496 695.132 360.864C695.42 361.232 695.828 361.536 696.356 361.776C696.884 362 697.516 362.2 698.252 362.376L699.5 362.688C700.476 362.896 701.348 363.184 702.116 363.552C702.9 363.904 703.524 364.392 703.988 365.016C704.452 365.624 704.684 366.424 704.684 367.416C704.684 368.408 704.436 369.272 703.94 370.008C703.444 370.744 702.74 371.32 701.828 371.736C700.932 372.136 699.876 372.336 698.66 372.336Z" fill="black"/>
<path d="M524.888 230.501C524.847 222.21 524.888 215.197 525.012 214.908C525.094 214.578 525.423 214.413 525.67 214.537C526.04 214.661 526.163 218.703 526.163 230.13C526.163 243.577 526.081 245.557 525.546 245.557C525.012 245.557 524.93 243.577 524.888 230.501Z" fill="#1976D2"/>
<path d="M522.668 222.25C520.899 222.25 520.611 222.126 520.611 221.425C520.611 220.723 520.899 220.6 522.668 220.6C524.436 220.6 524.724 220.723 524.724 221.425C524.724 222.126 524.436 222.25 522.668 222.25Z" fill="#81D4FA"/>
<path d="M528.014 222.25C526.657 222.25 526.369 222.126 526.369 221.425C526.369 220.723 526.657 220.6 528.014 220.6C529.371 220.6 529.659 220.723 529.659 221.425C529.659 222.126 529.371 222.25 528.014 222.25Z" fill="#81D4FA"/>
<path d="M517.405 221.673C517.364 221.302 517.528 220.724 517.775 220.394C518.022 220.064 518.556 219.775 518.926 219.775C519.297 219.734 519.831 220.023 520.078 220.394C520.366 220.724 520.571 221.302 520.489 221.673C520.448 222.044 520.078 222.58 519.667 222.828C519.173 223.158 518.762 223.158 518.227 222.828C517.857 222.58 517.487 222.044 517.405 221.673Z" fill="#FFEE58"/>
<path d="M529.742 221.673C529.701 221.302 529.866 220.724 530.113 220.394C530.359 220.064 530.894 219.775 531.264 219.775C531.634 219.734 532.169 220.023 532.416 220.394C532.704 220.724 532.909 221.302 532.827 221.673C532.786 222.044 532.416 222.58 532.004 222.828C531.511 223.158 531.1 223.158 530.565 222.828C530.195 222.58 529.825 222.044 529.742 221.673Z" fill="#FFEE58"/>
<path d="M518.966 216.681C519.008 216.31 519.46 215.567 519.995 215.031C520.694 214.33 521.434 214 522.462 214C523.243 214 524.148 214.082 524.395 214.206C524.765 214.371 524.889 215.361 524.724 220.6H522.668C521.557 220.6 520.241 220.352 519.789 220.064C519.172 219.692 518.761 219.693 518.226 220.023C517.856 220.27 517.527 220.889 517.527 221.425C517.527 221.961 517.856 222.58 518.226 222.827C518.761 223.157 519.172 223.158 519.789 222.745C520.241 222.498 521.516 222.25 524.724 222.25L524.93 245.721L523.819 246.34C523.161 246.711 521.927 247 521.023 247C520.118 247 518.843 246.67 518.144 246.257C517.486 245.886 516.704 245.144 516.417 244.607C516.06 243.975 515.512 243.672 514.772 243.7C514.072 243.7 513.209 243.288 512.592 242.669C512.016 242.091 511.564 241.184 511.564 240.606C511.564 240.029 511.194 239.08 510.7 238.461C510.124 237.636 509.878 236.811 509.96 235.656C510.001 234.749 509.836 233.594 509.59 233.058C509.302 232.562 509.055 231.531 509.014 230.747C508.932 229.881 509.22 228.974 509.713 228.314C510.165 227.736 510.618 226.581 510.659 225.756C510.741 224.849 511.152 223.9 511.769 223.281C512.304 222.704 513.044 222.25 513.414 222.25C513.867 222.25 514.031 221.838 514.031 220.806C514.031 219.816 514.36 219.032 515.059 218.331C515.759 217.63 516.499 217.3 517.527 217.3C518.555 217.3 518.966 217.094 518.966 216.681Z" fill="#1E88E5"/>
<path d="M526.205 217.506C526.081 215.361 526.163 214.33 526.492 214.248C526.78 214.124 527.685 214.041 528.508 214.041C529.659 214 530.358 214.289 531.099 215.031C531.674 215.609 532.127 216.351 532.127 216.681C532.127 217.094 532.579 217.3 533.566 217.3C534.553 217.3 535.334 217.63 536.034 218.331C536.733 219.032 537.062 219.816 537.062 220.806C537.062 221.796 537.267 222.25 537.679 222.25C538.008 222.25 538.748 222.704 539.324 223.281C540.023 223.983 540.352 224.766 540.352 225.756C540.352 226.581 540.722 227.695 541.174 228.314C541.668 228.974 542.038 230.087 541.997 230.789C541.997 231.531 541.791 232.562 541.503 233.058C541.257 233.594 541.092 234.749 541.133 235.656C541.215 236.811 540.969 237.636 540.393 238.42C539.899 239.08 539.529 240.029 539.529 240.606C539.529 241.184 539.077 242.091 538.501 242.669C537.925 243.288 537.062 243.7 536.363 243.7C535.581 243.7 535.047 243.989 534.676 244.607C534.389 245.144 533.607 245.886 532.949 246.257C532.25 246.67 530.975 247 530.07 247C529.166 247 527.932 246.711 526.163 245.721L526.369 222.25H528.014C528.919 222.25 530.029 222.498 530.482 222.745C531.099 223.158 531.51 223.157 532.044 222.827C532.415 222.58 532.744 221.961 532.744 221.425C532.744 220.889 532.415 220.27 532.044 220.023C531.51 219.693 531.099 219.692 530.482 220.064C530.029 220.352 528.919 220.6 526.369 220.6L526.205 217.506Z" fill="#1E88E5"/>
<path d="M519.378 228.025C518.432 228.025 518.144 227.86 518.144 227.2C518.144 226.499 518.432 226.375 522.256 226.375V228.438C522.256 230.211 522.133 230.5 521.434 230.5C520.776 230.5 520.611 230.211 520.611 229.263C520.611 228.149 520.488 228.025 519.378 228.025Z" fill="#81D4FA"/>
<path d="M529.659 230.5C528.96 230.5 528.837 230.211 528.837 228.438V226.375H530.893C532.661 226.375 532.949 226.499 532.949 227.2C532.949 227.86 532.661 228.025 531.715 228.025C530.605 228.025 530.482 228.149 530.482 229.263C530.482 230.211 530.317 230.5 529.659 230.5Z" fill="#81D4FA"/>
<path d="M514.031 237.925V236.275C514.031 234.914 514.155 234.625 514.854 234.625C515.402 234.625 515.676 234.9 515.676 235.45C515.676 236.193 515.964 236.275 522.256 236.275V237.925C522.256 239.286 522.133 239.575 521.434 239.575C520.886 239.575 520.611 239.3 520.611 238.75C520.611 238.007 520.324 237.925 514.031 237.925Z" fill="#81D4FA"/>
<path d="M532.127 236.275C535.129 236.275 535.417 236.193 535.417 235.45C535.417 234.9 535.691 234.625 536.239 234.625C536.938 234.625 537.062 234.914 537.062 237.925H533.772C530.769 237.925 530.482 238.007 530.482 238.75C530.482 239.3 530.207 239.575 529.659 239.575C528.96 239.575 528.837 239.286 528.837 236.275H532.127Z" fill="#81D4FA"/>
<path d="M514.936 227.448C514.895 227.077 515.06 226.5 515.307 226.17C515.553 225.84 516.088 225.551 516.458 225.551C516.828 225.51 517.363 225.798 517.61 226.17C517.898 226.5 518.103 227.077 518.021 227.448C517.98 227.82 517.61 228.356 517.198 228.603C516.705 228.933 516.294 228.933 515.759 228.603C515.389 228.356 515.019 227.82 514.936 227.448Z" fill="#FFEE58"/>
<path d="M533.032 227.448C532.991 227.077 533.155 226.5 533.402 226.17C533.649 225.84 534.183 225.551 534.554 225.551C534.924 225.51 535.458 225.798 535.705 226.17C535.993 226.5 536.199 227.077 536.116 227.448C536.075 227.82 535.705 228.356 535.294 228.603C534.8 228.933 534.389 228.933 533.854 228.603C533.484 228.356 533.114 227.82 533.032 227.448Z" fill="#FFEE58"/>
<path d="M519.872 232.398C519.83 232.027 519.995 231.45 520.242 231.12C520.488 230.79 521.023 230.501 521.393 230.501C521.763 230.46 522.298 230.748 522.545 231.12C522.833 231.45 523.038 232.027 522.956 232.398C522.915 232.77 522.545 233.306 522.134 233.553C521.64 233.883 521.229 233.883 520.694 233.553C520.324 233.306 519.954 232.77 519.872 232.398Z" fill="#FFEE58"/>
<path d="M528.097 232.398C528.056 232.027 528.22 231.45 528.467 231.12C528.714 230.79 529.248 230.501 529.618 230.501C529.989 230.46 530.523 230.748 530.77 231.12C531.058 231.45 531.263 232.027 531.181 232.398C531.14 232.77 530.77 233.306 530.359 233.553C529.865 233.883 529.454 233.883 528.919 233.553C528.549 233.306 528.179 232.77 528.097 232.398Z" fill="#FFEE58"/>
<path d="M513.291 233.223C513.25 232.852 513.415 232.275 513.662 231.945C513.908 231.615 514.443 231.326 514.813 231.326C515.183 231.285 515.718 231.573 515.965 231.945C516.253 232.275 516.458 232.852 516.376 233.223C516.335 233.595 515.965 234.131 515.553 234.378C515.06 234.708 514.649 234.708 514.114 234.378C513.744 234.131 513.374 233.595 513.291 233.223Z" fill="#FFEE58"/>
<path d="M534.677 233.223C534.636 232.852 534.8 232.275 535.047 231.945C535.294 231.615 535.828 231.326 536.199 231.326C536.569 231.285 537.103 231.573 537.35 231.945C537.638 232.275 537.844 232.852 537.761 233.223C537.72 233.595 537.35 234.131 536.939 234.378C536.445 234.708 536.034 234.708 535.499 234.378C535.129 234.131 534.759 233.595 534.677 233.223Z" fill="#FFEE58"/>
<path d="M519.872 241.473C519.83 241.102 519.995 240.525 520.242 240.195C520.488 239.865 521.023 239.576 521.393 239.576C521.763 239.535 522.298 239.823 522.545 240.195C522.833 240.525 523.038 241.102 522.956 241.473C522.915 241.845 522.545 242.381 522.134 242.628C521.64 242.958 521.229 242.958 520.694 242.628C520.324 242.381 519.954 241.845 519.872 241.473Z" fill="#FFEE58"/>
<path d="M528.097 241.473C528.056 241.102 528.22 240.525 528.467 240.195C528.714 239.865 529.248 239.576 529.618 239.576C529.989 239.535 530.523 239.823 530.77 240.195C531.058 240.525 531.263 241.102 531.181 241.473C531.14 241.845 530.77 242.381 530.359 242.628C529.865 242.958 529.454 242.958 528.919 242.628C528.549 242.381 528.179 241.845 528.097 241.473Z" fill="#FFEE58"/>
<path fill-rule="evenodd" clip-rule="evenodd" d="M526.207 281.032C529.365 281.115 530.82 281.364 532.358 282.027C533.438 282.525 534.394 283.105 534.477 283.313C534.602 283.52 534.394 284.349 533.48 286.672L531.277 285.51C529.407 284.557 528.659 284.391 525.583 284.391C522.674 284.391 521.677 284.598 519.973 285.427C518.809 285.967 517.147 287.211 516.232 288.123C515.318 289.035 514.071 290.735 513.531 291.855C512.699 293.555 512.492 294.551 512.492 297.453C512.492 300.356 512.699 301.351 513.531 303.052C514.071 304.213 515.318 305.872 516.232 306.784C517.147 307.696 518.809 308.899 519.973 309.479C521.677 310.309 522.674 310.475 525.583 310.475C528.493 310.475 529.49 310.309 531.194 309.479C532.316 308.899 534.02 307.696 534.935 306.784C535.849 305.872 537.054 304.171 537.636 303.052C538.426 301.351 538.634 300.315 538.634 297.453C538.634 294.426 538.509 293.638 536.389 289.574L537.844 288.952C538.634 288.621 539.506 288.413 539.714 288.538C539.922 288.662 540.545 289.616 541.044 290.735C541.792 292.353 541.958 293.431 542 297.246C542 301.559 541.917 301.974 540.628 304.628C539.922 306.162 538.467 308.235 537.428 309.272C536.389 310.309 534.311 311.76 532.732 312.465C530.363 313.626 529.407 313.834 526.207 313.958C523.131 314.082 522.009 313.958 519.973 313.212C518.601 312.672 516.648 311.677 515.609 310.931C514.57 310.184 513.074 308.691 512.242 307.572C511.411 306.452 510.331 304.42 509.79 303.052C509.042 300.937 508.917 299.942 509.042 296.624C509.208 293.348 509.458 292.27 510.455 290.196C511.12 288.828 512.575 286.796 513.739 285.635C514.861 284.474 516.731 283.105 517.895 282.566C519.017 282.027 520.43 281.405 521.012 281.239C521.594 281.032 523.921 280.949 526.207 281.032ZM525.376 287.542C526.29 287.501 527.703 287.708 528.493 287.957C529.282 288.247 530.488 288.828 532.275 290.196L530.114 292.27L528.576 291.523C527.454 290.984 526.456 290.818 524.96 290.984C523.796 291.067 522.425 291.523 521.843 291.98C521.261 292.436 520.43 293.307 519.973 293.887C519.349 294.716 519.141 295.67 519.141 297.453C519.141 299.278 519.349 300.149 520.014 301.061C520.513 301.683 521.427 302.596 522.009 303.052C522.84 303.674 523.796 303.881 525.583 303.881C527.412 303.881 528.285 303.674 529.199 303.01C529.823 302.513 530.695 301.683 531.111 301.144C531.527 300.605 531.984 299.237 532.067 298.075C532.233 296.583 532.067 295.587 530.779 292.933L532.857 290.777L533.729 291.938C534.228 292.56 534.81 293.763 535.101 294.551C535.35 295.339 535.558 296.666 535.558 297.453C535.558 298.241 535.309 299.651 535.059 300.564C534.727 301.559 533.729 303.052 532.441 304.296C531.194 305.581 529.698 306.577 528.7 306.908C527.786 307.157 526.373 307.406 525.583 307.406C524.794 307.406 523.381 307.157 522.466 306.908C521.469 306.577 519.973 305.581 518.726 304.296C517.437 303.052 516.44 301.559 516.107 300.564C515.858 299.651 515.609 298.241 515.609 297.453C515.609 296.666 515.858 295.256 516.107 294.343C516.44 293.348 517.437 291.855 518.726 290.611C519.848 289.45 521.469 288.289 522.259 288.04C523.048 287.791 524.461 287.584 525.376 287.542ZM525.583 294.136C526.248 294.136 526.913 294.343 527.038 294.551C527.163 294.799 526.83 295.421 526.332 296.002C525.791 296.583 525.5 297.163 525.708 297.329C525.874 297.536 526.456 297.246 527.038 296.748C527.62 296.209 528.285 295.878 528.493 296.002C528.7 296.126 528.908 296.79 528.908 297.453C528.908 298.2 528.534 299.112 527.869 299.734C527.246 300.398 526.415 300.771 525.583 300.771C524.794 300.771 523.963 300.398 523.298 299.734C522.633 299.071 522.259 298.241 522.259 297.453C522.3 296.666 522.716 295.753 523.298 295.173C523.921 294.509 524.752 294.136 525.583 294.136Z" fill="#FF3D00"/>
<path fill-rule="evenodd" clip-rule="evenodd" d="M526.206 284.308C528.243 284.432 529.739 284.764 531.194 285.469C532.898 286.34 533.313 286.754 533.396 287.75C533.479 288.496 533.272 289.16 532.898 289.45C532.357 289.906 532.025 289.864 531.11 289.242C530.445 288.786 529.282 288.247 528.492 287.957C527.702 287.708 526.372 287.501 525.583 287.501C524.793 287.501 523.38 287.75 522.466 287.998C521.468 288.33 519.972 289.325 518.725 290.611C517.437 291.855 516.439 293.348 516.107 294.343C515.858 295.255 515.608 296.665 515.608 297.453C515.608 298.241 515.858 299.651 516.107 300.563C516.439 301.559 517.437 303.052 518.725 304.296C519.972 305.581 521.468 306.576 522.466 306.908C523.38 307.157 524.793 307.406 525.583 307.406C526.372 307.406 527.786 307.157 528.7 306.908C529.697 306.576 531.194 305.581 532.44 304.296C533.729 303.052 534.726 301.559 535.059 300.563C535.308 299.651 535.557 298.241 535.557 297.453C535.557 296.665 535.35 295.338 535.1 294.55C534.809 293.763 534.269 292.601 533.812 291.938C533.188 291.026 533.147 290.694 533.604 290.155C533.895 289.782 534.56 289.574 535.308 289.657C536.306 289.74 536.721 290.155 537.594 291.855C538.467 293.597 538.633 294.509 538.633 297.453C538.633 300.315 538.425 301.351 537.635 303.052C537.054 304.213 535.848 305.871 534.934 306.784C534.02 307.696 532.316 308.899 531.194 309.479C529.49 310.309 528.492 310.474 525.583 310.474C522.674 310.474 521.676 310.309 519.972 309.479C518.85 308.899 517.146 307.696 516.232 306.784C515.317 305.871 514.112 304.171 513.572 303.052C513.031 301.89 512.491 299.858 512.366 298.49C512.2 296.748 512.366 295.338 512.907 293.721C513.281 292.477 514.154 290.652 514.818 289.657C515.483 288.703 516.813 287.376 517.811 286.713C518.767 286.049 520.388 285.22 521.427 284.847C522.674 284.391 524.253 284.225 526.206 284.308ZM525.5 290.818C526.206 290.818 527.495 291.109 528.284 291.44C529.074 291.772 529.739 292.187 529.739 292.394C529.739 292.56 529.323 293.099 528.783 293.597C528.035 294.385 527.578 294.509 526.206 294.26C524.752 294.053 524.378 294.136 523.422 295.09C522.674 295.836 522.258 296.624 522.258 297.453C522.258 298.241 522.632 299.071 523.297 299.734C523.962 300.398 524.793 300.771 525.583 300.771C526.456 300.771 527.245 300.398 527.952 299.651C528.908 298.656 528.991 298.241 528.783 296.831C528.534 295.38 528.658 295.048 529.573 294.136C530.612 293.099 530.653 293.099 531.235 293.928C531.568 294.385 531.942 295.421 532.066 296.209C532.233 296.997 532.191 298.324 532.025 299.112C531.859 299.941 531.069 301.185 530.196 302.056C529.199 303.079 528.146 303.687 527.037 303.881C526.123 304.047 524.71 304.047 523.92 303.881C523.089 303.715 521.842 302.927 520.97 302.056C519.944 301.061 519.335 300.01 519.141 298.905C518.975 297.992 518.975 296.624 519.099 295.919C519.224 295.172 519.806 293.97 520.305 293.265C520.845 292.518 521.925 291.689 522.715 291.399C523.505 291.109 524.752 290.86 525.5 290.818Z" fill="white"/>
<path d="M534.227 284.805C534.642 283.893 535.432 282.815 536.014 282.4C536.554 282.027 537.261 281.695 537.552 281.695C537.801 281.695 538.05 282.151 538.05 282.732C538.05 283.313 538.175 283.769 538.383 283.769C538.549 283.769 539.006 283.437 539.422 283.022C539.796 282.649 540.253 282.442 540.461 282.608C540.627 282.815 540.419 283.271 540.045 283.644C539.63 284.059 539.297 284.515 539.297 284.723C539.297 284.888 539.754 285.013 540.336 285.013C540.918 285.013 541.375 285.262 541.375 285.552C541.375 285.801 541.126 286.506 540.793 287.045C540.461 287.584 539.38 288.372 538.383 288.786C537.427 289.201 536.014 289.574 535.266 289.574C534.144 289.574 533.354 290.196 530.071 293.514C527.951 295.712 526.081 297.453 525.915 297.453C525.707 297.453 525.582 297.329 525.582 297.163C525.582 296.956 527.328 295.048 529.53 292.892C532.772 289.657 533.479 288.745 533.479 287.708C533.479 287.045 533.811 285.718 534.227 284.805Z" fill="#1976D2"/>
<path d="M536.789 380.001V369.667V359.334H542V380.001H536.789Z" fill="#00BCD4"/>
<path d="M522.895 380.001V371.39V362.778H528.105V380.001H522.895Z" fill="#00BCD4"/>
<path d="M529.842 380.001V373.112V366.223H535.053V380.001H529.842Z" fill="#00BCD4"/>
<path d="M509 380.001V373.973V367.945H514.211V380.001H509Z" fill="#00BCD4"/>
<path d="M515.947 380.001V375.695V371.39H521.158V380.001H515.947Z" fill="#00BCD4"/>
<path d="M534.922 351.626C535.834 351.196 536.963 350.421 537.397 349.904C537.832 349.387 538.743 349 539.351 349C539.959 349 540.828 349.344 541.262 349.775C541.696 350.162 542 350.981 542 351.583C542 352.186 541.653 353.004 541.218 353.435C540.828 353.865 540.046 354.21 539.482 354.167C538.961 354.167 537.788 354.554 536.876 354.985C536.008 355.415 534.879 356.19 534.401 356.707C533.924 357.224 533.055 357.654 532.447 357.654C531.839 357.654 531.058 357.353 530.711 356.965C530.363 356.578 529.364 356.147 528.539 356.018C527.714 355.846 526.629 355.76 526.151 355.846C525.674 355.932 524.371 356.75 523.199 357.654C522.07 358.558 521.158 359.592 521.158 359.893C521.158 360.151 520.811 360.754 520.376 361.185C519.986 361.615 519.117 361.96 518.422 361.917C517.771 361.917 517.163 361.701 517.033 361.486C516.903 361.271 516.295 360.84 515.6 360.582C514.949 360.324 513.559 360.108 512.474 360.151C511.214 360.151 510.259 359.893 509.738 359.419C509.304 359.032 509 358.214 509 357.611C509 357.008 509.347 356.19 509.782 355.76C510.172 355.329 510.997 354.985 511.605 354.985C512.213 354.985 512.995 355.286 513.342 355.674C513.689 356.061 514.688 356.492 515.513 356.621C516.338 356.793 517.424 356.879 517.901 356.793C518.379 356.707 519.682 355.889 520.811 354.985C521.983 354.081 522.895 353.047 522.895 352.789C522.895 352.487 523.242 351.885 523.676 351.454C524.067 351.024 524.936 350.679 525.587 350.722C526.282 350.722 526.889 350.894 527.02 351.153C527.15 351.411 527.758 351.799 528.409 352.057C529.104 352.315 530.45 352.531 531.449 352.488C532.491 352.444 534.054 352.057 534.922 351.626Z" fill="#3F51B5"/>
<line x1="50" y1="205.5" x2="332" y2="205.5" stroke="#2085E2"/>
<line x1="50" y1="275.521" x2="332" y2="275.521" stroke="#2085E2"/>
<line x1="50" y1="345.5" x2="332" y2="345.5" stroke="#2085E2"/>
<rect x="50" y="276" width="282" height="69" fill="#2D557A"/>
<rect x="50" y="206" width="282" height="69" fill="#2D557A"/>
<rect x="33" y="229" width="82" height="46" rx="20" fill="#D9D9D9"/>
<g clip-path="url(#clip0_9104_3176)">
<path d="M79.8301 236.822H90.3005L90.3727 260.347H83.2998V243.379H79.8301V236.822Z" fill="#B1C2D2"/>
<path d="M78.387 254.489V235H56.002V243.313H69.4546L78.387 254.489Z" fill="#014372"/>
<path d="M68.1696 268.179H57.6992L57.627 244.654H64.7017V261.622H68.1696V268.179Z" fill="#B1C2D2"/>
<path d="M69.6133 250.512V270.001H91.9983V261.688H78.5456L69.6133 250.512Z" fill="#014372"/>
</g>
<rect x="241.463" y="160" width="79.9526" height="45.7371" rx="20" fill="#D9D9D9"/>
<rect x="155" y="300" width="79.9526" height="45.7371" rx="20" fill="#D9D9D9"/>
<g clip-path="url(#clip1_9104_3176)">
<path d="M193.404 340.5C203.045 340.5 210.861 332.684 210.861 323.043C210.861 313.402 203.045 305.586 193.404 305.586C183.763 305.586 175.947 313.402 175.947 323.043C175.947 332.684 183.763 340.5 193.404 340.5Z" fill="#2CA01C"/>
<path d="M180.797 323.043C180.797 324.844 181.512 326.571 182.786 327.844C184.059 329.117 185.785 329.832 187.586 329.832H188.556V327.311H187.586C187.023 327.315 186.464 327.208 185.942 326.996C185.421 326.783 184.946 326.47 184.546 326.073C184.147 325.676 183.829 325.204 183.613 324.684C183.396 324.164 183.284 323.607 183.284 323.043C183.284 322.48 183.396 321.922 183.613 321.402C183.829 320.882 184.147 320.41 184.546 320.014C184.946 319.617 185.421 319.303 185.942 319.091C186.464 318.879 187.023 318.772 187.586 318.776H189.913V331.966C189.914 332.634 190.179 333.276 190.652 333.749C191.125 334.221 191.766 334.487 192.435 334.488V316.255H187.586C186.694 316.255 185.812 316.43 184.988 316.771C184.164 317.112 183.416 317.612 182.785 318.243C182.155 318.873 181.655 319.622 181.314 320.445C180.972 321.269 180.797 322.152 180.797 323.043ZM199.224 316.255H198.254V318.776H199.224C200.347 318.789 201.42 319.244 202.21 320.043C203 320.842 203.443 321.92 203.443 323.043C203.443 324.167 203 325.245 202.21 326.044C201.42 326.843 200.347 327.298 199.224 327.311H196.896V314.121C196.896 313.79 196.831 313.462 196.704 313.156C196.578 312.85 196.392 312.572 196.158 312.338C195.924 312.104 195.646 311.918 195.34 311.792C195.034 311.665 194.706 311.6 194.375 311.6V329.833H199.224C201.024 329.833 202.751 329.117 204.024 327.844C205.297 326.571 206.013 324.844 206.013 323.044C206.013 321.243 205.297 319.516 204.024 318.243C202.751 316.97 201.024 316.255 199.224 316.255Z" fill="white"/>
</g>
<rect x="241.461" y="160" width="79.9526" height="45.7371" rx="20" fill="#D9D9D9"/>
<path fill-rule="evenodd" clip-rule="evenodd" d="M278 165C268.072 165 260 173.068 260 183C260 192.932 268.072 201 278 201H296V183C296 173.068 287.966 165 278 165ZM285.124 190.116H278C274.059 190.116 270.876 186.92 270.876 183C270.876 179.08 274.059 175.884 278 175.884C281.941 175.884 285.124 179.08 285.124 183V190.116Z" fill="#49C8F5"/>
<line x1="969" y1="205.5" x2="1251" y2="205.5" stroke="#2085E2"/>
<line x1="969" y1="275.521" x2="1251" y2="275.521" stroke="#2085E2"/>
<line x1="969" y1="345.5" x2="1251" y2="345.5" stroke="#2085E2"/>
<rect x="969" y="276" width="282" height="69" fill="#2D557A"/>
<rect x="969" y="206" width="282" height="69" fill="#2D557A"/>
<rect x="969" y="238" width="78.556" height="38.056" rx="19.028" fill="white"/>
<path d="M990.566 262.729V251.529H997.334V252.745H991.91V256.505H996.902V257.721H991.91V262.729H990.566ZM999.206 262.729V251.529H1003.49C1004.17 251.529 1004.76 251.662 1005.29 251.929C1005.82 252.185 1006.24 252.553 1006.55 253.033C1006.86 253.513 1007.01 254.094 1007.01 254.777V254.985C1007.01 255.657 1006.85 256.238 1006.53 256.729C1006.23 257.209 1005.8 257.577 1005.27 257.833C1004.74 258.089 1004.15 258.217 1003.49 258.217H1000.55V262.729H999.206ZM1000.55 257.001H1003.35C1004.07 257.001 1004.63 256.825 1005.05 256.473C1005.46 256.11 1005.67 255.603 1005.67 254.953V254.793C1005.67 254.142 1005.46 253.641 1005.05 253.289C1004.64 252.926 1004.08 252.745 1003.35 252.745H1000.55V257.001ZM1011.54 262.729C1010.92 262.729 1010.36 262.611 1009.86 262.377C1009.35 262.142 1008.96 261.806 1008.67 261.369C1008.38 260.931 1008.24 260.398 1008.24 259.769C1008.24 259.299 1008.33 258.889 1008.51 258.537C1008.69 258.185 1008.93 257.897 1009.22 257.673C1009.51 257.438 1009.83 257.262 1010.16 257.145V256.969C1009.67 256.819 1009.24 256.547 1008.88 256.153C1008.52 255.747 1008.34 255.198 1008.34 254.505C1008.34 253.865 1008.49 253.321 1008.78 252.873C1009.08 252.425 1009.48 252.089 1009.97 251.865C1010.46 251.641 1011 251.529 1011.6 251.529H1013.62V252.617H1011.76C1011.16 252.617 1010.66 252.782 1010.24 253.113C1009.83 253.433 1009.63 253.923 1009.63 254.585C1009.63 255.033 1009.73 255.401 1009.92 255.689C1010.12 255.977 1010.38 256.19 1010.7 256.329C1011.02 256.457 1011.38 256.521 1011.76 256.521H1013.97V254.809H1015.23V256.521H1016.8V257.625H1015.23V262.729H1011.54ZM1011.7 261.641H1013.97V257.625H1011.7C1011.09 257.625 1010.57 257.79 1010.14 258.121C1009.73 258.441 1009.52 258.942 1009.52 259.625C1009.52 260.307 1009.73 260.814 1010.16 261.145C1010.6 261.475 1011.11 261.641 1011.7 261.641ZM1017.59 262.729L1021.05 251.529H1023.42L1026.87 262.729H1025.48L1024.62 259.897H1019.85L1018.98 262.729H1017.59ZM1020.18 258.681H1024.26L1022.34 252.345H1022.12L1020.18 258.681Z" fill="black"/>
<rect x="1141" y="168" width="78.556" height="38.056" rx="19.028" fill="white"/>
<path d="M1167.2 192.729V181.529H1174.09V182.745H1168.54V186.489H1173.65V187.705H1168.54V191.513H1174.17V192.729H1167.2ZM1176.21 192.729V181.529H1180.74C1181.44 181.529 1182.04 181.651 1182.57 181.897C1183.1 182.131 1183.52 182.473 1183.81 182.921C1184.11 183.358 1184.26 183.886 1184.26 184.505V184.681C1184.26 185.417 1184.09 185.998 1183.73 186.425C1183.38 186.851 1182.97 187.139 1182.49 187.289V187.513C1182.87 187.523 1183.18 187.651 1183.43 187.897C1183.69 188.131 1183.81 188.489 1183.81 188.969V192.729H1182.49V189.129C1182.49 188.809 1182.4 188.563 1182.21 188.393C1182.04 188.222 1181.78 188.137 1181.43 188.137H1177.56V192.729H1176.21ZM1177.56 186.921H1180.61C1181.35 186.921 1181.92 186.745 1182.31 186.393C1182.72 186.03 1182.92 185.529 1182.92 184.889V184.777C1182.92 184.137 1182.72 183.641 1182.33 183.289C1181.93 182.926 1181.36 182.745 1180.61 182.745H1177.56V186.921ZM1186.31 192.729V181.529H1190.6C1191.27 181.529 1191.87 181.662 1192.39 181.929C1192.92 182.185 1193.34 182.553 1193.65 183.033C1193.96 183.513 1194.12 184.094 1194.12 184.777V184.985C1194.12 185.657 1193.96 186.238 1193.64 186.729C1193.33 187.209 1192.91 187.577 1192.37 187.833C1191.84 188.089 1191.25 188.217 1190.6 188.217H1187.65V192.729H1186.31ZM1187.65 187.001H1190.45C1191.17 187.001 1191.73 186.825 1192.15 186.473C1192.56 186.11 1192.77 185.603 1192.77 184.953V184.793C1192.77 184.142 1192.56 183.641 1192.15 183.289C1191.74 182.926 1191.18 182.745 1190.45 182.745H1187.65V187.001Z" fill="black"/>
<rect x="1082" y="307" width="78.556" height="38.056" rx="19.028" fill="white"/>
<path d="M1120.35 325.299L1108.45 323.199V338.716C1108.45 339.425 1109.02 339.999 1109.73 339.999H1130.27C1130.97 339.999 1131.55 339.425 1131.55 338.716V332.999L1120.35 325.299Z" fill="#185C37"/>
<path d="M1120.35 312H1109.73C1109.02 312 1108.45 312.574 1108.45 313.283V319L1120.35 326L1126.65 328.1L1131.55 326V319L1120.35 312Z" fill="#21A366"/>
<path d="M1108.45 319H1120.35V326H1108.45V319Z" fill="#107C41"/>
<path opacity="0.1" d="M1116.97 317.6H1108.45V335.1H1116.97C1117.67 335.097 1118.25 334.524 1118.25 333.817V318.883C1118.25 318.175 1117.67 317.602 1116.97 317.6Z" fill="black"/>
<path opacity="0.2" d="M1116.27 318.301H1108.45V335.801H1116.27C1116.97 335.798 1117.55 335.225 1117.55 334.518V319.584C1117.55 318.876 1116.97 318.303 1116.27 318.301Z" fill="black"/>
<path opacity="0.2" d="M1116.27 318.301H1108.45V334.401H1116.27C1116.97 334.398 1117.55 333.825 1117.55 333.118V319.584C1117.55 318.876 1116.97 318.303 1116.27 318.301Z" fill="black"/>
<path opacity="0.2" d="M1115.57 318.301H1108.45V334.401H1115.57C1116.27 334.398 1116.85 333.825 1116.85 333.118V319.584C1116.85 318.876 1116.27 318.303 1115.57 318.301Z" fill="black"/>
<path d="M1102.73 318.301H1115.57C1116.27 318.301 1116.85 318.875 1116.85 319.584V332.418C1116.85 333.126 1116.27 333.701 1115.57 333.701H1102.73C1102.02 333.701 1101.45 333.126 1101.45 332.418V319.584C1101.45 318.875 1102.02 318.301 1102.73 318.301Z" fill="url(#paint0_linear_9104_3176)"/>
<path d="M1105.42 330.17L1108.12 325.988L1105.65 321.828H1107.64L1108.99 324.488C1109.11 324.741 1109.2 324.928 1109.25 325.052H1109.26C1109.35 324.854 1109.44 324.658 1109.54 324.465L1110.99 321.83H1112.81L1110.28 325.964L1112.88 330.17H1110.93L1109.37 327.25C1109.3 327.126 1109.24 326.996 1109.19 326.86H1109.16C1109.12 326.993 1109.06 327.12 1108.98 327.238L1107.38 330.17H1105.42Z" fill="white"/>
<path d="M1130.27 312H1120.35V319H1131.55V313.283C1131.55 312.574 1130.98 312 1130.27 312Z" fill="#33C481"/>
<path d="M1120.35 326H1131.55V333H1120.35V326Z" fill="#107C41"/>
<defs>
<linearGradient id="paint0_linear_9104_3176" x1="1104.12" y1="317.298" x2="1114.17" y2="334.703" gradientUnits="userSpaceOnUse">
<stop stop-color="#18884F"/>
<stop offset="0.5" stop-color="#117E43"/>
<stop offset="1" stop-color="#0B6631"/>
</linearGradient>
<clipPath id="clip0_9104_3176">
<rect width="36" height="35" fill="white" transform="translate(56 235)"/>
</clipPath>
<clipPath id="clip1_9104_3176">
<rect width="34.9138" height="34.9138" fill="white" transform="translate(175.947 305.586)"/>
</clipPath>
</defs>
</svg>
